<svg xmlns="http://www.w3.org/2000/svg" width="56" height="56" viewBox="0 0 56 56" fill="none">
  <rect x="0.5" y="0.5" width="55" height="55" rx="7.5" fill="#EFF6FF" stroke="#A3CAFD"/>
  <path d="M34.9555 8C35.3727 8 35.7113 8.34019 35.7113 8.75949C35.7113 9.17879 35.3727 9.51899 34.9555 9.51899H10.7711C10.0764 9.51899 9.51152 10.0866 9.51152 10.7848V45.2152C9.51152 45.9134 10.0764 46.481 10.7711 46.481H45.0323C45.7271 46.481 46.2919 45.9134 46.2919 45.2152V20.9114C46.2919 20.4921 46.6304 20.1519 47.0477 20.1519C47.4649 20.1519 47.8034 20.4921 47.8034 20.9114V45.2152C47.8034 46.754 46.5635 48 45.0323 48H10.7711C9.2399 48 8 46.754 8 45.2152V10.7848C8 9.24603 9.2399 8 10.7711 8H34.9555Z" fill="#1072F4"/>
  <path fill-rule="evenodd" clip-rule="evenodd" d="M27.1282 14.5939C27.4254 13.6525 28.7539 13.6525 29.0511 14.5939L31.9285 23.7357L31.9718 23.8484C32.0899 24.1075 32.3123 24.3073 32.5858 24.3943L41.6807 27.2879C42.6195 27.5865 42.6195 28.9196 41.6807 29.2183L32.5858 32.1118C32.2729 32.2107 32.0269 32.4579 31.9285 32.7705L29.0511 41.9122C28.7618 42.826 27.5081 42.8537 27.1597 41.9973L27.1282 41.9122L24.2509 32.7705C24.1505 32.458 23.9064 32.2107 23.5935 32.1118L14.4987 29.2183C13.5599 28.9196 13.5599 27.5865 14.4987 27.2879L23.5935 24.3943C23.9064 24.2954 24.1505 24.0482 24.2509 23.7357L27.1282 14.5939ZM25.6895 24.1924C25.4435 24.9776 24.8314 25.5947 24.0481 25.8419L16.4708 28.2529L24.0481 30.6639C24.7822 30.8973 25.3667 31.4511 25.6403 32.1671L25.6895 32.3134L28.0887 39.9281L30.4878 32.3134L30.537 32.1671C30.8126 31.4511 31.3971 30.8973 32.1293 30.6639L39.7065 28.2529L32.1293 25.8419C31.3479 25.5947 30.7358 24.9776 30.4878 24.1924L28.0887 16.5777L25.6895 24.1924Z" fill="#1072F4"/>
  <path fill-rule="evenodd" clip-rule="evenodd" d="M40.6847 8.7594C41.0094 8.7594 41.2967 8.96708 41.4011 9.27363L42.8201 13.4489L46.9748 14.8769C47.2818 14.9817 47.4865 15.2705 47.4865 15.5948C47.4865 15.9192 47.2818 16.208 46.9748 16.3128L42.8201 17.7388L41.4011 21.9161C41.2968 22.2226 41.0094 22.4303 40.6847 22.4303C40.3619 22.4303 40.0746 22.2226 39.9702 21.9161L38.5512 17.7388L34.3945 16.3128C34.0895 16.208 33.8828 15.9192 33.8828 15.5948C33.8828 15.2705 34.0895 14.9817 34.3945 14.8769L38.5512 13.4489L39.9702 9.27363C40.0745 8.96706 40.3619 8.7594 40.6847 8.7594ZM39.862 14.2936C39.7852 14.5171 39.612 14.6911 39.3896 14.7663L36.9787 15.595L39.3896 16.4237C39.5845 16.489 39.7419 16.6314 39.8285 16.8153L39.862 16.8964L40.6847 19.3193L41.5093 16.8964C41.5841 16.6729 41.7593 16.4989 41.9797 16.4237L44.3926 15.595L41.9797 14.7663C41.7593 14.6911 41.5841 14.5171 41.5093 14.2936L40.6847 11.8687L39.862 14.2936Z" fill="#1072F4"/>
</svg>