<svg xmlns="http://www.w3.org/2000/svg" width="56" height="56" viewBox="0 0 56 56" fill="none">
  <rect x="0.5" y="0.5" width="55" height="55" rx="7.5" fill="#FFEFEF" stroke="#FDA3A3"/>
  <path d="M39.1472 10.5899C39.5587 9.80338 40.7014 9.80338 41.1128 10.5899C42.0196 12.5008 43.2891 14.1107 45.1299 15.2118L46.3038 15.9148C46.9687 16.3751 46.9687 17.3636 46.3038 17.8258L45.1299 18.5288C43.4119 19.5542 42.0527 21.0786 41.2299 22.8924C41.1441 23.0866 41.0641 23.273 40.9101 23.4265V41.3392C40.9101 42.2442 40.3134 42.9569 39.5919 43.4793C38.8547 44.0153 37.8349 44.4639 36.6474 44.829C34.2606 45.5592 31.0099 46 27.455 46C23.9002 46 20.6494 45.5592 18.2627 44.829C17.0751 44.4639 16.0553 44.0153 15.3182 43.4793C14.5967 42.9569 14 42.2442 14 41.3392V18.0354C14 17.1323 14.5967 16.4177 15.3182 15.8953C16.0553 15.3613 17.0751 14.9107 18.2627 14.5476C20.6495 13.8154 23.9002 13.3746 27.455 13.3746C30.8188 13.3746 33.9077 13.7688 36.2515 14.431C37.5483 13.3862 38.4413 12.0774 39.1472 10.5899ZM39.35 35.4881C38.6383 35.9503 37.71 36.3465 36.6473 36.6727C34.2605 37.4029 31.0098 37.8437 27.455 37.8437C23.9001 37.8437 20.6493 37.4029 18.2626 36.6727C17.1999 36.3464 16.2717 35.9503 15.5599 35.4881V41.3395C15.5599 41.5085 15.673 41.8173 16.2346 42.2231C16.7787 42.6173 17.6172 43.0057 18.7228 43.3436C20.9224 44.0175 24.0114 44.4467 27.4549 44.4467C30.8984 44.4467 33.9875 44.0175 36.187 43.3436C37.2926 43.0057 38.1311 42.6173 38.6752 42.2231C39.2368 41.8172 39.3499 41.5085 39.3499 41.3395L39.35 35.4881ZM39.35 27.7122C38.6383 28.1763 37.71 28.5725 36.6473 28.8987C34.2605 29.6328 31.0118 30.0756 27.455 30.0756C23.8981 30.0756 20.6493 29.6328 18.2626 28.8987C17.1999 28.5725 16.2717 28.1763 15.5599 27.7122V33.1828C15.593 33.5673 15.9421 33.8547 16.2346 34.0664C16.7787 34.4606 17.6172 34.849 18.7228 35.1869C20.9224 35.8608 24.0114 36.29 27.4549 36.29C30.8984 36.29 33.9875 35.8608 36.187 35.1869C37.2926 34.849 38.1311 34.4606 38.6752 34.0664C39.2368 33.6605 39.3499 33.3517 39.3499 33.1828L39.35 27.7122ZM15.56 25.3993C15.5931 25.7877 15.9422 26.0771 16.2367 26.2907C16.7807 26.6868 17.6173 27.0752 18.7229 27.4151C20.9225 28.0909 24.0115 28.522 27.455 28.522C30.8985 28.522 33.9876 28.0909 36.1871 27.4151C37.2927 27.0752 38.1293 26.6869 38.6734 26.2907C39.235 25.8829 39.35 25.5721 39.35 25.3993V23.4262C39.196 23.2747 39.116 23.0864 39.0302 22.8922C38.7358 22.2416 38.3711 21.6279 37.946 21.0609C37.5424 21.2279 37.1075 21.3832 36.6473 21.525C34.2605 22.2552 31.0098 22.696 27.455 22.696C23.9001 22.696 20.6493 22.2552 18.2626 21.525C17.1999 21.1987 16.2716 20.8026 15.5599 20.3404L15.56 25.3993ZM40.1303 12.1393C39.0344 14.1959 37.3632 15.6893 35.3859 16.87C37.3651 18.0507 39.0344 19.5461 40.1303 21.6007C41.2262 19.5461 42.8954 18.0507 44.8747 16.87C42.8974 15.6893 41.2262 14.1959 40.1303 12.1393ZM27.455 14.928C24.0113 14.928 20.9224 15.3572 18.7229 16.0311C17.6173 16.371 16.7788 16.7574 16.2347 17.1516C15.6731 17.5575 15.56 17.8663 15.56 18.0352C15.56 18.2042 15.6731 18.5129 16.2347 18.9188C16.7788 19.313 17.6173 19.7014 18.7229 20.0393C20.9225 20.7132 24.0115 21.1424 27.455 21.1424C30.8985 21.1424 33.9876 20.7132 36.1871 20.0393C36.4172 19.9694 36.6336 19.8956 36.8384 19.8218C36.3177 19.3286 35.7425 18.9032 35.1302 18.5284L34.0265 17.8701C33.2679 17.4176 33.2679 16.3223 34.0265 15.8699L34.4828 15.598C32.5035 15.1805 30.0836 14.928 27.455 14.928Z" fill="#F50707"/>
</svg>