<svg xmlns="http://www.w3.org/2000/svg" width="56" height="56" viewBox="0 0 56 56" fill="none">
  <rect x="0.5" y="0.5" width="55" height="55" rx="7.5" fill="#ECFDF5" stroke="#84F3BF"/>
  <path d="M47.6074 22.031C46.2732 17.2159 41.093 14.2436 35.887 15.2054C35.116 13.8151 33.9527 12.6796 32.5405 11.939C31.1284 11.1984 29.5292 10.8851 27.9402 11.0376C26.3512 11.1902 24.8418 11.802 23.5982 12.7976C22.3545 13.7932 21.4311 15.129 20.9417 16.6403C20.9127 16.7278 20.9013 16.82 20.9082 16.9118C20.9151 17.0037 20.9401 17.0932 20.9818 17.1754C21.0235 17.2576 21.0811 17.3309 21.1512 17.3909C21.2214 17.451 21.3027 17.4967 21.3907 17.5255C21.4786 17.5542 21.5714 17.5655 21.6637 17.5586C21.756 17.5517 21.8461 17.5268 21.9287 17.4852C22.0113 17.4437 22.0849 17.3864 22.1452 17.3166C22.2056 17.2468 22.2515 17.1658 22.2803 17.0783C22.6975 15.7881 23.4961 14.6531 24.5719 13.8214C25.6478 12.9898 26.9508 12.5001 28.3108 12.4165C29.6708 12.3329 31.0245 12.6592 32.1951 13.3528C33.3657 14.0464 34.2988 15.075 34.8725 16.3042C34.9423 16.4488 35.0597 16.5654 35.2052 16.6345C35.3508 16.7035 35.5157 16.721 35.6726 16.684C40.3236 15.573 45.0674 18.1407 46.2488 22.4034C47.1911 25.8049 45.586 29.6274 42.3457 31.6995C42.2075 31.7877 42.1046 31.9211 42.0549 32.0768C42.0052 32.2324 42.0118 32.4004 42.0735 32.5518C42.6834 34.002 42.8208 35.6059 42.4663 37.1379C42.1118 38.6698 41.2832 40.0526 40.0973 41.0917C38.9113 42.1309 37.4276 42.774 35.8549 42.9306C34.2823 43.0872 32.6998 42.7495 31.3302 41.9648C31.1673 41.8742 30.975 41.8513 30.7952 41.9011C30.6154 41.9509 30.4626 42.0693 30.3702 42.2306C29.6072 43.7056 34.2899 44.4532 35.1732 44.3835C41.2002 44.4938 45.5855 38.2285 43.5779 32.5599C45.2407 31.4156 46.5158 29.7969 47.2352 27.9173C47.9545 26.0377 48.0843 23.9854 47.6074 22.031Z" fill="#07AD5F"/>
  <path d="M13.8543 20.0245H26.2434C26.4278 20.0207 26.6034 19.9452 26.7325 19.8142C26.8616 19.6831 26.9339 19.507 26.9339 19.3235C26.9339 19.14 26.8616 18.9639 26.7325 18.8329C26.6034 18.7018 26.4278 18.6263 26.2434 18.6226H13.8543C13.6699 18.6263 13.4943 18.7018 13.3652 18.8329C13.2361 18.9639 13.1638 19.1401 13.1638 19.3235C13.1638 19.507 13.2361 19.6831 13.3652 19.8142C13.4943 19.9452 13.6699 20.0207 13.8543 20.0245Z" fill="#07AD5F"/>
  <path d="M28.9951 23.0743C28.9951 22.9822 28.9769 22.891 28.9415 22.806C28.9061 22.7209 28.8542 22.6436 28.7887 22.5785C28.7233 22.5135 28.6456 22.4618 28.56 22.4266C28.4745 22.3914 28.3829 22.3733 28.2903 22.3733H9.16169C8.97477 22.3733 8.79551 22.4471 8.66333 22.5786C8.53116 22.7101 8.45691 22.8884 8.45691 23.0743C8.45691 23.2602 8.53116 23.4385 8.66333 23.5699C8.79551 23.7014 8.97477 23.7752 9.16169 23.7752H28.2903C28.3829 23.7753 28.4745 23.7571 28.56 23.7219C28.6456 23.6867 28.7233 23.6351 28.7887 23.57C28.8542 23.5049 28.9061 23.4276 28.9415 23.3425C28.9769 23.2575 28.9951 23.1663 28.9951 23.0743Z" fill="#07AD5F"/>
  <path d="M13.1495 27.6697C13.1495 27.7618 13.1677 27.8529 13.2031 27.938C13.2385 28.023 13.2905 28.1003 13.3559 28.1654C13.4214 28.2305 13.4991 28.2822 13.5846 28.3174C13.6701 28.3526 13.7618 28.3707 13.8543 28.3707H38.7406C38.9275 28.3707 39.1068 28.2968 39.239 28.1654C39.3711 28.0339 39.4454 27.8556 39.4454 27.6697C39.4454 27.4838 39.3711 27.3055 39.239 27.1741C39.1068 27.0426 38.9275 26.9688 38.7406 26.9688H13.8543C13.7618 26.9687 13.6701 26.9868 13.5846 27.0221C13.4991 27.0573 13.4214 27.1089 13.3559 27.174C13.2905 27.2391 13.2385 27.3164 13.2031 27.4014C13.1677 27.4865 13.1495 27.5777 13.1495 27.6697Z" fill="#07AD5F"/>
  <path d="M34.0587 31.5386C34.0587 31.4466 34.0405 31.3554 34.0051 31.2703C33.9697 31.1853 33.9178 31.108 33.8523 31.0429C33.7869 30.9778 33.7092 30.9262 33.6237 30.891C33.5381 30.8557 33.4465 30.8376 33.3539 30.8376H11.2689C11.0819 30.8376 10.9027 30.9115 10.7705 31.043C10.6383 31.1744 10.5641 31.3527 10.5641 31.5386C10.5641 31.7245 10.6383 31.9028 10.7705 32.0343C10.9027 32.1657 11.0819 32.2396 11.2689 32.2396H33.3539C33.4465 32.2396 33.5381 32.2215 33.6237 32.1863C33.7092 32.1511 33.7869 32.0994 33.8523 32.0343C33.9178 31.9692 33.9697 31.8919 34.0051 31.8069C34.0405 31.7218 34.0587 31.6307 34.0587 31.5386Z" fill="#07AD5F"/>
  <path d="M36.2132 35.8245C36.2133 35.7324 36.1951 35.6413 36.1596 35.5562C36.1242 35.4712 36.0723 35.3939 36.0069 35.3288C35.9414 35.2637 35.8637 35.2121 35.7782 35.1768C35.6927 35.1416 35.601 35.1235 35.5085 35.1235H18.7261C18.5392 35.1235 18.36 35.1974 18.2278 35.3288C18.0956 35.4603 18.0214 35.6386 18.0214 35.8245C18.0214 36.0104 18.0956 36.1887 18.2278 36.3202C18.36 36.4516 18.5392 36.5255 18.7261 36.5255H35.5085C35.601 36.5255 35.6927 36.5074 35.7782 36.4722C35.8637 36.4369 35.9414 36.3853 36.0069 36.3202C36.0723 36.2551 36.1242 36.1778 36.1596 36.0928C36.1951 36.0077 36.2133 35.9166 36.2132 35.8245Z" fill="#07AD5F"/>
  <path d="M31.3655 39.8963C31.3655 39.8042 31.3473 39.7131 31.3119 39.628C31.2765 39.5429 31.2246 39.4657 31.1591 39.4006C31.0937 39.3355 31.016 39.2838 30.9304 39.2486C30.8449 39.2134 30.7533 39.1953 30.6607 39.1953H22.3113C22.1244 39.1953 21.9452 39.2692 21.813 39.4006C21.6808 39.5321 21.6066 39.7104 21.6066 39.8963C21.6066 40.0822 21.6808 40.2605 21.813 40.3919C21.9452 40.5234 22.1244 40.5972 22.3113 40.5972H30.6607C30.7533 40.5973 30.8449 40.5792 30.9304 40.5439C31.0159 40.5087 31.0937 40.4571 31.1591 40.392C31.2246 40.3269 31.2765 40.2496 31.3119 40.1646C31.3473 40.0795 31.3655 39.9883 31.3655 39.8963Z" fill="#07AD5F"/>
</svg>