<svg width="803" height="99" viewBox="0 0 803 99" fill="none" xmlns="http://www.w3.org/2000/svg">
<rect width="803" height="145" fill="#1E0F43"/>
<rect x="40" y="30" width="36" height="69" fill="#2D1860"/>
<rect x="86" y="14" width="36" height="85" fill="#5930BD"/>
<rect x="132" y="57" width="36" height="42" fill="#2D1860"/>
<rect x="178" y="30" width="36" height="69" fill="#5930BD"/>
<rect x="224" y="14" width="36" height="85" fill="#2D1860"/>
<rect x="270" y="39" width="36" height="60" fill="#5930BD"/>
<rect x="316" y="67" width="36" height="32" fill="#2D1860"/>
<rect x="362" y="18" width="36" height="81" fill="#5930BD"/>
<rect x="408" y="30" width="36" height="69" fill="#2D1860"/>
<rect x="454" y="77" width="36" height="22" fill="#5930BD"/>
<rect x="500" y="44" width="36" height="55" fill="#2D1860"/>
<rect x="546" y="30" width="36" height="69" fill="#5930BD"/>
<rect x="592" y="73" width="36" height="26" fill="#5930BD"/>
<rect x="638" y="25" width="36" height="74" fill="#2D1860"/>
<rect x="684" y="67" width="36" height="32" fill="#5930BD"/>
<rect x="730" y="39" width="36" height="60" fill="#5930BD"/>
</svg>
