<svg width="1067" height="256" viewBox="0 0 1067 256" fill="none" xmlns="http://www.w3.org/2000/svg">
<g filter="url(#filter0_f_801_4079)">
<circle cx="147.338" cy="15.7871" r="1" fill="#D9D9D9" fill-opacity="0.5"/>
</g>
<rect width="248" height="256" fill="#1E0F43"/>
<rect x="16" y="16" width="216" height="29" fill="#2D1860"/>
<rect x="16" y="85" width="188" height="16" fill="#2D1860"/>
<rect x="16" y="129" width="188" height="16" fill="#2D1860"/>
<rect x="16" y="192" width="163" height="16" fill="#2D1860"/>
<rect x="16" y="107" width="216" height="16" fill="#2D1860"/>
<rect x="16" y="214" width="216" height="16" fill="#2D1860"/>
<rect x="829" width="238" height="145" fill="#1E0F43"/>
<rect x="840" y="17" width="216" height="56" fill="#2D1860"/>
<rect x="840" y="87" width="216" height="31" fill="#2D1860"/>
<rect x="264" width="553" height="145" fill="#1E0F43"/>
<path d="M506.58 64.4023H506.854C508.111 64.4023 509.16 64.2383 509.998 63.9102C510.846 63.5729 511.52 63.1081 512.021 62.5156C512.523 61.9232 512.883 61.2259 513.102 60.4238C513.32 59.6217 513.43 58.7513 513.43 57.8125V54.3809C513.43 53.5697 513.343 52.8587 513.17 52.248C513.006 51.6283 512.769 51.1133 512.459 50.7031C512.158 50.2839 511.807 49.9694 511.406 49.7598C511.014 49.5501 510.59 49.4453 510.135 49.4453C509.633 49.4453 509.182 49.5592 508.781 49.7871C508.389 50.0059 508.057 50.3112 507.783 50.7031C507.519 51.0859 507.314 51.5371 507.168 52.0566C507.031 52.5671 506.963 53.1139 506.963 53.6973C506.963 54.2441 507.027 54.7728 507.154 55.2832C507.291 55.7845 507.492 56.2311 507.756 56.623C508.02 57.015 508.353 57.3249 508.754 57.5527C509.155 57.7806 509.624 57.8945 510.162 57.8945C510.673 57.8945 511.142 57.7988 511.57 57.6074C511.999 57.4069 512.372 57.138 512.691 56.8008C513.01 56.4635 513.261 56.0853 513.443 55.666C513.626 55.2467 513.726 54.8184 513.744 54.3809L515.002 54.7637C515.002 55.4564 514.856 56.14 514.564 56.8145C514.282 57.4798 513.885 58.0905 513.375 58.6465C512.874 59.1934 512.286 59.6309 511.611 59.959C510.946 60.2871 510.221 60.4512 509.438 60.4512C508.49 60.4512 507.651 60.2734 506.922 59.918C506.202 59.5534 505.6 59.0612 505.117 58.4414C504.643 57.8216 504.288 57.1107 504.051 56.3086C503.814 55.5065 503.695 54.6634 503.695 53.7793C503.695 52.8223 503.841 51.9245 504.133 51.0859C504.424 50.2474 504.848 49.5091 505.404 48.8711C505.96 48.224 506.635 47.7227 507.428 47.3672C508.23 47.0026 509.137 46.8203 510.148 46.8203C511.224 46.8203 512.167 47.0299 512.979 47.4492C513.79 47.8685 514.473 48.4473 515.029 49.1855C515.585 49.9238 516.005 50.7806 516.287 51.7559C516.57 52.7311 516.711 53.7793 516.711 54.9004V56.0625C516.711 57.2383 516.606 58.373 516.396 59.4668C516.187 60.5514 515.845 61.5586 515.371 62.4883C514.906 63.4089 514.291 64.2201 513.525 64.9219C512.769 65.6146 511.839 66.1569 510.736 66.5488C509.643 66.9316 508.357 67.123 506.881 67.123H506.58V64.4023ZM532.857 61.5723C532.857 62.8118 532.57 63.8555 531.996 64.7031C531.422 65.5508 530.638 66.1934 529.645 66.6309C528.66 67.0592 527.548 67.2734 526.309 67.2734C525.069 67.2734 523.952 67.0592 522.959 66.6309C521.965 66.1934 521.182 65.5508 520.607 64.7031C520.033 63.8555 519.746 62.8118 519.746 61.5723C519.746 60.752 519.906 60.0091 520.225 59.3438C520.544 58.6693 520.995 58.0905 521.578 57.6074C522.171 57.1152 522.863 56.737 523.656 56.4727C524.458 56.2083 525.333 56.0762 526.281 56.0762C527.539 56.0762 528.665 56.3086 529.658 56.7734C530.652 57.2383 531.431 57.8809 531.996 58.7012C532.57 59.5215 532.857 60.4785 532.857 61.5723ZM529.549 61.4082C529.549 60.7428 529.412 60.1595 529.139 59.6582C528.865 59.1569 528.482 58.7695 527.99 58.4961C527.498 58.2227 526.928 58.0859 526.281 58.0859C525.625 58.0859 525.055 58.2227 524.572 58.4961C524.089 58.7695 523.711 59.1569 523.438 59.6582C523.173 60.1595 523.041 60.7428 523.041 61.4082C523.041 62.0827 523.173 62.666 523.438 63.1582C523.702 63.6413 524.08 64.0104 524.572 64.2656C525.064 64.5208 525.643 64.6484 526.309 64.6484C526.974 64.6484 527.548 64.5208 528.031 64.2656C528.514 64.0104 528.888 63.6413 529.152 63.1582C529.417 62.666 529.549 62.0827 529.549 61.4082ZM532.406 52.3301C532.406 53.3236 532.142 54.2077 531.613 54.9824C531.094 55.7572 530.374 56.3678 529.453 56.8145C528.533 57.252 527.484 57.4707 526.309 57.4707C525.124 57.4707 524.066 57.252 523.137 56.8145C522.216 56.3678 521.492 55.7572 520.963 54.9824C520.443 54.2077 520.184 53.3236 520.184 52.3301C520.184 51.1452 520.443 50.1471 520.963 49.3359C521.492 48.5156 522.216 47.8913 523.137 47.4629C524.057 47.0345 525.11 46.8203 526.295 46.8203C527.48 46.8203 528.533 47.0345 529.453 47.4629C530.374 47.8913 531.094 48.5156 531.613 49.3359C532.142 50.1471 532.406 51.1452 532.406 52.3301ZM529.111 52.4395C529.111 51.847 528.993 51.3275 528.756 50.8809C528.528 50.4251 528.204 50.0697 527.785 49.8145C527.366 49.5592 526.869 49.4316 526.295 49.4316C525.721 49.4316 525.224 49.5547 524.805 49.8008C524.385 50.0469 524.062 50.3932 523.834 50.8398C523.606 51.2865 523.492 51.8197 523.492 52.4395C523.492 53.0501 523.606 53.5833 523.834 54.0391C524.062 54.4857 524.385 54.8366 524.805 55.0918C525.233 55.347 525.734 55.4746 526.309 55.4746C526.883 55.4746 527.38 55.347 527.799 55.0918C528.218 54.8366 528.542 54.4857 528.77 54.0391C528.997 53.5833 529.111 53.0501 529.111 52.4395ZM536.084 65.3594C536.084 64.849 536.257 64.4206 536.604 64.0742C536.95 63.7188 537.419 63.541 538.012 63.541C538.613 63.541 539.083 63.7188 539.42 64.0742C539.766 64.4206 539.939 64.849 539.939 65.3594C539.939 65.8698 539.766 66.2982 539.42 66.6445C539.083 66.9909 538.613 67.1641 538.012 67.1641C537.419 67.1641 536.95 66.9909 536.604 66.6445C536.257 66.2982 536.084 65.8698 536.084 65.3594ZM547.008 57.7441L544.383 57.1016L545.463 47.0938H556.195V49.8828H548.197L547.65 54.7637C547.96 54.5814 548.389 54.4036 548.936 54.2305C549.482 54.0482 550.107 53.957 550.809 53.957C551.747 53.957 552.586 54.112 553.324 54.4219C554.072 54.7227 554.705 55.1647 555.225 55.748C555.744 56.3223 556.141 57.0241 556.414 57.8535C556.688 58.6738 556.824 59.599 556.824 60.6289C556.824 61.5495 556.688 62.4108 556.414 63.2129C556.15 64.015 555.749 64.7214 555.211 65.332C554.673 65.9427 553.994 66.4212 553.174 66.7676C552.363 67.1048 551.401 67.2734 550.289 67.2734C549.46 67.2734 548.662 67.1549 547.896 66.918C547.14 66.6719 546.461 66.3118 545.859 65.8379C545.258 65.3548 544.775 64.7624 544.41 64.0605C544.046 63.3496 543.836 62.5339 543.781 61.6133H547.008C547.09 62.2604 547.268 62.8118 547.541 63.2676C547.824 63.7142 548.197 64.056 548.662 64.293C549.127 64.5299 549.665 64.6484 550.275 64.6484C550.831 64.6484 551.31 64.5527 551.711 64.3613C552.112 64.1608 552.445 63.8783 552.709 63.5137C552.982 63.14 553.183 62.7025 553.311 62.2012C553.447 61.6999 553.516 61.1439 553.516 60.5332C553.516 59.9499 553.438 59.4167 553.283 58.9336C553.137 58.4505 552.914 58.0312 552.613 57.6758C552.322 57.3203 551.952 57.0469 551.506 56.8555C551.059 56.6549 550.544 56.5547 549.961 56.5547C549.177 56.5547 548.576 56.6686 548.156 56.8965C547.746 57.1243 547.363 57.4069 547.008 57.7441ZM559.326 51.9746V50.9219C559.326 50.1654 559.49 49.4772 559.818 48.8574C560.146 48.2376 560.625 47.7409 561.254 47.3672C561.883 46.9935 562.639 46.8066 563.523 46.8066C564.435 46.8066 565.201 46.9935 565.82 47.3672C566.449 47.7409 566.928 48.2376 567.256 48.8574C567.584 49.4772 567.748 50.1654 567.748 50.9219V51.9746C567.748 52.7129 567.584 53.3919 567.256 54.0117C566.937 54.6315 566.463 55.1283 565.834 55.502C565.214 55.8757 564.453 56.0625 563.551 56.0625C562.658 56.0625 561.892 55.8757 561.254 55.502C560.625 55.1283 560.146 54.6315 559.818 54.0117C559.49 53.3919 559.326 52.7129 559.326 51.9746ZM561.609 50.9219V51.9746C561.609 52.3392 561.678 52.6855 561.814 53.0137C561.96 53.3418 562.179 53.6061 562.471 53.8066C562.762 54.0072 563.122 54.1074 563.551 54.1074C563.988 54.1074 564.344 54.0072 564.617 53.8066C564.9 53.6061 565.109 53.3418 565.246 53.0137C565.383 52.6855 565.451 52.3392 565.451 51.9746V50.9219C565.451 50.5482 565.378 50.1973 565.232 49.8691C565.096 49.5319 564.886 49.263 564.604 49.0625C564.321 48.862 563.961 48.7617 563.523 48.7617C563.104 48.7617 562.749 48.862 562.457 49.0625C562.174 49.263 561.96 49.5319 561.814 49.8691C561.678 50.1973 561.609 50.5482 561.609 50.9219ZM568.924 63.1855V62.1191C568.924 61.3717 569.088 60.6882 569.416 60.0684C569.753 59.4486 570.236 58.9518 570.865 58.5781C571.494 58.2044 572.251 58.0176 573.135 58.0176C574.046 58.0176 574.812 58.2044 575.432 58.5781C576.061 58.9518 576.535 59.4486 576.854 60.0684C577.182 60.6882 577.346 61.3717 577.346 62.1191V63.1855C577.346 63.9329 577.182 64.6165 576.854 65.2363C576.535 65.8561 576.065 66.3529 575.445 66.7266C574.826 67.1003 574.064 67.2871 573.162 67.2871C572.269 67.2871 571.503 67.1003 570.865 66.7266C570.236 66.3529 569.753 65.8561 569.416 65.2363C569.088 64.6165 568.924 63.9329 568.924 63.1855ZM571.221 62.1191V63.1855C571.221 63.5501 571.294 63.8965 571.439 64.2246C571.594 64.5527 571.818 64.8216 572.109 65.0312C572.401 65.2318 572.752 65.332 573.162 65.332C573.627 65.332 574.001 65.2318 574.283 65.0312C574.566 64.8216 574.766 64.5573 574.885 64.2383C575.012 63.9102 575.076 63.5592 575.076 63.1855V62.1191C575.076 61.7454 575.003 61.3945 574.857 61.0664C574.721 60.7383 574.507 60.474 574.215 60.2734C573.932 60.0729 573.572 59.9727 573.135 59.9727C572.706 59.9727 572.351 60.0729 572.068 60.2734C571.786 60.474 571.572 60.7383 571.426 61.0664C571.289 61.3945 571.221 61.7454 571.221 62.1191ZM573.955 49.9375L564.234 65.4961L562.553 64.5254L572.273 48.9668L573.955 49.9375Z" fill="white"/>
<rect x="470" y="79" width="141" height="28" rx="4" fill="#2D1860"/>
<path d="M485.609 86.625H487.562V94.2266C487.562 95.0911 487.375 95.8151 487 96.3984C486.625 96.9818 486.115 97.4219 485.469 97.7188C484.828 98.0104 484.112 98.1562 483.32 98.1562C482.503 98.1562 481.773 98.0104 481.133 97.7188C480.492 97.4219 479.987 96.9818 479.617 96.3984C479.253 95.8151 479.07 95.0911 479.07 94.2266V86.625H481.023V94.2266C481.023 94.7734 481.117 95.224 481.305 95.5781C481.492 95.9271 481.758 96.1849 482.102 96.3516C482.445 96.5182 482.852 96.6016 483.32 96.6016C483.789 96.6016 484.193 96.5182 484.531 96.3516C484.875 96.1849 485.141 95.9271 485.328 95.5781C485.516 95.224 485.609 94.7734 485.609 94.2266V86.625ZM491.398 91.1719V101.25H489.516V89.5469H491.25L491.398 91.1719ZM496.906 93.6953V93.8594C496.906 94.474 496.833 95.0443 496.688 95.5703C496.547 96.0911 496.336 96.5469 496.055 96.9375C495.779 97.3229 495.438 97.6224 495.031 97.8359C494.625 98.0495 494.156 98.1562 493.625 98.1562C493.099 98.1562 492.638 98.0599 492.242 97.8672C491.852 97.6693 491.521 97.3906 491.25 97.0312C490.979 96.6719 490.76 96.25 490.594 95.7656C490.432 95.276 490.318 94.7396 490.25 94.1562V93.5234C490.318 92.9036 490.432 92.3411 490.594 91.8359C490.76 91.3307 490.979 90.8958 491.25 90.5312C491.521 90.1667 491.852 89.8854 492.242 89.6875C492.633 89.4896 493.089 89.3906 493.609 89.3906C494.141 89.3906 494.612 89.4948 495.023 89.7031C495.435 89.9062 495.781 90.1979 496.062 90.5781C496.344 90.9531 496.555 91.4062 496.695 91.9375C496.836 92.4635 496.906 93.0495 496.906 93.6953ZM495.023 93.8594V93.6953C495.023 93.3047 494.987 92.9427 494.914 92.6094C494.841 92.2708 494.727 91.974 494.57 91.7188C494.414 91.4635 494.214 91.2656 493.969 91.125C493.729 90.9792 493.44 90.9062 493.102 90.9062C492.768 90.9062 492.482 90.9635 492.242 91.0781C492.003 91.1875 491.802 91.3411 491.641 91.5391C491.479 91.737 491.354 91.9688 491.266 92.2344C491.177 92.4948 491.115 92.7786 491.078 93.0859V94.6016C491.141 94.9766 491.247 95.3203 491.398 95.6328C491.549 95.9453 491.763 96.1953 492.039 96.3828C492.32 96.5651 492.68 96.6562 493.117 96.6562C493.456 96.6562 493.745 96.5833 493.984 96.4375C494.224 96.2917 494.419 96.0911 494.57 95.8359C494.727 95.5755 494.841 95.276 494.914 94.9375C494.987 94.599 495.023 94.2396 495.023 93.8594ZM502.383 89.5469V90.9219H497.617V89.5469H502.383ZM498.992 87.4766H500.875V95.6641C500.875 95.9245 500.911 96.125 500.984 96.2656C501.062 96.401 501.169 96.4922 501.305 96.5391C501.44 96.5859 501.599 96.6094 501.781 96.6094C501.911 96.6094 502.036 96.6016 502.156 96.5859C502.276 96.5703 502.372 96.5547 502.445 96.5391L502.453 97.9766C502.297 98.0234 502.115 98.0651 501.906 98.1016C501.703 98.138 501.469 98.1562 501.203 98.1562C500.771 98.1562 500.388 98.0807 500.055 97.9297C499.721 97.7734 499.461 97.5208 499.273 97.1719C499.086 96.8229 498.992 96.3594 498.992 95.7812V87.4766ZM505.852 89.5469V98H503.961V89.5469H505.852ZM503.836 87.3281C503.836 87.0417 503.93 86.8047 504.117 86.6172C504.31 86.4245 504.576 86.3281 504.914 86.3281C505.247 86.3281 505.51 86.4245 505.703 86.6172C505.896 86.8047 505.992 87.0417 505.992 87.3281C505.992 87.6094 505.896 87.8438 505.703 88.0312C505.51 88.2188 505.247 88.3125 504.914 88.3125C504.576 88.3125 504.31 88.2188 504.117 88.0312C503.93 87.8438 503.836 87.6094 503.836 87.3281ZM509.797 91.2656V98H507.914V89.5469H509.688L509.797 91.2656ZM509.492 93.4609L508.852 93.4531C508.852 92.8698 508.924 92.3307 509.07 91.8359C509.216 91.3411 509.43 90.9115 509.711 90.5469C509.992 90.1771 510.341 89.8932 510.758 89.6953C511.18 89.4922 511.667 89.3906 512.219 89.3906C512.604 89.3906 512.956 89.4479 513.273 89.5625C513.596 89.6719 513.875 89.8464 514.109 90.0859C514.349 90.3255 514.531 90.6328 514.656 91.0078C514.786 91.3828 514.852 91.8359 514.852 92.3672V98H512.969V92.5312C512.969 92.1198 512.906 91.7969 512.781 91.5625C512.661 91.3281 512.487 91.1615 512.258 91.0625C512.034 90.9583 511.766 90.9062 511.453 90.9062C511.099 90.9062 510.797 90.974 510.547 91.1094C510.302 91.2448 510.102 91.4297 509.945 91.6641C509.789 91.8984 509.674 92.1693 509.602 92.4766C509.529 92.7839 509.492 93.112 509.492 93.4609ZM514.734 92.9609L513.852 93.1562C513.852 92.6458 513.922 92.1641 514.062 91.7109C514.208 91.2526 514.419 90.8516 514.695 90.5078C514.977 90.1589 515.323 89.8854 515.734 89.6875C516.146 89.4896 516.617 89.3906 517.148 89.3906C517.581 89.3906 517.966 89.4505 518.305 89.5703C518.648 89.6849 518.94 89.8672 519.18 90.1172C519.419 90.3672 519.602 90.6927 519.727 91.0938C519.852 91.4896 519.914 91.9688 519.914 92.5312V98H518.023V92.5234C518.023 92.0964 517.961 91.7656 517.836 91.5312C517.716 91.2969 517.544 91.1354 517.32 91.0469C517.096 90.9531 516.828 90.9062 516.516 90.9062C516.224 90.9062 515.966 90.9609 515.742 91.0703C515.523 91.1745 515.339 91.3229 515.188 91.5156C515.036 91.7031 514.922 91.9193 514.844 92.1641C514.771 92.4089 514.734 92.6745 514.734 92.9609ZM525.578 98.1562C524.953 98.1562 524.388 98.0547 523.883 97.8516C523.383 97.6432 522.956 97.3542 522.602 96.9844C522.253 96.6146 521.984 96.1797 521.797 95.6797C521.609 95.1797 521.516 94.6406 521.516 94.0625V93.75C521.516 93.0885 521.612 92.4896 521.805 91.9531C521.997 91.4167 522.266 90.9583 522.609 90.5781C522.953 90.1927 523.359 89.8984 523.828 89.6953C524.297 89.4922 524.805 89.3906 525.352 89.3906C525.956 89.3906 526.484 89.4922 526.938 89.6953C527.391 89.8984 527.766 90.1849 528.062 90.5547C528.365 90.9193 528.589 91.3542 528.734 91.8594C528.885 92.3646 528.961 92.9219 528.961 93.5312V94.3359H522.43V92.9844H527.102V92.8359C527.091 92.4974 527.023 92.1797 526.898 91.8828C526.779 91.5859 526.594 91.3464 526.344 91.1641C526.094 90.9818 525.76 90.8906 525.344 90.8906C525.031 90.8906 524.753 90.9583 524.508 91.0938C524.268 91.224 524.068 91.4141 523.906 91.6641C523.745 91.9141 523.62 92.2161 523.531 92.5703C523.448 92.9193 523.406 93.3125 523.406 93.75V94.0625C523.406 94.4323 523.456 94.776 523.555 95.0938C523.659 95.4062 523.81 95.6797 524.008 95.9141C524.206 96.1484 524.445 96.3333 524.727 96.4688C525.008 96.599 525.328 96.6641 525.688 96.6641C526.141 96.6641 526.544 96.5729 526.898 96.3906C527.253 96.2083 527.56 95.9505 527.82 95.6172L528.812 96.5781C528.63 96.8438 528.393 97.099 528.102 97.3438C527.81 97.5833 527.453 97.7786 527.031 97.9297C526.615 98.0807 526.13 98.1562 525.578 98.1562ZM542.047 96.4453V98H536.008V96.4453H542.047ZM536.562 86.625V98H534.602V86.625H536.562ZM541.258 91.375V92.9062H536.008V91.375H541.258ZM542.008 86.625V88.1875H536.008V86.625H542.008ZM546.008 98H544.125V88.7344C544.125 88.1042 544.242 87.5755 544.477 87.1484C544.716 86.7161 545.057 86.3906 545.5 86.1719C545.943 85.9479 546.466 85.8359 547.07 85.8359C547.258 85.8359 547.443 85.849 547.625 85.875C547.807 85.8958 547.984 85.9297 548.156 85.9766L548.109 87.4297C548.005 87.4036 547.891 87.3854 547.766 87.375C547.646 87.3646 547.516 87.3594 547.375 87.3594C547.089 87.3594 546.841 87.4141 546.633 87.5234C546.43 87.6276 546.273 87.7812 546.164 87.9844C546.06 88.1875 546.008 88.4375 546.008 88.7344V98ZM547.797 89.5469V90.9219H542.828V89.5469H547.797ZM550.852 98H548.969V89C548.969 88.3177 549.104 87.7422 549.375 87.2734C549.646 86.8047 550.036 86.4479 550.547 86.2031C551.062 85.9583 551.674 85.8359 552.383 85.8359C552.799 85.8359 553.203 85.8802 553.594 85.9688C553.984 86.0573 554.385 86.1693 554.797 86.3047L554.508 87.8359C554.247 87.7474 553.953 87.6641 553.625 87.5859C553.302 87.5026 552.932 87.4609 552.516 87.4609C551.948 87.4609 551.529 87.5911 551.258 87.8516C550.987 88.1068 550.852 88.4896 550.852 89V98ZM552.555 89.5469V90.9219H547.672V89.5469H552.555ZM555.695 89.5469V98H553.805V89.5469H555.695ZM561.227 96.6562C561.534 96.6562 561.81 96.5964 562.055 96.4766C562.305 96.3516 562.505 96.1797 562.656 95.9609C562.812 95.7422 562.898 95.4896 562.914 95.2031H564.688C564.677 95.75 564.516 96.2474 564.203 96.6953C563.891 97.1432 563.477 97.5 562.961 97.7656C562.445 98.026 561.875 98.1562 561.25 98.1562C560.604 98.1562 560.042 98.0469 559.562 97.8281C559.083 97.6042 558.685 97.2969 558.367 96.9062C558.049 96.5156 557.81 96.0651 557.648 95.5547C557.492 95.0443 557.414 94.4974 557.414 93.9141V93.6406C557.414 93.0573 557.492 92.5104 557.648 92C557.81 91.4844 558.049 91.0312 558.367 90.6406C558.685 90.25 559.083 89.9453 559.562 89.7266C560.042 89.5026 560.602 89.3906 561.242 89.3906C561.919 89.3906 562.513 89.526 563.023 89.7969C563.534 90.0625 563.935 90.4349 564.227 90.9141C564.523 91.388 564.677 91.9401 564.688 92.5703H562.914C562.898 92.2578 562.82 91.9766 562.68 91.7266C562.544 91.4714 562.352 91.2682 562.102 91.1172C561.857 90.9661 561.562 90.8906 561.219 90.8906C560.839 90.8906 560.523 90.9688 560.273 91.125C560.023 91.276 559.828 91.4844 559.688 91.75C559.547 92.0104 559.445 92.3047 559.383 92.6328C559.326 92.9557 559.297 93.2917 559.297 93.6406V93.9141C559.297 94.263 559.326 94.6016 559.383 94.9297C559.44 95.2578 559.539 95.5521 559.68 95.8125C559.826 96.0677 560.023 96.2734 560.273 96.4297C560.523 96.5807 560.841 96.6562 561.227 96.6562ZM568.148 89.5469V98H566.258V89.5469H568.148ZM566.133 87.3281C566.133 87.0417 566.227 86.8047 566.414 86.6172C566.607 86.4245 566.872 86.3281 567.211 86.3281C567.544 86.3281 567.807 86.4245 568 86.6172C568.193 86.8047 568.289 87.0417 568.289 87.3281C568.289 87.6094 568.193 87.8438 568 88.0312C567.807 88.2188 567.544 88.3125 567.211 88.3125C566.872 88.3125 566.607 88.2188 566.414 88.0312C566.227 87.8438 566.133 87.6094 566.133 87.3281ZM573.938 98.1562C573.312 98.1562 572.747 98.0547 572.242 97.8516C571.742 97.6432 571.315 97.3542 570.961 96.9844C570.612 96.6146 570.344 96.1797 570.156 95.6797C569.969 95.1797 569.875 94.6406 569.875 94.0625V93.75C569.875 93.0885 569.971 92.4896 570.164 91.9531C570.357 91.4167 570.625 90.9583 570.969 90.5781C571.312 90.1927 571.719 89.8984 572.188 89.6953C572.656 89.4922 573.164 89.3906 573.711 89.3906C574.315 89.3906 574.844 89.4922 575.297 89.6953C575.75 89.8984 576.125 90.1849 576.422 90.5547C576.724 90.9193 576.948 91.3542 577.094 91.8594C577.245 92.3646 577.32 92.9219 577.32 93.5312V94.3359H570.789V92.9844H575.461V92.8359C575.451 92.4974 575.383 92.1797 575.258 91.8828C575.138 91.5859 574.953 91.3464 574.703 91.1641C574.453 90.9818 574.12 90.8906 573.703 90.8906C573.391 90.8906 573.112 90.9583 572.867 91.0938C572.628 91.224 572.427 91.4141 572.266 91.6641C572.104 91.9141 571.979 92.2161 571.891 92.5703C571.807 92.9193 571.766 93.3125 571.766 93.75V94.0625C571.766 94.4323 571.815 94.776 571.914 95.0938C572.018 95.4062 572.169 95.6797 572.367 95.9141C572.565 96.1484 572.805 96.3333 573.086 96.4688C573.367 96.599 573.688 96.6641 574.047 96.6641C574.5 96.6641 574.904 96.5729 575.258 96.3906C575.612 96.2083 575.919 95.9505 576.18 95.6172L577.172 96.5781C576.99 96.8438 576.753 97.099 576.461 97.3438C576.169 97.5833 575.812 97.7786 575.391 97.9297C574.974 98.0807 574.49 98.1562 573.938 98.1562ZM580.656 91.3516V98H578.773V89.5469H580.547L580.656 91.3516ZM580.32 93.4609L579.711 93.4531C579.716 92.8542 579.799 92.3047 579.961 91.8047C580.128 91.3047 580.357 90.875 580.648 90.5156C580.945 90.1562 581.299 89.8802 581.711 89.6875C582.122 89.4896 582.581 89.3906 583.086 89.3906C583.492 89.3906 583.859 89.4479 584.188 89.5625C584.521 89.6719 584.805 89.8516 585.039 90.1016C585.279 90.3516 585.461 90.6771 585.586 91.0781C585.711 91.474 585.773 91.9609 585.773 92.5391V98H583.883V92.5312C583.883 92.125 583.823 91.8047 583.703 91.5703C583.589 91.3307 583.419 91.1615 583.195 91.0625C582.977 90.9583 582.703 90.9062 582.375 90.9062C582.052 90.9062 581.763 90.974 581.508 91.1094C581.253 91.2448 581.036 91.4297 580.859 91.6641C580.688 91.8984 580.555 92.1693 580.461 92.4766C580.367 92.7839 580.32 93.112 580.32 93.4609ZM591.148 96.6562C591.456 96.6562 591.732 96.5964 591.977 96.4766C592.227 96.3516 592.427 96.1797 592.578 95.9609C592.734 95.7422 592.82 95.4896 592.836 95.2031H594.609C594.599 95.75 594.438 96.2474 594.125 96.6953C593.812 97.1432 593.398 97.5 592.883 97.7656C592.367 98.026 591.797 98.1562 591.172 98.1562C590.526 98.1562 589.964 98.0469 589.484 97.8281C589.005 97.6042 588.607 97.2969 588.289 96.9062C587.971 96.5156 587.732 96.0651 587.57 95.5547C587.414 95.0443 587.336 94.4974 587.336 93.9141V93.6406C587.336 93.0573 587.414 92.5104 587.57 92C587.732 91.4844 587.971 91.0312 588.289 90.6406C588.607 90.25 589.005 89.9453 589.484 89.7266C589.964 89.5026 590.523 89.3906 591.164 89.3906C591.841 89.3906 592.435 89.526 592.945 89.7969C593.456 90.0625 593.857 90.4349 594.148 90.9141C594.445 91.388 594.599 91.9401 594.609 92.5703H592.836C592.82 92.2578 592.742 91.9766 592.602 91.7266C592.466 91.4714 592.273 91.2682 592.023 91.1172C591.779 90.9661 591.484 90.8906 591.141 90.8906C590.76 90.8906 590.445 90.9688 590.195 91.125C589.945 91.276 589.75 91.4844 589.609 91.75C589.469 92.0104 589.367 92.3047 589.305 92.6328C589.247 92.9557 589.219 93.2917 589.219 93.6406V93.9141C589.219 94.263 589.247 94.6016 589.305 94.9297C589.362 95.2578 589.461 95.5521 589.602 95.8125C589.747 96.0677 589.945 96.2734 590.195 96.4297C590.445 96.5807 590.763 96.6562 591.148 96.6562ZM598.508 97.0781L600.805 89.5469H602.82L599.43 99.2891C599.352 99.4974 599.25 99.724 599.125 99.9688C599 100.214 598.836 100.445 598.633 100.664C598.435 100.888 598.188 101.068 597.891 101.203C597.594 101.344 597.234 101.414 596.812 101.414C596.646 101.414 596.484 101.398 596.328 101.367C596.177 101.341 596.034 101.312 595.898 101.281L595.891 99.8438C595.943 99.849 596.005 99.8542 596.078 99.8594C596.156 99.8646 596.219 99.8672 596.266 99.8672C596.578 99.8672 596.839 99.8281 597.047 99.75C597.255 99.6771 597.424 99.5573 597.555 99.3906C597.69 99.224 597.805 99 597.898 98.7188L598.508 97.0781ZM597.211 89.5469L599.219 95.875L599.555 97.8594L598.25 98.1953L595.18 89.5469H597.211Z" fill="#8965E3"/>
<rect x="264" y="157" width="803" height="145" fill="#1E0F43"/>
<rect x="304" y="187" width="36" height="69" fill="#2D1860"/>
<rect x="350" y="171" width="36" height="85" fill="#5930BD"/>
<rect x="396" y="214" width="36" height="42" fill="#2D1860"/>
<rect x="442" y="187" width="36" height="69" fill="#5930BD"/>
<rect x="488" y="171" width="36" height="85" fill="#2D1860"/>
<rect x="534" y="196" width="36" height="60" fill="#5930BD"/>
<rect x="580" y="224" width="36" height="32" fill="#2D1860"/>
<rect x="626" y="175" width="36" height="81" fill="#5930BD"/>
<rect x="672" y="187" width="36" height="69" fill="#2D1860"/>
<rect x="718" y="234" width="36" height="22" fill="#5930BD"/>
<rect x="764" y="201" width="36" height="55" fill="#2D1860"/>
<rect x="810" y="187" width="36" height="69" fill="#5930BD"/>
<rect x="856" y="230" width="36" height="26" fill="#5930BD"/>
<rect x="902" y="182" width="36" height="74" fill="#2D1860"/>
<rect x="948" y="224" width="36" height="32" fill="#5930BD"/>
<rect x="994" y="196" width="36" height="60" fill="#5930BD"/>
<defs>
<filter id="filter0_f_801_4079" x="144.338" y="12.7871" width="6" height="6" filterUnits="userSpaceOnUse" color-interpolation-filters="sRGB">
<feFlood flood-opacity="0" result="BackgroundImageFix"/>
<feBlend mode="normal" in="SourceGraphic" in2="BackgroundImageFix" result="shape"/>
<feGaussianBlur stdDeviation="1" result="effect1_foregroundBlur_801_4079"/>
</filter>
</defs>
</svg>
