<svg xmlns="http://www.w3.org/2000/svg" width="56" height="56" viewBox="0 0 56 56" fill="none">
  <rect x="0.5" y="0.5" width="55" height="55" rx="7.5" fill="#FFFBEB" stroke="#FCDC5A"/>
  <path d="M33.6738 18.48C33.3073 18.48 33.01 18.1844 33.01 17.82C33.01 15.5151 34.8958 13.64 37.2138 13.64C37.5802 13.64 37.8775 13.9356 37.8775 14.3C37.8775 14.6644 37.5802 14.96 37.2138 14.96C35.6304 14.96 34.3375 16.2456 34.3375 17.82C34.3375 18.1844 34.0402 18.48 33.6738 18.48ZM46.0638 42.68H37.8775V27.5C37.8775 27.1356 37.5802 26.84 37.2138 26.84C36.8473 26.84 36.55 27.1356 36.55 27.5V42.68H28.1425V34.54C28.1425 34.1756 27.8452 33.88 27.4788 33.88C27.1123 33.88 26.815 34.1756 26.815 34.54V42.68H18.4075V28.38C18.4075 28.0156 18.1102 27.72 17.7438 27.72C17.3773 27.72 17.08 28.0156 17.08 28.38V42.68H11.3275V11.66C11.3275 11.2956 11.0302 11 10.6638 11C10.2973 11 10 11.2956 10 11.66V43.34C10 43.7044 10.2973 44 10.6638 44H46.0638C46.4302 44 46.7275 43.7044 46.7275 43.34C46.7275 42.9756 46.4302 42.68 46.0638 42.68ZM14.425 22.22C14.425 20.3981 15.9115 18.92 17.7438 18.92C19.576 18.92 21.0625 20.3981 21.0625 22.22C21.0625 22.6291 20.9778 23.0209 20.8361 23.3956L25.0969 26.0889C25.7122 25.4513 26.5609 25.0766 27.477 25.0766C28.0474 25.0766 28.6057 25.2261 29.0914 25.4942L32.0697 22.3214C30.9738 21.0891 30.355 19.4786 30.355 17.8202C30.355 14.0579 33.43 11.0002 37.2137 11.0002C39.4435 11.0002 41.5454 12.0865 42.8295 13.9084C43.0058 14.1593 43.1614 14.4189 43.2979 14.6869L45.8164 13.6832C46.1569 13.5474 46.5424 13.7142 46.6789 14.0527C46.8155 14.3913 46.6478 14.7746 46.3073 14.9104L43.794 15.909C43.9755 16.5295 44.0688 17.1671 44.0688 17.8185C44.0688 20.2161 42.8174 22.3232 40.9264 23.5438L41.8771 25.1852L42.8329 24.6352C43.151 24.4547 43.5537 24.5596 43.7404 24.8775L46.3954 29.4496C47.0678 30.6063 46.6651 32.0896 45.5052 32.7547C45.125 32.9747 44.7049 33.0796 44.2935 33.0796C43.4535 33.0796 42.6342 32.6447 42.183 31.8696L39.528 27.2975C39.3465 26.9813 39.452 26.5808 39.7718 26.3952L40.7276 25.8452L39.7458 24.1505C38.9663 24.465 38.1124 24.6403 37.2135 24.6403C35.7045 24.6403 34.2405 24.135 33.0443 23.224L30.0972 26.3608C30.5449 26.9331 30.7921 27.6412 30.7921 28.3803C30.7921 30.2021 29.3055 31.6803 27.4733 31.6803C25.6411 31.6803 24.1546 30.2021 24.1546 28.3803C24.1546 27.9712 24.2393 27.5759 24.381 27.2046L20.1202 24.5114C19.5049 25.149 18.6562 25.5237 17.74 25.5237C15.9113 25.5203 14.425 24.0419 14.425 22.22ZM41.9759 26.6543L41.9708 26.6595L41.0149 27.2095L43.338 31.209C43.6439 31.7332 44.3198 31.9137 44.8522 31.6095C45.3794 31.3052 45.5609 30.6332 45.2549 30.1038L42.9318 26.1043L41.9759 26.6543ZM31.6825 17.82C31.6825 19.3376 32.3238 20.7986 33.4387 21.8367C33.5009 21.8934 33.5666 21.9519 33.6375 22.012C34.6383 22.8577 35.907 23.3183 37.212 23.3183C40.2611 23.3183 42.7433 20.8502 42.7433 17.8183C42.7433 17.1188 42.6102 16.433 42.3492 15.773C42.1936 15.3863 41.9914 15.0116 41.7425 14.6644C40.7053 13.1949 39.0149 12.3201 37.2139 12.3201C34.1648 12.3201 31.6825 14.7881 31.6825 17.82ZM25.8057 27.3143C25.5931 27.6323 25.4876 27.9967 25.4876 28.38C25.4876 29.4714 26.3812 30.36 27.4789 30.36C28.5765 30.36 29.4701 29.4714 29.4701 28.38C29.4701 27.799 29.2143 27.2456 28.7614 26.8657C28.4071 26.5615 27.9525 26.4 27.4789 26.4C26.7978 26.4 26.1686 26.7437 25.8057 27.3143ZM15.7525 22.22C15.7525 23.3114 16.6461 24.2 17.7438 24.2C18.43 24.2 19.0539 23.8563 19.4204 23.2856C19.6244 22.9694 19.735 22.6033 19.735 22.22C19.735 21.1286 18.8414 20.24 17.7438 20.24C16.6461 20.24 15.7525 21.1286 15.7525 22.22Z" fill="#AD8B03"/>
</svg>