<svg xmlns="http://www.w3.org/2000/svg" width="56" height="56" viewBox="0 0 56 56" fill="none">
  <rect x="0.5" y="0.5" width="55" height="55" rx="7.5" fill="#FAF5FF" stroke="#C084FC"/>
  <path d="M25.53 27.3126V10.0444C25.53 9.48741 25.04 9 24.48 9H14.05C13.49 9 13 9.48741 13 10.0444V27.3126C13 27.8696 13.49 28.357 14.05 28.357H24.48C25.04 28.357 25.53 27.8696 25.53 27.3126ZM23.43 26.3378H15.03V11.0889H23.43V26.3378ZM17.13 13.6652C17.13 13.1081 17.62 12.6207 18.18 12.6207H20.35C20.91 12.6207 21.4 13.1081 21.4 13.6652C21.4 14.2222 20.91 14.7096 20.35 14.7096H18.18C17.62 14.64 17.13 14.2222 17.13 13.6652ZM42.75 27.5215H32.32C31.76 27.5215 31.27 28.0089 31.27 28.5659V45.8341C31.27 46.3911 31.76 46.8785 32.32 46.8785H42.75C43.31 46.8785 43.8 46.3911 43.8 45.8341V28.5659C43.8 28.0089 43.31 27.5215 42.75 27.5215ZM41.77 44.7896H33.37V29.5407H41.77V44.7896ZM35.4 32.117C35.4 31.56 35.89 31.0726 36.45 31.0726H38.62C39.18 31.0726 39.67 31.56 39.67 32.117C39.67 32.6741 39.18 33.1615 38.62 33.1615H36.45C35.89 33.1615 35.4 32.6741 35.4 32.117ZM31.97 20.0015L28.96 14.7096C28.82 14.4311 28.75 14.1526 28.89 13.8741C28.96 13.5956 29.24 13.3867 29.52 13.2474L35.26 11.2281C35.82 11.0193 36.38 11.2978 36.59 11.8548C36.8 12.4119 36.52 12.9689 35.96 13.1778L33.3 14.083C37.5 15.4059 40.93 18.7481 42.19 23.0652C42.33 23.6222 42.05 24.1793 41.49 24.3185C41.42 24.3185 41.28 24.3881 41.21 24.3881C40.79 24.3881 40.37 24.1096 40.23 23.6919C39.04 19.7926 35.89 16.7985 31.9 15.8933L33.72 19.0963C34 19.5837 33.86 20.2104 33.37 20.4889C33.23 20.5585 33.02 20.6281 32.88 20.6281C32.53 20.4889 32.18 20.3496 31.97 20.0015ZM27.28 41.8652C27.42 42.1437 27.42 42.4222 27.28 42.7007C27.14 42.9793 26.93 43.1881 26.65 43.2578L20.77 44.7896C20.7 44.7896 20.56 44.7896 20.49 44.7896C20.07 44.7896 19.65 44.5111 19.51 44.0237C19.37 43.4667 19.72 42.9096 20.21 42.7704L23.15 42.0044C19.09 40.3333 16.01 36.7822 15.1 32.4652C14.96 31.9081 15.31 31.3511 15.87 31.2815C16.43 31.1422 16.99 31.4904 17.06 32.0474C17.9 35.9467 20.7 39.08 24.34 40.3333L22.87 37.1304C22.66 36.643 22.87 36.0163 23.36 35.8074C23.85 35.5985 24.48 35.8074 24.69 36.2948L27.28 41.8652Z" fill="#7406E3"/>
</svg>