<svg width="512" height="82" viewBox="0 0 512 82" fill="none" xmlns="http://www.w3.org/2000/svg">
<rect x="0.5" y="0.5" width="511" height="81" rx="11.5" fill="white" stroke="#CBD5E1"/>
<path d="M26.9375 25.0234C26.9375 24.8203 26.9062 24.638 26.8438 24.4766C26.7865 24.3099 26.6771 24.1589 26.5156 24.0234C26.3542 23.8828 26.1276 23.7448 25.8359 23.6094C25.5443 23.474 25.1667 23.3333 24.7031 23.1875C24.1875 23.0208 23.6979 22.8333 23.2344 22.625C22.776 22.4167 22.3698 22.1745 22.0156 21.8984C21.6667 21.6172 21.3906 21.2917 21.1875 20.9219C20.9896 20.5521 20.8906 20.1224 20.8906 19.6328C20.8906 19.1589 20.9948 18.7292 21.2031 18.3438C21.4115 17.9531 21.7031 17.6198 22.0781 17.3438C22.4531 17.0625 22.8958 16.8464 23.4062 16.6953C23.9219 16.5443 24.487 16.4688 25.1016 16.4688C25.9401 16.4688 26.6719 16.6198 27.2969 16.9219C27.9219 17.224 28.4062 17.638 28.75 18.1641C29.099 18.6901 29.2734 19.2917 29.2734 19.9688H26.9453C26.9453 19.6354 26.875 19.3438 26.7344 19.0938C26.599 18.8385 26.3906 18.638 26.1094 18.4922C25.8333 18.3464 25.4844 18.2734 25.0625 18.2734C24.6562 18.2734 24.3177 18.3359 24.0469 18.4609C23.776 18.5807 23.5729 18.7448 23.4375 18.9531C23.3021 19.1562 23.2344 19.3854 23.2344 19.6406C23.2344 19.8333 23.2812 20.0078 23.375 20.1641C23.474 20.3203 23.6198 20.4661 23.8125 20.6016C24.0052 20.737 24.2422 20.8646 24.5234 20.9844C24.8047 21.1042 25.1302 21.2214 25.5 21.3359C26.1198 21.5234 26.6641 21.7344 27.1328 21.9688C27.6068 22.2031 28.0026 22.4661 28.3203 22.7578C28.638 23.0495 28.8776 23.3802 29.0391 23.75C29.2005 24.1198 29.2812 24.5391 29.2812 25.0078C29.2812 25.5026 29.1849 25.9453 28.9922 26.3359C28.7995 26.7266 28.5208 27.0573 28.1562 27.3281C27.7917 27.599 27.3568 27.8047 26.8516 27.9453C26.3464 28.0859 25.7812 28.1562 25.1562 28.1562C24.5938 28.1562 24.0391 28.0833 23.4922 27.9375C22.9453 27.7865 22.4479 27.5599 22 27.2578C21.5573 26.9557 21.2031 26.5703 20.9375 26.1016C20.6719 25.6328 20.5391 25.0781 20.5391 24.4375H22.8906C22.8906 24.7917 22.9453 25.0911 23.0547 25.3359C23.1641 25.5807 23.3177 25.7786 23.5156 25.9297C23.7188 26.0807 23.9583 26.1901 24.2344 26.2578C24.5156 26.3255 24.8229 26.3594 25.1562 26.3594C25.5625 26.3594 25.8958 26.3021 26.1562 26.1875C26.4219 26.0729 26.6172 25.9141 26.7422 25.7109C26.8724 25.5078 26.9375 25.2786 26.9375 25.0234ZM33.2662 27.0469L35.5084 19.5469H37.9224L34.524 29.2734C34.4511 29.487 34.3521 29.7161 34.2271 29.9609C34.1073 30.2057 33.9433 30.4375 33.7349 30.6562C33.5318 30.8802 33.274 31.0625 32.9615 31.2031C32.6542 31.3438 32.2766 31.4141 31.8287 31.4141C31.6151 31.4141 31.4407 31.401 31.3053 31.375C31.1698 31.349 31.0084 31.3125 30.8209 31.2656V29.6172C30.8782 29.6172 30.9381 29.6172 31.0006 29.6172C31.0631 29.6224 31.123 29.625 31.1803 29.625C31.4771 29.625 31.7193 29.5911 31.9068 29.5234C32.0943 29.4557 32.2454 29.3516 32.3599 29.2109C32.4745 29.0755 32.5657 28.8984 32.6334 28.6797L33.2662 27.0469ZM32.3287 19.5469L34.1646 25.6719L34.4849 28.0547L32.9537 28.2188L29.9146 19.5469H32.3287ZM43.4152 25.6641C43.4152 25.5026 43.3683 25.3568 43.2746 25.2266C43.1808 25.0964 43.0063 24.9766 42.7511 24.8672C42.5011 24.7526 42.1391 24.6484 41.6652 24.5547C41.2381 24.4609 40.8397 24.3438 40.4699 24.2031C40.1053 24.0573 39.7876 23.8828 39.5168 23.6797C39.2511 23.4766 39.0428 23.237 38.8918 22.9609C38.7407 22.6797 38.6652 22.3594 38.6652 22C38.6652 21.6458 38.7407 21.3125 38.8918 21C39.048 20.6875 39.2694 20.4115 39.5558 20.1719C39.8475 19.9271 40.2016 19.737 40.6183 19.6016C41.0402 19.4609 41.5141 19.3906 42.0402 19.3906C42.7746 19.3906 43.4048 19.5078 43.9308 19.7422C44.4621 19.9766 44.8683 20.2995 45.1496 20.7109C45.436 21.1172 45.5793 21.5807 45.5793 22.1016H43.3293C43.3293 21.8828 43.2824 21.6875 43.1886 21.5156C43.1001 21.3385 42.9595 21.2005 42.7668 21.1016C42.5793 20.9974 42.3345 20.9453 42.0324 20.9453C41.7824 20.9453 41.5662 20.9896 41.3839 21.0781C41.2016 21.1615 41.061 21.276 40.9621 21.4219C40.8683 21.5625 40.8214 21.7188 40.8214 21.8906C40.8214 22.0208 40.8475 22.138 40.8996 22.2422C40.9569 22.3411 41.048 22.4323 41.173 22.5156C41.298 22.599 41.4595 22.6771 41.6574 22.75C41.8605 22.8177 42.1105 22.8802 42.4074 22.9375C43.0168 23.0625 43.561 23.2266 44.0402 23.4297C44.5194 23.6276 44.8996 23.8984 45.1808 24.2422C45.4621 24.5807 45.6027 25.026 45.6027 25.5781C45.6027 25.9531 45.5194 26.2969 45.3527 26.6094C45.186 26.9219 44.9464 27.1953 44.6339 27.4297C44.3214 27.6589 43.9464 27.8385 43.5089 27.9688C43.0766 28.0938 42.5897 28.1562 42.048 28.1562C41.2615 28.1562 40.5949 28.0156 40.048 27.7344C39.5063 27.4531 39.0949 27.0964 38.8136 26.6641C38.5376 26.2266 38.3996 25.7786 38.3996 25.3203H40.5324C40.5428 25.6276 40.6209 25.875 40.7668 26.0625C40.9178 26.25 41.1079 26.3854 41.3371 26.4688C41.5714 26.5521 41.824 26.5938 42.0949 26.5938C42.3865 26.5938 42.6287 26.5547 42.8214 26.4766C43.0141 26.3932 43.16 26.2839 43.2589 26.1484C43.3631 26.0078 43.4152 25.8464 43.4152 25.6641ZM51.2283 19.5469V21.1406H46.3064V19.5469H51.2283ZM47.5251 17.4609H49.7751V25.4531C49.7751 25.6979 49.8064 25.8854 49.8689 26.0156C49.9366 26.1458 50.0355 26.237 50.1658 26.2891C50.296 26.3359 50.46 26.3594 50.6579 26.3594C50.7986 26.3594 50.9236 26.3542 51.0329 26.3438C51.1475 26.3281 51.2439 26.3125 51.322 26.2969L51.3298 27.9531C51.1371 28.0156 50.9288 28.0651 50.7048 28.1016C50.4809 28.138 50.2335 28.1562 49.9626 28.1562C49.4678 28.1562 49.0355 28.0755 48.6658 27.9141C48.3012 27.7474 48.0199 27.4818 47.822 27.1172C47.6241 26.7526 47.5251 26.2734 47.5251 25.6797V17.4609ZM56.4241 28.1562C55.7679 28.1562 55.1793 28.0521 54.6585 27.8438C54.1377 27.6302 53.695 27.3359 53.3304 26.9609C52.971 26.5859 52.695 26.151 52.5023 25.6562C52.3095 25.1562 52.2132 24.625 52.2132 24.0625V23.75C52.2132 23.1094 52.3043 22.5234 52.4866 21.9922C52.6689 21.4609 52.9293 21 53.2679 20.6094C53.6116 20.2188 54.0283 19.9193 54.5179 19.7109C55.0075 19.4974 55.5595 19.3906 56.1741 19.3906C56.7731 19.3906 57.3043 19.4896 57.7679 19.6875C58.2314 19.8854 58.6194 20.1667 58.9319 20.5312C59.2496 20.8958 59.4892 21.3333 59.6507 21.8438C59.8121 22.349 59.8929 22.9115 59.8929 23.5312V24.4688H53.1741V22.9688H57.6819V22.7969C57.6819 22.4844 57.6246 22.2057 57.5101 21.9609C57.4007 21.7109 57.234 21.513 57.0101 21.3672C56.7861 21.2214 56.4996 21.1484 56.1507 21.1484C55.8538 21.1484 55.5986 21.2135 55.3851 21.3438C55.1715 21.474 54.997 21.6562 54.8616 21.8906C54.7314 22.125 54.6325 22.401 54.5648 22.7188C54.5023 23.0312 54.471 23.375 54.471 23.75V24.0625C54.471 24.401 54.5179 24.7135 54.6116 25C54.7106 25.2865 54.8486 25.5339 55.0257 25.7422C55.208 25.9505 55.4267 26.112 55.6819 26.2266C55.9424 26.3411 56.2366 26.3984 56.5648 26.3984C56.971 26.3984 57.3486 26.3203 57.6976 26.1641C58.0517 26.0026 58.3564 25.7604 58.6116 25.4375L59.7054 26.625C59.5283 26.8802 59.2861 27.125 58.9788 27.3594C58.6767 27.5938 58.3121 27.7865 57.8851 27.9375C57.458 28.0833 56.971 28.1562 56.4241 28.1562ZM63.4481 21.2969V28H61.1903V19.5469H63.3075L63.4481 21.2969ZM63.1356 23.4766H62.5106C62.5106 22.888 62.5809 22.3464 62.7216 21.8516C62.8674 21.3516 63.0783 20.9193 63.3544 20.5547C63.6356 20.1849 63.982 19.8984 64.3934 19.6953C64.8049 19.4922 65.2815 19.3906 65.8231 19.3906C66.1981 19.3906 66.5419 19.4479 66.8544 19.5625C67.1669 19.6719 67.4351 19.8464 67.6591 20.0859C67.8882 20.3203 68.0653 20.6276 68.1903 21.0078C68.3153 21.3828 68.3778 21.8333 68.3778 22.3594V28H66.1278V22.6094C66.1278 22.224 66.0757 21.9271 65.9716 21.7188C65.8674 21.5104 65.719 21.3646 65.5262 21.2812C65.3387 21.1979 65.1122 21.1562 64.8466 21.1562C64.5549 21.1562 64.2997 21.2161 64.0809 21.3359C63.8674 21.4557 63.6903 21.6224 63.5497 21.8359C63.4091 22.0443 63.3049 22.2891 63.2372 22.5703C63.1695 22.8516 63.1356 23.1536 63.1356 23.4766ZM68.1669 23.2188L67.3622 23.3203C67.3622 22.7682 67.4299 22.2552 67.5653 21.7812C67.7059 21.3073 67.9117 20.8906 68.1825 20.5312C68.4585 20.1719 68.7997 19.8932 69.2059 19.6953C69.6122 19.4922 70.0809 19.3906 70.6122 19.3906C71.0184 19.3906 71.3882 19.4505 71.7216 19.5703C72.0549 19.6849 72.3387 19.8698 72.5731 20.125C72.8127 20.375 72.995 20.7031 73.12 21.1094C73.2502 21.5156 73.3153 22.013 73.3153 22.6016V28H71.0575V22.6016C71.0575 22.2109 71.0054 21.9141 70.9012 21.7109C70.8023 21.5026 70.6565 21.3594 70.4637 21.2812C70.2762 21.1979 70.0523 21.1562 69.7919 21.1562C69.521 21.1562 69.2841 21.2109 69.0809 21.3203C68.8778 21.4245 68.7085 21.5703 68.5731 21.7578C68.4377 21.9453 68.3361 22.1641 68.2684 22.4141C68.2007 22.6589 68.1669 22.9271 68.1669 23.2188ZM86.8164 21.2578V23.0859H80.8789V21.2578H86.8164ZM81.5742 16.625V28H79.2305V16.625H81.5742ZM88.4883 16.625V28H86.1524V16.625H88.4883ZM94.3014 28.1562C93.6451 28.1562 93.0566 28.0521 92.5358 27.8438C92.0149 27.6302 91.5722 27.3359 91.2076 26.9609C90.8483 26.5859 90.5722 26.151 90.3795 25.6562C90.1868 25.1562 90.0904 24.625 90.0904 24.0625V23.75C90.0904 23.1094 90.1816 22.5234 90.3639 21.9922C90.5462 21.4609 90.8066 21 91.1451 20.6094C91.4889 20.2188 91.9055 19.9193 92.3951 19.7109C92.8847 19.4974 93.4368 19.3906 94.0514 19.3906C94.6503 19.3906 95.1816 19.4896 95.6451 19.6875C96.1087 19.8854 96.4967 20.1667 96.8092 20.5312C97.1269 20.8958 97.3665 21.3333 97.5279 21.8438C97.6894 22.349 97.7701 22.9115 97.7701 23.5312V24.4688H91.0514V22.9688H95.5592V22.7969C95.5592 22.4844 95.5019 22.2057 95.3873 21.9609C95.2779 21.7109 95.1113 21.513 94.8873 21.3672C94.6634 21.2214 94.3769 21.1484 94.0279 21.1484C93.7311 21.1484 93.4759 21.2135 93.2623 21.3438C93.0488 21.474 92.8743 21.6562 92.7389 21.8906C92.6087 22.125 92.5097 22.401 92.442 22.7188C92.3795 23.0312 92.3483 23.375 92.3483 23.75V24.0625C92.3483 24.401 92.3951 24.7135 92.4889 25C92.5878 25.2865 92.7259 25.5339 92.9029 25.7422C93.0852 25.9505 93.304 26.112 93.5592 26.2266C93.8196 26.3411 94.1139 26.3984 94.442 26.3984C94.8483 26.3984 95.2259 26.3203 95.5748 26.1641C95.929 26.0026 96.2337 25.7604 96.4889 25.4375L97.5826 26.625C97.4055 26.8802 97.1634 27.125 96.8561 27.3594C96.554 27.5938 96.1894 27.7865 95.7623 27.9375C95.3352 28.0833 94.8483 28.1562 94.3014 28.1562ZM103.638 26.0938V22.3281C103.638 22.0573 103.594 21.8255 103.505 21.6328C103.417 21.4349 103.279 21.2812 103.091 21.1719C102.909 21.0625 102.672 21.0078 102.38 21.0078C102.13 21.0078 101.914 21.0521 101.732 21.1406C101.549 21.224 101.409 21.3464 101.31 21.5078C101.211 21.6641 101.161 21.849 101.161 22.0625H98.9113C98.9113 21.7031 98.9946 21.362 99.1613 21.0391C99.328 20.7161 99.5702 20.4323 99.8879 20.1875C100.206 19.9375 100.583 19.7422 101.021 19.6016C101.463 19.4609 101.958 19.3906 102.505 19.3906C103.161 19.3906 103.745 19.5 104.255 19.7188C104.765 19.9375 105.167 20.2656 105.458 20.7031C105.755 21.1406 105.904 21.6875 105.904 22.3438V25.9609C105.904 26.4245 105.932 26.8047 105.989 27.1016C106.047 27.3932 106.13 27.6484 106.239 27.8672V28H103.966C103.857 27.7708 103.773 27.4844 103.716 27.1406C103.664 26.7917 103.638 26.4427 103.638 26.0938ZM103.935 22.8516L103.95 24.125H102.693C102.396 24.125 102.138 24.1589 101.919 24.2266C101.7 24.2943 101.521 24.3906 101.38 24.5156C101.239 24.6354 101.135 24.776 101.068 24.9375C101.005 25.099 100.974 25.276 100.974 25.4688C100.974 25.6615 101.018 25.8359 101.107 25.9922C101.195 26.1432 101.323 26.263 101.489 26.3516C101.656 26.4349 101.851 26.4766 102.075 26.4766C102.414 26.4766 102.708 26.4089 102.958 26.2734C103.208 26.138 103.401 25.9714 103.536 25.7734C103.677 25.5755 103.75 25.388 103.755 25.2109L104.349 26.1641C104.265 26.3776 104.151 26.599 104.005 26.8281C103.864 27.0573 103.685 27.2734 103.466 27.4766C103.247 27.6745 102.984 27.8385 102.677 27.9688C102.37 28.0938 102.005 28.1562 101.583 28.1562C101.047 28.1562 100.56 28.0495 100.122 27.8359C99.69 27.6172 99.3462 27.3177 99.091 26.9375C98.841 26.5521 98.716 26.1146 98.716 25.625C98.716 25.1823 98.7993 24.7891 98.966 24.4453C99.1327 24.1016 99.3775 23.8125 99.7004 23.5781C100.029 23.3385 100.437 23.1589 100.927 23.0391C101.417 22.9141 101.984 22.8516 102.63 22.8516H103.935ZM110.037 16V28H107.779V16H110.037ZM116.061 19.5469V21.1406H111.139V19.5469H116.061ZM112.358 17.4609H114.608V25.4531C114.608 25.6979 114.639 25.8854 114.701 26.0156C114.769 26.1458 114.868 26.237 114.998 26.2891C115.129 26.3359 115.293 26.3594 115.491 26.3594C115.631 26.3594 115.756 26.3542 115.866 26.3438C115.98 26.3281 116.076 26.3125 116.155 26.2969L116.162 27.9531C115.97 28.0156 115.761 28.0651 115.537 28.1016C115.313 28.138 115.066 28.1562 114.795 28.1562C114.3 28.1562 113.868 28.0755 113.498 27.9141C113.134 27.7474 112.853 27.4818 112.655 27.1172C112.457 26.7526 112.358 26.2734 112.358 25.6797V17.4609ZM119.561 16V28H117.311V16H119.561ZM119.241 23.4766H118.624C118.629 22.888 118.707 22.3464 118.858 21.8516C119.009 21.3516 119.226 20.9193 119.507 20.5547C119.788 20.1849 120.124 19.8984 120.515 19.6953C120.91 19.4922 121.348 19.3906 121.827 19.3906C122.244 19.3906 122.621 19.4505 122.96 19.5703C123.304 19.6849 123.598 19.8724 123.843 20.1328C124.093 20.388 124.285 20.724 124.421 21.1406C124.556 21.5573 124.624 22.0625 124.624 22.6562V28H122.358V22.6406C122.358 22.2656 122.304 21.9714 122.194 21.7578C122.09 21.5391 121.936 21.3854 121.733 21.2969C121.535 21.2031 121.291 21.1562 120.999 21.1562C120.676 21.1562 120.4 21.2161 120.171 21.3359C119.947 21.4557 119.767 21.6224 119.632 21.8359C119.496 22.0443 119.397 22.2891 119.335 22.5703C119.272 22.8516 119.241 23.1536 119.241 23.4766Z" fill="black" fill-opacity="0.6"/>
<rect x="425" y="5" width="67" height="36" rx="8" fill="#F1FBF1"/>
<path d="M445.375 26.2891H445.523C446.148 26.2891 446.685 26.2135 447.133 26.0625C447.586 25.9062 447.958 25.6823 448.25 25.3906C448.542 25.099 448.758 24.7422 448.898 24.3203C449.039 23.8932 449.109 23.4089 449.109 22.8672V20.7109C449.109 20.2995 449.068 19.9375 448.984 19.625C448.906 19.3125 448.792 19.0547 448.641 18.8516C448.495 18.6432 448.323 18.487 448.125 18.3828C447.932 18.2786 447.719 18.2266 447.484 18.2266C447.234 18.2266 447.013 18.2891 446.82 18.4141C446.628 18.5339 446.464 18.6979 446.328 18.9062C446.198 19.1146 446.096 19.3542 446.023 19.625C445.956 19.8906 445.922 20.1693 445.922 20.4609C445.922 20.7526 445.956 21.0312 446.023 21.2969C446.091 21.5573 446.193 21.7891 446.328 21.9922C446.464 22.1901 446.633 22.349 446.836 22.4688C447.039 22.5833 447.279 22.6406 447.555 22.6406C447.82 22.6406 448.057 22.5911 448.266 22.4922C448.479 22.388 448.659 22.2526 448.805 22.0859C448.956 21.9193 449.07 21.7344 449.148 21.5312C449.232 21.3281 449.273 21.1224 449.273 20.9141L450.016 21.3203C450.016 21.6849 449.938 22.0443 449.781 22.3984C449.625 22.7526 449.406 23.0755 449.125 23.3672C448.849 23.6536 448.529 23.8828 448.164 24.0547C447.799 24.2266 447.409 24.3125 446.992 24.3125C446.461 24.3125 445.99 24.2161 445.578 24.0234C445.167 23.8255 444.818 23.5547 444.531 23.2109C444.25 22.862 444.036 22.4557 443.891 21.9922C443.745 21.5286 443.672 21.026 443.672 20.4844C443.672 19.9323 443.76 19.4141 443.938 18.9297C444.12 18.4453 444.378 18.0182 444.711 17.6484C445.049 17.2786 445.453 16.9896 445.922 16.7812C446.396 16.5677 446.922 16.4609 447.5 16.4609C448.078 16.4609 448.604 16.5729 449.078 16.7969C449.552 17.0208 449.958 17.3385 450.297 17.75C450.635 18.1562 450.896 18.6432 451.078 19.2109C451.266 19.7786 451.359 20.4089 451.359 21.1016V21.8828C451.359 22.6224 451.279 23.3099 451.117 23.9453C450.961 24.5807 450.724 25.1562 450.406 25.6719C450.094 26.1823 449.703 26.6198 449.234 26.9844C448.771 27.349 448.232 27.6276 447.617 27.8203C447.003 28.013 446.315 28.1094 445.555 28.1094H445.375V26.2891ZM460.657 24.8828C460.657 25.5964 460.49 26.1979 460.157 26.6875C459.823 27.1719 459.365 27.5391 458.782 27.7891C458.204 28.0339 457.547 28.1562 456.813 28.1562C456.079 28.1562 455.42 28.0339 454.837 27.7891C454.253 27.5391 453.792 27.1719 453.454 26.6875C453.115 26.1979 452.946 25.5964 452.946 24.8828C452.946 24.4036 453.042 23.9714 453.235 23.5859C453.428 23.1953 453.696 22.862 454.04 22.5859C454.389 22.3047 454.797 22.0911 455.266 21.9453C455.735 21.7943 456.245 21.7188 456.797 21.7188C457.537 21.7188 458.198 21.849 458.782 22.1094C459.365 22.3698 459.823 22.737 460.157 23.2109C460.49 23.6849 460.657 24.2422 460.657 24.8828ZM458.391 24.7344C458.391 24.3854 458.323 24.0859 458.188 23.8359C458.058 23.5807 457.873 23.3854 457.633 23.25C457.394 23.1146 457.115 23.0469 456.797 23.0469C456.48 23.0469 456.201 23.1146 455.962 23.25C455.722 23.3854 455.534 23.5807 455.399 23.8359C455.269 24.0859 455.204 24.3854 455.204 24.7344C455.204 25.0781 455.269 25.375 455.399 25.625C455.534 25.875 455.722 26.0677 455.962 26.2031C456.206 26.3333 456.49 26.3984 456.813 26.3984C457.136 26.3984 457.415 26.3333 457.649 26.2031C457.889 26.0677 458.071 25.875 458.196 25.625C458.326 25.375 458.391 25.0781 458.391 24.7344ZM460.415 19.6406C460.415 20.2188 460.261 20.7318 459.954 21.1797C459.646 21.6224 459.219 21.9688 458.672 22.2188C458.131 22.4688 457.511 22.5938 456.813 22.5938C456.11 22.5938 455.485 22.4688 454.938 22.2188C454.391 21.9688 453.964 21.6224 453.657 21.1797C453.35 20.7318 453.196 20.2188 453.196 19.6406C453.196 18.9531 453.35 18.375 453.657 17.9062C453.969 17.4323 454.396 17.0729 454.938 16.8281C455.485 16.5833 456.105 16.4609 456.797 16.4609C457.501 16.4609 458.123 16.5833 458.665 16.8281C459.212 17.0729 459.639 17.4323 459.946 17.9062C460.258 18.375 460.415 18.9531 460.415 19.6406ZM458.165 19.7422C458.165 19.4349 458.11 19.1693 458.001 18.9453C457.891 18.7161 457.735 18.5391 457.532 18.4141C457.334 18.2891 457.089 18.2266 456.797 18.2266C456.516 18.2266 456.274 18.2865 456.071 18.4062C455.873 18.526 455.719 18.7005 455.61 18.9297C455.506 19.1536 455.454 19.4245 455.454 19.7422C455.454 20.0495 455.506 20.3203 455.61 20.5547C455.719 20.7839 455.876 20.9635 456.079 21.0938C456.282 21.224 456.527 21.2891 456.813 21.2891C457.1 21.2891 457.342 21.224 457.54 21.0938C457.743 20.9635 457.896 20.7839 458.001 20.5547C458.11 20.3203 458.165 20.0495 458.165 19.7422ZM462.173 19.4141V18.8125C462.173 18.3802 462.267 17.987 462.454 17.6328C462.642 17.2786 462.918 16.9948 463.282 16.7812C463.647 16.5677 464.095 16.4609 464.626 16.4609C465.173 16.4609 465.629 16.5677 465.993 16.7812C466.363 16.9948 466.639 17.2786 466.821 17.6328C467.009 17.987 467.103 18.3802 467.103 18.8125V19.4141C467.103 19.8359 467.009 20.224 466.821 20.5781C466.639 20.9323 466.366 21.2161 466.001 21.4297C465.637 21.6432 465.183 21.75 464.642 21.75C464.105 21.75 463.652 21.6432 463.282 21.4297C462.918 21.2161 462.642 20.9323 462.454 20.5781C462.267 20.224 462.173 19.8359 462.173 19.4141ZM463.665 18.8125V19.4141C463.665 19.5964 463.699 19.7708 463.767 19.9375C463.84 20.099 463.949 20.2318 464.095 20.3359C464.246 20.4349 464.428 20.4844 464.642 20.4844C464.866 20.4844 465.048 20.4349 465.189 20.3359C465.329 20.2318 465.433 20.099 465.501 19.9375C465.569 19.7708 465.603 19.5964 465.603 19.4141V18.8125C465.603 18.6198 465.566 18.4427 465.493 18.2812C465.426 18.1146 465.319 17.9818 465.173 17.8828C465.032 17.7786 464.85 17.7266 464.626 17.7266C464.418 17.7266 464.241 17.7786 464.095 17.8828C463.949 17.9818 463.84 18.1146 463.767 18.2812C463.699 18.4427 463.665 18.6198 463.665 18.8125ZM467.611 25.8125V25.2109C467.611 24.7839 467.704 24.3932 467.892 24.0391C468.084 23.6849 468.363 23.401 468.728 23.1875C469.097 22.974 469.551 22.8672 470.087 22.8672C470.629 22.8672 471.082 22.974 471.446 23.1875C471.811 23.401 472.087 23.6849 472.275 24.0391C472.462 24.3932 472.556 24.7839 472.556 25.2109V25.8125C472.556 26.2396 472.462 26.6302 472.275 26.9844C472.092 27.3385 471.819 27.6224 471.454 27.8359C471.09 28.0495 470.639 28.1562 470.103 28.1562C469.561 28.1562 469.105 28.0495 468.736 27.8359C468.366 27.6224 468.084 27.3385 467.892 26.9844C467.704 26.6302 467.611 26.2396 467.611 25.8125ZM469.111 25.2109V25.8125C469.111 26 469.152 26.1771 469.236 26.3438C469.319 26.5104 469.433 26.6432 469.579 26.7422C469.73 26.8411 469.905 26.8906 470.103 26.8906C470.353 26.8906 470.548 26.8411 470.689 26.7422C470.829 26.6432 470.926 26.5104 470.978 26.3438C471.035 26.1771 471.064 26 471.064 25.8125V25.2109C471.064 25.0234 471.027 24.849 470.954 24.6875C470.881 24.5208 470.772 24.388 470.626 24.2891C470.486 24.1849 470.306 24.1328 470.087 24.1328C469.868 24.1328 469.686 24.1849 469.54 24.2891C469.4 24.388 469.293 24.5208 469.22 24.6875C469.147 24.849 469.111 25.0234 469.111 25.2109ZM470.642 18.25L465.087 27.1406L463.993 26.5625L469.548 17.6719L470.642 18.25Z" fill="#008100" fill-opacity="0.6"/>
<rect x="20" y="45" width="472" height="12" rx="6" fill="#2563EB"/>
</svg>
