<svg xmlns="http://www.w3.org/2000/svg" width="160" height="160" viewBox="0 0 160 160" fill="none">
  <path fill-rule="evenodd" clip-rule="evenodd" d="M140.219 94.579C134.494 103.101 127.571 111.545 119.556 119.552C108.035 131.081 95.6145 140.364 83.3765 147.086C66.4364 156.387 49.7662 160.792 36.0961 159.883C25.8779 159.21 17.1981 155.644 10.7743 149.219C2.45274 140.898 -1.09602 128.669 0.293812 114.3C0.660929 110.463 4.08739 107.631 7.92482 107.998C11.762 108.365 14.5943 111.792 14.2096 115.638C13.2743 125.314 15.0575 133.723 20.6692 139.335C25.9314 144.597 33.6846 146.476 42.6266 145.925C52.9236 145.287 64.6716 141.398 76.6374 134.824C87.8085 128.68 99.1465 120.192 109.67 109.668C119.137 100.202 126.96 90.0799 132.904 80.0012C126.961 69.9229 119.137 59.8009 109.67 50.334C107.205 47.8689 104.705 45.5265 102.17 43.2888C99.2771 40.7453 98.9887 36.3135 101.541 33.4202C104.093 30.5356 108.525 30.2472 111.41 32.7996C114.172 35.2295 116.89 37.7733 119.556 40.4393C131.077 51.9598 140.351 64.3892 147.073 76.6182L147.082 76.6269C156.391 93.5756 160.797 110.237 159.879 123.907C159.206 134.125 155.64 142.814 149.224 149.22C140.902 157.55 128.665 161.09 114.296 159.709C110.458 159.342 107.644 155.924 108.002 152.078C108.378 148.232 111.796 145.408 115.642 145.793C125.318 146.711 133.736 144.945 139.339 139.334C144.61 134.071 146.48 126.31 145.921 117.376C145.493 110.322 143.535 102.595 140.222 94.5787L140.219 94.579ZM12.9234 83.3732C3.61411 66.4245 -0.791248 49.7631 0.126433 36.0931C0.799489 25.875 4.35703 17.1865 10.773 10.7715C19.1033 2.45001 31.3318 -1.09001 45.7012 0.291088C49.5474 0.658203 52.362 4.07591 52.0035 7.92204C51.6276 11.7682 48.2099 14.5827 44.3638 14.2068C34.6875 13.2803 26.2699 15.0459 20.6576 20.6576C15.3954 25.9285 13.5249 33.6816 14.0756 42.6236C14.5126 49.6774 16.4706 57.4046 19.7748 65.4122C25.5089 56.8984 32.4317 48.4548 40.4473 40.4486C51.9679 28.9193 64.3885 19.6363 76.6265 12.9139C93.5665 3.6136 110.237 -0.79195 123.907 0.116997C134.125 0.790047 142.805 4.35629 149.22 10.7722C157.55 19.1024 161.09 31.3309 159.709 45.7002C159.333 49.5374 155.915 52.3696 152.078 52.0024C148.241 51.6265 145.408 48.2088 145.784 44.3627C146.728 34.6865 144.945 26.269 139.334 20.6656C134.071 15.4035 126.309 13.5243 117.367 14.075C107.079 14.7131 95.3312 18.6027 83.3655 25.1759C72.1945 31.3208 60.8498 39.8084 50.3326 50.332C40.8573 59.7985 33.0341 69.9204 27.0986 79.9992C33.0336 90.0775 40.8656 100.199 50.3326 109.666C52.7889 112.131 55.2887 114.465 57.8325 116.703C60.7258 119.255 61.0143 123.678 58.4618 126.58C55.9008 129.465 51.4777 129.744 48.5844 127.201C45.8309 124.771 43.1038 122.218 40.4378 119.552C28.926 108.041 19.6516 95.6114 12.9298 83.3824L12.9234 83.3732ZM84.2322 57.0535C84.2322 57.0535 88.4104 66.3627 91.0064 68.9674C93.6113 71.5723 102.955 75.7767 102.955 75.7767C104.59 76.5371 105.647 78.1891 105.639 79.9985C105.647 81.8166 104.59 83.4687 102.947 84.2291C102.947 84.2291 93.6462 88.4073 91.0238 90.9945C88.4189 93.6081 84.2232 102.952 84.2232 102.952C83.4715 104.587 81.8108 105.636 79.9926 105.636C78.192 105.644 76.5399 104.587 75.7795 102.952C75.7795 102.952 71.5751 93.6081 68.9702 91.0034C66.3653 88.4073 57.0562 84.2293 57.0562 84.2293C55.4129 83.4601 54.3553 81.8081 54.3553 79.9987C54.3641 78.1894 55.413 76.5285 57.0562 75.7682C57.0562 75.7682 66.3566 71.59 68.9702 68.994C71.5838 66.3891 75.7708 57.0452 75.7708 57.0452C76.5312 55.4107 78.192 54.3618 80.0014 54.3531C81.8108 54.3531 83.4631 55.4103 84.2322 57.0535Z" fill="#E9EFFD"/>
</svg>