<svg width="28" height="28" viewBox="0 0 28 28" fill="none" xmlns="http://www.w3.org/2000/svg">
<path d="M26.4912 8.10526C25.9942 8.66526 25.5263 9.22526 25.0877 9.78526C24.883 10.0211 24.7076 10.2568 24.5029 10.5221C24.8538 11.6126 25.0585 12.7916 25.0585 14C25.0292 20.1895 20.0292 25.2295 13.8889 25.2295C7.74854 25.2295 2.74854 20.1895 2.74854 14C2.74854 7.81053 7.74854 2.77053 13.8889 2.77053C15.848 2.77053 17.7193 3.30105 19.3275 4.18526C19.883 3.62526 20.4386 3.09474 21.0234 2.56421L21.4035 2.24C19.2398 0.825263 16.6667 0 13.8889 0C6.22807 0 0 6.27789 0 14C0 21.7221 6.22807 28 13.8889 28C21.5497 28 27.7778 21.7221 27.7778 14C27.7778 11.9074 27.3099 9.90316 26.4912 8.10526Z" fill="#1976D2"/>
<path d="M17.807 9.84419C16.7544 11.141 15.7602 12.4673 14.8246 13.8231C14.3567 14.501 13.8889 15.2084 13.4503 15.9158L9.7076 11.2589C9.26901 10.7284 8.50877 10.6105 7.92398 10.9937C7.30994 11.4063 7.16374 12.2316 7.5731 12.8505L12.2807 19.8947C12.3977 20.0716 12.5731 20.2484 12.7778 20.3663C13.0409 20.5431 13.3333 20.6316 13.6257 20.6316C14.1813 20.6316 14.7953 20.3368 15.0585 19.8358C15.3216 19.3642 16.6374 16.9179 17.5146 15.5916C18.3626 14.2652 19.2398 12.9684 20.2047 11.701C21.1403 10.4337 22.1345 9.19576 23.1871 8.01682C24.2105 6.83787 25.3216 5.62945 26.4327 4.59787L26.462 4.5684C26.9883 4.06734 27.0175 3.24208 26.5497 2.71155C26.0526 2.15155 25.2339 2.09261 24.6784 2.59366C23.3918 3.74313 22.2515 4.89261 21.1111 6.10103C19.9415 7.30945 18.8304 8.54734 17.807 9.84419Z" fill="#1976D2"/>
</svg>
