<svg xmlns="http://www.w3.org/2000/svg" width="155" height="40" viewBox="0 0 155 40" fill="none">
  <path d="M36.5581 23.0685L34.811 23.0914C34.7809 23.0912 34.7513 23.0834 34.7249 23.0687C34.6985 23.0541 34.6761 23.0331 34.6598 23.0076C34.6435 22.9821 34.6337 22.9529 34.6314 22.9226C34.6291 22.8923 34.6343 22.862 34.6465 22.8342L43.4669 3.14852C43.4815 3.11698 43.5047 3.0903 43.5339 3.0716C43.563 3.0529 43.5968 3.04297 43.6314 3.04297C43.6659 3.04297 43.6998 3.0529 43.7289 3.0716C43.758 3.0903 43.7813 3.11698 43.7959 3.14852L52.6219 22.84C52.6344 22.8681 52.6395 22.899 52.637 22.9298C52.6344 22.9605 52.6241 22.9901 52.6071 23.0157C52.5901 23.0414 52.567 23.0623 52.5398 23.0765C52.5127 23.0908 52.4824 23.0978 52.4518 23.0971L50.7047 23.0628C50.6714 23.062 50.639 23.052 50.611 23.0338C50.583 23.0157 50.5604 22.9901 50.5459 22.96L43.7959 7.91424C43.7813 7.8827 43.758 7.85601 43.7289 7.83731C43.6998 7.81862 43.6659 7.80868 43.6314 7.80868C43.5968 7.80868 43.563 7.81862 43.5339 7.83731C43.5047 7.85601 43.4815 7.8827 43.4669 7.91424L36.7169 22.96C36.7031 22.9912 36.681 23.0179 36.6529 23.0371C36.6248 23.0563 36.592 23.0672 36.5581 23.0685Z" fill="#FAFAFA"/>
  <path d="M19.1211 15.5487L11.7529 15.543C11.6205 15.543 11.5562 15.4763 11.56 15.343L11.5827 13.8059C11.5865 13.6535 11.6659 13.5773 11.8209 13.5773H21.2652C21.4884 13.5773 21.5999 13.6878 21.5999 13.9087C21.615 15.3601 21.3087 16.6897 20.681 17.8973C18.7713 21.5697 15.8671 23.484 11.9684 23.6401C3.94214 23.9716 -0.811225 15.2687 3.01756 8.52585C4.14067 6.54871 5.7705 5.12966 7.90705 4.26871C12.3031 2.50299 17.1585 4.03442 19.8982 7.90871C19.955 7.99252 19.9417 8.063 19.8585 8.12014L18.5255 9.063C18.4537 9.11252 18.3913 9.1049 18.3384 9.04014C15.6119 5.6268 12.2728 4.69918 8.32113 6.25728C3.05726 8.33157 1.87743 16.1544 6.506 19.8516C11.1743 23.5773 17.2096 21.5601 19.4161 15.983C19.5295 15.6935 19.4312 15.5487 19.1211 15.5487Z" fill="#FAFAFA"/>
  <path d="M89.9906 10.4181L83.649 22.9895C83.6295 23.0279 83.5999 23.0602 83.5633 23.0827C83.5268 23.1052 83.4848 23.1171 83.442 23.1171C83.3992 23.1171 83.3572 23.1052 83.3206 23.0827C83.2841 23.0602 83.2545 23.0279 83.235 22.9895L76.9558 10.3553C76.8007 10.0429 76.6967 10.06 76.6438 10.4067L74.7719 22.9495C74.7682 22.9838 74.7492 23.0029 74.7152 23.0067C74.095 23.121 73.4938 23.1362 72.9114 23.0524C72.8244 23.041 72.7885 22.9914 72.8037 22.9038L75.6568 4.10954C75.7097 3.75907 75.8137 3.74192 75.9688 4.05811L83.1782 18.5038C83.356 18.8581 83.5337 18.86 83.7114 18.5095L91.0286 4.10383C91.2215 3.72287 91.3482 3.74383 91.4087 4.16668L94.0293 22.8181C94.0595 23.02 93.9745 23.1191 93.774 23.1153L92.39 23.081C92.1934 23.0772 92.0818 22.9781 92.0553 22.7838L90.3536 10.481C90.2969 10.0695 90.1759 10.0486 89.9906 10.4181Z" fill="#FAFAFA"/>
  <path d="M115.862 17.8859V4.56591C115.862 4.13924 116.062 3.99448 116.463 4.13162C116.716 4.21543 116.971 4.21543 117.229 4.13162C117.637 3.99448 117.841 4.14114 117.841 4.57162V23.1773C117.841 23.5278 117.728 23.5716 117.501 23.3088L105.549 9.40591C105.228 9.02876 105.067 9.08972 105.067 9.58876L105.079 22.9088C105.079 23.023 105.022 23.0821 104.908 23.0859L103.241 23.0973C103.173 23.0973 103.139 23.063 103.139 22.9945L103.133 3.98305C103.133 3.73162 103.214 3.69924 103.377 3.88591L115.527 18.0116C115.75 18.2745 115.862 18.2326 115.862 17.8859Z" fill="#FAFAFA"/>
  <path d="M143.542 23.3489C141.451 22.9489 139.884 21.7203 138.84 19.6631C138.798 19.5755 138.817 19.5089 138.897 19.4631L140.377 18.5888C140.464 18.5393 140.529 18.5622 140.57 18.6574C141.137 20.006 142.039 20.8746 143.276 21.2631C146.435 22.2574 150.497 20.9946 149.748 16.8517C149.555 15.7812 148.963 15.0422 147.972 14.6346C146.573 14.0593 145.089 13.5546 143.52 13.1203C137.575 11.4803 139.01 4.32027 144.694 3.78313C147.348 3.5317 149.511 4.33742 151.183 6.20027C151.327 6.36408 151.315 6.51456 151.149 6.6517L150.173 7.44599C149.992 7.59456 149.82 7.58504 149.657 7.41742C148.042 5.75646 146.04 5.28599 143.65 6.00599C141.761 6.5717 140.876 9.05742 142.504 10.4517C143.034 10.9012 143.669 11.2136 144.41 11.3888C147.609 12.1317 151.398 13.246 151.722 17.086C152.142 22.0117 147.927 24.1889 143.542 23.3489Z" fill="#FAFAFA"/>
  <path d="M26.3989 21.1319L33.1602 21.1376C33.4325 21.1376 33.5611 21.2748 33.5459 21.5491L33.4665 22.7719C33.4514 22.9852 33.338 23.0919 33.1262 23.0919L24.2491 23.1033C24.1829 23.1033 24.1194 23.0775 24.0726 23.0314C24.0258 22.9853 23.9995 22.9228 23.9995 22.8576V4.49192C23.9995 4.14525 24.1659 4.01953 24.4987 4.11477C24.8088 4.2062 25.1359 4.21192 25.48 4.13192C25.8354 4.05192 26.0132 4.19477 26.0132 4.56049L26.0075 20.7376C26.0075 21.0005 26.138 21.1319 26.3989 21.1319Z" fill="#FAFAFA"/>
  <path d="M98.8396 4.12012H97.4328C97.2731 4.12012 97.1436 4.25059 97.1436 4.41155V22.8115C97.1436 22.9725 97.2731 23.103 97.4328 23.103H98.8396C98.9993 23.103 99.1288 22.9725 99.1288 22.8115V4.41155C99.1288 4.25059 98.9993 4.12012 98.8396 4.12012Z" fill="#FAFAFA"/>
  <path d="M57.0803 6.06281C57.0345 6.05967 56.9885 6.06607 56.9453 6.0816C56.902 6.09714 56.8624 6.12147 56.8289 6.1531C56.7954 6.18472 56.7687 6.22296 56.7504 6.26543C56.7322 6.3079 56.7229 6.35369 56.723 6.39995V22.6971C56.723 22.9714 56.5868 23.1085 56.3146 23.1085L55.1518 23.1028C55.0449 23.1028 54.9425 23.0607 54.867 22.9857C54.7915 22.9106 54.749 22.8089 54.749 22.7028V4.54852C54.749 4.26281 54.8908 4.12567 55.1744 4.1371C57.9936 4.23424 61.516 3.79424 64.0232 4.5371C70.1833 6.34853 72.9173 13.8057 69.0205 19.1257C66.7402 22.2342 63.352 23.5352 58.8557 23.0285C58.765 23.0209 58.7196 22.9714 58.7196 22.88L58.731 21.3028C58.7347 21.1504 58.8104 21.0819 58.9579 21.0971C60.0053 21.1923 61.0169 21.1981 61.9925 21.1142C69.8429 20.4457 71.5333 9.58281 63.9835 6.54281C62.0436 5.76567 59.2188 6.19995 57.0803 6.06281Z" fill="#FAFAFA"/>
  <path d="M123.809 6.54316L123.803 23.0003C123.803 23.0498 123.777 23.0765 123.724 23.0803L122.073 23.126C121.975 23.126 121.926 23.0765 121.926 22.9774V4.45745C121.926 4.27078 122.018 4.17554 122.204 4.17173C124.212 4.13745 126.165 4.12983 128.063 4.14888C132.488 4.19459 135.543 6.21935 137.23 10.2232C138.201 12.5394 138.156 14.9146 137.093 17.3489C135.074 21.9546 130.718 23.5546 125.919 23.0403C125.817 23.0289 125.766 22.9717 125.766 22.8689V21.2917C125.766 21.2041 125.809 21.1584 125.896 21.1546C127.456 21.0974 129.073 21.3432 130.582 20.8232C133.229 19.9013 134.932 18.1527 135.692 15.5774C136.872 11.5889 134.11 7.02316 130.065 6.29745C128.704 6.05364 126.753 5.99269 124.212 6.11459C123.943 6.12602 123.809 6.26888 123.809 6.54316Z" fill="#FAFAFA"/>
  <path d="M47.1137 18.1947C47.1361 18.1851 47.1602 18.18 47.1845 18.1797C47.2087 18.1794 47.2327 18.1839 47.2549 18.193C47.2771 18.2021 47.2972 18.2155 47.3139 18.2325C47.3305 18.2495 47.3435 18.2696 47.3519 18.2918L47.9305 19.6976C47.9646 19.789 47.9381 19.8518 47.8511 19.8861C45.015 21.0557 42.1921 21.0538 39.3824 19.8804C39.2917 19.8461 39.2671 19.7833 39.3087 19.6918L39.9383 18.2747C39.9471 18.2551 39.9599 18.2375 39.976 18.2231C39.992 18.2087 40.0109 18.1976 40.0316 18.1907C40.0522 18.1838 40.0742 18.1811 40.0962 18.1827C40.1182 18.1844 40.1397 18.1904 40.1595 18.2004C42.3982 19.2976 44.7162 19.2957 47.1137 18.1947Z" fill="#F25A41"/>
  <path d="M97.3876 34.3493C98.437 35.2578 100.326 35.5435 100.853 33.9035C101.404 32.2121 99.2992 31.6807 98.1761 31.1435C95.1017 29.675 98.1931 25.5835 101.233 27.6121C101.332 27.6769 101.396 27.7664 101.426 27.8807C101.449 27.9645 101.441 28.0464 101.404 28.1264C101.339 28.2635 101.239 28.3035 101.103 28.2464C100.479 27.9835 99.7076 27.595 99.0326 27.7835C98.1742 28.0197 97.7336 28.5721 97.7109 29.4407C97.7041 29.6879 97.7752 29.9308 97.9139 30.1342C98.0526 30.3376 98.2516 30.491 98.4824 30.5721C99.3937 30.8921 100.207 31.2883 100.921 31.7607C101.84 32.3664 101.948 33.795 101.307 34.6407C100.502 35.7073 99.2992 35.955 97.6996 35.3835C97.2685 35.2273 97.0473 34.9397 97.0359 34.5207C97.0284 34.2007 97.1456 34.1435 97.3876 34.3493Z" fill="#FAFAFA"/>
  <path d="M126.656 30.08C126.94 29.9962 127.21 30.0152 127.467 30.1371C127.717 30.2552 127.713 30.3676 127.456 30.4743C127.222 30.5733 126.98 30.5943 126.73 30.5371C126.461 30.4762 126.327 30.5829 126.327 30.8571L126.31 35.4743C126.31 35.6686 126.218 35.7333 126.032 35.6686L125.845 35.6057C125.788 35.5867 125.76 35.5486 125.76 35.4914L125.737 30.9943C125.737 30.8114 125.656 30.6762 125.493 30.5886L125.232 30.4514C125.197 30.4338 125.169 30.4057 125.15 30.3709C125.132 30.336 125.125 30.2961 125.129 30.2565C125.134 30.2168 125.151 30.1792 125.178 30.1487C125.204 30.1182 125.239 30.0962 125.278 30.0857C125.41 30.0552 125.52 29.9924 125.607 29.8971C125.724 29.7714 125.775 29.621 125.76 29.4457C125.635 27.9905 126.295 27.1695 127.74 26.9829C127.825 26.9726 127.911 26.9954 127.98 27.0465C128.048 27.0976 128.094 27.173 128.108 27.2571L128.137 27.4171C128.178 27.6648 128.074 27.7752 127.825 27.7486C126.486 27.6 126.168 28.8057 126.339 29.8743C126.369 30.0648 126.475 30.1333 126.656 30.08Z" fill="#FAFAFA"/>
  <path d="M145.255 30.0687C145.588 30.0382 145.906 30.0725 146.208 30.1715C146.522 30.2744 146.518 30.3658 146.197 30.4458C145.838 30.5334 145.482 30.5715 145.131 30.5601C144.919 30.5525 144.813 30.6553 144.813 30.8687L144.802 35.5315C144.802 35.5811 144.777 35.6058 144.728 35.6058H144.512C144.365 35.6096 144.291 35.5372 144.291 35.3887L144.28 31.0915C144.28 31.0074 144.259 30.9245 144.218 30.8505C144.177 30.7766 144.119 30.714 144.047 30.6687L143.798 30.5144C143.767 30.4967 143.742 30.4716 143.724 30.4415C143.706 30.4113 143.695 30.3771 143.694 30.3419C143.692 30.3067 143.699 30.2716 143.714 30.2399C143.729 30.2081 143.752 30.1807 143.781 30.1601C144.785 29.4344 143.837 28.0687 145.295 27.2458C145.465 27.1506 145.647 27.0915 145.84 27.0687C146.52 26.9887 146.81 27.1392 146.707 27.5201C146.697 27.5609 146.674 27.5971 146.641 27.623C146.608 27.6489 146.568 27.6629 146.526 27.663C145.278 27.6553 144.709 28.3353 144.819 29.703C144.841 29.9734 144.987 30.0953 145.255 30.0687Z" fill="#FAFAFA"/>
  <path d="M103.043 27.3771C103.055 27.3224 103.083 27.2727 103.124 27.2344C103.165 27.1962 103.216 27.1711 103.271 27.1625C103.326 27.1539 103.382 27.1621 103.433 27.1861C103.483 27.2101 103.525 27.2488 103.553 27.2971C103.716 27.5676 103.718 27.8533 103.559 28.1542C103.537 28.1957 103.503 28.2301 103.463 28.2535C103.422 28.2769 103.376 28.2883 103.329 28.2865C103.283 28.2848 103.237 28.2698 103.199 28.2434C103.16 28.217 103.13 28.1801 103.111 28.1371C103.009 27.8971 102.986 27.6437 103.043 27.3771Z" fill="#FAFAFA"/>
  <path d="M121.354 27.1315L121.332 27.1314C121.147 27.1311 120.997 27.2818 120.996 27.468L120.983 35.2966C120.983 35.4828 121.132 35.634 121.317 35.6343L121.34 35.6343C121.525 35.6347 121.675 35.484 121.675 35.2978L121.689 27.4692C121.689 27.283 121.539 27.1318 121.354 27.1315Z" fill="#FAFAFA"/>
  <path d="M123.349 27.7169C123.34 28.0639 123.482 28.3495 123.666 28.3547C123.851 28.3599 124.009 28.0828 124.018 27.7357C124.028 27.3887 123.886 27.1032 123.701 27.098C123.516 27.0928 123.359 27.3699 123.349 27.7169Z" fill="#FAFAFA"/>
  <path d="M137.819 35.0635H140.712C140.739 35.0637 140.765 35.0728 140.787 35.0892C140.808 35.1057 140.824 35.1288 140.831 35.155L140.905 35.4178C140.91 35.4364 140.911 35.456 140.908 35.4751C140.904 35.4941 140.896 35.5121 140.885 35.5275C140.873 35.543 140.858 35.5556 140.841 35.5643C140.824 35.5731 140.805 35.5777 140.786 35.5778L137.099 35.5835C137.066 35.5835 137.034 35.5703 137.011 35.5467C136.987 35.5231 136.974 35.4912 136.974 35.4578L136.98 27.2864C136.98 27.2689 136.983 27.2515 136.99 27.2355C136.997 27.2194 137.007 27.205 137.02 27.1932C137.033 27.1814 137.048 27.1724 137.065 27.1668C137.081 27.1612 137.099 27.1591 137.116 27.1607L137.564 27.195C137.595 27.1978 137.624 27.2123 137.645 27.2356C137.666 27.2589 137.678 27.2892 137.677 27.3207L137.695 34.9378C137.695 34.9712 137.708 35.0031 137.731 35.0267C137.754 35.0503 137.786 35.0635 137.819 35.0635Z" fill="#FAFAFA"/>
  <path d="M141.716 27.6286C141.716 27.4496 141.783 27.3124 141.915 27.2172C142.149 27.0458 142.308 27.0991 142.391 27.3772C142.471 27.6591 142.441 27.922 142.301 28.1658C142.176 28.3829 142.038 28.3905 141.887 28.1886C141.766 28.0286 141.709 27.842 141.716 27.6286Z" fill="#FAFAFA"/>
  <path d="M106.032 30.6058C107.041 29.8287 108.408 29.6001 109.112 30.8344C109.221 31.0325 109.361 31.0572 109.531 30.9087L110.258 30.2915C110.405 30.1658 110.573 30.0839 110.762 30.0458C113.78 29.4344 113.377 33.583 113.139 35.5258C113.131 35.5792 113.099 35.6115 113.043 35.623L112.872 35.6458C112.827 35.6537 112.78 35.6511 112.735 35.638C112.691 35.625 112.65 35.6019 112.615 35.5705C112.581 35.5391 112.554 35.5003 112.536 35.4569C112.519 35.4135 112.512 35.3668 112.515 35.3201C112.579 34.0249 112.547 32.8115 112.419 31.6801C112.335 30.9296 111.919 30.5353 111.171 30.4972C111.038 30.4934 110.912 30.5201 110.791 30.5772C109.876 31.0153 109.431 31.722 109.458 32.6972C109.48 33.5658 109.482 34.4477 109.463 35.343C109.46 35.4953 109.384 35.5696 109.237 35.5658L109.078 35.5544C109.021 35.5529 108.967 35.5289 108.927 35.4875C108.887 35.446 108.864 35.3902 108.862 35.3315L108.834 31.9487C108.83 31.1753 108.452 30.7087 107.699 30.5487C107.484 30.503 107.28 30.5201 107.087 30.6001C106.259 30.9582 105.841 31.5925 105.833 32.503L105.805 35.4801C105.805 35.5487 105.771 35.5887 105.703 35.6001L105.504 35.6401C105.326 35.6782 105.238 35.6058 105.238 35.423L105.243 30.4744C105.243 30.2001 105.372 30.1106 105.629 30.2058C105.78 30.263 105.843 30.3506 105.816 30.4687C105.759 30.7163 105.831 30.762 106.032 30.6058Z" fill="#FAFAFA"/>
  <path d="M115.442 35.8291L115.414 38.3549C115.414 38.4272 115.378 38.4634 115.306 38.4634L115.136 38.4691C114.917 38.4729 114.807 38.3663 114.807 38.1491V30.5034C114.807 30.2863 114.915 30.1682 115.13 30.1491C115.811 30.0958 116.492 30.0501 117.172 30.012C119.555 29.8691 120.179 32.7263 119.237 34.452C118.5 35.7891 117.195 35.812 115.862 35.4977C115.582 35.4329 115.442 35.5434 115.442 35.8291ZM115.414 31.2977L115.425 34.3834C115.426 34.481 115.446 34.5774 115.483 34.6673C115.521 34.7571 115.576 34.8386 115.645 34.907C115.714 34.9755 115.796 35.0296 115.886 35.0662C115.975 35.1029 116.071 35.1213 116.168 35.1206L116.968 35.1149C117.511 35.1118 118.031 34.8969 118.413 34.5176C118.794 34.1382 119.007 33.6254 119.004 33.092V32.5434C119.003 32.2793 118.949 32.018 118.844 31.7745C118.74 31.531 118.588 31.3101 118.397 31.1244C118.205 30.9387 117.979 30.7918 117.73 30.6921C117.481 30.5924 117.214 30.5419 116.945 30.5434L116.146 30.5491C116.049 30.5499 115.953 30.5698 115.864 30.6079C115.775 30.6459 115.694 30.7012 115.626 30.7707C115.558 30.8403 115.504 30.9226 115.468 31.013C115.431 31.1034 115.413 31.2002 115.414 31.2977Z" fill="#FAFAFA"/>
  <path d="M132.714 30.0459L132.958 30.2288C132.981 30.2449 132.997 30.2687 133.005 30.2958C133.012 30.323 133.01 30.3518 132.998 30.3774L129.22 38.4002C129.208 38.4273 129.186 38.4487 129.158 38.4603C129.131 38.472 129.101 38.4729 129.073 38.4631L128.761 38.3316C128.746 38.3254 128.733 38.3163 128.722 38.3049C128.71 38.2934 128.702 38.2798 128.696 38.2649C128.69 38.25 128.687 38.2341 128.688 38.218C128.688 38.202 128.692 38.1863 128.698 38.1716L130.394 34.5602C130.401 34.5437 130.404 34.5259 130.403 34.5081C130.402 34.4904 130.397 34.473 130.389 34.4574L128.335 30.2802C128.327 30.2636 128.323 30.2452 128.323 30.2267C128.323 30.2081 128.327 30.1898 128.335 30.1731C128.344 30.1565 128.356 30.1421 128.37 30.1309C128.385 30.1197 128.402 30.1122 128.42 30.1088L128.761 30.0516C128.785 30.0476 128.811 30.0515 128.833 30.0627C128.856 30.074 128.874 30.0921 128.885 30.1145L130.593 33.5716C130.602 33.5922 130.618 33.6097 130.637 33.6219C130.656 33.6341 130.678 33.6405 130.701 33.6405C130.723 33.6405 130.745 33.6341 130.764 33.6219C130.783 33.6097 130.799 33.5922 130.808 33.5716L132.538 30.0859C132.546 30.0707 132.558 30.0575 132.571 30.047C132.585 30.0366 132.601 30.0292 132.617 30.0254C132.634 30.0216 132.651 30.0215 132.668 30.025C132.685 30.0286 132.7 30.0357 132.714 30.0459Z" fill="#FAFAFA"/>
  <path d="M147.672 32.4749C147.61 32.4731 147.548 32.4859 147.492 32.5122C147.435 32.5385 147.385 32.5777 147.346 32.6268C147.306 32.6758 147.279 32.7335 147.264 32.7953C147.25 32.8571 147.25 32.9214 147.264 32.9834C147.699 34.8425 148.816 35.4882 150.616 34.9206C150.858 34.8444 151.066 34.7168 151.24 34.5377C151.357 34.4158 151.456 34.4291 151.535 34.5777L151.631 34.7434C151.653 34.784 151.658 34.8312 151.647 34.8757C151.635 34.9202 151.607 34.9587 151.569 34.9834C150.174 35.871 148.926 35.9396 147.825 35.1891C145.97 33.9206 146.277 30.2063 148.829 30.0006C150.3 29.8787 151.232 30.5396 151.626 31.9834C151.644 32.0513 151.647 32.1226 151.633 32.1917C151.62 32.2608 151.59 32.3257 151.547 32.3812C151.504 32.4367 151.449 32.4813 151.386 32.5115C151.322 32.5417 151.253 32.5565 151.183 32.5549L147.672 32.4749ZM147.649 31.9834L150.718 32.0406C150.73 32.0413 150.741 32.0397 150.752 32.0358C150.763 32.0318 150.773 32.0256 150.782 32.0176C150.791 32.0095 150.797 31.9998 150.802 31.989C150.807 31.9782 150.809 31.9666 150.809 31.9549V31.9091C150.812 31.7342 150.776 31.5602 150.702 31.3971C150.628 31.234 150.518 31.0851 150.379 30.9588C150.239 30.8324 150.072 30.7312 149.888 30.661C149.704 30.5907 149.506 30.5527 149.306 30.5491H149.113C148.71 30.5419 148.32 30.6742 148.03 30.9173C147.74 31.1604 147.572 31.4944 147.564 31.8463V31.892C147.564 31.9037 147.565 31.9155 147.569 31.9266C147.573 31.9376 147.579 31.9478 147.587 31.9563C147.595 31.9649 147.605 31.9717 147.616 31.9764C147.626 31.9811 147.638 31.9835 147.649 31.9834Z" fill="#FAFAFA"/>
  <path d="M103.384 30.1204L103.282 30.1206C103.132 30.1209 103.01 30.2439 103.01 30.3954L103.019 35.2982C103.019 35.4497 103.141 35.5723 103.291 35.572L103.394 35.5719C103.544 35.5716 103.666 35.4486 103.665 35.2971L103.657 30.3942C103.657 30.2428 103.535 30.1202 103.384 30.1204Z" fill="#FAFAFA"/>
  <path d="M123.701 30.0742H123.678C123.506 30.0742 123.366 30.2149 123.366 30.3885V35.3256C123.366 35.4992 123.506 35.6399 123.678 35.6399H123.701C123.873 35.6399 124.013 35.4992 124.013 35.3256V30.3885C124.013 30.2149 123.873 30.0742 123.701 30.0742Z" fill="#FAFAFA"/>
  <path d="M142.177 30.0971L141.973 30.0979C141.851 30.0983 141.752 30.1984 141.752 30.3215L141.77 35.3615C141.77 35.4845 141.87 35.584 141.992 35.5835L142.196 35.5828C142.318 35.5824 142.417 35.4823 142.417 35.3592L142.399 30.3192C142.399 30.1961 142.299 30.0967 142.177 30.0971Z" fill="#FAFAFA"/>
</svg>