<svg width="200" height="277" viewBox="0 0 200 277" fill="none" xmlns="http://www.w3.org/2000/svg">
<g clip-path="url(#clip0_614_388)">
<rect width="200" height="277" fill="url(#paint0_radial_614_388)"/>
<path d="M199 149H0V223L199 180V149Z" fill="#A8BCEF"/>
<path d="M31 314H230V240L31 283V314Z" fill="#497CE9"/>
<circle cx="11.5" cy="9.5" r="1.5" fill="#92AAD7"/>
<circle cx="18.5" cy="9.5" r="1.5" fill="#92AAD7"/>
<circle cx="25.5" cy="9.5" r="1.5" fill="#92AAD7"/>
<circle cx="32.5" cy="9.5" r="1.5" fill="#92AAD7"/>
<circle cx="172.5" cy="246.5" r="1.5" fill="#92AAD7"/>
<circle cx="179.5" cy="246.5" r="1.5" fill="#92AAD7"/>
<circle cx="186.5" cy="246.5" r="1.5" fill="#92AAD7"/>
<circle cx="193.5" cy="246.5" r="1.5" fill="#92AAD7"/>
<circle cx="11.5" cy="16.5" r="1.5" fill="#92AAD7"/>
<circle cx="18.5" cy="16.5" r="1.5" fill="#92AAD7"/>
<circle cx="25.5" cy="16.5" r="1.5" fill="#92AAD7"/>
<circle cx="32.5" cy="16.5" r="1.5" fill="#92AAD7"/>
<circle cx="172.5" cy="253.5" r="1.5" fill="#92AAD7"/>
<circle cx="179.5" cy="253.5" r="1.5" fill="#92AAD7"/>
<circle cx="186.5" cy="253.5" r="1.5" fill="#92AAD7"/>
<circle cx="193.5" cy="253.5" r="1.5" fill="#92AAD7"/>
<circle cx="11.5" cy="23.5" r="1.5" fill="#92AAD7"/>
<circle cx="18.5" cy="23.5" r="1.5" fill="#92AAD7"/>
<circle cx="25.5" cy="23.5" r="1.5" fill="#92AAD7"/>
<circle cx="32.5" cy="23.5" r="1.5" fill="#92AAD7"/>
<circle cx="172.5" cy="260.5" r="1.5" fill="#92AAD7"/>
<circle cx="179.5" cy="260.5" r="1.5" fill="#92AAD7"/>
<circle cx="186.5" cy="260.5" r="1.5" fill="#92AAD7"/>
<circle cx="193.5" cy="260.5" r="1.5" fill="#92AAD7"/>
<g filter="url(#filter0_d_614_388)">
<path d="M183.583 160.036L180.581 146.24C179.522 141.044 175.107 137.281 169.986 136.922L144.734 134.593L125.309 115.242C120.011 109.867 112.947 107 105.53 107H94.5818C75.8632 107 57.6744 113.45 42.8408 125.097L41.4281 125.993C36.8367 129.576 32.0688 132.981 27.1242 136.027L18.4713 141.402C16.882 142.298 15.999 144.09 15.999 145.702V163.082C15.999 165.949 18.2947 168.099 20.9436 168.099H32.0688C32.0688 157.707 40.3685 149.286 50.6108 149.286C60.853 149.286 69.1528 157.707 69.1528 168.099H130.077C130.253 157.707 138.729 149.286 148.972 149.286C159.214 149.286 167.69 157.707 167.69 168.099H177.226C181.464 168.099 184.466 164.157 183.583 160.036ZM79.7482 133.339H51.6703C59.9701 127.068 69.6825 122.768 79.7482 120.617V133.339ZM91.7564 133.339V119.184C92.6393 119.184 93.5223 119.005 94.5818 119.005H105.707C109.945 119.005 114.007 120.617 117.185 123.663L126.721 133.339H91.7564Z" fill="#636AF7"/>
</g>
<path d="M50.7873 181C57.8093 181 63.5018 175.224 63.5018 168.099C63.5018 160.975 57.8093 155.199 50.7873 155.199C43.7652 155.199 38.0728 160.975 38.0728 168.099C38.0728 175.224 43.7652 181 50.7873 181Z" fill="#000335"/>
<path d="M148.971 181C155.993 181 161.686 175.224 161.686 168.099C161.686 160.975 155.993 155.199 148.971 155.199C141.949 155.199 136.257 160.975 136.257 168.099C136.257 175.224 141.949 181 148.971 181Z" fill="#000335"/>
<path d="M22.5256 74H18.571L24.5966 56.5455H29.3523L35.3693 74H31.4148L27.0426 60.5341H26.9062L22.5256 74ZM22.2784 67.1392H31.6193V70.0199H22.2784V67.1392ZM48.2514 56.5455H51.9418V67.8807C51.9418 69.1534 51.6378 70.267 51.0298 71.2216C50.4276 72.1761 49.5838 72.9205 48.4986 73.4545C47.4134 73.983 46.1491 74.2472 44.706 74.2472C43.2571 74.2472 41.9901 73.983 40.9048 73.4545C39.8196 72.9205 38.9759 72.1761 38.3736 71.2216C37.7713 70.267 37.4702 69.1534 37.4702 67.8807V56.5455H41.1605V67.5653C41.1605 68.2301 41.3054 68.821 41.5952 69.3381C41.8906 69.8551 42.3054 70.2614 42.8395 70.5568C43.3736 70.8523 43.9957 71 44.706 71C45.4219 71 46.044 70.8523 46.5724 70.5568C47.1065 70.2614 47.5185 69.8551 47.8082 69.3381C48.1037 68.821 48.2514 68.2301 48.2514 67.5653V56.5455ZM54.3132 59.5881V56.5455H68.6484V59.5881H63.3047V74H59.657V59.5881H54.3132ZM86.2521 65.2727C86.2521 67.1761 85.8913 68.7955 85.1697 70.1307C84.4538 71.4659 83.4766 72.4858 82.2379 73.1903C81.005 73.8892 79.6186 74.2386 78.0788 74.2386C76.5277 74.2386 75.1357 73.8864 73.9027 73.1818C72.6697 72.4773 71.6953 71.4574 70.9794 70.1222C70.2635 68.7869 69.9055 67.1705 69.9055 65.2727C69.9055 63.3693 70.2635 61.75 70.9794 60.4148C71.6953 59.0795 72.6697 58.0625 73.9027 57.3636C75.1357 56.6591 76.5277 56.3068 78.0788 56.3068C79.6186 56.3068 81.005 56.6591 82.2379 57.3636C83.4766 58.0625 84.4538 59.0795 85.1697 60.4148C85.8913 61.75 86.2521 63.3693 86.2521 65.2727ZM82.5107 65.2727C82.5107 64.0398 82.326 63 81.9567 62.1534C81.593 61.3068 81.0788 60.6648 80.4141 60.2273C79.7493 59.7898 78.9709 59.571 78.0788 59.571C77.1868 59.571 76.4084 59.7898 75.7436 60.2273C75.0788 60.6648 74.5618 61.3068 74.1925 62.1534C73.8288 63 73.647 64.0398 73.647 65.2727C73.647 66.5057 73.8288 67.5455 74.1925 68.392C74.5618 69.2386 75.0788 69.8807 75.7436 70.3182C76.4084 70.7557 77.1868 70.9744 78.0788 70.9744C78.9709 70.9744 79.7493 70.7557 80.4141 70.3182C81.0788 69.8807 81.593 69.2386 81.9567 68.392C82.326 67.5455 82.5107 66.5057 82.5107 65.2727ZM88.9858 56.5455H93.5369L98.3438 68.2727H98.5483L103.355 56.5455H107.906V74H104.327V62.6392H104.182L99.6648 73.9148H97.2273L92.7102 62.5966H92.5653V74H88.9858V56.5455ZM126.987 65.2727C126.987 67.1761 126.626 68.7955 125.904 70.1307C125.188 71.4659 124.211 72.4858 122.972 73.1903C121.739 73.8892 120.353 74.2386 118.813 74.2386C117.262 74.2386 115.87 73.8864 114.637 73.1818C113.404 72.4773 112.43 71.4574 111.714 70.1222C110.998 68.7869 110.64 67.1705 110.64 65.2727C110.64 63.3693 110.998 61.75 111.714 60.4148C112.43 59.0795 113.404 58.0625 114.637 57.3636C115.87 56.6591 117.262 56.3068 118.813 56.3068C120.353 56.3068 121.739 56.6591 122.972 57.3636C124.211 58.0625 125.188 59.0795 125.904 60.4148C126.626 61.75 126.987 63.3693 126.987 65.2727ZM123.245 65.2727C123.245 64.0398 123.06 63 122.691 62.1534C122.327 61.3068 121.813 60.6648 121.148 60.2273C120.484 59.7898 119.705 59.571 118.813 59.571C117.921 59.571 117.143 59.7898 116.478 60.2273C115.813 60.6648 115.296 61.3068 114.927 62.1534C114.563 63 114.381 64.0398 114.381 65.2727C114.381 66.5057 114.563 67.5455 114.927 68.392C115.296 69.2386 115.813 69.8807 116.478 70.3182C117.143 70.7557 117.921 70.9744 118.813 70.9744C119.705 70.9744 120.484 70.7557 121.148 70.3182C121.813 69.8807 122.327 69.2386 122.691 68.392C123.06 67.5455 123.245 66.5057 123.245 65.2727ZM128.259 59.5881V56.5455H142.594V59.5881H137.25V74H133.602V59.5881H128.259ZM148.645 56.5455V74H144.955V56.5455H148.645ZM154.835 56.5455L159.053 69.8068H159.215L163.442 56.5455H167.533L161.516 74H156.761L150.735 56.5455H154.835ZM169.634 74V56.5455H181.396V59.5881H173.325V63.7472H180.79V66.7898H173.325V70.9574H181.43V74H169.634Z" fill="#F1F0F3"/>
<ellipse cx="100" cy="183.5" rx="63" ry="1.5" fill="#000C2C"/>
</g>
<defs>
<filter id="filter0_d_614_388" x="11.999" y="107" width="175.739" height="69.0991" filterUnits="userSpaceOnUse" color-interpolation-filters="sRGB">
<feFlood flood-opacity="0" result="BackgroundImageFix"/>
<feColorMatrix in="SourceAlpha" type="matrix" values="0 0 0 0 0 0 0 0 0 0 0 0 0 0 0 0 0 0 127 0" result="hardAlpha"/>
<feOffset dy="4"/>
<feGaussianBlur stdDeviation="2"/>
<feComposite in2="hardAlpha" operator="out"/>
<feColorMatrix type="matrix" values="0 0 0 0 0 0 0 0 0 0 0 0 0 0 0 0 0 0 0.29 0"/>
<feBlend mode="normal" in2="BackgroundImageFix" result="effect1_dropShadow_614_388"/>
<feBlend mode="normal" in="SourceGraphic" in2="effect1_dropShadow_614_388" result="shape"/>
</filter>
<radialGradient id="paint0_radial_614_388" cx="0" cy="0" r="1" gradientUnits="userSpaceOnUse" gradientTransform="translate(441 26) rotate(143.644) scale(423.417 305.716)">
<stop stop-color="#405A9C"/>
<stop offset="1" stop-color="#161F36"/>
</radialGradient>
<clipPath id="clip0_614_388">
<rect width="200" height="277" fill="white"/>
</clipPath>
</defs>
</svg>
