<svg width="200" height="277" viewBox="0 0 200 277" fill="none" xmlns="http://www.w3.org/2000/svg">
<g clip-path="url(#clip0_614_504)">
<rect width="200" height="277" fill="#161F36"/>
<rect width="200" height="277" fill="url(#paint0_radial_614_504)"/>
<path d="M199 149H0V223L199 180V149Z" fill="#A8BCEF"/>
<path d="M31 314H230V240L31 283V314Z" fill="#497CE9"/>
<circle cx="11.5" cy="9.5" r="1.5" fill="#92AAD7"/>
<circle cx="18.5" cy="9.5" r="1.5" fill="#92AAD7"/>
<circle cx="25.5" cy="9.5" r="1.5" fill="#92AAD7"/>
<circle cx="32.5" cy="9.5" r="1.5" fill="#92AAD7"/>
<circle cx="172.5" cy="246.5" r="1.5" fill="#92AAD7"/>
<circle cx="179.5" cy="246.5" r="1.5" fill="#92AAD7"/>
<circle cx="186.5" cy="246.5" r="1.5" fill="#92AAD7"/>
<circle cx="193.5" cy="246.5" r="1.5" fill="#92AAD7"/>
<circle cx="11.5" cy="16.5" r="1.5" fill="#92AAD7"/>
<circle cx="18.5" cy="16.5" r="1.5" fill="#92AAD7"/>
<circle cx="25.5" cy="16.5" r="1.5" fill="#92AAD7"/>
<circle cx="32.5" cy="16.5" r="1.5" fill="#92AAD7"/>
<circle cx="172.5" cy="253.5" r="1.5" fill="#92AAD7"/>
<circle cx="179.5" cy="253.5" r="1.5" fill="#92AAD7"/>
<circle cx="186.5" cy="253.5" r="1.5" fill="#92AAD7"/>
<circle cx="193.5" cy="253.5" r="1.5" fill="#92AAD7"/>
<circle cx="11.5" cy="23.5" r="1.5" fill="#92AAD7"/>
<circle cx="18.5" cy="23.5" r="1.5" fill="#92AAD7"/>
<circle cx="25.5" cy="23.5" r="1.5" fill="#92AAD7"/>
<circle cx="32.5" cy="23.5" r="1.5" fill="#92AAD7"/>
<circle cx="172.5" cy="260.5" r="1.5" fill="#92AAD7"/>
<circle cx="179.5" cy="260.5" r="1.5" fill="#92AAD7"/>
<circle cx="186.5" cy="260.5" r="1.5" fill="#92AAD7"/>
<circle cx="193.5" cy="260.5" r="1.5" fill="#92AAD7"/>
<g filter="url(#filter0_d_614_504)">
<path d="M131.862 142.159C130.799 154.362 120.554 163.928 108.076 163.928C95.6051 163.928 85.3605 154.361 84.2971 142.159H67.2524C67.4524 144.33 68.1569 145.986 71.4901 146.672C77.0507 147.807 80.9547 156.965 78.175 161.475C76.4654 164.255 76.1383 166.356 78.6968 168.811C81.2076 171.22 83.3834 173.385 86.9351 170.458C87.9389 169.631 89.4816 169.464 90.3199 169.156C94.6715 169.185 101.134 173.137 101.878 176.157C102.613 179.188 103.775 181.14 107.42 180.992C110.814 180.844 113.509 181.011 114.551 176.501C115.862 170.884 124.724 167.24 129.411 170.058C132.544 171.943 134.702 171.506 137.109 168.95C139.342 166.571 140.448 164.738 138.327 161.381C135.137 156.324 138.364 148.178 144.12 146.746C147.232 145.965 148.459 144.563 148.859 142.159H131.862Z" fill="#636AF7"/>
<path d="M152.109 137.579V139.323H64V137.579C64 137.444 64.0079 137.309 64.0212 137.177C64.2238 134.926 66.1149 133.164 68.4191 133.164H68.6164C68.9713 132.313 69.1792 131.355 69.3011 130.251C70.1486 122.524 72.9931 115.776 77.6638 110.029C77.6638 110.029 77.6718 110.018 77.6903 109.998C78.0121 109.633 81.2486 106.011 85.9339 102.561C85.9365 102.558 85.9418 102.556 85.9471 102.553C86.1339 102.415 86.3259 102.282 86.5153 102.144L86.5205 102.152C87.2714 104.145 90.3225 114.608 92.346 121.755L92.4268 121.999C93.3339 124.331 96.2698 128.36 101.546 128.666L114.497 128.669L114.575 128.666C119.851 128.36 122.787 124.331 123.694 121.999L123.775 121.755C125.798 114.608 128.848 104.145 129.6 102.152L129.619 102.128C130.264 102.586 130.886 103.054 131.477 103.517C134.068 105.546 136.113 107.528 137.308 108.763C138.069 109.548 138.489 110.03 138.489 110.03L138.435 110.092C142.954 115.669 145.758 122.212 146.69 129.709C146.858 131.054 147.154 132.189 147.685 133.165H147.698C149.294 133.165 150.691 134.01 151.465 135.277C151.871 135.946 152.109 136.736 152.109 137.579Z" fill="#636AF7"/>
<path d="M94.6367 103.766C95.961 108.289 97.2614 114.419 97.5289 115.352C97.7699 115.876 99.032 118.283 101.784 118.48H114.326C117.078 118.283 118.34 115.876 118.581 115.352C118.848 114.42 120.149 108.289 121.473 103.766C122.098 101.625 122.641 99.7989 123.095 98.3064C122.623 98.0919 122.143 97.8893 121.66 97.6999C121.129 97.3635 120.455 97.1119 119.62 96.9437C119.585 96.9358 119.545 96.9278 119.509 96.9199C119.165 96.8166 118.789 96.7279 118.388 96.6577C118.235 96.6286 118.082 96.6007 117.929 96.5743C116.155 96.1055 114.62 95.25 114.587 92.5935C114.579 92.0876 113.12 91.2308 112.288 91.1739C112.047 91.1553 111.806 91.1408 111.562 91.1275C111.489 91.1116 111.417 91.1037 111.348 91.0984C108.624 90.9196 105.864 90.9978 103.141 91.2255C102.31 91.2957 100.861 92.1764 100.861 92.6822C100.866 95.5122 99.1379 96.3226 97.223 96.802C97.2177 96.8047 97.2098 96.8047 97.2045 96.8047C97.1753 96.8126 97.1475 96.8153 97.1184 96.8232C96.8443 96.8749 96.5821 96.9345 96.3331 97.0046C96.3305 97.0046 96.3278 97.0073 96.3252 97.0073C96.1795 97.0378 96.0351 97.0669 95.8895 97.1C94.9307 97.3079 94.1891 97.6204 93.6329 98.0455H93.6303C93.425 98.1329 93.2224 98.2283 93.0198 98.321C93.4714 99.8121 94.013 101.634 94.6367 103.766Z" fill="#636AF7"/>
</g>
<ellipse cx="107" cy="183.5" rx="48" ry="1.5" fill="#000C2C"/>
<path d="M39.9176 62.6562H36.1847C36.1165 62.1733 35.9773 61.7443 35.767 61.3693C35.5568 60.9886 35.2869 60.6648 34.9574 60.3977C34.6278 60.1307 34.2472 59.9261 33.8153 59.7841C33.3892 59.642 32.9261 59.571 32.4261 59.571C31.5227 59.571 30.7358 59.7955 30.0653 60.2443C29.3949 60.6875 28.875 61.3352 28.5057 62.1875C28.1364 63.0341 27.9517 64.0625 27.9517 65.2727C27.9517 66.517 28.1364 67.5625 28.5057 68.4091C28.8807 69.2557 29.4034 69.8949 30.0739 70.3267C30.7443 70.7585 31.5199 70.9744 32.4006 70.9744C32.8949 70.9744 33.3523 70.9091 33.7727 70.7784C34.1989 70.6477 34.5767 70.4574 34.9062 70.2074C35.2358 69.9517 35.5085 69.642 35.7244 69.2784C35.946 68.9148 36.0994 68.5 36.1847 68.0341L39.9176 68.0511C39.821 68.8523 39.5795 69.625 39.1932 70.3693C38.8125 71.108 38.2983 71.7699 37.6506 72.3551C37.0085 72.9347 36.2415 73.3949 35.3494 73.7358C34.4631 74.071 33.4602 74.2386 32.3409 74.2386C30.7841 74.2386 29.392 73.8864 28.1648 73.1818C26.9432 72.4773 25.9773 71.4574 25.267 70.1222C24.5625 68.7869 24.2102 67.1705 24.2102 65.2727C24.2102 63.3693 24.5682 61.75 25.2841 60.4148C26 59.0795 26.9716 58.0625 28.1989 57.3636C29.4261 56.6591 30.8068 56.3068 32.3409 56.3068C33.3523 56.3068 34.2898 56.4489 35.1534 56.733C36.0227 57.017 36.7926 57.4318 37.4631 57.9773C38.1335 58.517 38.679 59.179 39.0994 59.9631C39.5256 60.7472 39.7983 61.6449 39.9176 62.6562ZM48.4105 74.2557C47.0866 74.2557 45.9418 73.9744 44.9759 73.4119C44.0156 72.8437 43.2741 72.054 42.7514 71.0426C42.2287 70.0256 41.9673 68.8466 41.9673 67.5057C41.9673 66.1534 42.2287 64.9716 42.7514 63.9602C43.2741 62.9432 44.0156 62.1534 44.9759 61.5909C45.9418 61.0227 47.0866 60.7386 48.4105 60.7386C49.7344 60.7386 50.8764 61.0227 51.8366 61.5909C52.8026 62.1534 53.5469 62.9432 54.0696 63.9602C54.5923 64.9716 54.8537 66.1534 54.8537 67.5057C54.8537 68.8466 54.5923 70.0256 54.0696 71.0426C53.5469 72.054 52.8026 72.8437 51.8366 73.4119C50.8764 73.9744 49.7344 74.2557 48.4105 74.2557ZM48.4276 71.4432C49.0298 71.4432 49.5327 71.2727 49.9361 70.9318C50.3395 70.5852 50.6435 70.1136 50.848 69.517C51.0582 68.9205 51.1634 68.2415 51.1634 67.4801C51.1634 66.7188 51.0582 66.0398 50.848 65.4432C50.6435 64.8466 50.3395 64.375 49.9361 64.0284C49.5327 63.6818 49.0298 63.5085 48.4276 63.5085C47.8196 63.5085 47.3082 63.6818 46.8935 64.0284C46.4844 64.375 46.1747 64.8466 45.9645 65.4432C45.7599 66.0398 45.6577 66.7188 45.6577 67.4801C45.6577 68.2415 45.7599 68.9205 45.9645 69.517C46.1747 70.1136 46.4844 70.5852 46.8935 70.9318C47.3082 71.2727 47.8196 71.4432 48.4276 71.4432ZM60.8452 66.4318V74H57.2145V60.9091H60.6747V63.2188H60.8281C61.1179 62.4574 61.6037 61.8551 62.2855 61.4119C62.9673 60.9631 63.794 60.7386 64.7656 60.7386C65.6747 60.7386 66.4673 60.9375 67.1435 61.3352C67.8196 61.733 68.3452 62.3011 68.7202 63.0398C69.0952 63.7727 69.2827 64.6477 69.2827 65.6648V74H65.652V66.3125C65.6577 65.5114 65.4531 64.8864 65.0384 64.4375C64.6236 63.983 64.0526 63.7557 63.3253 63.7557C62.8366 63.7557 62.4048 63.8608 62.0298 64.071C61.6605 64.2812 61.3707 64.5881 61.1605 64.9915C60.956 65.3892 60.8509 65.8693 60.8452 66.4318ZM83.0362 64.642L79.7124 64.8466C79.6555 64.5625 79.5334 64.3068 79.3459 64.0795C79.1584 63.8466 78.9112 63.6619 78.6044 63.5256C78.3033 63.3835 77.9425 63.3125 77.522 63.3125C76.9595 63.3125 76.4851 63.4318 76.0987 63.6705C75.7124 63.9034 75.5192 64.2159 75.5192 64.608C75.5192 64.9205 75.6442 65.1847 75.8942 65.4006C76.1442 65.6165 76.5732 65.7898 77.1811 65.9205L79.5504 66.3977C80.8232 66.6591 81.772 67.0795 82.397 67.6591C83.022 68.2386 83.3345 69 83.3345 69.9432C83.3345 70.8011 83.0817 71.554 82.576 72.2017C82.076 72.8494 81.3885 73.3551 80.5135 73.7188C79.6442 74.0767 78.6413 74.2557 77.505 74.2557C75.772 74.2557 74.3913 73.8949 73.3629 73.1733C72.3402 72.446 71.7408 71.4574 71.5646 70.2074L75.1357 70.0199C75.2436 70.5483 75.505 70.9517 75.9197 71.2301C76.3345 71.5028 76.8658 71.6392 77.5135 71.6392C78.1499 71.6392 78.6612 71.517 79.0476 71.2727C79.4396 71.0227 79.6385 70.7017 79.6442 70.3097C79.6385 69.9801 79.4993 69.7102 79.2266 69.5C78.9538 69.2841 78.5334 69.1193 77.9652 69.0057L75.6982 68.554C74.4197 68.2983 73.468 67.8551 72.843 67.2244C72.2237 66.5937 71.9141 65.7898 71.9141 64.8125C71.9141 63.9716 72.1413 63.2472 72.5959 62.6392C73.0561 62.0312 73.701 61.5625 74.5305 61.233C75.3658 60.9034 76.343 60.7386 77.4624 60.7386C79.1158 60.7386 80.4169 61.0881 81.3658 61.7869C82.3203 62.4858 82.8771 63.4375 83.0362 64.642ZM92.5838 60.9091V63.6364H84.7003V60.9091H92.5838ZM86.4901 57.7727H90.1207V69.9773C90.1207 70.3125 90.1719 70.5739 90.2741 70.7614C90.3764 70.9432 90.5185 71.071 90.7003 71.1449C90.8878 71.2187 91.1037 71.2557 91.348 71.2557C91.5185 71.2557 91.6889 71.2415 91.8594 71.2131C92.0298 71.179 92.1605 71.1534 92.2514 71.1364L92.8224 73.8381C92.6406 73.8949 92.3849 73.9602 92.0554 74.0341C91.7259 74.1136 91.3253 74.1619 90.8537 74.179C89.9787 74.2131 89.2116 74.0966 88.5526 73.8295C87.8991 73.5625 87.3906 73.1477 87.027 72.5852C86.6634 72.0227 86.4844 71.3125 86.4901 70.4545V57.7727ZM94.9489 74V60.9091H98.4688V63.1932H98.6051C98.8438 62.3807 99.2443 61.767 99.8068 61.3523C100.369 60.9318 101.017 60.7216 101.75 60.7216C101.932 60.7216 102.128 60.733 102.338 60.7557C102.548 60.7784 102.733 60.8097 102.892 60.8494V64.071C102.722 64.0199 102.486 63.9744 102.185 63.9347C101.884 63.8949 101.608 63.875 101.358 63.875C100.824 63.875 100.347 63.9915 99.9261 64.2244C99.5114 64.4517 99.1818 64.7699 98.9375 65.179C98.6989 65.5881 98.5795 66.0597 98.5795 66.5938V74H94.9489ZM113.164 68.4261V60.9091H116.795V74H113.309V71.6222H113.173C112.877 72.3892 112.386 73.0057 111.698 73.4716C111.016 73.9375 110.184 74.1705 109.201 74.1705C108.326 74.1705 107.556 73.9716 106.891 73.5739C106.227 73.1761 105.707 72.6108 105.332 71.8778C104.962 71.1449 104.775 70.267 104.769 69.2443V60.9091H108.4V68.5966C108.406 69.3693 108.613 69.9801 109.022 70.429C109.431 70.8778 109.979 71.1023 110.667 71.1023C111.104 71.1023 111.513 71.0028 111.894 70.804C112.275 70.5994 112.582 70.2983 112.815 69.9006C113.053 69.5028 113.17 69.0114 113.164 68.4261ZM125.614 74.2557C124.273 74.2557 123.119 73.9716 122.153 73.4034C121.193 72.8295 120.455 72.0341 119.938 71.017C119.426 70 119.17 68.8295 119.17 67.5057C119.17 66.1648 119.429 64.9886 119.946 63.9773C120.469 62.9602 121.21 62.1676 122.17 61.5994C123.131 61.0256 124.273 60.7386 125.597 60.7386C126.739 60.7386 127.739 60.946 128.597 61.3608C129.455 61.7756 130.134 62.358 130.634 63.108C131.134 63.858 131.409 64.7386 131.46 65.75H128.034C127.938 65.0966 127.682 64.571 127.267 64.1733C126.858 63.7699 126.321 63.5682 125.656 63.5682C125.094 63.5682 124.602 63.7216 124.182 64.0284C123.767 64.3295 123.443 64.7699 123.21 65.3494C122.977 65.929 122.861 66.6307 122.861 67.4545C122.861 68.2898 122.974 69 123.202 69.5852C123.435 70.1705 123.761 70.6165 124.182 70.9233C124.602 71.2301 125.094 71.3835 125.656 71.3835C126.071 71.3835 126.443 71.2983 126.773 71.1278C127.108 70.9574 127.384 70.7102 127.599 70.3864C127.821 70.0568 127.966 69.6619 128.034 69.2017H131.46C131.403 70.2017 131.131 71.0824 130.642 71.8438C130.159 72.5994 129.491 73.1903 128.639 73.6165C127.787 74.0426 126.778 74.2557 125.614 74.2557ZM140.748 60.9091V63.6364H132.864V60.9091H140.748ZM134.654 57.7727H138.285V69.9773C138.285 70.3125 138.336 70.5739 138.438 70.7614C138.54 70.9432 138.683 71.071 138.864 71.1449C139.052 71.2187 139.268 71.2557 139.512 71.2557C139.683 71.2557 139.853 71.2415 140.023 71.2131C140.194 71.179 140.325 71.1534 140.415 71.1364L140.987 73.8381C140.805 73.8949 140.549 73.9602 140.219 74.0341C139.89 74.1136 139.489 74.1619 139.018 74.179C138.143 74.2131 137.376 74.0966 136.717 73.8295C136.063 73.5625 135.555 73.1477 135.191 72.5852C134.827 72.0227 134.648 71.3125 134.654 70.4545V57.7727ZM143.113 74V60.9091H146.744V74H143.113ZM144.937 59.2216C144.397 59.2216 143.934 59.0426 143.548 58.6847C143.167 58.321 142.977 57.8864 142.977 57.3807C142.977 56.8807 143.167 56.4517 143.548 56.0938C143.934 55.7301 144.397 55.5483 144.937 55.5483C145.477 55.5483 145.937 55.7301 146.317 56.0938C146.704 56.4517 146.897 56.8807 146.897 57.3807C146.897 57.8864 146.704 58.321 146.317 58.6847C145.937 59.0426 145.477 59.2216 144.937 59.2216ZM155.567 74.2557C154.243 74.2557 153.098 73.9744 152.132 73.4119C151.172 72.8437 150.43 72.054 149.908 71.0426C149.385 70.0256 149.124 68.8466 149.124 67.5057C149.124 66.1534 149.385 64.9716 149.908 63.9602C150.43 62.9432 151.172 62.1534 152.132 61.5909C153.098 61.0227 154.243 60.7386 155.567 60.7386C156.891 60.7386 158.033 61.0227 158.993 61.5909C159.959 62.1534 160.703 62.9432 161.226 63.9602C161.749 64.9716 162.01 66.1534 162.01 67.5057C162.01 68.8466 161.749 70.0256 161.226 71.0426C160.703 72.054 159.959 72.8437 158.993 73.4119C158.033 73.9744 156.891 74.2557 155.567 74.2557ZM155.584 71.4432C156.186 71.4432 156.689 71.2727 157.092 70.9318C157.496 70.5852 157.8 70.1136 158.004 69.517C158.214 68.9205 158.32 68.2415 158.32 67.4801C158.32 66.7188 158.214 66.0398 158.004 65.4432C157.8 64.8466 157.496 64.375 157.092 64.0284C156.689 63.6818 156.186 63.5085 155.584 63.5085C154.976 63.5085 154.464 63.6818 154.05 64.0284C153.641 64.375 153.331 64.8466 153.121 65.4432C152.916 66.0398 152.814 66.7188 152.814 67.4801C152.814 68.2415 152.916 68.9205 153.121 69.517C153.331 70.1136 153.641 70.5852 154.05 70.9318C154.464 71.2727 154.976 71.4432 155.584 71.4432ZM168.001 66.4318V74H164.371V60.9091H167.831V63.2188H167.984C168.274 62.4574 168.76 61.8551 169.442 61.4119C170.124 60.9631 170.95 60.7386 171.922 60.7386C172.831 60.7386 173.624 60.9375 174.3 61.3352C174.976 61.733 175.501 62.3011 175.876 63.0398C176.251 63.7727 176.439 64.6477 176.439 65.6648V74H172.808V66.3125C172.814 65.5114 172.609 64.8864 172.195 64.4375C171.78 63.983 171.209 63.7557 170.482 63.7557C169.993 63.7557 169.561 63.8608 169.186 64.071C168.817 64.2812 168.527 64.5881 168.317 64.9915C168.112 65.3892 168.007 65.8693 168.001 66.4318Z" fill="#F1F0F3"/>
</g>
<defs>
<filter id="filter0_d_614_504" x="60" y="91" width="96.1091" height="98" filterUnits="userSpaceOnUse" color-interpolation-filters="sRGB">
<feFlood flood-opacity="0" result="BackgroundImageFix"/>
<feColorMatrix in="SourceAlpha" type="matrix" values="0 0 0 0 0 0 0 0 0 0 0 0 0 0 0 0 0 0 127 0" result="hardAlpha"/>
<feOffset dy="4"/>
<feGaussianBlur stdDeviation="2"/>
<feComposite in2="hardAlpha" operator="out"/>
<feColorMatrix type="matrix" values="0 0 0 0 0 0 0 0 0 0 0 0 0 0 0 0 0 0 0.29 0"/>
<feBlend mode="normal" in2="BackgroundImageFix" result="effect1_dropShadow_614_504"/>
<feBlend mode="normal" in="SourceGraphic" in2="effect1_dropShadow_614_504" result="shape"/>
</filter>
<radialGradient id="paint0_radial_614_504" cx="0" cy="0" r="1" gradientUnits="userSpaceOnUse" gradientTransform="translate(441 26) rotate(143.644) scale(423.417 305.716)">
<stop stop-color="#405A9C"/>
<stop offset="1" stop-color="#161F36"/>
</radialGradient>
<clipPath id="clip0_614_504">
<rect width="200" height="277" fill="white"/>
</clipPath>
</defs>
</svg>
