<svg width="200" height="277" viewBox="0 0 200 277" fill="none" xmlns="http://www.w3.org/2000/svg">
<g clip-path="url(#clip0_614_427)">
<rect width="200" height="277" fill="#161F36"/>
<rect width="200" height="277" fill="url(#paint0_radial_614_427)"/>
<path d="M199 149H0V223L199 180V149Z" fill="#A8BCEF"/>
<path d="M31 314H230V240L31 283V314Z" fill="#497CE9"/>
<circle cx="11.5" cy="9.5" r="1.5" fill="#92AAD7"/>
<circle cx="18.5" cy="9.5" r="1.5" fill="#92AAD7"/>
<circle cx="25.5" cy="9.5" r="1.5" fill="#92AAD7"/>
<circle cx="32.5" cy="9.5" r="1.5" fill="#92AAD7"/>
<circle cx="172.5" cy="246.5" r="1.5" fill="#92AAD7"/>
<circle cx="179.5" cy="246.5" r="1.5" fill="#92AAD7"/>
<circle cx="186.5" cy="246.5" r="1.5" fill="#92AAD7"/>
<circle cx="193.5" cy="246.5" r="1.5" fill="#92AAD7"/>
<circle cx="11.5" cy="16.5" r="1.5" fill="#92AAD7"/>
<circle cx="18.5" cy="16.5" r="1.5" fill="#92AAD7"/>
<circle cx="25.5" cy="16.5" r="1.5" fill="#92AAD7"/>
<circle cx="32.5" cy="16.5" r="1.5" fill="#92AAD7"/>
<circle cx="172.5" cy="253.5" r="1.5" fill="#92AAD7"/>
<circle cx="179.5" cy="253.5" r="1.5" fill="#92AAD7"/>
<circle cx="186.5" cy="253.5" r="1.5" fill="#92AAD7"/>
<circle cx="193.5" cy="253.5" r="1.5" fill="#92AAD7"/>
<circle cx="11.5" cy="23.5" r="1.5" fill="#92AAD7"/>
<circle cx="18.5" cy="23.5" r="1.5" fill="#92AAD7"/>
<circle cx="25.5" cy="23.5" r="1.5" fill="#92AAD7"/>
<circle cx="32.5" cy="23.5" r="1.5" fill="#92AAD7"/>
<circle cx="172.5" cy="260.5" r="1.5" fill="#92AAD7"/>
<circle cx="179.5" cy="260.5" r="1.5" fill="#92AAD7"/>
<circle cx="186.5" cy="260.5" r="1.5" fill="#92AAD7"/>
<circle cx="193.5" cy="260.5" r="1.5" fill="#92AAD7"/>
<g filter="url(#filter0_d_614_427)">
<path fill-rule="evenodd" clip-rule="evenodd" d="M144.763 113.487C144.765 115.022 145.306 116.508 146.292 117.684C147.278 118.859 148.645 119.65 150.154 119.916V152.167C150.187 152.955 150.061 153.741 149.783 154.479C149.505 155.217 149.081 155.891 148.536 156.46C147.991 157.03 147.337 157.483 146.613 157.792C145.89 158.102 145.111 158.261 144.323 158.261C143.536 158.261 142.757 158.102 142.033 157.792C141.309 157.483 140.655 157.03 140.111 156.46C139.566 155.891 139.142 155.217 138.864 154.479C138.586 153.741 138.46 152.955 138.493 152.167V122.749C138.492 121.425 137.966 120.156 137.031 119.221C136.097 118.285 134.83 117.76 133.508 117.76H127.605V120.017H133.508C134.231 120.017 134.924 120.306 135.435 120.818C135.946 121.33 136.233 122.025 136.234 122.749V152.167C136.221 153.238 136.421 154.3 136.822 155.293C137.223 156.286 137.816 157.19 138.567 157.951C139.319 158.713 140.214 159.318 141.2 159.73C142.186 160.143 143.245 160.355 144.313 160.355C145.382 160.355 146.441 160.143 147.427 159.73C148.413 159.318 149.308 158.713 150.06 157.951C150.811 157.19 151.404 156.286 151.805 155.293C152.206 154.3 152.406 153.238 152.393 152.167V119.916C153.904 119.652 155.273 118.862 156.26 117.686C157.247 116.511 157.789 115.024 157.789 113.487V107.266C157.79 107.118 157.761 106.971 157.705 106.834C157.649 106.697 157.566 106.573 157.462 106.468C157.357 106.363 157.233 106.28 157.097 106.223C156.96 106.166 156.814 106.137 156.666 106.137H155.728V101.789C155.733 101.638 155.707 101.488 155.653 101.348C155.598 101.207 155.516 101.079 155.412 100.971C155.307 100.863 155.182 100.777 155.043 100.718C154.905 100.659 154.756 100.629 154.605 100.629C154.455 100.629 154.306 100.659 154.168 100.718C154.029 100.777 153.904 100.863 153.799 100.971C153.694 101.079 153.612 101.207 153.558 101.348C153.504 101.488 153.478 101.638 153.482 101.789V106.141H149.062V101.789C149.062 101.49 148.943 101.204 148.733 100.993C148.522 100.782 148.236 100.663 147.938 100.663C147.641 100.663 147.355 100.782 147.144 100.993C146.933 101.204 146.815 101.49 146.815 101.789V106.141H145.891C145.592 106.141 145.306 106.259 145.095 106.47C144.884 106.681 144.764 106.967 144.763 107.266V113.483V113.487ZM94.8953 163.371L106.708 150.487L98.2154 145.275C98.0078 145.149 97.8466 144.958 97.7564 144.732C97.6662 144.506 97.6517 144.257 97.7152 144.022L100.619 133.114L88.8073 146.006L97.2994 151.211C97.5072 151.337 97.6683 151.528 97.7583 151.754C97.8484 151.98 97.8625 152.229 97.7986 152.464L94.8953 163.371ZM109.05 149.274C109.192 149.361 109.313 149.478 109.404 149.617C109.496 149.756 109.555 149.914 109.578 150.079C109.601 150.244 109.588 150.412 109.538 150.571C109.489 150.73 109.405 150.876 109.292 150.998L93.4582 168.274C93.2881 168.46 93.0607 168.583 92.8124 168.624C92.564 168.666 92.309 168.622 92.0882 168.501C91.8673 168.38 91.6934 168.188 91.5942 167.956C91.4949 167.724 91.4761 167.466 91.5408 167.222L95.407 152.694L86.4636 147.212C86.322 147.124 86.2013 147.007 86.1101 146.867C86.019 146.728 85.9596 146.57 85.9363 146.405C85.9133 146.24 85.9272 146.072 85.9769 145.914C86.0267 145.755 86.1111 145.61 86.2239 145.488L102.058 128.214C102.228 128.028 102.456 127.905 102.705 127.864C102.953 127.823 103.209 127.867 103.429 127.988C103.65 128.11 103.824 128.302 103.923 128.534C104.022 128.767 104.04 129.025 103.975 129.269L100.107 143.795L109.05 149.274ZM70.1609 171.727V96.2555C70.162 94.8622 70.7148 93.5262 71.698 92.5409C72.6811 91.5556 74.0143 91.0014 75.4048 91H120.111C121.502 91.0014 122.835 91.5555 123.818 92.5408C124.802 93.5261 125.355 94.8621 125.356 96.2555V171.727H70.1609ZM131.514 178.874H64V173.982H131.514V178.874ZM117.966 122.505V98.4003H77.5474V122.505H117.966ZM119.094 96.1448H76.4209C76.2731 96.1446 76.1267 96.1735 75.9901 96.23C75.8535 96.2865 75.7293 96.3695 75.6248 96.4742C75.5202 96.5788 75.4373 96.7031 75.3808 96.84C75.3243 96.9768 75.2952 97.1234 75.2954 97.2715V123.632C75.2951 123.78 75.324 123.926 75.3805 124.063C75.437 124.2 75.5199 124.325 75.6245 124.429C75.7291 124.534 75.8532 124.617 75.9899 124.673C76.1266 124.73 76.273 124.759 76.4209 124.758H119.094C119.242 124.759 119.388 124.73 119.525 124.673C119.662 124.617 119.786 124.534 119.891 124.429C119.995 124.325 120.078 124.2 120.135 124.063C120.192 123.926 120.221 123.78 120.221 123.632V97.2715C120.221 97.1234 120.191 96.9767 120.135 96.8399C120.078 96.703 119.995 96.5787 119.89 96.4741C119.786 96.3694 119.662 96.2865 119.525 96.23C119.388 96.1735 119.242 96.1446 119.094 96.1448Z" fill="#636AF7"/>
</g>
<path d="M77.5 123V98.5H118V123H77.5Z" fill="#CDCFEA"/>
<ellipse cx="100" cy="183.5" rx="41" ry="1.5" fill="#000C2C"/>
<path d="M85.517 74V56.5455H97.2784V59.5881H89.2074V63.7472H96.6733V66.7898H89.2074V70.9574H97.3125V74H85.517ZM103.366 56.5455L107.585 69.8068H107.746L111.974 56.5455H116.065L110.048 74H105.292L99.2663 56.5455H103.366Z" fill="#F1F0F3"/>
<path d="M88.5 146L100.5 133L98 144.5L106.5 150.5L95 163L98 152L88.5 146Z" fill="#00FF1E"/>
</g>
<defs>
<filter id="filter0_d_614_427" x="60" y="91" width="101.79" height="95.8745" filterUnits="userSpaceOnUse" color-interpolation-filters="sRGB">
<feFlood flood-opacity="0" result="BackgroundImageFix"/>
<feColorMatrix in="SourceAlpha" type="matrix" values="0 0 0 0 0 0 0 0 0 0 0 0 0 0 0 0 0 0 127 0" result="hardAlpha"/>
<feOffset dy="4"/>
<feGaussianBlur stdDeviation="2"/>
<feComposite in2="hardAlpha" operator="out"/>
<feColorMatrix type="matrix" values="0 0 0 0 0 0 0 0 0 0 0 0 0 0 0 0 0 0 0.29 0"/>
<feBlend mode="normal" in2="BackgroundImageFix" result="effect1_dropShadow_614_427"/>
<feBlend mode="normal" in="SourceGraphic" in2="effect1_dropShadow_614_427" result="shape"/>
</filter>
<radialGradient id="paint0_radial_614_427" cx="0" cy="0" r="1" gradientUnits="userSpaceOnUse" gradientTransform="translate(441 26) rotate(143.644) scale(423.417 305.716)">
<stop stop-color="#405A9C"/>
<stop offset="1" stop-color="#161F36"/>
</radialGradient>
<clipPath id="clip0_614_427">
<rect width="200" height="277" fill="white"/>
</clipPath>
</defs>
</svg>
