<svg width="200" height="277" viewBox="0 0 200 277" fill="none" xmlns="http://www.w3.org/2000/svg">
<g clip-path="url(#clip0_614_466)">
<rect width="200" height="277" fill="#161F36"/>
<rect width="200" height="277" fill="url(#paint0_radial_614_466)"/>
<path d="M199 149H0V223L199 180V149Z" fill="#A8BCEF"/>
<path d="M31 314H230V240L31 283V314Z" fill="#497CE9"/>
<circle cx="11.5" cy="9.5" r="1.5" fill="#92AAD7"/>
<circle cx="18.5" cy="9.5" r="1.5" fill="#92AAD7"/>
<circle cx="25.5" cy="9.5" r="1.5" fill="#92AAD7"/>
<circle cx="32.5" cy="9.5" r="1.5" fill="#92AAD7"/>
<circle cx="172.5" cy="246.5" r="1.5" fill="#92AAD7"/>
<circle cx="179.5" cy="246.5" r="1.5" fill="#92AAD7"/>
<circle cx="186.5" cy="246.5" r="1.5" fill="#92AAD7"/>
<circle cx="193.5" cy="246.5" r="1.5" fill="#92AAD7"/>
<circle cx="11.5" cy="16.5" r="1.5" fill="#92AAD7"/>
<circle cx="18.5" cy="16.5" r="1.5" fill="#92AAD7"/>
<circle cx="25.5" cy="16.5" r="1.5" fill="#92AAD7"/>
<circle cx="32.5" cy="16.5" r="1.5" fill="#92AAD7"/>
<circle cx="172.5" cy="253.5" r="1.5" fill="#92AAD7"/>
<circle cx="179.5" cy="253.5" r="1.5" fill="#92AAD7"/>
<circle cx="186.5" cy="253.5" r="1.5" fill="#92AAD7"/>
<circle cx="193.5" cy="253.5" r="1.5" fill="#92AAD7"/>
<circle cx="11.5" cy="23.5" r="1.5" fill="#92AAD7"/>
<circle cx="18.5" cy="23.5" r="1.5" fill="#92AAD7"/>
<circle cx="25.5" cy="23.5" r="1.5" fill="#92AAD7"/>
<circle cx="32.5" cy="23.5" r="1.5" fill="#92AAD7"/>
<circle cx="172.5" cy="260.5" r="1.5" fill="#92AAD7"/>
<circle cx="179.5" cy="260.5" r="1.5" fill="#92AAD7"/>
<circle cx="186.5" cy="260.5" r="1.5" fill="#92AAD7"/>
<circle cx="193.5" cy="260.5" r="1.5" fill="#92AAD7"/>
<g filter="url(#filter0_d_614_466)">
<path fill-rule="evenodd" clip-rule="evenodd" d="M112.04 91H51V95.352H112.04V91ZM60.81 94.264C61.412 94.264 61.9 93.7769 61.9 93.176C61.9 92.5751 61.412 92.088 60.81 92.088C60.208 92.088 59.72 92.5751 59.72 93.176C59.72 93.7769 60.208 94.264 60.81 94.264ZM103.32 93.176C103.32 93.7769 102.832 94.264 102.23 94.264C101.628 94.264 101.14 93.7769 101.14 93.176C101.14 92.5751 101.628 92.088 102.23 92.088C102.832 92.088 103.32 92.5751 103.32 93.176ZM55.905 131.256L53.9118 96.44H113.13V93.1883C140.59 93.8122 148.562 117.997 149.1 130.168C149.463 145.037 141.252 174.776 105.5 174.776C69.748 174.776 57.54 145.763 55.905 131.256ZM110.95 163.896C127.204 163.896 140.38 150.744 140.38 134.52C140.38 118.296 127.204 105.144 110.95 105.144C94.6962 105.144 81.52 118.296 81.52 134.52C81.52 150.744 94.6962 163.896 110.95 163.896ZM115.31 126.98C116.687 127.775 117.826 128.936 118.594 130.328C119.007 130.194 119.346 129.708 119.463 129.481L120.337 128.633C122.312 127.055 126.672 124.338 127.986 123.921C129.544 123.427 136.132 123.564 137.05 129.036C137.687 132.829 137.994 135.586 137.45 137.471C136.388 139.521 135.349 139.851 133.626 139.827L121.256 136.904C121.091 136.385 120.822 135.9 120.407 136.032C120.259 136.079 120.101 136.105 119.953 136.13C119.775 136.16 119.612 136.187 119.499 136.243C119.162 137.919 118.343 139.42 117.193 140.597C117.476 140.801 117.855 140.906 118.048 140.936L119.131 141.494C121.257 142.865 125.219 146.132 126.031 147.244C126.995 148.562 128.951 154.843 124.042 157.446C120.639 159.25 118.116 160.414 116.153 160.497C113.869 160.14 113.226 159.261 112.703 157.622L111.563 144.985C112.003 144.664 112.379 144.256 112.122 143.904C112.031 143.78 111.956 143.638 111.885 143.505C111.823 143.388 111.764 143.278 111.702 143.192C111.454 143.213 111.203 143.224 110.95 143.224C109.504 143.224 108.14 142.873 106.939 142.251C106.738 142.609 106.761 143.142 106.801 143.378L106.615 144.58C105.99 147.027 104.146 151.816 103.349 152.938C102.403 154.269 97.0597 158.118 93.0265 154.301C90.2299 151.655 88.3224 149.637 87.6192 147.806C87.2314 145.53 87.8619 144.643 89.2522 143.626L100.892 138.528C101.337 138.843 101.845 139.069 102.097 138.714C102.186 138.588 102.297 138.472 102.4 138.363C102.589 138.164 102.755 137.99 102.727 137.826L102.826 137.688C102.441 136.706 102.23 135.638 102.23 134.52C102.23 134.294 102.239 134.07 102.256 133.848C102.147 133.759 102.027 133.685 101.899 133.645C101.484 133.514 100.924 133.717 100.696 133.836L99.4921 134.027C96.9665 134.181 91.8352 133.893 90.5206 133.478C88.9615 132.986 83.6568 129.085 86.0646 124.085C87.7341 120.618 89.0751 118.188 90.6072 116.96C92.6589 115.896 93.6982 116.224 95.093 117.234L103.515 126.738C103.351 127.257 103.29 127.808 103.706 127.939C103.853 127.986 103.998 128.055 104.134 128.12C104.381 128.239 104.598 128.344 104.745 128.267L104.85 128.3C106.049 127.128 107.586 126.299 109.301 125.971C109.31 125.919 109.315 125.867 109.315 125.816C109.315 125.381 108.952 124.909 108.77 124.728L108.225 123.64C107.317 121.283 106.045 116.312 106.045 114.936C106.045 113.304 108.173 107.079 113.675 107.864C117.49 108.408 120.215 108.952 121.85 110.04C123.485 111.672 123.485 112.76 122.94 114.392L116.4 125.272C115.855 125.272 115.31 125.381 115.31 125.816C115.31 125.97 115.287 126.129 115.266 126.278C115.227 126.549 115.193 126.787 115.31 126.904V126.98ZM117.49 134.52C117.49 138.125 114.562 141.048 110.95 141.048C107.338 141.048 104.41 138.125 104.41 134.52C104.41 130.915 107.338 127.992 110.95 127.992C114.562 127.992 117.49 130.915 117.49 134.52ZM110.95 138.872C113.358 138.872 115.31 136.924 115.31 134.52C115.31 132.117 113.358 130.168 110.95 130.168C108.542 130.168 106.59 132.117 106.59 134.52C106.59 136.924 108.542 138.872 110.95 138.872ZM110.95 139.96C113.96 139.96 116.4 137.524 116.4 134.52C116.4 131.516 113.96 129.08 110.95 129.08C107.94 129.08 105.5 131.516 105.5 134.52C105.5 137.524 107.94 139.96 110.95 139.96ZM110.95 136.696C112.154 136.696 113.13 135.722 113.13 134.52C113.13 133.318 112.154 132.344 110.95 132.344C109.746 132.344 108.77 133.318 108.77 134.52C108.77 135.722 109.746 136.696 110.95 136.696ZM108.77 132.888C108.77 133.188 108.526 133.432 108.225 133.432C107.924 133.432 107.68 133.188 107.68 132.888C107.68 132.588 107.924 132.344 108.225 132.344C108.526 132.344 108.77 132.588 108.77 132.888ZM109.315 137.784C109.616 137.784 109.86 137.54 109.86 137.24C109.86 136.94 109.616 136.696 109.315 136.696C109.014 136.696 108.77 136.94 108.77 137.24C108.77 137.54 109.014 137.784 109.315 137.784ZM114.22 136.152C114.22 136.452 113.976 136.696 113.675 136.696C113.374 136.696 113.13 136.452 113.13 136.152C113.13 135.852 113.374 135.608 113.675 135.608C113.976 135.608 114.22 135.852 114.22 136.152ZM112.585 132.344C112.886 132.344 113.13 132.1 113.13 131.8C113.13 131.5 112.886 131.256 112.585 131.256C112.284 131.256 112.04 131.5 112.04 131.8C112.04 132.1 112.284 132.344 112.585 132.344Z" fill="#636AF7"/>
</g>
<ellipse cx="100" cy="183.5" rx="41" ry="1.5" fill="#000C2C"/>
<path d="M67.517 74V56.5455H71.2074V63.7472H78.6989V56.5455H82.3807V74H78.6989V66.7898H71.2074V74H67.517ZM88.5767 56.5455L92.7955 69.8068H92.9574L97.1847 56.5455H101.276L95.2585 74H90.5028L84.4773 56.5455H88.5767ZM104.065 74H100.11L106.136 56.5455H110.891L116.908 74H112.954L108.582 60.5341H108.445L104.065 74ZM103.817 67.1392H113.158V70.0199H103.817V67.1392ZM133.589 62.6562H129.857C129.788 62.1733 129.649 61.7443 129.439 61.3693C129.229 60.9886 128.959 60.6648 128.629 60.3977C128.3 60.1307 127.919 59.9261 127.487 59.7841C127.061 59.642 126.598 59.571 126.098 59.571C125.195 59.571 124.408 59.7955 123.737 60.2443C123.067 60.6875 122.547 61.3352 122.178 62.1875C121.808 63.0341 121.624 64.0625 121.624 65.2727C121.624 66.517 121.808 67.5625 122.178 68.4091C122.553 69.2557 123.075 69.8949 123.746 70.3267C124.416 70.7585 125.192 70.9744 126.072 70.9744C126.567 70.9744 127.024 70.9091 127.445 70.7784C127.871 70.6477 128.249 70.4574 128.578 70.2074C128.908 69.9517 129.18 69.642 129.396 69.2784C129.618 68.9148 129.771 68.5 129.857 68.0341L133.589 68.0511C133.493 68.8523 133.251 69.625 132.865 70.3693C132.484 71.108 131.97 71.7699 131.322 72.3551C130.68 72.9347 129.913 73.3949 129.021 73.7358C128.135 74.071 127.132 74.2386 126.013 74.2386C124.456 74.2386 123.064 73.8864 121.837 73.1818C120.615 72.4773 119.649 71.4574 118.939 70.1222C118.234 68.7869 117.882 67.1705 117.882 65.2727C117.882 63.3693 118.24 61.75 118.956 60.4148C119.672 59.0795 120.643 58.0625 121.871 57.3636C123.098 56.6591 124.479 56.3068 126.013 56.3068C127.024 56.3068 127.962 56.4489 128.825 56.733C129.695 57.017 130.464 57.4318 131.135 57.9773C131.805 58.517 132.351 59.179 132.771 59.9631C133.197 60.7472 133.47 61.6449 133.589 62.6562Z" fill="#F1F0F3"/>
</g>
<defs>
<filter id="filter0_d_614_466" x="47" y="91" width="106.111" height="91.7759" filterUnits="userSpaceOnUse" color-interpolation-filters="sRGB">
<feFlood flood-opacity="0" result="BackgroundImageFix"/>
<feColorMatrix in="SourceAlpha" type="matrix" values="0 0 0 0 0 0 0 0 0 0 0 0 0 0 0 0 0 0 127 0" result="hardAlpha"/>
<feOffset dy="4"/>
<feGaussianBlur stdDeviation="2"/>
<feComposite in2="hardAlpha" operator="out"/>
<feColorMatrix type="matrix" values="0 0 0 0 0 0 0 0 0 0 0 0 0 0 0 0 0 0 0.29 0"/>
<feBlend mode="normal" in2="BackgroundImageFix" result="effect1_dropShadow_614_466"/>
<feBlend mode="normal" in="SourceGraphic" in2="effect1_dropShadow_614_466" result="shape"/>
</filter>
<radialGradient id="paint0_radial_614_466" cx="0" cy="0" r="1" gradientUnits="userSpaceOnUse" gradientTransform="translate(441 26) rotate(143.644) scale(423.417 305.716)">
<stop stop-color="#405A9C"/>
<stop offset="1" stop-color="#161F36"/>
</radialGradient>
<clipPath id="clip0_614_466">
<rect width="200" height="277" fill="white"/>
</clipPath>
</defs>
</svg>
