<svg width="200" height="277" viewBox="0 0 200 277" fill="none" xmlns="http://www.w3.org/2000/svg">
<g clip-path="url(#clip0_614_545)">
<rect width="200" height="277" fill="#161F36"/>
<rect width="200" height="277" fill="url(#paint0_radial_614_545)"/>
<path d="M199 149H0V223L199 180V149Z" fill="#A8BCEF"/>
<path d="M31 314H230V240L31 283V314Z" fill="#497CE9"/>
<circle cx="11.5" cy="9.5" r="1.5" fill="#92AAD7"/>
<circle cx="18.5" cy="9.5" r="1.5" fill="#92AAD7"/>
<circle cx="25.5" cy="9.5" r="1.5" fill="#92AAD7"/>
<circle cx="32.5" cy="9.5" r="1.5" fill="#92AAD7"/>
<circle cx="172.5" cy="246.5" r="1.5" fill="#92AAD7"/>
<circle cx="179.5" cy="246.5" r="1.5" fill="#92AAD7"/>
<circle cx="186.5" cy="246.5" r="1.5" fill="#92AAD7"/>
<circle cx="193.5" cy="246.5" r="1.5" fill="#92AAD7"/>
<circle cx="11.5" cy="16.5" r="1.5" fill="#92AAD7"/>
<circle cx="18.5" cy="16.5" r="1.5" fill="#92AAD7"/>
<circle cx="25.5" cy="16.5" r="1.5" fill="#92AAD7"/>
<circle cx="32.5" cy="16.5" r="1.5" fill="#92AAD7"/>
<circle cx="172.5" cy="253.5" r="1.5" fill="#92AAD7"/>
<circle cx="179.5" cy="253.5" r="1.5" fill="#92AAD7"/>
<circle cx="186.5" cy="253.5" r="1.5" fill="#92AAD7"/>
<circle cx="193.5" cy="253.5" r="1.5" fill="#92AAD7"/>
<circle cx="11.5" cy="23.5" r="1.5" fill="#92AAD7"/>
<circle cx="18.5" cy="23.5" r="1.5" fill="#92AAD7"/>
<circle cx="25.5" cy="23.5" r="1.5" fill="#92AAD7"/>
<circle cx="32.5" cy="23.5" r="1.5" fill="#92AAD7"/>
<circle cx="172.5" cy="260.5" r="1.5" fill="#92AAD7"/>
<circle cx="179.5" cy="260.5" r="1.5" fill="#92AAD7"/>
<circle cx="186.5" cy="260.5" r="1.5" fill="#92AAD7"/>
<circle cx="193.5" cy="260.5" r="1.5" fill="#92AAD7"/>
<g filter="url(#filter0_d_614_545)">
<path d="M69.297 135.779L57.4858 123.913C57.1746 123.599 57 123.173 57 122.73C57 122.286 57.1746 121.861 57.4858 121.547L63.3997 115.521C63.6328 115.285 63.9303 115.124 64.2544 115.059C64.5786 114.993 64.9149 115.025 65.2207 115.152L67.0751 115.941L66.5405 113.44C66.4809 113.165 66.491 112.88 66.5698 112.61C66.6486 112.34 66.7936 112.094 66.9915 111.896L74.9436 103.923L75.0773 103.806C79.3039 100.449 89.4278 95.7661 97.43 102.228C97.714 102.427 97.9293 102.711 98.0461 103.038C98.1628 103.366 98.1752 103.722 98.0815 104.057C97.9931 104.373 97.8146 104.655 97.5682 104.87C97.3218 105.085 97.0182 105.222 96.6949 105.266C93.1305 105.798 89.7162 107.073 86.6713 109.009L89.7285 116.142C89.8601 116.45 89.897 116.79 89.8344 117.119C89.7719 117.448 89.6128 117.751 89.3777 117.988L81.1917 126.213C80.9757 126.425 80.7061 126.575 80.4119 126.646C80.1177 126.717 79.8098 126.706 79.5211 126.615L76.7646 125.591L78.0343 127.656C78.2254 127.977 78.3045 128.352 78.2591 128.723C78.2137 129.094 78.0464 129.439 77.7837 129.704L71.7361 135.779C71.4231 136.092 70.9996 136.268 70.5583 136.268C70.1169 136.268 69.6935 136.092 69.3805 135.779H69.297ZM91.3991 117.653C91.2546 118.228 90.9606 118.756 90.5471 119.18L82.3611 127.404C81.9011 127.856 81.321 128.165 80.6905 128.294L130.725 178.512C131.038 178.825 131.462 179 131.903 179C132.344 179 132.768 178.825 133.081 178.512L141.35 170.12C141.661 169.805 141.836 169.38 141.836 168.937C141.836 168.493 141.661 168.068 141.35 167.753L91.3991 117.653ZM115.305 139.304L125.864 128.713C127.075 129.053 128.332 129.206 129.589 129.167C132.974 129.044 136.187 127.634 138.577 125.222C140.37 123.466 141.619 121.225 142.174 118.771C142.728 116.317 142.564 113.754 141.701 111.392C141.601 111.13 141.436 110.897 141.223 110.716C141.01 110.534 140.755 110.409 140.482 110.351C140.211 110.295 139.93 110.306 139.664 110.385C139.399 110.464 139.157 110.609 138.961 110.805L131.627 118.173L127.718 117.468L127.067 113.255L134.2 106.088C134.398 105.889 134.543 105.644 134.622 105.374C134.701 105.104 134.711 104.819 134.651 104.544C134.59 104.27 134.462 104.016 134.278 103.805C134.094 103.594 133.861 103.433 133.599 103.336C132.12 102.783 130.548 102.526 128.971 102.58C125.718 102.692 122.617 103.993 120.25 106.239C118.611 107.85 117.421 109.866 116.803 112.084C116.184 114.303 116.157 116.646 116.725 118.878L105.867 129.788L115.305 139.304ZM68.0106 167.787C67.702 168.099 67.528 168.521 67.5261 168.962C67.5249 169.183 67.567 169.402 67.6501 169.606C67.7333 169.811 67.8558 169.997 68.0106 170.153L75.1107 177.27C75.2668 177.425 75.4519 177.549 75.6555 177.632C75.859 177.716 76.077 177.758 76.2968 177.757C76.7351 177.755 77.1551 177.58 77.4662 177.27L102.325 152.446L92.8692 142.946L68.0106 167.787Z" fill="#636AF7"/>
</g>
<ellipse cx="103.5" cy="183.5" rx="44.5" ry="1.5" fill="#000C2C"/>
<path d="M49.473 27.5455V45H45.7827V27.5455H49.473ZM56.0717 37.4318V45H52.4411V31.9091H55.9013V34.2188H56.0547C56.3445 33.4574 56.8303 32.8551 57.5121 32.4119C58.1939 31.9631 59.0206 31.7386 59.9922 31.7386C60.9013 31.7386 61.6939 31.9375 62.37 32.3352C63.0462 32.733 63.5717 33.3011 63.9467 34.0398C64.3217 34.7727 64.5092 35.6477 64.5092 36.6648V45H60.8786V37.3125C60.8842 36.5114 60.6797 35.8864 60.2649 35.4375C59.8501 34.983 59.2791 34.7557 58.5518 34.7557C58.0632 34.7557 57.6314 34.8608 57.2564 35.071C56.8871 35.2812 56.5973 35.5881 56.3871 35.9915C56.1825 36.3892 56.0774 36.8693 56.0717 37.4318ZM72.1946 45.2131C71.2003 45.2131 70.2997 44.9574 69.4929 44.446C68.6918 43.929 68.0554 43.1705 67.5838 42.1705C67.1179 41.1648 66.8849 39.9318 66.8849 38.4716C66.8849 36.9716 67.1264 35.7244 67.6094 34.7301C68.0923 33.7301 68.7344 32.983 69.5355 32.4886C70.3423 31.9886 71.2259 31.7386 72.1861 31.7386C72.919 31.7386 73.5298 31.8636 74.0185 32.1136C74.5128 32.358 74.9105 32.6648 75.2116 33.0341C75.5185 33.3977 75.7514 33.7557 75.9105 34.108H76.0213V27.5455H79.6435V45H76.0639V42.9034H75.9105C75.7401 43.267 75.4986 43.6278 75.1861 43.9858C74.8793 44.3381 74.4787 44.6307 73.9844 44.8636C73.4957 45.0966 72.8991 45.2131 72.1946 45.2131ZM73.3452 42.3239C73.9304 42.3239 74.4247 42.1648 74.8281 41.8466C75.2372 41.5227 75.5497 41.071 75.7656 40.4915C75.9872 39.9119 76.098 39.233 76.098 38.4545C76.098 37.6761 75.9901 37 75.7741 36.4261C75.5582 35.8523 75.2457 35.4091 74.8366 35.0966C74.4276 34.7841 73.9304 34.6278 73.3452 34.6278C72.7486 34.6278 72.2457 34.7898 71.8366 35.1136C71.4276 35.4375 71.1179 35.8864 70.9077 36.4602C70.6974 37.0341 70.5923 37.6989 70.5923 38.4545C70.5923 39.2159 70.6974 39.8892 70.9077 40.4744C71.1236 41.054 71.4332 41.5085 71.8366 41.8381C72.2457 42.1619 72.7486 42.3239 73.3452 42.3239ZM91.0234 39.4261V31.9091H94.6541V45H91.1683V42.6222H91.032C90.7365 43.3892 90.245 44.0057 89.5575 44.4716C88.8757 44.9375 88.0433 45.1705 87.0604 45.1705C86.1854 45.1705 85.4155 44.9716 84.7507 44.5739C84.0859 44.1761 83.5661 43.6108 83.1911 42.8778C82.8217 42.1449 82.6342 41.267 82.6286 40.2443V31.9091H86.2592V39.5966C86.2649 40.3693 86.4723 40.9801 86.8814 41.429C87.2905 41.8778 87.8388 42.1023 88.5263 42.1023C88.9638 42.1023 89.3729 42.0028 89.7536 41.804C90.1342 41.5994 90.4411 41.2983 90.674 40.9006C90.9126 40.5028 91.0291 40.0114 91.0234 39.4261ZM108.45 35.642L105.126 35.8466C105.07 35.5625 104.947 35.3068 104.76 35.0795C104.572 34.8466 104.325 34.6619 104.018 34.5256C103.717 34.3835 103.357 34.3125 102.936 34.3125C102.374 34.3125 101.899 34.4318 101.513 34.6705C101.126 34.9034 100.933 35.2159 100.933 35.608C100.933 35.9205 101.058 36.1847 101.308 36.4006C101.558 36.6165 101.987 36.7898 102.595 36.9205L104.964 37.3977C106.237 37.6591 107.186 38.0795 107.811 38.6591C108.436 39.2386 108.749 40 108.749 40.9432C108.749 41.8011 108.496 42.554 107.99 43.2017C107.49 43.8494 106.803 44.3551 105.928 44.7188C105.058 45.0767 104.055 45.2557 102.919 45.2557C101.186 45.2557 99.8054 44.8949 98.777 44.1733C97.7543 43.446 97.1548 42.4574 96.9787 41.2074L100.55 41.0199C100.658 41.5483 100.919 41.9517 101.334 42.2301C101.749 42.5028 102.28 42.6392 102.928 42.6392C103.564 42.6392 104.075 42.517 104.462 42.2727C104.854 42.0227 105.053 41.7017 105.058 41.3097C105.053 40.9801 104.913 40.7102 104.641 40.5C104.368 40.2841 103.947 40.1193 103.379 40.0057L101.112 39.554C99.8338 39.2983 98.8821 38.8551 98.2571 38.2244C97.6378 37.5937 97.3281 36.7898 97.3281 35.8125C97.3281 34.9716 97.5554 34.2472 98.0099 33.6392C98.4702 33.0312 99.1151 32.5625 99.9446 32.233C100.78 31.9034 101.757 31.7386 102.876 31.7386C104.53 31.7386 105.831 32.0881 106.78 32.7869C107.734 33.4858 108.291 34.4375 108.45 35.642ZM117.998 31.9091V34.6364H110.114V31.9091H117.998ZM111.904 28.7727H115.535V40.9773C115.535 41.3125 115.586 41.5739 115.688 41.7614C115.79 41.9432 115.933 42.071 116.114 42.1449C116.302 42.2187 116.518 42.2557 116.762 42.2557C116.933 42.2557 117.103 42.2415 117.273 42.2131C117.444 42.179 117.575 42.1534 117.665 42.1364L118.237 44.8381C118.055 44.8949 117.799 44.9602 117.469 45.0341C117.14 45.1136 116.739 45.1619 116.268 45.179C115.393 45.2131 114.626 45.0966 113.967 44.8295C113.313 44.5625 112.805 44.1477 112.441 43.5852C112.077 43.0227 111.898 42.3125 111.904 41.4545V28.7727ZM120.363 45V31.9091H123.883V34.1932H124.019C124.258 33.3807 124.658 32.767 125.221 32.3523C125.783 31.9318 126.431 31.7216 127.164 31.7216C127.346 31.7216 127.542 31.733 127.752 31.7557C127.962 31.7784 128.147 31.8097 128.306 31.8494V35.071C128.136 35.0199 127.9 34.9744 127.599 34.9347C127.298 34.8949 127.022 34.875 126.772 34.875C126.238 34.875 125.761 34.9915 125.34 35.2244C124.925 35.4517 124.596 35.7699 124.352 36.179C124.113 36.5881 123.994 37.0597 123.994 37.5938V45H120.363ZM130.183 45V31.9091H133.814V45H130.183ZM132.007 30.2216C131.467 30.2216 131.004 30.0426 130.618 29.6847C130.237 29.321 130.047 28.8864 130.047 28.3807C130.047 27.8807 130.237 27.4517 130.618 27.0938C131.004 26.7301 131.467 26.5483 132.007 26.5483C132.547 26.5483 133.007 26.7301 133.388 27.0938C133.774 27.4517 133.967 27.8807 133.967 28.3807C133.967 28.8864 133.774 29.321 133.388 29.6847C133.007 30.0426 132.547 30.2216 132.007 30.2216ZM140.455 45.2472C139.62 45.2472 138.876 45.1023 138.222 44.8125C137.569 44.517 137.052 44.0824 136.671 43.5085C136.296 42.929 136.109 42.2074 136.109 41.3438C136.109 40.6165 136.242 40.0057 136.509 39.5114C136.776 39.017 137.14 38.6193 137.6 38.3182C138.06 38.017 138.583 37.7898 139.168 37.6364C139.759 37.483 140.379 37.375 141.026 37.3125C141.788 37.233 142.401 37.1591 142.867 37.0909C143.333 37.017 143.671 36.9091 143.881 36.767C144.092 36.625 144.197 36.4148 144.197 36.1364V36.0852C144.197 35.5455 144.026 35.1278 143.685 34.8324C143.35 34.5369 142.873 34.3892 142.254 34.3892C141.6 34.3892 141.08 34.5341 140.694 34.8239C140.308 35.108 140.052 35.4659 139.927 35.8977L136.569 35.625C136.739 34.8295 137.075 34.142 137.575 33.5625C138.075 32.9773 138.719 32.5284 139.509 32.2159C140.305 31.8977 141.225 31.7386 142.271 31.7386C142.998 31.7386 143.694 31.8239 144.359 31.9943C145.029 32.1648 145.623 32.429 146.14 32.7869C146.663 33.1449 147.075 33.6051 147.376 34.1676C147.677 34.7244 147.827 35.392 147.827 36.1705V45H144.384V43.1847H144.282C144.072 43.5938 143.79 43.9545 143.438 44.267C143.086 44.5739 142.663 44.8153 142.168 44.9915C141.674 45.1619 141.103 45.2472 140.455 45.2472ZM141.495 42.7415C142.029 42.7415 142.501 42.6364 142.91 42.4261C143.319 42.2102 143.64 41.9205 143.873 41.5568C144.106 41.1932 144.222 40.7812 144.222 40.321V38.9318C144.109 39.0057 143.952 39.0739 143.754 39.1364C143.56 39.1932 143.342 39.2472 143.097 39.2983C142.853 39.3437 142.609 39.3864 142.364 39.4261C142.12 39.4602 141.898 39.4915 141.7 39.5199C141.273 39.5824 140.901 39.6818 140.583 39.8182C140.265 39.9545 140.018 40.1392 139.842 40.3722C139.665 40.5994 139.577 40.8835 139.577 41.2244C139.577 41.7188 139.756 42.0966 140.114 42.358C140.478 42.6136 140.938 42.7415 141.495 42.7415ZM154.275 27.5455V45H150.644V27.5455H154.275ZM38.0014 74V56.5455H49.7628V59.5881H41.6918V63.7472H49.1577V66.7898H41.6918V70.9574H49.7969V74H38.0014ZM61.2791 78.9091V71.9034H61.1683C60.9979 72.267 60.7564 72.6278 60.4439 72.9858C60.1371 73.3381 59.7365 73.6307 59.2422 73.8636C58.7536 74.0966 58.157 74.2131 57.4524 74.2131C56.4581 74.2131 55.5575 73.9574 54.7507 73.446C53.9496 72.929 53.3132 72.1705 52.8416 71.1705C52.3757 70.1648 52.1428 68.9318 52.1428 67.4716C52.1428 65.9716 52.3842 64.7244 52.8672 63.7301C53.3501 62.7301 53.9922 61.983 54.7933 61.4886C55.6001 60.9886 56.4837 60.7386 57.4439 60.7386C58.1768 60.7386 58.7876 60.8636 59.2763 61.1136C59.7706 61.358 60.1683 61.6648 60.4695 62.0341C60.7763 62.3977 61.0092 62.7557 61.1683 63.108H61.3217V60.9091H64.9013V78.9091H61.2791ZM58.603 71.3239C59.1882 71.3239 59.6825 71.1648 60.0859 70.8466C60.495 70.5227 60.8075 70.071 61.0234 69.4915C61.245 68.9119 61.3558 68.233 61.3558 67.4545C61.3558 66.6761 61.2479 66 61.032 65.4261C60.8161 64.8523 60.5036 64.4091 60.0945 64.0966C59.6854 63.7841 59.1882 63.6278 58.603 63.6278C58.0064 63.6278 57.5036 63.7898 57.0945 64.1136C56.6854 64.4375 56.3757 64.8864 56.1655 65.4602C55.9553 66.0341 55.8501 66.6989 55.8501 67.4545C55.8501 68.2159 55.9553 68.8892 56.1655 69.4744C56.3814 70.054 56.6911 70.5085 57.0945 70.8381C57.5036 71.1619 58.0064 71.3239 58.603 71.3239ZM76.2109 68.4261V60.9091H79.8416V74H76.3558V71.6222H76.2195C75.924 72.3892 75.4325 73.0057 74.745 73.4716C74.0632 73.9375 73.2308 74.1705 72.2479 74.1705C71.3729 74.1705 70.603 73.9716 69.9382 73.5739C69.2734 73.1761 68.7536 72.6108 68.3786 71.8778C68.0092 71.1449 67.8217 70.267 67.8161 69.2443V60.9091H71.4467V68.5966C71.4524 69.3693 71.6598 69.9801 72.0689 70.429C72.478 70.8778 73.0263 71.1023 73.7138 71.1023C74.1513 71.1023 74.5604 71.0028 74.9411 70.804C75.3217 70.5994 75.6286 70.2983 75.8615 69.9006C76.1001 69.5028 76.2166 69.0114 76.2109 68.4261ZM82.7457 74V60.9091H86.3764V74H82.7457ZM84.5696 59.2216C84.0298 59.2216 83.5668 59.0426 83.1804 58.6847C82.7997 58.321 82.6094 57.8864 82.6094 57.3807C82.6094 56.8807 82.7997 56.4517 83.1804 56.0938C83.5668 55.7301 84.0298 55.5483 84.5696 55.5483C85.1094 55.5483 85.5696 55.7301 85.9503 56.0938C86.3366 56.4517 86.5298 56.8807 86.5298 57.3807C86.5298 57.8864 86.3366 58.321 85.9503 58.6847C85.5696 59.0426 85.1094 59.2216 84.5696 59.2216ZM89.2848 78.9091V60.9091H92.8643V63.108H93.0263C93.1854 62.7557 93.4155 62.3977 93.7166 62.0341C94.0234 61.6648 94.4212 61.358 94.9098 61.1136C95.4041 60.8636 96.0178 60.7386 96.7507 60.7386C97.7053 60.7386 98.5859 60.9886 99.3928 61.4886C100.2 61.983 100.844 62.7301 101.327 63.7301C101.81 64.7244 102.052 65.9716 102.052 67.4716C102.052 68.9318 101.816 70.1648 101.344 71.1705C100.879 72.1705 100.242 72.929 99.4354 73.446C98.6342 73.9574 97.7365 74.2131 96.7422 74.2131C96.0376 74.2131 95.4382 74.0966 94.9439 73.8636C94.4553 73.6307 94.0547 73.3381 93.7422 72.9858C93.4297 72.6278 93.1911 72.267 93.0263 71.9034H92.9155V78.9091H89.2848ZM92.8388 67.4545C92.8388 68.233 92.9467 68.9119 93.1626 69.4915C93.3786 70.071 93.6911 70.5227 94.1001 70.8466C94.5092 71.1648 95.0064 71.3239 95.5916 71.3239C96.1825 71.3239 96.6825 71.1619 97.0916 70.8381C97.5007 70.5085 97.8104 70.054 98.0206 69.4744C98.2365 68.8892 98.3445 68.2159 98.3445 67.4545C98.3445 66.6989 98.2393 66.0341 98.0291 65.4602C97.8189 64.8864 97.5092 64.4375 97.1001 64.1136C96.6911 63.7898 96.1882 63.6278 95.5916 63.6278C95.0007 63.6278 94.5007 63.7841 94.0916 64.0966C93.6882 64.4091 93.3786 64.8523 93.1626 65.4261C92.9467 66 92.8388 66.6761 92.8388 67.4545ZM104.472 74V60.9091H107.933V63.2188H108.086C108.359 62.4517 108.813 61.8466 109.45 61.4034C110.086 60.9602 110.847 60.7386 111.734 60.7386C112.631 60.7386 113.396 60.9631 114.026 61.4119C114.657 61.8551 115.077 62.4574 115.288 63.2188H115.424C115.691 62.4688 116.174 61.8693 116.873 61.4205C117.577 60.9659 118.41 60.7386 119.37 60.7386C120.592 60.7386 121.583 61.1278 122.344 61.9062C123.112 62.679 123.495 63.7756 123.495 65.196V74H119.873V65.9119C119.873 65.1847 119.68 64.6392 119.293 64.2756C118.907 63.9119 118.424 63.7301 117.844 63.7301C117.185 63.7301 116.671 63.9403 116.302 64.3608C115.933 64.7756 115.748 65.3239 115.748 66.0057V74H112.228V65.8352C112.228 65.1932 112.043 64.6818 111.674 64.3011C111.31 63.9205 110.83 63.7301 110.234 63.7301C109.83 63.7301 109.467 63.8324 109.143 64.0369C108.825 64.2358 108.572 64.517 108.384 64.8807C108.197 65.2386 108.103 65.6591 108.103 66.142V74H104.472ZM132.329 74.2557C130.982 74.2557 129.823 73.983 128.852 73.4375C127.886 72.8864 127.141 72.108 126.619 71.1023C126.096 70.0909 125.835 68.8949 125.835 67.5142C125.835 66.1676 126.096 64.9858 126.619 63.9688C127.141 62.9517 127.877 62.1591 128.826 61.5909C129.781 61.0227 130.9 60.7386 132.184 60.7386C133.048 60.7386 133.852 60.8778 134.596 61.1562C135.346 61.429 135.999 61.8409 136.556 62.392C137.119 62.9432 137.556 63.6364 137.869 64.4716C138.181 65.3011 138.337 66.2727 138.337 67.3864V68.3835H127.283V66.1335H134.92C134.92 65.6108 134.806 65.1477 134.579 64.7443C134.352 64.3409 134.036 64.0256 133.633 63.7983C133.235 63.5653 132.772 63.4489 132.244 63.4489C131.692 63.4489 131.204 63.5767 130.778 63.8324C130.357 64.0824 130.028 64.4205 129.789 64.8466C129.55 65.267 129.428 65.7358 129.423 66.2528V68.392C129.423 69.0398 129.542 69.5994 129.781 70.071C130.025 70.5426 130.369 70.9062 130.812 71.1619C131.255 71.4176 131.781 71.5455 132.388 71.5455C132.792 71.5455 133.161 71.4886 133.496 71.375C133.832 71.2614 134.119 71.0909 134.357 70.8636C134.596 70.6364 134.778 70.358 134.903 70.0284L138.261 70.25C138.09 71.0568 137.741 71.7614 137.212 72.3636C136.69 72.9602 136.013 73.4261 135.184 73.7614C134.36 74.0909 133.408 74.2557 132.329 74.2557ZM144.337 66.4318V74H140.707V60.9091H144.167V63.2188H144.32C144.61 62.4574 145.096 61.8551 145.778 61.4119C146.46 60.9631 147.286 60.7386 148.258 60.7386C149.167 60.7386 149.96 60.9375 150.636 61.3352C151.312 61.733 151.837 62.3011 152.212 63.0398C152.587 63.7727 152.775 64.6477 152.775 65.6648V74H149.144V66.3125C149.15 65.5114 148.945 64.8864 148.531 64.4375C148.116 63.983 147.545 63.7557 146.817 63.7557C146.329 63.7557 145.897 63.8608 145.522 64.071C145.153 64.2812 144.863 64.5881 144.653 64.9915C144.448 65.3892 144.343 65.8693 144.337 66.4318ZM162.599 60.9091V63.6364H154.716V60.9091H162.599ZM156.506 57.7727H160.136V69.9773C160.136 70.3125 160.188 70.5739 160.29 70.7614C160.392 70.9432 160.534 71.071 160.716 71.1449C160.903 71.2187 161.119 71.2557 161.364 71.2557C161.534 71.2557 161.705 71.2415 161.875 71.2131C162.045 71.179 162.176 71.1534 162.267 71.1364L162.838 73.8381C162.656 73.8949 162.401 73.9602 162.071 74.0341C161.741 74.1136 161.341 74.1619 160.869 74.179C159.994 74.2131 159.227 74.0966 158.568 73.8295C157.915 73.5625 157.406 73.1477 157.043 72.5852C156.679 72.0227 156.5 71.3125 156.506 70.4545V57.7727Z" fill="#F1F0F3"/>
</g>
<defs>
<filter id="filter0_d_614_545" x="53" y="99" width="93.4956" height="88" filterUnits="userSpaceOnUse" color-interpolation-filters="sRGB">
<feFlood flood-opacity="0" result="BackgroundImageFix"/>
<feColorMatrix in="SourceAlpha" type="matrix" values="0 0 0 0 0 0 0 0 0 0 0 0 0 0 0 0 0 0 127 0" result="hardAlpha"/>
<feOffset dy="4"/>
<feGaussianBlur stdDeviation="2"/>
<feComposite in2="hardAlpha" operator="out"/>
<feColorMatrix type="matrix" values="0 0 0 0 0 0 0 0 0 0 0 0 0 0 0 0 0 0 0.29 0"/>
<feBlend mode="normal" in2="BackgroundImageFix" result="effect1_dropShadow_614_545"/>
<feBlend mode="normal" in="SourceGraphic" in2="effect1_dropShadow_614_545" result="shape"/>
</filter>
<radialGradient id="paint0_radial_614_545" cx="0" cy="0" r="1" gradientUnits="userSpaceOnUse" gradientTransform="translate(441 26) rotate(143.644) scale(423.417 305.716)">
<stop stop-color="#405A9C"/>
<stop offset="1" stop-color="#161F36"/>
</radialGradient>
<clipPath id="clip0_614_545">
<rect width="200" height="277" fill="white"/>
</clipPath>
</defs>
</svg>
