<svg width="200" height="277" viewBox="0 0 200 277" fill="none" xmlns="http://www.w3.org/2000/svg">
<g clip-path="url(#clip0_614_581)">
<rect width="200" height="277" fill="#161F36"/>
<rect width="200" height="277" fill="url(#paint0_radial_614_581)"/>
<path d="M199 149H0V223L199 180V149Z" fill="#A8BCEF"/>
<path d="M31 314H230V240L31 283V314Z" fill="#497CE9"/>
<circle cx="11.5" cy="9.5" r="1.5" fill="#92AAD7"/>
<circle cx="18.5" cy="9.5" r="1.5" fill="#92AAD7"/>
<circle cx="25.5" cy="9.5" r="1.5" fill="#92AAD7"/>
<circle cx="32.5" cy="9.5" r="1.5" fill="#92AAD7"/>
<circle cx="172.5" cy="246.5" r="1.5" fill="#92AAD7"/>
<circle cx="179.5" cy="246.5" r="1.5" fill="#92AAD7"/>
<circle cx="186.5" cy="246.5" r="1.5" fill="#92AAD7"/>
<circle cx="193.5" cy="246.5" r="1.5" fill="#92AAD7"/>
<circle cx="11.5" cy="16.5" r="1.5" fill="#92AAD7"/>
<circle cx="18.5" cy="16.5" r="1.5" fill="#92AAD7"/>
<circle cx="25.5" cy="16.5" r="1.5" fill="#92AAD7"/>
<circle cx="32.5" cy="16.5" r="1.5" fill="#92AAD7"/>
<circle cx="172.5" cy="253.5" r="1.5" fill="#92AAD7"/>
<circle cx="179.5" cy="253.5" r="1.5" fill="#92AAD7"/>
<circle cx="186.5" cy="253.5" r="1.5" fill="#92AAD7"/>
<circle cx="193.5" cy="253.5" r="1.5" fill="#92AAD7"/>
<circle cx="11.5" cy="23.5" r="1.5" fill="#92AAD7"/>
<circle cx="18.5" cy="23.5" r="1.5" fill="#92AAD7"/>
<circle cx="25.5" cy="23.5" r="1.5" fill="#92AAD7"/>
<circle cx="32.5" cy="23.5" r="1.5" fill="#92AAD7"/>
<circle cx="172.5" cy="260.5" r="1.5" fill="#92AAD7"/>
<circle cx="179.5" cy="260.5" r="1.5" fill="#92AAD7"/>
<circle cx="186.5" cy="260.5" r="1.5" fill="#92AAD7"/>
<circle cx="193.5" cy="260.5" r="1.5" fill="#92AAD7"/>
<path d="M65.038 102.325H86.339V117.267H63.6185V103.742C63.6185 102.961 64.256 102.325 65.038 102.325ZM63.6185 134.261H86.3305V119.659H63.6185V134.261ZM110.972 174.202H90.028C88.515 174.202 87.291 175.423 87.291 176.932V179.934H113.726V176.932C113.717 175.423 112.485 174.202 110.972 174.202ZM88.7275 151.035H112.264V136.652H88.7275V151.035ZM63.6185 149.627C63.6185 150.407 64.256 151.043 65.038 151.043H86.339V136.652H63.6185V149.627ZM95.927 158.76V171.802H105.064V158.76H95.927ZM114.669 134.261H137.382V119.659H114.669V134.261ZM135.962 102.325H114.669V117.267H137.382V103.742C137.382 102.961 136.744 102.325 135.962 102.325ZM143 103.199V150.17C143 153.587 140.212 156.368 136.787 156.368H106.289C106.28 156.368 106.28 156.368 106.272 156.368C106.263 156.368 106.255 156.368 106.255 156.368H94.7455C94.737 156.368 94.7285 156.368 94.7285 156.368C94.72 156.368 94.72 156.368 94.7115 156.368H64.2135C60.788 156.368 58 153.587 58 150.17V103.199C58 99.7814 60.788 97 64.2135 97H136.787C140.212 97 143 99.7814 143 103.199ZM139.779 103.742C139.779 101.639 138.07 99.9341 135.962 99.9341H65.038C62.93 99.9341 61.2215 101.639 61.2215 103.742V149.618C61.2215 151.721 62.93 153.426 65.038 153.426H135.971C138.079 153.426 139.787 151.721 139.787 149.618V103.742H139.779ZM114.669 151.035H135.971C136.753 151.035 137.39 150.399 137.39 149.618V136.652H114.669V151.035ZM88.7275 134.261H112.264V119.659H88.7275V134.261ZM88.7275 117.267H112.264V102.325H88.7275V117.267Z" fill="#636AF7"/>
<ellipse cx="100" cy="183.5" rx="41" ry="1.5" fill="#000C2C"/>
<path d="M69.9858 32.5653C69.9176 31.8778 69.625 31.3437 69.108 30.9631C68.5909 30.5824 67.8892 30.392 67.0028 30.392C66.4006 30.392 65.892 30.4773 65.4773 30.6477C65.0625 30.8125 64.7443 31.0426 64.5227 31.3381C64.3068 31.6335 64.1989 31.9688 64.1989 32.3438C64.1875 32.6562 64.2528 32.929 64.3949 33.1619C64.5426 33.3949 64.7443 33.5966 65 33.767C65.2557 33.9318 65.5511 34.0767 65.8864 34.2017C66.2216 34.321 66.5795 34.4233 66.9602 34.5085L68.5284 34.8835C69.2898 35.054 69.9886 35.2812 70.625 35.5653C71.2614 35.8494 71.8125 36.1989 72.2784 36.6136C72.7443 37.0284 73.1051 37.517 73.3608 38.0795C73.6222 38.642 73.7557 39.2869 73.7614 40.0142C73.7557 41.0824 73.483 42.0085 72.9432 42.7926C72.4091 43.571 71.6364 44.1761 70.625 44.608C69.6193 45.0341 68.4063 45.2472 66.9858 45.2472C65.5767 45.2472 64.3494 45.0312 63.304 44.5994C62.2642 44.1676 61.4517 43.5284 60.8665 42.6818C60.2869 41.8295 59.983 40.7756 59.9545 39.5199H63.5256C63.5653 40.1051 63.733 40.5937 64.0284 40.9858C64.3295 41.3722 64.7301 41.6648 65.2301 41.8636C65.7358 42.0568 66.3068 42.1534 66.9432 42.1534C67.5682 42.1534 68.1108 42.0625 68.571 41.8807C69.0369 41.6989 69.3977 41.446 69.6534 41.1222C69.9091 40.7983 70.0369 40.4261 70.0369 40.0057C70.0369 39.6136 69.9205 39.2841 69.6875 39.017C69.4602 38.75 69.125 38.5227 68.6818 38.3352C68.2443 38.1477 67.7074 37.9773 67.071 37.8239L65.1705 37.3466C63.6989 36.9886 62.5369 36.429 61.6847 35.6676C60.8324 34.9062 60.4091 33.8807 60.4148 32.5909C60.4091 31.5341 60.6903 30.6108 61.2585 29.821C61.8324 29.0312 62.6193 28.4148 63.6193 27.9716C64.6193 27.5284 65.7557 27.3068 67.0284 27.3068C68.3239 27.3068 69.4545 27.5284 70.4205 27.9716C71.392 28.4148 72.1477 29.0312 72.6875 29.821C73.2273 30.6108 73.5057 31.5256 73.5227 32.5653H69.9858ZM82.0902 45.2557C80.7663 45.2557 79.6214 44.9744 78.6555 44.4119C77.6953 43.8437 76.9538 43.054 76.4311 42.0426C75.9084 41.0256 75.647 39.8466 75.647 38.5057C75.647 37.1534 75.9084 35.9716 76.4311 34.9602C76.9538 33.9432 77.6953 33.1534 78.6555 32.5909C79.6214 32.0227 80.7663 31.7386 82.0902 31.7386C83.4141 31.7386 84.5561 32.0227 85.5163 32.5909C86.4822 33.1534 87.2266 33.9432 87.7493 34.9602C88.272 35.9716 88.5334 37.1534 88.5334 38.5057C88.5334 39.8466 88.272 41.0256 87.7493 42.0426C87.2266 43.054 86.4822 43.8437 85.5163 44.4119C84.5561 44.9744 83.4141 45.2557 82.0902 45.2557ZM82.1072 42.4432C82.7095 42.4432 83.2124 42.2727 83.6158 41.9318C84.0192 41.5852 84.3232 41.1136 84.5277 40.517C84.7379 39.9205 84.843 39.2415 84.843 38.4801C84.843 37.7188 84.7379 37.0398 84.5277 36.4432C84.3232 35.8466 84.0192 35.375 83.6158 35.0284C83.2124 34.6818 82.7095 34.5085 82.1072 34.5085C81.4993 34.5085 80.9879 34.6818 80.5732 35.0284C80.1641 35.375 79.8544 35.8466 79.6442 36.4432C79.4396 37.0398 79.3374 37.7188 79.3374 38.4801C79.3374 39.2415 79.4396 39.9205 79.6442 40.517C79.8544 41.1136 80.1641 41.5852 80.5732 41.9318C80.9879 42.2727 81.4993 42.4432 82.1072 42.4432ZM94.5249 27.5455V45H90.8942V27.5455H94.5249ZM101.166 45.2472C100.331 45.2472 99.5866 45.1023 98.9332 44.8125C98.2798 44.517 97.7628 44.0824 97.3821 43.5085C97.0071 42.929 96.8196 42.2074 96.8196 41.3438C96.8196 40.6165 96.9531 40.0057 97.2202 39.5114C97.4872 39.017 97.8509 38.6193 98.3111 38.3182C98.7713 38.017 99.294 37.7898 99.8793 37.6364C100.47 37.483 101.089 37.375 101.737 37.3125C102.499 37.233 103.112 37.1591 103.578 37.0909C104.044 37.017 104.382 36.9091 104.592 36.767C104.803 36.625 104.908 36.4148 104.908 36.1364V36.0852C104.908 35.5455 104.737 35.1278 104.396 34.8324C104.061 34.5369 103.584 34.3892 102.964 34.3892C102.311 34.3892 101.791 34.5341 101.405 34.8239C101.018 35.108 100.763 35.4659 100.638 35.8977L97.2798 35.625C97.4503 34.8295 97.7855 34.142 98.2855 33.5625C98.7855 32.9773 99.4304 32.5284 100.22 32.2159C101.016 31.8977 101.936 31.7386 102.982 31.7386C103.709 31.7386 104.405 31.8239 105.07 31.9943C105.74 32.1648 106.334 32.429 106.851 32.7869C107.374 33.1449 107.786 33.6051 108.087 34.1676C108.388 34.7244 108.538 35.392 108.538 36.1705V45H105.095V43.1847H104.993C104.783 43.5938 104.501 43.9545 104.149 44.267C103.797 44.5739 103.374 44.8153 102.879 44.9915C102.385 45.1619 101.814 45.2472 101.166 45.2472ZM102.206 42.7415C102.74 42.7415 103.212 42.6364 103.621 42.4261C104.03 42.2102 104.351 41.9205 104.584 41.5568C104.817 41.1932 104.933 40.7812 104.933 40.321V38.9318C104.82 39.0057 104.663 39.0739 104.464 39.1364C104.271 39.1932 104.053 39.2472 103.808 39.2983C103.564 39.3437 103.32 39.3864 103.075 39.4261C102.831 39.4602 102.609 39.4915 102.411 39.5199C101.984 39.5824 101.612 39.6818 101.294 39.8182C100.976 39.9545 100.729 40.1392 100.553 40.3722C100.376 40.5994 100.288 40.8835 100.288 41.2244C100.288 41.7188 100.467 42.0966 100.825 42.358C101.189 42.6136 101.649 42.7415 102.206 42.7415ZM111.355 45V31.9091H114.875V34.1932H115.011C115.25 33.3807 115.651 32.767 116.213 32.3523C116.776 31.9318 117.423 31.7216 118.156 31.7216C118.338 31.7216 118.534 31.733 118.744 31.7557C118.955 31.7784 119.139 31.8097 119.298 31.8494V35.071C119.128 35.0199 118.892 34.9744 118.591 34.9347C118.29 34.8949 118.014 34.875 117.764 34.875C117.23 34.875 116.753 34.9915 116.332 35.2244C115.918 35.4517 115.588 35.7699 115.344 36.179C115.105 36.5881 114.986 37.0597 114.986 37.5938V45H111.355ZM132.082 45.2557C130.878 45.2557 129.838 45.0398 128.963 44.608C128.088 44.1761 127.415 43.5909 126.943 42.8523C126.477 42.108 126.244 41.2784 126.244 40.3636C126.244 39.6818 126.381 39.0767 126.653 38.5483C126.926 38.0199 127.307 37.5341 127.795 37.0909C128.284 36.642 128.852 36.196 129.5 35.7528L132.884 33.5284C133.321 33.25 133.642 32.9574 133.847 32.6506C134.051 32.3381 134.153 32 134.153 31.6364C134.153 31.2898 134.014 30.9687 133.736 30.6733C133.457 30.3778 133.062 30.233 132.551 30.2386C132.21 30.2386 131.915 30.3153 131.665 30.4688C131.415 30.6165 131.219 30.8125 131.077 31.0568C130.94 31.2955 130.872 31.5625 130.872 31.858C130.872 32.2216 130.974 32.5909 131.179 32.9659C131.384 33.3409 131.656 33.7386 131.997 34.1591C132.338 34.5739 132.71 35.0227 133.114 35.5057L141.389 45H137.605L130.702 37.3125C130.247 36.7955 129.793 36.2557 129.338 35.6932C128.889 35.125 128.514 34.5227 128.213 33.8864C127.912 33.2443 127.761 32.5483 127.761 31.7983C127.761 30.9517 127.957 30.1903 128.349 29.5142C128.747 28.8381 129.304 28.304 130.02 27.9119C130.736 27.5142 131.571 27.3153 132.526 27.3153C133.457 27.3153 134.261 27.5057 134.938 27.8864C135.619 28.2614 136.142 28.7614 136.506 29.3864C136.875 30.0057 137.06 30.6875 137.06 31.4318C137.06 32.2557 136.855 33.0028 136.446 33.6733C136.043 34.3381 135.474 34.9347 134.741 35.4631L131.179 38.0284C130.696 38.3807 130.338 38.7415 130.105 39.1108C129.878 39.4744 129.764 39.8239 129.764 40.1591C129.764 40.5739 129.866 40.946 130.071 41.2756C130.276 41.6051 130.565 41.8665 130.94 42.0597C131.315 42.2472 131.756 42.3409 132.261 42.3409C132.875 42.3409 133.48 42.2017 134.077 41.9233C134.679 41.6392 135.224 41.2386 135.713 40.7216C136.207 40.1989 136.602 39.5795 136.898 38.8636C137.193 38.1477 137.341 37.3551 137.341 36.4858H140.349C140.349 37.554 140.233 38.517 140 39.375C139.767 40.2273 139.443 40.9716 139.028 41.608C138.614 42.2386 138.139 42.7557 137.605 43.1591C137.435 43.267 137.27 43.3693 137.111 43.4659C136.952 43.5625 136.787 43.6648 136.616 43.7727C135.969 44.2955 135.244 44.6733 134.443 44.9062C133.648 45.1392 132.861 45.2557 132.082 45.2557ZM60.517 74V56.5455H72.2784V59.5881H64.2074V63.7472H71.6733V66.7898H64.2074V70.9574H72.3125V74H60.517ZM78.7749 66.4318V74H75.1442V60.9091H78.6044V63.2188H78.7578C79.0476 62.4574 79.5334 61.8551 80.2152 61.4119C80.897 60.9631 81.7237 60.7386 82.6953 60.7386C83.6044 60.7386 84.397 60.9375 85.0732 61.3352C85.7493 61.733 86.2749 62.3011 86.6499 63.0398C87.0249 63.7727 87.2124 64.6477 87.2124 65.6648V74H83.5817V66.3125C83.5874 65.5114 83.3828 64.8864 82.968 64.4375C82.5533 63.983 81.9822 63.7557 81.255 63.7557C80.7663 63.7557 80.3345 63.8608 79.9595 64.071C79.5902 64.2812 79.3004 64.5881 79.0902 64.9915C78.8857 65.3892 78.7805 65.8693 78.7749 66.4318ZM96.0398 74.2557C94.6932 74.2557 93.5341 73.983 92.5625 73.4375C91.5966 72.8864 90.8523 72.108 90.3295 71.1023C89.8068 70.0909 89.5455 68.8949 89.5455 67.5142C89.5455 66.1676 89.8068 64.9858 90.3295 63.9688C90.8523 62.9517 91.5881 62.1591 92.5369 61.5909C93.4915 61.0227 94.6108 60.7386 95.8949 60.7386C96.7585 60.7386 97.5625 60.8778 98.3068 61.1562C99.0568 61.429 99.7102 61.8409 100.267 62.392C100.83 62.9432 101.267 63.6364 101.58 64.4716C101.892 65.3011 102.048 66.2727 102.048 67.3864V68.3835H90.9943V66.1335H98.6307C98.6307 65.6108 98.517 65.1477 98.2898 64.7443C98.0625 64.3409 97.7472 64.0256 97.3438 63.7983C96.946 63.5653 96.483 63.4489 95.9545 63.4489C95.4034 63.4489 94.9148 63.5767 94.4886 63.8324C94.0682 64.0824 93.7386 64.4205 93.5 64.8466C93.2614 65.267 93.1392 65.7358 93.1335 66.2528V68.392C93.1335 69.0398 93.2528 69.5994 93.4915 70.071C93.7358 70.5426 94.0795 70.9062 94.5227 71.1619C94.9659 71.4176 95.4915 71.5455 96.0994 71.5455C96.5028 71.5455 96.8722 71.4886 97.2074 71.375C97.5426 71.2614 97.8295 71.0909 98.0682 70.8636C98.3068 70.6364 98.4886 70.358 98.6136 70.0284L101.972 70.25C101.801 71.0568 101.452 71.7614 100.923 72.3636C100.401 72.9602 99.7244 73.4261 98.8949 73.7614C98.071 74.0909 97.1193 74.2557 96.0398 74.2557ZM104.418 74V60.9091H107.938V63.1932H108.074C108.313 62.3807 108.713 61.767 109.276 61.3523C109.838 60.9318 110.486 60.7216 111.219 60.7216C111.401 60.7216 111.597 60.733 111.807 60.7557C112.017 60.7784 112.202 60.8097 112.361 60.8494V64.071C112.19 64.0199 111.955 63.9744 111.653 63.9347C111.352 63.8949 111.077 63.875 110.827 63.875C110.293 63.875 109.815 63.9915 109.395 64.2244C108.98 64.4517 108.651 64.7699 108.406 65.179C108.168 65.5881 108.048 66.0597 108.048 66.5938V74H104.418ZM119.526 79.1818C118.35 79.1818 117.342 79.0199 116.501 78.696C115.665 78.3778 115.001 77.9432 114.506 77.392C114.012 76.8409 113.691 76.2216 113.543 75.5341L116.901 75.0824C117.004 75.3438 117.165 75.5881 117.387 75.8153C117.609 76.0426 117.901 76.2244 118.265 76.3608C118.634 76.5028 119.083 76.5739 119.612 76.5739C120.401 76.5739 121.052 76.3807 121.563 75.9943C122.08 75.6136 122.339 74.9744 122.339 74.0767V71.6818H122.185C122.026 72.0455 121.788 72.3892 121.469 72.7131C121.151 73.0369 120.742 73.3011 120.242 73.5057C119.742 73.7102 119.146 73.8125 118.452 73.8125C117.469 73.8125 116.575 73.5852 115.768 73.1307C114.967 72.6705 114.327 71.9687 113.85 71.0256C113.379 70.0767 113.143 68.8778 113.143 67.429C113.143 65.946 113.384 64.7074 113.867 63.7131C114.35 62.7187 114.992 61.9744 115.793 61.4801C116.6 60.9858 117.484 60.7386 118.444 60.7386C119.177 60.7386 119.79 60.8636 120.285 61.1136C120.779 61.358 121.177 61.6648 121.478 62.0341C121.785 62.3977 122.021 62.7557 122.185 63.108H122.322V60.9091H125.927V74.1278C125.927 75.2415 125.654 76.1733 125.109 76.9233C124.563 77.6733 123.808 78.2358 122.842 78.6108C121.881 78.9915 120.776 79.1818 119.526 79.1818ZM119.603 71.0852C120.188 71.0852 120.683 70.9403 121.086 70.6506C121.495 70.3551 121.808 69.9347 122.023 69.3892C122.245 68.8381 122.356 68.179 122.356 67.4119C122.356 66.6449 122.248 65.9801 122.032 65.4176C121.816 64.8494 121.504 64.4091 121.094 64.0966C120.685 63.7841 120.188 63.6278 119.603 63.6278C119.006 63.6278 118.504 63.7898 118.094 64.1136C117.685 64.4318 117.376 64.875 117.165 65.4432C116.955 66.0114 116.85 66.6676 116.85 67.4119C116.85 68.1676 116.955 68.821 117.165 69.3722C117.381 69.9176 117.691 70.3409 118.094 70.642C118.504 70.9375 119.006 71.0852 119.603 71.0852ZM131.058 78.9091C130.597 78.9091 130.165 78.8722 129.762 78.7983C129.364 78.7301 129.035 78.642 128.773 78.5341L129.592 75.8239C130.018 75.9545 130.401 76.0256 130.742 76.0369C131.089 76.0483 131.387 75.9688 131.637 75.7983C131.893 75.6278 132.1 75.3381 132.259 74.929L132.472 74.375L127.776 60.9091H131.594L134.305 70.5227H134.441L137.177 60.9091H141.021L135.933 75.4148C135.688 76.1193 135.356 76.733 134.935 77.2557C134.521 77.7841 133.995 78.1903 133.359 78.4744C132.722 78.7642 131.955 78.9091 131.058 78.9091Z" fill="#F1F0F3"/>
</g>
<defs>
<radialGradient id="paint0_radial_614_581" cx="0" cy="0" r="1" gradientUnits="userSpaceOnUse" gradientTransform="translate(441 26) rotate(143.644) scale(423.417 305.716)">
<stop stop-color="#405A9C"/>
<stop offset="1" stop-color="#161F36"/>
</radialGradient>
<clipPath id="clip0_614_581">
<rect width="200" height="277" fill="white"/>
</clipPath>
</defs>
</svg>
