<svg xmlns="http://www.w3.org/2000/svg" width="73" height="73" viewBox="0 0 73 73" fill="none">
  <path d="M65.6682 15.1161C64.9811 14.1631 63.6493 13.9395 62.6959 14.6263C61.7424 15.3131 61.5187 16.6441 62.2058 17.5971C66.1157 23.0436 68.1824 29.4805 68.1824 36.2043C68.1824 53.8165 53.8424 68.1494 36.2215 68.1494C18.6006 68.1494 4.26057 53.8165 4.26057 36.2043C4.26057 18.5921 18.6006 4.25915 36.2215 4.25915C41.8146 4.25915 47.317 5.72325 52.1324 8.49183C53.1498 9.07749 54.4548 8.7261 55.0408 7.70919C55.6267 6.68697 55.2751 5.38793 54.2577 4.80227C48.7979 1.66104 42.5603 0 36.2209 0C16.2464 0 0 16.2383 0 36.203C0 56.1677 16.2464 72.406 36.2209 72.406C56.1955 72.406 72.4418 56.1677 72.4418 36.203C72.4418 28.5789 70.098 21.2908 65.6662 15.1139L65.6682 15.1161Z" fill="#A4EE95"/>
  <path d="M36.0197 30.4971C34.2406 28.4792 31.2151 25.3221 26.9217 21.787C26.0907 21.1001 24.8815 21.1427 24.0985 21.8828C23.3155 22.6228 23.209 23.8261 23.8482 24.6939C31.3482 34.8575 34.1288 45.1656 34.1554 45.2665C34.3844 46.1396 35.1461 46.7732 36.0463 46.8478C36.1102 46.8531 36.1635 46.8531 36.2221 46.8531C37.0584 46.8531 37.8255 46.358 38.1717 45.586C41.8046 37.3816 58.5949 12.5028 71.4962 3.90384C72.4444 3.27028 72.7267 2.0085 72.1408 1.03412C71.5548 0.0598173 70.303 -0.280923 69.3017 0.262122C61.0027 4.75567 43.8508 19.3859 36.0208 30.4981L36.0197 30.4971ZM36.6376 39.2871C36.2541 38.2969 35.8013 37.1841 35.2687 35.9755C35.5936 36.1353 35.9558 36.2151 36.3287 36.1992C37.0371 36.1672 37.687 35.7786 38.0545 35.1663C39.775 32.3019 42.3958 29.033 45.4693 25.6948C41.8578 30.7154 38.7736 35.5229 36.6376 39.2871Z" fill="#A4EE95"/>
</svg>