<svg width="51" height="32" viewBox="0 0 51 32" fill="none" xmlns="http://www.w3.org/2000/svg">
<rect x="0.5" y="0.5" width="50" height="31" rx="15.5" fill="white"/>
<rect x="0.5" y="0.5" width="50" height="31" rx="15.5" stroke="#E4E4E7"/>
<path d="M18.1162 14V20H17.2522V14H18.1162ZM17.7442 12.848C17.5282 12.848 17.3522 12.784 17.2162 12.656C17.0882 12.52 17.0242 12.344 17.0242 12.128C17.0242 11.912 17.0882 11.74 17.2162 11.612C17.3522 11.476 17.5282 11.408 17.7442 11.408C17.9602 11.408 18.1322 11.476 18.2602 11.612C18.3962 11.74 18.4642 11.912 18.4642 12.128C18.4642 12.344 18.3962 12.52 18.2602 12.656C18.1322 12.784 17.9602 12.848 17.7442 12.848ZM23.3345 11.96C24.0625 11.96 24.6905 12.128 25.2185 12.464C25.7545 12.792 26.1665 13.26 26.4545 13.868C26.7425 14.476 26.8865 15.2 26.8865 16.04C26.8865 16.88 26.7425 17.604 26.4545 18.212C26.1665 18.82 25.7545 19.292 25.2185 19.628C24.6905 19.956 24.0625 20.12 23.3345 20.12C22.6065 20.12 21.9745 19.956 21.4385 19.628C20.9105 19.292 20.5025 18.82 20.2145 18.212C19.9265 17.604 19.7825 16.88 19.7825 16.04C19.7825 15.2 19.9265 14.476 20.2145 13.868C20.5025 13.26 20.9105 12.792 21.4385 12.464C21.9745 12.128 22.6065 11.96 23.3345 11.96ZM23.3345 12.764C22.7905 12.764 22.3185 12.896 21.9185 13.16C21.5265 13.424 21.2225 13.8 21.0065 14.288C20.7905 14.776 20.6825 15.36 20.6825 16.04C20.6825 16.72 20.7905 17.304 21.0065 17.792C21.2225 18.28 21.5265 18.656 21.9185 18.92C22.3185 19.184 22.7905 19.316 23.3345 19.316C23.8785 19.316 24.3465 19.184 24.7385 18.92C25.1385 18.656 25.4465 18.28 25.6625 17.792C25.8785 17.304 25.9865 16.72 25.9865 16.04C25.9865 15.36 25.8785 14.776 25.6625 14.288C25.4465 13.8 25.1385 13.424 24.7385 13.16C24.3465 12.896 23.8785 12.764 23.3345 12.764ZM31.1415 11.96C31.8215 11.96 32.4015 12.104 32.8815 12.392C33.3695 12.672 33.7695 13.096 34.0815 13.664L33.3735 14.216C33.1095 13.696 32.7895 13.324 32.4135 13.1C32.0375 12.876 31.5855 12.764 31.0575 12.764C30.6415 12.764 30.2975 12.828 30.0255 12.956C29.7535 13.076 29.5495 13.244 29.4135 13.46C29.2775 13.668 29.2095 13.904 29.2095 14.168C29.2095 14.472 29.3015 14.736 29.4855 14.96C29.6695 15.176 30.0295 15.348 30.5655 15.476L32.1735 15.848C32.9015 16.016 33.4135 16.268 33.7095 16.604C34.0055 16.932 34.1535 17.348 34.1535 17.852C34.1535 18.3 34.0295 18.696 33.7815 19.04C33.5415 19.376 33.2015 19.64 32.7615 19.832C32.3295 20.024 31.8215 20.12 31.2375 20.12C30.6855 20.12 30.1935 20.044 29.7615 19.892C29.3375 19.732 28.9775 19.516 28.6815 19.244C28.3855 18.972 28.1455 18.664 27.9615 18.32L28.6935 17.708C28.8375 18.028 29.0255 18.312 29.2575 18.56C29.4975 18.8 29.7855 18.988 30.1215 19.124C30.4655 19.252 30.8495 19.316 31.2735 19.316C31.6735 19.316 32.0215 19.264 32.3175 19.16C32.6135 19.048 32.8415 18.888 33.0015 18.68C33.1695 18.472 33.2535 18.22 33.2535 17.924C33.2535 17.644 33.1615 17.4 32.9775 17.192C32.8015 16.984 32.4775 16.824 32.0055 16.712L30.2775 16.304C29.8055 16.192 29.4215 16.04 29.1255 15.848C28.8375 15.648 28.6295 15.416 28.5015 15.152C28.3735 14.888 28.3095 14.6 28.3095 14.288C28.3095 13.864 28.4215 13.476 28.6455 13.124C28.8775 12.772 29.2055 12.492 29.6295 12.284C30.0535 12.068 30.5575 11.96 31.1415 11.96Z" fill="#52525B"/>
</svg>
