<svg width="376" height="211" viewBox="0 0 376 211" fill="none" xmlns="http://www.w3.org/2000/svg">
<rect x="0.5" y="0.5" width="375" height="210" rx="23.5" fill="white" stroke="#E7E7E9"/>
<path d="M304 66C304 64.8954 304.895 64 306 64H346C347.105 64 348 64.8954 348 66V211H304V66Z" fill="#FF5F00"/>
<path d="M222 129C222 127.895 222.895 127 224 127H264C265.105 127 266 127.895 266 129V211H222V129Z" fill="#FEDFBC"/>
<path d="M130 94C130 92.8954 130.895 92 132 92H172C173.105 92 174 92.8954 174 94V211H130V94Z" fill="#F4F4F5"/>
<path d="M43 178C43 176.895 43.8954 176 45 176H85C86.1046 176 87 176.895 87 178V211H43V178Z" fill="#F4F4F5"/>
<rect x="43" y="21" width="305" height="8" rx="4" fill="#F4F4F5"/>
<rect x="43" y="39" width="305" height="8" rx="4" fill="#F4F4F5"/>
<path d="M43 25C43 22.7909 44.7909 21 47 21H274C276.209 21 278 22.7909 278 25C278 27.2091 276.209 29 274 29H47C44.7909 29 43 27.2091 43 25Z" fill="#FF5F00"/>
<path d="M43 43C43 40.7909 44.7909 39 47 39H197C199.209 39 201 40.7909 201 43C201 45.2091 199.209 47 197 47H47C44.7909 47 43 45.2091 43 43Z" fill="#FEDFBC"/>
</svg>
