<svg width="75" height="32" viewBox="0 0 75 32" fill="none" xmlns="http://www.w3.org/2000/svg">
<rect x="0.5" y="0.5" width="74" height="31" rx="15.5" fill="white"/>
<rect x="0.5" y="0.5" width="74" height="31" rx="15.5" stroke="#E4E4E7"/>
<path d="M23.7194 20H22.7954L21.9554 17.732H18.4514L17.6114 20H16.6994L19.6994 12.08H20.7314L23.7194 20ZM18.7514 16.916H21.6554L20.2034 12.92L18.7514 16.916ZM24.8692 20V14H25.6252L25.6972 15.38L25.5652 15.26C25.7332 14.78 26.0092 14.432 26.3932 14.216C26.7772 13.992 27.2012 13.88 27.6652 13.88C28.0732 13.88 28.4412 13.964 28.7692 14.132C29.1052 14.3 29.3732 14.552 29.5732 14.888C29.7732 15.216 29.8732 15.636 29.8732 16.148V20H29.0092V16.448C29.0092 15.784 28.8692 15.316 28.5892 15.044C28.3092 14.772 27.9612 14.636 27.5452 14.636C27.2572 14.636 26.9732 14.708 26.6932 14.852C26.4132 14.996 26.1812 15.224 25.9972 15.536C25.8212 15.848 25.7332 16.256 25.7332 16.76V20H24.8692ZM33.9859 20.12C33.5059 20.12 33.0659 19.996 32.6659 19.748C32.2739 19.5 31.9579 19.144 31.7179 18.68C31.4859 18.208 31.3699 17.648 31.3699 17C31.3699 16.336 31.4939 15.772 31.7419 15.308C31.9899 14.844 32.3179 14.492 32.7259 14.252C33.1339 14.004 33.5779 13.88 34.0579 13.88C34.5459 13.88 34.9699 14.016 35.3299 14.288C35.6899 14.552 35.9299 14.908 36.0499 15.356L35.9419 15.428V11.24H36.8059V20H36.0499L35.9659 18.488L36.0859 18.428C36.0299 18.788 35.8979 19.096 35.6899 19.352C35.4819 19.6 35.2299 19.792 34.9339 19.928C34.6379 20.056 34.3219 20.12 33.9859 20.12ZM34.0819 19.364C34.4499 19.364 34.7739 19.268 35.0539 19.076C35.3339 18.876 35.5499 18.592 35.7019 18.224C35.8619 17.856 35.9419 17.424 35.9419 16.928C35.9419 16.448 35.8619 16.04 35.7019 15.704C35.5499 15.36 35.3379 15.096 35.0659 14.912C34.7939 14.728 34.4819 14.636 34.1299 14.636C33.5379 14.636 33.0739 14.852 32.7379 15.284C32.4019 15.708 32.2339 16.28 32.2339 17C32.2339 17.72 32.3979 18.296 32.7259 18.728C33.0539 19.152 33.5059 19.364 34.0819 19.364ZM38.7681 20V14H39.4881L39.5961 15.056C39.7401 14.68 39.9641 14.392 40.2681 14.192C40.5721 13.984 40.9361 13.88 41.3601 13.88C41.4721 13.88 41.5841 13.892 41.6961 13.916C41.8081 13.932 41.9041 13.968 41.9841 14.024L41.8401 14.804C41.7601 14.764 41.6681 14.736 41.5641 14.72C41.4681 14.696 41.3321 14.684 41.1561 14.684C40.9161 14.684 40.6761 14.764 40.4361 14.924C40.2041 15.076 40.0121 15.304 39.8601 15.608C39.7081 15.912 39.6321 16.284 39.6321 16.724V20H38.7681ZM45.2866 13.88C45.8306 13.88 46.3106 14.004 46.7266 14.252C47.1426 14.5 47.4706 14.86 47.7106 15.332C47.9506 15.796 48.0706 16.352 48.0706 17C48.0706 17.648 47.9506 18.208 47.7106 18.68C47.4706 19.144 47.1426 19.5 46.7266 19.748C46.3106 19.996 45.8306 20.12 45.2866 20.12C44.7506 20.12 44.2706 19.996 43.8466 19.748C43.4306 19.5 43.1026 19.144 42.8626 18.68C42.6226 18.208 42.5026 17.648 42.5026 17C42.5026 16.352 42.6226 15.796 42.8626 15.332C43.1026 14.86 43.4306 14.5 43.8466 14.252C44.2706 14.004 44.7506 13.88 45.2866 13.88ZM45.2866 14.624C44.8946 14.624 44.5546 14.72 44.2666 14.912C43.9786 15.104 43.7546 15.376 43.5946 15.728C43.4426 16.08 43.3666 16.504 43.3666 17C43.3666 17.488 43.4426 17.912 43.5946 18.272C43.7546 18.624 43.9786 18.896 44.2666 19.088C44.5546 19.28 44.8946 19.376 45.2866 19.376C45.6866 19.376 46.0266 19.28 46.3066 19.088C46.5946 18.896 46.8146 18.624 46.9666 18.272C47.1266 17.912 47.2066 17.488 47.2066 17C47.2066 16.504 47.1266 16.08 46.9666 15.728C46.8146 15.376 46.5946 15.104 46.3066 14.912C46.0266 14.72 45.6866 14.624 45.2866 14.624ZM50.4841 14V20H49.6201V14H50.4841ZM50.1121 12.848C49.8961 12.848 49.7201 12.784 49.5841 12.656C49.4561 12.52 49.3921 12.344 49.3921 12.128C49.3921 11.912 49.4561 11.74 49.5841 11.612C49.7201 11.476 49.8961 11.408 50.1121 11.408C50.3281 11.408 50.5001 11.476 50.6281 11.612C50.7641 11.74 50.8321 11.912 50.8321 12.128C50.8321 12.344 50.7641 12.52 50.6281 12.656C50.5001 12.784 50.3281 12.848 50.1121 12.848ZM54.6704 20.12C54.1904 20.12 53.7504 19.996 53.3504 19.748C52.9584 19.5 52.6424 19.144 52.4024 18.68C52.1704 18.208 52.0544 17.648 52.0544 17C52.0544 16.336 52.1784 15.772 52.4264 15.308C52.6744 14.844 53.0024 14.492 53.4104 14.252C53.8184 14.004 54.2624 13.88 54.7424 13.88C55.2304 13.88 55.6544 14.016 56.0144 14.288C56.3744 14.552 56.6144 14.908 56.7344 15.356L56.6264 15.428V11.24H57.4904V20H56.7344L56.6504 18.488L56.7704 18.428C56.7144 18.788 56.5824 19.096 56.3744 19.352C56.1664 19.6 55.9144 19.792 55.6184 19.928C55.3224 20.056 55.0064 20.12 54.6704 20.12ZM54.7664 19.364C55.1344 19.364 55.4584 19.268 55.7384 19.076C56.0184 18.876 56.2344 18.592 56.3864 18.224C56.5464 17.856 56.6264 17.424 56.6264 16.928C56.6264 16.448 56.5464 16.04 56.3864 15.704C56.2344 15.36 56.0224 15.096 55.7504 14.912C55.4784 14.728 55.1664 14.636 54.8144 14.636C54.2224 14.636 53.7584 14.852 53.4224 15.284C53.0864 15.708 52.9184 16.28 52.9184 17C52.9184 17.72 53.0824 18.296 53.4104 18.728C53.7384 19.152 54.1904 19.364 54.7664 19.364Z" fill="#52525B"/>
</svg>
