<svg width="1440" height="135" viewBox="0 0 1440 135" fill="none" xmlns="http://www.w3.org/2000/svg">
<path d="M166.854 117.927C166.854 119.494 166.56 120.837 165.973 121.954C165.391 123.067 164.595 123.919 163.587 124.511C162.583 125.103 161.444 125.399 160.17 125.399C158.897 125.399 157.756 125.103 156.747 124.511C155.743 123.914 154.948 123.06 154.361 121.947C153.778 120.83 153.487 119.49 153.487 117.927C153.487 116.36 153.778 115.02 154.361 113.907C154.948 112.79 155.743 111.935 156.747 111.343C157.756 110.752 158.897 110.456 160.17 110.456C161.444 110.456 162.583 110.752 163.587 111.343C164.595 111.935 165.391 112.79 165.973 113.907C166.56 115.02 166.854 116.36 166.854 117.927ZM164.205 117.927C164.205 116.824 164.032 115.894 163.686 115.136C163.345 114.374 162.872 113.798 162.266 113.41C161.66 113.017 160.961 112.821 160.17 112.821C159.38 112.821 158.681 113.017 158.075 113.41C157.469 113.798 156.993 114.374 156.648 115.136C156.307 115.894 156.136 116.824 156.136 117.927C156.136 119.03 156.307 119.963 156.648 120.726C156.993 121.483 157.469 122.058 158.075 122.451C158.681 122.84 159.38 123.034 160.17 123.034C160.961 123.034 161.66 122.84 162.266 122.451C162.872 122.058 163.345 121.483 163.686 120.726C164.032 119.963 164.205 119.03 164.205 117.927ZM171.483 125.2L168.4 114.291H171.021L172.939 121.961H173.038L174.998 114.291H177.591L179.551 121.919H179.657L181.547 114.291H184.174L181.085 125.2H178.407L176.362 117.828H176.213L174.167 125.2H171.483ZM188.54 118.808V125.2H185.969V114.291H188.427V116.145H188.555C188.806 115.534 189.206 115.048 189.755 114.689C190.309 114.329 190.993 114.149 191.808 114.149C192.56 114.149 193.216 114.31 193.775 114.632C194.338 114.954 194.774 115.42 195.082 116.031C195.394 116.642 195.548 117.383 195.543 118.254V125.2H192.972V118.652C192.972 117.922 192.783 117.352 192.404 116.94C192.03 116.528 191.512 116.322 190.849 116.322C190.399 116.322 189.999 116.422 189.648 116.62C189.303 116.815 189.031 117.096 188.832 117.466C188.638 117.835 188.54 118.282 188.54 118.808ZM202.987 125.413C201.893 125.413 200.948 125.186 200.153 124.731C199.362 124.272 198.754 123.623 198.327 122.785C197.901 121.942 197.688 120.95 197.688 119.809C197.688 118.687 197.901 117.702 198.327 116.855C198.758 116.003 199.36 115.34 200.131 114.866C200.903 114.388 201.81 114.149 202.852 114.149C203.524 114.149 204.158 114.258 204.755 114.476C205.356 114.689 205.887 115.02 206.346 115.47C206.81 115.92 207.174 116.493 207.44 117.189C207.705 117.88 207.837 118.704 207.837 119.66V120.449H198.896V118.716H205.373C205.368 118.223 205.262 117.785 205.053 117.402C204.845 117.013 204.554 116.708 204.18 116.485C203.81 116.263 203.379 116.152 202.887 116.152C202.362 116.152 201.9 116.279 201.502 116.535C201.104 116.786 200.794 117.118 200.572 117.529C200.354 117.937 200.243 118.384 200.238 118.872V120.385C200.238 121.019 200.354 121.564 200.586 122.018C200.818 122.468 201.142 122.814 201.559 123.055C201.976 123.292 202.463 123.41 203.022 123.41C203.396 123.41 203.735 123.358 204.038 123.254C204.341 123.145 204.603 122.986 204.826 122.778C205.049 122.57 205.217 122.312 205.33 122.004L207.731 122.274C207.579 122.908 207.29 123.462 206.864 123.936C206.443 124.404 205.903 124.769 205.245 125.029C204.587 125.285 203.834 125.413 202.987 125.413ZM210.012 125.2V114.291H212.505V116.109H212.619C212.818 115.479 213.159 114.994 213.642 114.653C214.129 114.307 214.686 114.135 215.311 114.135C215.453 114.135 215.611 114.142 215.787 114.156C215.967 114.165 216.116 114.182 216.234 114.206V116.571C216.125 116.533 215.952 116.5 215.716 116.471C215.484 116.438 215.259 116.422 215.041 116.422C214.572 116.422 214.151 116.523 213.777 116.727C213.407 116.926 213.116 117.203 212.903 117.558C212.69 117.913 212.583 118.323 212.583 118.787V125.2H210.012ZM226.564 117.174L224.221 117.43C224.154 117.193 224.038 116.971 223.873 116.762C223.712 116.554 223.494 116.386 223.219 116.258C222.944 116.13 222.608 116.066 222.211 116.066C221.676 116.066 221.226 116.182 220.861 116.414C220.501 116.646 220.324 116.947 220.328 117.316C220.324 117.634 220.44 117.892 220.676 118.091C220.918 118.289 221.316 118.453 221.87 118.581L223.73 118.978C224.763 119.201 225.53 119.554 226.032 120.037C226.538 120.52 226.794 121.152 226.799 121.933C226.794 122.619 226.593 123.226 226.195 123.751C225.802 124.272 225.255 124.679 224.554 124.973C223.854 125.266 223.049 125.413 222.14 125.413C220.804 125.413 219.73 125.134 218.915 124.575C218.101 124.012 217.615 123.228 217.459 122.224L219.966 121.983C220.08 122.475 220.321 122.847 220.691 123.098C221.06 123.349 221.541 123.474 222.132 123.474C222.743 123.474 223.233 123.349 223.603 123.098C223.977 122.847 224.164 122.537 224.164 122.167C224.164 121.855 224.043 121.597 223.801 121.393C223.565 121.19 223.195 121.033 222.694 120.924L220.833 120.534C219.786 120.316 219.012 119.949 218.51 119.433C218.008 118.912 217.76 118.254 217.765 117.458C217.76 116.786 217.942 116.204 218.311 115.711C218.685 115.214 219.204 114.831 219.867 114.561C220.534 114.286 221.304 114.149 222.175 114.149C223.453 114.149 224.46 114.421 225.194 114.966C225.932 115.51 226.389 116.246 226.564 117.174ZM231.49 118.808V125.2H228.919V110.654H231.433V116.145H231.561C231.816 115.529 232.212 115.044 232.747 114.689C233.287 114.329 233.973 114.149 234.806 114.149C235.564 114.149 236.225 114.307 236.788 114.625C237.351 114.942 237.787 115.406 238.095 116.017C238.407 116.628 238.564 117.373 238.564 118.254V125.2H235.993V118.652C235.993 117.918 235.803 117.347 235.424 116.94C235.05 116.528 234.525 116.322 233.848 116.322C233.393 116.322 232.986 116.422 232.626 116.62C232.271 116.815 231.992 117.096 231.788 117.466C231.589 117.835 231.49 118.282 231.49 118.808ZM241.184 125.2V114.291H243.755V125.2H241.184ZM242.477 112.743C242.07 112.743 241.719 112.608 241.426 112.338C241.132 112.063 240.985 111.734 240.985 111.351C240.985 110.962 241.132 110.633 241.426 110.363C241.719 110.089 242.07 109.951 242.477 109.951C242.889 109.951 243.239 110.089 243.528 110.363C243.822 110.633 243.968 110.962 243.968 111.351C243.968 111.734 243.822 112.063 243.528 112.338C243.239 112.608 242.889 112.743 242.477 112.743ZM246.399 129.291V114.291H248.928V116.095H249.077C249.209 115.83 249.396 115.548 249.638 115.25C249.879 114.947 250.206 114.689 250.618 114.476C251.03 114.258 251.555 114.149 252.195 114.149C253.037 114.149 253.797 114.364 254.474 114.795C255.156 115.221 255.696 115.853 256.094 116.691C256.496 117.525 256.697 118.547 256.697 119.76C256.697 120.958 256.501 121.976 256.108 122.814C255.715 123.652 255.18 124.291 254.503 124.731C253.826 125.172 253.059 125.392 252.202 125.392C251.577 125.392 251.058 125.288 250.646 125.079C250.234 124.871 249.903 124.62 249.652 124.326C249.406 124.028 249.214 123.746 249.077 123.481H248.97V129.291H246.399ZM248.92 119.745C248.92 120.451 249.02 121.069 249.219 121.599C249.422 122.129 249.714 122.544 250.092 122.842C250.476 123.136 250.94 123.282 251.484 123.282C252.053 123.282 252.528 123.131 252.912 122.828C253.295 122.52 253.584 122.101 253.778 121.571C253.977 121.036 254.077 120.427 254.077 119.745C254.077 119.068 253.98 118.467 253.786 117.941C253.591 117.416 253.303 117.004 252.919 116.706C252.536 116.407 252.057 116.258 251.484 116.258C250.935 116.258 250.469 116.403 250.085 116.691C249.702 116.98 249.411 117.385 249.212 117.906C249.018 118.427 248.92 119.04 248.92 119.745Z" fill="#595862"/>
<path d="M359.847 110.654H363.071L367.389 121.194H367.56L371.878 110.654H375.102V125.2H372.574V115.207H372.439L368.419 125.157H366.53L362.51 115.186H362.375V125.2H359.847V110.654ZM382.617 125.413C381.551 125.413 380.628 125.179 379.847 124.71C379.066 124.241 378.459 123.585 378.029 122.743C377.602 121.9 377.389 120.915 377.389 119.788C377.389 118.661 377.602 117.674 378.029 116.826C378.459 115.979 379.066 115.321 379.847 114.852C380.628 114.383 381.551 114.149 382.617 114.149C383.682 114.149 384.605 114.383 385.387 114.852C386.168 115.321 386.771 115.979 387.198 116.826C387.628 117.674 387.844 118.661 387.844 119.788C387.844 120.915 387.628 121.9 387.198 122.743C386.771 123.585 386.168 124.241 385.387 124.71C384.605 125.179 383.682 125.413 382.617 125.413ZM382.631 123.353C383.209 123.353 383.691 123.195 384.08 122.878C384.468 122.556 384.757 122.125 384.946 121.585C385.14 121.045 385.237 120.444 385.237 119.781C385.237 119.113 385.14 118.51 384.946 117.97C384.757 117.425 384.468 116.992 384.08 116.67C383.691 116.348 383.209 116.187 382.631 116.187C382.039 116.187 381.547 116.348 381.154 116.67C380.765 116.992 380.474 117.425 380.28 117.97C380.091 118.51 379.996 119.113 379.996 119.781C379.996 120.444 380.091 121.045 380.28 121.585C380.474 122.125 380.765 122.556 381.154 122.878C381.547 123.195 382.039 123.353 382.631 123.353ZM392.597 118.808V125.2H390.026V114.291H392.483V116.145H392.611C392.862 115.534 393.262 115.048 393.812 114.689C394.366 114.329 395.05 114.149 395.864 114.149C396.617 114.149 397.273 114.31 397.831 114.632C398.395 114.954 398.831 115.42 399.138 116.031C399.451 116.642 399.605 117.383 399.6 118.254V125.2H397.029V118.652C397.029 117.922 396.84 117.352 396.461 116.94C396.087 116.528 395.568 116.322 394.905 116.322C394.456 116.322 394.055 116.422 393.705 116.62C393.359 116.815 393.087 117.096 392.888 117.466C392.694 117.835 392.597 118.282 392.597 118.808ZM402.214 125.2V114.291H404.785V125.2H402.214ZM403.506 112.743C403.099 112.743 402.749 112.608 402.455 112.338C402.162 112.063 402.015 111.734 402.015 111.351C402.015 110.962 402.162 110.633 402.455 110.363C402.749 110.089 403.099 109.951 403.506 109.951C403.918 109.951 404.269 110.089 404.557 110.363C404.851 110.633 404.998 110.962 404.998 111.351C404.998 111.734 404.851 112.063 404.557 112.338C404.269 112.608 403.918 112.743 403.506 112.743ZM412.876 114.291V116.279H406.605V114.291H412.876ZM408.153 111.677H410.724V121.919C410.724 122.264 410.776 122.529 410.88 122.714C410.989 122.894 411.131 123.017 411.306 123.083C411.481 123.15 411.676 123.183 411.889 123.183C412.05 123.183 412.196 123.171 412.329 123.147C412.466 123.124 412.57 123.102 412.642 123.083L413.075 125.093C412.937 125.141 412.741 125.193 412.485 125.25C412.234 125.306 411.927 125.34 411.562 125.349C410.918 125.368 410.338 125.271 409.822 125.058C409.306 124.84 408.896 124.504 408.593 124.049C408.295 123.595 408.148 123.027 408.153 122.345V111.677ZM419.667 125.413C418.602 125.413 417.679 125.179 416.898 124.71C416.116 124.241 415.51 123.585 415.079 122.743C414.653 121.9 414.44 120.915 414.44 119.788C414.44 118.661 414.653 117.674 415.079 116.826C415.51 115.979 416.116 115.321 416.898 114.852C417.679 114.383 418.602 114.149 419.667 114.149C420.733 114.149 421.656 114.383 422.437 114.852C423.219 115.321 423.822 115.979 424.248 116.826C424.679 117.674 424.895 118.661 424.895 119.788C424.895 120.915 424.679 121.9 424.248 122.743C423.822 123.585 423.219 124.241 422.437 124.71C421.656 125.179 420.733 125.413 419.667 125.413ZM419.682 123.353C420.259 123.353 420.742 123.195 421.131 122.878C421.519 122.556 421.808 122.125 421.997 121.585C422.191 121.045 422.288 120.444 422.288 119.781C422.288 119.113 422.191 118.51 421.997 117.97C421.808 117.425 421.519 116.992 421.131 116.67C420.742 116.348 420.259 116.187 419.682 116.187C419.09 116.187 418.597 116.348 418.204 116.67C417.816 116.992 417.525 117.425 417.331 117.97C417.141 118.51 417.047 119.113 417.047 119.781C417.047 120.444 417.141 121.045 417.331 121.585C417.525 122.125 417.816 122.556 418.204 122.878C418.597 123.195 419.09 123.353 419.682 123.353ZM427.077 125.2V114.291H429.57V116.109H429.683C429.882 115.479 430.223 114.994 430.706 114.653C431.194 114.307 431.75 114.135 432.375 114.135C432.517 114.135 432.676 114.142 432.851 114.156C433.031 114.165 433.18 114.182 433.298 114.206V116.571C433.19 116.533 433.017 116.5 432.78 116.471C432.548 116.438 432.323 116.422 432.105 116.422C431.637 116.422 431.215 116.523 430.841 116.727C430.472 116.926 430.181 117.203 429.968 117.558C429.754 117.913 429.648 118.323 429.648 118.787V125.2H427.077ZM435.007 125.2V114.291H437.578V125.2H435.007ZM436.299 112.743C435.892 112.743 435.542 112.608 435.248 112.338C434.954 112.063 434.808 111.734 434.808 111.351C434.808 110.962 434.954 110.633 435.248 110.363C435.542 110.089 435.892 109.951 436.299 109.951C436.711 109.951 437.061 110.089 437.35 110.363C437.644 110.633 437.791 110.962 437.791 111.351C437.791 111.734 437.644 112.063 437.35 112.338C437.061 112.608 436.711 112.743 436.299 112.743ZM442.792 118.808V125.2H440.221V114.291H442.679V116.145H442.807C443.058 115.534 443.458 115.048 444.007 114.689C444.561 114.329 445.245 114.149 446.059 114.149C446.812 114.149 447.468 114.31 448.027 114.632C448.59 114.954 449.026 115.42 449.334 116.031C449.646 116.642 449.8 117.383 449.795 118.254V125.2H447.224V118.652C447.224 117.922 447.035 117.352 446.656 116.94C446.282 116.528 445.764 116.322 445.101 116.322C444.651 116.322 444.251 116.422 443.9 116.62C443.555 116.815 443.282 117.096 443.084 117.466C442.89 117.835 442.792 118.282 442.792 118.808ZM457.153 129.518C456.23 129.518 455.437 129.393 454.774 129.142C454.111 128.896 453.578 128.564 453.176 128.147C452.773 127.731 452.494 127.269 452.338 126.762L454.653 126.201C454.757 126.414 454.909 126.625 455.108 126.833C455.307 127.047 455.574 127.222 455.91 127.359C456.251 127.501 456.68 127.572 457.196 127.572C457.925 127.572 458.529 127.395 459.007 127.039C459.485 126.689 459.724 126.111 459.724 125.306V123.24H459.596C459.464 123.505 459.27 123.777 459.014 124.056C458.763 124.336 458.429 124.57 458.013 124.76C457.601 124.949 457.082 125.044 456.457 125.044C455.619 125.044 454.859 124.847 454.177 124.454C453.5 124.056 452.961 123.465 452.558 122.679C452.16 121.888 451.961 120.898 451.961 119.71C451.961 118.512 452.16 117.501 452.558 116.677C452.961 115.849 453.503 115.221 454.184 114.795C454.866 114.364 455.626 114.149 456.464 114.149C457.104 114.149 457.629 114.258 458.041 114.476C458.458 114.689 458.789 114.947 459.035 115.25C459.282 115.548 459.469 115.83 459.596 116.095H459.738V114.291H462.274V125.378C462.274 126.31 462.051 127.082 461.606 127.693C461.161 128.304 460.553 128.761 459.781 129.064C459.009 129.367 458.133 129.518 457.153 129.518ZM457.175 123.027C457.719 123.027 458.183 122.894 458.567 122.629C458.95 122.364 459.241 121.983 459.44 121.485C459.639 120.988 459.738 120.392 459.738 119.696C459.738 119.009 459.639 118.408 459.44 117.892C459.246 117.376 458.957 116.976 458.574 116.691C458.195 116.403 457.729 116.258 457.175 116.258C456.602 116.258 456.123 116.407 455.74 116.706C455.356 117.004 455.068 117.413 454.873 117.934C454.679 118.45 454.582 119.038 454.582 119.696C454.582 120.363 454.679 120.948 454.873 121.45C455.072 121.947 455.363 122.335 455.747 122.615C456.135 122.889 456.611 123.027 457.175 123.027Z" fill="#595862"/>
<path d="M596.474 125.2H593.662L598.783 110.654H602.036L607.163 125.2H604.351L600.466 113.637H600.352L596.474 125.2ZM596.567 119.497H604.237V121.613H596.567V119.497ZM611.537 110.654V125.2H608.966V110.654H611.537ZM619.01 125.413C617.916 125.413 616.972 125.186 616.176 124.731C615.385 124.272 614.777 123.623 614.351 122.785C613.925 121.942 613.712 120.95 613.712 119.809C613.712 118.687 613.925 117.702 614.351 116.855C614.782 116.003 615.383 115.34 616.155 114.866C616.927 114.388 617.833 114.149 618.875 114.149C619.547 114.149 620.182 114.258 620.778 114.476C621.38 114.689 621.91 115.02 622.369 115.47C622.833 115.92 623.198 116.493 623.463 117.189C623.728 117.88 623.861 118.704 623.861 119.66V120.449H614.919V118.716H621.396C621.392 118.223 621.285 117.785 621.077 117.402C620.868 117.013 620.577 116.708 620.203 116.485C619.834 116.263 619.403 116.152 618.911 116.152C618.385 116.152 617.923 116.279 617.526 116.535C617.128 116.786 616.818 117.118 616.595 117.529C616.377 117.937 616.266 118.384 616.261 118.872V120.385C616.261 121.019 616.377 121.564 616.609 122.018C616.841 122.468 617.166 122.814 617.582 123.055C617.999 123.292 618.487 123.41 619.045 123.41C619.42 123.41 619.758 123.358 620.061 123.254C620.364 123.145 620.627 122.986 620.849 122.778C621.072 122.57 621.24 122.312 621.354 122.004L623.754 122.274C623.603 122.908 623.314 123.462 622.888 123.936C622.466 124.404 621.927 124.769 621.268 125.029C620.61 125.285 619.857 125.413 619.01 125.413ZM626.036 125.2V114.291H628.529V116.109H628.642C628.841 115.479 629.182 114.994 629.665 114.653C630.153 114.307 630.709 114.135 631.334 114.135C631.476 114.135 631.635 114.142 631.81 114.156C631.99 114.165 632.139 114.182 632.257 114.206V116.571C632.149 116.533 631.976 116.5 631.739 116.471C631.507 116.438 631.282 116.422 631.064 116.422C630.596 116.422 630.174 116.523 629.8 116.727C629.431 116.926 629.14 117.203 628.926 117.558C628.713 117.913 628.607 118.323 628.607 118.787V125.2H626.036ZM639.999 114.291V116.279H633.728V114.291H639.999ZM635.276 111.677H637.847V121.919C637.847 122.264 637.899 122.529 638.003 122.714C638.112 122.894 638.254 123.017 638.429 123.083C638.605 123.15 638.799 123.183 639.012 123.183C639.173 123.183 639.319 123.171 639.452 123.147C639.589 123.124 639.694 123.102 639.765 123.083L640.198 125.093C640.06 125.141 639.864 125.193 639.608 125.25C639.357 125.306 639.05 125.34 638.685 125.349C638.041 125.368 637.461 125.271 636.945 125.058C636.429 124.84 636.019 124.504 635.716 124.049C635.418 123.595 635.271 123.027 635.276 122.345V111.677Z" fill="#595862"/>
<path d="M795.718 114.653C795.652 114.033 795.373 113.55 794.88 113.204C794.393 112.859 793.758 112.686 792.977 112.686C792.428 112.686 791.957 112.769 791.564 112.934C791.171 113.1 790.87 113.325 790.662 113.609C790.453 113.893 790.347 114.217 790.342 114.582C790.342 114.885 790.411 115.148 790.548 115.37C790.69 115.593 790.882 115.782 791.123 115.939C791.365 116.09 791.632 116.218 791.926 116.322C792.219 116.426 792.515 116.514 792.814 116.585L794.177 116.926C794.726 117.054 795.254 117.226 795.761 117.444C796.272 117.662 796.729 117.937 797.132 118.268C797.539 118.6 797.861 119 798.098 119.468C798.334 119.937 798.453 120.486 798.453 121.116C798.453 121.968 798.235 122.719 797.799 123.368C797.364 124.012 796.734 124.516 795.91 124.88C795.091 125.24 794.099 125.42 792.934 125.42C791.803 125.42 790.82 125.245 789.987 124.895C789.158 124.544 788.51 124.033 788.041 123.36C787.577 122.688 787.326 121.869 787.288 120.903H789.88C789.918 121.41 790.074 121.831 790.349 122.167C790.624 122.503 790.981 122.754 791.422 122.92C791.867 123.086 792.364 123.169 792.913 123.169C793.486 123.169 793.988 123.083 794.419 122.913C794.854 122.738 795.195 122.496 795.441 122.189C795.688 121.876 795.813 121.512 795.818 121.095C795.813 120.716 795.702 120.404 795.484 120.157C795.266 119.906 794.961 119.698 794.568 119.532C794.18 119.362 793.725 119.21 793.204 119.078L791.549 118.652C790.351 118.344 789.404 117.878 788.708 117.253C788.017 116.623 787.672 115.787 787.672 114.745C787.672 113.888 787.904 113.138 788.368 112.494C788.836 111.85 789.473 111.351 790.278 110.995C791.083 110.636 791.994 110.456 793.012 110.456C794.045 110.456 794.949 110.636 795.725 110.995C796.507 111.351 797.12 111.845 797.565 112.48C798.01 113.11 798.24 113.834 798.254 114.653H795.718ZM805.518 125.413C804.424 125.413 803.479 125.186 802.684 124.731C801.893 124.272 801.285 123.623 800.859 122.785C800.433 121.942 800.219 120.95 800.219 119.809C800.219 118.687 800.433 117.702 800.859 116.855C801.29 116.003 801.891 115.34 802.663 114.866C803.434 114.388 804.341 114.149 805.383 114.149C806.055 114.149 806.69 114.258 807.286 114.476C807.888 114.689 808.418 115.02 808.877 115.47C809.341 115.92 809.706 116.493 809.971 117.189C810.236 117.88 810.369 118.704 810.369 119.66V120.449H801.427V118.716H807.904C807.899 118.223 807.793 117.785 807.585 117.402C807.376 117.013 807.085 116.708 806.711 116.485C806.342 116.263 805.911 116.152 805.418 116.152C804.893 116.152 804.431 116.279 804.033 116.535C803.636 116.786 803.326 117.118 803.103 117.529C802.885 117.937 802.774 118.384 802.769 118.872V120.385C802.769 121.019 802.885 121.564 803.117 122.018C803.349 122.468 803.674 122.814 804.09 123.055C804.507 123.292 804.995 123.41 805.553 123.41C805.927 123.41 806.266 123.358 806.569 123.254C806.872 123.145 807.135 122.986 807.357 122.778C807.58 122.57 807.748 122.312 807.862 122.004L810.262 122.274C810.111 122.908 809.822 123.462 809.396 123.936C808.974 124.404 808.434 124.769 807.776 125.029C807.118 125.285 806.365 125.413 805.518 125.413ZM812.544 125.2V114.291H815.037V116.109H815.15C815.349 115.479 815.69 114.994 816.173 114.653C816.661 114.307 817.217 114.135 817.842 114.135C817.984 114.135 818.143 114.142 818.318 114.156C818.498 114.165 818.647 114.182 818.765 114.206V116.571C818.656 116.533 818.484 116.5 818.247 116.471C818.015 116.438 817.79 116.422 817.572 116.422C817.103 116.422 816.682 116.523 816.308 116.727C815.939 116.926 815.647 117.203 815.434 117.558C815.221 117.913 815.115 118.323 815.115 118.787V125.2H812.544ZM830.55 114.291L826.665 125.2H823.824L819.939 114.291H822.68L825.188 122.395H825.301L827.815 114.291H830.55ZM832.329 125.2V114.291H834.9V125.2H832.329ZM833.621 112.743C833.214 112.743 832.864 112.608 832.57 112.338C832.277 112.063 832.13 111.734 832.13 111.351C832.13 110.962 832.277 110.633 832.57 110.363C832.864 110.089 833.214 109.951 833.621 109.951C834.033 109.951 834.384 110.089 834.673 110.363C834.966 110.633 835.113 110.962 835.113 111.351C835.113 111.734 834.966 112.063 834.673 112.338C834.384 112.608 834.033 112.743 833.621 112.743ZM842.302 125.413C841.213 125.413 840.278 125.174 839.497 124.696C838.72 124.217 838.121 123.557 837.7 122.714C837.283 121.867 837.075 120.891 837.075 119.788C837.075 118.68 837.288 117.702 837.714 116.855C838.14 116.003 838.742 115.34 839.518 114.866C840.299 114.388 841.223 114.149 842.288 114.149C843.173 114.149 843.957 114.312 844.639 114.639C845.325 114.961 845.872 115.418 846.279 116.01C846.687 116.597 846.919 117.283 846.975 118.069H844.518C844.419 117.544 844.182 117.106 843.808 116.755C843.439 116.4 842.944 116.223 842.324 116.223C841.798 116.223 841.336 116.365 840.939 116.649C840.541 116.928 840.231 117.331 840.008 117.856C839.79 118.382 839.681 119.012 839.681 119.745C839.681 120.489 839.79 121.128 840.008 121.663C840.226 122.193 840.531 122.603 840.924 122.892C841.322 123.176 841.788 123.318 842.324 123.318C842.702 123.318 843.041 123.247 843.339 123.105C843.642 122.958 843.895 122.747 844.099 122.473C844.303 122.198 844.442 121.864 844.518 121.471H846.975C846.914 122.243 846.687 122.927 846.294 123.524C845.901 124.116 845.366 124.58 844.689 124.916C844.011 125.247 843.216 125.413 842.302 125.413ZM853.916 125.413C852.822 125.413 851.878 125.186 851.082 124.731C850.292 124.272 849.683 123.623 849.257 122.785C848.831 121.942 848.618 120.95 848.618 119.809C848.618 118.687 848.831 117.702 849.257 116.855C849.688 116.003 850.289 115.34 851.061 114.866C851.833 114.388 852.74 114.149 853.781 114.149C854.454 114.149 855.088 114.258 855.685 114.476C856.286 114.689 856.816 115.02 857.276 115.47C857.74 115.92 858.104 116.493 858.369 117.189C858.634 117.88 858.767 118.704 858.767 119.66V120.449H849.825V118.716H856.303C856.298 118.223 856.191 117.785 855.983 117.402C855.775 117.013 855.483 116.708 855.109 116.485C854.74 116.263 854.309 116.152 853.817 116.152C853.291 116.152 852.83 116.279 852.432 116.535C852.034 116.786 851.724 117.118 851.501 117.529C851.284 117.937 851.172 118.384 851.168 118.872V120.385C851.168 121.019 851.284 121.564 851.516 122.018C851.748 122.468 852.072 122.814 852.489 123.055C852.905 123.292 853.393 123.41 853.952 123.41C854.326 123.41 854.664 123.358 854.967 123.254C855.27 123.145 855.533 122.986 855.756 122.778C855.978 122.57 856.146 122.312 856.26 122.004L858.661 122.274C858.509 122.908 858.22 123.462 857.794 123.936C857.373 124.404 856.833 124.769 856.175 125.029C855.517 125.285 854.764 125.413 853.916 125.413Z" fill="#595862"/>
<path d="M1201.86 125.2V110.654H1204.49V122.991H1210.9V125.2H1201.86ZM1217.83 125.413C1216.76 125.413 1215.84 125.179 1215.06 124.71C1214.28 124.241 1213.67 123.585 1213.24 122.743C1212.82 121.9 1212.6 120.915 1212.6 119.788C1212.6 118.661 1212.82 117.674 1213.24 116.826C1213.67 115.979 1214.28 115.321 1215.06 114.852C1215.84 114.383 1216.76 114.149 1217.83 114.149C1218.89 114.149 1219.82 114.383 1220.6 114.852C1221.38 115.321 1221.98 115.979 1222.41 116.826C1222.84 117.674 1223.06 118.661 1223.06 119.788C1223.06 120.915 1222.84 121.9 1222.41 122.743C1221.98 123.585 1221.38 124.241 1220.6 124.71C1219.82 125.179 1218.89 125.413 1217.83 125.413ZM1217.84 123.353C1218.42 123.353 1218.9 123.195 1219.29 122.878C1219.68 122.556 1219.97 122.125 1220.16 121.585C1220.35 121.045 1220.45 120.444 1220.45 119.781C1220.45 119.113 1220.35 118.51 1220.16 117.97C1219.97 117.425 1219.68 116.992 1219.29 116.67C1218.9 116.348 1218.42 116.187 1217.84 116.187C1217.25 116.187 1216.76 116.348 1216.37 116.67C1215.98 116.992 1215.69 117.425 1215.49 117.97C1215.3 118.51 1215.21 119.113 1215.21 119.781C1215.21 120.444 1215.3 121.045 1215.49 121.585C1215.69 122.125 1215.98 122.556 1216.37 122.878C1216.76 123.195 1217.25 123.353 1217.84 123.353ZM1226.47 129.291C1226.12 129.291 1225.79 129.262 1225.49 129.206C1225.2 129.154 1224.96 129.092 1224.79 129.021L1225.39 127.018C1225.76 127.127 1226.09 127.179 1226.39 127.174C1226.68 127.17 1226.94 127.077 1227.16 126.897C1227.39 126.722 1227.58 126.429 1227.74 126.017L1227.96 125.427L1224 114.291H1226.73L1229.24 122.529H1229.36L1231.88 114.291H1234.61L1230.24 126.521C1230.04 127.099 1229.77 127.593 1229.43 128.005C1229.1 128.422 1228.69 128.739 1228.2 128.957C1227.72 129.18 1227.14 129.291 1226.47 129.291ZM1239.22 125.42C1238.53 125.42 1237.9 125.297 1237.35 125.051C1236.8 124.8 1236.37 124.431 1236.04 123.943C1235.73 123.455 1235.57 122.854 1235.57 122.139C1235.57 121.523 1235.68 121.014 1235.91 120.612C1236.14 120.209 1236.45 119.887 1236.84 119.646C1237.23 119.404 1237.67 119.222 1238.17 119.099C1238.66 118.971 1239.18 118.879 1239.71 118.822C1240.35 118.756 1240.87 118.697 1241.26 118.645C1241.66 118.588 1241.95 118.503 1242.13 118.389C1242.31 118.27 1242.41 118.088 1242.41 117.842V117.799C1242.41 117.264 1242.25 116.85 1241.93 116.556C1241.61 116.263 1241.16 116.116 1240.56 116.116C1239.93 116.116 1239.43 116.253 1239.06 116.528C1238.7 116.803 1238.45 117.127 1238.32 117.501L1235.92 117.16C1236.11 116.497 1236.42 115.943 1236.86 115.498C1237.3 115.048 1237.83 114.712 1238.46 114.49C1239.09 114.262 1239.78 114.149 1240.55 114.149C1241.07 114.149 1241.59 114.21 1242.12 114.333C1242.64 114.457 1243.11 114.66 1243.54 114.944C1243.97 115.224 1244.32 115.605 1244.58 116.088C1244.85 116.571 1244.98 117.174 1244.98 117.899V125.2H1242.51V123.701H1242.42C1242.26 124.004 1242.04 124.288 1241.76 124.554C1241.48 124.814 1241.13 125.025 1240.7 125.186C1240.28 125.342 1239.79 125.42 1239.22 125.42ZM1239.89 123.531C1240.4 123.531 1240.85 123.429 1241.23 123.226C1241.61 123.017 1241.9 122.743 1242.1 122.402C1242.31 122.061 1242.41 121.689 1242.41 121.287V120.001C1242.33 120.067 1242.2 120.129 1242 120.186C1241.81 120.243 1241.6 120.292 1241.36 120.335C1241.13 120.378 1240.89 120.415 1240.66 120.449C1240.43 120.482 1240.23 120.51 1240.06 120.534C1239.67 120.586 1239.33 120.671 1239.03 120.789C1238.72 120.908 1238.48 121.074 1238.31 121.287C1238.13 121.495 1238.05 121.765 1238.05 122.096C1238.05 122.57 1238.22 122.927 1238.56 123.169C1238.91 123.41 1239.35 123.531 1239.89 123.531ZM1250.13 110.654V125.2H1247.56V110.654H1250.13ZM1258.23 114.291V116.279H1251.95V114.291H1258.23ZM1253.5 111.677H1256.07V121.919C1256.07 122.264 1256.13 122.529 1256.23 122.714C1256.34 122.894 1256.48 123.017 1256.66 123.083C1256.83 123.15 1257.03 123.183 1257.24 123.183C1257.4 123.183 1257.55 123.171 1257.68 123.147C1257.82 123.124 1257.92 123.102 1257.99 123.083L1258.42 125.093C1258.29 125.141 1258.09 125.193 1257.83 125.25C1257.58 125.306 1257.28 125.34 1256.91 125.349C1256.27 125.368 1255.69 125.271 1255.17 125.058C1254.66 124.84 1254.25 124.504 1253.94 124.049C1253.64 123.595 1253.5 123.027 1253.5 122.345V111.677ZM1261.97 129.291C1261.62 129.291 1261.3 129.262 1261 129.206C1260.71 129.154 1260.47 129.092 1260.3 129.021L1260.89 127.018C1261.27 127.127 1261.6 127.179 1261.9 127.174C1262.19 127.17 1262.45 127.077 1262.67 126.897C1262.9 126.722 1263.09 126.429 1263.25 126.017L1263.47 125.427L1259.51 114.291H1262.24L1264.75 122.529H1264.86L1267.39 114.291H1270.12L1265.75 126.521C1265.55 127.099 1265.28 127.593 1264.94 128.005C1264.61 128.422 1264.19 128.739 1263.71 128.957C1263.22 129.18 1262.65 129.291 1261.97 129.291Z" fill="#595862"/>
<g filter="url(#filter0_d_684_4150)">
<rect x="167" y="12.2" width="77" height="77" rx="11" fill="#FFF7ED"/>
<rect x="167" y="12.2" width="77" height="77" rx="11" stroke="#F97316" stroke-width="2"/>
<path d="M186 45.1541C186 44.4467 186.714 43.9629 187.371 44.2253L203.371 50.6257C203.751 50.7776 204 51.1455 204 51.5544V67.2458C204 67.9532 203.286 68.437 202.629 68.1746L186.629 61.7742C186.249 61.6223 186 61.2544 186 60.8455V45.1541Z" stroke="#F97316" stroke-width="2"/>
<path d="M225 45.1541C225 44.4467 224.286 43.9629 223.629 44.2253L207.629 50.6257C207.249 50.7776 207 51.1455 207 51.5544V67.2458C207 67.9532 207.714 68.437 208.371 68.1746L224.371 61.7742C224.751 61.6223 225 61.2544 225 60.8455V45.1541Z" stroke="#F97316" stroke-width="2"/>
<path d="M190.506 41.925C189.706 41.6044 189.659 40.4885 190.431 40.1027L205.552 32.5413C205.834 32.4006 206.166 32.4006 206.447 32.5413L221.569 40.1027C222.34 40.4885 222.294 41.6045 221.493 41.925L206.371 47.9748C206.133 48.0701 205.867 48.0701 205.628 47.9748L190.506 41.925Z" stroke="#F97316" stroke-width="2"/>
</g>
<line x1="433" y1="50.2" x2="1440" y2="50.2" stroke="#C9C9C9" stroke-width="2"/>
<g filter="url(#filter1_d_684_4150)">
<rect x="579" y="12.2" width="77" height="77" rx="11" fill="#FFF7ED"/>
<rect x="579" y="12.2" width="77" height="77" rx="11" stroke="#F97316" stroke-width="2"/>
<path d="M636.456 56.1597C636.098 55.1321 635.234 54.3313 634.146 54.0201C627.747 52.1842 626.129 45.4655 626.112 45.3978C626.106 45.3716 626.099 45.3453 626.089 45.3191C623.938 39.1422 620.266 37.102 617.563 36.4794C616.756 36.2937 615.991 36.2225 615.3 36.2131C615.265 36.0218 615.221 35.8306 615.157 35.6449C614.52 33.8166 612.649 32.7965 610.982 33.3721C609.317 33.946 608.477 35.898 609.113 37.7264C609.183 37.9251 609.271 38.0939 609.368 38.2495C608.824 38.6827 608.262 39.2115 607.738 39.8603C606.001 42.0112 604.381 45.872 606.531 52.0494C606.541 52.0756 606.55 52.1019 606.563 52.1244C606.593 52.1881 609.513 58.498 605.575 63.8837C604.932 64.7651 604.755 65.8865 605.119 66.9328C605.603 68.3242 606.918 69.2 608.319 69.2C608.683 69.2 609.054 69.14 609.417 69.0162L616.596 66.5447C617.401 67.8686 619.025 68.6431 620.858 68.6431C621.593 68.6431 622.361 68.5193 623.121 68.2568C625.78 67.3417 627.453 65.0502 627.185 62.8994L634.364 60.4279C635.217 60.1354 635.903 59.5297 636.297 58.7215C636.692 57.9151 636.746 57.0038 636.452 56.1561L636.456 56.1597ZM610.54 37.2331C610.177 36.1867 610.597 35.0916 611.476 34.7878C612.357 34.4859 613.367 35.0897 613.731 36.1342C613.75 36.1867 613.758 36.243 613.773 36.2955C612.796 36.4174 612.174 36.6274 612.125 36.6443C612.076 36.6611 611.457 36.8787 610.62 37.3793C610.595 37.3306 610.561 37.2856 610.542 37.233L610.54 37.2331ZM622.633 66.8408C620.8 67.4709 618.953 67.0959 618.088 66.0345L621.89 64.7256C621.89 64.7256 621.895 64.7237 621.899 64.7218L625.716 63.4092C625.697 64.7781 624.469 66.2107 622.635 66.8408L622.633 66.8408ZM634.946 58.0688C634.727 58.5151 634.348 58.8508 633.876 59.012L621.409 63.3025C621.409 63.3025 621.403 63.3044 621.4 63.3062L616.74 64.9095L608.928 67.5967C607.959 67.9343 606.888 67.413 606.533 66.3928C606.346 65.8584 606.446 65.249 606.801 64.7652C611.146 58.8207 608.246 52.1619 607.949 51.5205C605.404 44.1642 608.602 40.5523 610.827 39.0185C610.857 38.9998 610.889 38.9904 610.916 38.966C610.923 38.9604 610.925 38.951 610.933 38.9435C611.815 38.3528 612.523 38.094 612.619 38.0603C612.64 38.0528 614.708 37.359 617.226 37.9365C620.607 38.7166 623.108 41.3513 624.655 45.7691C624.82 46.4535 626.669 53.4331 633.729 55.4585C634.348 55.6347 634.834 56.081 635.032 56.6474C635.197 57.1162 635.166 57.6206 634.948 58.0669L634.946 58.0688Z" fill="#F97316"/>
<path d="M619.246 34.6999C619.476 34.6999 624.727 34.7599 626.171 39.8288C626.265 40.1588 626.567 40.3744 626.895 40.3744C626.963 40.3744 627.033 40.3651 627.101 40.3444C627.501 40.2319 627.735 39.8175 627.621 39.4181C625.866 33.258 619.352 33.2 619.241 33.2C618.824 33.2018 618.49 33.5394 618.49 33.9519C618.492 34.3645 618.829 34.6999 619.246 34.6999Z" fill="#F97316"/>
<path d="M605.317 39.4275C605.645 39.1725 605.704 38.7037 605.447 38.3774C605.191 38.0511 604.719 37.9911 604.389 38.2461C604.338 38.2874 599.209 42.3435 601.666 48.2879C601.787 48.5766 602.068 48.7529 602.364 48.7529C602.46 48.7529 602.556 48.7342 602.65 48.6967C603.035 48.5391 603.22 48.1003 603.061 47.7178C601.045 42.8424 605.143 39.5679 605.317 39.4292L605.317 39.4275Z" fill="#F97316"/>
</g>
<path d="M983.816 125.2V110.654H993.134V112.863H986.45V116.812H992.494V119.021H986.45V125.2H983.816ZM999.449 125.413C998.356 125.413 997.411 125.186 996.616 124.731C995.825 124.272 995.216 123.623 994.79 122.785C994.364 121.942 994.151 120.95 994.151 119.809C994.151 118.687 994.364 117.702 994.79 116.855C995.221 116.003 995.823 115.34 996.594 114.866C997.366 114.388 998.273 114.149 999.314 114.149C999.987 114.149 1000.62 114.258 1001.22 114.476C1001.82 114.689 1002.35 115.02 1002.81 115.47C1003.27 115.92 1003.64 116.493 1003.9 117.189C1004.17 117.88 1004.3 118.704 1004.3 119.66V120.449H995.358V118.716H1001.84C1001.83 118.223 1001.72 117.785 1001.52 117.402C1001.31 117.013 1001.02 116.708 1000.64 116.485C1000.27 116.263 999.842 116.152 999.35 116.152C998.824 116.152 998.363 116.279 997.965 116.535C997.567 116.786 997.257 117.118 997.035 117.529C996.817 117.937 996.706 118.384 996.701 118.872V120.385C996.701 121.019 996.817 121.564 997.049 122.018C997.281 122.468 997.605 122.814 998.022 123.055C998.439 123.292 998.926 123.41 999.485 123.41C999.859 123.41 1000.2 123.358 1000.5 123.254C1000.8 123.145 1001.07 122.986 1001.29 122.778C1001.51 122.57 1001.68 122.312 1001.79 122.004L1004.19 122.274C1004.04 122.908 1003.75 123.462 1003.33 123.936C1002.91 124.404 1002.37 124.769 1001.71 125.029C1001.05 125.285 1000.3 125.413 999.449 125.413ZM1011.3 125.413C1010.21 125.413 1009.27 125.186 1008.47 124.731C1007.68 124.272 1007.07 123.623 1006.65 122.785C1006.22 121.942 1006.01 120.95 1006.01 119.809C1006.01 118.687 1006.22 117.702 1006.65 116.855C1007.08 116.003 1007.68 115.34 1008.45 114.866C1009.22 114.388 1010.13 114.149 1011.17 114.149C1011.84 114.149 1012.48 114.258 1013.07 114.476C1013.67 114.689 1014.2 115.02 1014.66 115.47C1015.13 115.92 1015.49 116.493 1015.76 117.189C1016.02 117.88 1016.16 118.704 1016.16 119.66V120.449H1007.21V118.716H1013.69C1013.69 118.223 1013.58 117.785 1013.37 117.402C1013.16 117.013 1012.87 116.708 1012.5 116.485C1012.13 116.263 1011.7 116.152 1011.21 116.152C1010.68 116.152 1010.22 116.279 1009.82 116.535C1009.42 116.786 1009.11 117.118 1008.89 117.529C1008.67 117.937 1008.56 118.384 1008.56 118.872V120.385C1008.56 121.019 1008.67 121.564 1008.9 122.018C1009.14 122.468 1009.46 122.814 1009.88 123.055C1010.29 123.292 1010.78 123.41 1011.34 123.41C1011.71 123.41 1012.05 123.358 1012.36 123.254C1012.66 123.145 1012.92 122.986 1013.14 122.778C1013.37 122.57 1013.53 122.312 1013.65 122.004L1016.05 122.274C1015.9 122.908 1015.61 123.462 1015.18 123.936C1014.76 124.404 1014.22 124.769 1013.56 125.029C1012.91 125.285 1012.15 125.413 1011.3 125.413ZM1022.38 125.392C1021.52 125.392 1020.76 125.172 1020.08 124.731C1019.4 124.291 1018.87 123.652 1018.47 122.814C1018.08 121.976 1017.88 120.958 1017.88 119.76C1017.88 118.547 1018.08 117.525 1018.48 116.691C1018.88 115.853 1019.42 115.221 1020.11 114.795C1020.79 114.364 1021.55 114.149 1022.39 114.149C1023.03 114.149 1023.55 114.258 1023.96 114.476C1024.37 114.689 1024.7 114.947 1024.94 115.25C1025.18 115.548 1025.37 115.83 1025.5 116.095H1025.61V110.654H1028.19V125.2H1025.66V123.481H1025.5C1025.37 123.746 1025.18 124.028 1024.93 124.326C1024.68 124.62 1024.35 124.871 1023.93 125.079C1023.52 125.288 1023 125.392 1022.38 125.392ZM1023.1 123.282C1023.64 123.282 1024.1 123.136 1024.49 122.842C1024.87 122.544 1025.16 122.129 1025.36 121.599C1025.56 121.069 1025.66 120.451 1025.66 119.745C1025.66 119.04 1025.56 118.427 1025.36 117.906C1025.17 117.385 1024.88 116.98 1024.5 116.691C1024.12 116.403 1023.65 116.258 1023.1 116.258C1022.52 116.258 1022.05 116.407 1021.66 116.706C1021.28 117.004 1020.99 117.416 1020.8 117.941C1020.6 118.467 1020.5 119.068 1020.5 119.745C1020.5 120.427 1020.6 121.036 1020.8 121.571C1020.99 122.101 1021.29 122.52 1021.67 122.828C1022.06 123.131 1022.53 123.282 1023.1 123.282ZM1031.04 125.2V110.654H1033.61V116.095H1033.72C1033.85 115.83 1034.04 115.548 1034.28 115.25C1034.52 114.947 1034.85 114.689 1035.26 114.476C1035.67 114.258 1036.2 114.149 1036.84 114.149C1037.68 114.149 1038.44 114.364 1039.12 114.795C1039.8 115.221 1040.34 115.853 1040.74 116.691C1041.14 117.525 1041.34 118.547 1041.34 119.76C1041.34 120.958 1041.14 121.976 1040.75 122.814C1040.36 123.652 1039.82 124.291 1039.15 124.731C1038.47 125.172 1037.7 125.392 1036.84 125.392C1036.22 125.392 1035.7 125.288 1035.29 125.079C1034.88 124.871 1034.55 124.62 1034.29 124.326C1034.05 124.028 1033.86 123.746 1033.72 123.481H1033.57V125.2H1031.04ZM1033.56 119.745C1033.56 120.451 1033.66 121.069 1033.86 121.599C1034.07 122.129 1034.36 122.544 1034.74 122.842C1035.12 123.136 1035.58 123.282 1036.13 123.282C1036.7 123.282 1037.17 123.131 1037.55 122.828C1037.94 122.52 1038.23 122.101 1038.42 121.571C1038.62 121.036 1038.72 120.427 1038.72 119.745C1038.72 119.068 1038.62 118.467 1038.43 117.941C1038.23 117.416 1037.95 117.004 1037.56 116.706C1037.18 116.407 1036.7 116.258 1036.13 116.258C1035.58 116.258 1035.11 116.403 1034.73 116.691C1034.34 116.98 1034.05 117.385 1033.85 117.906C1033.66 118.427 1033.56 119.04 1033.56 119.745ZM1046.67 125.42C1045.97 125.42 1045.35 125.297 1044.8 125.051C1044.25 124.8 1043.81 124.431 1043.49 123.943C1043.17 123.455 1043.01 122.854 1043.01 122.139C1043.01 121.523 1043.13 121.014 1043.36 120.612C1043.58 120.209 1043.89 119.887 1044.29 119.646C1044.68 119.404 1045.12 119.222 1045.61 119.099C1046.11 118.971 1046.63 118.879 1047.16 118.822C1047.79 118.756 1048.31 118.697 1048.71 118.645C1049.11 118.588 1049.4 118.503 1049.58 118.389C1049.76 118.27 1049.85 118.088 1049.85 117.842V117.799C1049.85 117.264 1049.7 116.85 1049.38 116.556C1049.06 116.263 1048.6 116.116 1048.01 116.116C1047.38 116.116 1046.88 116.253 1046.51 116.528C1046.14 116.803 1045.9 117.127 1045.77 117.501L1043.37 117.16C1043.56 116.497 1043.87 115.943 1044.31 115.498C1044.74 115.048 1045.28 114.712 1045.91 114.49C1046.54 114.262 1047.23 114.149 1047.99 114.149C1048.52 114.149 1049.04 114.21 1049.56 114.333C1050.08 114.457 1050.56 114.66 1050.99 114.944C1051.42 115.224 1051.77 115.605 1052.03 116.088C1052.29 116.571 1052.43 117.174 1052.43 117.899V125.2H1049.95V123.701H1049.87C1049.71 124.004 1049.49 124.288 1049.21 124.554C1048.93 124.814 1048.58 125.025 1048.15 125.186C1047.73 125.342 1047.23 125.42 1046.67 125.42ZM1047.33 123.531C1047.85 123.531 1048.3 123.429 1048.68 123.226C1049.05 123.017 1049.35 122.743 1049.55 122.402C1049.76 122.061 1049.86 121.689 1049.86 121.287V120.001C1049.78 120.067 1049.64 120.129 1049.45 120.186C1049.26 120.243 1049.05 120.292 1048.81 120.335C1048.57 120.378 1048.34 120.415 1048.11 120.449C1047.88 120.482 1047.67 120.51 1047.5 120.534C1047.12 120.586 1046.78 120.671 1046.47 120.789C1046.17 120.908 1045.93 121.074 1045.76 121.287C1045.58 121.495 1045.49 121.765 1045.49 122.096C1045.49 122.57 1045.67 122.927 1046.01 123.169C1046.36 123.41 1046.8 123.531 1047.33 123.531ZM1059.77 125.413C1058.68 125.413 1057.74 125.174 1056.96 124.696C1056.19 124.217 1055.59 123.557 1055.17 122.714C1054.75 121.867 1054.54 120.891 1054.54 119.788C1054.54 118.68 1054.75 117.702 1055.18 116.855C1055.61 116.003 1056.21 115.34 1056.98 114.866C1057.77 114.388 1058.69 114.149 1059.75 114.149C1060.64 114.149 1061.42 114.312 1062.11 114.639C1062.79 114.961 1063.34 115.418 1063.75 116.01C1064.15 116.597 1064.39 117.283 1064.44 118.069H1061.98C1061.89 117.544 1061.65 117.106 1061.27 116.755C1060.91 116.4 1060.41 116.223 1059.79 116.223C1059.26 116.223 1058.8 116.365 1058.41 116.649C1058.01 116.928 1057.7 117.331 1057.47 117.856C1057.26 118.382 1057.15 119.012 1057.15 119.745C1057.15 120.489 1057.26 121.128 1057.47 121.663C1057.69 122.193 1058 122.603 1058.39 122.892C1058.79 123.176 1059.26 123.318 1059.79 123.318C1060.17 123.318 1060.51 123.247 1060.81 123.105C1061.11 122.958 1061.36 122.747 1061.57 122.473C1061.77 122.198 1061.91 121.864 1061.98 121.471H1064.44C1064.38 122.243 1064.15 122.927 1063.76 123.524C1063.37 124.116 1062.83 124.58 1062.16 124.916C1061.48 125.247 1060.68 125.413 1059.77 125.413ZM1068.9 121.777L1068.89 118.673H1069.3L1073.22 114.291H1076.23L1071.4 119.66H1070.87L1068.9 121.777ZM1066.55 125.2V110.654H1069.12V125.2H1066.55ZM1073.4 125.2L1069.85 120.235L1071.58 118.424L1076.48 125.2H1073.4Z" fill="#595862"/>
<g filter="url(#filter2_d_684_4150)">
<rect x="991" y="12.2" width="77" height="77" rx="11" fill="#FFF7ED"/>
<rect x="991" y="12.2" width="77" height="77" rx="11" stroke="#F97316" stroke-width="2"/>
<path fill-rule="evenodd" clip-rule="evenodd" d="M1022.42 68.1797C1021.56 67.9524 1020.82 67.624 1020.22 67.1981C1020.05 67.0797 1019.89 66.9537 1019.74 66.8219C1019.62 67.0415 1019.46 67.2401 1019.29 67.4177L1019.29 67.4197C1018.79 67.9162 1018.1 68.2236 1017.35 68.2236H1011.75C1010.99 68.2236 1010.31 67.9162 1009.81 67.4197C1009.31 66.9231 1009 66.2375 1009 65.4832V48.1927C1009 47.4632 1009.29 46.7967 1009.77 46.302C1009.78 46.2868 1009.79 46.2715 1009.81 46.2562C1010.31 45.7597 1010.99 45.4522 1011.75 45.4522H1017.34C1018.08 45.4522 1018.75 45.7425 1019.24 46.2142C1019.26 46.2276 1019.27 46.241 1019.29 46.2562C1019.62 46.5885 1019.87 47.0068 1020 47.4727C1021.84 46.3594 1023.27 44.7075 1024.3 42.513C1025.54 39.8852 1026.2 36.4859 1026.3 32.3133C1026.3 32.2006 1026.33 32.0956 1026.38 32.002H1026.37C1026.49 31.7614 1026.63 31.5417 1026.77 31.3431C1027.23 30.7282 1027.78 30.3615 1028.43 30.2412C1029.05 30.1266 1029.72 30.2507 1030.45 30.6136C1030.77 30.7721 1031.1 30.9745 1031.43 31.219C1031.46 31.2362 1031.48 31.2553 1031.5 31.2744C1033.07 32.7315 1034.11 34.5935 1034.62 36.8545C1035.07 38.856 1035.1 41.1686 1034.72 43.787L1041.57 43.9207H1041.57C1042.47 43.9417 1043.25 44.02 1043.91 44.1537C1044.62 44.2969 1045.21 44.5031 1045.67 44.7705C1045.68 44.7781 1045.7 44.7858 1045.71 44.7934C1046.98 45.5649 1047.76 46.5351 1048.06 47.7057C1048.33 48.7866 1048.18 50.0031 1047.58 51.3514C1047.89 52.417 1047.92 53.4387 1047.74 54.342C1047.56 55.2987 1047.14 56.1276 1046.57 56.7444C1046.71 57.8922 1046.63 58.9693 1046.36 59.9298C1046.08 60.9783 1045.57 61.8892 1044.88 62.6035C1044.68 63.5889 1044.43 64.454 1044.11 65.1969C1043.75 66.0257 1043.32 66.7113 1042.8 67.2556L1042.79 67.2651L1042.79 67.267C1042.52 67.5439 1042.21 67.7616 1041.87 67.922C1041.53 68.0805 1041.16 68.1798 1040.76 68.218C1040.74 68.2199 1040.72 68.2219 1040.69 68.2219V68.2238H1022.68C1022.59 68.2238 1022.5 68.2083 1022.42 68.1797ZM1018.62 65.1585V48.1945C1018.62 47.8451 1018.48 47.5261 1018.25 47.2951L1018.22 47.2645C1017.99 47.0506 1017.68 46.9208 1017.35 46.9208L1011.75 46.9189C1011.4 46.9189 1011.08 47.0621 1010.85 47.2932C1010.84 47.3027 1010.83 47.3142 1010.82 47.3237C1010.6 47.551 1010.47 47.8565 1010.47 48.1926V65.4832C1010.47 65.8326 1010.61 66.1516 1010.85 66.3826C1011.08 66.6137 1011.4 66.7569 1011.75 66.7569H1017.34C1017.69 66.7569 1018.01 66.6137 1018.25 66.3845C1018.48 66.1535 1018.62 65.8345 1018.62 65.4831L1018.62 65.1585ZM1021.06 66.0007C1021.52 66.3235 1022.09 66.5775 1022.76 66.757H1040.68C1040.88 66.7322 1041.07 66.6787 1041.24 66.5985C1041.43 66.5144 1041.59 66.3941 1041.74 66.2413L1041.75 66.2433C1042.13 65.8327 1042.47 65.2941 1042.76 64.6257C1043.06 63.9268 1043.29 63.0979 1043.47 62.1354C1043.5 61.9807 1043.57 61.8318 1043.69 61.7153C1044.28 61.1615 1044.71 60.4186 1044.95 59.5458C1045.19 58.6884 1045.24 57.703 1045.08 56.6411C1045.02 56.391 1045.1 56.116 1045.3 55.9346C1045.79 55.5068 1046.15 54.8537 1046.3 54.0669C1046.45 53.3125 1046.4 52.4417 1046.1 51.5269C1046.05 51.3551 1046.05 51.1641 1046.14 50.9884C1046.68 49.8521 1046.84 48.8762 1046.64 48.0608C1046.44 47.2797 1045.87 46.6074 1044.94 46.0422L1044.93 46.0365C1044.6 45.8436 1044.17 45.6946 1043.63 45.5858C1043.05 45.4693 1042.35 45.4005 1041.54 45.3814L1033.91 45.2325C1033.85 45.2363 1033.79 45.2325 1033.74 45.2229C1033.33 45.1542 1033.07 44.7741 1033.14 44.375C1033.63 41.5925 1033.64 39.1918 1033.19 37.1751C1032.75 35.2215 1031.86 33.6211 1030.53 32.3722C1030.27 32.1831 1030.02 32.0303 1029.8 31.9196C1029.37 31.7038 1029 31.6236 1028.7 31.6789C1028.43 31.7286 1028.18 31.9043 1027.96 32.2079C1027.89 32.2996 1027.83 32.4027 1027.76 32.5192C1027.64 36.8199 1026.94 40.3566 1025.63 43.1315C1024.35 45.8548 1022.51 47.8428 1020.1 49.0974V64.9751C1020.34 65.3723 1020.66 65.7161 1021.06 66.0007Z" fill="#F97316"/>
</g>
<rect x="1197" y="12.2" width="77" height="77" rx="11" fill="white"/>
<rect x="1197" y="12.2" width="77" height="77" rx="11" stroke="#CDCDD3" stroke-width="2"/>
<path d="M1255.61 58.8746C1254.78 57.746 1253.27 57.374 1252.02 57.9933L1247.15 60.3952C1247.14 60.0691 1247.07 59.7467 1246.91 59.4444C1246.42 58.5228 1245.34 57.975 1243.94 57.942C1240.48 57.8596 1236.13 56.7567 1232.94 55.9523L1232.27 55.7838C1229.52 55.0894 1225.27 56.2455 1223.35 56.7988V56.7695C1223.35 55.8901 1222.64 55.1755 1221.77 55.1755H1215.42C1214.54 55.1755 1213.83 55.8901 1213.83 56.7695V68.4403C1213.83 69.3197 1214.54 70.0342 1215.42 70.0342H1221.77C1222.64 70.0342 1223.35 69.3197 1223.35 68.4403V67.9401L1229.53 68.4146L1239.38 70.1716C1239.65 70.2211 1239.92 70.2449 1240.2 70.2449C1240.96 70.2449 1241.73 70.0562 1242.41 69.6916L1254.64 63.151C1255.38 62.7553 1255.91 62.0573 1256.1 61.2365C1256.28 60.4138 1256.1 59.5525 1255.61 58.8746ZM1221.87 68.4404C1221.87 68.4972 1221.82 68.543 1221.77 68.543H1215.42C1215.36 68.543 1215.31 68.4972 1215.31 68.4404V56.7696C1215.31 56.7128 1215.36 56.667 1215.42 56.667L1221.77 56.6688C1221.83 56.6688 1221.87 56.7146 1221.87 56.7714L1221.87 68.4404ZM1254.65 60.905C1254.56 61.3025 1254.3 61.6415 1253.94 61.8339L1241.71 68.3745C1241.08 68.7134 1240.34 68.8325 1239.64 68.7042L1229.71 66.9381L1223.35 66.4471L1223.35 58.3507C1223.39 58.3397 1223.42 58.3324 1223.46 58.3196C1225.08 57.8487 1229.39 56.5955 1231.92 57.2313L1232.58 57.3998C1235.83 58.2206 1240.28 59.3474 1243.91 59.4335C1244.89 59.4573 1245.43 59.8201 1245.61 60.1517C1245.76 60.4448 1245.66 60.727 1245.55 60.912C1245.11 61.6137 1243.71 62.3191 1241.04 62.211L1235.62 62.2238C1235.21 62.2238 1234.87 62.5591 1234.88 62.9713C1234.88 63.3817 1235.21 63.7152 1235.62 63.7152H1235.62L1241.01 63.7023C1242.9 63.7793 1244.46 63.4697 1245.55 62.8431C1245.56 62.8413 1245.57 62.8413 1245.57 62.8394L1252.67 59.3327C1253.28 59.0341 1254.01 59.2136 1254.41 59.7596C1254.65 60.0875 1254.74 60.5055 1254.65 60.905Z" fill="#ACACB4"/>
<path d="M1230.67 38.1548C1230.47 38.7594 1230.63 39.4098 1231.09 39.8532L1234.38 43.0814C1234.42 43.1199 1234.44 43.1748 1234.43 43.228L1233.65 47.7882C1233.54 48.4147 1233.79 49.0359 1234.3 49.4096C1234.82 49.7834 1235.48 49.831 1236.04 49.536L1240.11 47.3833C1240.16 47.3576 1240.22 47.3576 1240.26 47.3833L1244.34 49.536C1244.58 49.6643 1244.84 49.7284 1245.1 49.7284C1245.44 49.7284 1245.78 49.6203 1246.07 49.4096C1246.58 49.0358 1246.83 48.4147 1246.73 47.7882L1245.95 43.228C1245.94 43.1748 1245.96 43.1199 1246 43.0814L1249.29 39.8532C1249.74 39.4098 1249.9 38.7594 1249.71 38.1548C1249.51 37.5502 1249 37.1178 1248.38 37.0262L1243.82 36.3611C1243.77 36.3538 1243.73 36.319 1243.7 36.2714L1241.66 32.1234C1241.39 31.5536 1240.82 31.2 1240.19 31.2C1239.55 31.2 1238.99 31.5536 1238.71 32.1234L1236.67 36.2714C1236.65 36.3208 1236.6 36.3538 1236.55 36.363L1232 37.028C1231.37 37.1196 1230.87 37.552 1230.67 38.1548ZM1232.08 38.6165C1232.1 38.5524 1232.15 38.5139 1232.21 38.5047L1236.76 37.8396C1237.3 37.7609 1237.76 37.4237 1238.01 36.9327L1240.04 32.7848C1240.1 32.6638 1240.28 32.6638 1240.33 32.7848L1242.37 36.9327C1242.61 37.4219 1243.07 37.7608 1243.61 37.8396L1248.16 38.5047C1248.23 38.5139 1248.27 38.5524 1248.29 38.6165C1248.32 38.6806 1248.3 38.7374 1248.25 38.785L1244.96 42.0151C1244.57 42.3962 1244.39 42.944 1244.49 43.4808L1245.26 48.041C1245.27 48.1088 1245.25 48.1619 1245.2 48.2022C1245.14 48.2425 1245.08 48.2462 1245.02 48.2151L1240.95 46.0623C1240.71 45.9359 1240.45 45.8718 1240.19 45.8718C1239.92 45.8718 1239.66 45.9359 1239.42 46.0623L1235.35 48.2151C1235.29 48.2462 1235.23 48.2425 1235.18 48.2022C1235.12 48.1619 1235.1 48.1088 1235.11 48.041L1235.89 43.4808C1235.98 42.944 1235.8 42.3962 1235.41 42.0133L1232.12 38.785C1232.07 38.7392 1232.06 38.6824 1232.08 38.6165Z" fill="#ACACB4"/>
<rect x="785" y="12.2" width="77" height="77" rx="11" fill="white"/>
<rect x="785" y="12.2" width="77" height="77" rx="11" stroke="#CDCDD3" stroke-width="2"/>
<path d="M840.673 57.3869C839.744 56.1288 838.066 55.3982 836.655 56.4353L833.166 58.9885C832.609 58.2659 831.739 57.7191 830.801 57.8272C830.474 57.8643 830.126 57.9127 829.757 57.9627C827.531 58.2675 824.481 58.6853 823.08 57.1224C820.897 54.682 816.414 54.4837 813.109 55.6514L812.985 54.574C812.841 53.353 811.738 52.4772 810.518 52.6159L806.969 53.0256C805.75 53.1675 804.876 54.2724 805.014 55.4949L806.594 69.2271C806.736 70.4497 807.839 71.3255 809.059 71.1852L812.608 70.7755C813.828 70.632 814.701 69.5288 814.563 68.3062L814.464 67.44C815.757 67.7513 817.002 68.1142 818.21 68.4675C820.818 69.2288 823.28 69.9481 825.715 69.9787C825.769 69.9787 825.824 69.9804 825.879 69.9804C828.577 69.9804 830.888 69.1239 833.134 67.2949L840.415 61.3661C841.761 60.3516 841.565 58.5984 840.673 57.3871L840.673 57.3869ZM813.086 69.1434C812.933 69.3401 812.707 69.4676 812.461 69.495L808.914 69.9046H808.912C808.399 69.9627 807.933 69.5934 807.872 69.0788L806.293 55.3467C806.235 54.8321 806.603 54.366 807.117 54.3064L810.666 53.8967C811.181 53.8386 811.645 54.2064 811.706 54.7225L811.925 56.6241V56.637L813.079 66.6741C813.079 66.6774 813.081 66.679 813.081 66.6806L813.284 68.4548C813.313 68.7016 813.242 68.9498 813.086 69.1434ZM839.634 60.3404C839.626 60.3452 839.619 60.3516 839.611 60.3581L832.32 66.2935C827.846 69.9386 823.753 68.7435 818.57 67.229C817.206 66.8306 815.799 66.4193 814.308 66.079L813.259 56.9679C816.187 55.8293 820.297 55.9438 822.122 57.984C823.978 60.0566 827.419 59.584 829.931 59.2405C830.291 59.1905 830.633 59.1437 830.947 59.1082C831.504 59.0437 832.122 59.6018 832.385 60.1647C832.56 60.6792 832.464 61.0873 832.072 61.484C831.051 62.5179 828.403 63.0534 825.941 63.0534C824.6 63.0534 823.315 62.8937 822.379 62.5711C821.688 62.3324 821.36 62.0469 821.339 61.8679V61.8695C821.318 61.6985 821.233 61.5437 821.099 61.4372C820.965 61.3308 820.795 61.2824 820.624 61.3018C820.455 61.3227 820.301 61.4082 820.194 61.5421C820.088 61.676 820.04 61.8469 820.059 62.0179C820.148 62.7888 820.787 63.3856 821.957 63.7904C822.994 64.1485 824.463 64.3453 826.012 64.3453C828.704 64.3453 831.641 63.7534 832.985 62.3921C833.613 61.7566 833.86 61.0002 833.713 60.1856L837.415 57.4776C838.297 56.8276 839.254 57.6357 839.635 58.155C840.023 58.6776 840.457 59.7274 839.634 60.3404ZM816.51 45.3406C818.232 45.5422 818.655 45.9712 818.753 46.2099C818.851 46.447 818.856 47.0486 817.782 48.4115C817.607 48.6325 817.597 48.9422 817.755 49.1744C818.56 50.3551 819.578 51.3744 820.755 52.1808C820.988 52.3405 821.297 52.3308 821.518 52.155C822.878 51.0776 823.481 51.0824 823.719 51.1808C823.956 51.2792 824.384 51.7018 824.587 53.4276H824.585C824.619 53.7082 824.83 53.934 825.107 53.9856C826.509 54.2485 827.947 54.2485 829.35 53.9856C829.627 53.934 829.838 53.7082 829.871 53.4276C830.073 51.7034 830.502 51.2808 830.739 51.1808C830.976 51.0824 831.576 51.0776 832.935 52.155C833.158 52.3308 833.467 52.3405 833.699 52.1808C834.877 51.3744 835.895 50.355 836.7 49.1744C836.859 48.9405 836.85 48.6325 836.674 48.4099C835.6 47.0486 835.605 46.4454 835.703 46.2067C835.801 45.9696 836.223 45.5406 837.945 45.3389V45.3406C838.225 45.3083 838.45 45.0954 838.502 44.818C838.766 43.4132 838.766 41.9729 838.502 40.568C838.45 40.2906 838.225 40.0793 837.945 40.0455C836.223 39.8438 835.801 39.4132 835.703 39.1745C835.605 38.9374 835.6 38.3342 836.674 36.9713V36.9729C836.85 36.7519 836.859 36.4423 836.7 36.21C835.895 35.0294 834.877 34.01 833.699 33.2019C833.467 33.0423 833.158 33.0536 832.935 33.2278C831.575 34.3052 830.974 34.3003 830.736 34.2019C830.499 34.1036 830.071 33.681 829.87 31.9552L829.871 31.9568C829.837 31.6762 829.627 31.4487 829.35 31.3971C827.947 31.1342 826.509 31.1342 825.107 31.3971C824.83 31.4487 824.617 31.6762 824.585 31.9568C824.384 33.681 823.954 34.1036 823.717 34.202C823.481 34.3003 822.878 34.3052 821.518 33.2278C821.297 33.0536 820.988 33.0423 820.755 33.202C819.578 34.01 818.56 35.0294 817.755 36.21C817.597 36.4423 817.607 36.7519 817.782 36.9729C818.856 38.3358 818.851 38.9374 818.753 39.1761C818.655 39.4132 818.233 39.8422 816.51 40.0455H816.509C816.23 40.0793 816.003 40.2906 815.952 40.568C815.689 41.9728 815.689 43.4132 815.952 44.818C816.003 45.0954 816.23 45.3067 816.51 45.3406ZM817.143 41.26C818.238 41.0874 819.512 40.7084 819.942 39.6696C820.371 38.6293 819.739 37.46 819.087 36.5616C819.661 35.7955 820.343 35.1133 821.107 34.5359C822.003 35.1891 823.172 35.8246 824.208 35.3939C825.247 34.9616 825.627 33.6875 825.798 32.5907C826.746 32.4552 827.709 32.4552 828.657 32.5907C828.828 33.6874 829.206 34.9632 830.243 35.3939C831.282 35.8246 832.449 35.1907 833.344 34.5359H833.346C834.113 35.1133 834.794 35.7955 835.37 36.5616C834.718 37.4584 834.085 38.6293 834.515 39.668C834.945 40.7083 836.219 41.0874 837.312 41.26C837.442 42.2116 837.442 43.1744 837.312 44.1261C836.217 44.297 834.943 44.676 834.515 45.7148C834.085 46.7551 834.718 47.9244 835.37 48.8212C834.794 49.5889 834.113 50.2712 833.346 50.8469C832.451 50.1937 831.283 49.5598 830.247 49.9889C829.208 50.4195 828.83 51.6953 828.657 52.7921L828.659 52.7937C827.709 52.9276 826.746 52.9276 825.798 52.7937C825.625 51.697 825.247 50.4195 824.21 49.9905C823.172 49.5599 822.004 50.1937 821.107 50.8486C820.342 50.2712 819.661 49.5889 819.087 48.8211C819.739 47.9244 820.371 46.7534 819.942 45.7147C819.512 44.676 818.238 44.297 817.143 44.1244V44.126C817.011 43.1744 817.011 42.2116 817.143 41.26ZM827.228 48.5357C829.588 48.5357 831.715 47.1115 832.618 44.9276C833.52 42.7438 833.021 40.2292 831.351 38.5582C829.683 36.8873 827.173 36.3873 824.993 37.2921C822.814 38.1986 821.392 40.3292 821.392 42.692C821.397 45.9194 824.007 48.5328 827.228 48.5357ZM827.228 38.1372C829.066 38.1372 830.725 39.2469 831.428 40.9485C832.132 42.6517 831.742 44.6097 830.443 45.9128C829.142 47.2143 827.187 47.6047 825.487 46.8998C823.788 46.195 822.681 44.5353 822.681 42.692C822.682 40.1775 824.717 38.1405 827.228 38.1372Z" fill="#ACACB4"/>
<line x1="373" y1="50.2" x2="245" y2="50.2" stroke="url(#paint0_linear_684_4150)" stroke-width="2"/>
<line x1="166" y1="50.2" y2="50.2" stroke="url(#paint1_linear_684_4150)" stroke-width="2"/>
<rect x="373" y="12.2" width="77" height="77" rx="11" fill="white"/>
<rect x="373" y="12.2" width="77" height="77" rx="11" stroke="#CDCDD3" stroke-width="2"/>
<path d="M389 51.2H397.985C398.881 51.2 399.668 50.604 399.91 49.7414L403.188 38.0879C403.448 37.1628 404.736 37.1014 405.083 37.9977L415.12 63.9255C415.442 64.7596 416.614 64.7828 416.97 63.9622L422.239 51.8023C422.397 51.4366 422.758 51.2 423.157 51.2H433.5" stroke="#ACACB4" stroke-width="2"/>
<defs>
<filter id="filter0_d_684_4150" x="154.8" y="-4.86374e-05" width="101.4" height="101.4" filterUnits="userSpaceOnUse" color-interpolation-filters="sRGB">
<feFlood flood-opacity="0" result="BackgroundImageFix"/>
<feColorMatrix in="SourceAlpha" type="matrix" values="0 0 0 0 0 0 0 0 0 0 0 0 0 0 0 0 0 0 127 0" result="hardAlpha"/>
<feOffset/>
<feGaussianBlur stdDeviation="5.6"/>
<feComposite in2="hardAlpha" operator="out"/>
<feColorMatrix type="matrix" values="0 0 0 0 0.976471 0 0 0 0 0.45098 0 0 0 0 0.0862745 0 0 0 0.18 0"/>
<feBlend mode="normal" in2="BackgroundImageFix" result="effect1_dropShadow_684_4150"/>
<feBlend mode="normal" in="SourceGraphic" in2="effect1_dropShadow_684_4150" result="shape"/>
</filter>
<filter id="filter1_d_684_4150" x="566.8" y="-4.86374e-05" width="101.4" height="101.4" filterUnits="userSpaceOnUse" color-interpolation-filters="sRGB">
<feFlood flood-opacity="0" result="BackgroundImageFix"/>
<feColorMatrix in="SourceAlpha" type="matrix" values="0 0 0 0 0 0 0 0 0 0 0 0 0 0 0 0 0 0 127 0" result="hardAlpha"/>
<feOffset/>
<feGaussianBlur stdDeviation="5.6"/>
<feComposite in2="hardAlpha" operator="out"/>
<feColorMatrix type="matrix" values="0 0 0 0 0.976471 0 0 0 0 0.45098 0 0 0 0 0.0862745 0 0 0 0.18 0"/>
<feBlend mode="normal" in2="BackgroundImageFix" result="effect1_dropShadow_684_4150"/>
<feBlend mode="normal" in="SourceGraphic" in2="effect1_dropShadow_684_4150" result="shape"/>
</filter>
<filter id="filter2_d_684_4150" x="978.8" y="-4.86374e-05" width="101.4" height="101.4" filterUnits="userSpaceOnUse" color-interpolation-filters="sRGB">
<feFlood flood-opacity="0" result="BackgroundImageFix"/>
<feColorMatrix in="SourceAlpha" type="matrix" values="0 0 0 0 0 0 0 0 0 0 0 0 0 0 0 0 0 0 127 0" result="hardAlpha"/>
<feOffset/>
<feGaussianBlur stdDeviation="5.6"/>
<feComposite in2="hardAlpha" operator="out"/>
<feColorMatrix type="matrix" values="0 0 0 0 0.976471 0 0 0 0 0.45098 0 0 0 0 0.0862745 0 0 0 0.18 0"/>
<feBlend mode="normal" in2="BackgroundImageFix" result="effect1_dropShadow_684_4150"/>
<feBlend mode="normal" in="SourceGraphic" in2="effect1_dropShadow_684_4150" result="shape"/>
</filter>
<linearGradient id="paint0_linear_684_4150" x1="245" y1="48.7" x2="373" y2="48.7" gradientUnits="userSpaceOnUse">
<stop stop-color="#F97316"/>
<stop offset="1" stop-color="#F97316"/>
</linearGradient>
<linearGradient id="paint1_linear_684_4150" x1="0" y1="48.7" x2="166" y2="48.7" gradientUnits="userSpaceOnUse">
<stop stop-color="#F4F4F5"/>
<stop offset="1" stop-color="#F97316"/>
</linearGradient>
</defs>
</svg>
