<svg width="80" height="80" viewBox="0 0 80 80" fill="none" xmlns="http://www.w3.org/2000/svg">
<rect x="0.5" y="0.5" width="79" height="79" rx="39.5" fill="#F0F8FF"/>
<rect x="0.5" y="0.5" width="79" height="79" rx="39.5" stroke="#42A5F5"/>
<path fill-rule="evenodd" clip-rule="evenodd" d="M48.7533 16.7582C48.7783 16.7333 48.8033 16.7083 48.8319 16.6869C48.6033 16.2843 48.4747 15.821 48.4747 15.3292C48.4747 13.7898 49.7251 12.5462 51.2649 12.5462C52.8082 12.5462 54.0551 13.7934 54.0551 15.3292C54.0551 16.8687 52.8046 18.1123 51.2649 18.1123C50.9826 18.1123 50.7111 18.0696 50.4539 17.9912C50.4074 18.0767 50.3467 18.1622 50.2753 18.2335L45.5987 23.0263C45.3915 23.2401 45.1129 23.347 44.8342 23.347V23.3506H39.9684V33.1572L43.9303 33.1607L49.0499 27.5376C49.2607 27.306 49.55 27.1884 49.8394 27.1884H59.1032C59.1639 27.1884 59.2211 27.1919 59.2782 27.2026C59.7141 25.9341 60.9216 25.0218 62.3435 25.0218C64.1334 25.0218 65.5839 26.4685 65.5839 28.2539C65.5839 30.0392 64.1335 31.4895 62.3435 31.4895C60.9216 31.4895 59.7141 30.5773 59.2782 29.3087C59.2211 29.3194 59.1639 29.323 59.1032 29.323H50.3111L45.1951 34.9389C44.9986 35.1492 44.7199 35.2846 44.4055 35.2846L39.9719 35.2775V39.1224H49.682C49.7428 39.1224 49.7999 39.1259 49.8571 39.1366C50.2929 37.8681 51.5005 36.9558 52.9224 36.9558C54.7122 36.9558 56.1627 38.4026 56.1627 40.1879C56.1627 41.9733 54.7123 43.42 52.9224 43.42C51.5005 43.42 50.293 42.5077 49.8571 41.2392C49.7999 41.2499 49.7428 41.2534 49.682 41.2534L39.9756 41.2606V44.7207L44.4092 44.7171C44.72 44.7171 45.0023 44.8525 45.1952 45.0628L50.3111 50.6787H59.1068C59.1676 50.6787 59.2247 50.6823 59.2819 50.693C59.7177 49.4244 60.9253 48.5122 62.3472 48.5122C64.137 48.5122 65.5876 49.9589 65.5876 51.7443C65.5876 53.5295 64.1371 54.9799 62.3472 54.9799C60.9253 54.9799 59.7178 54.0676 59.2819 52.7991C59.2247 52.8098 59.1676 52.8133 59.1068 52.8133L49.8431 52.8098C49.5537 52.8062 49.2643 52.6886 49.0535 52.4606L43.934 46.841L39.972 46.8445V56.6511H44.8379V56.6547C45.1165 56.6547 45.3916 56.7616 45.6024 56.9754L50.2789 61.7682C50.3504 61.8431 50.4111 61.925 50.4575 62.0105C50.7148 61.9322 50.9863 61.8894 51.2685 61.8894C52.8119 61.8894 54.0587 63.1366 54.0587 64.6725C54.0587 66.2119 52.8083 67.4555 51.2685 67.4555C49.7252 67.4555 48.4783 66.2083 48.4783 64.6725C48.4783 64.1807 48.6069 63.7174 48.832 63.3183C48.807 63.2969 48.7784 63.272 48.7534 63.2471L44.3949 58.7785H39.9756V64.701C39.3755 66.3331 38.2822 67.6871 36.9032 68.6137C35.4777 69.5758 33.7451 70.0819 31.9409 69.9892C30.1331 69.893 28.4648 69.2088 27.1501 68.1077C25.8353 67.0066 24.8707 65.485 24.4635 63.7246C24.1777 62.4881 24.1955 61.2373 24.4778 60.0543C24.7636 58.8499 25.3209 57.7202 26.114 56.7652C26.4856 56.3127 26.4213 55.6427 25.9676 55.2721C25.5138 54.9015 24.8422 54.9657 24.4707 55.4182C23.4703 56.6298 22.763 58.0552 22.4022 59.5732C22.3736 59.698 22.345 59.8262 22.32 59.951C21.4376 59.7728 20.6052 59.4236 19.8692 58.9389C18.8653 58.2761 18.0329 57.3532 17.4756 56.2414C16.9182 55.126 16.6824 53.9074 16.7539 52.71C16.8075 51.812 17.0397 50.9283 17.4398 50.1016C17.5827 50.1657 17.7256 50.2227 17.8721 50.2797C18.6938 50.5933 19.5441 50.8071 20.3979 50.9105C20.9838 50.9782 21.5126 50.5613 21.584 49.9769C21.6519 49.3925 21.2339 48.865 20.6481 48.7938C19.9478 48.7083 19.2691 48.5408 18.626 48.2949C18.2616 48.1559 17.9044 47.9884 17.5614 47.796L17.5006 47.7604C17.2613 47.625 17.0255 47.4753 16.7932 47.315C15.5357 46.4312 14.564 45.2446 13.9495 43.8976C13.335 42.5506 13.0742 41.0433 13.2349 39.5145C13.3921 37.9894 13.9602 36.5675 14.8426 35.3738C15.5464 34.4188 16.4538 33.6099 17.5149 33.0148C18.1044 33.87 18.8189 34.6469 19.637 35.3168C20.0907 35.6874 20.7624 35.6232 21.1339 35.1707C21.5054 34.7181 21.4411 34.0482 20.9874 33.6776C20.1228 32.972 19.4047 32.1133 18.8582 31.1583C18.8439 31.1262 18.826 31.0977 18.8082 31.0656C18.6152 30.7164 18.4438 30.3529 18.2937 29.9788C17.74 28.5712 17.5363 27.0175 17.7543 25.4425C18.0293 23.4398 18.9618 21.6438 20.3301 20.2826C21.6948 18.9214 23.4953 17.9913 25.5031 17.7169C26.164 17.6243 26.8214 17.61 27.4644 17.6599C27.493 17.6635 27.5216 17.6671 27.5502 17.6671C27.8217 17.692 28.0896 17.7276 28.3576 17.774C29.3007 17.945 30.2081 18.2622 31.0477 18.7147C31.5657 18.9926 32.2123 18.8002 32.491 18.2799C32.7697 17.7632 32.5767 17.1183 32.0587 16.8403C31.0298 16.288 29.908 15.8924 28.7362 15.6822L28.6076 15.6608C28.6183 14.3958 29.0471 13.2056 29.7794 12.247C30.6654 11.0854 31.9944 10.2622 33.5592 10.052C35.1239 9.84183 36.628 10.2801 37.7891 11.1602C38.9323 12.0226 39.7468 13.3161 39.9826 14.8376V21.2198H44.4019L48.7533 16.7582Z" fill="#42A5F5"/>
</svg>
