<svg xmlns="http://www.w3.org/2000/svg" width="80" height="80" viewBox="0 0 80 80" fill="none">
  <rect x="0.5" y="0.5" width="79" height="79" rx="39.5" fill="#F0F8FF"/>
  <rect x="0.5" y="0.5" width="79" height="79" rx="39.5" stroke="#42A5F5"/>
  <path d="M52.1329 12C54.2556 12 55.9643 13.7028 55.9643 15.8182V17.0909H24.0356V15.8182C24.0356 13.7028 25.7443 12 27.8671 12H52.1329ZM55.9643 19.6363V57.818H24.0356V19.6363H55.9643ZM40 29.1818L32.4865 32.9253L40 36.6689L47.5134 32.9253L40 29.1818ZM48.94 35.0607L41.2771 38.8788V47.6364L48.94 43.8183V35.0607ZM31.06 35.0607V43.8183L38.7228 47.6364V38.8788L31.06 35.0607ZM55.9643 60.3637V64.1818C55.9643 66.2972 54.2556 68 52.1329 68H27.8671C25.7443 68 24.0356 66.2972 24.0356 64.1818V60.3637H55.9643ZM40 61.6364C38.9424 61.6364 38.0843 62.4915 38.0843 63.5455C38.0843 64.5994 38.9424 65.4546 40 65.4546C41.0576 65.4546 41.9157 64.5994 41.9157 63.5455C41.9157 62.4915 41.0576 61.6364 40 61.6364Z" fill="#42A5F5"/>
</svg>