<svg xmlns="http://www.w3.org/2000/svg" width="80" height="80" viewBox="0 0 80 80" fill="none">
  <rect x="0.5" y="0.5" width="79" height="79" rx="39.5" fill="#F0F8FF"/>
  <rect x="0.5" y="0.5" width="79" height="79" rx="39.5" stroke="#42A5F5"/>
  <path fill-rule="evenodd" clip-rule="evenodd" d="M60.6204 19.8732L40.8676 12.1641C40.3173 11.9453 39.7053 11.9453 39.1551 12.1641L19.4023 19.8732C18.4915 20.2157 17.8914 21.0958 17.9032 22.071V40.1629C17.9032 51.7326 28.4746 61.4754 38.4818 67.5647C39.4116 68.1451 40.5881 68.1451 41.5178 67.5647C51.5245 61.4754 62.0964 51.7326 62.0964 40.1629V22.071C62.1106 21.1005 61.5224 20.2252 60.6211 19.8732H60.6204ZM59.1641 40.1627C59.1641 44.7058 57.2333 48.93 54.3847 52.6816C50.6372 57.6149 45.2767 61.7255 40.6918 64.6179C39.9945 65.0555 40.0229 65.0508 39.3327 64.6179C34.736 61.7255 29.3874 57.6152 25.6398 52.6816C22.7911 48.9305 20.8604 44.7035 20.8604 40.1627V22.8819C20.8675 22.625 21.0359 22.4014 21.2779 22.3205L39.8047 15.0992C39.9376 15.0469 40.0846 15.0469 40.2174 15.0992L58.7868 22.3516C59.0074 22.442 59.1544 22.6537 59.1616 22.8939L59.1641 40.1627ZM22.0253 23.2838V40.1627C22.0253 44.4252 23.8469 48.4143 26.5604 51.9747C30.2415 56.8175 35.4765 60.823 40.0111 63.6728C44.5461 60.8232 49.7809 56.8151 53.4593 51.9747C56.1608 48.4115 57.9943 44.4179 57.9943 40.1627L57.9967 23.2838L40.0109 16.2622L22.0253 23.2838ZM52.3379 28.6238C53.244 29.5824 53.206 31.0976 52.2525 32.0086L36.8661 46.7087C36.3751 47.163 35.7181 47.3914 35.0516 47.3438C34.3851 47.2986 33.7684 46.9775 33.3439 46.459L27.5446 39.1159C26.7311 38.0789 26.9066 36.5779 27.9407 35.7597C28.9725 34.9438 30.4715 35.1198 31.2851 36.1569L35.4619 41.4422L48.9557 28.5384C49.921 27.644 51.4177 27.6819 52.3379 28.6238Z" fill="#42A5F5"/>
</svg>