<svg xmlns="http://www.w3.org/2000/svg" width="80" height="80" viewBox="0 0 80 80" fill="none">
  <rect x="0.5" y="0.5" width="79" height="79" rx="39.5" fill="#F0F8FF"/>
  <rect x="0.5" y="0.5" width="79" height="79" rx="39.5" stroke="#42A5F5"/>
  <path fill-rule="evenodd" clip-rule="evenodd" d="M62.589 32.5171H68.915C71.714 32.5171 74 34.8003 74 37.603V52.9603C74 53.038 73.9378 53.1003 73.86 53.1003H72.4884C72.4138 53.1003 72.3516 53.0412 72.3485 52.9634C72.2769 49.9585 69.8168 47.5415 66.7938 47.5415C65.1702 47.5415 63.7085 48.2383 62.6915 49.3488C62.6045 49.4421 62.4489 49.383 62.4489 49.2554V32.6567C62.4489 32.5789 62.5143 32.5171 62.589 32.5171ZM20.4871 23.4373H60.1534C60.2312 23.4373 60.2934 23.4995 60.2934 23.5773V52.9603C60.2934 53.0381 60.2312 53.1003 60.1534 53.1003H39.7541C39.6795 53.1003 39.6173 53.0412 39.6142 52.9635C39.5427 49.9586 37.0825 47.5415 34.0595 47.5415C31.0364 47.5415 28.5763 49.9586 28.5047 52.9635C28.5016 53.0381 28.4394 53.1003 28.3648 53.1003H20.49C20.4122 53.1003 20.35 53.0381 20.35 52.9603V49.1404C20.35 49.0627 20.2878 49.0004 20.2101 49.0004H14.2355C13.657 49.0004 13.1905 48.5307 13.1905 47.9553C13.1905 47.3767 13.6601 46.9101 14.2355 46.9101H20.2101C20.2878 46.9101 20.35 46.8479 20.35 46.7701V39.4569C20.35 39.3791 20.2878 39.3169 20.2101 39.3169L10.6398 39.3138C10.0613 39.3138 9.59481 38.8441 9.59481 38.2686C9.59481 37.69 10.0644 37.2234 10.6398 37.2234H20.2101C20.2878 37.2234 20.35 37.1612 20.35 37.0834V29.7702C20.35 29.6925 20.2878 29.6303 20.2101 29.6303H7.045C6.46652 29.6303 6 29.1606 6 28.5851C6 28.0065 6.46963 27.5399 7.045 27.5399H20.2069C20.2846 27.5399 20.3468 27.4777 20.3468 27.3999V23.58C20.3468 23.4991 20.4093 23.4373 20.4871 23.4373ZM27.18 33.2736C27.1023 33.2736 27.0401 33.3358 27.0401 33.4136L27.0432 41.7281C27.0432 41.8058 27.1054 41.8681 27.1831 41.8681H40.5225C40.6003 41.8681 40.6625 41.9303 40.6625 42.008V47.0566C40.6625 47.1717 40.7931 47.237 40.8864 47.1686L53.4543 37.6843C53.529 37.6283 53.529 37.5163 53.4543 37.4603L40.8832 27.976C40.7899 27.9076 40.6593 27.9729 40.6593 28.088V33.1366C40.6593 33.2143 40.5971 33.2765 40.5194 33.2765L27.18 33.2736ZM66.7938 49.6327C64.8811 49.6327 63.3291 51.1849 63.3291 53.098C63.3291 55.011 64.881 56.5633 66.7938 56.5633C68.7066 56.5633 70.2585 55.0111 70.2585 53.098C70.2585 51.1849 68.7066 49.6327 66.7938 49.6327ZM34.0567 49.6327C32.144 49.6327 30.592 51.1849 30.592 53.098C30.592 55.011 32.144 56.5633 34.0567 56.5633C35.9695 56.5633 37.5215 55.0111 37.5215 53.098C37.5246 51.1849 35.9726 49.6327 34.0567 49.6327Z" fill="#42A5F5"/>
</svg>