<svg width="364" height="139" viewBox="0 0 364 139" fill="none" xmlns="http://www.w3.org/2000/svg">
<rect x="0.5" y="0.5" width="363" height="138" rx="15.5" fill="#F8FAFC" stroke="#E2E8F0"/>
<path d="M52 62C52 57.5817 55.5817 54 60 54H100C104.418 54 108 57.5817 108 62V139H52V62Z" fill="#E2E8F0"/>
<path d="M120 39C120 34.5817 123.582 31 128 31H168C172.418 31 176 34.5817 176 39V139H120V39Z" fill="#CBD5E1"/>
<path d="M188 23C188 18.5817 191.582 15 196 15H236C240.418 15 244 18.5817 244 23V139H188V23Z" fill="#3F51B5"/>
<path d="M256 91C256 86.5817 259.582 83 264 83H304C308.418 83 312 86.5817 312 91V139H256V91Z" fill="#CBD5E1"/>
</svg>
