<svg xmlns="http://www.w3.org/2000/svg" width="112" height="112" viewBox="0 0 112 112" fill="none">
  <rect width="112" height="112" rx="4" fill="#E3F2FD"/>
  <path d="M93.026 34.3019C92.9672 34.2339 92.9013 34.1725 92.8294 34.1188C92.7228 34.0387 92.6038 33.9768 92.4772 33.9357L56.4145 21.068C56.3632 21.0567 56.3112 21.0492 56.2589 21.0454C56.1742 21.0237 56.0874 21.0111 56.0001 21.0078C55.9161 21.0109 55.8326 21.0231 55.7512 21.0442C55.6955 21.0477 55.6401 21.0557 55.5857 21.068L19.5229 33.9344C19.3964 33.9756 19.2774 34.0375 19.1707 34.1175C19.0989 34.1713 19.0329 34.2327 18.9741 34.3007C18.7764 34.527 18.6671 34.8182 18.6667 35.1198V76.8462C18.6669 77.1053 18.7467 77.358 18.8951 77.5696C19.0435 77.7812 19.2532 77.9413 19.4955 78.0278L55.5844 90.923H55.6043C55.8603 91.015 56.1399 91.015 56.3958 90.923H56.4157L92.5046 78.0278C92.7469 77.9413 92.9567 77.7812 93.1051 77.5696C93.2535 77.358 93.3333 77.1053 93.3334 76.8462V35.1261C93.3327 34.8249 93.2235 34.5342 93.026 34.3082V34.3019ZM56.0001 46.7055L41.679 41.5825L74.0445 30.0207L88.3556 35.1286L56.0001 46.7055ZM56.0001 23.5818L70.3199 28.691L37.9556 40.2503L23.6371 35.1286L56.0001 23.5818ZM21.1556 36.9023L36.7112 42.4668V51.9049C36.7112 52.2376 36.8423 52.5567 37.0757 52.7919C37.3091 53.0272 37.6256 53.1593 37.9556 53.1593C38.2857 53.1593 38.6022 53.0272 38.8356 52.7919C39.069 52.5567 39.2001 52.2376 39.2001 51.9049V43.3575L54.7556 48.922V87.9652L21.1556 75.9606V36.9023ZM90.8445 75.9606L57.2445 87.9652V48.922L90.8445 36.9023V75.9606Z" fill="#1565C0"/>
</svg>