<svg xmlns="http://www.w3.org/2000/svg" width="80" height="80" viewBox="0 0 80 80" fill="none">
  <rect width="80" height="80" rx="6.15385" fill="#E2D8F3"/>
  <path d="M70.6222 38.7996L62.0744 25.7989C60.9711 24.1374 58.7375 23.6476 57.0328 24.6962L54.2128 26.4509C53.3937 26.9557 52.8194 27.7669 52.6139 28.7014C52.5625 28.9297 52.5353 29.1611 52.5293 29.3954C50.6855 30.0655 49.2408 29.8642 46.9588 29.5487C45.9009 29.4014 44.7009 29.2332 43.2441 29.131C39.7319 28.8786 37.4167 30.7835 35.5638 33.1662C34.2914 32.5082 33.0611 31.9945 31.8673 31.4956L31.8703 31.4926C30.5283 30.9698 29.2226 30.3569 27.9652 29.6568C27.9864 29.3263 27.9622 28.9928 27.8896 28.6683C27.6841 27.7339 27.1098 26.9226 26.2907 26.4178L23.4707 24.6631C21.7691 23.6205 19.5385 24.1073 18.4352 25.7658L9.88742 38.7635C9.3615 39.5627 9.18015 40.5392 9.38568 41.4736C9.59423 42.408 10.1685 43.2193 10.9846 43.7241L13.8046 45.4787C14.3879 45.8393 15.0589 46.0316 15.745 46.0316C16.3344 46.0286 16.9117 45.8934 17.4346 45.629C18.8854 46.5754 19.7196 47.1553 20.5237 47.7352L19.8738 48.7478H19.8768C19.1998 49.7994 19.1545 51.1335 19.7559 52.2271C20.3574 53.3238 21.512 54.0058 22.7664 54.0088C22.8449 54.0088 22.9205 54.0088 22.9991 53.9998C22.8117 55.3219 23.4223 56.6289 24.5587 57.341C25.1118 57.6865 25.7496 57.8668 26.3994 57.8668C26.478 57.8668 26.5475 57.8668 26.6231 57.8578V57.8608C26.3752 59.4141 27.2276 60.9375 28.6875 61.5504C30.1473 62.1604 31.84 61.7007 32.786 60.4388C33.3089 61.4453 34.3003 62.1333 35.4338 62.2686C36.5672 62.4038 37.6947 61.9711 38.4442 61.1148L42.4098 63.6296C43.0989 64.0713 43.8999 64.3117 44.722 64.3177C44.9034 64.3177 45.0847 64.3027 45.2631 64.2786C46.2363 64.1705 47.1098 63.6326 47.6448 62.8184C48.0498 62.1784 48.216 61.4183 48.1102 60.6701C49.5338 61.0216 51.027 60.4568 51.8612 59.2579C52.2783 58.6029 52.4416 57.8187 52.3207 57.0525C53.7141 57.353 55.1497 56.7851 55.9567 55.6163C56.3255 55.0485 56.5159 54.3814 56.5038 53.7054C57.1658 53.9097 57.867 53.9427 58.544 53.7985C59.4115 53.6333 60.1732 53.1165 60.6446 52.3743C61.1192 51.6322 61.2612 50.7278 61.0436 49.8775C60.8623 49.1173 60.4633 48.4262 59.898 47.8884C60.3756 47.5399 60.7927 47.1854 61.1977 46.8368V46.8338C61.7176 46.3591 62.2798 45.9324 62.8783 45.5568C63.4526 45.8903 64.1024 46.0646 64.7643 46.0646C65.4505 46.0676 66.1245 45.8753 66.7078 45.5147L69.5278 43.7601C70.3439 43.2523 70.9182 42.4411 71.1237 41.5096C71.3322 40.5752 71.1509 39.5987 70.625 38.7995L70.6222 38.7996ZM14.7206 44.0337L11.8976 42.279C11.4745 42.0146 11.1752 41.594 11.0694 41.1073C10.9606 40.6235 11.0543 40.1157 11.3294 39.7011L19.8741 26.7035C20.2398 26.1476 20.8624 25.8142 21.5304 25.8172C21.8961 25.8172 22.2558 25.9163 22.5641 26.1116L25.3841 27.8663C25.8103 28.1277 26.1095 28.5513 26.2153 29.035C26.3241 29.5188 26.2274 30.0266 25.9553 30.4442L17.4075 43.4418C16.8181 44.3281 15.6304 44.5896 14.7206 44.0337ZM21.8538 52.0316C21.0559 51.5209 20.8201 50.4632 21.3279 49.667L23.9273 45.6228C24.1751 45.2412 24.565 44.9708 25.0123 44.8747C25.1363 44.8476 25.2632 44.8356 25.3902 44.8356C26.0188 44.8386 26.5931 45.1811 26.8924 45.728C27.1916 46.2749 27.1704 46.9389 26.8349 47.4677L24.2385 51.5149C23.7217 52.308 22.6608 52.5394 21.8598 52.0347L21.8538 52.0316ZM25.4718 55.8955H25.4748C25.091 55.6552 24.822 55.2736 24.7252 54.8349C24.6285 54.3962 24.7101 53.9395 24.958 53.561L29.25 46.9779V46.9809C29.5764 46.4821 30.1325 46.1846 30.731 46.1846C31.0575 46.1846 31.3809 46.2778 31.6589 46.452C32.3088 46.8577 32.602 47.6509 32.3662 48.378L27.8777 55.3667H27.8808C27.3548 56.163 26.2849 56.4004 25.4718 55.8955ZM29.0928 59.8436L29.0958 59.8406C28.2979 59.3298 28.0621 58.2752 28.5699 57.476L29.3286 56.2921L33.6206 49.712C33.7384 49.5317 33.8412 49.3364 33.9228 49.1351L33.9651 49.069C34.4759 48.2728 35.5429 48.0385 36.3438 48.5462C37.1448 49.054 37.3805 50.1147 36.8698 50.9108L34.5364 54.5494L32.9435 57.0313L31.4776 59.3148L31.4746 59.3178C31.2298 59.6994 30.8399 59.9728 30.3926 60.072C29.9482 60.1681 29.4797 60.087 29.0928 59.8436ZM34.9172 60.3153C34.1162 59.8045 33.8835 58.7469 34.3912 57.9507L34.4094 57.9207L36.9876 53.9035C37.2354 53.5189 37.6253 53.2514 38.0726 53.1553C38.1966 53.1283 38.3235 53.1132 38.4504 53.1132C38.7769 53.1132 39.0942 53.2064 39.3693 53.3806C40.1703 53.8884 40.406 54.9461 39.8952 55.7453L37.2958 59.7925C37.051 60.1741 36.6611 60.4445 36.2138 60.5436C35.7695 60.6428 35.301 60.5587 34.9172 60.3153ZM59.1848 51.4697C58.949 51.8153 58.5863 52.0556 58.1723 52.1338C57.5315 52.2569 56.8695 52.1217 56.3285 51.7642L54.7447 50.7516L54.7054 50.7276L54.6994 50.7216L49.2467 47.2332H49.2437C49.0533 47.101 48.8175 47.0559 48.5878 47.101C48.3611 47.1461 48.1616 47.2813 48.0377 47.4766C47.9108 47.6719 47.8715 47.9062 47.9228 48.1316C47.9742 48.3569 48.1163 48.5522 48.3158 48.6694L53.8107 52.1848C54.2611 52.4552 54.5936 52.8879 54.7356 53.3926C54.8414 53.8403 54.7568 54.315 54.5029 54.6996C53.983 55.5109 52.6743 55.6431 51.6436 54.9911L46.8559 51.9504C46.4539 51.695 45.922 51.8122 45.665 52.2088C45.4111 52.6084 45.526 53.1372 45.9249 53.3927L49.4522 55.6311L49.4643 55.6371C49.9751 55.9496 50.3559 56.4303 50.5403 56.9952C50.6975 57.4399 50.6491 57.9327 50.4043 58.3383C49.8844 59.1495 48.5757 59.2818 47.545 58.6297L46.2 57.7764L46.1758 57.7614L46.1637 57.7554L44.3411 56.6016H44.3441C43.9421 56.3462 43.4102 56.4634 43.1532 56.86C42.8993 57.2566 43.0142 57.7854 43.4162 58.0408L45.2659 59.2156C46.2815 59.8706 46.7047 61.0965 46.1878 61.9048H46.1848C45.9188 62.2954 45.4926 62.5477 45.0181 62.5958C44.4257 62.6649 43.8272 62.5267 43.3285 62.1992L39.3962 59.6994L41.3367 56.6677C42.0047 55.6311 42.0591 54.3181 41.4818 53.2304C40.9045 52.1427 39.7831 51.4457 38.5438 51.4066C39.1393 50.1146 38.8642 48.5882 37.8547 47.5817C36.8452 46.5721 35.3158 46.2897 34.01 46.8696C33.7712 46.0974 33.2604 45.4364 32.5743 45.0067C31.3169 44.2315 29.7059 44.3247 28.5483 45.2381C28.0587 44.0633 26.9494 43.255 25.6708 43.1438C24.3954 43.0296 23.1621 43.6336 22.47 44.7062L21.4514 46.2926C20.6535 45.7217 19.9039 45.2019 18.7825 44.4688C18.8037 44.4388 18.8248 44.4087 18.846 44.3787L27.3938 31.381C27.4059 31.36 27.418 31.339 27.4331 31.3209V31.3179C28.6572 31.9729 29.9176 32.5589 31.2112 33.0696C32.2993 33.5233 33.4207 33.992 34.5572 34.5659C34.1612 35.1458 33.7834 35.7317 33.4146 36.3085C32.6076 37.6486 31.6948 38.9225 30.6853 40.1154C30.0294 40.8395 30.2047 41.9362 31.1236 42.8466V42.8496C31.9367 43.775 33.0913 44.3369 34.3274 44.403H34.4453C36.4341 44.3338 37.9393 42.6152 39.3932 40.9536C40.5266 39.6586 41.6994 38.3186 42.6877 38.3667C43.3436 38.6401 43.9421 39.0337 44.4468 39.5264C45.3022 40.3016 46.2845 40.9266 47.3484 41.3742L58.2237 48.7596L58.2539 48.7806V48.7776C58.807 49.1081 59.206 49.643 59.3632 50.2619C59.469 50.6736 59.4024 51.1062 59.1848 51.4697ZM60.0704 45.5477C59.5535 46.0104 59.0034 46.437 58.4261 46.8246L52.0939 42.522C53.0914 42.6121 54.1009 42.498 55.053 42.1855C55.4943 42.0172 55.7119 41.5245 55.5426 41.0858C55.3764 40.6471 54.8837 40.4248 54.4394 40.59C53.046 41.1188 50.4074 40.8214 48.1706 39.8659H48.1737C48.1283 39.8419 48.083 39.8208 48.0346 39.8058C47.1551 39.4332 46.342 38.9165 45.6287 38.2795C45.6105 38.2644 43.9421 36.714 42.7814 36.6569C40.9498 36.5758 39.499 38.2254 38.0965 39.8268C36.8815 41.212 35.6271 42.6452 34.3818 42.6902H34.3848C33.5838 42.6362 32.8433 42.2546 32.3386 41.6356C32.2056 41.5094 32.0998 41.3592 32.0273 41.1879C33.0761 39.941 34.0252 38.6159 34.8655 37.2249C37.0719 33.7906 39.1514 30.5486 43.1293 30.8311C44.5227 30.9302 45.6924 31.0925 46.7261 31.2367C49.0353 31.5582 50.7702 31.7985 52.9162 31.0714C52.9767 31.1886 53.0432 31.3028 53.1127 31.411L61.6117 44.334C61.0707 44.7035 60.5569 45.1092 60.0702 45.5418L60.0704 45.5477ZM69.443 41.1489C69.3372 41.6326 69.035 42.0533 68.6118 42.3176L65.7888 44.0663C64.879 44.6251 63.6882 44.3637 63.0988 43.4774L54.554 30.4767C54.279 30.062 54.1853 29.5543 54.2941 29.0675C54.3999 28.5838 54.6991 28.1631 55.1223 27.8988L57.9423 26.1441C58.2536 25.9518 58.6133 25.8497 58.979 25.8497C59.6439 25.8497 60.2666 26.1802 60.6353 26.733L69.1831 39.7306H69.1801C69.4551 40.1483 69.5518 40.656 69.443 41.1428L69.443 41.1489ZM39.3961 23.5569V15.9402C39.3961 15.4685 39.78 15.0869 40.2545 15.0869C40.7291 15.0869 41.1129 15.4685 41.1129 15.9402V23.5569C41.1129 24.0286 40.7291 24.4102 40.2545 24.4102C39.78 24.4102 39.3961 24.0287 39.3961 23.5569ZM46.0578 24.6716L49.8903 18.0735C50.0022 17.8722 50.1896 17.728 50.4102 17.6649C50.6339 17.6048 50.8696 17.6348 51.0691 17.749C51.2686 17.8632 51.4137 18.0525 51.4711 18.2748C51.5316 18.4971 51.4953 18.7315 51.3774 18.9268L47.5449 25.5249H47.5479C47.433 25.7262 47.2456 25.8735 47.025 25.9335C46.8013 25.9936 46.5656 25.9636 46.3661 25.8494C46.1666 25.7352 46.0215 25.546 45.9641 25.3266C45.9067 25.1043 45.9399 24.8669 46.0578 24.6716ZM29.2315 19.3053C29.1136 19.11 29.0803 18.8727 29.1378 18.6503C29.1952 18.431 29.3403 18.2417 29.5398 18.1275C29.7392 18.0103 29.978 17.9803 30.1987 18.0434C30.4223 18.1035 30.6097 18.2507 30.7216 18.449L34.5541 25.0471C34.7899 25.4558 34.6508 25.9785 34.2398 26.2159C33.8287 26.4503 33.3028 26.312 33.064 25.9034L29.2315 19.3053Z" fill="#3B1D6D"/>
</svg>