<svg xmlns="http://www.w3.org/2000/svg" width="80" height="80" viewBox="0 0 80 80" fill="none">
  <rect width="80" height="80" rx="6.15385" fill="#E2D8F3"/>
  <path d="M62.4241 29.4333C62.4241 18.4373 53.463 9.48712 42.4212 9.42832C41.6014 9.19328 35.6853 7.65215 32.675 11.5677C30.6806 11.0656 28.4093 11.5143 26.6272 12.7802C25.1032 13.8646 24.149 15.371 23.9394 16.9895C22.0471 17.1097 20.472 18.2101 19.5581 20.0797C18.4158 22.4114 18.5663 25.2986 19.8672 27.2166C18.2357 29.0355 17.6095 32.5851 18.4776 35.5446C18.8701 36.8801 19.5312 37.9698 20.4022 38.8138C20.9666 41.8292 22.6331 43.5813 24.5495 44.5321C24.8559 47.171 26.6353 51.455 31.6053 51.4762C32.339 52.8998 32.5191 54.2059 32.5594 54.887C31.5219 55.2876 30.7855 56.2865 30.7855 57.459C30.7855 58.295 31.1671 59.0348 31.7558 59.5423C31.1672 60.0498 30.7855 60.7896 30.7855 61.6256C30.7855 62.9984 31.7988 64.1336 33.1185 64.3499C34.0001 67.9102 37.2552 70.4716 40.9697 70.4716H43.6549C47.3668 70.4716 50.6246 67.9102 51.5115 64.3446C52.8313 64.1283 53.8446 62.9958 53.8446 61.6203C53.8446 60.7869 53.4629 60.0445 52.8742 59.537C53.4629 59.0295 53.8446 58.287 53.8446 57.4537C53.8446 56.3399 53.1753 55.3811 52.2184 54.943C52.3931 48.9443 55.804 44.3771 58.3925 41.4418C60.9916 38.4958 62.4241 34.2298 62.4241 29.4333ZM26.0493 45.1089C27.0707 45.4027 28.1002 45.5255 29.0194 45.5255C29.5677 45.5255 30.0811 45.4828 30.5273 45.416C30.9036 45.3573 31.1589 45.0074 31.1025 44.6335C31.0434 44.2595 30.6886 44.0058 30.3176 44.0619C28.9737 44.2702 27.1245 44.2008 25.4714 43.469C25.4445 43.4583 25.4176 43.4423 25.3907 43.4342C24.0522 42.8199 22.8561 41.7569 22.1707 40.0289C22.8749 40.3574 23.649 40.5871 24.5037 40.6859C24.5306 40.6886 24.5575 40.6912 24.5844 40.6912C24.9284 40.6912 25.2268 40.4348 25.2671 40.0876C25.3101 39.711 25.0413 39.3718 24.665 39.3264C23.2619 39.1635 22.2406 38.6453 21.4933 37.9749C21.4691 37.9535 21.4503 37.9268 21.4207 37.9055C20.5525 37.0935 20.066 36.0679 19.7999 35.1598C18.9371 32.2138 19.8537 28.926 21.2191 27.8178C21.3642 27.7002 21.4556 27.5293 21.4691 27.3424C21.4852 27.1581 21.4234 26.9738 21.2997 26.8349C20.0096 25.3739 19.7892 22.7271 20.7917 20.6838C21.2433 19.7597 22.3265 18.2266 24.5413 18.3602C24.5736 18.3602 24.6031 18.3495 24.6354 18.3469C24.673 18.3442 24.7106 18.3522 24.7483 18.3415C29.2962 17.2037 30.8255 20.6385 30.8928 20.7988C31.003 21.0605 31.2583 21.2208 31.5271 21.2208C31.6131 21.2208 31.7045 21.2047 31.7905 21.1673C32.1426 21.0231 32.3093 20.6225 32.1641 20.2726C32.1453 20.2272 30.3713 16.1114 25.3719 16.8271C25.6165 15.7134 26.3314 14.6771 27.4254 13.8999C29.0059 12.7781 31.0379 12.4389 32.7286 13.0158C33.0269 13.1173 33.3575 13.0051 33.5296 12.7407C35.5992 9.56505 40.1471 10.3049 41.6257 10.6441V34.6955V34.6981V40.6942C39.8168 38.1089 36.8628 37.4678 36.8198 37.4571C36.4462 37.3797 36.0833 37.6201 36.008 37.9913C35.9328 38.3626 36.172 38.7231 36.5429 38.7979C36.7499 38.8407 41.6311 39.8983 41.623 45.379V54.6868H33.9246C33.8386 53.4422 33.3924 50.9289 31.277 48.6319C31.0216 48.3541 30.5835 48.3354 30.304 48.5891C30.0244 48.8456 30.0056 49.2782 30.261 49.556C30.4007 49.7083 30.5297 49.8605 30.6534 50.0154C27.4844 49.5267 26.4014 46.698 26.0493 45.1089ZM43.6549 69.1015H40.9698C38.0184 69.1015 35.4086 67.1517 34.5511 64.3901H50.0759C49.2131 67.1544 46.6035 69.1015 43.6549 69.1015ZM52.4687 61.6227C52.4687 62.3946 51.8371 63.0222 51.063 63.0222H33.5647C32.7906 63.0222 32.1589 62.3946 32.1589 61.6227C32.1589 60.8535 32.7905 60.2258 33.5647 60.2258H51.0602C51.837 60.2258 52.4687 60.8534 52.4687 61.6227ZM51.0603 58.8556H33.5647C32.7906 58.8556 32.159 58.228 32.159 57.4561C32.159 56.8044 32.6105 56.2622 33.2153 56.1072H33.2503C33.3228 56.1072 33.39 56.0886 33.4572 56.0672C33.4922 56.0645 33.5271 56.0565 33.5647 56.0565H51.0603C51.8344 56.0565 52.4661 56.6842 52.4661 57.4561C52.4687 58.2279 51.8371 58.8556 51.0603 58.8556ZM50.8506 54.689H43.0022V34.8577C43.3059 34.2434 44.9214 31.284 47.8458 31.284H47.8941C48.292 31.268 48.5849 30.9849 48.5903 30.6056C48.5957 30.2263 48.2893 29.9165 47.9103 29.9139H47.8458C45.6041 29.9139 44.0129 31.1852 43.0049 32.3818L43.0022 10.8089C53.0147 11.1695 61.0489 19.3852 61.0489 29.4328C61.0489 33.8958 59.7372 37.8408 57.3584 40.5409C54.6571 43.6018 51.1091 48.3616 50.8511 54.6883L50.8506 54.689Z" fill="#3B1D6D"/>
</svg>