<svg width="360" height="488" viewBox="0 0 360 488" fill="none" xmlns="http://www.w3.org/2000/svg">
<g clip-path="url(#clip0_614_1421)">
<rect width="360" height="488" fill="url(#paint0_radial_614_1421)"/>
<path d="M-136 244L196.121 244L496 244" stroke="#42A5F5" stroke-width="2" stroke-dasharray="14 14"/>
<g opacity="0.5">
<mask id="mask0_614_1421" style="mask-type:alpha" maskUnits="userSpaceOnUse" x="8" y="0" width="98" height="101">
<rect width="97.9932" height="100.375" transform="translate(8)" fill="url(#paint1_radial_614_1421)"/>
</mask>
<g mask="url(#mask0_614_1421)">
<line x1="26.884" y1="9.40649" x2="26.884" y2="90.9683" stroke="#9090FE" stroke-width="0.340254"/>
<line x1="35.5361" y1="9.40649" x2="35.5361" y2="90.9683" stroke="#9090FE" stroke-width="0.340254"/>
<line x1="44.1884" y1="9.40649" x2="44.1884" y2="90.9683" stroke="#9090FE" stroke-width="0.340254"/>
<line x1="52.8405" y1="9.40649" x2="52.8405" y2="90.9683" stroke="#9090FE" stroke-width="0.340254"/>
<line x1="61.4926" y1="9.40649" x2="61.4926" y2="90.9683" stroke="#9090FE" stroke-width="0.340254"/>
<line x1="70.145" y1="9.40649" x2="70.145" y2="90.9683" stroke="#9090FE" stroke-width="0.340254"/>
<line x1="78.7971" y1="9.40649" x2="78.7971" y2="90.9683" stroke="#9090FE" stroke-width="0.340254"/>
<line x1="87.4492" y1="9.40649" x2="87.4492" y2="90.9683" stroke="#9090FE" stroke-width="0.340254"/>
<line x1="16.2158" y1="80.3" x2="97.7776" y2="80.3" stroke="#9090FE" stroke-width="0.340254"/>
<line x1="16.2158" y1="71.6479" x2="97.7776" y2="71.6479" stroke="#9090FE" stroke-width="0.340254"/>
<line x1="16.2158" y1="62.9956" x2="97.7776" y2="62.9956" stroke="#9090FE" stroke-width="0.340254"/>
<line x1="16.2158" y1="54.3435" x2="97.7776" y2="54.3435" stroke="#9090FE" stroke-width="0.340254"/>
<line x1="16.2158" y1="45.6913" x2="97.7776" y2="45.6913" stroke="#9090FE" stroke-width="0.340254"/>
<line x1="16.2158" y1="37.0392" x2="97.7776" y2="37.0392" stroke="#9090FE" stroke-width="0.340254"/>
<line x1="16.2158" y1="28.3869" x2="97.7776" y2="28.3869" stroke="#9090FE" stroke-width="0.340254"/>
<line x1="16.2158" y1="19.7348" x2="97.7776" y2="19.7348" stroke="#9090FE" stroke-width="0.340254"/>
</g>
</g>
<g filter="url(#filter0_d_614_1421)">
<rect x="16" y="12" width="328" height="104" rx="12" fill="white" shape-rendering="crispEdges"/>
<rect x="28" y="24" width="80" height="80" rx="2.85714" fill="#E3F2FD"/>
<path d="M94.447 48.5014C94.405 48.4528 94.3579 48.4089 94.3066 48.3705C94.2304 48.3133 94.1454 48.2691 94.055 48.2397L68.2959 39.0486C68.2593 39.0405 68.2222 39.0351 68.1848 39.0324C68.1243 39.0169 68.0623 39.0079 67.9999 39.0056C67.9399 39.0077 67.8803 39.0164 67.8221 39.0315C67.7824 39.0341 67.7428 39.0398 67.7039 39.0486L41.9448 48.2388C41.8544 48.2682 41.7694 48.3124 41.6933 48.3696C41.6419 48.408 41.5948 48.4519 41.5528 48.5005C41.4116 48.6621 41.3335 48.8701 41.3333 49.0856V78.8901C41.3334 79.0752 41.3903 79.2557 41.4963 79.4068C41.6023 79.558 41.7522 79.6723 41.9253 79.7341L67.703 88.945H67.7173C67.9001 89.0107 68.0998 89.0107 68.2826 88.945H68.2968L94.0746 79.7341C94.2477 79.6723 94.3975 79.558 94.5035 79.4068C94.6095 79.2557 94.6665 79.0752 94.6666 78.8901V49.09C94.6661 48.8749 94.5881 48.6673 94.447 48.5058V48.5014ZM67.9999 57.361L57.7706 53.7017L80.8888 45.4433L91.111 49.0918L67.9999 57.361ZM67.9999 40.8441L78.2284 44.4936L55.111 52.7502L44.8835 49.0918L67.9999 40.8441ZM43.111 50.3588L54.2221 54.3334V61.0749C54.2221 61.3126 54.3158 61.5405 54.4825 61.7085C54.6492 61.8765 54.8753 61.9709 55.111 61.9709C55.3468 61.9709 55.5729 61.8765 55.7396 61.7085C55.9063 61.5405 55.9999 61.3126 55.9999 61.0749V54.9696L67.111 58.9442V86.8322L43.111 78.2575V50.3588ZM92.8888 78.2575L68.8888 86.8322V58.9442L92.8888 50.3588V78.2575Z" fill="#1565C0"/>
<path d="M136.215 65.6367H131.773V63.3047H136.215C136.988 63.3047 137.613 63.1797 138.09 62.9297C138.566 62.6797 138.914 62.3359 139.133 61.8984C139.359 61.4531 139.473 60.9453 139.473 60.375C139.473 59.8359 139.359 59.332 139.133 58.8633C138.914 58.3867 138.566 58.0039 138.09 57.7148C137.613 57.4258 136.988 57.2812 136.215 57.2812H132.676V72H129.734V54.9375H136.215C137.535 54.9375 138.656 55.1719 139.578 55.6406C140.508 56.1016 141.215 56.7422 141.699 57.5625C142.184 58.375 142.426 59.3047 142.426 60.3516C142.426 61.4531 142.184 62.3984 141.699 63.1875C141.215 63.9766 140.508 64.582 139.578 65.0039C138.656 65.4258 137.535 65.6367 136.215 65.6367ZM147.617 61.7344V72H144.793V59.3203H147.488L147.617 61.7344ZM151.496 59.2383L151.473 61.8633C151.301 61.832 151.113 61.8086 150.91 61.793C150.715 61.7773 150.52 61.7695 150.324 61.7695C149.84 61.7695 149.414 61.8398 149.047 61.9805C148.68 62.1133 148.371 62.3086 148.121 62.5664C147.879 62.8164 147.691 63.1211 147.559 63.4805C147.426 63.8398 147.348 64.2422 147.324 64.6875L146.68 64.7344C146.68 63.9375 146.758 63.1992 146.914 62.5195C147.07 61.8398 147.305 61.2422 147.617 60.7266C147.938 60.2109 148.336 59.8086 148.812 59.5195C149.297 59.2305 149.855 59.0859 150.488 59.0859C150.66 59.0859 150.844 59.1016 151.039 59.1328C151.242 59.1641 151.395 59.1992 151.496 59.2383ZM152.422 65.8008V65.5312C152.422 64.6172 152.555 63.7695 152.82 62.9883C153.086 62.1992 153.469 61.5156 153.969 60.9375C154.477 60.3516 155.094 59.8984 155.82 59.5781C156.555 59.25 157.383 59.0859 158.305 59.0859C159.234 59.0859 160.062 59.25 160.789 59.5781C161.523 59.8984 162.145 60.3516 162.652 60.9375C163.16 61.5156 163.547 62.1992 163.812 62.9883C164.078 63.7695 164.211 64.6172 164.211 65.5312V65.8008C164.211 66.7148 164.078 67.5625 163.812 68.3438C163.547 69.125 163.16 69.8086 162.652 70.3945C162.145 70.9727 161.527 71.4258 160.801 71.7539C160.074 72.0742 159.25 72.2344 158.328 72.2344C157.398 72.2344 156.566 72.0742 155.832 71.7539C155.105 71.4258 154.488 70.9727 153.98 70.3945C153.473 69.8086 153.086 69.125 152.82 68.3438C152.555 67.5625 152.422 66.7148 152.422 65.8008ZM155.246 65.5312V65.8008C155.246 66.3711 155.305 66.9102 155.422 67.418C155.539 67.9258 155.723 68.3711 155.973 68.7539C156.223 69.1367 156.543 69.4375 156.934 69.6562C157.324 69.875 157.789 69.9844 158.328 69.9844C158.852 69.9844 159.305 69.875 159.688 69.6562C160.078 69.4375 160.398 69.1367 160.648 68.7539C160.898 68.3711 161.082 67.9258 161.199 67.418C161.324 66.9102 161.387 66.3711 161.387 65.8008V65.5312C161.387 64.9688 161.324 64.4375 161.199 63.9375C161.082 63.4297 160.895 62.9805 160.637 62.5898C160.387 62.1992 160.066 61.8945 159.676 61.6758C159.293 61.4492 158.836 61.3359 158.305 61.3359C157.773 61.3359 157.312 61.4492 156.922 61.6758C156.539 61.8945 156.223 62.1992 155.973 62.5898C155.723 62.9805 155.539 63.4297 155.422 63.9375C155.305 64.4375 155.246 64.9688 155.246 65.5312ZM174.312 69.375V54H177.148V72H174.582L174.312 69.375ZM166.062 65.8008V65.5547C166.062 64.5938 166.176 63.7188 166.402 62.9297C166.629 62.1328 166.957 61.4492 167.387 60.8789C167.816 60.3008 168.34 59.8594 168.957 59.5547C169.574 59.2422 170.27 59.0859 171.043 59.0859C171.809 59.0859 172.48 59.2344 173.059 59.5312C173.637 59.8281 174.129 60.2539 174.535 60.8086C174.941 61.3555 175.266 62.0117 175.508 62.7773C175.75 63.5352 175.922 64.3789 176.023 65.3086V66.0938C175.922 67 175.75 67.8281 175.508 68.5781C175.266 69.3281 174.941 69.9766 174.535 70.5234C174.129 71.0703 173.633 71.4922 173.047 71.7891C172.469 72.0859 171.793 72.2344 171.02 72.2344C170.254 72.2344 169.562 72.0742 168.945 71.7539C168.336 71.4336 167.816 70.9844 167.387 70.4062C166.957 69.8281 166.629 69.1484 166.402 68.3672C166.176 67.5781 166.062 66.7227 166.062 65.8008ZM168.887 65.5547V65.8008C168.887 66.3789 168.938 66.918 169.039 67.418C169.148 67.918 169.316 68.3594 169.543 68.7422C169.77 69.1172 170.062 69.4141 170.422 69.6328C170.789 69.8438 171.227 69.9492 171.734 69.9492C172.375 69.9492 172.902 69.8086 173.316 69.5273C173.73 69.2461 174.055 68.8672 174.289 68.3906C174.531 67.9062 174.695 67.3672 174.781 66.7734V64.6523C174.734 64.1914 174.637 63.7617 174.488 63.3633C174.348 62.9648 174.156 62.6172 173.914 62.3203C173.672 62.0156 173.371 61.7812 173.012 61.6172C172.66 61.4453 172.242 61.3594 171.758 61.3594C171.242 61.3594 170.805 61.4688 170.445 61.6875C170.086 61.9062 169.789 62.207 169.555 62.5898C169.328 62.9727 169.16 63.418 169.051 63.9258C168.941 64.4336 168.887 64.9766 168.887 65.5547ZM187.73 69.0117V59.3203H190.566V72H187.895L187.73 69.0117ZM188.129 66.375L189.078 66.3516C189.078 67.2031 188.984 67.9883 188.797 68.707C188.609 69.418 188.32 70.0391 187.93 70.5703C187.539 71.0938 187.039 71.5039 186.43 71.8008C185.82 72.0898 185.09 72.2344 184.238 72.2344C183.621 72.2344 183.055 72.1445 182.539 71.9648C182.023 71.7852 181.578 71.5078 181.203 71.1328C180.836 70.7578 180.551 70.2695 180.348 69.668C180.145 69.0664 180.043 68.3477 180.043 67.5117V59.3203H182.867V67.5352C182.867 67.9961 182.922 68.3828 183.031 68.6953C183.141 69 183.289 69.2461 183.477 69.4336C183.664 69.6211 183.883 69.7539 184.133 69.832C184.383 69.9102 184.648 69.9492 184.93 69.9492C185.734 69.9492 186.367 69.793 186.828 69.4805C187.297 69.1602 187.629 68.7305 187.824 68.1914C188.027 67.6523 188.129 67.0469 188.129 66.375ZM198.641 69.9844C199.102 69.9844 199.516 69.8945 199.883 69.7148C200.258 69.5273 200.559 69.2695 200.785 68.9414C201.02 68.6133 201.148 68.2344 201.172 67.8047H203.832C203.816 68.625 203.574 69.3711 203.105 70.043C202.637 70.7148 202.016 71.25 201.242 71.6484C200.469 72.0391 199.613 72.2344 198.676 72.2344C197.707 72.2344 196.863 72.0703 196.145 71.7422C195.426 71.4062 194.828 70.9453 194.352 70.3594C193.875 69.7734 193.516 69.0977 193.273 68.332C193.039 67.5664 192.922 66.7461 192.922 65.8711V65.4609C192.922 64.5859 193.039 63.7656 193.273 63C193.516 62.2266 193.875 61.5469 194.352 60.9609C194.828 60.375 195.426 59.918 196.145 59.5898C196.863 59.2539 197.703 59.0859 198.664 59.0859C199.68 59.0859 200.57 59.2891 201.336 59.6953C202.102 60.0938 202.703 60.6523 203.141 61.3711C203.586 62.082 203.816 62.9102 203.832 63.8555H201.172C201.148 63.3867 201.031 62.9648 200.82 62.5898C200.617 62.207 200.328 61.9023 199.953 61.6758C199.586 61.4492 199.145 61.3359 198.629 61.3359C198.059 61.3359 197.586 61.4531 197.211 61.6875C196.836 61.9141 196.543 62.2266 196.332 62.625C196.121 63.0156 195.969 63.457 195.875 63.9492C195.789 64.4336 195.746 64.9375 195.746 65.4609V65.8711C195.746 66.3945 195.789 66.9023 195.875 67.3945C195.961 67.8867 196.109 68.3281 196.32 68.7188C196.539 69.1016 196.836 69.4102 197.211 69.6445C197.586 69.8711 198.062 69.9844 198.641 69.9844ZM211.812 59.3203V61.3828H204.664V59.3203H211.812ZM206.727 56.2148H209.551V68.4961C209.551 68.8867 209.605 69.1875 209.715 69.3984C209.832 69.6016 209.992 69.7383 210.195 69.8086C210.398 69.8789 210.637 69.9141 210.91 69.9141C211.105 69.9141 211.293 69.9023 211.473 69.8789C211.652 69.8555 211.797 69.832 211.906 69.8086L211.918 71.9648C211.684 72.0352 211.41 72.0977 211.098 72.1523C210.793 72.207 210.441 72.2344 210.043 72.2344C209.395 72.2344 208.82 72.1211 208.32 71.8945C207.82 71.6602 207.43 71.2812 207.148 70.7578C206.867 70.2344 206.727 69.5391 206.727 68.6719V56.2148Z" fill="#3B6B92"/>
</g>
<g filter="url(#filter1_d_614_1421)">
<rect x="16" y="132" width="328" height="104" rx="12" fill="white" shape-rendering="crispEdges"/>
<rect x="28" y="144" width="80" height="80" rx="2.85714" fill="#E3F2FD"/>
<path fill-rule="evenodd" clip-rule="evenodd" d="M75.9451 194.385L75.9268 194.394C75.7991 194.479 75.6896 194.598 75.6166 194.733C75.5436 194.865 75.489 195.014 75.489 195.169C75.489 195.174 75.489 195.181 75.489 195.187V204.842C75.489 205.171 75.6714 205.475 75.9451 205.638L84.3742 210.543L84.3925 210.551C84.5384 210.632 84.6844 210.668 84.8486 210.667C84.9945 210.665 85.1405 210.626 85.2864 210.551C85.2864 210.547 85.2864 210.541 85.2864 210.541L93.7155 205.638C94.0075 205.475 94.1717 205.171 94.1717 204.842V195.235C94.1899 194.9 94.0257 194.565 93.7155 194.385L89.6287 192.005C89.5557 191.941 89.4645 191.89 89.3733 191.855L85.2864 189.48C85.0128 189.317 84.6661 189.317 84.3742 189.48L75.9451 194.385ZM85.7426 208.154V200.618L92.3472 196.774V204.311L85.7426 208.154ZM79.7034 198.166L77.3135 196.774V204.311L83.9181 208.154V200.618L81.5279 199.227V200.469C81.5279 200.976 81.1265 201.388 80.6157 201.388C80.1231 201.388 79.7034 200.976 79.7034 200.469V198.166ZM42.7031 207.935L42.7394 207.941H73.6828C74.1936 207.941 74.595 207.529 74.595 207.021C74.595 206.514 74.1936 206.102 73.6828 206.102H43.6699C44.0895 194.604 53.4675 185.414 64.9799 185.414C70.1432 185.414 74.8685 187.257 78.554 190.323C78.9371 190.646 79.5211 190.591 79.8313 190.199C80.1597 189.808 80.1048 189.228 79.7034 188.905C75.7078 185.576 70.5811 183.575 64.9799 183.575C52.1903 183.575 41.8271 194.027 41.8271 206.917C41.8271 207.709 42.5206 207.899 42.7031 207.935ZM82.4219 197.627L84.8303 199.025L91.4349 195.181L89.0448 193.784L82.4219 197.627ZM78.2257 195.181L80.5974 196.566L87.2203 192.723L84.8303 191.34L78.2257 195.181ZM64.9799 157.333C58.3571 157.333 52.9932 162.747 52.9932 169.418C52.9932 176.086 58.3571 181.501 64.9799 181.501C71.6028 181.501 76.9667 176.086 76.9667 169.418C76.9667 162.747 71.6028 157.333 64.9799 157.333ZM64.9799 159.172C70.5811 159.172 75.1422 163.763 75.1422 169.418C75.1422 175.071 70.5811 179.661 64.9799 179.661C59.3788 179.661 54.8177 175.071 54.8177 169.418C54.8177 163.763 59.3788 159.172 64.9799 159.172Z" fill="#1565C0"/>
<path d="M139.812 186.445H142.742C142.648 187.562 142.336 188.559 141.805 189.434C141.273 190.301 140.527 190.984 139.566 191.484C138.605 191.984 137.438 192.234 136.062 192.234C135.008 192.234 134.059 192.047 133.215 191.672C132.371 191.289 131.648 190.75 131.047 190.055C130.445 189.352 129.984 188.504 129.664 187.512C129.352 186.52 129.195 185.41 129.195 184.184V182.766C129.195 181.539 129.355 180.43 129.676 179.438C130.004 178.445 130.473 177.598 131.082 176.895C131.691 176.184 132.422 175.641 133.273 175.266C134.133 174.891 135.098 174.703 136.168 174.703C137.527 174.703 138.676 174.953 139.613 175.453C140.551 175.953 141.277 176.645 141.793 177.527C142.316 178.41 142.637 179.422 142.754 180.562H139.824C139.746 179.828 139.574 179.199 139.309 178.676C139.051 178.152 138.668 177.754 138.16 177.48C137.652 177.199 136.988 177.059 136.168 177.059C135.496 177.059 134.91 177.184 134.41 177.434C133.91 177.684 133.492 178.051 133.156 178.535C132.82 179.02 132.566 179.617 132.395 180.328C132.23 181.031 132.148 181.836 132.148 182.742V184.184C132.148 185.043 132.223 185.824 132.371 186.527C132.527 187.223 132.762 187.82 133.074 188.32C133.395 188.82 133.801 189.207 134.293 189.48C134.785 189.754 135.375 189.891 136.062 189.891C136.898 189.891 137.574 189.758 138.09 189.492C138.613 189.227 139.008 188.84 139.273 188.332C139.547 187.816 139.727 187.188 139.812 186.445ZM152.762 189.012V179.32H155.598V192H152.926L152.762 189.012ZM153.16 186.375L154.109 186.352C154.109 187.203 154.016 187.988 153.828 188.707C153.641 189.418 153.352 190.039 152.961 190.57C152.57 191.094 152.07 191.504 151.461 191.801C150.852 192.09 150.121 192.234 149.27 192.234C148.652 192.234 148.086 192.145 147.57 191.965C147.055 191.785 146.609 191.508 146.234 191.133C145.867 190.758 145.582 190.27 145.379 189.668C145.176 189.066 145.074 188.348 145.074 187.512V179.32H147.898V187.535C147.898 187.996 147.953 188.383 148.062 188.695C148.172 189 148.32 189.246 148.508 189.434C148.695 189.621 148.914 189.754 149.164 189.832C149.414 189.91 149.68 189.949 149.961 189.949C150.766 189.949 151.398 189.793 151.859 189.48C152.328 189.16 152.66 188.73 152.855 188.191C153.059 187.652 153.16 187.047 153.16 186.375ZM165.605 188.566C165.605 188.285 165.535 188.031 165.395 187.805C165.254 187.57 164.984 187.359 164.586 187.172C164.195 186.984 163.617 186.812 162.852 186.656C162.18 186.508 161.562 186.332 161 186.129C160.445 185.918 159.969 185.664 159.57 185.367C159.172 185.07 158.863 184.719 158.645 184.312C158.426 183.906 158.316 183.438 158.316 182.906C158.316 182.391 158.43 181.902 158.656 181.441C158.883 180.98 159.207 180.574 159.629 180.223C160.051 179.871 160.562 179.594 161.164 179.391C161.773 179.188 162.453 179.086 163.203 179.086C164.266 179.086 165.176 179.266 165.934 179.625C166.699 179.977 167.285 180.457 167.691 181.066C168.098 181.668 168.301 182.348 168.301 183.105H165.477C165.477 182.77 165.391 182.457 165.219 182.168C165.055 181.871 164.805 181.633 164.469 181.453C164.133 181.266 163.711 181.172 163.203 181.172C162.719 181.172 162.316 181.25 161.996 181.406C161.684 181.555 161.449 181.75 161.293 181.992C161.145 182.234 161.07 182.5 161.07 182.789C161.07 183 161.109 183.191 161.188 183.363C161.273 183.527 161.414 183.68 161.609 183.82C161.805 183.953 162.07 184.078 162.406 184.195C162.75 184.312 163.18 184.426 163.695 184.535C164.664 184.738 165.496 185 166.191 185.32C166.895 185.633 167.434 186.039 167.809 186.539C168.184 187.031 168.371 187.656 168.371 188.414C168.371 188.977 168.25 189.492 168.008 189.961C167.773 190.422 167.43 190.824 166.977 191.168C166.523 191.504 165.98 191.766 165.348 191.953C164.723 192.141 164.02 192.234 163.238 192.234C162.09 192.234 161.117 192.031 160.32 191.625C159.523 191.211 158.918 190.684 158.504 190.043C158.098 189.395 157.895 188.723 157.895 188.027H160.625C160.656 188.551 160.801 188.969 161.059 189.281C161.324 189.586 161.652 189.809 162.043 189.949C162.441 190.082 162.852 190.148 163.273 190.148C163.781 190.148 164.207 190.082 164.551 189.949C164.895 189.809 165.156 189.621 165.336 189.387C165.516 189.145 165.605 188.871 165.605 188.566ZM176.656 179.32V181.383H169.508V179.32H176.656ZM171.57 176.215H174.395V188.496C174.395 188.887 174.449 189.188 174.559 189.398C174.676 189.602 174.836 189.738 175.039 189.809C175.242 189.879 175.48 189.914 175.754 189.914C175.949 189.914 176.137 189.902 176.316 189.879C176.496 189.855 176.641 189.832 176.75 189.809L176.762 191.965C176.527 192.035 176.254 192.098 175.941 192.152C175.637 192.207 175.285 192.234 174.887 192.234C174.238 192.234 173.664 192.121 173.164 191.895C172.664 191.66 172.273 191.281 171.992 190.758C171.711 190.234 171.57 189.539 171.57 188.672V176.215ZM178.016 185.801V185.531C178.016 184.617 178.148 183.77 178.414 182.988C178.68 182.199 179.062 181.516 179.562 180.938C180.07 180.352 180.688 179.898 181.414 179.578C182.148 179.25 182.977 179.086 183.898 179.086C184.828 179.086 185.656 179.25 186.383 179.578C187.117 179.898 187.738 180.352 188.246 180.938C188.754 181.516 189.141 182.199 189.406 182.988C189.672 183.77 189.805 184.617 189.805 185.531V185.801C189.805 186.715 189.672 187.562 189.406 188.344C189.141 189.125 188.754 189.809 188.246 190.395C187.738 190.973 187.121 191.426 186.395 191.754C185.668 192.074 184.844 192.234 183.922 192.234C182.992 192.234 182.16 192.074 181.426 191.754C180.699 191.426 180.082 190.973 179.574 190.395C179.066 189.809 178.68 189.125 178.414 188.344C178.148 187.562 178.016 186.715 178.016 185.801ZM180.84 185.531V185.801C180.84 186.371 180.898 186.91 181.016 187.418C181.133 187.926 181.316 188.371 181.566 188.754C181.816 189.137 182.137 189.438 182.527 189.656C182.918 189.875 183.383 189.984 183.922 189.984C184.445 189.984 184.898 189.875 185.281 189.656C185.672 189.438 185.992 189.137 186.242 188.754C186.492 188.371 186.676 187.926 186.793 187.418C186.918 186.91 186.98 186.371 186.98 185.801V185.531C186.98 184.969 186.918 184.438 186.793 183.938C186.676 183.43 186.488 182.98 186.23 182.59C185.98 182.199 185.66 181.895 185.27 181.676C184.887 181.449 184.43 181.336 183.898 181.336C183.367 181.336 182.906 181.449 182.516 181.676C182.133 181.895 181.816 182.199 181.566 182.59C181.316 182.98 181.133 183.43 181.016 183.938C180.898 184.438 180.84 184.969 180.84 185.531ZM194.996 181.898V192H192.172V179.32H194.832L194.996 181.898ZM194.539 185.191L193.578 185.18C193.578 184.305 193.688 183.496 193.906 182.754C194.125 182.012 194.445 181.367 194.867 180.82C195.289 180.266 195.812 179.84 196.438 179.543C197.07 179.238 197.801 179.086 198.629 179.086C199.207 179.086 199.734 179.172 200.211 179.344C200.695 179.508 201.113 179.77 201.465 180.129C201.824 180.488 202.098 180.949 202.285 181.512C202.48 182.074 202.578 182.754 202.578 183.551V192H199.754V183.797C199.754 183.18 199.66 182.695 199.473 182.344C199.293 181.992 199.031 181.742 198.688 181.594C198.352 181.438 197.949 181.359 197.48 181.359C196.949 181.359 196.496 181.461 196.121 181.664C195.754 181.867 195.453 182.145 195.219 182.496C194.984 182.848 194.812 183.254 194.703 183.715C194.594 184.176 194.539 184.668 194.539 185.191ZM202.402 184.441L201.078 184.734C201.078 183.969 201.184 183.246 201.395 182.566C201.613 181.879 201.93 181.277 202.344 180.762C202.766 180.238 203.285 179.828 203.902 179.531C204.52 179.234 205.227 179.086 206.023 179.086C206.672 179.086 207.25 179.176 207.758 179.355C208.273 179.527 208.711 179.801 209.07 180.176C209.43 180.551 209.703 181.039 209.891 181.641C210.078 182.234 210.172 182.953 210.172 183.797V192H207.336V183.785C207.336 183.145 207.242 182.648 207.055 182.297C206.875 181.945 206.617 181.703 206.281 181.57C205.945 181.43 205.543 181.359 205.074 181.359C204.637 181.359 204.25 181.441 203.914 181.605C203.586 181.762 203.309 181.984 203.082 182.273C202.855 182.555 202.684 182.879 202.566 183.246C202.457 183.613 202.402 184.012 202.402 184.441ZM218.668 192.234C217.73 192.234 216.883 192.082 216.125 191.777C215.375 191.465 214.734 191.031 214.203 190.477C213.68 189.922 213.277 189.27 212.996 188.52C212.715 187.77 212.574 186.961 212.574 186.094V185.625C212.574 184.633 212.719 183.734 213.008 182.93C213.297 182.125 213.699 181.438 214.215 180.867C214.73 180.289 215.34 179.848 216.043 179.543C216.746 179.238 217.508 179.086 218.328 179.086C219.234 179.086 220.027 179.238 220.707 179.543C221.387 179.848 221.949 180.277 222.395 180.832C222.848 181.379 223.184 182.031 223.402 182.789C223.629 183.547 223.742 184.383 223.742 185.297V186.504H213.945V184.477H220.953V184.254C220.938 183.746 220.836 183.27 220.648 182.824C220.469 182.379 220.191 182.02 219.816 181.746C219.441 181.473 218.941 181.336 218.316 181.336C217.848 181.336 217.43 181.438 217.062 181.641C216.703 181.836 216.402 182.121 216.16 182.496C215.918 182.871 215.73 183.324 215.598 183.855C215.473 184.379 215.41 184.969 215.41 185.625V186.094C215.41 186.648 215.484 187.164 215.633 187.641C215.789 188.109 216.016 188.52 216.312 188.871C216.609 189.223 216.969 189.5 217.391 189.703C217.812 189.898 218.293 189.996 218.832 189.996C219.512 189.996 220.117 189.859 220.648 189.586C221.18 189.312 221.641 188.926 222.031 188.426L223.52 189.867C223.246 190.266 222.891 190.648 222.453 191.016C222.016 191.375 221.48 191.668 220.848 191.895C220.223 192.121 219.496 192.234 218.668 192.234ZM228.781 181.734V192H225.957V179.32H228.652L228.781 181.734ZM232.66 179.238L232.637 181.863C232.465 181.832 232.277 181.809 232.074 181.793C231.879 181.777 231.684 181.77 231.488 181.77C231.004 181.77 230.578 181.84 230.211 181.98C229.844 182.113 229.535 182.309 229.285 182.566C229.043 182.816 228.855 183.121 228.723 183.48C228.59 183.84 228.512 184.242 228.488 184.688L227.844 184.734C227.844 183.938 227.922 183.199 228.078 182.52C228.234 181.84 228.469 181.242 228.781 180.727C229.102 180.211 229.5 179.809 229.977 179.52C230.461 179.23 231.02 179.086 231.652 179.086C231.824 179.086 232.008 179.102 232.203 179.133C232.406 179.164 232.559 179.199 232.66 179.238Z" fill="#3B6B92"/>
</g>
<g filter="url(#filter2_d_614_1421)">
<rect x="16" y="252" width="328" height="104" rx="12" fill="white" shape-rendering="crispEdges"/>
<rect x="28" y="264" width="80" height="80" rx="2.85714" fill="#E3F2FD"/>
<path fill-rule="evenodd" clip-rule="evenodd" d="M67.9992 275.818C58.8493 275.818 51.4034 283.301 51.4034 292.515C51.4034 294.982 52.4501 297.924 53.9444 301.08C55.4386 304.236 57.4114 307.577 59.3802 310.641C59.6074 310.995 59.8353 311.345 60.0617 311.691C56.058 312.371 52.6534 313.533 50.1095 315.054C47.2509 316.763 45.374 319.011 45.374 321.609C45.374 323.235 46.1316 324.746 47.3495 326.022C48.5673 327.297 50.254 328.387 52.2966 329.292C56.3818 331.102 61.9024 332.182 67.9992 332.182C74.096 332.182 79.6185 331.102 83.7037 329.292C85.7463 328.387 87.4404 327.297 88.6582 326.022C89.8761 324.746 90.6262 323.235 90.6262 321.609C90.6262 319.011 88.7564 316.762 85.8982 315.054C83.3535 313.533 79.9444 312.371 75.9385 311.691C76.165 311.345 76.3928 310.995 76.6201 310.641C78.5888 307.577 80.5616 304.236 82.0559 301.08C83.5502 297.924 84.595 294.982 84.595 292.515C84.595 283.301 77.149 275.818 67.9992 275.818ZM67.9992 277.761C76.1208 277.761 82.6775 284.359 82.6775 292.515C82.6775 294.391 81.7651 297.205 80.3276 300.241C78.89 303.277 76.9538 306.56 75.0135 309.581C71.5073 315.038 68.6439 318.695 67.9992 319.529C67.3544 318.695 64.493 315.038 60.9867 309.581C59.0464 306.56 57.1102 303.277 55.6727 300.241C54.2351 297.205 53.3227 294.391 53.3227 292.515C53.3227 284.359 59.8775 277.761 67.9992 277.761ZM67.9992 282.883C62.7306 282.883 58.4327 287.204 58.4327 292.515C58.4327 297.826 62.7306 302.143 67.9992 302.143C73.2678 302.143 77.5675 297.826 77.5675 292.515C77.5675 287.204 73.2678 282.883 67.9992 282.883ZM67.9992 284.827C72.2396 284.827 75.6501 288.263 75.6501 292.515C75.6501 296.767 72.2396 300.198 67.9992 300.198C63.7588 300.198 60.3501 296.767 60.3501 292.515C60.3501 288.263 63.7588 284.827 67.9992 284.827ZM61.2489 313.473C64.472 318.245 67.2502 321.803 67.2502 321.803C67.34 321.917 67.4541 322.009 67.5839 322.073C67.7137 322.136 67.856 322.169 68.0001 322.169C68.1442 322.169 68.2865 322.136 68.4163 322.073C68.5462 322.009 68.6602 321.917 68.75 321.803C68.75 321.803 71.5299 318.245 74.7532 313.473C78.9645 314.099 82.4881 315.277 84.9208 316.732C87.4636 318.252 88.7069 319.98 88.7069 321.609C88.7069 322.634 88.2533 323.651 87.2782 324.672C86.3031 325.694 84.8183 326.673 82.9397 327.506C79.1825 329.17 73.8695 330.239 67.9992 330.239C62.1288 330.239 56.8178 329.17 53.0605 327.506C51.1819 326.673 49.6971 325.694 48.722 324.672C47.7469 323.651 47.2933 322.634 47.2933 321.609C47.2933 319.98 48.5362 318.252 51.0795 316.732C53.5115 315.278 57.0391 314.099 61.2489 313.473Z" fill="#1565C0"/>
<path d="M140.422 309.668V312H131.855V309.668H140.422ZM132.676 294.938V312H129.734V294.938H132.676ZM141.875 305.801V305.531C141.875 304.617 142.008 303.77 142.273 302.988C142.539 302.199 142.922 301.516 143.422 300.938C143.93 300.352 144.547 299.898 145.273 299.578C146.008 299.25 146.836 299.086 147.758 299.086C148.688 299.086 149.516 299.25 150.242 299.578C150.977 299.898 151.598 300.352 152.105 300.938C152.613 301.516 153 302.199 153.266 302.988C153.531 303.77 153.664 304.617 153.664 305.531V305.801C153.664 306.715 153.531 307.562 153.266 308.344C153 309.125 152.613 309.809 152.105 310.395C151.598 310.973 150.98 311.426 150.254 311.754C149.527 312.074 148.703 312.234 147.781 312.234C146.852 312.234 146.02 312.074 145.285 311.754C144.559 311.426 143.941 310.973 143.434 310.395C142.926 309.809 142.539 309.125 142.273 308.344C142.008 307.562 141.875 306.715 141.875 305.801ZM144.699 305.531V305.801C144.699 306.371 144.758 306.91 144.875 307.418C144.992 307.926 145.176 308.371 145.426 308.754C145.676 309.137 145.996 309.438 146.387 309.656C146.777 309.875 147.242 309.984 147.781 309.984C148.305 309.984 148.758 309.875 149.141 309.656C149.531 309.438 149.852 309.137 150.102 308.754C150.352 308.371 150.535 307.926 150.652 307.418C150.777 306.91 150.84 306.371 150.84 305.801V305.531C150.84 304.969 150.777 304.438 150.652 303.938C150.535 303.43 150.348 302.98 150.09 302.59C149.84 302.199 149.52 301.895 149.129 301.676C148.746 301.449 148.289 301.336 147.758 301.336C147.227 301.336 146.766 301.449 146.375 301.676C145.992 301.895 145.676 302.199 145.426 302.59C145.176 302.98 144.992 303.43 144.875 303.938C144.758 304.438 144.699 304.969 144.699 305.531ZM161.211 309.984C161.672 309.984 162.086 309.895 162.453 309.715C162.828 309.527 163.129 309.27 163.355 308.941C163.59 308.613 163.719 308.234 163.742 307.805H166.402C166.387 308.625 166.145 309.371 165.676 310.043C165.207 310.715 164.586 311.25 163.812 311.648C163.039 312.039 162.184 312.234 161.246 312.234C160.277 312.234 159.434 312.07 158.715 311.742C157.996 311.406 157.398 310.945 156.922 310.359C156.445 309.773 156.086 309.098 155.844 308.332C155.609 307.566 155.492 306.746 155.492 305.871V305.461C155.492 304.586 155.609 303.766 155.844 303C156.086 302.227 156.445 301.547 156.922 300.961C157.398 300.375 157.996 299.918 158.715 299.59C159.434 299.254 160.273 299.086 161.234 299.086C162.25 299.086 163.141 299.289 163.906 299.695C164.672 300.094 165.273 300.652 165.711 301.371C166.156 302.082 166.387 302.91 166.402 303.855H163.742C163.719 303.387 163.602 302.965 163.391 302.59C163.188 302.207 162.898 301.902 162.523 301.676C162.156 301.449 161.715 301.336 161.199 301.336C160.629 301.336 160.156 301.453 159.781 301.688C159.406 301.914 159.113 302.227 158.902 302.625C158.691 303.016 158.539 303.457 158.445 303.949C158.359 304.434 158.316 304.938 158.316 305.461V305.871C158.316 306.395 158.359 306.902 158.445 307.395C158.531 307.887 158.68 308.328 158.891 308.719C159.109 309.102 159.406 309.41 159.781 309.645C160.156 309.871 160.633 309.984 161.211 309.984ZM175.719 309.457V303.41C175.719 302.957 175.637 302.566 175.473 302.238C175.309 301.91 175.059 301.656 174.723 301.477C174.395 301.297 173.98 301.207 173.48 301.207C173.02 301.207 172.621 301.285 172.285 301.441C171.949 301.598 171.688 301.809 171.5 302.074C171.312 302.34 171.219 302.641 171.219 302.977H168.406C168.406 302.477 168.527 301.992 168.77 301.523C169.012 301.055 169.363 300.637 169.824 300.27C170.285 299.902 170.836 299.613 171.477 299.402C172.117 299.191 172.836 299.086 173.633 299.086C174.586 299.086 175.43 299.246 176.164 299.566C176.906 299.887 177.488 300.371 177.91 301.02C178.34 301.66 178.555 302.465 178.555 303.434V309.07C178.555 309.648 178.594 310.168 178.672 310.629C178.758 311.082 178.879 311.477 179.035 311.812V312H176.141C176.008 311.695 175.902 311.309 175.824 310.84C175.754 310.363 175.719 309.902 175.719 309.457ZM176.129 304.289L176.152 306.035H174.125C173.602 306.035 173.141 306.086 172.742 306.188C172.344 306.281 172.012 306.422 171.746 306.609C171.48 306.797 171.281 307.023 171.148 307.289C171.016 307.555 170.949 307.855 170.949 308.191C170.949 308.527 171.027 308.836 171.184 309.117C171.34 309.391 171.566 309.605 171.863 309.762C172.168 309.918 172.535 309.996 172.965 309.996C173.543 309.996 174.047 309.879 174.477 309.645C174.914 309.402 175.258 309.109 175.508 308.766C175.758 308.414 175.891 308.082 175.906 307.77L176.82 309.023C176.727 309.344 176.566 309.688 176.34 310.055C176.113 310.422 175.816 310.773 175.449 311.109C175.09 311.438 174.656 311.707 174.148 311.918C173.648 312.129 173.07 312.234 172.414 312.234C171.586 312.234 170.848 312.07 170.199 311.742C169.551 311.406 169.043 310.957 168.676 310.395C168.309 309.824 168.125 309.18 168.125 308.461C168.125 307.789 168.25 307.195 168.5 306.68C168.758 306.156 169.133 305.719 169.625 305.367C170.125 305.016 170.734 304.75 171.453 304.57C172.172 304.383 172.992 304.289 173.914 304.289H176.129ZM187.32 299.32V301.383H180.172V299.32H187.32ZM182.234 296.215H185.059V308.496C185.059 308.887 185.113 309.188 185.223 309.398C185.34 309.602 185.5 309.738 185.703 309.809C185.906 309.879 186.145 309.914 186.418 309.914C186.613 309.914 186.801 309.902 186.98 309.879C187.16 309.855 187.305 309.832 187.414 309.809L187.426 311.965C187.191 312.035 186.918 312.098 186.605 312.152C186.301 312.207 185.949 312.234 185.551 312.234C184.902 312.234 184.328 312.121 183.828 311.895C183.328 311.66 182.938 311.281 182.656 310.758C182.375 310.234 182.234 309.539 182.234 308.672V296.215ZM192.523 299.32V312H189.688V299.32H192.523ZM189.5 295.992C189.5 295.562 189.641 295.207 189.922 294.926C190.211 294.637 190.609 294.492 191.117 294.492C191.617 294.492 192.012 294.637 192.301 294.926C192.59 295.207 192.734 295.562 192.734 295.992C192.734 296.414 192.59 296.766 192.301 297.047C192.012 297.328 191.617 297.469 191.117 297.469C190.609 297.469 190.211 297.328 189.922 297.047C189.641 296.766 189.5 296.414 189.5 295.992ZM195.078 305.801V305.531C195.078 304.617 195.211 303.77 195.477 302.988C195.742 302.199 196.125 301.516 196.625 300.938C197.133 300.352 197.75 299.898 198.477 299.578C199.211 299.25 200.039 299.086 200.961 299.086C201.891 299.086 202.719 299.25 203.445 299.578C204.18 299.898 204.801 300.352 205.309 300.938C205.816 301.516 206.203 302.199 206.469 302.988C206.734 303.77 206.867 304.617 206.867 305.531V305.801C206.867 306.715 206.734 307.562 206.469 308.344C206.203 309.125 205.816 309.809 205.309 310.395C204.801 310.973 204.184 311.426 203.457 311.754C202.73 312.074 201.906 312.234 200.984 312.234C200.055 312.234 199.223 312.074 198.488 311.754C197.762 311.426 197.145 310.973 196.637 310.395C196.129 309.809 195.742 309.125 195.477 308.344C195.211 307.562 195.078 306.715 195.078 305.801ZM197.902 305.531V305.801C197.902 306.371 197.961 306.91 198.078 307.418C198.195 307.926 198.379 308.371 198.629 308.754C198.879 309.137 199.199 309.438 199.59 309.656C199.98 309.875 200.445 309.984 200.984 309.984C201.508 309.984 201.961 309.875 202.344 309.656C202.734 309.438 203.055 309.137 203.305 308.754C203.555 308.371 203.738 307.926 203.855 307.418C203.98 306.91 204.043 306.371 204.043 305.801V305.531C204.043 304.969 203.98 304.438 203.855 303.938C203.738 303.43 203.551 302.98 203.293 302.59C203.043 302.199 202.723 301.895 202.332 301.676C201.949 301.449 201.492 301.336 200.961 301.336C200.43 301.336 199.969 301.449 199.578 301.676C199.195 301.895 198.879 302.199 198.629 302.59C198.379 302.98 198.195 303.43 198.078 303.938C197.961 304.438 197.902 304.969 197.902 305.531ZM212.035 302.027V312H209.211V299.32H211.871L212.035 302.027ZM211.531 305.191L210.617 305.18C210.625 304.281 210.75 303.457 210.992 302.707C211.242 301.957 211.586 301.312 212.023 300.773C212.469 300.234 213 299.82 213.617 299.531C214.234 299.234 214.922 299.086 215.68 299.086C216.289 299.086 216.84 299.172 217.332 299.344C217.832 299.508 218.258 299.777 218.609 300.152C218.969 300.527 219.242 301.016 219.43 301.617C219.617 302.211 219.711 302.941 219.711 303.809V312H216.875V303.797C216.875 303.188 216.785 302.707 216.605 302.355C216.434 301.996 216.18 301.742 215.844 301.594C215.516 301.438 215.105 301.359 214.613 301.359C214.129 301.359 213.695 301.461 213.312 301.664C212.93 301.867 212.605 302.145 212.34 302.496C212.082 302.848 211.883 303.254 211.742 303.715C211.602 304.176 211.531 304.668 211.531 305.191Z" fill="#3B6B92"/>
</g>
<g filter="url(#filter3_d_614_1421)">
<rect x="16" y="372" width="328" height="104" rx="12" fill="white" shape-rendering="crispEdges"/>
<rect x="28" y="384" width="80" height="80" rx="2.85714" fill="#E3F2FD"/>
<path d="M46.5294 436.362C46.7934 436.824 46.64 437.409 46.1748 437.68C46.0214 437.77 45.8529 437.808 45.692 437.808C45.3575 437.808 45.0357 437.635 44.8546 437.326C42.5209 433.292 41.2837 428.684 41.2837 424C41.2837 417.163 43.9292 410.617 48.5962 405.687H44.8241C44.291 405.687 43.8585 405.255 43.8585 404.723C43.8585 404.191 44.291 403.759 44.8241 403.759H51.2618C51.7949 403.759 52.2274 404.191 52.2274 404.723V411.149C52.2274 411.681 51.7949 412.113 51.2618 412.113C50.7287 412.113 50.2962 411.681 50.2962 411.149V406.701C45.7772 411.309 43.2147 417.514 43.2147 424C43.2147 428.345 44.3617 432.617 46.5294 436.362ZM80.4179 445.416C76.6584 447.59 72.3656 448.739 68.0003 448.739C61.497 448.739 55.2782 446.181 50.6688 441.671H55.1249C55.658 441.671 56.0905 441.239 56.0905 440.707C56.0905 440.175 55.658 439.743 55.1249 439.743H48.6872C48.1541 439.743 47.7216 440.175 47.7216 440.707V447.133C47.7216 447.665 48.1541 448.097 48.6872 448.097C49.2204 448.097 49.6529 447.665 49.6529 447.133V443.368C54.5918 448.031 61.1454 450.667 68.0002 450.667C72.7052 450.667 77.3348 449.427 81.3834 447.087C81.8462 446.816 82.0021 446.234 81.738 445.769C81.4689 445.308 80.8831 445.155 80.4179 445.416ZM55.5827 402.59C59.3346 400.411 63.6297 399.261 68.0003 399.261C74.4959 399.261 80.7146 401.819 85.3369 406.33H80.8758C80.3427 406.33 79.9101 406.761 79.9101 407.293C79.9101 407.826 80.3427 408.257 80.8758 408.257H87.3134C87.8465 408.257 88.2791 407.826 88.2791 407.293V400.868C88.2791 400.336 87.8465 399.904 87.3134 399.904C86.7803 399.904 86.3478 400.336 86.3478 400.868V404.628C81.4039 399.969 74.8508 397.333 68.0005 397.333C63.2954 397.333 58.6659 398.573 54.6172 400.918C54.1545 401.189 53.9986 401.771 54.2702 402.235C54.5317 402.7 55.125 402.853 55.5827 402.59ZM91.1758 442.313H87.4088C92.0761 437.384 94.7168 430.838 94.7168 424C94.7168 419.316 93.4795 414.708 91.1434 410.674C90.8718 410.213 90.2884 410.057 89.8232 410.321C89.3604 410.592 89.2045 411.174 89.4686 411.638C91.6388 415.383 92.7854 419.656 92.7854 424C92.7854 430.491 90.2229 436.699 85.704 441.305V436.852C85.704 436.32 85.2715 435.888 84.7384 435.888C84.2053 435.888 83.7727 436.32 83.7727 436.852V443.278C83.7727 443.81 84.2053 444.241 84.7384 444.241H91.176C91.7091 444.241 92.1417 443.81 92.1417 443.278C92.1417 442.745 91.7089 442.313 91.1758 442.313ZM78.9243 411.47C80.5337 411.47 81.8414 412.775 81.8414 414.382V433.626C81.8414 435.232 80.5337 436.538 78.9243 436.538H57.0762C55.4668 436.538 54.1592 435.232 54.1592 433.626V414.382C54.1592 412.775 55.4668 411.47 57.0762 411.47H78.9243ZM66.3909 413.398V418.583L67.5677 417.999C67.7035 417.928 67.8519 417.896 68.0003 417.896C68.1486 417.896 68.297 417.928 68.4328 417.999L69.6097 418.583V413.398H66.3909ZM78.9243 413.398H71.541V420.145C71.541 420.479 71.3675 420.787 71.0833 420.968C70.9299 421.063 70.7539 421.108 70.5753 421.108C70.427 421.108 70.2786 421.076 70.1428 421.006L68.0003 419.939L65.8578 421.006C65.556 421.154 65.2014 421.141 64.9173 420.96C64.6331 420.787 64.4596 420.478 64.4596 420.145V413.398H57.0763C56.5356 413.398 56.0905 413.834 56.0905 414.382V433.626C56.0905 434.166 56.5281 434.61 57.0763 434.61H78.9315C79.4721 434.61 79.9172 434.173 79.9172 433.626V414.382C79.9096 413.834 79.4726 413.398 78.9243 413.398ZM61.5626 430.747H58.9876C58.4544 430.747 58.0219 431.179 58.0219 431.711C58.0219 432.243 58.4544 432.675 58.9876 432.675H61.5626C62.0957 432.675 62.5283 432.243 62.5283 431.711C62.5283 431.179 62.0957 430.747 61.5626 430.747ZM64.1377 426.892H58.9876C58.4544 426.892 58.0219 427.323 58.0219 427.856C58.0219 428.388 58.4544 428.819 58.9876 428.819H64.1377C64.6708 428.819 65.1033 428.388 65.1033 427.856C65.1033 427.323 64.6708 426.892 64.1377 426.892Z" fill="#1565C0"/>
<path d="M140.422 429.668V432H131.855V429.668H140.422ZM132.676 414.938V432H129.734V414.938H132.676ZM145.438 419.32V432H142.602V419.32H145.438ZM142.414 415.992C142.414 415.562 142.555 415.207 142.836 414.926C143.125 414.637 143.523 414.492 144.031 414.492C144.531 414.492 144.926 414.637 145.215 414.926C145.504 415.207 145.648 415.562 145.648 415.992C145.648 416.414 145.504 416.766 145.215 417.047C144.926 417.328 144.531 417.469 144.031 417.469C143.523 417.469 143.125 417.328 142.836 417.047C142.555 416.766 142.414 416.414 142.414 415.992ZM152.352 432H149.527V418.102C149.527 417.156 149.703 416.363 150.055 415.723C150.414 415.074 150.926 414.586 151.59 414.258C152.254 413.922 153.039 413.754 153.945 413.754C154.227 413.754 154.504 413.773 154.777 413.812C155.051 413.844 155.316 413.895 155.574 413.965L155.504 416.145C155.348 416.105 155.176 416.078 154.988 416.062C154.809 416.047 154.613 416.039 154.402 416.039C153.973 416.039 153.602 416.121 153.289 416.285C152.984 416.441 152.75 416.672 152.586 416.977C152.43 417.281 152.352 417.656 152.352 418.102V432ZM154.965 419.32V421.383H147.582V419.32H154.965ZM162.324 432.234C161.387 432.234 160.539 432.082 159.781 431.777C159.031 431.465 158.391 431.031 157.859 430.477C157.336 429.922 156.934 429.27 156.652 428.52C156.371 427.77 156.23 426.961 156.23 426.094V425.625C156.23 424.633 156.375 423.734 156.664 422.93C156.953 422.125 157.355 421.438 157.871 420.867C158.387 420.289 158.996 419.848 159.699 419.543C160.402 419.238 161.164 419.086 161.984 419.086C162.891 419.086 163.684 419.238 164.363 419.543C165.043 419.848 165.605 420.277 166.051 420.832C166.504 421.379 166.84 422.031 167.059 422.789C167.285 423.547 167.398 424.383 167.398 425.297V426.504H157.602V424.477H164.609V424.254C164.594 423.746 164.492 423.27 164.305 422.824C164.125 422.379 163.848 422.02 163.473 421.746C163.098 421.473 162.598 421.336 161.973 421.336C161.504 421.336 161.086 421.438 160.719 421.641C160.359 421.836 160.059 422.121 159.816 422.496C159.574 422.871 159.387 423.324 159.254 423.855C159.129 424.379 159.066 424.969 159.066 425.625V426.094C159.066 426.648 159.141 427.164 159.289 427.641C159.445 428.109 159.672 428.52 159.969 428.871C160.266 429.223 160.625 429.5 161.047 429.703C161.469 429.898 161.949 429.996 162.488 429.996C163.168 429.996 163.773 429.859 164.305 429.586C164.836 429.312 165.297 428.926 165.688 428.426L167.176 429.867C166.902 430.266 166.547 430.648 166.109 431.016C165.672 431.375 165.137 431.668 164.504 431.895C163.879 432.121 163.152 432.234 162.324 432.234ZM174.781 429.984C175.242 429.984 175.656 429.895 176.023 429.715C176.398 429.527 176.699 429.27 176.926 428.941C177.16 428.613 177.289 428.234 177.312 427.805H179.973C179.957 428.625 179.715 429.371 179.246 430.043C178.777 430.715 178.156 431.25 177.383 431.648C176.609 432.039 175.754 432.234 174.816 432.234C173.848 432.234 173.004 432.07 172.285 431.742C171.566 431.406 170.969 430.945 170.492 430.359C170.016 429.773 169.656 429.098 169.414 428.332C169.18 427.566 169.062 426.746 169.062 425.871V425.461C169.062 424.586 169.18 423.766 169.414 423C169.656 422.227 170.016 421.547 170.492 420.961C170.969 420.375 171.566 419.918 172.285 419.59C173.004 419.254 173.844 419.086 174.805 419.086C175.82 419.086 176.711 419.289 177.477 419.695C178.242 420.094 178.844 420.652 179.281 421.371C179.727 422.082 179.957 422.91 179.973 423.855H177.312C177.289 423.387 177.172 422.965 176.961 422.59C176.758 422.207 176.469 421.902 176.094 421.676C175.727 421.449 175.285 421.336 174.77 421.336C174.199 421.336 173.727 421.453 173.352 421.688C172.977 421.914 172.684 422.227 172.473 422.625C172.262 423.016 172.109 423.457 172.016 423.949C171.93 424.434 171.887 424.938 171.887 425.461V425.871C171.887 426.395 171.93 426.902 172.016 427.395C172.102 427.887 172.25 428.328 172.461 428.719C172.68 429.102 172.977 429.41 173.352 429.645C173.727 429.871 174.203 429.984 174.781 429.984ZM185.82 430.617L189.266 419.32H192.289L187.203 433.934C187.086 434.246 186.934 434.586 186.746 434.953C186.559 435.32 186.312 435.668 186.008 435.996C185.711 436.332 185.34 436.602 184.895 436.805C184.449 437.016 183.91 437.121 183.277 437.121C183.027 437.121 182.785 437.098 182.551 437.051C182.324 437.012 182.109 436.969 181.906 436.922L181.895 434.766C181.973 434.773 182.066 434.781 182.176 434.789C182.293 434.797 182.387 434.801 182.457 434.801C182.926 434.801 183.316 434.742 183.629 434.625C183.941 434.516 184.195 434.336 184.391 434.086C184.594 433.836 184.766 433.5 184.906 433.078L185.82 430.617ZM183.875 419.32L186.887 428.812L187.391 431.789L185.434 432.293L180.828 419.32H183.875ZM198.922 429.984C199.383 429.984 199.797 429.895 200.164 429.715C200.539 429.527 200.84 429.27 201.066 428.941C201.301 428.613 201.43 428.234 201.453 427.805H204.113C204.098 428.625 203.855 429.371 203.387 430.043C202.918 430.715 202.297 431.25 201.523 431.648C200.75 432.039 199.895 432.234 198.957 432.234C197.988 432.234 197.145 432.07 196.426 431.742C195.707 431.406 195.109 430.945 194.633 430.359C194.156 429.773 193.797 429.098 193.555 428.332C193.32 427.566 193.203 426.746 193.203 425.871V425.461C193.203 424.586 193.32 423.766 193.555 423C193.797 422.227 194.156 421.547 194.633 420.961C195.109 420.375 195.707 419.918 196.426 419.59C197.145 419.254 197.984 419.086 198.945 419.086C199.961 419.086 200.852 419.289 201.617 419.695C202.383 420.094 202.984 420.652 203.422 421.371C203.867 422.082 204.098 422.91 204.113 423.855H201.453C201.43 423.387 201.312 422.965 201.102 422.59C200.898 422.207 200.609 421.902 200.234 421.676C199.867 421.449 199.426 421.336 198.91 421.336C198.34 421.336 197.867 421.453 197.492 421.688C197.117 421.914 196.824 422.227 196.613 422.625C196.402 423.016 196.25 423.457 196.156 423.949C196.07 424.434 196.027 424.938 196.027 425.461V425.871C196.027 426.395 196.07 426.902 196.156 427.395C196.242 427.887 196.391 428.328 196.602 428.719C196.82 429.102 197.117 429.41 197.492 429.645C197.867 429.871 198.344 429.984 198.922 429.984ZM209.305 414V432H206.469V414H209.305ZM217.988 432.234C217.051 432.234 216.203 432.082 215.445 431.777C214.695 431.465 214.055 431.031 213.523 430.477C213 429.922 212.598 429.27 212.316 428.52C212.035 427.77 211.895 426.961 211.895 426.094V425.625C211.895 424.633 212.039 423.734 212.328 422.93C212.617 422.125 213.02 421.438 213.535 420.867C214.051 420.289 214.66 419.848 215.363 419.543C216.066 419.238 216.828 419.086 217.648 419.086C218.555 419.086 219.348 419.238 220.027 419.543C220.707 419.848 221.27 420.277 221.715 420.832C222.168 421.379 222.504 422.031 222.723 422.789C222.949 423.547 223.062 424.383 223.062 425.297V426.504H213.266V424.477H220.273V424.254C220.258 423.746 220.156 423.27 219.969 422.824C219.789 422.379 219.512 422.02 219.137 421.746C218.762 421.473 218.262 421.336 217.637 421.336C217.168 421.336 216.75 421.438 216.383 421.641C216.023 421.836 215.723 422.121 215.48 422.496C215.238 422.871 215.051 423.324 214.918 423.855C214.793 424.379 214.73 424.969 214.73 425.625V426.094C214.73 426.648 214.805 427.164 214.953 427.641C215.109 428.109 215.336 428.52 215.633 428.871C215.93 429.223 216.289 429.5 216.711 429.703C217.133 429.898 217.613 429.996 218.152 429.996C218.832 429.996 219.438 429.859 219.969 429.586C220.5 429.312 220.961 428.926 221.352 428.426L222.84 429.867C222.566 430.266 222.211 430.648 221.773 431.016C221.336 431.375 220.801 431.668 220.168 431.895C219.543 432.121 218.816 432.234 217.988 432.234Z" fill="#3B6B92"/>
</g>
</g>
<defs>
<filter id="filter0_d_614_1421" x="-8.8" y="-12.8" width="377.6" height="153.6" filterUnits="userSpaceOnUse" color-interpolation-filters="sRGB">
<feFlood flood-opacity="0" result="BackgroundImageFix"/>
<feColorMatrix in="SourceAlpha" type="matrix" values="0 0 0 0 0 0 0 0 0 0 0 0 0 0 0 0 0 0 127 0" result="hardAlpha"/>
<feOffset/>
<feGaussianBlur stdDeviation="12.4"/>
<feComposite in2="hardAlpha" operator="out"/>
<feColorMatrix type="matrix" values="0 0 0 0 0.2 0 0 0 0 0.533333 0 0 0 0 0.913725 0 0 0 0.4 0"/>
<feBlend mode="normal" in2="BackgroundImageFix" result="effect1_dropShadow_614_1421"/>
<feBlend mode="normal" in="SourceGraphic" in2="effect1_dropShadow_614_1421" result="shape"/>
</filter>
<filter id="filter1_d_614_1421" x="-8.8" y="107.2" width="377.6" height="153.6" filterUnits="userSpaceOnUse" color-interpolation-filters="sRGB">
<feFlood flood-opacity="0" result="BackgroundImageFix"/>
<feColorMatrix in="SourceAlpha" type="matrix" values="0 0 0 0 0 0 0 0 0 0 0 0 0 0 0 0 0 0 127 0" result="hardAlpha"/>
<feOffset/>
<feGaussianBlur stdDeviation="12.4"/>
<feComposite in2="hardAlpha" operator="out"/>
<feColorMatrix type="matrix" values="0 0 0 0 0.2 0 0 0 0 0.533333 0 0 0 0 0.913725 0 0 0 0.4 0"/>
<feBlend mode="normal" in2="BackgroundImageFix" result="effect1_dropShadow_614_1421"/>
<feBlend mode="normal" in="SourceGraphic" in2="effect1_dropShadow_614_1421" result="shape"/>
</filter>
<filter id="filter2_d_614_1421" x="-8.8" y="227.2" width="377.6" height="153.6" filterUnits="userSpaceOnUse" color-interpolation-filters="sRGB">
<feFlood flood-opacity="0" result="BackgroundImageFix"/>
<feColorMatrix in="SourceAlpha" type="matrix" values="0 0 0 0 0 0 0 0 0 0 0 0 0 0 0 0 0 0 127 0" result="hardAlpha"/>
<feOffset/>
<feGaussianBlur stdDeviation="12.4"/>
<feComposite in2="hardAlpha" operator="out"/>
<feColorMatrix type="matrix" values="0 0 0 0 0.2 0 0 0 0 0.533333 0 0 0 0 0.913725 0 0 0 0.4 0"/>
<feBlend mode="normal" in2="BackgroundImageFix" result="effect1_dropShadow_614_1421"/>
<feBlend mode="normal" in="SourceGraphic" in2="effect1_dropShadow_614_1421" result="shape"/>
</filter>
<filter id="filter3_d_614_1421" x="-8.8" y="347.2" width="377.6" height="153.6" filterUnits="userSpaceOnUse" color-interpolation-filters="sRGB">
<feFlood flood-opacity="0" result="BackgroundImageFix"/>
<feColorMatrix in="SourceAlpha" type="matrix" values="0 0 0 0 0 0 0 0 0 0 0 0 0 0 0 0 0 0 127 0" result="hardAlpha"/>
<feOffset/>
<feGaussianBlur stdDeviation="12.4"/>
<feComposite in2="hardAlpha" operator="out"/>
<feColorMatrix type="matrix" values="0 0 0 0 0.2 0 0 0 0 0.533333 0 0 0 0 0.913725 0 0 0 0.4 0"/>
<feBlend mode="normal" in2="BackgroundImageFix" result="effect1_dropShadow_614_1421"/>
<feBlend mode="normal" in="SourceGraphic" in2="effect1_dropShadow_614_1421" result="shape"/>
</filter>
<radialGradient id="paint0_radial_614_1421" cx="0" cy="0" r="1" gradientTransform="matrix(229.226 403.737 -305.331 190.88 180 244)" gradientUnits="userSpaceOnUse">
<stop stop-color="#FAFDFF"/>
<stop offset="1" stop-color="#ECF6FE"/>
</radialGradient>
<radialGradient id="paint1_radial_614_1421" cx="0" cy="0" r="1" gradientUnits="userSpaceOnUse" gradientTransform="translate(48.9966 50.1875) rotate(90) scale(50.1875 48.9966)">
<stop stop-color="#2F35FC"/>
<stop offset="1" stop-color="#2F35FC" stop-opacity="0"/>
</radialGradient>
<clipPath id="clip0_614_1421">
<rect width="360" height="488" fill="white"/>
</clipPath>
</defs>
</svg>
