<svg xmlns="http://www.w3.org/2000/svg" width="112" height="112" viewBox="0 0 112 112" fill="none">
  <rect width="112" height="112" rx="4" fill="#E3F2FD"/>
  <path d="M25.9409 73.3067C26.3106 73.9533 26.0958 74.772 25.4445 75.1516C25.2298 75.2781 24.9939 75.3308 24.7686 75.3308C24.3003 75.3308 23.8497 75.0883 23.5962 74.6561C20.3291 69.009 18.5969 62.5573 18.5969 56.0001C18.5969 46.4275 22.3006 37.2632 28.8345 30.3614H23.5536C22.8072 30.3614 22.2016 29.757 22.2016 29.012C22.2016 28.2671 22.8072 27.6626 23.5536 27.6626H32.5663C33.3126 27.6626 33.9182 28.2671 33.9182 29.012V38.0081C33.9182 38.753 33.3126 39.3575 32.5663 39.3575C31.8199 39.3575 31.2144 38.753 31.2144 38.0081V31.7811C24.8879 38.233 21.3004 46.9196 21.3004 56.0002C21.3004 62.0831 22.9062 68.0638 25.9409 73.3067ZM73.3848 85.9821C68.1215 89.0252 62.1117 90.6347 56.0001 90.6347C46.8955 90.6347 38.1892 87.0539 31.7361 80.7391H37.9746C38.721 80.7391 39.3265 80.1347 39.3265 79.3897C39.3265 78.6447 38.721 78.0403 37.9746 78.0403H28.9619C28.2155 78.0403 27.61 78.6447 27.61 79.3897V88.3857C27.61 89.1307 28.2155 89.7351 28.9619 89.7351C29.7083 89.7351 30.3138 89.1307 30.3138 88.3857V83.1146C37.2283 89.6437 46.4033 93.3332 56 93.3332C62.5871 93.3332 69.0685 91.5972 74.7366 88.3221C75.3844 87.9426 75.6026 87.1274 75.233 86.4772C74.8563 85.8306 74.0361 85.6166 73.3848 85.9821ZM38.6155 26.0253C43.8682 22.9752 49.8814 21.3657 56.0001 21.3657C65.094 21.3657 73.8003 24.9465 80.2714 31.2613H74.0258C73.2795 31.2613 72.6739 31.8657 72.6739 32.6107C72.6739 33.3557 73.2795 33.9601 74.0258 33.9601H83.0386C83.7849 33.9601 84.3905 33.3557 84.3905 32.6107V23.6147C84.3905 22.8697 83.7849 22.2653 83.0386 22.2653C82.2922 22.2653 81.6866 22.8697 81.6866 23.6147V28.8788C74.7651 22.3567 65.5908 18.6665 56.0004 18.6665C49.4134 18.6665 42.932 20.4025 37.2639 23.6846C36.6161 24.0641 36.3978 24.8793 36.778 25.5295C37.1442 26.1796 37.9747 26.3943 38.6155 26.0253ZM88.4459 81.6388H83.172C89.7063 74.7371 93.4033 65.5728 93.4033 56.0001C93.4033 49.4428 91.6711 42.991 88.4005 37.3441C88.0203 36.6976 87.2035 36.4797 86.5522 36.8487C85.9044 37.2282 85.6861 38.0434 86.0558 38.6936C89.094 43.9365 90.6994 49.9179 90.6994 56.0001C90.6994 65.0879 87.1119 73.7781 80.7854 80.2264V73.9925C80.7854 73.2475 80.1798 72.643 79.4335 72.643C78.6871 72.643 78.0816 73.2475 78.0816 73.9925V82.9885C78.0816 83.7335 78.6871 84.3379 79.4335 84.3379H88.4462C89.1926 84.3379 89.7981 83.7335 89.7981 82.9885C89.7981 82.2435 89.1923 81.6388 88.4459 81.6388ZM71.2938 38.4579C73.547 38.4579 75.3777 40.2851 75.3777 42.5341V69.4763C75.3777 71.7253 73.547 73.5526 71.2938 73.5526H40.7065C38.4533 73.5526 36.6226 71.7253 36.6226 69.4763V42.5341C36.6226 40.2851 38.4533 38.4579 40.7065 38.4579H71.2938ZM53.747 41.1567V48.4167L55.3946 47.5979C55.5847 47.4995 55.7924 47.4539 56.0001 47.4539C56.2078 47.4539 56.4155 47.4995 56.6057 47.5979L58.2533 48.4167V41.1567H53.747ZM71.2938 41.1567H60.9571V50.6025C60.9571 51.0699 60.7142 51.5021 60.3164 51.7551C60.1016 51.8886 59.8552 51.9519 59.6052 51.9519C59.3975 51.9519 59.1898 51.9062 58.9997 51.8078L56.0001 50.3142L53.0006 51.8078C52.5782 52.0151 52.0818 51.9975 51.684 51.7445C51.2861 51.502 51.0432 51.0698 51.0432 50.6025V41.1566H40.7065C39.9496 41.1566 39.3265 41.7681 39.3265 42.5341V69.4763C39.3265 70.2318 39.9391 70.8538 40.7065 70.8538H71.3038C72.0607 70.8538 72.6838 70.2423 72.6838 69.4763V42.5341C72.6733 41.768 72.0613 41.1567 71.2938 41.1567ZM46.9874 65.4459H43.3823C42.636 65.4459 42.0304 66.0504 42.0304 66.7953C42.0304 67.5403 42.636 68.1447 43.3823 68.1447H46.9874C47.7338 68.1447 48.3393 67.5403 48.3393 66.7953C48.3393 66.0504 47.7338 65.4459 46.9874 65.4459ZM50.5925 60.0483H43.3823C42.636 60.0483 42.0304 60.6527 42.0304 61.3977C42.0304 62.1427 42.636 62.7471 43.3823 62.7471H50.5925C51.3389 62.7471 51.9444 62.1427 51.9444 61.3977C51.9444 60.6527 51.3389 60.0483 50.5925 60.0483Z" fill="#1565C0"/>
</svg>