<svg xmlns="http://www.w3.org/2000/svg" width="80" height="80" viewBox="0 0 80 80" fill="none">
  <rect width="80" height="80" rx="2.85714" fill="#E3F2FD"/>
  <path fill-rule="evenodd" clip-rule="evenodd" d="M39.9992 11.8177C30.8493 11.8177 23.4034 19.3008 23.4034 28.515C23.4034 30.9818 24.4501 33.924 25.9444 37.0801C27.4386 40.2361 29.4114 43.5767 31.3802 46.6414C31.6074 46.9952 31.8353 47.3453 32.0617 47.6909C28.058 48.371 24.6534 49.5334 22.1095 51.0539C19.2509 52.7625 17.374 55.0111 17.374 57.6091C17.374 59.235 18.1316 60.7459 19.3495 62.0216C20.5673 63.2973 22.254 64.3866 24.2966 65.2916C28.3818 67.1016 33.9024 68.182 39.9992 68.182C46.096 68.182 51.6185 67.1016 55.7037 65.2916C57.7463 64.3866 59.4404 63.2973 60.6582 62.0216C61.8761 60.7459 62.6262 59.235 62.6262 57.6091C62.6262 55.0113 60.7564 52.7625 57.8982 51.0539C55.3535 49.5328 51.9444 48.3709 47.9385 47.6909C48.165 47.3452 48.3928 46.9952 48.6201 46.6414C50.5888 43.5767 52.5616 40.2361 54.0559 37.0801C55.5502 33.924 56.595 30.9818 56.595 28.515C56.595 19.3008 49.149 11.8177 39.9992 11.8177ZM39.9992 13.7611C48.1208 13.7611 54.6775 20.3593 54.6775 28.515C54.6775 30.3908 53.7651 33.205 52.3276 36.2412C50.89 39.2774 48.9538 42.5601 47.0135 45.5805C43.5073 51.0385 40.6439 54.6952 39.9992 55.5291C39.3544 54.6952 36.493 51.0385 32.9867 45.5805C31.0464 42.5601 29.1102 39.2774 27.6727 36.2412C26.2351 33.205 25.3227 30.3908 25.3227 28.515C25.3227 20.3593 31.8775 13.7611 39.9992 13.7611ZM39.9992 18.8834C34.7306 18.8834 30.4327 23.2042 30.4327 28.515C30.4327 33.8259 34.7306 38.1428 39.9992 38.1428C45.2678 38.1428 49.5675 33.8259 49.5675 28.515C49.5675 23.2042 45.2678 18.8834 39.9992 18.8834ZM39.9992 20.8268C44.2396 20.8268 47.6501 24.2627 47.6501 28.515C47.6501 32.7674 44.2396 36.1975 39.9992 36.1975C35.7588 36.1975 32.3501 32.7674 32.3501 28.515C32.3501 24.2627 35.7588 20.8268 39.9992 20.8268ZM33.2489 49.473C36.472 54.2445 39.2502 57.8027 39.2502 57.8027C39.34 57.9169 39.4541 58.0092 39.5839 58.0726C39.7137 58.136 39.856 58.169 40.0001 58.169C40.1442 58.169 40.2865 58.136 40.4163 58.0726C40.5462 58.0092 40.6602 57.9169 40.75 57.8027C40.75 57.8027 43.5299 54.245 46.7532 49.473C50.9645 50.0993 54.4881 51.2774 56.9208 52.7316C59.4636 54.2517 60.7069 55.9805 60.7069 57.6091C60.7069 58.6343 60.2533 59.6508 59.2782 60.6722C58.3031 61.6937 56.8183 62.6734 54.9397 63.5057C51.1825 65.1704 45.8695 66.2386 39.9992 66.2386C34.1288 66.2386 28.8178 65.1704 25.0605 63.5057C23.1819 62.6734 21.6971 61.6937 20.722 60.6722C19.7469 59.6508 19.2933 58.6343 19.2933 57.6091C19.2933 55.9803 20.5362 54.2517 23.0795 52.7316C25.5115 51.278 29.0391 50.0994 33.2489 49.473Z" fill="#1565C0"/>
</svg>