<svg xmlns="http://www.w3.org/2000/svg" width="112" height="112" viewBox="0 0 112 112" fill="none">
  <rect width="112" height="112" rx="4" fill="#E3F2FD"/>
  <path fill-rule="evenodd" clip-rule="evenodd" d="M55.9989 16.5449C43.1891 16.5449 32.7649 27.0212 32.7649 39.9211C32.7649 43.3746 34.2302 47.4937 36.3222 51.9121C38.4142 56.3306 41.176 61.0075 43.9323 65.2981C44.2505 65.7933 44.5695 66.2834 44.8865 66.7674C39.2813 67.7194 34.5149 69.3469 30.9534 71.4756C26.9514 73.8676 24.3237 77.0156 24.3237 80.6528C24.3237 82.929 25.3844 85.0444 27.0894 86.8303C28.7944 88.6163 31.1557 90.1413 34.0153 91.4083C39.7346 93.9423 47.4634 95.4549 55.9989 95.4549C64.5345 95.4549 72.2659 93.9423 77.9852 91.4083C80.8449 90.1413 83.2166 88.6163 84.9216 86.8303C86.6266 85.0444 87.6768 82.929 87.6768 80.6528C87.6768 77.0159 85.0591 73.8675 81.0576 71.4756C77.495 69.346 72.7222 67.7193 67.114 66.7674C67.431 66.2834 67.75 65.7933 68.0682 65.2981C70.8245 61.0075 73.5863 56.3306 75.6783 51.9121C77.7703 47.4937 79.233 43.3746 79.233 39.9211C79.233 27.0212 68.8088 16.5449 55.9989 16.5449ZM55.9989 19.2657C67.3692 19.2657 76.5487 28.5031 76.5487 39.9211C76.5487 42.5472 75.2713 46.487 73.2587 50.7378C71.2461 54.9885 68.5354 59.5842 65.819 63.8128C60.9103 71.454 56.9016 76.5734 55.9989 77.7408C55.0963 76.5734 51.0902 71.454 46.1815 63.8128C43.4651 59.5842 40.7544 54.9885 38.7418 50.7378C36.7292 46.487 35.4519 42.5472 35.4519 39.9211C35.4519 28.5031 44.6287 19.2657 55.9989 19.2657ZM55.9989 26.4369C48.6229 26.4369 42.6059 32.4859 42.6059 39.9211C42.6059 47.3564 48.6229 53.4001 55.9989 53.4001C63.375 53.4001 69.3947 47.3564 69.3947 39.9211C69.3947 32.4859 63.375 26.4369 55.9989 26.4369ZM55.9989 29.1577C61.9355 29.1577 66.7103 33.9678 66.7103 39.9211C66.7103 45.8745 61.9355 50.6766 55.9989 50.6766C50.0624 50.6766 45.2902 45.8745 45.2902 39.9211C45.2902 33.9678 50.0624 29.1577 55.9989 29.1577ZM46.5486 69.2623C51.0609 75.9424 54.9504 80.9238 54.9504 80.9238C55.0761 81.0838 55.2358 81.213 55.4175 81.3017C55.5993 81.3905 55.7985 81.4366 56.0003 81.4366C56.202 81.4366 56.4012 81.3905 56.583 81.3017C56.7647 81.213 56.9244 81.0838 57.0502 80.9238C57.0502 80.9238 60.9419 75.9431 65.4546 69.2623C71.3503 70.1391 76.2834 71.7885 79.6892 73.8244C83.2492 75.9524 84.9898 78.3727 84.9898 80.6528C84.9898 82.0881 84.3548 83.5112 82.9896 84.9412C81.6244 86.3712 79.5457 87.7428 76.9157 88.9081C71.6555 91.2386 64.2174 92.7342 55.9989 92.7342C47.7805 92.7342 40.345 91.2386 35.0849 88.9081C32.4548 87.7428 30.3761 86.3712 29.0109 84.9412C27.6458 83.5112 27.0107 82.0881 27.0107 80.6528C27.0107 78.3725 28.7508 75.9525 32.3113 73.8244C35.7162 71.7893 40.6549 70.1392 46.5486 69.2623Z" fill="#1565C0"/>
</svg>