<svg xmlns="http://www.w3.org/2000/svg" width="80" height="80" viewBox="0 0 80 80" fill="none">
  <rect width="80" height="80" rx="6.15385" fill="#E2D8F3"/>
  <path fill-rule="evenodd" clip-rule="evenodd" d="M13.6186 48.3154C13.6696 48.5006 13.6415 48.701 13.5445 48.8685C13.445 49.0359 13.2817 49.1552 13.0928 49.2034C12.904 49.249 12.7023 49.216 12.5364 49.1146C12.3705 49.0105 12.2557 48.8456 12.2123 48.6554C11.9316 47.5289 11.7198 46.3872 11.5794 45.2355C10.7474 38.4542 12.3705 31.599 16.163 25.9004C19.953 20.2023 25.6621 16.0342 32.2649 14.1416C32.6452 14.0426 33.0331 14.2659 33.1403 14.6414C33.2475 15.0169 33.0356 15.4101 32.6605 15.5268C25.8434 17.4904 20.0527 22.0014 16.505 28.1131C12.955 34.2248 11.9214 41.4634 13.6186 48.3154ZM40.2577 34.1106C36.3325 34.1106 32.9558 36.8684 32.1927 40.6944C31.427 44.5202 33.4892 48.3511 37.1132 49.843C40.7399 51.3348 44.9201 50.0713 47.0997 46.8265C49.2792 43.5841 48.8505 39.2613 46.0738 36.503C44.5322 34.9681 42.4398 34.1081 40.2577 34.1106ZM45.0481 37.5255C47.3348 39.7961 47.687 43.3581 45.8929 46.0298C44.0961 48.7013 40.6507 49.7414 37.6645 48.511C34.6785 47.2805 32.9813 44.127 33.6117 40.9737C34.2421 37.8227 37.024 35.5521 40.2576 35.5521C42.0543 35.5495 43.7796 36.2594 45.0481 37.5255ZM42.0544 30.7767L41.6537 28.2016L38.8617 28.1991L38.4533 30.825C38.4074 31.1193 38.1828 31.3552 37.8893 31.4161C36.575 31.6977 35.3244 32.2127 34.1989 32.9383C33.9411 33.1033 33.6043 33.088 33.3644 32.9003L31.2257 31.3426L29.2529 33.3062L30.8302 35.45H30.8327C31.0088 35.691 31.019 36.0132 30.8582 36.2644C30.4933 36.8251 30.1819 37.4162 29.9241 38.0327L29.9088 38.0657C29.6613 38.6695 29.4673 39.2936 29.3295 39.933C29.2631 40.2425 29.0003 40.4734 28.6812 40.4987L26.0882 40.897V43.6725L28.7297 44.0785V44.081C29.0283 44.1267 29.2657 44.3499 29.3269 44.6417C29.6077 45.9482 30.1258 47.1914 30.8531 48.3102C31.019 48.569 31.0037 48.9013 30.8148 49.1423L29.2529 51.2683L31.2257 53.2294L33.3797 51.6615C33.6222 51.4839 33.9463 51.4738 34.199 51.6362C34.7605 51.9964 35.3551 52.3085 35.9753 52.5622C36.5929 52.8184 37.2335 53.0163 37.8894 53.1559C38.2008 53.2218 38.433 53.4831 38.4611 53.7977L38.8618 56.3728H41.6564L42.0647 53.7469L42.0622 53.7495C42.1081 53.4552 42.3327 53.2192 42.6262 53.1583C43.9406 52.8767 45.1911 52.3617 46.3166 51.6387C46.5744 51.4738 46.9113 51.4865 47.1511 51.6742L49.2898 53.2319L51.2626 51.2708L49.6854 49.127H49.6879C49.5093 48.886 49.4991 48.5638 49.6624 48.3126C50.3923 47.1912 50.9104 45.9481 51.1937 44.6416C51.2601 44.332 51.5229 44.1012 51.8394 44.0733L54.4324 43.675V40.8995L51.7909 40.4885C51.4949 40.4428 51.2575 40.2195 51.1937 39.9278C51.0534 39.2783 50.8543 38.6415 50.5991 38.0275C50.3413 37.411 50.0299 36.8199 49.665 36.2592C49.4991 36.003 49.5144 35.6681 49.7033 35.4271L51.2677 33.3011L49.2949 31.34L47.1383 32.9129C46.8984 33.088 46.5717 33.0981 46.3216 32.9383C45.1936 32.2127 43.943 31.6977 42.6312 31.4161C42.3199 31.3526 42.0876 31.0913 42.0596 30.7742L42.0544 30.7767ZM43.0268 27.6308C42.9502 27.1284 42.5189 26.758 42.0085 26.758H38.5069C37.9965 26.758 37.5652 27.1284 37.4886 27.6308L37.0981 30.1246C35.9547 30.4189 34.8598 30.8705 33.8415 31.4667L31.7896 29.9749H31.7922C31.3813 29.673 30.8096 29.7161 30.4497 30.0764L27.9741 32.5374C27.6117 32.8951 27.5683 33.4634 27.872 33.8718L29.3727 35.9116V35.9091C29.0716 36.4139 28.8087 36.9416 28.5816 37.482L28.5662 37.5201H28.5688C28.3493 38.0503 28.1681 38.5932 28.0226 39.1489L25.5113 39.537V39.5345C25.0085 39.6106 24.6359 40.0419 24.6359 40.5493V44.0276C24.6359 44.535 25.0085 44.9663 25.5113 45.0424L28.0226 45.428C28.3187 46.5646 28.7729 47.6556 29.3727 48.6653L27.872 50.7051C27.5683 51.1135 27.6117 51.6793 27.9741 52.0396L30.4497 54.5005C30.8096 54.8582 31.3813 54.9014 31.7922 54.602L33.8441 53.1102V53.1077C34.8599 53.7039 35.9573 54.1555 37.1007 54.4497L37.4886 56.9462C37.5677 57.446 37.999 57.8139 38.5069 57.8139H42.0085C42.5189 57.8139 42.9502 57.4435 43.0268 56.9437L43.4147 54.4472H43.4173C44.5607 54.1529 45.6555 53.7013 46.6739 53.1051L48.7232 54.602C49.1341 54.9014 49.7058 54.8582 50.0657 54.5005L52.5413 52.0396C52.9037 51.6793 52.9471 51.1135 52.6434 50.7051L51.1427 48.6653C51.7425 47.653 52.1967 46.5646 52.4928 45.428L55.0041 45.0424V45.0399C55.5069 44.9663 55.8795 44.535 55.8795 44.0276V40.5468C55.8795 40.0394 55.5069 39.6106 55.0041 39.5345L52.4928 39.1489C52.3448 38.5831 52.1584 38.0275 51.9313 37.4871C51.7067 36.9442 51.4413 36.419 51.1427 35.9141L52.6434 33.8744C52.9471 33.4659 52.9037 32.9001 52.5413 32.5399L50.0657 30.0789C49.7058 29.7212 49.1341 29.6781 48.7232 29.9774L46.6713 31.4692L46.6739 31.4718C45.6556 30.873 44.5607 30.4214 43.4173 30.1246L43.0294 27.6281L43.0268 27.6308ZM54.269 52.3643L53.6488 56.1343V56.1368C53.5927 56.3779 53.6667 56.6316 53.8428 56.8092C54.0189 56.9842 54.2767 57.0578 54.5192 57.002L58.3117 56.3855C58.7073 56.3221 58.9752 55.9517 58.9114 55.561C58.8476 55.1678 58.475 54.9014 58.0795 54.9648L56.2802 55.2591C60.6214 49.9643 62.0328 42.8709 60.0421 36.3326C58.0514 29.7923 52.9218 24.6673 46.3524 22.6532C39.7855 20.6413 32.6424 22.0063 27.2928 26.2964C26.984 26.5476 26.9355 26.9966 27.1856 27.3062C27.4357 27.6157 27.8874 27.6639 28.2014 27.4178C33.127 23.4727 39.6912 22.1915 45.7524 23.9903C51.8137 25.7916 56.5967 30.442 58.5385 36.4265C60.4807 42.4114 59.3348 48.9622 55.4733 53.945L55.6954 52.5953C55.7617 52.2046 55.4937 51.8342 55.0982 51.7708C54.7051 51.7074 54.3328 51.9736 54.269 52.3643ZM22.4357 29.6097L24.235 29.3154L24.2376 29.318C19.8989 34.6127 18.4926 41.7036 20.4833 48.2393C22.474 54.775 27.6036 59.8994 34.1678 61.9115C40.732 63.9259 47.8732 62.5635 53.2222 58.2784C53.3727 58.1592 53.4672 57.9841 53.4901 57.7939C53.5106 57.6036 53.4544 57.4133 53.3345 57.2636C53.2145 57.1165 53.0384 57.0201 52.847 56.9998C52.6556 56.9795 52.4642 57.0353 52.3136 57.1571C47.3879 61.1021 40.8237 62.3859 34.7626 60.5871C28.6987 58.7858 23.9183 54.1354 21.9765 48.1508C20.0343 42.166 21.1802 35.6126 25.0416 30.6298L24.8196 31.9795C24.789 32.1672 24.8324 32.3601 24.9446 32.5148C25.0569 32.6696 25.2279 32.7736 25.4168 32.804C25.8098 32.8675 26.1825 32.6036 26.2462 32.2104L26.8664 28.4378C26.9226 28.1968 26.8485 27.9431 26.6724 27.768C26.4938 27.5905 26.2386 27.5194 25.9961 27.5752L22.2036 28.1917V28.1892C21.808 28.2526 21.54 28.623 21.6038 29.0163C21.6676 29.407 22.0402 29.6731 22.4357 29.6097ZM11.6502 58.1057C10.346 55.8071 11.1474 52.8946 13.4444 51.5752C13.4597 51.565 13.475 51.5599 13.4903 51.5523C15.8102 50.2356 18.7682 51.0373 20.0924 53.346C21.417 55.6522 20.608 58.5926 18.2881 59.909C18.2728 59.9191 18.26 59.9242 18.2447 59.9318H18.2421C15.9324 61.2308 13 60.4342 11.6753 58.1483C11.6676 58.1331 11.66 58.1178 11.6523 58.1026L11.6502 58.1057ZM12.5894 54.8684C12.3571 55.7208 12.472 56.6291 12.9059 57.3978L12.9263 57.4308C13.8578 59.0316 15.9072 59.5898 17.5278 58.6892L17.561 58.6689L17.5636 58.6663C19.1714 57.7378 19.7278 55.6904 18.8064 54.0819C17.8851 52.4734 15.8306 51.9026 14.2049 52.8032L14.1717 52.8235C13.3908 53.27 12.8191 54.0083 12.5894 54.876L12.5894 54.8684ZM67.5631 57.4663C67.581 57.4359 67.5988 57.4054 67.6167 57.375C68.51 55.7665 67.9434 53.7445 66.3432 52.8236C64.72 51.895 62.6477 52.4481 61.7084 54.0591C60.7845 55.6574 61.3205 57.6947 62.9105 58.641C62.9437 58.6562 62.9743 58.674 63.0049 58.6942C64.6076 59.5746 66.6239 59.0342 67.5631 57.4714L67.5631 57.4663ZM68.8392 58.1463C67.5197 60.4245 64.6026 61.2237 62.2926 59.9425C62.2543 59.9247 62.216 59.9044 62.1803 59.8791C59.9191 58.5471 59.1407 55.665 60.427 53.3842C60.4423 53.3513 60.4627 53.3183 60.4831 53.2878C61.8357 51.0197 64.7707 50.2561 67.0676 51.5754C68.1778 52.2121 68.9894 53.2625 69.3211 54.4955C69.6529 55.7285 69.4794 57.0401 68.8362 58.1463H68.8392ZM40.2576 8.93318C42.5699 8.93064 44.558 10.5543 45.0097 12.8072C45.4614 15.0601 44.2491 17.318 42.113 18.1959C39.9769 19.0762 37.514 18.3329 36.2303 16.4225C34.9466 14.5146 35.1992 11.9674 36.8326 10.3437C37.7412 9.43802 38.9739 8.93065 40.2576 8.93318ZM42.6567 11.3611C41.5133 10.2245 39.7191 10.0495 38.3741 10.9425C37.0291 11.8381 36.5059 13.5506 37.1236 15.0373C37.7437 16.524 39.3337 17.3663 40.9212 17.0543C42.5061 16.7397 43.6494 15.3544 43.6494 13.7459C43.652 12.8529 43.2947 11.9929 42.6567 11.3611ZM47.8554 15.527C47.4802 15.4103 47.2684 15.017 47.3756 14.6415C47.4828 14.2661 47.8707 14.0428 48.2509 14.1417C55.4326 16.2044 61.5323 20.9509 65.2714 27.3853C69.0078 33.8192 70.095 41.4433 68.3034 48.6584C68.2064 49.044 67.8159 49.28 67.428 49.1861C67.0401 49.0922 66.8027 48.7015 66.8972 48.3159C67.1626 47.2453 67.3642 46.1594 67.4969 45.066C67.6296 43.9649 67.696 42.8562 67.696 41.7475C67.6985 35.8286 65.764 30.0699 62.1859 25.3403C58.6052 20.6087 53.5774 17.1656 47.8554 15.527ZM59.2969 61.3887C59.4347 61.2492 59.621 61.1731 59.8175 61.1731C60.0115 61.1756 60.1978 61.2543 60.3331 61.3938C60.4683 61.5333 60.5398 61.7236 60.5347 61.9164C60.5296 62.1093 60.4428 62.2945 60.2999 62.4239C54.9199 67.5867 47.7359 70.4716 40.2577 70.4716C32.7794 70.4716 25.5958 67.587 20.2154 62.4239C20.0725 62.2945 19.9857 62.1093 19.9806 61.9164C19.9755 61.7236 20.047 61.5334 20.1822 61.3938C20.3175 61.2543 20.5038 61.1756 20.6978 61.1731C20.8943 61.1731 21.0806 61.2492 21.2184 61.3887C26.3278 66.2903 33.1552 69.0331 40.2578 69.0331C47.3603 69.0331 54.187 66.2906 59.2969 61.3887Z" fill="#3B1D6D"/>
</svg>