<svg xmlns="http://www.w3.org/2000/svg" width="80" height="80" viewBox="0 0 80 80" fill="none">
  <rect width="80" height="80" rx="6.15385" fill="#E2D8F3"/>
  <path fill-rule="evenodd" clip-rule="evenodd" d="M37 31.3102L36.9809 31.3129H36.8638L36.8529 31.3102L36.8365 31.3075H36.8283L36.8174 31.3048C36.6704 31.2804 36.5396 31.21 36.4416 31.1126L36.4116 31.0828L36.4007 31.0692L36.3953 31.0611L36.3898 31.0557L36.3844 31.0476L36.3789 31.0422L36.368 31.0286L36.3626 31.0205L36.3571 31.0151L36.3517 31.007L36.3462 31.0015L36.3408 30.9934L36.3353 30.988L36.3299 30.9799L36.3272 30.9745L36.3217 30.9663L36.319 30.9582L36.3135 30.9501L36.3108 30.942L36.3026 30.9257L36.2972 30.9176L36.289 30.8932L36.2809 30.877L36.2618 30.8201L36.2727 30.8174L36.2672 30.8012C36.2563 30.7551 36.2482 30.7091 36.2454 30.6631V24.3568L32.9578 22.4695V38.0389L40.0808 42.1275L40.0835 42.1302V42.1275L46.5146 45.8181L46.5118 30.2515L42.3416 27.8579V33.1108C42.3416 33.4926 42.0283 33.804 41.6443 33.804C41.4128 33.804 41.2085 33.693 41.0832 33.5224L39.0021 31.1423L37.0191 31.3129L37 31.3102ZM42.0473 65.1594C42.0119 65.154 41.9792 65.1486 41.9465 65.1377C40.4021 64.6801 38.9475 64.2225 37.1035 63.5943C35.3466 62.9986 33.2111 62.2405 30.2666 61.1709L28.3408 62.2757C28.4879 62.7495 28.4906 63.2477 28.3653 63.708C28.1937 64.3498 27.7715 64.9265 27.1505 65.2866C27.1369 65.2947 27.1233 65.3002 27.1096 65.3083L24.1052 67.0331V67.0358C23.4815 67.3932 22.7678 67.4663 22.1222 67.2958C21.4767 67.1252 20.8938 66.7055 20.5342 66.0881L14.2639 55.2926C14.2557 55.2763 14.2448 55.2601 14.2394 55.2438C13.9016 54.6346 13.8363 53.9468 14.0051 53.3214C14.1767 52.6797 14.5989 52.1029 15.22 51.7428L15.2254 51.7401L18.2653 49.9964C18.889 49.6389 19.6027 49.5658 20.2483 49.7364C20.7141 49.861 21.1472 50.1128 21.4876 50.4756L26.1672 47.7896C27.51 46.9772 28.9319 46.498 30.4355 46.3545C31.9145 46.2137 33.4644 46.3978 35.0824 46.9123L44.6948 49.4711H44.6975C45.5337 49.6931 46.201 50.2374 46.6042 50.9305C47.0074 51.6264 47.1463 52.474 46.9229 53.3052V53.3079L46.9202 53.3134C46.7513 53.9361 46.4027 54.4642 45.9424 54.8568L46.8249 55.0923L62.4927 46.0894V46.0921L62.4954 46.0894C63.8056 45.3367 65.083 45.6372 66.0174 46.4197C66.3633 46.7067 66.6548 47.0614 66.8808 47.4487C67.1069 47.8359 67.2676 48.2637 67.3494 48.6996C67.5673 49.8721 67.2104 51.0878 65.9847 51.8054L51.0226 63.0938L50.9953 63.1182C49.7315 64.12 48.345 64.7916 46.836 65.1327C45.3461 65.4684 43.7497 65.4762 42.0473 65.1594ZM27.7009 61.0464L29.85 59.8117C30.0216 59.7142 30.234 59.6871 30.4356 59.7602C33.489 60.8704 35.7008 61.6583 37.5474 62.2838C39.3533 62.8985 40.7888 63.3507 42.3114 63.8028C43.8259 64.0817 45.2314 64.0763 46.528 63.7839C47.7074 63.5185 48.8051 63.0122 49.8239 62.2648L50.0445 62.0997L50.1262 62.0347C50.1453 62.0212 50.1644 62.0076 50.1834 61.9941L65.1867 50.6704C65.2085 50.6541 65.233 50.6379 65.2575 50.6243V50.6216C65.9113 50.2452 66.0992 49.5873 65.9794 48.9455C65.9276 48.6693 65.8214 48.3931 65.6743 48.1386C65.5245 47.8841 65.3366 47.6539 65.1214 47.4725C64.6066 47.042 63.9038 46.8741 63.1875 47.2829V47.2857L47.2693 56.4321C47.1032 56.5269 46.9125 56.5458 46.7409 56.5025L43.0637 55.5169L37.7849 54.1116C37.4144 54.0141 37.1938 53.6323 37.2919 53.2641C37.3899 52.8958 37.774 52.6765 38.1445 52.774L43.4233 54.1792C43.8782 54.3011 44.3412 54.2307 44.7253 54.0222L44.7525 54.0059C45.1421 53.7812 45.4471 53.4102 45.5724 52.9473V52.9445C45.6977 52.4815 45.6215 52.0077 45.3954 51.6204C45.1693 51.2332 44.7961 50.93 44.3304 50.8054L34.7208 48.2466V48.2439L34.6881 48.2331C33.239 47.7701 31.8634 47.6022 30.5641 47.7267C29.2757 47.8513 28.05 48.2629 26.8897 48.9669V48.9642L26.8733 48.9723L22.2374 51.634L27.7009 61.0464ZM20.6978 51.7481L20.6842 51.7264L20.6515 51.6696L20.6297 51.6344C20.4608 51.3446 20.1884 51.1497 19.8861 51.0685C19.5837 50.9872 19.2487 51.0197 18.96 51.1876L15.9174 52.9341C15.626 53.1019 15.4299 53.3727 15.3509 53.6733C15.2719 53.9657 15.3018 54.2852 15.4544 54.5668L15.4707 54.5939L21.7411 65.3894C21.9099 65.6792 22.1823 65.8741 22.4847 65.9553C22.787 66.0366 23.122 66.0041 23.4108 65.8362V65.8389L23.4135 65.8362L26.4179 64.1114L26.4533 64.0897C26.7448 63.9218 26.9409 63.6511 27.0199 63.3505C27.1016 63.0472 27.0689 62.7169 26.9 62.4272L20.6978 51.7481ZM33.6468 21.2726L40.0806 17.5793L47.2064 13.4907L50.4996 15.3807L36.9404 23.1602L33.6468 21.2726ZM51.8884 16.174L54.3344 17.5765L55.2006 18.0747L52.9534 19.3636L52.9398 19.3718L41.3359 26.0328C41.1016 26.1438 40.9436 26.3821 40.9436 26.6555V31.2559L39.8486 30.005C39.7097 29.8181 39.4782 29.7044 39.2276 29.7261L37.6341 29.8615V24.3513L40.5241 22.6915L40.5268 22.6887L51.8884 16.174ZM56.9276 17.471L56.9548 17.4872L62.5005 20.6715L62.5033 20.6742C62.6041 20.7338 62.6939 20.8177 62.7566 20.926C62.8274 21.0479 62.8574 21.1833 62.8492 21.3132L62.7593 38.4908C62.7566 38.7291 62.634 38.9593 62.4107 39.0865L53.1985 44.372L53.1631 44.3937L47.5982 47.5888C47.4866 47.6646 47.3531 47.7079 47.2087 47.7079C47.0644 47.7079 46.9309 47.6646 46.8192 47.5888L39.3859 43.3215V43.3188L31.9687 39.0622C31.7262 38.9539 31.5601 38.7102 31.5601 38.4313V21.2725H31.5628C31.5628 21.0342 31.6881 20.8013 31.9087 20.6741L39.3832 16.3823V16.385L39.3859 16.3823L46.822 12.115C47.0345 11.9742 47.3204 11.9552 47.5574 12.0933L55.0319 16.3824L56.9276 17.471ZM56.5952 18.8762L60.7682 21.2725L47.2091 29.0548L43.0361 26.6585L56.5952 18.8762ZM61.4574 22.4721L47.9059 30.2516V45.8155L52.4656 43.1971C52.4793 43.189 52.4929 43.1836 52.5065 43.1755L61.3728 38.0877L61.4574 22.4721Z" fill="#3B1D6D"/>
</svg>