<svg xmlns="http://www.w3.org/2000/svg" width="80" height="80" viewBox="0 0 80 80" fill="none">
  <rect width="80" height="80" rx="6.15385" fill="#E2D8F3"/>
  <path d="M66.5186 12.3076H14.9062C13.8095 12.3093 12.7583 12.7422 11.9828 13.5114C11.2074 14.2807 10.771 15.3235 10.7693 16.4114V50.7144C10.771 51.8022 11.2074 52.8451 11.9828 53.6143C12.7583 54.3836 13.8095 54.8165 14.9062 54.8182H31.8268L28.5985 60.4538H25.2571C24.2897 60.4559 23.3625 60.8378 22.6782 61.5162C21.9939 62.1946 21.6083 63.1141 21.6055 64.0738V66.8241C21.6055 66.9385 21.6283 67.0517 21.6725 67.1572C21.7168 67.2628 21.7816 67.3587 21.8633 67.4394C21.9449 67.52 22.0419 67.5839 22.1485 67.6273C22.2551 67.6707 22.3694 67.6927 22.4846 67.6922H58.9401C59.1722 67.6922 59.3948 67.6008 59.5589 67.438C59.7231 67.2752 59.8153 67.0544 59.8153 66.8241V64.0738C59.8134 63.1129 59.4275 62.1919 58.7423 61.5128C58.057 60.8336 57.1283 60.4517 56.1597 60.4506H52.8263L49.5979 54.815H66.5186C67.6153 54.8133 68.6665 54.3804 69.442 53.6112C70.2174 52.8419 70.6538 51.7991 70.6555 50.7112V16.4114C70.6538 15.3235 70.2174 14.2807 69.442 13.5114C68.6665 12.7422 67.6153 12.3093 66.5186 12.3076ZM14.9062 14.0517H66.5186C67.1502 14.0517 67.7561 14.3001 68.2034 14.7424C68.6508 15.1847 68.9032 15.7849 68.9053 16.4114V45.1774H12.5235V16.4114C12.5256 15.7855 12.7774 15.186 13.2239 14.7438C13.6704 14.3016 14.2753 14.0528 14.9062 14.0517ZM56.1637 62.1979C56.6658 62.1981 57.1474 62.3956 57.5031 62.7471C57.8589 63.0987 58.0597 63.5757 58.0618 64.0738V65.9521H23.3629V64.0738C23.3642 63.5751 23.5647 63.0973 23.9205 62.7451C24.2763 62.3928 24.7584 62.1949 25.2611 62.1947H56.1637V62.1979ZM50.8064 60.4538H30.6184L33.8483 54.8182H47.5764L50.8064 60.4538ZM66.5186 53.074H14.9062C14.2753 53.073 13.6704 52.8242 13.2239 52.382C12.7774 51.9398 12.5256 51.3402 12.5235 50.7144V46.9215H68.9013V50.7144C68.8992 51.3402 68.6474 51.9398 68.2009 52.382C67.7544 52.8242 67.1495 53.073 66.5186 53.074ZM21.8084 34.4705L20.8872 36.2603L24.0447 39.399L25.8634 38.4827C26.4184 38.7768 27.0011 39.0163 27.6032 39.1977L28.2397 41.1249H32.7115L33.3479 39.1985C33.9508 39.0172 34.5344 38.7777 35.0902 38.4835L36.908 39.399L40.0624 36.2635L39.1499 34.4594C39.4438 33.9065 39.6836 33.327 39.8659 32.7287L41.8079 32.1021V27.6668L39.8659 27.0355C39.6836 26.4372 39.4438 25.8577 39.1499 25.3048L40.0624 23.4991L36.908 20.366L35.0902 21.2815C34.5346 20.9875 33.9513 20.748 33.3487 20.5665L32.7123 18.6401H28.2413L27.6048 20.5665C27.0025 20.748 26.4195 20.9875 25.8641 21.2815L24.0463 20.366L20.8903 23.5094L21.8116 25.2993C21.5147 25.8556 21.2728 26.4392 21.0892 27.0418L19.1481 27.6732V32.1084L21.0892 32.735C21.2725 33.3355 21.5144 33.9167 21.8116 34.4705H21.8084ZM20.9031 28.9327L22.5395 28.4118L22.6597 27.9383C22.8493 27.1783 23.1509 26.4502 23.5547 25.7775L23.7933 25.3829L23.032 23.8401L24.3844 22.4984L25.9151 23.2726L26.3375 23.0201C27.0149 22.6158 27.7493 22.3142 28.5165 22.1251L29.0066 22.0036L29.5142 20.385H31.437L31.9454 22.0044L32.4346 22.1251C33.2017 22.3145 33.9361 22.6161 34.6137 23.0201L35.0361 23.2726L36.5667 22.4929L37.9279 23.8416L37.1515 25.36L37.4029 25.7767C37.806 26.4497 38.1072 27.1777 38.2971 27.9375L38.4164 28.4111L40.0545 28.9319V30.8347L38.4156 31.3571L38.2971 31.8306C38.1072 32.5904 37.806 33.3185 37.4029 33.9914L37.1507 34.4089L37.9279 35.9257L36.5755 37.2729L35.0449 36.4924L34.6216 36.7457C33.9432 37.1497 33.2073 37.4498 32.4386 37.6359L31.9486 37.7566L31.4394 39.3776H29.5165L29.009 37.7566L28.5181 37.6359C27.7509 37.4473 27.0164 37.1459 26.3391 36.7417L25.9167 36.49L24.3868 37.2697L23.0344 35.9281L23.7965 34.3868L23.5578 33.9922C23.1541 33.3195 22.8525 32.5914 22.6628 31.8314L22.5435 31.3579L20.9031 30.8354V28.9327ZM30.4847 36.0575C31.7154 36.0564 32.9182 35.6934 33.941 35.0143C34.9637 34.3352 35.7605 33.3706 36.2307 32.2423C36.7009 31.114 36.8233 29.8728 36.5825 28.6756C36.3416 27.4783 35.7484 26.3787 34.8777 25.5159C34.007 24.653 32.898 24.0657 31.6908 23.828C30.4836 23.5903 29.2325 23.713 28.0956 24.1806C26.9588 24.6481 25.9872 25.4396 25.3036 26.4548C24.6201 27.4701 24.2554 28.6636 24.2555 29.8845C24.256 30.6955 24.4174 31.4986 24.7307 32.2478C25.044 32.9969 25.5029 33.6776 26.0813 34.2508C26.6598 34.824 27.3464 35.2786 28.1019 35.5886C28.8574 35.8986 29.6671 36.0579 30.4847 36.0575ZM30.4847 25.454C31.3678 25.455 32.2308 25.7158 32.9645 26.2033C33.6983 26.6908 34.2698 27.3831 34.607 28.1928C34.9442 29.0025 35.0319 29.8931 34.8589 30.7522C34.686 31.6113 34.2601 32.4002 33.6353 33.0193C33.0105 33.6383 32.2147 34.0598 31.3484 34.2303C30.4822 34.4008 29.5845 34.3127 28.7687 33.9772C27.9529 33.6417 27.2557 33.0738 26.7652 32.3454C26.2747 31.6169 26.0129 30.7605 26.0129 29.8845C26.0131 29.3022 26.129 28.7258 26.3538 28.188C26.5787 27.6502 26.9082 27.1616 27.3235 26.7501C27.7388 26.3387 28.2317 26.0124 28.7741 25.79C29.3165 25.5676 29.8978 25.4534 30.4847 25.454ZM45.5406 33.0831L44.8787 34.4002L47.3585 36.8562L48.6751 36.1917C48.9986 36.3548 49.3342 36.4931 49.6791 36.6052L50.1357 38.0045H53.6561L54.1127 36.6076C54.4601 36.4939 54.7982 36.3538 55.1239 36.1885L56.4469 36.857L58.9306 34.3939L58.2536 33.0799C58.4181 32.7568 58.5583 32.4221 58.6728 32.0784L60.0865 31.6254V28.1404L58.6728 27.6921C58.5584 27.3486 58.4183 27.0141 58.2536 26.6914L58.9306 25.3782L56.4469 22.9143L55.1247 23.5836C54.7984 23.4192 54.4601 23.2793 54.1127 23.1653L53.6569 21.7676H50.1357L49.6791 23.1677C49.3341 23.2794 48.9984 23.4177 48.6751 23.5812L47.3585 22.9143L44.8787 25.3735L45.5398 26.6882C45.3749 27.0127 45.2342 27.3487 45.119 27.6937L43.7188 28.1459V31.6262L45.119 32.0808C45.2346 32.4247 45.3755 32.7597 45.5406 33.0831ZM45.4762 29.4094L46.5661 29.0519L46.6846 28.5902C46.8167 28.0817 47.0208 27.5944 47.2908 27.1428L47.5382 26.7261L47.0172 25.7191L47.6966 25.0444L48.7117 25.57L49.1365 25.319C49.5876 25.0487 50.0774 24.8478 50.5892 24.7232L51.0888 24.6016L51.4142 23.5125H52.3784L52.7507 24.6072L53.2113 24.7216C53.7197 24.8498 54.2064 25.0511 54.6561 25.319L55.0658 25.5605L56.1088 25.0444L56.7834 25.7144L56.2544 26.7301L56.5018 27.146C56.7714 27.5976 56.9749 28.0849 57.1064 28.5934L57.2249 29.0566L58.3292 29.4157V30.3627L57.2249 30.7234L57.1064 31.1858C56.9746 31.6942 56.7711 32.1814 56.5018 32.6332L56.2544 33.0491L56.7834 34.0648L56.1088 34.7333L55.069 34.214L54.6553 34.4594C54.2054 34.7271 53.7188 34.9286 53.2106 35.0576L52.7507 35.172L52.3784 36.2651H51.4134L51.0888 35.1776L50.5908 35.056C50.0788 34.9307 49.5889 34.7296 49.1373 34.4594L48.7085 34.2053L47.6966 34.734L47.0172 34.0593L47.5382 33.0483L47.2916 32.6324C47.0213 32.1806 46.817 31.693 46.6846 31.1843L46.5669 30.7242L45.4762 30.3651V29.4094ZM51.8963 33.7633C52.6699 33.7635 53.4261 33.5361 54.0694 33.1098C54.7127 32.6836 55.2141 32.0777 55.5102 31.3687C55.8063 30.6598 55.8838 29.8796 55.7329 29.127C55.5821 28.3743 55.2096 27.683 54.6625 27.1403C54.1155 26.5977 53.4186 26.2282 52.6599 26.0785C51.9012 25.9289 51.1147 26.0058 50.4001 26.2995C49.6854 26.5932 49.0746 27.0906 48.6449 27.7287C48.2152 28.3669 47.986 29.1171 47.9861 29.8845C47.9874 30.9128 48.3998 31.8987 49.1328 32.6259C49.8658 33.353 50.8596 33.7621 51.8963 33.7633ZM51.8963 27.7489C52.3221 27.7489 52.7383 27.8742 53.0923 28.1088C53.4463 28.3435 53.7223 28.677 53.8852 29.0672C54.0481 29.4575 54.0908 29.8868 54.0077 30.3011C53.9246 30.7154 53.7196 31.0959 53.4185 31.3945C53.1175 31.6932 52.7339 31.8966 52.3163 31.979C51.8987 32.0614 51.4658 32.0191 51.0725 31.8575C50.6791 31.6958 50.3429 31.4221 50.1063 31.0709C49.8698 30.7197 49.7435 30.3068 49.7435 29.8845C49.7442 29.3183 49.9712 28.7755 50.3748 28.3751C50.7783 27.9747 51.3255 27.7495 51.8963 27.7489Z" fill="#3B1D6D"/>
</svg>