<svg xmlns="http://www.w3.org/2000/svg" width="112" height="112" viewBox="0 0 112 112" fill="none">
  <rect width="112" height="112" rx="4" fill="#E3F2FD"/>
  <path fill-rule="evenodd" clip-rule="evenodd" d="M67.1233 70.5392L67.0977 70.552C66.9189 70.6705 66.7656 70.8378 66.6634 71.0258C66.5612 71.2112 66.4847 71.4197 66.4847 71.636C66.4847 71.6437 66.4847 71.654 66.4847 71.6617V85.179C66.4847 85.6398 66.7402 86.0647 67.1233 86.2938L78.924 93.1606L78.9496 93.1709C79.1539 93.2841 79.3583 93.3357 79.5882 93.3331C79.7925 93.3305 79.9968 93.2764 80.2012 93.1709C80.2012 93.1657 80.2012 93.158 80.2012 93.158L92.0019 86.2938C92.4106 86.0647 92.6405 85.6398 92.6405 85.179V71.7287C92.666 71.2601 92.4361 70.7915 92.0019 70.5392L86.2804 67.2075C86.1782 67.1174 86.0504 67.0453 85.9227 66.9964L80.2012 63.6724C79.818 63.4433 79.3327 63.4433 78.924 63.6724L67.1233 70.5392ZM80.8397 89.816V79.2649L90.0862 73.8837V84.4349L80.8397 89.816ZM72.3849 75.8328L69.039 73.8837V84.4349L78.2855 89.816V79.2649L74.9392 77.3184V79.0563C74.9392 79.7669 74.3773 80.3437 73.6621 80.3437C72.9724 80.3437 72.3849 79.7669 72.3849 79.0563V75.8328ZM20.5845 89.5096L20.6353 89.5173H63.956C64.6712 89.5173 65.2332 88.9406 65.2332 88.23C65.2332 87.5194 64.6712 86.9426 63.956 86.9426H21.938C22.5255 70.8456 35.6546 57.9797 51.7721 57.9797C59.0007 57.9797 65.6161 60.5596 70.7757 64.8516C71.3121 65.3048 72.1297 65.2275 72.5639 64.6791C73.0237 64.1307 72.9469 63.3197 72.3849 62.8665C66.7911 58.2063 59.6137 55.405 51.7721 55.405C33.8666 55.405 19.3582 70.0371 19.3582 88.0832C19.3582 89.1929 20.329 89.4581 20.5845 89.5096ZM76.1908 75.0784L79.5626 77.0352L88.8091 71.654L85.4628 69.6972L76.1908 75.0784ZM70.3161 71.654L73.6365 73.5928L82.9085 68.2116L79.5626 66.2755L70.3161 71.654ZM51.7721 18.6665C42.5001 18.6665 34.9906 26.2464 34.9906 35.5849C34.9906 44.9208 42.5001 52.5008 51.7721 52.5008C61.0441 52.5008 68.5535 44.9208 68.5535 35.5849C68.5535 26.2464 61.0441 18.6665 51.7721 18.6665ZM51.7721 21.2412C59.6137 21.2412 65.9992 27.6677 65.9992 35.5849C65.9992 43.4996 59.6137 49.926 51.7721 49.926C43.9304 49.926 37.5449 43.4996 37.5449 35.5849C37.5449 27.6677 43.9304 21.2412 51.7721 21.2412Z" fill="#1565C0"/>
</svg>