<svg xmlns="http://www.w3.org/2000/svg" width="59" height="59" viewBox="0 0 59 59" fill="none">
  <path d="M56.6523 8.47461H34.166C33.2263 8.47461 32.4208 9.21446 32.4208 10.2233V16.8147C32.4208 17.8909 33.4276 18.5634 34.3002 18.4962C36.3139 18.3617 37.5222 19.236 37.9249 20.514C38.7975 23.0025 36.4482 25.0876 34.4345 24.5495C33.3605 24.2805 32.3537 25.0203 32.3537 26.0965V32.486H25.9769C24.903 32.486 24.0975 33.4949 24.4331 34.5711C24.9701 36.5888 22.8893 38.8756 20.4057 38.0685C19.2646 37.665 18.392 36.5888 18.392 35.1091C18.392 34.4366 18.5262 33.9657 18.1235 33.4277C17.7879 32.8896 17.318 32.5533 16.7139 32.5533H10.1358C9.19611 32.5533 8.39062 33.2932 8.39062 34.302V56.901C8.39062 57.8427 9.12898 58.6498 10.1358 58.6498C11.4112 58.6498 57.3235 58.6498 56.6523 58.6498C57.592 58.6498 58.3975 57.9099 58.3975 56.901V10.2906C58.3975 9.21446 57.6592 8.47461 56.6523 8.47461ZM40.14 21.5228C40.14 18.8997 38.1263 16.3439 34.4345 16.4112V10.4251H56.3838V32.4188H50.6783C50.2085 29.9975 48.0605 28.1815 45.4427 28.1815C42.8249 28.1815 40.6769 29.9975 40.2071 32.4188H34.4345V26.5673C37.1194 27.0381 40.14 24.7513 40.14 21.5228ZM32.8906 48.83C31.3468 48.5609 30.2057 47.2158 30.2057 45.5343C30.2057 43.8528 31.3468 42.5076 32.8906 42.2386C33.7632 42.1041 34.4345 41.297 34.4345 40.4226V34.5038H40.3413C41.2811 34.5038 42.0194 33.8312 42.1537 32.9569C42.4222 31.4099 43.7646 30.2665 45.4427 30.2665C47.1208 30.2665 48.4633 31.4099 48.7318 32.9569C48.866 33.8312 49.6044 34.5038 50.5441 34.5038H56.3838V56.4975H34.4345V50.646C34.4345 49.7716 33.7632 48.9645 32.8906 48.83ZM21.4797 40.2208C24.7016 40.2208 26.9838 37.1942 26.5139 34.5038H32.4208V40.2881C30.0043 40.7589 28.192 42.9112 28.192 45.5343C28.192 48.1574 30.0043 50.3097 32.4208 50.7805V56.4975H10.4714V34.5038H16.4454C16.3112 38.1358 18.7947 40.2208 21.4797 40.2208Z" fill="#1565C0"/>
  <path d="M7.71918 26.0292C8.18905 28.4505 10.337 30.2665 12.9548 30.2665C15.5726 30.2665 17.7206 28.4505 18.1904 26.0292H24.2987C25.2384 26.0292 26.0439 25.2894 26.0439 24.2805V18.1599C28.4603 17.6891 30.2726 15.5368 30.2726 12.9137C30.2726 10.2906 28.4603 8.13833 26.0439 7.66752V1.74873C26.0439 0.807108 25.3055 0 24.2987 0H1.74521C0.80548 0 0 0.739849 0 1.74873V24.3477C0 25.2894 0.738357 26.0965 1.74521 26.0965L7.71918 26.0292ZM28.1918 12.981C28.1918 14.6624 27.0507 16.0076 25.5069 16.2767C24.6343 16.4112 23.963 17.2183 23.963 18.0927V24.0114H18.0562C17.1165 24.0114 16.3781 24.684 16.2438 25.5584C15.9754 27.1054 14.6329 28.2488 12.9548 28.2488C11.2767 28.2488 9.93425 27.1054 9.66576 25.5584C9.53151 24.684 8.79316 24.0114 7.85343 24.0114H2.0137V2.01777H23.963V7.8693C23.963 8.81092 24.6343 9.55077 25.5069 9.68529C27.0507 9.88706 28.1918 11.2995 28.1918 12.981Z" fill="#1565C0"/>
</svg>