<svg xmlns="http://www.w3.org/2000/svg" width="64" height="68" viewBox="0 0 64 68" fill="none">
  <path d="M52.6702 32.2924C52.6702 20.7711 43.2756 11.396 31.7303 11.396C20.1849 11.396 10.7903 20.7711 10.7903 32.2924C10.7903 35.6433 11.7209 38.5048 11.8341 38.831C12.7271 41.4038 13.9092 42.935 15.1418 44.5414C16.0473 45.7212 16.9779 46.9385 17.9086 48.7081C19.053 50.8918 19.8705 53.3265 20.3232 55.937C20.4238 56.5519 20.9646 56.9787 21.5557 56.9787C21.6311 56.9787 21.694 56.9787 21.7695 56.9661C22.4486 56.8532 22.9139 56.2006 22.7881 55.5103C22.2851 52.6363 21.3921 49.9505 20.1219 47.5409C19.0907 45.5831 18.0469 44.2151 17.1162 43.0103C15.9591 41.5043 14.953 40.1865 14.1859 38.0027C14.1482 37.8898 13.2804 35.2794 13.2804 32.2798C13.2804 22.1393 21.5434 13.8935 31.7051 13.8935C41.8668 13.8935 50.1298 22.1393 50.1298 32.2798C50.1298 35.2794 49.262 37.8898 49.2243 37.9902C48.4571 40.1865 47.451 41.4917 46.294 42.9978C45.3759 44.2026 44.3195 45.558 43.2882 47.5284C42.018 49.938 41.1251 52.6238 40.622 55.4978C40.5088 56.1755 40.9616 56.8281 41.6407 56.9536C41.7162 56.9536 41.7916 56.9661 41.8545 56.9661C42.4582 56.9661 42.9863 56.5394 43.0869 55.9245C43.5397 53.3015 44.3571 50.8667 45.5016 48.6955C46.4322 46.926 47.3629 45.7085 48.2684 44.5289C49.5135 42.9099 50.6831 41.3914 51.576 38.806C51.6766 38.4922 52.6199 35.6308 52.6199 32.2799L52.6702 32.2924Z" fill="#1565C0"/>
  <path d="M39.2004 59.9028H24.2601C23.5684 59.9028 23.0024 60.4676 23.0024 61.1579C23.0024 61.8481 23.5684 62.4129 24.2601 62.4129H39.2004C39.8921 62.4129 40.458 61.8481 40.458 61.1579C40.458 60.4676 39.8921 59.9028 39.2004 59.9028Z" fill="#1565C0"/>
  <path d="M36.5219 65.2612H26.951C26.2593 65.2612 25.6934 65.826 25.6934 66.5163C25.6934 67.2065 26.2593 67.7713 26.951 67.7713H36.5219C37.2136 67.7713 37.7796 67.2065 37.7796 66.5163C37.7796 65.826 37.2136 65.2612 36.5219 65.2612Z" fill="#1565C0"/>
  <path d="M31.7305 7.58033C32.4222 7.58033 32.9882 7.01557 32.9882 6.3253V1.25502C32.9882 0.564755 32.4222 0 31.7305 0C31.0388 0 30.4729 0.564755 30.4729 1.25502V6.3253C30.4729 7.01557 31.0388 7.58033 31.7305 7.58033Z" fill="#1565C0"/>
  <path d="M12.6269 15.2607C12.8784 15.5117 13.1928 15.6247 13.5198 15.6247C13.8468 15.6247 14.1612 15.4992 14.4128 15.2607C14.9033 14.7713 14.9033 13.9806 14.4128 13.4912L10.8159 9.90176C10.3254 9.4123 9.53306 9.4123 9.04264 9.90176C8.55222 10.3912 8.55216 11.1819 9.04264 11.6713L12.6395 15.2607H12.6269Z" fill="#1565C0"/>
  <path d="M6.33849 31.6768H1.25764C0.565933 31.6768 0 32.2415 0 32.9318C0 33.622 0.565933 34.1868 1.25764 34.1868H6.33849C7.0302 34.1868 7.59613 33.622 7.59613 32.9318C7.59613 32.2415 7.0302 31.6768 6.33849 31.6768Z" fill="#1565C0"/>
  <path d="M12.891 49.9628L9.29413 53.5522C8.80365 54.0416 8.80365 54.8323 9.29413 55.3217C9.54566 55.5727 9.86006 55.6857 10.1871 55.6857C10.5141 55.6857 10.8285 55.5602 11.08 55.3217L14.6769 51.7323C15.1674 51.2429 15.1674 50.4522 14.6769 49.9628C14.1864 49.4734 13.3941 49.4733 12.9037 49.9628H12.891Z" fill="#1565C0"/>
  <path d="M52.6444 9.90272L49.0475 13.4921C48.5571 13.9816 48.5571 14.7723 49.0475 15.2617C49.2991 15.5127 49.6135 15.6256 49.9405 15.6256C50.2675 15.6256 50.5819 15.5001 50.8334 15.2617L54.4303 11.6723C54.9208 11.1828 54.9208 10.3921 54.4303 9.90272C53.9398 9.41332 53.1475 9.41325 52.6571 9.90272H52.6444Z" fill="#1565C0"/>
  <path d="M62.2025 31.6768H57.1217C56.4299 31.6768 55.864 32.2415 55.864 32.9318C55.864 33.622 56.4299 34.1868 57.1217 34.1868H62.2025C62.8942 34.1868 63.4601 33.622 63.4601 32.9318C63.4601 32.2415 62.8942 31.6768 62.2025 31.6768Z" fill="#1565C0"/>
  <path d="M50.5698 49.9628C50.0793 49.4733 49.287 49.4733 48.7965 49.9628C48.3061 50.4523 48.3061 51.243 48.7965 51.7324L52.3934 55.3218C52.645 55.5728 52.9594 55.6857 53.2864 55.6857C53.6134 55.6857 53.9278 55.5602 54.1793 55.3218C54.6698 54.8323 54.6698 54.0416 54.1793 53.5522L50.5824 49.9628H50.5698Z" fill="#1565C0"/>
  <path d="M29.2399 40.2741C29.5669 40.2741 29.8813 40.1486 30.1329 39.9102L41.1124 28.9535C41.6028 28.4641 41.6028 27.6734 41.1124 27.184C40.6219 26.6946 39.8295 26.6945 39.3391 27.184L29.2531 37.249L24.1596 32.1662C23.6692 31.6768 22.8768 31.6768 22.3864 32.1662C21.896 32.6557 21.8959 33.4464 22.3864 33.9358L28.3727 39.9097C28.6243 40.1607 28.9387 40.2736 29.2657 40.2736L29.2399 40.2741Z" fill="#1565C0"/>
</svg>