<svg xmlns="http://www.w3.org/2000/svg" width="10" height="10" viewBox="0 0 10 10" fill="none">
  <g clip-path="url(#clip0_614_848)">
    <path d="M0.250001 2.96557C0.250001 2.78562 0.319982 2.61567 0.449946 2.4857C0.57991 2.35574 0.749862 2.28576 0.929812 2.28576C1.10976 2.28576 1.27971 2.35574 1.40968 2.4857L4.99867 6.0847L8.59766 2.4857C8.76762 2.31575 9.01755 2.25577 9.24748 2.31575C9.47742 2.37573 9.65737 2.55568 9.72735 2.79562C9.78733 3.02555 9.72735 3.27548 9.5574 3.44543L5.48854 7.5143C5.35857 7.64426 5.18862 7.71424 5.00867 7.71424C4.82872 7.71424 4.65877 7.64426 4.5288 7.5143L0.449946 3.44543C0.319982 3.32547 0.250001 3.14552 0.250001 2.96557Z" fill="white"/>
  </g>
  <defs>
    <clipPath id="clip0_614_848">
      <rect width="10" height="10" fill="black" transform="translate(10) rotate(90)"/>
    </clipPath>
  </defs>
</svg>