<svg xmlns="http://www.w3.org/2000/svg" width="96" height="96" viewBox="0 0 96 96" fill="none">
  <path d="M70.7611 27.4797C70.7611 27.5596 70.7279 27.6729 70.7478 27.7528C70.7478 27.7461 70.801 27.4797 70.7611 27.6196C70.7545 27.6395 70.7545 27.6662 70.7478 27.6862C70.7346 27.7395 70.7279 27.7927 70.7146 27.8394C70.6881 27.9326 70.6548 28.0125 70.6283 28.1058C70.5818 28.259 70.7346 27.8993 70.6548 28.0392C70.6216 28.0991 70.6017 28.1591 70.5685 28.2124C70.522 28.299 70.4688 28.3855 70.4157 28.4721C70.3891 28.5121 70.3559 28.5587 70.3293 28.5987C70.1964 28.7918 70.409 28.5121 70.3227 28.6053C70.1632 28.7852 70.0104 28.9584 69.8377 29.1249C69.738 29.2181 69.645 29.3047 69.5387 29.3846C69.4922 29.4246 69.4391 29.4646 69.3926 29.5045C69.5387 29.378 69.4524 29.4579 69.3594 29.5245C69.1136 29.7044 68.8678 29.8709 68.6087 30.0241C68.0174 30.3837 67.3996 30.6835 66.7751 30.9632C66.7352 30.9832 66.6954 30.9965 66.6555 31.0165C66.6688 31.0098 66.8017 30.9566 66.6954 31.0032C66.6156 31.0365 66.5293 31.0698 66.4496 31.1031C66.2635 31.1764 66.0842 31.2496 65.8982 31.3162C65.5128 31.4628 65.1209 31.596 64.7223 31.7225C63.8586 32.0023 62.9883 32.2354 62.1048 32.4486C61.1548 32.675 60.1915 32.8682 59.2282 33.0413C58.1852 33.2212 57.2684 33.3544 56.2918 33.4676C52.0201 33.9738 47.6886 34.0738 43.3903 33.8206C39.4109 33.5875 35.5909 33.0946 31.7311 31.9623C30.9339 31.7292 30.1367 31.4628 29.366 31.1564C29.2797 31.1231 29.1999 31.0898 29.1202 31.0565C29.0604 31.0298 28.8744 30.9566 29.0338 31.0232C28.8545 30.9432 28.6685 30.8633 28.4891 30.7834C28.1901 30.6435 27.8912 30.497 27.5989 30.3371C27.3198 30.1839 27.0408 30.0241 26.7751 29.8509C26.6489 29.771 26.5293 29.6844 26.4097 29.5978C26.3566 29.5578 26.3034 29.5179 26.2503 29.4779C26.1107 29.378 26.3964 29.5978 26.2237 29.4579C26.0244 29.2914 25.8251 29.1182 25.6457 28.9317C25.566 28.8518 25.4929 28.7652 25.4198 28.6853C25.3999 28.6653 25.3866 28.6453 25.3667 28.6253C25.2737 28.5188 25.4065 28.6986 25.4265 28.6986C25.3999 28.6919 25.3401 28.572 25.3202 28.5521C25.2604 28.4655 25.2072 28.3855 25.1607 28.2923C25.1342 28.2523 25.1142 28.2057 25.0943 28.1591C25.0744 28.1191 24.9747 27.906 25.0544 28.0792C25.1275 28.2457 25.0212 27.9726 25.0013 27.9126C24.9747 27.8194 24.9548 27.7195 24.9349 27.6262C24.895 27.473 24.9548 27.906 24.9415 27.6928C24.9415 27.6462 24.9349 27.5996 24.9349 27.5596C24.9349 27.4997 24.9349 27.4464 24.9349 27.3864C24.9415 27.2599 24.988 27.1666 24.9349 27.3465C24.9747 27.1999 25.0013 27.0534 25.0544 26.9069C25.0677 26.8736 25.081 26.8403 25.0943 26.807C25.0877 26.8203 25.0079 26.9735 25.0677 26.8802C25.1142 26.807 25.1475 26.727 25.1873 26.6538C25.2272 26.5872 25.267 26.5206 25.3069 26.4606C25.3534 26.394 25.4464 26.2741 25.3401 26.4073C25.4597 26.2541 25.5926 26.1076 25.7321 25.9677C25.8583 25.8412 25.9978 25.7146 26.1373 25.6014C26.1705 25.5747 26.3499 25.4282 26.237 25.5148C26.3433 25.4349 26.4562 25.3549 26.5625 25.275C27.2933 24.7688 28.0838 24.3625 28.8943 24.0095C28.9276 23.9962 29.1401 23.9029 29.0206 23.9562C28.901 24.0095 29.1534 23.9029 29.1933 23.8896C29.3527 23.823 29.5188 23.763 29.6783 23.6964C30.0171 23.5699 30.3625 23.45 30.708 23.3301C31.4587 23.0837 32.216 22.8638 32.98 22.6707C34.7073 22.2311 36.4612 21.8981 38.2283 21.6516C38.6269 21.5917 39.0388 21.545 39.5371 21.4851C40.0221 21.4318 40.5004 21.3785 40.9853 21.3319C42.0284 21.232 43.078 21.1587 44.1277 21.1121C46.3001 21.0055 48.4791 20.9922 50.6582 21.0721C54.5844 21.212 58.2782 21.605 62.0782 22.5108C63.5597 22.8638 65.0345 23.2968 66.4496 23.8629C66.5226 23.8896 66.5957 23.9229 66.6688 23.9495C66.8349 24.0161 66.5226 23.8829 66.7485 23.9828C66.9013 24.0494 67.0475 24.1161 67.1936 24.1827C67.6454 24.3891 68.0905 24.6223 68.5157 24.8754C68.7017 24.9886 68.881 25.1018 69.0604 25.2217C69.1468 25.2817 69.2331 25.335 69.3129 25.3949C69.3527 25.4215 69.3926 25.4548 69.4324 25.4815C69.5188 25.5414 69.3727 25.4282 69.4989 25.5348C69.7845 25.7746 70.0503 26.0277 70.2894 26.3074C70.3094 26.3341 70.4157 26.4673 70.3359 26.3674C70.2629 26.2674 70.3426 26.3807 70.3492 26.394C70.3891 26.4606 70.4356 26.5206 70.4755 26.5872C70.5153 26.6538 70.5485 26.7137 70.5884 26.7803C70.6349 26.8736 70.6681 26.9668 70.6083 26.807C70.6615 26.9535 70.7013 27.0934 70.7412 27.2399C70.7478 27.2732 70.7545 27.3065 70.7611 27.3398C70.7611 27.3398 70.7478 27.1333 70.7478 27.2466C70.7478 27.3198 70.7611 27.3998 70.7611 27.4797C70.7678 27.9992 71.2129 28.5054 71.7576 28.4788C72.2891 28.4521 72.7608 28.0392 72.7542 27.4797C72.7276 25.6813 71.3723 24.3492 69.9706 23.4233C68.5555 22.4908 66.9212 21.8514 65.3135 21.3252C61.6862 20.153 57.853 19.5801 54.0596 19.2604C49.6085 18.8874 45.1176 18.9141 40.6731 19.347C36.9727 19.7067 33.2325 20.3128 29.7115 21.545C28.0174 22.1378 26.3433 22.8772 24.9282 23.9895C23.666 24.9819 22.7359 26.394 22.9817 28.0592C23.1345 29.1116 23.852 30.044 24.6359 30.7234C25.752 31.6892 27.0674 32.3486 28.4227 32.9148C32.0699 34.4334 36.0626 35.1062 39.9689 35.5324C44.4399 36.0187 48.9707 36.0786 53.455 35.7389C57.5673 35.4325 61.746 34.8331 65.6656 33.5076C67.1338 33.008 68.6087 32.4152 69.9174 31.5627C70.8807 30.9366 71.8639 30.1306 72.3622 29.0649C72.6014 28.5587 72.7475 28.0325 72.7542 27.473C72.7608 26.9535 72.2891 26.4473 71.7576 26.4739C71.2129 26.5072 70.7678 26.9202 70.7611 27.4797Z" fill="#CDD1F8"/>
  <path d="M70.761 27.4797C70.761 28.8851 70.761 30.2905 70.761 31.6893C70.761 34.0671 70.761 36.4517 70.761 38.8295C70.761 39.5289 70.761 40.2216 70.761 40.921C70.761 41.0675 70.7544 41.214 70.7544 41.3606C70.7478 41.5737 70.8009 41.1474 70.761 41.294C70.7478 41.3472 70.7411 41.4005 70.7278 41.4472C70.7013 41.5604 70.6614 41.667 70.6282 41.7802C70.5817 41.9334 70.7345 41.5737 70.6548 41.7136C70.6282 41.7602 70.6082 41.8135 70.5817 41.8668C70.5219 41.98 70.4555 42.0866 70.389 42.1865C70.3558 42.2398 70.3159 42.2864 70.2827 42.333C70.2362 42.413 70.3558 42.2331 70.3558 42.2398C70.3359 42.2464 70.3027 42.3064 70.2894 42.3264C70.1964 42.4329 70.1033 42.5395 70.0037 42.6394C69.9107 42.7327 69.8177 42.8193 69.7247 42.9058C69.6715 42.9525 69.6184 42.9991 69.5586 43.0457C69.532 43.0724 69.3194 43.2455 69.439 43.1456C69.5652 43.0457 69.3593 43.2056 69.3327 43.2256C69.2663 43.2722 69.2065 43.3188 69.1401 43.3588C68.9939 43.4587 68.8477 43.5519 68.7016 43.6452C68.4026 43.8317 68.0904 44.0049 67.7782 44.1647C67.4194 44.3446 67.0607 44.5177 66.6886 44.6709C66.5823 44.7176 66.7152 44.6576 66.7285 44.6576C66.6753 44.6776 66.6222 44.7042 66.5624 44.7242C66.4827 44.7575 66.3963 44.7908 66.3166 44.8241C66.104 44.9107 65.8848 44.9906 65.6722 45.0639C64.7753 45.3903 63.8652 45.6634 62.9417 45.9031C58.5571 47.0554 54.1924 47.4884 49.6483 47.595C44.9912 47.7015 40.2877 47.4284 35.81 46.5892C33.8303 46.2162 31.8572 45.7366 29.9638 45.0506C29.7645 44.9773 29.5652 44.904 29.3659 44.8241C29.2663 44.7842 29.1733 44.7442 29.0736 44.7109C29.0338 44.6976 28.9939 44.6776 28.954 44.6576C29.0869 44.7109 28.9873 44.6709 28.9142 44.6376C28.5621 44.4844 28.2166 44.3179 27.8712 44.1447C27.5456 43.9782 27.2334 43.7984 26.9212 43.6052C26.7949 43.5253 26.6687 43.4387 26.5425 43.3588C26.476 43.3121 26.4163 43.2655 26.3498 43.2256C26.2568 43.159 26.1239 43.0391 26.29 43.1856C26.0642 42.9924 25.8449 42.8126 25.639 42.5995C25.5526 42.5129 25.4729 42.4196 25.3932 42.3264C25.2537 42.1599 25.4131 42.3663 25.3998 42.3397C25.3666 42.2797 25.3201 42.2265 25.2802 42.1665C25.2138 42.0666 25.154 41.9667 25.1009 41.8668C25.0743 41.8135 25.0544 41.7669 25.0278 41.7136C24.968 41.6004 25.1075 41.9534 25.0411 41.7336C25.0079 41.6403 24.9813 41.5404 24.9547 41.4472C24.9414 41.3939 24.9348 41.3406 24.9215 41.294C24.8883 41.1474 24.9348 41.5671 24.9281 41.3339C24.9148 40.921 24.9215 40.5013 24.9215 40.0817C24.9215 37.8837 24.9215 35.6857 24.9215 33.481C24.9215 31.5827 24.9215 29.6844 24.9215 27.7861C24.9215 27.6796 24.9215 27.573 24.9215 27.4664C24.2571 27.4664 23.5928 27.4664 22.9285 27.4664C22.955 30.144 25.8051 31.7759 27.9442 32.7017C31.7576 34.3469 35.923 35.0862 40.0286 35.5258C44.6591 36.0254 49.356 36.072 53.9997 35.6857C58.1851 35.3393 62.4701 34.6999 66.4229 33.2346C67.8512 32.7017 69.2796 32.0756 70.4953 31.1498C71.4453 30.4304 72.3488 29.5112 72.6411 28.319C72.7076 28.0459 72.7474 27.7528 72.7474 27.4664C72.7541 26.9469 72.2824 26.4407 71.7509 26.4673C71.2128 26.5073 70.7677 26.9202 70.761 27.4797C70.761 27.553 70.7278 27.8594 70.7544 27.6596C70.781 27.4664 70.7212 27.7928 70.7013 27.8594C70.6813 27.9393 70.6016 28.0659 70.6016 28.1458C70.595 28.0659 70.7079 27.926 70.6282 28.0792C70.6016 28.1391 70.5684 28.1924 70.5418 28.2524C70.4887 28.3456 70.4289 28.4389 70.3691 28.5321C70.3425 28.5721 70.3027 28.6187 70.2761 28.6587C70.2296 28.7386 70.3492 28.5588 70.3492 28.5654C70.3159 28.5787 70.2827 28.6454 70.2628 28.672C70.1033 28.8652 69.924 29.0383 69.7446 29.2115C69.645 29.3048 69.5387 29.3847 69.439 29.4713C69.3061 29.5845 69.5918 29.358 69.4124 29.4913C69.3526 29.5379 69.2862 29.5845 69.2264 29.6311C68.9673 29.8176 68.6949 29.9841 68.4226 30.144C68.117 30.3172 67.8114 30.4837 67.4991 30.6369C67.3397 30.7168 67.1736 30.7901 67.0142 30.8634C66.9344 30.8967 66.8614 30.93 66.7816 30.9699C66.7418 30.9899 66.7019 31.0032 66.6621 31.0232C66.8481 30.9433 66.6554 31.0232 66.6156 31.0432C64.9481 31.7226 63.2141 32.2155 61.4603 32.6018C60.4239 32.8349 59.3809 33.0281 58.3379 33.1946C57.3015 33.3544 56.4511 33.4677 55.3749 33.5809C50.9172 34.0405 46.4063 34.0805 41.9353 33.7274C39.7762 33.5543 37.8695 33.3211 35.7635 32.9215C33.8768 32.5685 32.0034 32.1089 30.1964 31.4695C29.8243 31.3363 29.4523 31.1964 29.0869 31.0499C29.0603 31.0365 28.8876 30.9699 29.0005 31.0166C29.1068 31.0632 28.974 31.0032 28.9607 30.9966C28.881 30.9633 28.8012 30.93 28.7282 30.8967C28.5488 30.8167 28.3761 30.7368 28.2033 30.6502C27.6054 30.3571 27.0142 30.0308 26.4694 29.6445C26.4163 29.6045 26.3631 29.5645 26.31 29.5246C26.2767 29.4979 26.2435 29.4713 26.2037 29.4446C26.2037 29.4446 26.3565 29.5712 26.2767 29.5046C26.1705 29.4047 26.0509 29.3181 25.9446 29.2248C25.7519 29.0517 25.5725 28.8652 25.4065 28.6653C25.2802 28.5188 25.3799 28.692 25.4264 28.6986C25.4065 28.692 25.3467 28.5921 25.3334 28.5721C25.2669 28.4722 25.2005 28.3723 25.1474 28.2724C25.1141 28.2191 24.968 27.9193 25.0477 28.0859C25.1274 28.2457 25.0477 28.0792 25.0278 28.0326C25.0079 27.9793 24.9946 27.9327 24.9813 27.8794C24.9547 27.7928 24.9547 27.6729 24.9215 27.5863C24.968 27.6796 24.9414 27.8461 24.9348 27.6463C24.9348 27.593 24.9281 27.5397 24.9281 27.4864C24.9215 26.9669 24.4764 26.4607 23.9316 26.4873C23.3935 26.5139 22.9351 26.9269 22.9351 27.4864C22.9351 28.9451 22.9351 30.3971 22.9351 31.8558C22.9351 34.267 22.9351 36.6781 22.9351 39.0959C22.9351 39.742 22.9351 40.3881 22.9351 41.0409C22.9351 41.8734 23.1809 42.6727 23.6725 43.3521C24.503 44.4911 25.6988 45.3037 26.9411 45.9365C28.5953 46.7824 30.3757 47.3752 32.1628 47.8481C36.6737 49.0403 41.3905 49.5132 46.0409 49.6265C50.8441 49.7397 55.6805 49.4333 60.4106 48.5474C62.4368 48.1678 64.4498 47.6749 66.3897 46.9555C67.8977 46.396 69.3859 45.73 70.6614 44.7375C71.5848 44.0182 72.4684 43.059 72.6943 41.8668C72.7939 41.3406 72.7674 40.8144 72.7674 40.2882C72.7674 38.0968 72.7674 35.8988 72.7674 33.7075C72.7674 31.7492 72.7674 29.7843 72.7674 27.8261C72.7674 27.7195 72.7674 27.6063 72.7674 27.4997C72.7674 26.9802 72.309 26.474 71.7708 26.5006C71.2194 26.5073 70.761 26.9202 70.761 27.4797Z" fill="#CDD1F8"/>
  <path d="M70.761 41.1607C70.761 42.5661 70.761 43.9715 70.761 45.3703C70.761 47.7481 70.761 50.1326 70.761 52.5105C70.761 53.2099 70.761 53.9026 70.761 54.6019C70.761 54.7485 70.7544 54.895 70.7544 55.0416C70.7478 55.2547 70.8009 54.8284 70.761 54.9749C70.7478 55.0282 70.7411 55.0815 70.7278 55.1281C70.7013 55.2414 70.6614 55.3479 70.6282 55.4612C70.5817 55.6144 70.7345 55.2547 70.6548 55.3946C70.6282 55.4412 70.6082 55.4945 70.5817 55.5478C70.5219 55.661 70.4555 55.7676 70.389 55.8675C70.3558 55.9208 70.3159 55.9674 70.2827 56.014C70.2362 56.0939 70.3558 55.9141 70.3558 55.9208C70.3359 55.9274 70.3027 55.9874 70.2894 56.0073C70.1964 56.1139 70.1033 56.2205 70.0037 56.3204C69.9107 56.4136 69.8177 56.5002 69.7247 56.5868C69.6715 56.6335 69.6184 56.6801 69.5586 56.7267C69.532 56.7533 69.3194 56.9265 69.439 56.8266C69.5652 56.7267 69.3593 56.8866 69.3327 56.9065C69.2663 56.9532 69.2065 56.9998 69.1401 57.0464C68.9939 57.1463 68.8477 57.2396 68.7016 57.3328C68.4026 57.5193 68.0904 57.6925 67.7782 57.8524C67.4194 58.0322 67.0607 58.2054 66.6886 58.3586C66.5823 58.4052 66.7152 58.3452 66.7285 58.3452C66.6753 58.3652 66.6222 58.3919 66.5624 58.4118C66.4827 58.4452 66.3963 58.4785 66.3166 58.5118C66.104 58.5983 65.8848 58.6783 65.6722 58.7515C64.7753 59.0779 63.8652 59.351 62.9417 59.5908C58.5571 60.7431 54.1924 61.176 49.6483 61.2826C44.9912 61.3892 40.2877 61.1161 35.81 60.2768C33.8303 59.9038 31.8572 59.4243 29.9638 58.7382C29.7645 58.665 29.5652 58.5917 29.3659 58.5118C29.2663 58.4718 29.1733 58.4318 29.0736 58.3985C29.0338 58.3852 28.9939 58.3652 28.954 58.3452C29.0869 58.3985 28.9873 58.3586 28.9142 58.3253C28.5621 58.1721 28.2166 58.0055 27.8712 57.8324C27.5456 57.6659 27.2334 57.486 26.9212 57.2929C26.7949 57.2129 26.6687 57.1263 26.5425 57.0398C26.476 56.9931 26.4163 56.9465 26.3498 56.8999C26.2568 56.8333 26.1239 56.7134 26.29 56.8599C26.0642 56.6668 25.8449 56.4869 25.639 56.2738C25.5526 56.1872 25.4729 56.0939 25.3932 56.0007C25.2537 55.8342 25.4131 56.0406 25.3998 56.014C25.3666 55.9541 25.3201 55.9008 25.2802 55.8408C25.2138 55.7409 25.154 55.641 25.1009 55.5411C25.0743 55.4878 25.0544 55.4412 25.0278 55.3879C24.968 55.2747 25.1075 55.6277 25.0411 55.4079C25.0079 55.3146 24.9813 55.2147 24.9547 55.1215C24.9414 55.0682 24.9348 55.0149 24.9215 54.9683C24.8883 54.8217 24.9348 55.2414 24.9281 55.0082C24.9148 54.5953 24.9215 54.1757 24.9215 53.756C24.9215 51.558 24.9215 49.36 24.9215 47.1553C24.9215 45.257 24.9215 43.3587 24.9215 41.4604C24.9215 41.3539 24.9215 41.2473 24.9215 41.1407C24.2571 41.1407 23.5928 41.1407 22.9285 41.1407C22.955 43.8183 25.8051 45.4502 27.9442 46.376C31.7576 48.0212 35.923 48.7605 40.0286 49.2001C44.6591 49.6997 49.356 49.7463 53.9997 49.36C58.1851 49.0136 62.4701 48.3742 66.4229 46.9089C67.8512 46.376 69.2796 45.7499 70.4953 44.8241C71.4453 44.1047 72.3488 43.1856 72.6411 41.9933C72.7076 41.7202 72.7474 41.4271 72.7474 41.1407C72.7541 40.6212 72.2824 40.115 71.7509 40.1416C71.2128 40.1883 70.7677 40.6012 70.761 41.1607C70.761 41.234 70.7278 41.5404 70.7544 41.3406C70.781 41.1474 70.7212 41.4738 70.7013 41.5404C70.6813 41.6203 70.6016 41.7469 70.6016 41.8268C70.595 41.7469 70.7079 41.607 70.6282 41.7602C70.6016 41.8201 70.5684 41.8734 70.5418 41.9334C70.4887 42.0266 70.4289 42.1199 70.3691 42.2131C70.3425 42.2531 70.3027 42.2997 70.2761 42.3397C70.2296 42.4196 70.3492 42.2397 70.3492 42.2464C70.3159 42.2597 70.2827 42.3263 70.2628 42.353C70.1033 42.5461 69.924 42.7193 69.7446 42.8925C69.645 42.9857 69.5387 43.0657 69.439 43.1523C69.3061 43.2655 69.5918 43.039 69.4124 43.1722C69.3526 43.2189 69.2862 43.2655 69.2264 43.3121C68.9673 43.4986 68.6949 43.6651 68.4226 43.825C68.117 43.9982 67.8114 44.1647 67.4991 44.3179C67.3397 44.3978 67.1736 44.4711 67.0142 44.5443C66.9344 44.5776 66.8614 44.6109 66.7816 44.6509C66.7418 44.6709 66.7019 44.6842 66.6621 44.7042C66.8481 44.6243 66.6554 44.7042 66.6156 44.7242C64.9481 45.4036 63.2141 45.8965 61.4603 46.2828C60.4239 46.5159 59.3809 46.7091 58.3379 46.8756C57.3015 47.0354 56.4511 47.1487 55.3749 47.2619C50.9172 47.7215 46.4063 47.7614 41.9353 47.4084C39.7762 47.2352 37.8695 47.0021 35.7635 46.6025C33.8768 46.2495 32.0034 45.7899 30.1964 45.1505C29.8243 45.0172 29.4523 44.8774 29.0869 44.7308C29.0603 44.7175 28.8876 44.6509 29.0005 44.6975C29.1068 44.7442 28.974 44.6842 28.9607 44.6775C28.881 44.6442 28.8012 44.6109 28.7282 44.5776C28.5488 44.4977 28.3761 44.4178 28.2033 44.3312C27.6054 44.0381 27.0142 43.7118 26.4694 43.3254C26.4163 43.2855 26.3631 43.2455 26.31 43.2055C26.2767 43.1789 26.2435 43.1523 26.2037 43.1256C26.2037 43.1256 26.3565 43.2522 26.2767 43.1856C26.1705 43.0856 26.0509 42.9991 25.9446 42.9058C25.7519 42.7326 25.5725 42.5461 25.4065 42.3463C25.2802 42.1998 25.3799 42.373 25.4264 42.3796C25.4065 42.373 25.3467 42.273 25.3334 42.2531C25.2669 42.1532 25.2005 42.0532 25.1474 41.9533C25.1141 41.9 24.968 41.6003 25.0477 41.7668C25.1274 41.9267 25.0477 41.7602 25.0278 41.7136C25.0079 41.6603 24.9946 41.6136 24.9813 41.5604C24.9547 41.4738 24.9547 41.3539 24.9215 41.2673C24.968 41.3605 24.9414 41.5271 24.9348 41.3272C24.9348 41.2739 24.9281 41.2207 24.9281 41.1674C24.9215 40.6478 24.4764 40.1416 23.9316 40.1683C23.3935 40.1949 22.9351 40.6079 22.9351 41.1674C22.9351 42.6261 22.9351 44.0781 22.9351 45.5368C22.9351 47.9479 22.9351 50.3591 22.9351 52.7703C22.9351 53.4163 22.9351 54.0624 22.9351 54.7152C22.9351 55.5478 23.1809 56.347 23.6725 57.0264C24.503 58.1654 25.6988 58.978 26.9411 59.6108C28.5953 60.4567 30.3757 61.0495 32.1628 61.5224C36.6737 62.7146 41.3905 63.1875 46.0409 63.3008C50.8441 63.414 55.6805 63.1076 60.4106 62.2218C62.4368 61.8421 64.4498 61.3492 66.3897 60.6299C67.8977 60.0704 69.3859 59.4043 70.6614 58.4118C71.5848 57.6925 72.4684 56.7334 72.6943 55.5411C72.7939 55.0149 72.7674 54.4887 72.7674 53.9625C72.7674 51.7712 72.7674 49.5731 72.7674 47.3818C72.7674 45.4235 72.7674 43.4586 72.7674 41.5004C72.7674 41.3938 72.7674 41.2806 72.7674 41.174C72.7674 40.6545 72.309 40.1483 71.7708 40.1749C71.2194 40.1883 70.761 40.6012 70.761 41.1607Z" fill="#CDD1F8"/>
  <path d="M70.7609 54.8417C70.7609 56.3803 70.7609 57.9189 70.7609 59.4575C70.7609 61.902 70.7609 64.3531 70.7609 66.7976C70.7609 67.3637 70.7675 67.9232 70.7609 68.4894C70.7609 68.576 70.7144 68.7225 70.7476 68.7891C70.721 68.7225 70.8007 68.5027 70.7542 68.7025C70.7409 68.7491 70.7343 68.7958 70.7276 68.8357C70.7011 68.9423 70.6612 69.0422 70.628 69.1421C70.5881 69.282 70.7476 68.8957 70.6546 69.0755C70.6346 69.1221 70.6147 69.1621 70.5881 69.2087C70.535 69.3086 70.4752 69.4152 70.4154 69.5085C70.3888 69.5551 70.3556 69.595 70.329 69.6417C70.3157 69.6616 70.3025 69.675 70.2892 69.695C70.2094 69.8148 70.3556 69.6084 70.3622 69.6017C70.2692 69.6616 70.1895 69.8082 70.1098 69.8948C69.9304 70.0879 69.7444 70.2611 69.5451 70.4276C69.4986 70.4676 69.4455 70.5076 69.3923 70.5475C69.379 70.5608 69.5584 70.4276 69.3923 70.5475C69.2661 70.6408 69.1399 70.734 69.007 70.8206C68.4556 71.1869 67.871 71.5 67.2664 71.7864C67.1136 71.8597 66.9542 71.9329 66.8014 71.9995C66.7549 72.0195 66.7084 72.0395 66.6619 72.0595C66.6884 72.0462 66.8612 71.9796 66.6884 72.0462C66.5954 72.0861 66.4958 72.1261 66.4028 72.1594C66.0241 72.3059 65.6454 72.4458 65.2668 72.579C64.4297 72.8654 63.5727 73.1185 62.7157 73.3317C61.759 73.5781 60.7957 73.7846 59.8258 73.9644C59.3076 74.0577 58.7894 74.1509 58.2712 74.2309C58.0055 74.2708 57.7331 74.3108 57.4674 74.3508C57.2083 74.3841 57.1153 74.3974 56.803 74.4373C54.438 74.7371 52.053 74.9036 49.668 74.9569C47.2033 75.0168 44.732 74.9569 42.2739 74.777C40.0085 74.6105 38.0221 74.3707 35.8231 73.9578C33.9763 73.6114 32.136 73.1652 30.3556 72.5524C29.9769 72.4192 29.5983 72.2793 29.2262 72.1328C29.1399 72.0995 29.0601 72.0661 28.9738 72.0328C28.8675 71.9929 29.0336 72.0595 29.0336 72.0595C28.9871 72.0395 28.9406 72.0195 28.8941 71.9995C28.7147 71.9196 28.5353 71.8397 28.3626 71.7598C27.7647 71.48 27.1867 71.1603 26.6353 70.794C26.5224 70.714 26.4094 70.6341 26.2965 70.5542C26.2832 70.5475 26.2035 70.4876 26.2035 70.4876C26.2035 70.4809 26.4028 70.6474 26.2699 70.5409C26.2168 70.4942 26.157 70.4476 26.0972 70.401C25.8979 70.2345 25.7119 70.0546 25.5391 69.8681C25.4727 69.7949 25.3996 69.6683 25.3199 69.615C25.4926 69.7283 25.4262 69.7549 25.3398 69.635C25.3066 69.5884 25.2734 69.5351 25.2402 69.4885C25.187 69.4019 25.1339 69.3153 25.0874 69.222C25.0608 69.1754 25.0409 69.1221 25.0143 69.0688C24.9545 68.9623 25.1007 69.3286 25.0342 69.1155C25.0077 69.0222 24.9744 68.9356 24.9545 68.8424C24.9412 68.7891 24.9346 68.7358 24.9213 68.6892C24.8682 68.476 24.9346 68.9023 24.9279 68.7625C24.9279 68.6692 24.9147 68.5826 24.9147 68.4894C24.9147 68.3029 24.9147 68.1097 24.9147 67.9232C24.9147 65.7319 24.9147 63.5405 24.9147 61.3491C24.9147 59.2976 24.9147 57.2462 24.9147 55.1947C24.9147 55.0748 24.9147 54.9616 24.9147 54.8417C24.2503 54.8417 23.586 54.8417 22.9216 54.8417C22.9482 57.5192 25.7982 59.1511 27.9374 60.0769C31.7507 61.7221 35.9161 62.4615 40.0218 62.9011C44.6522 63.4006 49.3491 63.4472 53.9929 63.0609C58.1782 62.7146 62.4632 62.0751 66.4161 60.6098C67.8444 60.0769 69.2727 59.4508 70.4885 58.525C71.4385 57.8057 72.342 56.8865 72.6343 55.6942C72.7007 55.4211 72.7406 55.1281 72.7406 54.8417C72.7472 54.3221 72.2756 53.8159 71.7441 53.8426C71.2126 53.8692 70.7675 54.2822 70.7609 54.8417C70.7609 54.9149 70.7276 55.2213 70.7542 55.0215C70.7808 54.8283 70.721 55.1547 70.7011 55.2213C70.6811 55.3012 70.6014 55.4278 70.6014 55.5077C70.5948 55.4278 70.7077 55.2879 70.628 55.4411C70.6014 55.5011 70.5682 55.5544 70.5416 55.6143C70.4885 55.7075 70.4287 55.8008 70.3689 55.894C70.3423 55.934 70.3025 55.9806 70.2759 56.0206C70.2294 56.1005 70.349 55.9207 70.349 55.9273C70.3157 55.9407 70.2825 56.0073 70.2626 56.0339C70.1032 56.2271 69.9238 56.4003 69.7444 56.5734C69.6448 56.6667 69.5385 56.7466 69.4388 56.8332C69.3059 56.9464 69.5916 56.72 69.4122 56.8532C69.3525 56.8998 69.286 56.9464 69.2262 56.9931C68.9671 57.1796 68.6948 57.3461 68.4224 57.5059C68.1168 57.6791 67.8112 57.8456 67.4989 57.9988C67.3395 58.0787 67.1734 58.152 67.014 58.2253C66.9342 58.2586 66.8612 58.2919 66.7814 58.3318C66.7416 58.3518 66.7017 58.3652 66.6619 58.3851C66.8479 58.3052 66.6552 58.3851 66.6154 58.4051C64.9479 59.0845 63.2139 59.5774 61.4601 59.9637C60.4237 60.1968 59.3807 60.39 58.3377 60.5565C57.3013 60.7164 56.4509 60.8296 55.3747 60.9428C50.917 61.4024 46.4061 61.4424 41.9351 61.0894C39.776 60.9162 37.8693 60.6831 35.7634 60.2834C33.8766 59.9304 32.0032 59.4708 30.1962 58.8314C29.8241 58.6982 29.4521 58.5583 29.0867 58.4118C29.0601 58.3985 28.8874 58.3318 29.0004 58.3785C29.1066 58.4251 28.9738 58.3652 28.9605 58.3585C28.8808 58.3252 28.8011 58.2919 28.728 58.2586C28.5486 58.1787 28.3759 58.0987 28.2031 58.0121C27.6052 57.7191 27.014 57.3927 26.4692 57.0064C26.4161 56.9664 26.3629 56.9265 26.3098 56.8865C26.2766 56.8598 26.2433 56.8332 26.2035 56.8066C26.2035 56.8066 26.3563 56.9331 26.2766 56.8665C26.1703 56.7666 26.0507 56.68 25.9444 56.5868C25.7517 56.4136 25.5724 56.2271 25.4063 56.0273C25.28 55.8807 25.3797 56.0539 25.4262 56.0606C25.4063 56.0539 25.3465 55.954 25.3332 55.934C25.2668 55.8341 25.2003 55.7342 25.1472 55.6343C25.114 55.581 24.9678 55.2813 25.0475 55.4478C25.1272 55.6076 25.0475 55.4411 25.0276 55.3945C25.0077 55.3412 24.9944 55.2946 24.9811 55.2413C24.9545 55.1547 24.9545 55.0348 24.9213 54.9482C24.9678 55.0415 24.9412 55.208 24.9346 55.0082C24.9346 54.9549 24.9279 54.9016 24.9279 54.8483C24.9213 54.3288 24.4762 53.8226 23.9314 53.8492C23.3933 53.8759 22.9349 54.2888 22.9349 54.8483C22.9349 56.4402 22.9349 58.0321 22.9349 59.624C22.9349 62.0885 22.9349 64.5463 22.9349 67.0107C22.9349 67.5169 22.9283 68.0231 22.9349 68.5227C22.9548 69.615 23.473 70.5808 24.2105 71.3601C25.1007 72.2993 26.2633 72.9853 27.4259 73.5248C29.0203 74.2775 30.7077 74.8303 32.4151 75.2633C36.8263 76.3956 41.4302 76.8618 45.9743 76.9751C50.7974 77.095 55.6604 76.7886 60.4104 75.9027C62.2905 75.5497 64.1507 75.0968 65.9577 74.4707C67.3794 73.9711 68.8143 73.3783 70.0699 72.5324C71.0133 71.8996 71.95 71.0937 72.4217 70.028C72.7007 69.3886 72.7672 68.7558 72.7672 68.0697C72.7672 65.8984 72.7672 63.727 72.7672 61.5556C72.7672 59.4375 72.7672 57.3261 72.7672 55.208C72.7672 55.0881 72.7672 54.9682 72.7672 54.8483C72.7672 54.3288 72.3088 53.8226 71.7707 53.8492C71.2193 53.8625 70.7609 54.2822 70.7609 54.8417Z" fill="#CDD1F8"/>
</svg>