<svg xmlns="http://www.w3.org/2000/svg" width="68" height="68" viewBox="0 0 68 68" fill="none">
  <path d="M61.2559 54.9363C59.8779 54.935 58.5364 55.3789 57.4322 56.2015L46.0034 44.8013C47.6805 42.7312 48.6066 40.1561 48.6312 37.4944C48.6558 34.8327 47.7775 32.2409 46.139 30.1403L53.9566 23.0336C55.2116 24.0561 56.8079 24.5669 58.4249 24.4634C60.0418 24.3599 61.5596 23.6497 62.6734 22.4756C63.7873 21.3015 64.4145 19.7504 64.4293 18.1338C64.4441 16.5173 63.8453 14.955 62.7531 13.7608C61.6609 12.5666 60.1564 11.829 58.5416 11.6961C56.9268 11.5632 55.3214 12.0448 54.0479 13.0443C52.7743 14.0438 51.927 15.487 51.6761 17.0842C51.4252 18.6813 51.7892 20.314 52.6952 21.6544L44.8776 28.7618C42.9234 26.929 40.402 25.8145 37.7285 25.6019L37.7446 9.76423C38.9506 9.53203 40.0266 8.85972 40.7624 7.87854C41.4983 6.89737 41.8413 5.67778 41.7244 4.45786C41.6075 3.23794 41.0392 2.10528 40.1303 1.281C39.2214 0.456722 38.0372 0 36.809 0C35.5808 0 34.3966 0.456722 33.4877 1.281C32.5788 2.10528 32.0105 3.23794 31.8936 4.45786C31.7767 5.67778 32.1197 6.89737 32.8556 7.87854C33.5914 8.85972 34.6674 9.53203 35.8734 9.76423L35.8595 25.5997C33.2572 25.8021 30.7955 26.8596 28.8599 28.6068L11.7904 13.3958C12.6857 12.0443 13.0352 10.4048 12.7686 8.80672C12.5021 7.20865 11.6393 5.77042 10.3535 4.78103C9.0678 3.79164 7.45443 3.32439 5.83759 3.47317C4.22075 3.62195 2.72024 4.37573 1.63757 5.58306C0.554889 6.7904 -0.0297333 8.36181 0.00116517 9.98157C0.0320637 11.6013 0.676194 13.1494 1.80413 14.3148C2.93207 15.4801 4.46024 16.1764 6.08158 16.2637C7.70293 16.351 9.29731 15.8228 10.5444 14.7853L27.5699 29.9626C26.4818 31.3038 25.7017 32.8666 25.2845 34.5411C24.8672 36.2156 24.823 37.9611 25.1548 39.6545L16.6776 42.3603C15.9637 40.9097 14.726 39.7824 13.2133 39.2048C11.7006 38.6272 10.0248 38.642 8.52264 39.2464C7.02046 39.8508 5.80312 40.9999 5.11514 42.463C4.42716 43.926 4.31949 45.5946 4.81376 47.1336C5.30803 48.6726 6.36763 49.968 7.77972 50.7596C9.19182 51.5512 10.8518 51.7803 12.4263 51.401C14.0007 51.0217 15.3731 50.0621 16.2676 48.7148C17.1621 47.3676 17.5126 45.7325 17.2486 44.138L25.6576 41.4542C26.361 43.3582 27.542 45.0504 29.0877 46.3691C30.6335 47.6878 32.4923 48.589 34.4867 48.9865L33.4144 58.1679C32.1906 58.2606 31.0454 58.8049 30.2023 59.6947C29.3591 60.5845 28.8786 61.7559 28.8545 62.9802C28.8304 64.2045 29.2644 65.3938 30.0719 66.3159C30.8793 67.2381 32.0022 67.8269 33.2214 67.9675C34.4406 68.108 35.6685 67.7902 36.6654 67.076C37.6623 66.3619 38.3567 65.3026 38.6131 64.1051C38.8694 62.9076 38.6692 61.6578 38.0517 60.5996C37.4341 59.5414 36.4435 58.7508 35.2731 58.3822L36.3461 49.1986C36.4927 49.2045 36.6393 49.2081 36.7859 49.2081C39.7183 49.2104 42.5464 48.1233 44.7193 46.1586L56.1063 57.5222C55.2462 58.6787 54.8023 60.0908 54.8463 61.5302C54.8903 62.9697 55.4196 64.3522 56.3487 65.4542C57.2778 66.5563 58.5523 67.3134 59.9661 67.6031C61.3799 67.8929 62.8504 67.6984 64.1396 67.051C65.4289 66.4036 66.4616 65.3412 67.0707 64.0356C67.6798 62.7301 67.8297 61.2577 67.4962 59.8566C67.1627 58.4555 66.3653 57.2076 65.2328 56.3147C64.1004 55.4218 62.6993 54.9362 61.2559 54.9363ZM10.9189 49.712C10.0201 49.712 9.14156 49.4461 8.39426 48.9478C7.64696 48.4496 7.06451 47.7415 6.72057 46.913C6.37663 46.0846 6.28664 45.1729 6.46198 44.2934C6.63732 43.4139 7.07012 42.606 7.70564 41.9719C8.34116 41.3378 9.15087 40.906 10.0324 40.731C10.9139 40.5561 11.8276 40.6459 12.6579 40.989C13.4883 41.3322 14.198 41.9133 14.6973 42.659C15.1966 43.4046 15.4631 44.2812 15.4631 45.1779C15.4618 46.38 14.9826 47.5325 14.1307 48.3825C13.2788 49.2325 12.1237 49.7106 10.9189 49.712ZM36.8489 63.0801C36.8491 63.6856 36.6693 64.2775 36.3322 64.781C35.9951 65.2846 35.5159 65.677 34.9553 65.9088C34.3946 66.1406 33.7777 66.2013 33.1825 66.0832C32.5872 65.9651 32.0405 65.6735 31.6114 65.2454C31.1823 64.8172 30.89 64.2717 30.7717 63.6778C30.6533 63.0839 30.7141 62.4684 30.9464 61.909C31.1787 61.3496 31.5721 60.8715 32.0768 60.5352C32.5814 60.1989 33.1747 60.0194 33.7816 60.0196C34.5948 60.0205 35.3744 60.3433 35.9495 60.917C36.5245 61.4908 36.848 62.2687 36.8489 63.0801ZM58.0149 13.5436C58.9136 13.5436 59.7922 13.8095 60.5395 14.3077C61.2868 14.8059 61.8692 15.514 62.2132 16.3425C62.5571 17.171 62.6471 18.0826 62.4718 18.9621C62.2964 19.8417 61.8636 20.6495 61.2281 21.2836C60.5926 21.9177 59.7829 22.3496 58.9014 22.5245C58.0199 22.6995 57.1062 22.6097 56.2758 22.2665C55.4455 21.9233 54.7358 21.3422 54.2365 20.5966C53.7371 19.851 53.4706 18.9743 53.4706 18.0776C53.472 16.8755 53.9512 15.723 54.8031 14.873C55.655 14.023 56.8101 13.5449 58.0149 13.5436ZM33.7486 4.92598C33.7485 4.32047 33.9283 3.72851 34.2654 3.22499C34.6024 2.72147 35.0816 2.32899 35.6422 2.0972C36.2029 1.86542 36.8199 1.80473 37.4151 1.92283C38.0103 2.04092 38.557 2.33249 38.9862 2.76065C39.4153 3.18881 39.7075 3.73433 39.8259 4.32821C39.9442 4.9221 39.8834 5.53766 39.6511 6.09706C39.4188 6.65645 39.0254 7.13453 38.5208 7.47085C38.0161 7.80716 37.4228 7.98659 36.816 7.98645C36.0027 7.98548 35.2231 7.66273 34.6481 7.08899C34.073 6.51525 33.7496 5.73737 33.7486 4.92598ZM6.43183 14.4043C5.53306 14.4043 4.65448 14.1384 3.90719 13.6402C3.15989 13.142 2.57744 12.4339 2.2335 11.6054C1.88955 10.7769 1.79956 9.86524 1.9749 8.98572C2.15024 8.1062 2.58304 7.29832 3.21857 6.66422C3.85409 6.03013 4.6638 5.5983 5.54529 5.42335C6.42679 5.24841 7.34049 5.3382 8.17084 5.68137C9.00119 6.02454 9.7109 6.60568 10.2102 7.35129C10.7096 8.09691 10.9761 8.97352 10.9761 9.87027C10.9745 11.0723 10.4953 12.2246 9.64338 13.0746C8.79151 13.9246 7.63656 14.4028 6.43183 14.4043ZM36.7837 47.3411C34.8103 47.3413 32.8812 46.7575 31.2403 45.6637C29.5994 44.5699 28.3204 43.0152 27.5651 41.1962C26.8098 39.3771 26.6122 37.3754 26.9971 35.4443C27.382 33.5131 28.3322 31.7392 29.7275 30.3469C31.1229 28.9546 32.9007 28.0064 34.8362 27.6222C36.7717 27.238 38.7779 27.4351 40.6011 28.1886C42.4243 28.942 43.9826 30.218 45.079 31.8551C46.1753 33.4923 46.7605 35.417 46.7605 37.386C46.7576 40.0252 45.7056 42.5556 43.8352 44.4219C41.9649 46.2882 39.4289 47.338 36.7837 47.3411ZM61.2559 65.8721C60.3572 65.8721 59.4786 65.6062 58.7313 65.108C57.984 64.6098 57.4015 63.9017 57.0576 63.0732C56.7136 62.2447 56.6237 61.3331 56.799 60.4536C56.9743 59.574 57.4071 58.7662 58.0427 58.1321C58.6782 57.498 59.4879 57.0661 60.3694 56.8912C61.2509 56.7163 62.1646 56.806 62.9949 57.1492C63.8253 57.4924 64.535 58.0735 65.0343 58.8191C65.5337 59.5648 65.8002 60.4414 65.8002 61.3381C65.7988 62.5402 65.3196 63.6927 64.4677 64.5427C63.6158 65.3927 62.4607 65.8708 61.2559 65.8721Z" fill="#1565C0"/>
</svg>