<svg xmlns="http://www.w3.org/2000/svg" width="96" height="96" viewBox="0 0 96 96" fill="none">
  <path d="M39.0316 40.099C38.8179 39.8876 38.5341 39.7617 38.234 39.7452C37.9338 39.7287 37.638 39.8227 37.4024 40.0094L10.9515 61.3362C10.8272 61.4366 10.7238 61.5605 10.6475 61.7009C10.5711 61.8413 10.5233 61.9954 10.5066 62.1544C10.49 62.3133 10.5049 62.474 10.5505 62.6271C10.5961 62.7803 10.6715 62.923 10.7723 63.0469L15.7089 69.1892C15.9114 69.4394 16.2039 69.6002 16.5236 69.6372H16.6376C16.9348 69.6444 17.2244 69.5431 17.4522 69.3521L36.5633 53.4181L49.7194 66.5743C49.9461 66.7952 50.2501 66.9188 50.5667 66.9188C50.8832 66.9188 51.1872 66.7952 51.4139 66.5743L78.0683 41.712L81.9459 45.1171C82.1183 45.268 82.3293 45.3677 82.5553 45.4051C82.7812 45.4426 83.0131 45.4162 83.2249 45.3289C83.4372 45.2413 83.6203 45.0954 83.753 44.9079C83.8857 44.7205 83.9624 44.4992 83.9743 44.2699L84.8949 28.2951C84.9043 28.1165 84.8747 27.938 84.8081 27.772C84.7415 27.606 84.6395 27.4566 84.5092 27.334C84.3789 27.2115 84.2235 27.1188 84.0537 27.0625C83.884 27.0062 83.704 26.9876 83.5263 27.008L66.0608 29.1179C65.8353 29.1493 65.6231 29.2431 65.4481 29.3886C65.273 29.5342 65.1421 29.7258 65.0702 29.9417C64.9982 30.1577 64.9879 30.3895 65.0406 30.6109C65.0933 30.8324 65.2068 31.0348 65.3684 31.1952L69.58 35.1705L50.8925 51.9762L39.0316 40.099ZM72.203 36.1236C72.3241 36.0151 72.4224 35.8836 72.4924 35.7368C72.5623 35.5899 72.6024 35.4307 72.6104 35.2683C72.6106 35.0996 72.5769 34.9325 72.5111 34.7772C72.4453 34.6218 72.3488 34.4813 72.2275 34.3641L68.9446 31.1952L82.3695 29.5659L81.6527 41.6305L78.8178 39.1378C78.5929 38.939 78.3032 38.8293 78.0032 38.8293C77.7031 38.8293 77.4134 38.939 77.1885 39.1378L50.6074 64.0082L37.5001 50.9009C37.2861 50.6885 37.0008 50.5634 36.6996 50.5499C36.3985 50.5363 36.103 50.6353 35.8709 50.8276L16.8331 66.7209L13.4361 62.5011L38.0785 42.5999L49.9801 54.526C50.2007 54.747 50.4974 54.8751 50.8095 54.8842C51.1215 54.8933 51.4252 54.7826 51.6583 54.5749L72.203 36.1236Z" fill="#CDD1F8"/>
</svg>