<svg xmlns="http://www.w3.org/2000/svg" width="96" height="96" viewBox="0 0 96 96" fill="none">
  <path d="M84.2904 55.272H75.3391C75.3331 54.3237 75.0307 53.4117 74.4258 52.6687L66.8442 43.3337C66.578 43.0227 66.2998 42.5636 66.4873 42.1559C66.7323 41.6274 67.7333 41.0626 69.3633 41.0626H84.2905C84.9588 41.0626 85.5002 40.522 85.5002 39.8546C85.5002 39.1871 84.9588 38.6465 84.2905 38.6465H73.3914C71.2624 34.9952 68.0144 33.1922 63.4538 33.1922H34.1011C33.841 32.1654 33.206 31.2353 32.2382 30.6342C31.5699 30.2205 30.7987 30 30.0124 30C28.5275 30 27.1787 30.746 26.4015 31.9963L25.6575 33.1922H11.7097C11.0413 33.1922 10.5 33.7328 10.5 34.4003C10.5 35.0677 11.0413 35.6083 11.7097 35.6083H24.3058C23.707 37.4204 24.3875 39.4801 26.084 40.5311C26.7524 40.9448 27.5236 41.1653 28.3129 41.1653C29.7978 41.1653 31.1466 40.4193 31.9268 39.169L33.6083 36.4691C33.7776 36.1942 33.9077 35.9043 34.0075 35.6113H63.457C66.6203 35.6113 68.8673 36.5627 70.5125 38.6496H69.3632C66.9106 38.6496 65.0145 39.5827 64.2917 41.1502C63.7352 42.3583 63.9953 43.7263 64.9842 44.8861L72.5447 54.1939C73.1646 54.958 73.0467 56.0815 72.2816 56.7006C71.5164 57.3107 70.3914 57.1989 69.7745 56.4379L69.1878 55.71C69.1878 55.707 69.1848 55.707 69.1848 55.704C68.7644 55.1845 68.0023 55.106 67.4852 55.5228C66.965 55.9426 66.8834 56.7036 67.3037 57.2201L67.3068 57.2261C67.9207 57.9902 67.8027 59.1137 67.0467 59.7268C66.2816 60.3459 65.1566 60.2281 64.5366 59.461L63.2785 57.9117C62.8582 57.3922 62.0961 57.3137 61.5789 57.7335C61.0588 58.1533 60.9801 58.9143 61.4005 59.4308C62.0174 60.1919 61.8995 61.3183 61.1374 61.9375C60.7685 62.2334 60.3058 62.3663 59.831 62.321C59.3562 62.2697 58.9297 62.0432 58.6303 61.6717L57.1061 59.7962C56.6857 59.2768 55.9207 59.2013 55.4065 59.6211C54.8864 60.0439 54.8077 60.8019 55.2311 61.3183C55.8481 62.0794 55.7331 63.2029 54.968 63.819C54.5991 64.118 54.1394 64.2569 53.6585 64.2056C53.1837 64.1572 52.7573 63.9277 52.4609 63.5593L44.054 53.2061L44.5167 51.6175C45.3635 48.7001 43.9905 46.7763 42.2515 46.1662C41.0086 45.7313 39.43 45.9548 38.2717 47.042C38.1901 46.9303 38.1024 46.8216 38.0056 46.7159C36.935 45.5259 35.2718 45.0004 33.7717 45.384C33.3846 45.4806 32.8796 45.6739 32.3654 46.0424C31.8392 45.1001 30.9865 44.4658 30.0701 44.185C28.425 43.6837 26.3987 44.2334 25.1951 45.9005C24.3151 45.0548 23.0812 44.6774 21.8775 44.916C20.3715 45.2059 19.1951 46.3807 18.6447 48.1384L18.1184 49.8176H11.7102C11.0419 49.8176 10.5005 50.3582 10.5005 51.0257C10.5005 51.6931 11.0419 52.2337 11.7102 52.2337H17.3534L16.7153 54.2753C15.8564 57.0236 17.1961 58.8839 18.9048 59.5091C19.7757 59.8292 20.7949 59.8322 21.7173 59.494C21.8957 59.9802 22.1648 60.4363 22.5247 60.847C23.5711 62.0369 25.1981 62.6107 26.677 62.2876C26.9975 62.2211 27.2969 62.1124 27.5812 61.9705C27.7294 62.2694 27.9109 62.5564 28.1286 62.8252C29.1327 64.0634 30.6538 64.6765 32.1084 64.45C32.5167 64.3836 33.0822 64.2205 33.6659 63.8218C33.929 64.2597 34.2768 64.6584 34.7093 64.9996C35.5893 65.6973 36.6659 66.0476 37.794 66.0476C38.8675 66.0476 39.9834 65.7275 41.0148 65.0902L47.3777 61.152L50.5682 65.0781C51.2729 65.9479 52.2769 66.4915 53.3958 66.6063C53.547 66.6214 53.6952 66.6305 53.8434 66.6305C54.8051 66.6305 55.7275 66.3043 56.4804 65.6943C57.0369 65.2443 57.4452 64.6795 57.7052 64.0634C58.2556 64.4258 58.8907 64.6493 59.5681 64.7218C60.678 64.8335 61.7818 64.5164 62.6528 63.8097C63.2485 63.3265 63.678 62.7104 63.932 62.0369C64.4037 62.2875 64.927 62.4506 65.4773 62.508C66.5993 62.6228 67.6911 62.3027 68.562 61.599C69.2999 60.998 69.7838 60.1976 69.9925 59.3339C71.2657 59.6963 72.6931 59.4577 73.8 58.5638C74.1145 58.3101 74.3716 58.002 74.5953 57.6789L84.2905 57.6849C84.9589 57.6849 85.5002 57.1443 85.5002 56.4769C85.5002 55.8094 84.9587 55.272 84.2904 55.272ZM31.5515 35.1911L29.8701 37.8911C29.359 38.7096 28.1826 38.9904 27.36 38.48C26.5071 37.9485 26.2441 36.825 26.7763 35.9733L28.4578 33.2734C28.7904 32.7388 29.3711 32.4187 30.0122 32.4187C30.3509 32.4187 30.6775 32.5123 30.9618 32.6874C31.8147 33.216 32.0777 34.3425 31.5515 35.1911ZM19.7358 57.2412C18.9283 56.9483 18.6713 56.1298 19.0251 54.9973L20.9425 48.8635C21.2207 47.9696 21.7136 47.4108 22.3276 47.2931C22.8054 47.2025 23.3134 47.3897 23.628 47.7763C23.9153 48.1266 24.0091 48.5917 23.9062 49.1172L21.7651 56.3775C21.369 57.2745 20.4313 57.4979 19.7358 57.2412ZM26.1713 59.9261C25.5483 60.056 24.8134 59.7902 24.3447 59.2556C24.009 58.8751 23.6824 58.2107 24.0301 57.2292C24.0332 57.2171 24.0301 57.208 24.0362 57.199C24.0392 57.1869 24.0483 57.1748 24.0543 57.1627L26.758 48.1146C27.2116 46.6922 28.4334 46.218 29.3558 46.5019C30.3175 46.7949 30.6925 47.7522 30.384 49.0932C30.3568 49.1928 27.4051 58.5766 27.4051 58.5766C27.3779 58.6521 27.3507 58.7276 27.3265 58.8061C27.1329 59.2833 26.7943 59.7932 26.1713 59.9261ZM31.7207 62.0673C31.131 62.164 30.4596 61.865 30.006 61.3063C29.8034 61.0556 29.383 60.4124 29.6129 59.5757C29.6461 59.4851 29.6794 59.3915 29.7066 59.2979C29.7066 59.2979 32.6855 49.8423 32.7127 49.7209C33.0393 48.6216 33.6139 47.921 34.3518 47.7337C34.9869 47.5676 35.7127 47.8092 36.1905 48.3377C36.4717 48.6518 36.8891 49.3283 36.5111 50.3552C36.508 50.3643 36.5111 50.3763 36.505 50.3854C36.502 50.3945 36.4929 50.4035 36.4899 50.4096L33.3841 60.2401C33.3689 60.2703 33.3447 60.2914 33.3326 60.3246C33.0665 61.0434 32.5675 61.9314 31.7207 62.0673ZM39.7375 63.0398C38.2405 63.9669 36.9008 63.6559 36.2113 63.1093C35.9209 62.8797 35.304 62.2395 35.5883 61.2338C35.6034 61.1975 35.6306 61.1673 35.6427 61.1281L39.4169 49.5371C39.8675 48.4589 40.7778 48.2173 41.431 48.4438C42.2536 48.7337 42.5409 49.6911 42.175 50.9444L40.7294 55.9155C40.5419 56.5558 40.9109 57.2262 41.555 57.4105C42.1992 57.5977 42.8675 57.2293 43.055 56.586L43.2183 56.0303L45.8403 59.2618L39.7375 63.0398Z" fill="#CDD1F8"/>
</svg>