<svg xmlns="http://www.w3.org/2000/svg" width="57" height="65" viewBox="0 0 57 65" fill="none">
  <path fill-rule="evenodd" clip-rule="evenodd" d="M39.8785 52.9637C39.6283 52.4872 39.8105 51.897 40.2859 51.6462C40.7614 51.3954 41.3502 51.578 41.6004 52.0545L43.1584 55.0215L49.895 48.2694C50.2759 47.8875 50.8935 47.8875 51.2745 48.2694C51.6555 48.6512 51.6555 49.2702 51.2745 49.6521L43.8228 57.1171C43.2408 57.7005 42.2808 57.5399 41.9066 56.8262L39.8785 52.9637ZM18.9566 0C17.54 0 16.385 1.15768 16.385 2.5775V2.98587H3.10299C1.39389 2.98587 0 4.38372 0 6.09599V57.0701C0 58.7832 1.39464 60.181 3.10299 60.181H36.7687C38.8558 62.8509 42.082 64.5246 45.6619 64.5246C51.8974 64.5246 56.9521 59.4582 56.9521 53.2084C56.9521 47.311 52.4394 42.4317 46.637 41.934V6.09674C46.637 4.38372 45.2424 2.98662 43.534 2.98662H30.252V2.57826C30.252 1.15843 29.097 0.000757948 27.6805 0.000757948H18.9558L18.9566 0ZM30.2528 4.94134V5.34971C30.2528 6.76953 29.0978 7.92721 27.6812 7.92721H18.9566C17.54 7.92721 16.385 6.76953 16.385 5.34971V4.94134H3.10299C2.47105 4.94134 1.95023 5.46336 1.95023 6.09674V57.0709C1.95023 57.7043 2.47105 58.2263 3.10299 58.2263H35.5388C33.3822 53.8638 34.2704 48.6224 37.6781 45.207C39.5058 43.375 41.9572 42.1681 44.686 41.934V6.09674C44.686 5.46336 44.1652 4.94134 43.5333 4.94134H30.2513H30.2528ZM27.6812 1.95547C28.0206 1.95547 28.3018 2.23732 28.3018 2.5775V5.35047C28.3018 5.69065 28.0206 5.97249 27.6812 5.97249H18.9566C18.6172 5.97249 18.336 5.69065 18.336 5.35047V2.5775C18.336 2.23732 18.6172 1.95547 18.9566 1.95547H27.6812ZM9.06178 48.3444C8.52282 48.3444 8.08666 47.9065 8.08666 47.367C8.08666 46.8276 8.52358 46.3897 9.06178 46.3897H30.3412C30.8802 46.3897 31.3164 46.8276 31.3164 47.367C31.3164 47.9065 30.8794 48.3444 30.3412 48.3444H9.06178ZM9.06178 40.4528C8.52282 40.4528 8.08666 40.0149 8.08666 39.4754C8.08666 38.936 8.52358 38.4981 9.06178 38.4981H36.8314C37.3704 38.4981 37.8066 38.936 37.8066 39.4754C37.8066 40.0149 37.3696 40.4528 36.8314 40.4528H9.06178ZM9.06178 32.5612C8.52282 32.5612 8.08666 32.1233 8.08666 31.5838C8.08666 31.0444 8.52358 30.6065 9.06178 30.6065H36.8314C37.3704 30.6065 37.8066 31.0444 37.8066 31.5838C37.8066 32.1233 37.3696 32.5612 36.8314 32.5612H9.06178ZM9.06178 24.6696C8.52282 24.6696 8.08666 24.2317 8.08666 23.6922C8.08666 23.1528 8.52358 22.7149 9.06178 22.7149H36.8314C37.3704 22.7149 37.8066 23.1528 37.8066 23.6922C37.8066 24.2317 37.3696 24.6696 36.8314 24.6696H9.06178ZM9.06178 16.778C8.52282 16.778 8.08666 16.3401 8.08666 15.8006C8.08666 15.2612 8.52358 14.8233 9.06178 14.8233H36.8314C37.3704 14.8233 37.8066 15.2612 37.8066 15.8006C37.8066 16.3401 37.3696 16.778 36.8314 16.778H9.06178ZM52.2662 46.5889C48.619 42.9333 42.7048 42.9333 39.0576 46.5889C35.3967 50.2582 35.4232 56.1852 39.0576 59.828C42.7048 63.4836 48.619 63.4836 52.2662 59.828C55.9135 56.1723 55.9135 50.2453 52.2662 46.5889Z" fill="#1565C0"/>
</svg>