<svg xmlns="http://www.w3.org/2000/svg" width="96" height="96" viewBox="0 0 96 96" fill="none">
  <path d="M29.5824 66.7646C33.7283 70.8656 39.1396 73.4621 44.9496 74.1386C50.7596 74.8152 56.6278 73.533 61.6173 70.4983C62.1882 70.1343 62.3602 69.3868 62.0066 68.8134C61.6562 68.24 60.9068 68.0499 60.3197 68.3882C54.6685 71.8094 47.8335 72.7276 41.472 70.9138C35.1104 69.1001 29.803 64.7253 26.8415 58.8459C23.8797 52.9698 23.5293 46.1305 25.8813 39.9839C26.1214 40.029 26.3647 40.0516 26.6112 40.0548C28.4214 40.0548 30.0531 38.9724 30.7409 37.3101C31.4319 35.6478 31.0394 33.7374 29.7547 32.4745C28.0029 30.7478 25.1774 30.7607 23.4385 32.5003C21.703 34.24 21.716 37.0459 23.4677 38.7727C23.5196 38.8242 23.578 38.8564 23.6332 38.9047V38.9015C21.7581 43.6146 21.3267 48.7692 22.3842 53.724C23.4418 58.6787 25.9459 63.215 29.5824 66.7646ZM25.2095 34.243C25.6734 33.7791 26.3384 33.5729 26.9872 33.6985C27.6328 33.8242 28.1745 34.2623 28.4308 34.8647C28.6839 35.4672 28.619 36.1566 28.2556 36.7043C27.8923 37.2487 27.2792 37.5805 26.6174 37.5837H26.6076H26.6109C25.8128 37.5805 25.0959 37.1069 24.7877 36.3757C24.4828 35.6476 24.6483 34.8035 25.2095 34.243Z" fill="#CDD1F8"/>
  <path d="M66.4159 29.8656C62.2733 25.7645 56.8588 23.168 51.0488 22.4915C45.2388 21.815 39.3706 23.0972 34.3811 26.1319C33.7939 26.4894 33.609 27.2498 33.9691 27.8328C34.326 28.4159 35.0916 28.5996 35.6787 28.242C41.3299 24.8207 48.1683 23.9058 54.5297 25.7195C60.8914 27.5332 66.1954 31.908 69.1603 37.7875C72.1221 43.6635 72.4692 50.5062 70.1172 56.6494C69.8707 56.6043 69.6209 56.5786 69.3678 56.5721C67.5609 56.5818 65.9389 57.6706 65.2544 59.3298C64.5732 60.9888 64.9624 62.8928 66.2438 64.1556H66.2471L66.2438 64.1589C67.9956 65.8824 70.8244 65.8695 72.56 64.1299C74.2956 62.3902 74.2826 59.5843 72.5308 57.8608C72.4789 57.8124 72.4205 57.777 72.3686 57.7287C74.2404 53.0156 74.6751 47.861 73.6144 42.9062C72.5568 37.9515 70.0525 33.4151 66.4159 29.8656ZM70.7889 62.3873C70.325 62.8512 69.66 63.0573 69.0144 62.9317C68.3656 62.8061 67.8238 62.3712 67.5708 61.7655C67.3145 61.1631 67.3794 60.4737 67.7427 59.926C68.1061 59.3815 68.7192 59.0529 69.3778 59.0465H69.3875C70.1823 59.0497 70.9025 59.5233 71.2074 60.2545C71.5156 60.9826 71.3501 61.8235 70.7889 62.3873Z" fill="#CDD1F8"/>
  <path d="M42.7304 60.5692L42.7953 60.5564C51.6615 58.4495 57.621 53.0212 58.7363 46.0373C59.3721 41.1116 58.1946 36.1243 55.4274 31.9917C55.2133 31.6567 54.8532 31.4473 54.4574 31.4215C54.0616 31.4022 53.6788 31.5632 53.4193 31.8628C51.1516 34.4401 48.5532 36.7144 45.6952 38.628C41.4649 41.682 37.8121 44.3172 38.0716 50.5377C38.2273 53.4402 39.0124 56.2784 40.3781 58.8491C39.7358 60.4598 39.1259 62.1898 38.5841 64.0776C38.396 64.7348 38.7788 65.4177 39.4405 65.6078C40.1023 65.7947 40.7933 65.4145 40.9815 64.7574C41.4032 63.2916 41.8703 61.9289 42.3602 60.6403C42.4413 60.6274 42.5224 60.6145 42.6068 60.5952L42.5646 60.0926C42.5808 60.0475 42.6003 60.0088 42.6165 59.967L42.7304 60.5692ZM41.7085 55.8079V55.8111C41.0435 54.0908 40.6542 52.277 40.5634 50.4376C40.359 45.5377 43.0645 43.5854 47.1618 40.6277C49.6889 38.9074 52.0376 36.939 54.1689 34.7548C56.031 38.0665 56.7706 41.884 56.2776 45.6468C55.0351 53.4235 47.3666 56.6517 43.5414 57.7923C45.4521 53.2499 48.2518 49.1295 51.7748 45.6699C52.2712 45.2189 52.3166 44.4585 51.8819 43.9528C51.4472 43.4438 50.6848 43.3729 50.1593 43.7885C46.5811 47.2097 43.7103 51.2947 41.7085 55.8079Z" fill="#CDD1F8"/>
</svg>