<svg xmlns="http://www.w3.org/2000/svg" width="44" height="68" viewBox="0 0 44 68" fill="none">
  <path d="M38.0157 27.2186L37.7722 26.9759C37.4069 17.0236 32.9019 7.55597 24.8662 1.00137C23.2834 -0.333789 20.7264 -0.333789 19.1435 1.00137C10.9856 7.55558 6.4807 17.0228 6.11523 26.9759L5.87171 27.2186C0.149042 34.8652 -1.55549 44.8177 1.48842 53.6778L4.41062 62.2956C4.53237 62.7811 4.89765 63.0238 5.38468 63.1453H5.50644C5.87171 63.1453 6.35878 62.9025 6.4805 62.5384L13.299 51.9786V54.6489C13.299 55.3771 13.786 55.8626 14.5165 55.8626H15.7341V61.9313C15.7341 62.2954 15.9776 62.781 16.3429 63.0237C16.7082 63.2663 17.1953 63.2664 17.5605 63.0237L18.7781 62.4168L20.7262 67.2718C20.9697 67.7572 21.335 68 21.822 68C22.309 68 22.7961 67.7572 22.9178 67.2718L24.8659 62.4168L26.0835 63.0237C26.4488 63.2664 26.9358 63.145 27.3011 63.0237C27.6663 62.7809 27.9099 62.4168 27.9099 61.9313V55.8626H29.1274C29.858 55.8626 30.345 55.3771 30.345 54.6489V51.9786L37.1635 62.5384C37.407 62.9025 37.7723 63.1453 38.1375 63.1453H38.2593C38.7463 63.1453 39.1116 62.7811 39.2334 62.2956L42.1556 53.6778C45.3213 44.8177 43.7383 34.8646 38.0157 27.2186ZM20.6041 2.94375C21.3346 2.33687 22.5522 2.33687 23.2828 2.94375C34.85 12.1682 38.6247 28.1896 32.4148 41.7835L29.3709 48.5805H14.5168L11.4729 41.7835C5.26319 28.0684 9.03774 12.1682 20.605 2.94375H20.6041ZM5.99312 59.1403L3.92327 52.9501C1.48811 45.6677 2.34045 37.7785 6.35843 31.1027C6.72371 34.9867 7.69781 38.9919 9.40235 42.7547L12.4463 49.4303C12.4463 49.4303 12.3245 49.4303 12.3245 49.5517L5.99312 59.1403ZM25.596 59.9899L24.8654 59.6258C24.5002 59.5044 24.2566 59.5044 23.8914 59.6258C23.5261 59.7472 23.2826 59.9899 23.1608 60.354L21.9432 63.5098L20.6039 60.2326C20.4821 59.8685 20.2386 59.6258 19.8733 59.5044C19.508 59.383 19.1428 59.383 18.8993 59.5044L18.2905 59.9899V55.8632H25.5959L25.596 59.9899ZM28.0311 53.4357H15.8553V51.0082H28.0311V53.4357ZM40.0854 52.9502L38.0155 59.1403L31.8058 49.5516L31.6841 49.4302L34.728 42.7546C36.4326 38.9919 37.4067 34.9866 37.7719 31.1026C41.5465 37.7783 42.5206 45.6677 40.0854 52.9502Z" fill="#1565C0"/>
  <path d="M21.9438 31.5879C27.3011 31.5879 31.6844 27.2184 31.6844 21.8779C31.6844 16.5374 27.3011 12.168 21.9438 12.168C16.5864 12.168 12.2031 16.5374 12.2031 21.8779C12.2031 27.2184 16.5864 31.5879 21.9438 31.5879ZM21.9438 14.5955C25.9618 14.5955 29.2493 17.8726 29.2493 21.8779C29.2493 25.8832 25.9618 29.1604 21.9438 29.1604C17.9258 29.1604 14.6383 25.8832 14.6383 21.8779C14.6383 17.8726 17.9258 14.5955 21.9438 14.5955Z" fill="#1565C0"/>
</svg>