<svg xmlns="http://www.w3.org/2000/svg" width="69" height="68" viewBox="0 0 69 68" fill="none">
  <path fill-rule="evenodd" clip-rule="evenodd" d="M52.3741 32.7853H55.2973C58.0744 32.7853 60.7388 31.6864 62.7028 29.7253C64.6698 27.7703 65.7721 25.1141 65.7721 22.3425V21.371C65.7721 18.6025 64.6698 15.9462 62.7028 13.9852C60.7388 12.0302 58.0744 10.9282 55.2973 10.9282H49.9381C49.2652 10.9282 48.7201 10.3848 48.7201 9.7139C48.7201 9.04301 49.2652 8.49961 49.9381 8.49961H55.2973C58.7229 8.49961 62.0055 9.85658 64.4263 12.27C66.8471 14.6834 68.2082 17.9589 68.2082 21.3711V22.3425C68.2082 25.7577 66.8471 29.0303 64.4263 31.4437C62.0055 33.8571 58.723 35.2141 55.2973 35.2141H52.3741L54.5665 38.1283C54.9715 38.6626 54.8619 39.4276 54.3229 39.8283C53.787 40.2291 53.0227 40.1228 52.6177 39.5855L48.9637 34.7283C48.8054 34.5189 48.7201 34.2669 48.7201 33.9998C48.7201 33.7326 48.8054 33.4807 48.9637 33.2712L52.6177 28.4141C53.0227 27.8767 53.787 27.7705 54.3229 28.1712C54.8619 28.5719 54.9715 29.3369 54.5665 29.8712C54.5665 29.8712 53.2907 31.565 52.3741 32.7853ZM15.8341 59.4996H12.9109C9.48528 59.4996 6.20272 58.1426 3.78192 55.7292C1.36112 53.3158 0 50.0403 0 46.6281V45.6567C0 42.2415 1.36112 38.969 3.78192 36.5556C6.20272 34.1421 9.4852 32.7852 12.9109 32.7852H18.2701C18.943 32.7852 19.4881 33.3316 19.4881 33.9995C19.4881 34.6673 18.943 35.2137 18.2701 35.2137H12.9109C10.1338 35.2137 7.46944 36.3127 5.50544 38.2737C3.5384 40.2287 2.43608 42.885 2.43608 45.6566V46.628C2.43608 49.3966 3.5384 52.0529 5.50544 54.0139C7.46944 55.9689 10.1338 57.0709 12.9109 57.0709H15.8341L13.6417 54.1566C13.2367 53.6193 13.3463 52.8573 13.8853 52.4566C14.4212 52.0528 15.1855 52.1652 15.5905 52.6995L19.2445 57.5566C19.4028 57.7661 19.4881 58.0211 19.4881 58.2852C19.4881 58.5493 19.4028 58.8043 19.2445 59.0137L15.5905 63.8709C15.1855 64.4052 14.4212 64.5175 13.8853 64.1137C13.3463 63.71 13.2367 62.9511 13.6417 62.4137C13.6417 62.4137 14.9175 60.7169 15.8341 59.4996ZM40.1941 24.2857C43.5588 24.2857 46.2841 27.0057 46.2841 30.3571V37.6429C46.2841 40.9943 43.5588 43.7143 40.1941 43.7143H28.0141C24.6494 43.7143 21.9241 40.9943 21.9241 37.6429V30.3571C21.9241 27.0057 24.6494 24.2857 28.0141 24.2857H40.1941ZM40.1941 26.7143H28.0141C25.9953 26.7143 24.3601 28.3445 24.3601 30.3571V37.6429C24.3601 39.6555 25.9953 41.2857 28.0141 41.2857H40.1941C42.2129 41.2857 43.8481 39.6555 43.8481 37.6429V30.3571C43.8481 28.3445 42.2129 26.7143 40.1941 26.7143ZM40.1941 0C43.5588 0 46.2841 2.71697 46.2841 6.07143V13.3571C46.2841 16.7116 43.5588 19.4286 40.1941 19.4286H28.0141C24.6494 19.4286 21.9241 16.7116 21.9241 13.3571V6.07143C21.9241 2.71697 24.6494 0 28.0141 0H40.1941ZM40.1941 2.42857H28.0141C25.9953 2.42857 24.3601 4.05878 24.3601 6.07143V13.3571C24.3601 15.3668 25.9953 17 28.0141 17H40.1941C42.2129 17 43.8481 15.3668 43.8481 13.3571V6.07143C43.8481 4.05878 42.2129 2.42857 40.1941 2.42857ZM40.1941 48.5714C43.5588 48.5714 46.2841 51.2884 46.2841 54.6429V61.9286C46.2841 65.283 43.5588 68 40.1941 68H28.0141C24.6494 68 21.9241 65.283 21.9241 61.9286V54.6429C21.9241 51.2884 24.6494 48.5714 28.0141 48.5714H40.1941ZM40.1941 51H28.0141C25.9953 51 24.3601 52.6332 24.3601 54.6429V61.9286C24.3601 63.9412 25.9953 65.5714 28.0141 65.5714H40.1941C42.2129 65.5714 43.8481 63.9412 43.8481 61.9286V54.6429C43.8481 52.6332 42.2129 51 40.1941 51Z" fill="#1565C0"/>
</svg>