<svg width="328" height="390" viewBox="0 0 328 390" fill="none" xmlns="http://www.w3.org/2000/svg">
<g clip-path="url(#clip0_898_71)">
<path d="M0 24C0 10.7452 10.7452 0 24 0H304C317.255 0 328 10.7452 328 24V365.85C328 379.105 317.255 389.85 304 389.85H24C10.7452 389.85 0 379.105 0 365.85V24Z" fill="#3F51B5"/>
<path d="M258.622 6.10352e-05C258.622 -35.3415 287.272 -63.9915 322.613 -63.9915C357.955 -63.9915 386.605 -35.3415 386.605 6.10352e-05C386.605 35.3416 357.955 63.9916 322.613 63.9916C287.272 63.9916 258.622 35.3416 258.622 6.10352e-05Z" fill="white" fill-opacity="0.1"/>
</g>
<defs>
<clipPath id="clip0_898_71">
<path d="M0 24C0 10.7452 10.7452 0 24 0H304C317.255 0 328 10.7452 328 24V365.85C328 379.105 317.255 389.85 304 389.85H24C10.7452 389.85 0 379.105 0 365.85V24Z" fill="white"/>
</clipPath>
</defs>
</svg>
