<svg width="1280" height="300" viewBox="0 0 1280 300" fill="none" xmlns="http://www.w3.org/2000/svg">
<rect width="1280" height="300" fill="url(#paint0_radial_614_122)"/>
<path d="M324 150L656.121 150L956 150" stroke="#42A5F5" stroke-width="2" stroke-dasharray="14 14"/>
<g opacity="0.5">
<mask id="mask0_614_122" style="mask-type:alpha" maskUnits="userSpaceOnUse" x="44" y="0" width="288" height="295">
<rect width="288" height="295" transform="translate(44)" fill="url(#paint1_radial_614_122)"/>
</mask>
<g mask="url(#mask0_614_122)">
<line x1="99.5005" y1="27.6455" x2="99.5005" y2="267.354" stroke="#9090FE"/>
<line x1="124.929" y1="27.6455" x2="124.929" y2="267.354" stroke="#9090FE"/>
<line x1="150.358" y1="27.6455" x2="150.358" y2="267.354" stroke="#9090FE"/>
<line x1="175.786" y1="27.6455" x2="175.786" y2="267.354" stroke="#9090FE"/>
<line x1="201.215" y1="27.6455" x2="201.215" y2="267.354" stroke="#9090FE"/>
<line x1="226.643" y1="27.6455" x2="226.643" y2="267.354" stroke="#9090FE"/>
<line x1="252.072" y1="27.6455" x2="252.072" y2="267.354" stroke="#9090FE"/>
<line x1="277.5" y1="27.6455" x2="277.5" y2="267.354" stroke="#9090FE"/>
<line x1="68.1465" y1="236" x2="307.855" y2="236" stroke="#9090FE"/>
<line x1="68.1465" y1="210.571" x2="307.855" y2="210.571" stroke="#9090FE"/>
<line x1="68.1465" y1="185.143" x2="307.855" y2="185.143" stroke="#9090FE"/>
<line x1="68.1465" y1="159.714" x2="307.855" y2="159.714" stroke="#9090FE"/>
<line x1="68.1465" y1="134.286" x2="307.855" y2="134.286" stroke="#9090FE"/>
<line x1="68.1465" y1="108.857" x2="307.855" y2="108.857" stroke="#9090FE"/>
<line x1="68.1465" y1="83.4286" x2="307.855" y2="83.4286" stroke="#9090FE"/>
<line x1="68.1465" y1="58" x2="307.855" y2="58" stroke="#9090FE"/>
</g>
</g>
<g filter="url(#filter0_d_614_122)">
<rect x="188" y="56" width="136" height="188" rx="12" fill="white" shape-rendering="crispEdges"/>
<rect x="200" y="68" width="112" height="112" rx="4" fill="#E3F2FD"/>
<path d="M293.026 102.302C292.967 102.234 292.901 102.173 292.829 102.119C292.723 102.039 292.604 101.977 292.477 101.936L256.414 89.068C256.363 89.0567 256.311 89.0492 256.259 89.0454C256.174 89.0237 256.087 89.0111 256 89.0078C255.916 89.0109 255.833 89.0231 255.751 89.0442C255.695 89.0477 255.64 89.0557 255.586 89.068L219.523 101.934C219.396 101.976 219.277 102.037 219.171 102.118C219.099 102.171 219.033 102.233 218.974 102.301C218.776 102.527 218.667 102.818 218.667 103.12V144.846C218.667 145.105 218.747 145.358 218.895 145.57C219.043 145.781 219.253 145.941 219.496 146.028L255.584 158.923H255.604C255.86 159.015 256.14 159.015 256.396 158.923H256.416L292.505 146.028C292.747 145.941 292.957 145.781 293.105 145.57C293.254 145.358 293.333 145.105 293.333 144.846V103.126C293.333 102.825 293.223 102.534 293.026 102.308V102.302ZM256 114.705L241.679 109.582L274.045 98.0207L288.356 103.129L256 114.705ZM256 91.5818L270.32 96.691L237.956 108.25L223.637 103.129L256 91.5818ZM221.156 104.902L236.711 110.467V119.905C236.711 120.238 236.842 120.557 237.076 120.792C237.309 121.027 237.626 121.159 237.956 121.159C238.286 121.159 238.602 121.027 238.836 120.792C239.069 120.557 239.2 120.238 239.2 119.905V111.357L254.756 116.922V155.965L221.156 143.961V104.902ZM290.845 143.961L257.245 155.965V116.922L290.845 104.902V143.961Z" fill="#1565C0"/>
<path d="M221.715 217.637H217.273V215.305H221.715C222.488 215.305 223.113 215.18 223.59 214.93C224.066 214.68 224.414 214.336 224.633 213.898C224.859 213.453 224.973 212.945 224.973 212.375C224.973 211.836 224.859 211.332 224.633 210.863C224.414 210.387 224.066 210.004 223.59 209.715C223.113 209.426 222.488 209.281 221.715 209.281H218.176V224H215.234V206.938H221.715C223.035 206.938 224.156 207.172 225.078 207.641C226.008 208.102 226.715 208.742 227.199 209.562C227.684 210.375 227.926 211.305 227.926 212.352C227.926 213.453 227.684 214.398 227.199 215.188C226.715 215.977 226.008 216.582 225.078 217.004C224.156 217.426 223.035 217.637 221.715 217.637ZM233.117 213.734V224H230.293V211.32H232.988L233.117 213.734ZM236.996 211.238L236.973 213.863C236.801 213.832 236.613 213.809 236.41 213.793C236.215 213.777 236.02 213.77 235.824 213.77C235.34 213.77 234.914 213.84 234.547 213.98C234.18 214.113 233.871 214.309 233.621 214.566C233.379 214.816 233.191 215.121 233.059 215.48C232.926 215.84 232.848 216.242 232.824 216.688L232.18 216.734C232.18 215.938 232.258 215.199 232.414 214.52C232.57 213.84 232.805 213.242 233.117 212.727C233.438 212.211 233.836 211.809 234.312 211.52C234.797 211.23 235.355 211.086 235.988 211.086C236.16 211.086 236.344 211.102 236.539 211.133C236.742 211.164 236.895 211.199 236.996 211.238ZM237.922 217.801V217.531C237.922 216.617 238.055 215.77 238.32 214.988C238.586 214.199 238.969 213.516 239.469 212.938C239.977 212.352 240.594 211.898 241.32 211.578C242.055 211.25 242.883 211.086 243.805 211.086C244.734 211.086 245.562 211.25 246.289 211.578C247.023 211.898 247.645 212.352 248.152 212.938C248.66 213.516 249.047 214.199 249.312 214.988C249.578 215.77 249.711 216.617 249.711 217.531V217.801C249.711 218.715 249.578 219.562 249.312 220.344C249.047 221.125 248.66 221.809 248.152 222.395C247.645 222.973 247.027 223.426 246.301 223.754C245.574 224.074 244.75 224.234 243.828 224.234C242.898 224.234 242.066 224.074 241.332 223.754C240.605 223.426 239.988 222.973 239.48 222.395C238.973 221.809 238.586 221.125 238.32 220.344C238.055 219.562 237.922 218.715 237.922 217.801ZM240.746 217.531V217.801C240.746 218.371 240.805 218.91 240.922 219.418C241.039 219.926 241.223 220.371 241.473 220.754C241.723 221.137 242.043 221.438 242.434 221.656C242.824 221.875 243.289 221.984 243.828 221.984C244.352 221.984 244.805 221.875 245.188 221.656C245.578 221.438 245.898 221.137 246.148 220.754C246.398 220.371 246.582 219.926 246.699 219.418C246.824 218.91 246.887 218.371 246.887 217.801V217.531C246.887 216.969 246.824 216.438 246.699 215.938C246.582 215.43 246.395 214.98 246.137 214.59C245.887 214.199 245.566 213.895 245.176 213.676C244.793 213.449 244.336 213.336 243.805 213.336C243.273 213.336 242.812 213.449 242.422 213.676C242.039 213.895 241.723 214.199 241.473 214.59C241.223 214.98 241.039 215.43 240.922 215.938C240.805 216.438 240.746 216.969 240.746 217.531ZM259.812 221.375V206H262.648V224H260.082L259.812 221.375ZM251.562 217.801V217.555C251.562 216.594 251.676 215.719 251.902 214.93C252.129 214.133 252.457 213.449 252.887 212.879C253.316 212.301 253.84 211.859 254.457 211.555C255.074 211.242 255.77 211.086 256.543 211.086C257.309 211.086 257.98 211.234 258.559 211.531C259.137 211.828 259.629 212.254 260.035 212.809C260.441 213.355 260.766 214.012 261.008 214.777C261.25 215.535 261.422 216.379 261.523 217.309V218.094C261.422 219 261.25 219.828 261.008 220.578C260.766 221.328 260.441 221.977 260.035 222.523C259.629 223.07 259.133 223.492 258.547 223.789C257.969 224.086 257.293 224.234 256.52 224.234C255.754 224.234 255.062 224.074 254.445 223.754C253.836 223.434 253.316 222.984 252.887 222.406C252.457 221.828 252.129 221.148 251.902 220.367C251.676 219.578 251.562 218.723 251.562 217.801ZM254.387 217.555V217.801C254.387 218.379 254.438 218.918 254.539 219.418C254.648 219.918 254.816 220.359 255.043 220.742C255.27 221.117 255.562 221.414 255.922 221.633C256.289 221.844 256.727 221.949 257.234 221.949C257.875 221.949 258.402 221.809 258.816 221.527C259.23 221.246 259.555 220.867 259.789 220.391C260.031 219.906 260.195 219.367 260.281 218.773V216.652C260.234 216.191 260.137 215.762 259.988 215.363C259.848 214.965 259.656 214.617 259.414 214.32C259.172 214.016 258.871 213.781 258.512 213.617C258.16 213.445 257.742 213.359 257.258 213.359C256.742 213.359 256.305 213.469 255.945 213.688C255.586 213.906 255.289 214.207 255.055 214.59C254.828 214.973 254.66 215.418 254.551 215.926C254.441 216.434 254.387 216.977 254.387 217.555ZM273.23 221.012V211.32H276.066V224H273.395L273.23 221.012ZM273.629 218.375L274.578 218.352C274.578 219.203 274.484 219.988 274.297 220.707C274.109 221.418 273.82 222.039 273.43 222.57C273.039 223.094 272.539 223.504 271.93 223.801C271.32 224.09 270.59 224.234 269.738 224.234C269.121 224.234 268.555 224.145 268.039 223.965C267.523 223.785 267.078 223.508 266.703 223.133C266.336 222.758 266.051 222.27 265.848 221.668C265.645 221.066 265.543 220.348 265.543 219.512V211.32H268.367V219.535C268.367 219.996 268.422 220.383 268.531 220.695C268.641 221 268.789 221.246 268.977 221.434C269.164 221.621 269.383 221.754 269.633 221.832C269.883 221.91 270.148 221.949 270.43 221.949C271.234 221.949 271.867 221.793 272.328 221.48C272.797 221.16 273.129 220.73 273.324 220.191C273.527 219.652 273.629 219.047 273.629 218.375ZM284.141 221.984C284.602 221.984 285.016 221.895 285.383 221.715C285.758 221.527 286.059 221.27 286.285 220.941C286.52 220.613 286.648 220.234 286.672 219.805H289.332C289.316 220.625 289.074 221.371 288.605 222.043C288.137 222.715 287.516 223.25 286.742 223.648C285.969 224.039 285.113 224.234 284.176 224.234C283.207 224.234 282.363 224.07 281.645 223.742C280.926 223.406 280.328 222.945 279.852 222.359C279.375 221.773 279.016 221.098 278.773 220.332C278.539 219.566 278.422 218.746 278.422 217.871V217.461C278.422 216.586 278.539 215.766 278.773 215C279.016 214.227 279.375 213.547 279.852 212.961C280.328 212.375 280.926 211.918 281.645 211.59C282.363 211.254 283.203 211.086 284.164 211.086C285.18 211.086 286.07 211.289 286.836 211.695C287.602 212.094 288.203 212.652 288.641 213.371C289.086 214.082 289.316 214.91 289.332 215.855H286.672C286.648 215.387 286.531 214.965 286.32 214.59C286.117 214.207 285.828 213.902 285.453 213.676C285.086 213.449 284.645 213.336 284.129 213.336C283.559 213.336 283.086 213.453 282.711 213.688C282.336 213.914 282.043 214.227 281.832 214.625C281.621 215.016 281.469 215.457 281.375 215.949C281.289 216.434 281.246 216.938 281.246 217.461V217.871C281.246 218.395 281.289 218.902 281.375 219.395C281.461 219.887 281.609 220.328 281.82 220.719C282.039 221.102 282.336 221.41 282.711 221.645C283.086 221.871 283.562 221.984 284.141 221.984ZM297.312 211.32V213.383H290.164V211.32H297.312ZM292.227 208.215H295.051V220.496C295.051 220.887 295.105 221.188 295.215 221.398C295.332 221.602 295.492 221.738 295.695 221.809C295.898 221.879 296.137 221.914 296.41 221.914C296.605 221.914 296.793 221.902 296.973 221.879C297.152 221.855 297.297 221.832 297.406 221.809L297.418 223.965C297.184 224.035 296.91 224.098 296.598 224.152C296.293 224.207 295.941 224.234 295.543 224.234C294.895 224.234 294.32 224.121 293.82 223.895C293.32 223.66 292.93 223.281 292.648 222.758C292.367 222.234 292.227 221.539 292.227 220.672V208.215Z" fill="#3B6B92"/>
</g>
<g filter="url(#filter1_d_614_122)">
<rect x="444" y="56" width="136" height="188" rx="12" fill="white" shape-rendering="crispEdges"/>
<rect x="456" y="68" width="112" height="112" rx="4" fill="#E3F2FD"/>
<path fill-rule="evenodd" clip-rule="evenodd" d="M523.123 138.539L523.098 138.552C522.919 138.67 522.766 138.838 522.663 139.026C522.561 139.211 522.485 139.42 522.485 139.636C522.485 139.644 522.485 139.654 522.485 139.662V153.179C522.485 153.64 522.74 154.065 523.123 154.294L534.924 161.161L534.95 161.171C535.154 161.284 535.358 161.336 535.588 161.333C535.793 161.331 535.997 161.276 536.201 161.171C536.201 161.166 536.201 161.158 536.201 161.158L548.002 154.294C548.411 154.065 548.64 153.64 548.64 153.179V139.729C548.666 139.26 548.436 138.791 548.002 138.539L542.28 135.208C542.178 135.117 542.05 135.045 541.923 134.996L536.201 131.672C535.818 131.443 535.333 131.443 534.924 131.672L523.123 138.539ZM536.84 157.816V147.265L546.086 141.884V152.435L536.84 157.816ZM528.385 143.833L525.039 141.884V152.435L534.285 157.816V147.265L530.939 145.318V147.056C530.939 147.767 530.377 148.344 529.662 148.344C528.972 148.344 528.385 147.767 528.385 147.056V143.833ZM476.584 157.51L476.635 157.517H519.956C520.671 157.517 521.233 156.941 521.233 156.23C521.233 155.519 520.671 154.943 519.956 154.943H477.938C478.525 138.846 491.655 125.98 507.772 125.98C515.001 125.98 521.616 128.56 526.776 132.852C527.312 133.305 528.13 133.228 528.564 132.679C529.024 132.131 528.947 131.32 528.385 130.867C522.791 126.206 515.614 123.405 507.772 123.405C489.867 123.405 475.358 138.037 475.358 156.083C475.358 157.193 476.329 157.458 476.584 157.51ZM532.191 143.078L535.563 145.035L544.809 139.654L541.463 137.697L532.191 143.078ZM526.316 139.654L529.637 141.593L538.909 136.212L535.563 134.275L526.316 139.654ZM507.772 86.6665C498.5 86.6665 490.991 94.2464 490.991 103.585C490.991 112.921 498.5 120.501 507.772 120.501C517.044 120.501 524.554 112.921 524.554 103.585C524.554 94.2464 517.044 86.6665 507.772 86.6665ZM507.772 89.2412C515.614 89.2412 521.999 95.6677 521.999 103.585C521.999 111.5 515.614 117.926 507.772 117.926C499.93 117.926 493.545 111.5 493.545 103.585C493.545 95.6677 499.93 89.2412 507.772 89.2412Z" fill="#1565C0"/>
<path d="M471.312 218.445H474.242C474.148 219.562 473.836 220.559 473.305 221.434C472.773 222.301 472.027 222.984 471.066 223.484C470.105 223.984 468.938 224.234 467.562 224.234C466.508 224.234 465.559 224.047 464.715 223.672C463.871 223.289 463.148 222.75 462.547 222.055C461.945 221.352 461.484 220.504 461.164 219.512C460.852 218.52 460.695 217.41 460.695 216.184V214.766C460.695 213.539 460.855 212.43 461.176 211.438C461.504 210.445 461.973 209.598 462.582 208.895C463.191 208.184 463.922 207.641 464.773 207.266C465.633 206.891 466.598 206.703 467.668 206.703C469.027 206.703 470.176 206.953 471.113 207.453C472.051 207.953 472.777 208.645 473.293 209.527C473.816 210.41 474.137 211.422 474.254 212.562H471.324C471.246 211.828 471.074 211.199 470.809 210.676C470.551 210.152 470.168 209.754 469.66 209.48C469.152 209.199 468.488 209.059 467.668 209.059C466.996 209.059 466.41 209.184 465.91 209.434C465.41 209.684 464.992 210.051 464.656 210.535C464.32 211.02 464.066 211.617 463.895 212.328C463.73 213.031 463.648 213.836 463.648 214.742V216.184C463.648 217.043 463.723 217.824 463.871 218.527C464.027 219.223 464.262 219.82 464.574 220.32C464.895 220.82 465.301 221.207 465.793 221.48C466.285 221.754 466.875 221.891 467.562 221.891C468.398 221.891 469.074 221.758 469.59 221.492C470.113 221.227 470.508 220.84 470.773 220.332C471.047 219.816 471.227 219.188 471.312 218.445ZM484.262 221.012V211.32H487.098V224H484.426L484.262 221.012ZM484.66 218.375L485.609 218.352C485.609 219.203 485.516 219.988 485.328 220.707C485.141 221.418 484.852 222.039 484.461 222.57C484.07 223.094 483.57 223.504 482.961 223.801C482.352 224.09 481.621 224.234 480.77 224.234C480.152 224.234 479.586 224.145 479.07 223.965C478.555 223.785 478.109 223.508 477.734 223.133C477.367 222.758 477.082 222.27 476.879 221.668C476.676 221.066 476.574 220.348 476.574 219.512V211.32H479.398V219.535C479.398 219.996 479.453 220.383 479.562 220.695C479.672 221 479.82 221.246 480.008 221.434C480.195 221.621 480.414 221.754 480.664 221.832C480.914 221.91 481.18 221.949 481.461 221.949C482.266 221.949 482.898 221.793 483.359 221.48C483.828 221.16 484.16 220.73 484.355 220.191C484.559 219.652 484.66 219.047 484.66 218.375ZM497.105 220.566C497.105 220.285 497.035 220.031 496.895 219.805C496.754 219.57 496.484 219.359 496.086 219.172C495.695 218.984 495.117 218.812 494.352 218.656C493.68 218.508 493.062 218.332 492.5 218.129C491.945 217.918 491.469 217.664 491.07 217.367C490.672 217.07 490.363 216.719 490.145 216.312C489.926 215.906 489.816 215.438 489.816 214.906C489.816 214.391 489.93 213.902 490.156 213.441C490.383 212.98 490.707 212.574 491.129 212.223C491.551 211.871 492.062 211.594 492.664 211.391C493.273 211.188 493.953 211.086 494.703 211.086C495.766 211.086 496.676 211.266 497.434 211.625C498.199 211.977 498.785 212.457 499.191 213.066C499.598 213.668 499.801 214.348 499.801 215.105H496.977C496.977 214.77 496.891 214.457 496.719 214.168C496.555 213.871 496.305 213.633 495.969 213.453C495.633 213.266 495.211 213.172 494.703 213.172C494.219 213.172 493.816 213.25 493.496 213.406C493.184 213.555 492.949 213.75 492.793 213.992C492.645 214.234 492.57 214.5 492.57 214.789C492.57 215 492.609 215.191 492.688 215.363C492.773 215.527 492.914 215.68 493.109 215.82C493.305 215.953 493.57 216.078 493.906 216.195C494.25 216.312 494.68 216.426 495.195 216.535C496.164 216.738 496.996 217 497.691 217.32C498.395 217.633 498.934 218.039 499.309 218.539C499.684 219.031 499.871 219.656 499.871 220.414C499.871 220.977 499.75 221.492 499.508 221.961C499.273 222.422 498.93 222.824 498.477 223.168C498.023 223.504 497.48 223.766 496.848 223.953C496.223 224.141 495.52 224.234 494.738 224.234C493.59 224.234 492.617 224.031 491.82 223.625C491.023 223.211 490.418 222.684 490.004 222.043C489.598 221.395 489.395 220.723 489.395 220.027H492.125C492.156 220.551 492.301 220.969 492.559 221.281C492.824 221.586 493.152 221.809 493.543 221.949C493.941 222.082 494.352 222.148 494.773 222.148C495.281 222.148 495.707 222.082 496.051 221.949C496.395 221.809 496.656 221.621 496.836 221.387C497.016 221.145 497.105 220.871 497.105 220.566ZM508.156 211.32V213.383H501.008V211.32H508.156ZM503.07 208.215H505.895V220.496C505.895 220.887 505.949 221.188 506.059 221.398C506.176 221.602 506.336 221.738 506.539 221.809C506.742 221.879 506.98 221.914 507.254 221.914C507.449 221.914 507.637 221.902 507.816 221.879C507.996 221.855 508.141 221.832 508.25 221.809L508.262 223.965C508.027 224.035 507.754 224.098 507.441 224.152C507.137 224.207 506.785 224.234 506.387 224.234C505.738 224.234 505.164 224.121 504.664 223.895C504.164 223.66 503.773 223.281 503.492 222.758C503.211 222.234 503.07 221.539 503.07 220.672V208.215ZM509.516 217.801V217.531C509.516 216.617 509.648 215.77 509.914 214.988C510.18 214.199 510.562 213.516 511.062 212.938C511.57 212.352 512.188 211.898 512.914 211.578C513.648 211.25 514.477 211.086 515.398 211.086C516.328 211.086 517.156 211.25 517.883 211.578C518.617 211.898 519.238 212.352 519.746 212.938C520.254 213.516 520.641 214.199 520.906 214.988C521.172 215.77 521.305 216.617 521.305 217.531V217.801C521.305 218.715 521.172 219.562 520.906 220.344C520.641 221.125 520.254 221.809 519.746 222.395C519.238 222.973 518.621 223.426 517.895 223.754C517.168 224.074 516.344 224.234 515.422 224.234C514.492 224.234 513.66 224.074 512.926 223.754C512.199 223.426 511.582 222.973 511.074 222.395C510.566 221.809 510.18 221.125 509.914 220.344C509.648 219.562 509.516 218.715 509.516 217.801ZM512.34 217.531V217.801C512.34 218.371 512.398 218.91 512.516 219.418C512.633 219.926 512.816 220.371 513.066 220.754C513.316 221.137 513.637 221.438 514.027 221.656C514.418 221.875 514.883 221.984 515.422 221.984C515.945 221.984 516.398 221.875 516.781 221.656C517.172 221.438 517.492 221.137 517.742 220.754C517.992 220.371 518.176 219.926 518.293 219.418C518.418 218.91 518.48 218.371 518.48 217.801V217.531C518.48 216.969 518.418 216.438 518.293 215.938C518.176 215.43 517.988 214.98 517.73 214.59C517.48 214.199 517.16 213.895 516.77 213.676C516.387 213.449 515.93 213.336 515.398 213.336C514.867 213.336 514.406 213.449 514.016 213.676C513.633 213.895 513.316 214.199 513.066 214.59C512.816 214.98 512.633 215.43 512.516 215.938C512.398 216.438 512.34 216.969 512.34 217.531ZM526.496 213.898V224H523.672V211.32H526.332L526.496 213.898ZM526.039 217.191L525.078 217.18C525.078 216.305 525.188 215.496 525.406 214.754C525.625 214.012 525.945 213.367 526.367 212.82C526.789 212.266 527.312 211.84 527.938 211.543C528.57 211.238 529.301 211.086 530.129 211.086C530.707 211.086 531.234 211.172 531.711 211.344C532.195 211.508 532.613 211.77 532.965 212.129C533.324 212.488 533.598 212.949 533.785 213.512C533.98 214.074 534.078 214.754 534.078 215.551V224H531.254V215.797C531.254 215.18 531.16 214.695 530.973 214.344C530.793 213.992 530.531 213.742 530.188 213.594C529.852 213.438 529.449 213.359 528.98 213.359C528.449 213.359 527.996 213.461 527.621 213.664C527.254 213.867 526.953 214.145 526.719 214.496C526.484 214.848 526.312 215.254 526.203 215.715C526.094 216.176 526.039 216.668 526.039 217.191ZM533.902 216.441L532.578 216.734C532.578 215.969 532.684 215.246 532.895 214.566C533.113 213.879 533.43 213.277 533.844 212.762C534.266 212.238 534.785 211.828 535.402 211.531C536.02 211.234 536.727 211.086 537.523 211.086C538.172 211.086 538.75 211.176 539.258 211.355C539.773 211.527 540.211 211.801 540.57 212.176C540.93 212.551 541.203 213.039 541.391 213.641C541.578 214.234 541.672 214.953 541.672 215.797V224H538.836V215.785C538.836 215.145 538.742 214.648 538.555 214.297C538.375 213.945 538.117 213.703 537.781 213.57C537.445 213.43 537.043 213.359 536.574 213.359C536.137 213.359 535.75 213.441 535.414 213.605C535.086 213.762 534.809 213.984 534.582 214.273C534.355 214.555 534.184 214.879 534.066 215.246C533.957 215.613 533.902 216.012 533.902 216.441ZM550.168 224.234C549.23 224.234 548.383 224.082 547.625 223.777C546.875 223.465 546.234 223.031 545.703 222.477C545.18 221.922 544.777 221.27 544.496 220.52C544.215 219.77 544.074 218.961 544.074 218.094V217.625C544.074 216.633 544.219 215.734 544.508 214.93C544.797 214.125 545.199 213.438 545.715 212.867C546.23 212.289 546.84 211.848 547.543 211.543C548.246 211.238 549.008 211.086 549.828 211.086C550.734 211.086 551.527 211.238 552.207 211.543C552.887 211.848 553.449 212.277 553.895 212.832C554.348 213.379 554.684 214.031 554.902 214.789C555.129 215.547 555.242 216.383 555.242 217.297V218.504H545.445V216.477H552.453V216.254C552.438 215.746 552.336 215.27 552.148 214.824C551.969 214.379 551.691 214.02 551.316 213.746C550.941 213.473 550.441 213.336 549.816 213.336C549.348 213.336 548.93 213.438 548.562 213.641C548.203 213.836 547.902 214.121 547.66 214.496C547.418 214.871 547.23 215.324 547.098 215.855C546.973 216.379 546.91 216.969 546.91 217.625V218.094C546.91 218.648 546.984 219.164 547.133 219.641C547.289 220.109 547.516 220.52 547.812 220.871C548.109 221.223 548.469 221.5 548.891 221.703C549.312 221.898 549.793 221.996 550.332 221.996C551.012 221.996 551.617 221.859 552.148 221.586C552.68 221.312 553.141 220.926 553.531 220.426L555.02 221.867C554.746 222.266 554.391 222.648 553.953 223.016C553.516 223.375 552.98 223.668 552.348 223.895C551.723 224.121 550.996 224.234 550.168 224.234ZM560.281 213.734V224H557.457V211.32H560.152L560.281 213.734ZM564.16 211.238L564.137 213.863C563.965 213.832 563.777 213.809 563.574 213.793C563.379 213.777 563.184 213.77 562.988 213.77C562.504 213.77 562.078 213.84 561.711 213.98C561.344 214.113 561.035 214.309 560.785 214.566C560.543 214.816 560.355 215.121 560.223 215.48C560.09 215.84 560.012 216.242 559.988 216.688L559.344 216.734C559.344 215.938 559.422 215.199 559.578 214.52C559.734 213.84 559.969 213.242 560.281 212.727C560.602 212.211 561 211.809 561.477 211.52C561.961 211.23 562.52 211.086 563.152 211.086C563.324 211.086 563.508 211.102 563.703 211.133C563.906 211.164 564.059 211.199 564.16 211.238Z" fill="#3B6B92"/>
</g>
<g filter="url(#filter2_d_614_122)">
<rect x="700" y="56" width="136" height="188" rx="12" fill="white" shape-rendering="crispEdges"/>
<rect x="712" y="68" width="112" height="112" rx="4" fill="#E3F2FD"/>
<path fill-rule="evenodd" clip-rule="evenodd" d="M767.999 84.5449C755.189 84.5449 744.765 95.0212 744.765 107.921C744.765 111.375 746.23 115.494 748.322 119.912C750.414 124.331 753.176 129.007 755.932 133.298C756.25 133.793 756.569 134.283 756.887 134.767C751.281 135.719 746.515 137.347 742.953 139.476C738.951 141.868 736.324 145.016 736.324 148.653C736.324 150.929 737.384 153.044 739.089 154.83C740.794 156.616 743.156 158.141 746.015 159.408C751.735 161.942 759.463 163.455 767.999 163.455C776.534 163.455 784.266 161.942 789.985 159.408C792.845 158.141 795.217 156.616 796.922 154.83C798.627 153.044 799.677 150.929 799.677 148.653C799.677 145.016 797.059 141.868 793.058 139.476C789.495 137.346 784.722 135.719 779.114 134.767C779.431 134.283 779.75 133.793 780.068 133.298C782.824 129.007 785.586 124.331 787.678 119.912C789.77 115.494 791.233 111.375 791.233 107.921C791.233 95.0212 780.809 84.5449 767.999 84.5449ZM767.999 87.2657C779.369 87.2657 788.549 96.5031 788.549 107.921C788.549 110.547 787.271 114.487 785.259 118.738C783.246 122.988 780.535 127.584 777.819 131.813C772.91 139.454 768.902 144.573 767.999 145.741C767.096 144.573 763.09 139.454 758.182 131.813C755.465 127.584 752.754 122.988 750.742 118.738C748.729 114.487 747.452 110.547 747.452 107.921C747.452 96.5031 756.629 87.2657 767.999 87.2657ZM767.999 94.4369C760.623 94.4369 754.606 100.486 754.606 107.921C754.606 115.356 760.623 121.4 767.999 121.4C775.375 121.4 781.395 115.356 781.395 107.921C781.395 100.486 775.375 94.4369 767.999 94.4369ZM767.999 97.1577C773.936 97.1577 778.71 101.968 778.71 107.921C778.71 113.874 773.936 118.677 767.999 118.677C762.062 118.677 757.29 113.874 757.29 107.921C757.29 101.968 762.062 97.1577 767.999 97.1577ZM758.549 137.262C763.061 143.942 766.95 148.924 766.95 148.924C767.076 149.084 767.236 149.213 767.418 149.302C767.599 149.391 767.798 149.437 768 149.437C768.202 149.437 768.401 149.391 768.583 149.302C768.765 149.213 768.924 149.084 769.05 148.924C769.05 148.924 772.942 143.943 777.455 137.262C783.35 138.139 788.283 139.788 791.689 141.824C795.249 143.952 796.99 146.373 796.99 148.653C796.99 150.088 796.355 151.511 794.99 152.941C793.624 154.371 791.546 155.743 788.916 156.908C783.656 159.239 776.217 160.734 767.999 160.734C759.78 160.734 752.345 159.239 747.085 156.908C744.455 155.743 742.376 154.371 741.011 152.941C739.646 151.511 739.011 150.088 739.011 148.653C739.011 146.373 740.751 143.953 744.311 141.824C747.716 139.789 752.655 138.139 758.549 137.262Z" fill="#1565C0"/>
<path d="M733.422 221.668V224H724.855V221.668H733.422ZM725.676 206.938V224H722.734V206.938H725.676ZM734.875 217.801V217.531C734.875 216.617 735.008 215.77 735.273 214.988C735.539 214.199 735.922 213.516 736.422 212.938C736.93 212.352 737.547 211.898 738.273 211.578C739.008 211.25 739.836 211.086 740.758 211.086C741.688 211.086 742.516 211.25 743.242 211.578C743.977 211.898 744.598 212.352 745.105 212.938C745.613 213.516 746 214.199 746.266 214.988C746.531 215.77 746.664 216.617 746.664 217.531V217.801C746.664 218.715 746.531 219.562 746.266 220.344C746 221.125 745.613 221.809 745.105 222.395C744.598 222.973 743.98 223.426 743.254 223.754C742.527 224.074 741.703 224.234 740.781 224.234C739.852 224.234 739.02 224.074 738.285 223.754C737.559 223.426 736.941 222.973 736.434 222.395C735.926 221.809 735.539 221.125 735.273 220.344C735.008 219.562 734.875 218.715 734.875 217.801ZM737.699 217.531V217.801C737.699 218.371 737.758 218.91 737.875 219.418C737.992 219.926 738.176 220.371 738.426 220.754C738.676 221.137 738.996 221.438 739.387 221.656C739.777 221.875 740.242 221.984 740.781 221.984C741.305 221.984 741.758 221.875 742.141 221.656C742.531 221.438 742.852 221.137 743.102 220.754C743.352 220.371 743.535 219.926 743.652 219.418C743.777 218.91 743.84 218.371 743.84 217.801V217.531C743.84 216.969 743.777 216.438 743.652 215.938C743.535 215.43 743.348 214.98 743.09 214.59C742.84 214.199 742.52 213.895 742.129 213.676C741.746 213.449 741.289 213.336 740.758 213.336C740.227 213.336 739.766 213.449 739.375 213.676C738.992 213.895 738.676 214.199 738.426 214.59C738.176 214.98 737.992 215.43 737.875 215.938C737.758 216.438 737.699 216.969 737.699 217.531ZM754.211 221.984C754.672 221.984 755.086 221.895 755.453 221.715C755.828 221.527 756.129 221.27 756.355 220.941C756.59 220.613 756.719 220.234 756.742 219.805H759.402C759.387 220.625 759.145 221.371 758.676 222.043C758.207 222.715 757.586 223.25 756.812 223.648C756.039 224.039 755.184 224.234 754.246 224.234C753.277 224.234 752.434 224.07 751.715 223.742C750.996 223.406 750.398 222.945 749.922 222.359C749.445 221.773 749.086 221.098 748.844 220.332C748.609 219.566 748.492 218.746 748.492 217.871V217.461C748.492 216.586 748.609 215.766 748.844 215C749.086 214.227 749.445 213.547 749.922 212.961C750.398 212.375 750.996 211.918 751.715 211.59C752.434 211.254 753.273 211.086 754.234 211.086C755.25 211.086 756.141 211.289 756.906 211.695C757.672 212.094 758.273 212.652 758.711 213.371C759.156 214.082 759.387 214.91 759.402 215.855H756.742C756.719 215.387 756.602 214.965 756.391 214.59C756.188 214.207 755.898 213.902 755.523 213.676C755.156 213.449 754.715 213.336 754.199 213.336C753.629 213.336 753.156 213.453 752.781 213.688C752.406 213.914 752.113 214.227 751.902 214.625C751.691 215.016 751.539 215.457 751.445 215.949C751.359 216.434 751.316 216.938 751.316 217.461V217.871C751.316 218.395 751.359 218.902 751.445 219.395C751.531 219.887 751.68 220.328 751.891 220.719C752.109 221.102 752.406 221.41 752.781 221.645C753.156 221.871 753.633 221.984 754.211 221.984ZM768.719 221.457V215.41C768.719 214.957 768.637 214.566 768.473 214.238C768.309 213.91 768.059 213.656 767.723 213.477C767.395 213.297 766.98 213.207 766.48 213.207C766.02 213.207 765.621 213.285 765.285 213.441C764.949 213.598 764.688 213.809 764.5 214.074C764.312 214.34 764.219 214.641 764.219 214.977H761.406C761.406 214.477 761.527 213.992 761.77 213.523C762.012 213.055 762.363 212.637 762.824 212.27C763.285 211.902 763.836 211.613 764.477 211.402C765.117 211.191 765.836 211.086 766.633 211.086C767.586 211.086 768.43 211.246 769.164 211.566C769.906 211.887 770.488 212.371 770.91 213.02C771.34 213.66 771.555 214.465 771.555 215.434V221.07C771.555 221.648 771.594 222.168 771.672 222.629C771.758 223.082 771.879 223.477 772.035 223.812V224H769.141C769.008 223.695 768.902 223.309 768.824 222.84C768.754 222.363 768.719 221.902 768.719 221.457ZM769.129 216.289L769.152 218.035H767.125C766.602 218.035 766.141 218.086 765.742 218.188C765.344 218.281 765.012 218.422 764.746 218.609C764.48 218.797 764.281 219.023 764.148 219.289C764.016 219.555 763.949 219.855 763.949 220.191C763.949 220.527 764.027 220.836 764.184 221.117C764.34 221.391 764.566 221.605 764.863 221.762C765.168 221.918 765.535 221.996 765.965 221.996C766.543 221.996 767.047 221.879 767.477 221.645C767.914 221.402 768.258 221.109 768.508 220.766C768.758 220.414 768.891 220.082 768.906 219.77L769.82 221.023C769.727 221.344 769.566 221.688 769.34 222.055C769.113 222.422 768.816 222.773 768.449 223.109C768.09 223.438 767.656 223.707 767.148 223.918C766.648 224.129 766.07 224.234 765.414 224.234C764.586 224.234 763.848 224.07 763.199 223.742C762.551 223.406 762.043 222.957 761.676 222.395C761.309 221.824 761.125 221.18 761.125 220.461C761.125 219.789 761.25 219.195 761.5 218.68C761.758 218.156 762.133 217.719 762.625 217.367C763.125 217.016 763.734 216.75 764.453 216.57C765.172 216.383 765.992 216.289 766.914 216.289H769.129ZM780.32 211.32V213.383H773.172V211.32H780.32ZM775.234 208.215H778.059V220.496C778.059 220.887 778.113 221.188 778.223 221.398C778.34 221.602 778.5 221.738 778.703 221.809C778.906 221.879 779.145 221.914 779.418 221.914C779.613 221.914 779.801 221.902 779.98 221.879C780.16 221.855 780.305 221.832 780.414 221.809L780.426 223.965C780.191 224.035 779.918 224.098 779.605 224.152C779.301 224.207 778.949 224.234 778.551 224.234C777.902 224.234 777.328 224.121 776.828 223.895C776.328 223.66 775.938 223.281 775.656 222.758C775.375 222.234 775.234 221.539 775.234 220.672V208.215ZM785.523 211.32V224H782.688V211.32H785.523ZM782.5 207.992C782.5 207.562 782.641 207.207 782.922 206.926C783.211 206.637 783.609 206.492 784.117 206.492C784.617 206.492 785.012 206.637 785.301 206.926C785.59 207.207 785.734 207.562 785.734 207.992C785.734 208.414 785.59 208.766 785.301 209.047C785.012 209.328 784.617 209.469 784.117 209.469C783.609 209.469 783.211 209.328 782.922 209.047C782.641 208.766 782.5 208.414 782.5 207.992ZM788.078 217.801V217.531C788.078 216.617 788.211 215.77 788.477 214.988C788.742 214.199 789.125 213.516 789.625 212.938C790.133 212.352 790.75 211.898 791.477 211.578C792.211 211.25 793.039 211.086 793.961 211.086C794.891 211.086 795.719 211.25 796.445 211.578C797.18 211.898 797.801 212.352 798.309 212.938C798.816 213.516 799.203 214.199 799.469 214.988C799.734 215.77 799.867 216.617 799.867 217.531V217.801C799.867 218.715 799.734 219.562 799.469 220.344C799.203 221.125 798.816 221.809 798.309 222.395C797.801 222.973 797.184 223.426 796.457 223.754C795.73 224.074 794.906 224.234 793.984 224.234C793.055 224.234 792.223 224.074 791.488 223.754C790.762 223.426 790.145 222.973 789.637 222.395C789.129 221.809 788.742 221.125 788.477 220.344C788.211 219.562 788.078 218.715 788.078 217.801ZM790.902 217.531V217.801C790.902 218.371 790.961 218.91 791.078 219.418C791.195 219.926 791.379 220.371 791.629 220.754C791.879 221.137 792.199 221.438 792.59 221.656C792.98 221.875 793.445 221.984 793.984 221.984C794.508 221.984 794.961 221.875 795.344 221.656C795.734 221.438 796.055 221.137 796.305 220.754C796.555 220.371 796.738 219.926 796.855 219.418C796.98 218.91 797.043 218.371 797.043 217.801V217.531C797.043 216.969 796.98 216.438 796.855 215.938C796.738 215.43 796.551 214.98 796.293 214.59C796.043 214.199 795.723 213.895 795.332 213.676C794.949 213.449 794.492 213.336 793.961 213.336C793.43 213.336 792.969 213.449 792.578 213.676C792.195 213.895 791.879 214.199 791.629 214.59C791.379 214.98 791.195 215.43 791.078 215.938C790.961 216.438 790.902 216.969 790.902 217.531ZM805.035 214.027V224H802.211V211.32H804.871L805.035 214.027ZM804.531 217.191L803.617 217.18C803.625 216.281 803.75 215.457 803.992 214.707C804.242 213.957 804.586 213.312 805.023 212.773C805.469 212.234 806 211.82 806.617 211.531C807.234 211.234 807.922 211.086 808.68 211.086C809.289 211.086 809.84 211.172 810.332 211.344C810.832 211.508 811.258 211.777 811.609 212.152C811.969 212.527 812.242 213.016 812.43 213.617C812.617 214.211 812.711 214.941 812.711 215.809V224H809.875V215.797C809.875 215.188 809.785 214.707 809.605 214.355C809.434 213.996 809.18 213.742 808.844 213.594C808.516 213.438 808.105 213.359 807.613 213.359C807.129 213.359 806.695 213.461 806.312 213.664C805.93 213.867 805.605 214.145 805.34 214.496C805.082 214.848 804.883 215.254 804.742 215.715C804.602 216.176 804.531 216.668 804.531 217.191Z" fill="#3B6B92"/>
</g>
<g filter="url(#filter3_d_614_122)">
<rect x="956" y="56" width="136" height="188" rx="12" fill="white" shape-rendering="crispEdges"/>
<rect x="968" y="68" width="112" height="112" rx="4" fill="#E3F2FD"/>
<path d="M993.941 141.307C994.311 141.953 994.096 142.772 993.445 143.152C993.23 143.278 992.994 143.331 992.769 143.331C992.3 143.331 991.85 143.088 991.596 142.656C988.329 137.009 986.597 130.557 986.597 124C986.597 114.427 990.301 105.263 996.834 98.3614H991.554C990.807 98.3614 990.202 97.757 990.202 97.012C990.202 96.2671 990.807 95.6626 991.554 95.6626H1000.57C1001.31 95.6626 1001.92 96.2671 1001.92 97.012V106.008C1001.92 106.753 1001.31 107.357 1000.57 107.357C999.82 107.357 999.214 106.753 999.214 106.008V99.7811C992.888 106.233 989.3 114.92 989.3 124C989.3 130.083 990.906 136.064 993.941 141.307ZM1041.38 153.982C1036.12 157.025 1030.11 158.635 1024 158.635C1014.9 158.635 1006.19 155.054 999.736 148.739H1005.97C1006.72 148.739 1007.33 148.135 1007.33 147.39C1007.33 146.645 1006.72 146.04 1005.97 146.04H996.962C996.216 146.04 995.61 146.645 995.61 147.39V156.386C995.61 157.131 996.216 157.735 996.962 157.735C997.708 157.735 998.314 157.131 998.314 156.386V151.115C1005.23 157.644 1014.4 161.333 1024 161.333C1030.59 161.333 1037.07 159.597 1042.74 156.322C1043.38 155.943 1043.6 155.127 1043.23 154.477C1042.86 153.831 1042.04 153.617 1041.38 153.982ZM1006.62 94.0253C1011.87 90.9752 1017.88 89.3657 1024 89.3657C1033.09 89.3657 1041.8 92.9465 1048.27 99.2613H1042.03C1041.28 99.2613 1040.67 99.8657 1040.67 100.611C1040.67 101.356 1041.28 101.96 1042.03 101.96H1051.04C1051.78 101.96 1052.39 101.356 1052.39 100.611V91.6147C1052.39 90.8697 1051.78 90.2653 1051.04 90.2653C1050.29 90.2653 1049.69 90.8697 1049.69 91.6147V96.8788C1042.77 90.3567 1033.59 86.6665 1024 86.6665C1017.41 86.6665 1010.93 88.4025 1005.26 91.6846C1004.62 92.0641 1004.4 92.8793 1004.78 93.5295C1005.14 94.1796 1005.97 94.3943 1006.62 94.0253ZM1056.45 149.639H1051.17C1057.71 142.737 1061.4 133.573 1061.4 124C1061.4 117.443 1059.67 110.991 1056.4 105.344C1056.02 104.698 1055.2 104.48 1054.55 104.849C1053.9 105.228 1053.69 106.043 1054.06 106.694C1057.09 111.937 1058.7 117.918 1058.7 124C1058.7 133.088 1055.11 141.778 1048.79 148.226V141.992C1048.79 141.247 1048.18 140.643 1047.43 140.643C1046.69 140.643 1046.08 141.247 1046.08 141.992V150.988C1046.08 151.733 1046.69 152.338 1047.43 152.338H1056.45C1057.19 152.338 1057.8 151.733 1057.8 150.988C1057.8 150.243 1057.19 149.639 1056.45 149.639ZM1039.29 106.458C1041.55 106.458 1043.38 108.285 1043.38 110.534V137.476C1043.38 139.725 1041.55 141.553 1039.29 141.553H1008.71C1006.45 141.553 1004.62 139.725 1004.62 137.476V110.534C1004.62 108.285 1006.45 106.458 1008.71 106.458H1039.29ZM1021.75 109.157V116.417L1023.39 115.598C1023.58 115.5 1023.79 115.454 1024 115.454C1024.21 115.454 1024.42 115.5 1024.61 115.598L1026.25 116.417V109.157H1021.75ZM1039.29 109.157H1028.96V118.602C1028.96 119.07 1028.71 119.502 1028.32 119.755C1028.1 119.889 1027.86 119.952 1027.61 119.952C1027.4 119.952 1027.19 119.906 1027 119.808L1024 118.314L1021 119.808C1020.58 120.015 1020.08 119.998 1019.68 119.745C1019.29 119.502 1019.04 119.07 1019.04 118.602V109.157H1008.71C1007.95 109.157 1007.33 109.768 1007.33 110.534V137.476C1007.33 138.232 1007.94 138.854 1008.71 138.854H1039.3C1040.06 138.854 1040.68 138.242 1040.68 137.476V110.534C1040.67 109.768 1040.06 109.157 1039.29 109.157ZM1014.99 133.446H1011.38C1010.64 133.446 1010.03 134.05 1010.03 134.795C1010.03 135.54 1010.64 136.145 1011.38 136.145H1014.99C1015.73 136.145 1016.34 135.54 1016.34 134.795C1016.34 134.05 1015.73 133.446 1014.99 133.446ZM1018.59 128.048H1011.38C1010.64 128.048 1010.03 128.653 1010.03 129.398C1010.03 130.143 1010.64 130.747 1011.38 130.747H1018.59C1019.34 130.747 1019.94 130.143 1019.94 129.398C1019.94 128.653 1019.34 128.048 1018.59 128.048Z" fill="#1565C0"/>
<path d="M988.422 221.668V224H979.855V221.668H988.422ZM980.676 206.938V224H977.734V206.938H980.676ZM993.438 211.32V224H990.602V211.32H993.438ZM990.414 207.992C990.414 207.562 990.555 207.207 990.836 206.926C991.125 206.637 991.523 206.492 992.031 206.492C992.531 206.492 992.926 206.637 993.215 206.926C993.504 207.207 993.648 207.562 993.648 207.992C993.648 208.414 993.504 208.766 993.215 209.047C992.926 209.328 992.531 209.469 992.031 209.469C991.523 209.469 991.125 209.328 990.836 209.047C990.555 208.766 990.414 208.414 990.414 207.992ZM1000.35 224H997.527V210.102C997.527 209.156 997.703 208.363 998.055 207.723C998.414 207.074 998.926 206.586 999.59 206.258C1000.25 205.922 1001.04 205.754 1001.95 205.754C1002.23 205.754 1002.5 205.773 1002.78 205.812C1003.05 205.844 1003.32 205.895 1003.57 205.965L1003.5 208.145C1003.35 208.105 1003.18 208.078 1002.99 208.062C1002.81 208.047 1002.61 208.039 1002.4 208.039C1001.97 208.039 1001.6 208.121 1001.29 208.285C1000.98 208.441 1000.75 208.672 1000.59 208.977C1000.43 209.281 1000.35 209.656 1000.35 210.102V224ZM1002.96 211.32V213.383H995.582V211.32H1002.96ZM1010.32 224.234C1009.39 224.234 1008.54 224.082 1007.78 223.777C1007.03 223.465 1006.39 223.031 1005.86 222.477C1005.34 221.922 1004.93 221.27 1004.65 220.52C1004.37 219.77 1004.23 218.961 1004.23 218.094V217.625C1004.23 216.633 1004.38 215.734 1004.66 214.93C1004.95 214.125 1005.36 213.438 1005.87 212.867C1006.39 212.289 1007 211.848 1007.7 211.543C1008.4 211.238 1009.16 211.086 1009.98 211.086C1010.89 211.086 1011.68 211.238 1012.36 211.543C1013.04 211.848 1013.61 212.277 1014.05 212.832C1014.5 213.379 1014.84 214.031 1015.06 214.789C1015.29 215.547 1015.4 216.383 1015.4 217.297V218.504H1005.6V216.477H1012.61V216.254C1012.59 215.746 1012.49 215.27 1012.3 214.824C1012.12 214.379 1011.85 214.02 1011.47 213.746C1011.1 213.473 1010.6 213.336 1009.97 213.336C1009.5 213.336 1009.09 213.438 1008.72 213.641C1008.36 213.836 1008.06 214.121 1007.82 214.496C1007.57 214.871 1007.39 215.324 1007.25 215.855C1007.13 216.379 1007.07 216.969 1007.07 217.625V218.094C1007.07 218.648 1007.14 219.164 1007.29 219.641C1007.45 220.109 1007.67 220.52 1007.97 220.871C1008.27 221.223 1008.62 221.5 1009.05 221.703C1009.47 221.898 1009.95 221.996 1010.49 221.996C1011.17 221.996 1011.77 221.859 1012.3 221.586C1012.84 221.312 1013.3 220.926 1013.69 220.426L1015.18 221.867C1014.9 222.266 1014.55 222.648 1014.11 223.016C1013.67 223.375 1013.14 223.668 1012.5 223.895C1011.88 224.121 1011.15 224.234 1010.32 224.234ZM1022.78 221.984C1023.24 221.984 1023.66 221.895 1024.02 221.715C1024.4 221.527 1024.7 221.27 1024.93 220.941C1025.16 220.613 1025.29 220.234 1025.31 219.805H1027.97C1027.96 220.625 1027.71 221.371 1027.25 222.043C1026.78 222.715 1026.16 223.25 1025.38 223.648C1024.61 224.039 1023.75 224.234 1022.82 224.234C1021.85 224.234 1021 224.07 1020.29 223.742C1019.57 223.406 1018.97 222.945 1018.49 222.359C1018.02 221.773 1017.66 221.098 1017.41 220.332C1017.18 219.566 1017.06 218.746 1017.06 217.871V217.461C1017.06 216.586 1017.18 215.766 1017.41 215C1017.66 214.227 1018.02 213.547 1018.49 212.961C1018.97 212.375 1019.57 211.918 1020.29 211.59C1021 211.254 1021.84 211.086 1022.8 211.086C1023.82 211.086 1024.71 211.289 1025.48 211.695C1026.24 212.094 1026.84 212.652 1027.28 213.371C1027.73 214.082 1027.96 214.91 1027.97 215.855H1025.31C1025.29 215.387 1025.17 214.965 1024.96 214.59C1024.76 214.207 1024.47 213.902 1024.09 213.676C1023.73 213.449 1023.29 213.336 1022.77 213.336C1022.2 213.336 1021.73 213.453 1021.35 213.688C1020.98 213.914 1020.68 214.227 1020.47 214.625C1020.26 215.016 1020.11 215.457 1020.02 215.949C1019.93 216.434 1019.89 216.938 1019.89 217.461V217.871C1019.89 218.395 1019.93 218.902 1020.02 219.395C1020.1 219.887 1020.25 220.328 1020.46 220.719C1020.68 221.102 1020.98 221.41 1021.35 221.645C1021.73 221.871 1022.2 221.984 1022.78 221.984ZM1033.82 222.617L1037.27 211.32H1040.29L1035.2 225.934C1035.09 226.246 1034.93 226.586 1034.75 226.953C1034.56 227.32 1034.31 227.668 1034.01 227.996C1033.71 228.332 1033.34 228.602 1032.89 228.805C1032.45 229.016 1031.91 229.121 1031.28 229.121C1031.03 229.121 1030.79 229.098 1030.55 229.051C1030.32 229.012 1030.11 228.969 1029.91 228.922L1029.89 226.766C1029.97 226.773 1030.07 226.781 1030.18 226.789C1030.29 226.797 1030.39 226.801 1030.46 226.801C1030.93 226.801 1031.32 226.742 1031.63 226.625C1031.94 226.516 1032.2 226.336 1032.39 226.086C1032.59 225.836 1032.77 225.5 1032.91 225.078L1033.82 222.617ZM1031.88 211.32L1034.89 220.812L1035.39 223.789L1033.43 224.293L1028.83 211.32H1031.88ZM1046.92 221.984C1047.38 221.984 1047.8 221.895 1048.16 221.715C1048.54 221.527 1048.84 221.27 1049.07 220.941C1049.3 220.613 1049.43 220.234 1049.45 219.805H1052.11C1052.1 220.625 1051.86 221.371 1051.39 222.043C1050.92 222.715 1050.3 223.25 1049.52 223.648C1048.75 224.039 1047.89 224.234 1046.96 224.234C1045.99 224.234 1045.14 224.07 1044.43 223.742C1043.71 223.406 1043.11 222.945 1042.63 222.359C1042.16 221.773 1041.8 221.098 1041.55 220.332C1041.32 219.566 1041.2 218.746 1041.2 217.871V217.461C1041.2 216.586 1041.32 215.766 1041.55 215C1041.8 214.227 1042.16 213.547 1042.63 212.961C1043.11 212.375 1043.71 211.918 1044.43 211.59C1045.14 211.254 1045.98 211.086 1046.95 211.086C1047.96 211.086 1048.85 211.289 1049.62 211.695C1050.38 212.094 1050.98 212.652 1051.42 213.371C1051.87 214.082 1052.1 214.91 1052.11 215.855H1049.45C1049.43 215.387 1049.31 214.965 1049.1 214.59C1048.9 214.207 1048.61 213.902 1048.23 213.676C1047.87 213.449 1047.43 213.336 1046.91 213.336C1046.34 213.336 1045.87 213.453 1045.49 213.688C1045.12 213.914 1044.82 214.227 1044.61 214.625C1044.4 215.016 1044.25 215.457 1044.16 215.949C1044.07 216.434 1044.03 216.938 1044.03 217.461V217.871C1044.03 218.395 1044.07 218.902 1044.16 219.395C1044.24 219.887 1044.39 220.328 1044.6 220.719C1044.82 221.102 1045.12 221.41 1045.49 221.645C1045.87 221.871 1046.34 221.984 1046.92 221.984ZM1057.3 206V224H1054.47V206H1057.3ZM1065.99 224.234C1065.05 224.234 1064.2 224.082 1063.45 223.777C1062.7 223.465 1062.05 223.031 1061.52 222.477C1061 221.922 1060.6 221.27 1060.32 220.52C1060.04 219.77 1059.89 218.961 1059.89 218.094V217.625C1059.89 216.633 1060.04 215.734 1060.33 214.93C1060.62 214.125 1061.02 213.438 1061.54 212.867C1062.05 212.289 1062.66 211.848 1063.36 211.543C1064.07 211.238 1064.83 211.086 1065.65 211.086C1066.55 211.086 1067.35 211.238 1068.03 211.543C1068.71 211.848 1069.27 212.277 1069.71 212.832C1070.17 213.379 1070.5 214.031 1070.72 214.789C1070.95 215.547 1071.06 216.383 1071.06 217.297V218.504H1061.27V216.477H1068.27V216.254C1068.26 215.746 1068.16 215.27 1067.97 214.824C1067.79 214.379 1067.51 214.02 1067.14 213.746C1066.76 213.473 1066.26 213.336 1065.64 213.336C1065.17 213.336 1064.75 213.438 1064.38 213.641C1064.02 213.836 1063.72 214.121 1063.48 214.496C1063.24 214.871 1063.05 215.324 1062.92 215.855C1062.79 216.379 1062.73 216.969 1062.73 217.625V218.094C1062.73 218.648 1062.8 219.164 1062.95 219.641C1063.11 220.109 1063.34 220.52 1063.63 220.871C1063.93 221.223 1064.29 221.5 1064.71 221.703C1065.13 221.898 1065.61 221.996 1066.15 221.996C1066.83 221.996 1067.44 221.859 1067.97 221.586C1068.5 221.312 1068.96 220.926 1069.35 220.426L1070.84 221.867C1070.57 222.266 1070.21 222.648 1069.77 223.016C1069.34 223.375 1068.8 223.668 1068.17 223.895C1067.54 224.121 1066.82 224.234 1065.99 224.234Z" fill="#3B6B92"/>
</g>
<path d="M575.93 189.178L614.874 204.091C616.104 204.562 617.256 205.473 618.029 206.536C618.571 207.281 618.945 208.121 619.063 208.97C619.2 209.953 619.005 210.926 618.371 211.793C617.893 212.452 617.167 213.008 616.145 213.401L608.822 216.229L616.66 224.458C617.566 225.409 618.002 226.638 617.979 227.852C617.954 229.07 617.465 230.281 616.521 231.186C615.539 232.069 614.62 233.074 613.637 233.949C612.704 234.799 611.521 235.209 610.349 235.18C609.136 235.153 607.931 234.658 607.026 233.709L599.192 225.481L596.053 232.707C595.618 233.708 595.032 234.413 594.357 234.867C593.472 235.462 592.493 235.613 591.519 235.433C590.676 235.277 589.855 234.863 589.14 234.288L589.04 234.2C588.058 233.378 587.242 232.219 586.844 231.012L573.701 191.184C573.418 190.323 573.884 189.394 574.741 189.112C575.147 188.979 575.565 189.014 575.926 189.177L575.93 189.178ZM613.714 207.152L577.889 193.434L589.952 229.99C590.16 230.627 590.589 231.239 591.104 231.677L591.174 231.731C591.487 231.982 591.811 232.157 592.101 232.212C592.261 232.241 592.413 232.224 592.534 232.143C592.712 232.023 592.891 231.783 593.061 231.393L597.176 221.916C597.263 221.723 597.385 221.543 597.547 221.389C598.198 220.767 599.231 220.793 599.851 221.448L609.379 231.446C609.659 231.739 610.034 231.892 610.414 231.9C610.775 231.909 611.137 231.79 611.42 231.542C612.337 230.615 613.344 229.747 614.255 228.817C614.546 228.536 614.697 228.158 614.706 227.779C614.714 227.393 614.579 227.008 614.299 226.715L604.809 216.754C604.644 216.593 604.513 216.396 604.426 216.168C604.104 215.324 604.524 214.377 605.364 214.055L614.973 210.344C615.362 210.194 615.609 210.023 615.738 209.849C615.826 209.735 615.848 209.584 615.826 209.419C615.784 209.123 615.626 208.789 615.389 208.466C614.973 207.893 614.357 207.404 613.709 207.157L613.714 207.152Z" fill="#037BDA"/>
<defs>
<filter id="filter0_d_614_122" x="163.2" y="31.2" width="185.6" height="237.6" filterUnits="userSpaceOnUse" color-interpolation-filters="sRGB">
<feFlood flood-opacity="0" result="BackgroundImageFix"/>
<feColorMatrix in="SourceAlpha" type="matrix" values="0 0 0 0 0 0 0 0 0 0 0 0 0 0 0 0 0 0 127 0" result="hardAlpha"/>
<feOffset/>
<feGaussianBlur stdDeviation="12.4"/>
<feComposite in2="hardAlpha" operator="out"/>
<feColorMatrix type="matrix" values="0 0 0 0 0.2 0 0 0 0 0.533333 0 0 0 0 0.913725 0 0 0 0.4 0"/>
<feBlend mode="normal" in2="BackgroundImageFix" result="effect1_dropShadow_614_122"/>
<feBlend mode="normal" in="SourceGraphic" in2="effect1_dropShadow_614_122" result="shape"/>
</filter>
<filter id="filter1_d_614_122" x="419.2" y="31.2" width="185.6" height="237.6" filterUnits="userSpaceOnUse" color-interpolation-filters="sRGB">
<feFlood flood-opacity="0" result="BackgroundImageFix"/>
<feColorMatrix in="SourceAlpha" type="matrix" values="0 0 0 0 0 0 0 0 0 0 0 0 0 0 0 0 0 0 127 0" result="hardAlpha"/>
<feOffset/>
<feGaussianBlur stdDeviation="12.4"/>
<feComposite in2="hardAlpha" operator="out"/>
<feColorMatrix type="matrix" values="0 0 0 0 0.2 0 0 0 0 0.533333 0 0 0 0 0.913725 0 0 0 0.4 0"/>
<feBlend mode="normal" in2="BackgroundImageFix" result="effect1_dropShadow_614_122"/>
<feBlend mode="normal" in="SourceGraphic" in2="effect1_dropShadow_614_122" result="shape"/>
</filter>
<filter id="filter2_d_614_122" x="675.2" y="31.2" width="185.6" height="237.6" filterUnits="userSpaceOnUse" color-interpolation-filters="sRGB">
<feFlood flood-opacity="0" result="BackgroundImageFix"/>
<feColorMatrix in="SourceAlpha" type="matrix" values="0 0 0 0 0 0 0 0 0 0 0 0 0 0 0 0 0 0 127 0" result="hardAlpha"/>
<feOffset/>
<feGaussianBlur stdDeviation="12.4"/>
<feComposite in2="hardAlpha" operator="out"/>
<feColorMatrix type="matrix" values="0 0 0 0 0.2 0 0 0 0 0.533333 0 0 0 0 0.913725 0 0 0 0.4 0"/>
<feBlend mode="normal" in2="BackgroundImageFix" result="effect1_dropShadow_614_122"/>
<feBlend mode="normal" in="SourceGraphic" in2="effect1_dropShadow_614_122" result="shape"/>
</filter>
<filter id="filter3_d_614_122" x="931.2" y="31.2" width="185.6" height="237.6" filterUnits="userSpaceOnUse" color-interpolation-filters="sRGB">
<feFlood flood-opacity="0" result="BackgroundImageFix"/>
<feColorMatrix in="SourceAlpha" type="matrix" values="0 0 0 0 0 0 0 0 0 0 0 0 0 0 0 0 0 0 127 0" result="hardAlpha"/>
<feOffset/>
<feGaussianBlur stdDeviation="12.4"/>
<feComposite in2="hardAlpha" operator="out"/>
<feColorMatrix type="matrix" values="0 0 0 0 0.2 0 0 0 0 0.533333 0 0 0 0 0.913725 0 0 0 0.4 0"/>
<feBlend mode="normal" in2="BackgroundImageFix" result="effect1_dropShadow_614_122"/>
<feBlend mode="normal" in="SourceGraphic" in2="effect1_dropShadow_614_122" result="shape"/>
</filter>
<radialGradient id="paint0_radial_614_122" cx="0" cy="0" r="1" gradientTransform="matrix(815.025 248.199 -1085.62 117.344 640 150)" gradientUnits="userSpaceOnUse">
<stop stop-color="#FAFDFF"/>
<stop offset="1" stop-color="#ECF6FE"/>
</radialGradient>
<radialGradient id="paint1_radial_614_122" cx="0" cy="0" r="1" gradientUnits="userSpaceOnUse" gradientTransform="translate(144 147.5) rotate(90) scale(147.5 144)">
<stop stop-color="#2F35FC"/>
<stop offset="1" stop-color="#2F35FC" stop-opacity="0"/>
</radialGradient>
</defs>
</svg>
