<svg width="200" height="200" viewBox="0 0 200 200" fill="none" xmlns="http://www.w3.org/2000/svg">
<mask id="mask0_614_176" style="mask-type:alpha" maskUnits="userSpaceOnUse" x="0" y="0" width="200" height="200">
<rect x="1" y="1" width="198" height="198" stroke="#5F94EF" stroke-width="2"/>
</mask>
<g mask="url(#mask0_614_176)">
<g filter="url(#filter0_f_614_176)">
<circle cx="192" cy="8" r="16" fill="#066EC2"/>
</g>
<g filter="url(#filter1_f_614_176)">
<circle cx="8" cy="8" r="16" fill="#066EC2"/>
</g>
<g filter="url(#filter2_f_614_176)">
<circle cx="8" cy="192" r="16" fill="#066EC2"/>
</g>
<g filter="url(#filter3_f_614_176)">
<circle cx="192" cy="192" r="16" fill="#066EC2"/>
</g>
</g>
<rect x="11" y="11" width="178" height="178" stroke="#5F94EF" stroke-width="2"/>
<rect x="10" y="9.52417" width="180" height="180" fill="#F5FAFF"/>
<path d="M44.875 156.462V173.524H41.9336V156.462H44.875ZM51.0508 163.552V173.524H48.2266V160.844H50.8867L51.0508 163.552ZM50.5469 166.716L49.6328 166.704C49.6406 165.805 49.7656 164.981 50.0078 164.231C50.2578 163.481 50.6016 162.837 51.0391 162.298C51.4844 161.759 52.0156 161.344 52.6328 161.055C53.25 160.759 53.9375 160.61 54.6953 160.61C55.3047 160.61 55.8555 160.696 56.3477 160.868C56.8477 161.032 57.2734 161.302 57.625 161.677C57.9844 162.052 58.2578 162.54 58.4453 163.141C58.6328 163.735 58.7266 164.466 58.7266 165.333V173.524H55.8906V165.321C55.8906 164.712 55.8008 164.231 55.6211 163.88C55.4492 163.52 55.1953 163.266 54.8594 163.118C54.5312 162.962 54.1211 162.884 53.6289 162.884C53.1445 162.884 52.7109 162.985 52.3281 163.188C51.9453 163.391 51.6211 163.669 51.3555 164.02C51.0977 164.372 50.8984 164.778 50.7578 165.239C50.6172 165.7 50.5469 166.192 50.5469 166.716ZM68.7227 170.091C68.7227 169.809 68.6523 169.555 68.5117 169.329C68.3711 169.094 68.1016 168.884 67.7031 168.696C67.3125 168.509 66.7344 168.337 65.9688 168.18C65.2969 168.032 64.6797 167.856 64.1172 167.653C63.5625 167.442 63.0859 167.188 62.6875 166.891C62.2891 166.594 61.9805 166.243 61.7617 165.837C61.543 165.43 61.4336 164.962 61.4336 164.43C61.4336 163.915 61.5469 163.427 61.7734 162.966C62 162.505 62.3242 162.098 62.7461 161.747C63.168 161.395 63.6797 161.118 64.2812 160.915C64.8906 160.712 65.5703 160.61 66.3203 160.61C67.3828 160.61 68.293 160.79 69.0508 161.149C69.8164 161.501 70.4023 161.981 70.8086 162.591C71.2148 163.192 71.418 163.872 71.418 164.63H68.5938C68.5938 164.294 68.5078 163.981 68.3359 163.692C68.1719 163.395 67.9219 163.157 67.5859 162.977C67.25 162.79 66.8281 162.696 66.3203 162.696C65.8359 162.696 65.4336 162.774 65.1133 162.93C64.8008 163.079 64.5664 163.274 64.4102 163.516C64.2617 163.759 64.1875 164.024 64.1875 164.313C64.1875 164.524 64.2266 164.716 64.3047 164.887C64.3906 165.052 64.5312 165.204 64.7266 165.344C64.9219 165.477 65.1875 165.602 65.5234 165.719C65.8672 165.837 66.2969 165.95 66.8125 166.059C67.7812 166.262 68.6133 166.524 69.3086 166.844C70.0117 167.157 70.5508 167.563 70.9258 168.063C71.3008 168.555 71.4883 169.18 71.4883 169.938C71.4883 170.501 71.3672 171.016 71.125 171.485C70.8906 171.946 70.5469 172.348 70.0938 172.692C69.6406 173.028 69.0977 173.29 68.4648 173.477C67.8398 173.665 67.1367 173.759 66.3555 173.759C65.207 173.759 64.2344 173.555 63.4375 173.149C62.6406 172.735 62.0352 172.208 61.6211 171.567C61.2148 170.919 61.0117 170.247 61.0117 169.552H63.7422C63.7734 170.075 63.918 170.493 64.1758 170.805C64.4414 171.11 64.7695 171.333 65.1602 171.473C65.5586 171.606 65.9688 171.673 66.3906 171.673C66.8984 171.673 67.3242 171.606 67.668 171.473C68.0117 171.333 68.2734 171.145 68.4531 170.911C68.6328 170.669 68.7227 170.395 68.7227 170.091ZM79.7734 160.844V162.907H72.625V160.844H79.7734ZM74.6875 157.739H77.5117V170.02C77.5117 170.411 77.5664 170.712 77.6758 170.923C77.793 171.126 77.9531 171.262 78.1562 171.333C78.3594 171.403 78.5977 171.438 78.8711 171.438C79.0664 171.438 79.2539 171.427 79.4336 171.403C79.6133 171.38 79.7578 171.356 79.8672 171.333L79.8789 173.489C79.6445 173.559 79.3711 173.622 79.0586 173.677C78.7539 173.731 78.4023 173.759 78.0039 173.759C77.3555 173.759 76.7812 173.645 76.2812 173.419C75.7812 173.184 75.3906 172.805 75.1094 172.282C74.8281 171.759 74.6875 171.063 74.6875 170.196V157.739ZM89.1016 170.981V164.934C89.1016 164.481 89.0195 164.091 88.8555 163.762C88.6914 163.434 88.4414 163.18 88.1055 163.001C87.7773 162.821 87.3633 162.731 86.8633 162.731C86.4023 162.731 86.0039 162.809 85.668 162.966C85.332 163.122 85.0703 163.333 84.8828 163.598C84.6953 163.864 84.6016 164.165 84.6016 164.501H81.7891C81.7891 164.001 81.9102 163.516 82.1523 163.048C82.3945 162.579 82.7461 162.161 83.207 161.794C83.668 161.427 84.2188 161.137 84.8594 160.927C85.5 160.716 86.2188 160.61 87.0156 160.61C87.9688 160.61 88.8125 160.77 89.5469 161.091C90.2891 161.411 90.8711 161.895 91.293 162.544C91.7227 163.184 91.9375 163.989 91.9375 164.958V170.594C91.9375 171.173 91.9766 171.692 92.0547 172.153C92.1406 172.606 92.2617 173.001 92.418 173.337V173.524H89.5234C89.3906 173.219 89.2852 172.833 89.207 172.364C89.1367 171.887 89.1016 171.427 89.1016 170.981ZM89.5117 165.813L89.5352 167.559H87.5078C86.9844 167.559 86.5234 167.61 86.125 167.712C85.7266 167.805 85.3945 167.946 85.1289 168.134C84.8633 168.321 84.6641 168.548 84.5312 168.813C84.3984 169.079 84.332 169.38 84.332 169.716C84.332 170.052 84.4102 170.36 84.5664 170.641C84.7227 170.915 84.9492 171.13 85.2461 171.286C85.5508 171.442 85.918 171.52 86.3477 171.52C86.9258 171.52 87.4297 171.403 87.8594 171.169C88.2969 170.927 88.6406 170.634 88.8906 170.29C89.1406 169.938 89.2734 169.606 89.2891 169.294L90.2031 170.548C90.1094 170.868 89.9492 171.212 89.7227 171.579C89.4961 171.946 89.1992 172.298 88.832 172.634C88.4727 172.962 88.0391 173.231 87.5312 173.442C87.0312 173.653 86.4531 173.759 85.7969 173.759C84.9688 173.759 84.2305 173.594 83.582 173.266C82.9336 172.93 82.4258 172.481 82.0586 171.919C81.6914 171.348 81.5078 170.704 81.5078 169.985C81.5078 169.313 81.6328 168.719 81.8828 168.204C82.1406 167.68 82.5156 167.243 83.0078 166.891C83.5078 166.54 84.1172 166.274 84.8359 166.094C85.5547 165.907 86.375 165.813 87.2969 165.813H89.5117ZM97.9141 155.524V173.524H95.0781V155.524H97.9141ZM104.031 155.524V173.524H101.195V155.524H104.031ZM114.273 170.981V164.934C114.273 164.481 114.191 164.091 114.027 163.762C113.863 163.434 113.613 163.18 113.277 163.001C112.949 162.821 112.535 162.731 112.035 162.731C111.574 162.731 111.176 162.809 110.84 162.966C110.504 163.122 110.242 163.333 110.055 163.598C109.867 163.864 109.773 164.165 109.773 164.501H106.961C106.961 164.001 107.082 163.516 107.324 163.048C107.566 162.579 107.918 162.161 108.379 161.794C108.84 161.427 109.391 161.137 110.031 160.927C110.672 160.716 111.391 160.61 112.188 160.61C113.141 160.61 113.984 160.77 114.719 161.091C115.461 161.411 116.043 161.895 116.465 162.544C116.895 163.184 117.109 163.989 117.109 164.958V170.594C117.109 171.173 117.148 171.692 117.227 172.153C117.312 172.606 117.434 173.001 117.59 173.337V173.524H114.695C114.562 173.219 114.457 172.833 114.379 172.364C114.309 171.887 114.273 171.427 114.273 170.981ZM114.684 165.813L114.707 167.559H112.68C112.156 167.559 111.695 167.61 111.297 167.712C110.898 167.805 110.566 167.946 110.301 168.134C110.035 168.321 109.836 168.548 109.703 168.813C109.57 169.079 109.504 169.38 109.504 169.716C109.504 170.052 109.582 170.36 109.738 170.641C109.895 170.915 110.121 171.13 110.418 171.286C110.723 171.442 111.09 171.52 111.52 171.52C112.098 171.52 112.602 171.403 113.031 171.169C113.469 170.927 113.812 170.634 114.062 170.29C114.312 169.938 114.445 169.606 114.461 169.294L115.375 170.548C115.281 170.868 115.121 171.212 114.895 171.579C114.668 171.946 114.371 172.298 114.004 172.634C113.645 172.962 113.211 173.231 112.703 173.442C112.203 173.653 111.625 173.759 110.969 173.759C110.141 173.759 109.402 173.594 108.754 173.266C108.105 172.93 107.598 172.481 107.23 171.919C106.863 171.348 106.68 170.704 106.68 169.985C106.68 169.313 106.805 168.719 107.055 168.204C107.312 167.68 107.688 167.243 108.18 166.891C108.68 166.54 109.289 166.274 110.008 166.094C110.727 165.907 111.547 165.813 112.469 165.813H114.684ZM125.875 160.844V162.907H118.727V160.844H125.875ZM120.789 157.739H123.613V170.02C123.613 170.411 123.668 170.712 123.777 170.923C123.895 171.126 124.055 171.262 124.258 171.333C124.461 171.403 124.699 171.438 124.973 171.438C125.168 171.438 125.355 171.427 125.535 171.403C125.715 171.38 125.859 171.356 125.969 171.333L125.98 173.489C125.746 173.559 125.473 173.622 125.16 173.677C124.855 173.731 124.504 173.759 124.105 173.759C123.457 173.759 122.883 173.645 122.383 173.419C121.883 173.184 121.492 172.805 121.211 172.282C120.93 171.759 120.789 171.063 120.789 170.196V157.739ZM131.078 160.844V173.524H128.242V160.844H131.078ZM128.055 157.516C128.055 157.087 128.195 156.731 128.477 156.45C128.766 156.161 129.164 156.016 129.672 156.016C130.172 156.016 130.566 156.161 130.855 156.45C131.145 156.731 131.289 157.087 131.289 157.516C131.289 157.938 131.145 158.29 130.855 158.571C130.566 158.852 130.172 158.993 129.672 158.993C129.164 158.993 128.766 158.852 128.477 158.571C128.195 158.29 128.055 157.938 128.055 157.516ZM133.633 167.325V167.055C133.633 166.141 133.766 165.294 134.031 164.512C134.297 163.723 134.68 163.04 135.18 162.462C135.688 161.876 136.305 161.423 137.031 161.102C137.766 160.774 138.594 160.61 139.516 160.61C140.445 160.61 141.273 160.774 142 161.102C142.734 161.423 143.355 161.876 143.863 162.462C144.371 163.04 144.758 163.723 145.023 164.512C145.289 165.294 145.422 166.141 145.422 167.055V167.325C145.422 168.239 145.289 169.087 145.023 169.868C144.758 170.649 144.371 171.333 143.863 171.919C143.355 172.497 142.738 172.95 142.012 173.278C141.285 173.598 140.461 173.759 139.539 173.759C138.609 173.759 137.777 173.598 137.043 173.278C136.316 172.95 135.699 172.497 135.191 171.919C134.684 171.333 134.297 170.649 134.031 169.868C133.766 169.087 133.633 168.239 133.633 167.325ZM136.457 167.055V167.325C136.457 167.895 136.516 168.434 136.633 168.942C136.75 169.45 136.934 169.895 137.184 170.278C137.434 170.661 137.754 170.962 138.145 171.18C138.535 171.399 139 171.509 139.539 171.509C140.062 171.509 140.516 171.399 140.898 171.18C141.289 170.962 141.609 170.661 141.859 170.278C142.109 169.895 142.293 169.45 142.41 168.942C142.535 168.434 142.598 167.895 142.598 167.325V167.055C142.598 166.493 142.535 165.962 142.41 165.462C142.293 164.954 142.105 164.505 141.848 164.114C141.598 163.723 141.277 163.419 140.887 163.2C140.504 162.973 140.047 162.86 139.516 162.86C138.984 162.86 138.523 162.973 138.133 163.2C137.75 163.419 137.434 163.723 137.184 164.114C136.934 164.505 136.75 164.954 136.633 165.462C136.516 165.962 136.457 166.493 136.457 167.055ZM150.59 163.552V173.524H147.766V160.844H150.426L150.59 163.552ZM150.086 166.716L149.172 166.704C149.18 165.805 149.305 164.981 149.547 164.231C149.797 163.481 150.141 162.837 150.578 162.298C151.023 161.759 151.555 161.344 152.172 161.055C152.789 160.759 153.477 160.61 154.234 160.61C154.844 160.61 155.395 160.696 155.887 160.868C156.387 161.032 156.812 161.302 157.164 161.677C157.523 162.052 157.797 162.54 157.984 163.141C158.172 163.735 158.266 164.466 158.266 165.333V173.524H155.43V165.321C155.43 164.712 155.34 164.231 155.16 163.88C154.988 163.52 154.734 163.266 154.398 163.118C154.07 162.962 153.66 162.884 153.168 162.884C152.684 162.884 152.25 162.985 151.867 163.188C151.484 163.391 151.16 163.669 150.895 164.02C150.637 164.372 150.438 164.778 150.297 165.239C150.156 165.7 150.086 166.192 150.086 166.716Z" fill="#1976D2"/>
<rect x="60.5" y="30.0242" width="79" height="79" rx="39.5" fill="#F0F8FF"/>
<rect x="60.5" y="30.0242" width="79" height="79" rx="39.5" stroke="#42A5F5"/>
<path d="M100.012 96C102.787 96 105.499 95.1833 107.806 93.6534C110.113 92.1234 111.911 89.9488 112.973 87.4045C114.034 84.8602 114.312 82.0606 113.771 79.3596C113.229 76.6586 111.893 74.1776 109.932 72.2303C107.97 70.283 105.47 68.9569 102.749 68.4197C100.028 67.8824 97.2075 68.1581 94.6442 69.212C92.081 70.2659 89.8901 72.0505 88.3487 74.3403C86.8073 76.6301 85.9846 79.3221 85.9846 82.076C85.9888 85.7676 87.468 89.3068 90.0979 91.9172C92.7277 94.5275 96.2933 95.9959 100.012 96ZM97.6349 80.188V69.7947C99.2055 69.4945 100.819 69.4945 102.39 69.7947V80.188C102.39 80.3758 102.465 80.5559 102.599 80.6887C102.733 80.8215 102.914 80.896 103.103 80.896H104.054C104.192 80.8946 104.328 80.9332 104.444 81.0069C104.56 81.0807 104.652 81.1865 104.709 81.3114C104.766 81.4363 104.784 81.5748 104.763 81.7101C104.742 81.8454 104.681 81.9716 104.588 82.0732L100.546 86.6044C100.478 86.6771 100.396 86.7351 100.304 86.7748C100.212 86.8144 100.113 86.8349 100.013 86.8349C99.9128 86.8349 99.8138 86.8144 99.722 86.7748C99.6302 86.7351 99.5476 86.6771 99.4794 86.6044L95.4375 82.0732C95.345 81.9717 95.2844 81.8456 95.2629 81.7104C95.2414 81.5751 95.2601 81.4367 95.3167 81.3118C95.3732 81.187 95.4651 81.0812 95.5813 81.0073C95.6974 80.9335 95.8326 80.8948 95.9705 80.896H96.9216C97.1108 80.896 97.2922 80.8215 97.4259 80.6887C97.5597 80.5559 97.6349 80.3758 97.6349 80.188ZM96.2083 70.152V79.4801H95.9705C95.56 79.4838 95.159 79.6042 94.8152 79.827C94.4714 80.0498 94.1992 80.3657 94.0306 80.7374C93.8621 81.109 93.8043 81.5208 93.8642 81.924C93.9241 82.3272 94.0991 82.7049 94.3685 83.0125L98.4104 87.5413C98.6123 87.7644 98.8593 87.9428 99.1352 88.065C99.4111 88.1871 99.7099 88.2503 100.012 88.2503C100.314 88.2503 100.613 88.1871 100.889 88.065C101.165 87.9428 101.412 87.7644 101.614 87.5413L105.655 83.0101C105.924 82.7026 106.098 82.3252 106.158 81.9224C106.217 81.5197 106.16 81.1085 105.991 80.7373C105.823 80.3661 105.551 80.0505 105.208 79.8277C104.865 79.605 104.464 79.4843 104.054 79.4801H103.817V70.152C106.685 71.0535 109.133 72.9438 110.72 75.4812C112.306 78.0185 112.925 81.0355 112.466 83.9867C112.006 86.9379 110.498 89.6286 108.214 91.5722C105.93 93.5159 103.021 94.5843 100.012 94.5843C97.0039 94.5843 94.0947 93.5159 91.8107 91.5722C89.5266 89.6286 88.0185 86.9379 87.559 83.9867C87.0995 81.0355 87.7189 78.0185 89.3052 75.4812C90.8916 72.9438 93.3401 71.0535 96.2083 70.152Z" fill="#1976D2"/>
<path d="M127.108 69.3288C127.821 62.0874 121.481 55.1217 114.152 55.082C110.028 41.1713 92.0038 40.0744 86.3651 53.3942C77.6569 55.4511 72.6359 61.5281 73.9835 68.6841C70.4599 70.3833 69.3824 74.1168 69.9031 76.9969C70.1542 78.62 70.9866 80.0988 72.2476 81.1618C73.5085 82.2248 75.1134 82.8008 76.7677 82.7841H83.8449C84.034 82.7841 84.2155 82.7095 84.3492 82.5767C84.483 82.4439 84.5581 82.2638 84.5581 82.0761C84.5581 81.8883 84.483 81.7082 84.3492 81.5754C84.2155 81.4427 84.034 81.3681 83.8449 81.3681H76.7829C75.4599 81.3914 74.1737 80.9348 73.1657 80.084C72.1576 79.2332 71.4968 78.0466 71.3073 76.7467C70.8594 74.2706 71.8437 71.0308 75.0606 69.7612C75.8466 69.5084 76.676 69.4165 77.4988 69.491C78.3216 69.5655 79.1207 69.8048 79.8476 70.1945C79.9303 70.2382 80.0209 70.2654 80.1141 70.2744C80.2074 70.2834 80.3015 70.2741 80.3911 70.2471C80.4808 70.22 80.5642 70.1756 80.6365 70.1166C80.7089 70.0575 80.7689 69.9848 80.8129 69.9028C80.857 69.8207 80.8844 69.7308 80.8935 69.6383C80.9026 69.5457 80.8932 69.4523 80.8659 69.3633C80.8386 69.2743 80.794 69.1915 80.7344 69.1197C80.6749 69.0479 80.6017 68.9884 80.5191 68.9446C78.9347 68.1123 77.108 67.8528 75.3521 68.2107C74.2779 61.5914 79.1248 56.4905 87.038 54.6851C89.7233 54.1786 92.5023 54.6023 94.9107 55.8854C95.076 55.9766 95.2711 55.999 95.453 55.9474C95.635 55.8959 95.7888 55.7748 95.8807 55.6107C95.9727 55.4466 95.9952 55.2529 95.9433 55.0723C95.8914 54.8918 95.7693 54.7391 95.604 54.6478C93.2948 53.4176 90.6729 52.8863 88.0627 53.1195C93.5788 41.9242 108.836 43.1995 112.658 55.1146C110.704 55.2543 108.807 55.8246 107.103 56.7839C105.399 57.7432 103.932 59.0673 102.809 60.6601C102.702 60.8129 102.661 61.001 102.693 61.1839C102.725 61.3667 102.829 61.5297 102.981 61.6378C103.133 61.7458 103.321 61.7903 103.506 61.7615C103.691 61.7328 103.857 61.6332 103.968 61.4842C105.052 59.9431 106.495 58.6847 108.174 57.8158C109.853 56.947 111.719 56.4934 113.612 56.4938C120.108 56.2578 125.987 62.162 125.712 68.5939C124.8 68.2223 123.823 68.0321 122.838 68.0341C122.648 68.0341 122.467 68.1087 122.333 68.2415C122.199 68.3743 122.124 68.5544 122.124 68.7421C122.124 68.9299 122.199 69.11 122.333 69.2428C122.467 69.3755 122.648 69.4501 122.838 69.4501C126.832 69.5445 128.789 72.4709 128.811 75.4827C128.744 78.5635 126.408 81.5243 123.186 81.3681H116.18C115.991 81.3681 115.81 81.4427 115.676 81.5754C115.542 81.7082 115.467 81.8883 115.467 82.0761C115.467 82.2638 115.542 82.4439 115.676 82.5767C115.81 82.7095 115.991 82.7841 116.18 82.7841H123.164C127.148 82.9681 130.184 79.3682 130.236 75.4818C130.153 72.7305 129.048 70.565 127.108 69.3288Z" fill="#1976D2"/>
<defs>
<filter id="filter0_f_614_176" x="153.4" y="-30.6" width="77.2" height="77.2" filterUnits="userSpaceOnUse" color-interpolation-filters="sRGB">
<feFlood flood-opacity="0" result="BackgroundImageFix"/>
<feBlend mode="normal" in="SourceGraphic" in2="BackgroundImageFix" result="shape"/>
<feGaussianBlur stdDeviation="11.3" result="effect1_foregroundBlur_614_176"/>
</filter>
<filter id="filter1_f_614_176" x="-30.6" y="-30.6" width="77.2" height="77.2" filterUnits="userSpaceOnUse" color-interpolation-filters="sRGB">
<feFlood flood-opacity="0" result="BackgroundImageFix"/>
<feBlend mode="normal" in="SourceGraphic" in2="BackgroundImageFix" result="shape"/>
<feGaussianBlur stdDeviation="11.3" result="effect1_foregroundBlur_614_176"/>
</filter>
<filter id="filter2_f_614_176" x="-30.6" y="153.4" width="77.2" height="77.2" filterUnits="userSpaceOnUse" color-interpolation-filters="sRGB">
<feFlood flood-opacity="0" result="BackgroundImageFix"/>
<feBlend mode="normal" in="SourceGraphic" in2="BackgroundImageFix" result="shape"/>
<feGaussianBlur stdDeviation="11.3" result="effect1_foregroundBlur_614_176"/>
</filter>
<filter id="filter3_f_614_176" x="153.4" y="153.4" width="77.2" height="77.2" filterUnits="userSpaceOnUse" color-interpolation-filters="sRGB">
<feFlood flood-opacity="0" result="BackgroundImageFix"/>
<feBlend mode="normal" in="SourceGraphic" in2="BackgroundImageFix" result="shape"/>
<feGaussianBlur stdDeviation="11.3" result="effect1_foregroundBlur_614_176"/>
</filter>
</defs>
</svg>
