<svg width="200" height="200" viewBox="0 0 200 200" fill="none" xmlns="http://www.w3.org/2000/svg">
<mask id="mask0_614_215" style="mask-type:alpha" maskUnits="userSpaceOnUse" x="0" y="0" width="200" height="200">
<rect x="1" y="1" width="198" height="198" stroke="#5F94EF" stroke-width="2"/>
</mask>
<g mask="url(#mask0_614_215)">
<g filter="url(#filter0_f_614_215)">
<circle cx="192" cy="8" r="16" fill="#066EC2"/>
</g>
<g filter="url(#filter1_f_614_215)">
<circle cx="8" cy="8" r="16" fill="#066EC2"/>
</g>
<g filter="url(#filter2_f_614_215)">
<circle cx="8" cy="192" r="16" fill="#066EC2"/>
</g>
<g filter="url(#filter3_f_614_215)">
<circle cx="192" cy="192" r="16" fill="#066EC2"/>
</g>
</g>
<rect x="11" y="11" width="178" height="178" stroke="#5F94EF" stroke-width="2"/>
<rect x="10" y="9.52417" width="180" height="180" fill="#F5FAFF"/>
<path d="M32.9297 156.462H35.5547L40.4883 169.622L45.4102 156.462H48.0352L41.5195 173.524H39.4336L32.9297 156.462ZM31.7344 156.462H34.2305L34.6641 167.852V173.524H31.7344V156.462ZM46.7344 156.462H49.2422V173.524H46.3008V167.852L46.7344 156.462ZM59.6016 170.981V164.934C59.6016 164.481 59.5195 164.091 59.3555 163.762C59.1914 163.434 58.9414 163.18 58.6055 163.001C58.2773 162.821 57.8633 162.731 57.3633 162.731C56.9023 162.731 56.5039 162.809 56.168 162.966C55.832 163.122 55.5703 163.333 55.3828 163.598C55.1953 163.864 55.1016 164.165 55.1016 164.501H52.2891C52.2891 164.001 52.4102 163.516 52.6523 163.048C52.8945 162.579 53.2461 162.161 53.707 161.794C54.168 161.427 54.7188 161.137 55.3594 160.927C56 160.716 56.7188 160.61 57.5156 160.61C58.4688 160.61 59.3125 160.77 60.0469 161.091C60.7891 161.411 61.3711 161.895 61.793 162.544C62.2227 163.184 62.4375 163.989 62.4375 164.958V170.594C62.4375 171.173 62.4766 171.692 62.5547 172.153C62.6406 172.606 62.7617 173.001 62.918 173.337V173.524H60.0234C59.8906 173.219 59.7852 172.833 59.707 172.364C59.6367 171.887 59.6016 171.427 59.6016 170.981ZM60.0117 165.813L60.0352 167.559H58.0078C57.4844 167.559 57.0234 167.61 56.625 167.712C56.2266 167.805 55.8945 167.946 55.6289 168.134C55.3633 168.321 55.1641 168.548 55.0312 168.813C54.8984 169.079 54.832 169.38 54.832 169.716C54.832 170.052 54.9102 170.36 55.0664 170.641C55.2227 170.915 55.4492 171.13 55.7461 171.286C56.0508 171.442 56.418 171.52 56.8477 171.52C57.4258 171.52 57.9297 171.403 58.3594 171.169C58.7969 170.927 59.1406 170.634 59.3906 170.29C59.6406 169.938 59.7734 169.606 59.7891 169.294L60.7031 170.548C60.6094 170.868 60.4492 171.212 60.2227 171.579C59.9961 171.946 59.6992 172.298 59.332 172.634C58.9727 172.962 58.5391 173.231 58.0312 173.442C57.5312 173.653 56.9531 173.759 56.2969 173.759C55.4688 173.759 54.7305 173.594 54.082 173.266C53.4336 172.93 52.9258 172.481 52.5586 171.919C52.1914 171.348 52.0078 170.704 52.0078 169.985C52.0078 169.313 52.1328 168.719 52.3828 168.204C52.6406 167.68 53.0156 167.243 53.5078 166.891C54.0078 166.54 54.6172 166.274 55.3359 166.094C56.0547 165.907 56.875 165.813 57.7969 165.813H60.0117ZM68.4141 160.844V173.524H65.5781V160.844H68.4141ZM65.3906 157.516C65.3906 157.087 65.5312 156.731 65.8125 156.45C66.1016 156.161 66.5 156.016 67.0078 156.016C67.5078 156.016 67.9023 156.161 68.1914 156.45C68.4805 156.731 68.625 157.087 68.625 157.516C68.625 157.938 68.4805 158.29 68.1914 158.571C67.9023 158.852 67.5078 158.993 67.0078 158.993C66.5 158.993 66.1016 158.852 65.8125 158.571C65.5312 158.29 65.3906 157.938 65.3906 157.516ZM74.3086 163.552V173.524H71.4844V160.844H74.1445L74.3086 163.552ZM73.8047 166.716L72.8906 166.704C72.8984 165.805 73.0234 164.981 73.2656 164.231C73.5156 163.481 73.8594 162.837 74.2969 162.298C74.7422 161.759 75.2734 161.344 75.8906 161.055C76.5078 160.759 77.1953 160.61 77.9531 160.61C78.5625 160.61 79.1133 160.696 79.6055 160.868C80.1055 161.032 80.5312 161.302 80.8828 161.677C81.2422 162.052 81.5156 162.54 81.7031 163.141C81.8906 163.735 81.9844 164.466 81.9844 165.333V173.524H79.1484V165.321C79.1484 164.712 79.0586 164.231 78.8789 163.88C78.707 163.52 78.4531 163.266 78.1172 163.118C77.7891 162.962 77.3789 162.884 76.8867 162.884C76.4023 162.884 75.9688 162.985 75.5859 163.188C75.2031 163.391 74.8789 163.669 74.6133 164.02C74.3555 164.372 74.1562 164.778 74.0156 165.239C73.875 165.7 73.8047 166.192 73.8047 166.716ZM90.6797 160.844V162.907H83.5312V160.844H90.6797ZM85.5938 157.739H88.418V170.02C88.418 170.411 88.4727 170.712 88.582 170.923C88.6992 171.126 88.8594 171.262 89.0625 171.333C89.2656 171.403 89.5039 171.438 89.7773 171.438C89.9727 171.438 90.1602 171.427 90.3398 171.403C90.5195 171.38 90.6641 171.356 90.7734 171.333L90.7852 173.489C90.5508 173.559 90.2773 173.622 89.9648 173.677C89.6602 173.731 89.3086 173.759 88.9102 173.759C88.2617 173.759 87.6875 173.645 87.1875 173.419C86.6875 173.184 86.2969 172.805 86.0156 172.282C85.7344 171.759 85.5938 171.063 85.5938 170.196V157.739ZM98.4492 173.759C97.5117 173.759 96.6641 173.606 95.9062 173.302C95.1562 172.989 94.5156 172.555 93.9844 172.001C93.4609 171.446 93.0586 170.794 92.7773 170.044C92.4961 169.294 92.3555 168.485 92.3555 167.618V167.149C92.3555 166.157 92.5 165.259 92.7891 164.454C93.0781 163.649 93.4805 162.962 93.9961 162.391C94.5117 161.813 95.1211 161.372 95.8242 161.067C96.5273 160.762 97.2891 160.61 98.1094 160.61C99.0156 160.61 99.8086 160.762 100.488 161.067C101.168 161.372 101.73 161.802 102.176 162.356C102.629 162.903 102.965 163.555 103.184 164.313C103.41 165.071 103.523 165.907 103.523 166.821V168.028H93.7266V166.001H100.734V165.778C100.719 165.27 100.617 164.794 100.43 164.348C100.25 163.903 99.9727 163.544 99.5977 163.27C99.2227 162.997 98.7227 162.86 98.0977 162.86C97.6289 162.86 97.2109 162.962 96.8438 163.165C96.4844 163.36 96.1836 163.645 95.9414 164.02C95.6992 164.395 95.5117 164.848 95.3789 165.38C95.2539 165.903 95.1914 166.493 95.1914 167.149V167.618C95.1914 168.173 95.2656 168.688 95.4141 169.165C95.5703 169.634 95.7969 170.044 96.0938 170.395C96.3906 170.747 96.75 171.024 97.1719 171.227C97.5938 171.423 98.0742 171.52 98.6133 171.52C99.293 171.52 99.8984 171.384 100.43 171.11C100.961 170.837 101.422 170.45 101.812 169.95L103.301 171.391C103.027 171.79 102.672 172.173 102.234 172.54C101.797 172.899 101.262 173.192 100.629 173.419C100.004 173.645 99.2773 173.759 98.4492 173.759ZM108.527 163.552V173.524H105.703V160.844H108.363L108.527 163.552ZM108.023 166.716L107.109 166.704C107.117 165.805 107.242 164.981 107.484 164.231C107.734 163.481 108.078 162.837 108.516 162.298C108.961 161.759 109.492 161.344 110.109 161.055C110.727 160.759 111.414 160.61 112.172 160.61C112.781 160.61 113.332 160.696 113.824 160.868C114.324 161.032 114.75 161.302 115.102 161.677C115.461 162.052 115.734 162.54 115.922 163.141C116.109 163.735 116.203 164.466 116.203 165.333V173.524H113.367V165.321C113.367 164.712 113.277 164.231 113.098 163.88C112.926 163.52 112.672 163.266 112.336 163.118C112.008 162.962 111.598 162.884 111.105 162.884C110.621 162.884 110.188 162.985 109.805 163.188C109.422 163.391 109.098 163.669 108.832 164.02C108.574 164.372 108.375 164.778 108.234 165.239C108.094 165.7 108.023 166.192 108.023 166.716ZM126.234 170.981V164.934C126.234 164.481 126.152 164.091 125.988 163.762C125.824 163.434 125.574 163.18 125.238 163.001C124.91 162.821 124.496 162.731 123.996 162.731C123.535 162.731 123.137 162.809 122.801 162.966C122.465 163.122 122.203 163.333 122.016 163.598C121.828 163.864 121.734 164.165 121.734 164.501H118.922C118.922 164.001 119.043 163.516 119.285 163.048C119.527 162.579 119.879 162.161 120.34 161.794C120.801 161.427 121.352 161.137 121.992 160.927C122.633 160.716 123.352 160.61 124.148 160.61C125.102 160.61 125.945 160.77 126.68 161.091C127.422 161.411 128.004 161.895 128.426 162.544C128.855 163.184 129.07 163.989 129.07 164.958V170.594C129.07 171.173 129.109 171.692 129.188 172.153C129.273 172.606 129.395 173.001 129.551 173.337V173.524H126.656C126.523 173.219 126.418 172.833 126.34 172.364C126.27 171.887 126.234 171.427 126.234 170.981ZM126.645 165.813L126.668 167.559H124.641C124.117 167.559 123.656 167.61 123.258 167.712C122.859 167.805 122.527 167.946 122.262 168.134C121.996 168.321 121.797 168.548 121.664 168.813C121.531 169.079 121.465 169.38 121.465 169.716C121.465 170.052 121.543 170.36 121.699 170.641C121.855 170.915 122.082 171.13 122.379 171.286C122.684 171.442 123.051 171.52 123.48 171.52C124.059 171.52 124.562 171.403 124.992 171.169C125.43 170.927 125.773 170.634 126.023 170.29C126.273 169.938 126.406 169.606 126.422 169.294L127.336 170.548C127.242 170.868 127.082 171.212 126.855 171.579C126.629 171.946 126.332 172.298 125.965 172.634C125.605 172.962 125.172 173.231 124.664 173.442C124.164 173.653 123.586 173.759 122.93 173.759C122.102 173.759 121.363 173.594 120.715 173.266C120.066 172.93 119.559 172.481 119.191 171.919C118.824 171.348 118.641 170.704 118.641 169.985C118.641 169.313 118.766 168.719 119.016 168.204C119.273 167.68 119.648 167.243 120.141 166.891C120.641 166.54 121.25 166.274 121.969 166.094C122.688 165.907 123.508 165.813 124.43 165.813H126.645ZM134.824 163.552V173.524H132V160.844H134.66L134.824 163.552ZM134.32 166.716L133.406 166.704C133.414 165.805 133.539 164.981 133.781 164.231C134.031 163.481 134.375 162.837 134.812 162.298C135.258 161.759 135.789 161.344 136.406 161.055C137.023 160.759 137.711 160.61 138.469 160.61C139.078 160.61 139.629 160.696 140.121 160.868C140.621 161.032 141.047 161.302 141.398 161.677C141.758 162.052 142.031 162.54 142.219 163.141C142.406 163.735 142.5 164.466 142.5 165.333V173.524H139.664V165.321C139.664 164.712 139.574 164.231 139.395 163.88C139.223 163.52 138.969 163.266 138.633 163.118C138.305 162.962 137.895 162.884 137.402 162.884C136.918 162.884 136.484 162.985 136.102 163.188C135.719 163.391 135.395 163.669 135.129 164.02C134.871 164.372 134.672 164.778 134.531 165.239C134.391 165.7 134.32 166.192 134.32 166.716ZM150.562 171.509C151.023 171.509 151.438 171.419 151.805 171.239C152.18 171.052 152.48 170.794 152.707 170.466C152.941 170.137 153.07 169.759 153.094 169.329H155.754C155.738 170.149 155.496 170.895 155.027 171.567C154.559 172.239 153.938 172.774 153.164 173.173C152.391 173.563 151.535 173.759 150.598 173.759C149.629 173.759 148.785 173.594 148.066 173.266C147.348 172.93 146.75 172.469 146.273 171.884C145.797 171.298 145.438 170.622 145.195 169.856C144.961 169.091 144.844 168.27 144.844 167.395V166.985C144.844 166.11 144.961 165.29 145.195 164.524C145.438 163.751 145.797 163.071 146.273 162.485C146.75 161.899 147.348 161.442 148.066 161.114C148.785 160.778 149.625 160.61 150.586 160.61C151.602 160.61 152.492 160.813 153.258 161.219C154.023 161.618 154.625 162.177 155.062 162.895C155.508 163.606 155.738 164.434 155.754 165.38H153.094C153.07 164.911 152.953 164.489 152.742 164.114C152.539 163.731 152.25 163.427 151.875 163.2C151.508 162.973 151.066 162.86 150.551 162.86C149.98 162.86 149.508 162.977 149.133 163.212C148.758 163.438 148.465 163.751 148.254 164.149C148.043 164.54 147.891 164.981 147.797 165.473C147.711 165.958 147.668 166.462 147.668 166.985V167.395C147.668 167.919 147.711 168.427 147.797 168.919C147.883 169.411 148.031 169.852 148.242 170.243C148.461 170.626 148.758 170.934 149.133 171.169C149.508 171.395 149.984 171.509 150.562 171.509ZM163.512 173.759C162.574 173.759 161.727 173.606 160.969 173.302C160.219 172.989 159.578 172.555 159.047 172.001C158.523 171.446 158.121 170.794 157.84 170.044C157.559 169.294 157.418 168.485 157.418 167.618V167.149C157.418 166.157 157.562 165.259 157.852 164.454C158.141 163.649 158.543 162.962 159.059 162.391C159.574 161.813 160.184 161.372 160.887 161.067C161.59 160.762 162.352 160.61 163.172 160.61C164.078 160.61 164.871 160.762 165.551 161.067C166.23 161.372 166.793 161.802 167.238 162.356C167.691 162.903 168.027 163.555 168.246 164.313C168.473 165.071 168.586 165.907 168.586 166.821V168.028H158.789V166.001H165.797V165.778C165.781 165.27 165.68 164.794 165.492 164.348C165.312 163.903 165.035 163.544 164.66 163.27C164.285 162.997 163.785 162.86 163.16 162.86C162.691 162.86 162.273 162.962 161.906 163.165C161.547 163.36 161.246 163.645 161.004 164.02C160.762 164.395 160.574 164.848 160.441 165.38C160.316 165.903 160.254 166.493 160.254 167.149V167.618C160.254 168.173 160.328 168.688 160.477 169.165C160.633 169.634 160.859 170.044 161.156 170.395C161.453 170.747 161.812 171.024 162.234 171.227C162.656 171.423 163.137 171.52 163.676 171.52C164.355 171.52 164.961 171.384 165.492 171.11C166.023 170.837 166.484 170.45 166.875 169.95L168.363 171.391C168.09 171.79 167.734 172.173 167.297 172.54C166.859 172.899 166.324 173.192 165.691 173.419C165.066 173.645 164.34 173.759 163.512 173.759Z" fill="#1976D2"/>
<rect x="60.5" y="30.0242" width="79" height="79" rx="39.5" fill="#F0F8FF"/>
<rect x="60.5" y="30.0242" width="79" height="79" rx="39.5" stroke="#42A5F5"/>
<path d="M113.318 44.2325C113.173 44.085 112.974 44 112.766 44C112.558 44 112.359 44.085 112.214 44.2325C111.729 44.7299 101.217 55.5966 99.5503 65.0229L99.2566 65.2604C98.3153 64.7404 97.3163 64.328 96.2796 64.0305L95.888 60.4333C95.8504 60.0908 95.5893 59.8134 95.2454 59.7584C93.3478 59.4484 91.2795 59.4484 89.3818 59.7584C89.0405 59.8134 88.7769 60.0908 88.7393 60.4333L88.3477 64.0305C87.311 64.3255 86.312 64.7379 85.3657 65.2579L82.5343 62.9906C82.2632 62.7731 81.8792 62.7631 81.5981 62.9681C79.9966 64.1255 78.6035 65.5154 77.4589 67.0977C77.2556 67.3777 77.2656 67.7576 77.484 68.0276L79.7607 70.8473C79.2336 71.7922 78.8194 72.7871 78.5232 73.812L74.9112 74.202C74.5673 74.2395 74.2887 74.502 74.2334 74.8419C74.0778 75.7919 74 76.7742 74 77.7617C74 78.7541 74.0803 79.7365 74.236 80.6814C74.2912 81.0214 74.5698 81.2838 74.9137 81.3213L78.5257 81.7113C78.8219 82.7387 79.2361 83.7311 79.7607 84.6735L77.484 87.4958C77.2657 87.7658 77.2556 88.1457 77.4589 88.4257C78.6161 90.0206 80.0092 91.408 81.5981 92.5528C81.8792 92.7553 82.2607 92.7453 82.5318 92.5278L85.3632 90.2605C86.312 90.783 87.311 91.1979 88.3452 91.4929L88.7368 95.0901C88.7744 95.4325 89.0355 95.71 89.3793 95.765C90.3282 95.92 91.3146 96 92.3111 96C93.3077 96 94.2941 95.92 95.2429 95.765C95.5843 95.71 95.8479 95.4325 95.8855 95.0901L96.2771 91.4929C97.3113 91.1954 98.3078 90.7829 99.2566 90.258L102.085 92.5253C102.357 92.7428 102.738 92.7528 103.019 92.5503C104.616 91.4054 106.009 90.0181 107.161 88.4257C107.364 88.1457 107.354 87.7658 107.136 87.4958L104.859 84.6786C105.381 83.7412 105.795 82.7463 106.094 81.7114L109.706 81.3214C110.05 81.2839 110.326 81.0239 110.384 80.684C110.389 80.6565 110.389 80.6315 110.394 80.604C111.164 80.7414 111.958 80.8164 112.766 80.8164C120.181 80.8164 126.213 74.8095 126.213 67.425C126.213 57.5482 113.845 44.7724 113.321 44.2323L113.318 44.2325ZM105.401 80.2394C105.08 80.2744 104.814 80.5069 104.736 80.8194C104.428 82.0668 103.933 83.2542 103.265 84.3466C103.097 84.624 103.12 84.974 103.323 85.2265L105.557 87.9912C104.694 89.1011 103.697 90.0936 102.585 90.951L99.809 88.7261C99.5554 88.5236 99.2015 88.5012 98.9254 88.6686C97.8184 89.3386 96.6262 89.831 95.3837 90.136C95.0699 90.2135 94.8365 90.4785 94.8013 90.7985L94.4173 94.3281C93.0443 94.5006 91.5833 94.5006 90.2078 94.3281L89.8238 90.7985C89.7886 90.4785 89.5552 90.2135 89.2414 90.136C87.9989 89.8311 86.8041 89.3386 85.6922 88.6711C85.4161 88.5061 85.0646 88.5286 84.8111 88.7311L82.035 90.9559C80.9255 90.096 79.929 89.1036 79.063 87.9912L81.297 85.2215C81.5003 84.969 81.5229 84.619 81.3547 84.3441C80.6845 83.2441 80.1901 82.0568 79.8838 80.8194C79.806 80.5069 79.5399 80.2744 79.2186 80.2394L75.6743 79.857C75.5865 79.1721 75.5438 78.4696 75.5438 77.7622C75.5438 77.0547 75.5865 76.3523 75.6743 75.6649L79.2186 75.2824C79.5399 75.2474 79.806 75.015 79.8838 74.7025C80.1875 73.4701 80.682 72.2828 81.3547 71.1728C81.5229 70.8979 81.4978 70.5454 81.2945 70.2954L79.0605 67.5307C79.9189 66.4233 80.9179 65.4309 82.035 64.5635L84.8111 66.7858C85.0646 66.9883 85.4161 67.0108 85.6922 66.8458C86.7966 66.1833 87.9914 65.6909 89.2414 65.3859C89.5552 65.3084 89.7886 65.0435 89.8238 64.7235L90.2078 61.1938C91.5808 61.0213 93.0418 61.0213 94.4173 61.1938L94.8013 64.7235C94.8365 65.0434 95.0699 65.3084 95.3837 65.3859C96.6362 65.6934 97.8285 66.1859 98.9254 66.8508C99.0534 66.9283 99.1965 66.9583 99.3371 66.9558C99.332 67.1133 99.3195 67.2733 99.3195 67.4283C99.3195 68.4632 99.4425 69.4706 99.6659 70.438C97.7808 68.5607 95.1803 67.3983 92.3089 67.3983C86.5708 67.3983 81.9022 72.0478 81.9022 77.7621C81.9022 83.4766 86.571 88.126 92.3089 88.126C98.047 88.126 102.716 83.4764 102.716 77.7621C102.716 77.2222 102.673 76.6897 102.593 76.1722C104.046 77.8471 105.908 79.162 108.027 79.9594L105.401 80.2444L105.401 80.2394ZM101.174 77.7597C101.174 82.6267 97.1985 86.5889 92.3087 86.5889C87.4215 86.5889 83.443 82.6293 83.443 77.7597C83.443 72.8926 87.419 68.9304 92.3087 68.9304C97.1959 68.9304 101.174 72.89 101.174 77.7597ZM112.766 79.282C111.805 79.282 110.871 79.1645 109.975 78.9496C109.95 78.9421 109.922 78.9371 109.895 78.9321C104.714 77.6497 100.863 72.9801 100.863 67.4278C100.863 59.3108 110.351 48.5099 112.766 45.8951C115.18 48.5123 124.668 59.314 124.668 67.4278C124.668 73.9648 119.329 79.2815 112.766 79.2815L112.766 79.282ZM122.122 72.8001C121.557 73.7749 120.841 74.6524 120 75.4098C119.852 75.5423 119.669 75.6073 119.483 75.6073C119.273 75.6073 119.064 75.5223 118.911 75.3548C118.625 75.0398 118.65 74.5549 118.966 74.2699C119.689 73.62 120.302 72.8675 120.786 72.0326C120.999 71.6651 121.471 71.5377 121.84 71.7526C122.209 71.9651 122.335 72.4351 122.121 72.8025L122.122 72.8001Z" fill="#1976D2"/>
<defs>
<filter id="filter0_f_614_215" x="153.4" y="-30.6" width="77.2" height="77.2" filterUnits="userSpaceOnUse" color-interpolation-filters="sRGB">
<feFlood flood-opacity="0" result="BackgroundImageFix"/>
<feBlend mode="normal" in="SourceGraphic" in2="BackgroundImageFix" result="shape"/>
<feGaussianBlur stdDeviation="11.3" result="effect1_foregroundBlur_614_215"/>
</filter>
<filter id="filter1_f_614_215" x="-30.6" y="-30.6" width="77.2" height="77.2" filterUnits="userSpaceOnUse" color-interpolation-filters="sRGB">
<feFlood flood-opacity="0" result="BackgroundImageFix"/>
<feBlend mode="normal" in="SourceGraphic" in2="BackgroundImageFix" result="shape"/>
<feGaussianBlur stdDeviation="11.3" result="effect1_foregroundBlur_614_215"/>
</filter>
<filter id="filter2_f_614_215" x="-30.6" y="153.4" width="77.2" height="77.2" filterUnits="userSpaceOnUse" color-interpolation-filters="sRGB">
<feFlood flood-opacity="0" result="BackgroundImageFix"/>
<feBlend mode="normal" in="SourceGraphic" in2="BackgroundImageFix" result="shape"/>
<feGaussianBlur stdDeviation="11.3" result="effect1_foregroundBlur_614_215"/>
</filter>
<filter id="filter3_f_614_215" x="153.4" y="153.4" width="77.2" height="77.2" filterUnits="userSpaceOnUse" color-interpolation-filters="sRGB">
<feFlood flood-opacity="0" result="BackgroundImageFix"/>
<feBlend mode="normal" in="SourceGraphic" in2="BackgroundImageFix" result="shape"/>
<feGaussianBlur stdDeviation="11.3" result="effect1_foregroundBlur_614_215"/>
</filter>
</defs>
</svg>
