<svg width="200" height="200" viewBox="0 0 200 200" fill="none" xmlns="http://www.w3.org/2000/svg">
<mask id="mask0_614_249" style="mask-type:alpha" maskUnits="userSpaceOnUse" x="0" y="0" width="200" height="200">
<rect x="1" y="1" width="198" height="198" stroke="#5F94EF" stroke-width="2"/>
</mask>
<g mask="url(#mask0_614_249)">
<g filter="url(#filter0_f_614_249)">
<circle cx="192" cy="8" r="16" fill="#066EC2"/>
</g>
<g filter="url(#filter1_f_614_249)">
<circle cx="8" cy="8" r="16" fill="#066EC2"/>
</g>
<g filter="url(#filter2_f_614_249)">
<circle cx="8" cy="192" r="16" fill="#066EC2"/>
</g>
<g filter="url(#filter3_f_614_249)">
<circle cx="192" cy="192" r="16" fill="#066EC2"/>
</g>
</g>
<rect x="11" y="11" width="178" height="178" stroke="#5F94EF" stroke-width="2"/>
<rect x="10" y="9.52417" width="180" height="180" fill="#F5FAFF"/>
<path d="M44.4297 156.462H47.0547L51.9883 169.622L56.9102 156.462H59.5352L53.0195 173.524H50.9336L44.4297 156.462ZM43.2344 156.462H45.7305L46.1641 167.852V173.524H43.2344V156.462ZM58.2344 156.462H60.7422V173.524H57.8008V167.852L58.2344 156.462ZM63.4141 167.325V167.055C63.4141 166.141 63.5469 165.294 63.8125 164.512C64.0781 163.723 64.4609 163.04 64.9609 162.462C65.4688 161.876 66.0859 161.423 66.8125 161.102C67.5469 160.774 68.375 160.61 69.2969 160.61C70.2266 160.61 71.0547 160.774 71.7812 161.102C72.5156 161.423 73.1367 161.876 73.6445 162.462C74.1523 163.04 74.5391 163.723 74.8047 164.512C75.0703 165.294 75.2031 166.141 75.2031 167.055V167.325C75.2031 168.239 75.0703 169.087 74.8047 169.868C74.5391 170.649 74.1523 171.333 73.6445 171.919C73.1367 172.497 72.5195 172.95 71.793 173.278C71.0664 173.598 70.2422 173.759 69.3203 173.759C68.3906 173.759 67.5586 173.598 66.8242 173.278C66.0977 172.95 65.4805 172.497 64.9727 171.919C64.4648 171.333 64.0781 170.649 63.8125 169.868C63.5469 169.087 63.4141 168.239 63.4141 167.325ZM66.2383 167.055V167.325C66.2383 167.895 66.2969 168.434 66.4141 168.942C66.5312 169.45 66.7148 169.895 66.9648 170.278C67.2148 170.661 67.5352 170.962 67.9258 171.18C68.3164 171.399 68.7812 171.509 69.3203 171.509C69.8438 171.509 70.2969 171.399 70.6797 171.18C71.0703 170.962 71.3906 170.661 71.6406 170.278C71.8906 169.895 72.0742 169.45 72.1914 168.942C72.3164 168.434 72.3789 167.895 72.3789 167.325V167.055C72.3789 166.493 72.3164 165.962 72.1914 165.462C72.0742 164.954 71.8867 164.505 71.6289 164.114C71.3789 163.723 71.0586 163.419 70.668 163.2C70.2852 162.973 69.8281 162.86 69.2969 162.86C68.7656 162.86 68.3047 162.973 67.9141 163.2C67.5312 163.419 67.2148 163.723 66.9648 164.114C66.7148 164.505 66.5312 164.954 66.4141 165.462C66.2969 165.962 66.2383 166.493 66.2383 167.055ZM80.3711 163.552V173.524H77.5469V160.844H80.207L80.3711 163.552ZM79.8672 166.716L78.9531 166.704C78.9609 165.805 79.0859 164.981 79.3281 164.231C79.5781 163.481 79.9219 162.837 80.3594 162.298C80.8047 161.759 81.3359 161.344 81.9531 161.055C82.5703 160.759 83.2578 160.61 84.0156 160.61C84.625 160.61 85.1758 160.696 85.668 160.868C86.168 161.032 86.5938 161.302 86.9453 161.677C87.3047 162.052 87.5781 162.54 87.7656 163.141C87.9531 163.735 88.0469 164.466 88.0469 165.333V173.524H85.2109V165.321C85.2109 164.712 85.1211 164.231 84.9414 163.88C84.7695 163.52 84.5156 163.266 84.1797 163.118C83.8516 162.962 83.4414 162.884 82.9492 162.884C82.4648 162.884 82.0312 162.985 81.6484 163.188C81.2656 163.391 80.9414 163.669 80.6758 164.02C80.418 164.372 80.2188 164.778 80.0781 165.239C79.9375 165.7 79.8672 166.192 79.8672 166.716ZM93.9531 160.844V173.524H91.1172V160.844H93.9531ZM90.9297 157.516C90.9297 157.087 91.0703 156.731 91.3516 156.45C91.6406 156.161 92.0391 156.016 92.5469 156.016C93.0469 156.016 93.4414 156.161 93.7305 156.45C94.0195 156.731 94.1641 157.087 94.1641 157.516C94.1641 157.938 94.0195 158.29 93.7305 158.571C93.4414 158.852 93.0469 158.993 92.5469 158.993C92.0391 158.993 91.6406 158.852 91.3516 158.571C91.0703 158.29 90.9297 157.938 90.9297 157.516ZM102.859 160.844V162.907H95.7109V160.844H102.859ZM97.7734 157.739H100.598V170.02C100.598 170.411 100.652 170.712 100.762 170.923C100.879 171.126 101.039 171.262 101.242 171.333C101.445 171.403 101.684 171.438 101.957 171.438C102.152 171.438 102.34 171.427 102.52 171.403C102.699 171.38 102.844 171.356 102.953 171.333L102.965 173.489C102.73 173.559 102.457 173.622 102.145 173.677C101.84 173.731 101.488 173.759 101.09 173.759C100.441 173.759 99.8672 173.645 99.3672 173.419C98.8672 173.184 98.4766 172.805 98.1953 172.282C97.9141 171.759 97.7734 171.063 97.7734 170.196V157.739ZM104.219 167.325V167.055C104.219 166.141 104.352 165.294 104.617 164.512C104.883 163.723 105.266 163.04 105.766 162.462C106.273 161.876 106.891 161.423 107.617 161.102C108.352 160.774 109.18 160.61 110.102 160.61C111.031 160.61 111.859 160.774 112.586 161.102C113.32 161.423 113.941 161.876 114.449 162.462C114.957 163.04 115.344 163.723 115.609 164.512C115.875 165.294 116.008 166.141 116.008 167.055V167.325C116.008 168.239 115.875 169.087 115.609 169.868C115.344 170.649 114.957 171.333 114.449 171.919C113.941 172.497 113.324 172.95 112.598 173.278C111.871 173.598 111.047 173.759 110.125 173.759C109.195 173.759 108.363 173.598 107.629 173.278C106.902 172.95 106.285 172.497 105.777 171.919C105.27 171.333 104.883 170.649 104.617 169.868C104.352 169.087 104.219 168.239 104.219 167.325ZM107.043 167.055V167.325C107.043 167.895 107.102 168.434 107.219 168.942C107.336 169.45 107.52 169.895 107.77 170.278C108.02 170.661 108.34 170.962 108.73 171.18C109.121 171.399 109.586 171.509 110.125 171.509C110.648 171.509 111.102 171.399 111.484 171.18C111.875 170.962 112.195 170.661 112.445 170.278C112.695 169.895 112.879 169.45 112.996 168.942C113.121 168.434 113.184 167.895 113.184 167.325V167.055C113.184 166.493 113.121 165.962 112.996 165.462C112.879 164.954 112.691 164.505 112.434 164.114C112.184 163.723 111.863 163.419 111.473 163.2C111.09 162.973 110.633 162.86 110.102 162.86C109.57 162.86 109.109 162.973 108.719 163.2C108.336 163.419 108.02 163.723 107.77 164.114C107.52 164.505 107.336 164.954 107.219 165.462C107.102 165.962 107.043 166.493 107.043 167.055ZM121.211 163.259V173.524H118.387V160.844H121.082L121.211 163.259ZM125.09 160.762L125.066 163.387C124.895 163.356 124.707 163.333 124.504 163.317C124.309 163.302 124.113 163.294 123.918 163.294C123.434 163.294 123.008 163.364 122.641 163.505C122.273 163.637 121.965 163.833 121.715 164.091C121.473 164.341 121.285 164.645 121.152 165.005C121.02 165.364 120.941 165.766 120.918 166.212L120.273 166.259C120.273 165.462 120.352 164.723 120.508 164.044C120.664 163.364 120.898 162.766 121.211 162.251C121.531 161.735 121.93 161.333 122.406 161.044C122.891 160.755 123.449 160.61 124.082 160.61C124.254 160.61 124.438 160.626 124.633 160.657C124.836 160.688 124.988 160.723 125.09 160.762ZM129.883 160.844V173.524H127.047V160.844H129.883ZM126.859 157.516C126.859 157.087 127 156.731 127.281 156.45C127.57 156.161 127.969 156.016 128.477 156.016C128.977 156.016 129.371 156.161 129.66 156.45C129.949 156.731 130.094 157.087 130.094 157.516C130.094 157.938 129.949 158.29 129.66 158.571C129.371 158.852 128.977 158.993 128.477 158.993C127.969 158.993 127.57 158.852 127.281 158.571C127 158.29 126.859 157.938 126.859 157.516ZM135.777 163.552V173.524H132.953V160.844H135.613L135.777 163.552ZM135.273 166.716L134.359 166.704C134.367 165.805 134.492 164.981 134.734 164.231C134.984 163.481 135.328 162.837 135.766 162.298C136.211 161.759 136.742 161.344 137.359 161.055C137.977 160.759 138.664 160.61 139.422 160.61C140.031 160.61 140.582 160.696 141.074 160.868C141.574 161.032 142 161.302 142.352 161.677C142.711 162.052 142.984 162.54 143.172 163.141C143.359 163.735 143.453 164.466 143.453 165.333V173.524H140.617V165.321C140.617 164.712 140.527 164.231 140.348 163.88C140.176 163.52 139.922 163.266 139.586 163.118C139.258 162.962 138.848 162.884 138.355 162.884C137.871 162.884 137.438 162.985 137.055 163.188C136.672 163.391 136.348 163.669 136.082 164.02C135.824 164.372 135.625 164.778 135.484 165.239C135.344 165.7 135.273 166.192 135.273 166.716ZM154.457 160.844H157.023V173.173C157.023 174.313 156.781 175.282 156.297 176.079C155.812 176.876 155.137 177.481 154.27 177.895C153.402 178.317 152.398 178.528 151.258 178.528C150.773 178.528 150.234 178.458 149.641 178.317C149.055 178.177 148.484 177.95 147.93 177.637C147.383 177.333 146.926 176.93 146.559 176.43L147.883 174.766C148.336 175.305 148.836 175.7 149.383 175.95C149.93 176.2 150.504 176.325 151.105 176.325C151.754 176.325 152.305 176.204 152.758 175.962C153.219 175.727 153.574 175.38 153.824 174.919C154.074 174.458 154.199 173.895 154.199 173.231V163.716L154.457 160.844ZM145.844 167.325V167.079C145.844 166.118 145.961 165.243 146.195 164.454C146.43 163.657 146.766 162.973 147.203 162.403C147.641 161.825 148.172 161.384 148.797 161.079C149.422 160.766 150.129 160.61 150.918 160.61C151.738 160.61 152.438 160.759 153.016 161.055C153.602 161.352 154.09 161.778 154.48 162.333C154.871 162.88 155.176 163.536 155.395 164.302C155.621 165.059 155.789 165.903 155.898 166.833V167.618C155.797 168.524 155.625 169.352 155.383 170.102C155.141 170.852 154.82 171.501 154.422 172.048C154.023 172.594 153.531 173.016 152.945 173.313C152.367 173.61 151.684 173.759 150.895 173.759C150.121 173.759 149.422 173.598 148.797 173.278C148.18 172.958 147.648 172.509 147.203 171.93C146.766 171.352 146.43 170.673 146.195 169.891C145.961 169.102 145.844 168.247 145.844 167.325ZM148.668 167.079V167.325C148.668 167.903 148.723 168.442 148.832 168.942C148.949 169.442 149.125 169.884 149.359 170.266C149.602 170.641 149.906 170.938 150.273 171.157C150.648 171.368 151.09 171.473 151.598 171.473C152.262 171.473 152.805 171.333 153.227 171.052C153.656 170.77 153.984 170.391 154.211 169.915C154.445 169.43 154.609 168.891 154.703 168.298V166.177C154.656 165.716 154.559 165.286 154.41 164.887C154.27 164.489 154.078 164.141 153.836 163.844C153.594 163.54 153.289 163.305 152.922 163.141C152.555 162.969 152.121 162.884 151.621 162.884C151.113 162.884 150.672 162.993 150.297 163.212C149.922 163.43 149.613 163.731 149.371 164.114C149.137 164.497 148.961 164.942 148.844 165.45C148.727 165.958 148.668 166.501 148.668 167.079Z" fill="#1976D2"/>
<rect x="60.5" y="30.0242" width="79" height="79" rx="39.5" fill="#F0F8FF"/>
<rect x="60.5" y="30.0242" width="79" height="79" rx="39.5" stroke="#42A5F5"/>
<path d="M77.4514 65.9239C77.4514 65.5555 77.7531 65.2543 78.117 65.2543H83.8843L86.4087 56.1254C86.4847 55.8473 86.738 55.6458 87.0282 55.6342C87.3231 55.6226 87.5833 55.8056 87.6778 56.079L91.4574 66.8735L94.3111 59.5198C94.424 59.2418 94.7004 59.0634 95.0021 59.0981C95.3038 59.1329 95.5388 59.3599 95.5848 59.6611L97.3353 70.8957L100.896 53.6301C100.961 53.3266 101.221 53.1088 101.527 53.0972C101.834 53.0903 102.11 53.2919 102.188 53.5954L105.291 65.2564H117.355C117.721 65.2564 118.021 65.5599 118.021 65.926C118.021 66.2944 117.719 66.5956 117.355 66.5956L104.791 66.5933C104.489 66.5933 104.224 66.3917 104.148 66.0951L101.642 56.6655L97.9041 74.7721C97.8396 75.0803 97.5678 75.305 97.2545 75.305H97.2361C96.9114 75.2981 96.6465 75.0617 96.5935 74.742L94.6611 62.3164L92.0493 69.0426C91.9479 69.3044 91.6946 69.4689 91.4182 69.4689C91.1418 69.4619 90.893 69.2858 90.7986 69.024L87.1272 58.5326L85.0335 66.1022C84.9506 66.3918 84.6927 66.5934 84.391 66.5934H78.1167C77.7505 66.5934 77.4514 66.2969 77.4514 65.9239ZM126.467 94.0723L124.921 95.627C124.686 95.8633 124.366 96 124.03 96C123.694 96 123.376 95.8703 123.139 95.627L118.203 90.6618C117.89 90.3467 117.779 89.9134 117.862 89.5103L115.658 87.2929C114.071 88.3958 112.15 89.0492 110.079 89.0492C108.264 89.0492 106.571 88.5441 105.109 87.6798V90.3188H107.343C108.624 90.3188 109.667 91.3684 109.667 92.6566C109.667 93.9448 108.624 94.9944 107.343 94.9944L88.1452 94.9921C86.8646 94.9921 85.8213 93.9425 85.8213 92.6543C85.8213 91.3661 86.8646 90.3165 88.1452 90.3165H90.3794V85.4996L75.9517 85.5019C73.9226 85.5019 72.2734 83.8407 72.2734 81.8018V51.7002C72.2734 49.6589 73.9249 48 75.9517 48H119.531C121.56 48 123.21 49.6613 123.21 51.7002V81.7899C123.21 83.8311 121.558 85.4901 119.531 85.4901H118.919L120.386 86.966C120.469 86.9474 120.552 86.9428 120.639 86.9428C120.975 86.9428 121.293 87.0725 121.53 87.3158L126.466 92.281C126.962 92.7745 126.962 93.5742 126.467 94.0723ZM121.879 81.7903V80.4094H119.827C119.656 81.7624 119.207 83.0252 118.546 84.1512H119.525C120.828 84.1489 121.879 83.0877 121.879 81.7903ZM73.6051 51.7005V79.0725H100.24C100.274 73.6393 104.674 69.2324 110.081 69.2324C115.489 69.2324 119.886 73.6392 119.923 79.0725H121.885V51.7005C121.885 50.3961 120.83 49.3395 119.538 49.3395H75.9516C74.6549 49.3395 73.6051 50.3937 73.6051 51.7005ZM75.9522 84.1492H101.601C100.94 83.0231 100.493 81.7581 100.32 80.4073H73.6049V81.7882C73.6049 83.088 74.6554 84.1492 75.9522 84.1492ZM107.338 91.647H88.1451C87.5969 91.647 87.1547 92.0918 87.1547 92.6433C87.1547 93.1947 87.5969 93.6396 88.1451 93.6396H107.338C107.886 93.6396 108.329 93.1947 108.329 92.6433C108.329 92.0918 107.886 91.647 107.338 91.647ZM103.77 86.7374C103.321 86.3574 102.909 85.9427 102.531 85.4909H91.7127V90.3078H103.777V86.7374H103.77ZM110.074 87.6966C114.768 87.6966 118.589 83.8528 118.589 79.1312C118.589 74.4093 114.768 70.5657 110.074 70.5657C105.38 70.568 101.559 74.4118 101.559 79.1335C101.559 83.8601 105.38 87.6966 110.074 87.6966ZM116.696 86.4408L118.653 88.4102L119.296 87.7638L117.338 85.7945C117.138 86.0238 116.919 86.2393 116.696 86.4408ZM125.48 93.1783L120.639 88.3081L119.195 89.7608L124.036 94.631L125.48 93.1783ZM117.255 79.1328C117.255 83.1133 114.035 86.3572 110.074 86.3572C106.112 86.3572 102.892 83.1182 102.892 79.1328C102.892 75.1524 106.112 71.9084 110.074 71.9084C114.035 71.9084 117.255 75.1522 117.255 79.1328ZM115.924 79.1328C115.924 75.8891 113.301 73.2478 110.074 73.2478C106.849 73.2478 104.224 75.8868 104.224 79.1328C104.224 82.3766 106.847 85.0179 110.074 85.0179C113.298 85.0155 115.924 82.3766 115.924 79.1328Z" fill="#1976D2"/>
<defs>
<filter id="filter0_f_614_249" x="153.4" y="-30.6" width="77.2" height="77.2" filterUnits="userSpaceOnUse" color-interpolation-filters="sRGB">
<feFlood flood-opacity="0" result="BackgroundImageFix"/>
<feBlend mode="normal" in="SourceGraphic" in2="BackgroundImageFix" result="shape"/>
<feGaussianBlur stdDeviation="11.3" result="effect1_foregroundBlur_614_249"/>
</filter>
<filter id="filter1_f_614_249" x="-30.6" y="-30.6" width="77.2" height="77.2" filterUnits="userSpaceOnUse" color-interpolation-filters="sRGB">
<feFlood flood-opacity="0" result="BackgroundImageFix"/>
<feBlend mode="normal" in="SourceGraphic" in2="BackgroundImageFix" result="shape"/>
<feGaussianBlur stdDeviation="11.3" result="effect1_foregroundBlur_614_249"/>
</filter>
<filter id="filter2_f_614_249" x="-30.6" y="153.4" width="77.2" height="77.2" filterUnits="userSpaceOnUse" color-interpolation-filters="sRGB">
<feFlood flood-opacity="0" result="BackgroundImageFix"/>
<feBlend mode="normal" in="SourceGraphic" in2="BackgroundImageFix" result="shape"/>
<feGaussianBlur stdDeviation="11.3" result="effect1_foregroundBlur_614_249"/>
</filter>
<filter id="filter3_f_614_249" x="153.4" y="153.4" width="77.2" height="77.2" filterUnits="userSpaceOnUse" color-interpolation-filters="sRGB">
<feFlood flood-opacity="0" result="BackgroundImageFix"/>
<feBlend mode="normal" in="SourceGraphic" in2="BackgroundImageFix" result="shape"/>
<feGaussianBlur stdDeviation="11.3" result="effect1_foregroundBlur_614_249"/>
</filter>
</defs>
</svg>
