<svg width="200" height="200" viewBox="0 0 200 200" fill="none" xmlns="http://www.w3.org/2000/svg">
<mask id="mask0_614_227" style="mask-type:alpha" maskUnits="userSpaceOnUse" x="0" y="0" width="200" height="200">
<rect x="1" y="1" width="198" height="198" stroke="#5F94EF" stroke-width="2"/>
</mask>
<g mask="url(#mask0_614_227)">
<g filter="url(#filter0_f_614_227)">
<circle cx="192" cy="8" r="16" fill="#066EC2"/>
</g>
<g filter="url(#filter1_f_614_227)">
<circle cx="8" cy="8" r="16" fill="#066EC2"/>
</g>
<g filter="url(#filter2_f_614_227)">
<circle cx="8" cy="192" r="16" fill="#066EC2"/>
</g>
<g filter="url(#filter3_f_614_227)">
<circle cx="192" cy="192" r="16" fill="#066EC2"/>
</g>
</g>
<rect x="11" y="11" width="178" height="178" stroke="#5F94EF" stroke-width="2"/>
<rect x="10" y="9.52417" width="180" height="180" fill="#F5FAFF"/>
<path d="M22.2344 156.462H28.2695C29.5664 156.462 30.6719 156.657 31.5859 157.048C32.5 157.438 33.1992 158.016 33.6836 158.782C34.1758 159.54 34.4219 160.477 34.4219 161.594C34.4219 162.446 34.2656 163.196 33.9531 163.844C33.6406 164.493 33.1992 165.04 32.6289 165.485C32.0586 165.923 31.3789 166.262 30.5898 166.505L29.6992 166.938H24.2734L24.25 164.606H28.3164C29.0195 164.606 29.6055 164.481 30.0742 164.231C30.543 163.981 30.8945 163.641 31.1289 163.212C31.3711 162.774 31.4922 162.282 31.4922 161.735C31.4922 161.141 31.375 160.626 31.1406 160.188C30.9141 159.743 30.5625 159.403 30.0859 159.169C29.6094 158.927 29.0039 158.805 28.2695 158.805H25.1758V173.524H22.2344V156.462ZM31.9727 173.524L27.9648 165.86L31.0469 165.848L35.1133 173.372V173.524H31.9727ZM42.6602 173.759C41.7227 173.759 40.875 173.606 40.1172 173.302C39.3672 172.989 38.7266 172.555 38.1953 172.001C37.6719 171.446 37.2695 170.794 36.9883 170.044C36.707 169.294 36.5664 168.485 36.5664 167.618V167.149C36.5664 166.157 36.7109 165.259 37 164.454C37.2891 163.649 37.6914 162.962 38.207 162.391C38.7227 161.813 39.332 161.372 40.0352 161.067C40.7383 160.762 41.5 160.61 42.3203 160.61C43.2266 160.61 44.0195 160.762 44.6992 161.067C45.3789 161.372 45.9414 161.802 46.3867 162.356C46.8398 162.903 47.1758 163.555 47.3945 164.313C47.6211 165.071 47.7344 165.907 47.7344 166.821V168.028H37.9375V166.001H44.9453V165.778C44.9297 165.27 44.8281 164.794 44.6406 164.348C44.4609 163.903 44.1836 163.544 43.8086 163.27C43.4336 162.997 42.9336 162.86 42.3086 162.86C41.8398 162.86 41.4219 162.962 41.0547 163.165C40.6953 163.36 40.3945 163.645 40.1523 164.02C39.9102 164.395 39.7227 164.848 39.5898 165.38C39.4648 165.903 39.4023 166.493 39.4023 167.149V167.618C39.4023 168.173 39.4766 168.688 39.625 169.165C39.7812 169.634 40.0078 170.044 40.3047 170.395C40.6016 170.747 40.9609 171.024 41.3828 171.227C41.8047 171.423 42.2852 171.52 42.8242 171.52C43.5039 171.52 44.1094 171.384 44.6406 171.11C45.1719 170.837 45.6328 170.45 46.0234 169.95L47.5117 171.391C47.2383 171.79 46.8828 172.173 46.4453 172.54C46.0078 172.899 45.4727 173.192 44.8398 173.419C44.2148 173.645 43.4883 173.759 42.6602 173.759ZM53.7578 173.524H50.9336V159.626C50.9336 158.68 51.1094 157.887 51.4609 157.247C51.8203 156.598 52.332 156.11 52.9961 155.782C53.6602 155.446 54.4453 155.278 55.3516 155.278C55.6328 155.278 55.9102 155.298 56.1836 155.337C56.457 155.368 56.7227 155.419 56.9805 155.489L56.9102 157.669C56.7539 157.63 56.582 157.602 56.3945 157.587C56.2148 157.571 56.0195 157.563 55.8086 157.563C55.3789 157.563 55.0078 157.645 54.6953 157.809C54.3906 157.966 54.1562 158.196 53.9922 158.501C53.8359 158.805 53.7578 159.18 53.7578 159.626V173.524ZM56.3711 160.844V162.907H48.9883V160.844H56.3711ZM66.0508 170.536V160.844H68.8867V173.524H66.2148L66.0508 170.536ZM66.4492 167.899L67.3984 167.876C67.3984 168.727 67.3047 169.512 67.1172 170.231C66.9297 170.942 66.6406 171.563 66.25 172.094C65.8594 172.618 65.3594 173.028 64.75 173.325C64.1406 173.614 63.4102 173.759 62.5586 173.759C61.9414 173.759 61.375 173.669 60.8594 173.489C60.3438 173.309 59.8984 173.032 59.5234 172.657C59.1562 172.282 58.8711 171.794 58.668 171.192C58.4648 170.591 58.3633 169.872 58.3633 169.036V160.844H61.1875V169.059C61.1875 169.52 61.2422 169.907 61.3516 170.219C61.4609 170.524 61.6094 170.77 61.7969 170.958C61.9844 171.145 62.2031 171.278 62.4531 171.356C62.7031 171.434 62.9688 171.473 63.25 171.473C64.0547 171.473 64.6875 171.317 65.1484 171.005C65.6172 170.684 65.9492 170.255 66.1445 169.716C66.3477 169.177 66.4492 168.571 66.4492 167.899ZM74.6172 163.259V173.524H71.793V160.844H74.4883L74.6172 163.259ZM78.4961 160.762L78.4727 163.387C78.3008 163.356 78.1133 163.333 77.9102 163.317C77.7148 163.302 77.5195 163.294 77.3242 163.294C76.8398 163.294 76.4141 163.364 76.0469 163.505C75.6797 163.637 75.3711 163.833 75.1211 164.091C74.8789 164.341 74.6914 164.645 74.5586 165.005C74.4258 165.364 74.3477 165.766 74.3242 166.212L73.6797 166.259C73.6797 165.462 73.7578 164.723 73.9141 164.044C74.0703 163.364 74.3047 162.766 74.6172 162.251C74.9375 161.735 75.3359 161.333 75.8125 161.044C76.2969 160.755 76.8555 160.61 77.4883 160.61C77.6602 160.61 77.8438 160.626 78.0391 160.657C78.2422 160.688 78.3945 160.723 78.4961 160.762ZM80.2773 155.524H83.1016V170.817L82.832 173.524H80.2773V155.524ZM91.375 167.067V167.313C91.375 168.251 91.2695 169.114 91.0586 169.903C90.8555 170.684 90.543 171.364 90.1211 171.942C89.707 172.52 89.1914 172.969 88.5742 173.29C87.9648 173.602 87.2578 173.759 86.4531 173.759C85.6641 173.759 84.9766 173.61 84.3906 173.313C83.8047 173.016 83.3125 172.594 82.9141 172.048C82.5234 171.501 82.207 170.848 81.9648 170.091C81.7227 169.333 81.5508 168.497 81.4492 167.583V166.798C81.5508 165.876 81.7227 165.04 81.9648 164.29C82.207 163.532 82.5234 162.88 82.9141 162.333C83.3125 161.778 83.8008 161.352 84.3789 161.055C84.9648 160.759 85.6484 160.61 86.4297 160.61C87.2422 160.61 87.957 160.766 88.5742 161.079C89.1992 161.391 89.7188 161.837 90.1328 162.415C90.5469 162.985 90.8555 163.665 91.0586 164.454C91.2695 165.243 91.375 166.114 91.375 167.067ZM88.5508 167.313V167.067C88.5508 166.497 88.5039 165.962 88.4102 165.462C88.3164 164.954 88.1602 164.509 87.9414 164.126C87.7305 163.743 87.4414 163.442 87.0742 163.223C86.7148 162.997 86.2656 162.884 85.7266 162.884C85.2266 162.884 84.7969 162.969 84.4375 163.141C84.0781 163.313 83.7773 163.548 83.5352 163.844C83.293 164.141 83.1016 164.485 82.9609 164.876C82.8281 165.266 82.7383 165.688 82.6914 166.141V168.262C82.7617 168.848 82.9102 169.387 83.1367 169.88C83.3711 170.364 83.6992 170.755 84.1211 171.052C84.543 171.341 85.0859 171.485 85.75 171.485C86.2734 171.485 86.7148 171.38 87.0742 171.169C87.4336 170.958 87.7188 170.665 87.9297 170.29C88.1484 169.907 88.3047 169.462 88.3984 168.954C88.5 168.446 88.5508 167.899 88.5508 167.313ZM96.7891 160.844V173.524H93.9531V160.844H96.7891ZM93.7656 157.516C93.7656 157.087 93.9062 156.731 94.1875 156.45C94.4766 156.161 94.875 156.016 95.3828 156.016C95.8828 156.016 96.2773 156.161 96.5664 156.45C96.8555 156.731 97 157.087 97 157.516C97 157.938 96.8555 158.29 96.5664 158.571C96.2773 158.852 95.8828 158.993 95.3828 158.993C94.875 158.993 94.4766 158.852 94.1875 158.571C93.9062 158.29 93.7656 157.938 93.7656 157.516ZM106.996 170.091C106.996 169.809 106.926 169.555 106.785 169.329C106.645 169.094 106.375 168.884 105.977 168.696C105.586 168.509 105.008 168.337 104.242 168.18C103.57 168.032 102.953 167.856 102.391 167.653C101.836 167.442 101.359 167.188 100.961 166.891C100.562 166.594 100.254 166.243 100.035 165.837C99.8164 165.43 99.707 164.962 99.707 164.43C99.707 163.915 99.8203 163.427 100.047 162.966C100.273 162.505 100.598 162.098 101.02 161.747C101.441 161.395 101.953 161.118 102.555 160.915C103.164 160.712 103.844 160.61 104.594 160.61C105.656 160.61 106.566 160.79 107.324 161.149C108.09 161.501 108.676 161.981 109.082 162.591C109.488 163.192 109.691 163.872 109.691 164.63H106.867C106.867 164.294 106.781 163.981 106.609 163.692C106.445 163.395 106.195 163.157 105.859 162.977C105.523 162.79 105.102 162.696 104.594 162.696C104.109 162.696 103.707 162.774 103.387 162.93C103.074 163.079 102.84 163.274 102.684 163.516C102.535 163.759 102.461 164.024 102.461 164.313C102.461 164.524 102.5 164.716 102.578 164.887C102.664 165.052 102.805 165.204 103 165.344C103.195 165.477 103.461 165.602 103.797 165.719C104.141 165.837 104.57 165.95 105.086 166.059C106.055 166.262 106.887 166.524 107.582 166.844C108.285 167.157 108.824 167.563 109.199 168.063C109.574 168.555 109.762 169.18 109.762 169.938C109.762 170.501 109.641 171.016 109.398 171.485C109.164 171.946 108.82 172.348 108.367 172.692C107.914 173.028 107.371 173.29 106.738 173.477C106.113 173.665 105.41 173.759 104.629 173.759C103.48 173.759 102.508 173.555 101.711 173.149C100.914 172.735 100.309 172.208 99.8945 171.567C99.4883 170.919 99.2852 170.247 99.2852 169.552H102.016C102.047 170.075 102.191 170.493 102.449 170.805C102.715 171.11 103.043 171.333 103.434 171.473C103.832 171.606 104.242 171.673 104.664 171.673C105.172 171.673 105.598 171.606 105.941 171.473C106.285 171.333 106.547 171.145 106.727 170.911C106.906 170.669 106.996 170.395 106.996 170.091ZM115.023 155.524V173.524H112.211V155.524H115.023ZM114.531 166.716L113.617 166.704C113.625 165.829 113.746 165.02 113.98 164.278C114.223 163.536 114.559 162.891 114.988 162.344C115.426 161.79 115.949 161.364 116.559 161.067C117.168 160.762 117.844 160.61 118.586 160.61C119.211 160.61 119.773 160.696 120.273 160.868C120.781 161.04 121.219 161.317 121.586 161.7C121.953 162.075 122.23 162.567 122.418 163.177C122.613 163.778 122.711 164.512 122.711 165.38V173.524H119.875V165.356C119.875 164.747 119.785 164.262 119.605 163.903C119.434 163.544 119.18 163.286 118.844 163.13C118.508 162.966 118.098 162.884 117.613 162.884C117.105 162.884 116.656 162.985 116.266 163.188C115.883 163.391 115.562 163.669 115.305 164.02C115.047 164.372 114.852 164.778 114.719 165.239C114.594 165.7 114.531 166.192 114.531 166.716ZM128.395 163.423V173.524H125.57V160.844H128.23L128.395 163.423ZM127.938 166.716L126.977 166.704C126.977 165.829 127.086 165.02 127.305 164.278C127.523 163.536 127.844 162.891 128.266 162.344C128.688 161.79 129.211 161.364 129.836 161.067C130.469 160.762 131.199 160.61 132.027 160.61C132.605 160.61 133.133 160.696 133.609 160.868C134.094 161.032 134.512 161.294 134.863 161.653C135.223 162.012 135.496 162.473 135.684 163.036C135.879 163.598 135.977 164.278 135.977 165.075V173.524H133.152V165.321C133.152 164.704 133.059 164.219 132.871 163.868C132.691 163.516 132.43 163.266 132.086 163.118C131.75 162.962 131.348 162.884 130.879 162.884C130.348 162.884 129.895 162.985 129.52 163.188C129.152 163.391 128.852 163.669 128.617 164.02C128.383 164.372 128.211 164.778 128.102 165.239C127.992 165.7 127.938 166.192 127.938 166.716ZM135.801 165.966L134.477 166.259C134.477 165.493 134.582 164.77 134.793 164.091C135.012 163.403 135.328 162.802 135.742 162.286C136.164 161.762 136.684 161.352 137.301 161.055C137.918 160.759 138.625 160.61 139.422 160.61C140.07 160.61 140.648 160.7 141.156 160.88C141.672 161.052 142.109 161.325 142.469 161.7C142.828 162.075 143.102 162.563 143.289 163.165C143.477 163.759 143.57 164.477 143.57 165.321V173.524H140.734V165.309C140.734 164.669 140.641 164.173 140.453 163.821C140.273 163.469 140.016 163.227 139.68 163.094C139.344 162.954 138.941 162.884 138.473 162.884C138.035 162.884 137.648 162.966 137.312 163.13C136.984 163.286 136.707 163.509 136.48 163.798C136.254 164.079 136.082 164.403 135.965 164.77C135.855 165.137 135.801 165.536 135.801 165.966ZM152.066 173.759C151.129 173.759 150.281 173.606 149.523 173.302C148.773 172.989 148.133 172.555 147.602 172.001C147.078 171.446 146.676 170.794 146.395 170.044C146.113 169.294 145.973 168.485 145.973 167.618V167.149C145.973 166.157 146.117 165.259 146.406 164.454C146.695 163.649 147.098 162.962 147.613 162.391C148.129 161.813 148.738 161.372 149.441 161.067C150.145 160.762 150.906 160.61 151.727 160.61C152.633 160.61 153.426 160.762 154.105 161.067C154.785 161.372 155.348 161.802 155.793 162.356C156.246 162.903 156.582 163.555 156.801 164.313C157.027 165.071 157.141 165.907 157.141 166.821V168.028H147.344V166.001H154.352V165.778C154.336 165.27 154.234 164.794 154.047 164.348C153.867 163.903 153.59 163.544 153.215 163.27C152.84 162.997 152.34 162.86 151.715 162.86C151.246 162.86 150.828 162.962 150.461 163.165C150.102 163.36 149.801 163.645 149.559 164.02C149.316 164.395 149.129 164.848 148.996 165.38C148.871 165.903 148.809 166.493 148.809 167.149V167.618C148.809 168.173 148.883 168.688 149.031 169.165C149.188 169.634 149.414 170.044 149.711 170.395C150.008 170.747 150.367 171.024 150.789 171.227C151.211 171.423 151.691 171.52 152.23 171.52C152.91 171.52 153.516 171.384 154.047 171.11C154.578 170.837 155.039 170.45 155.43 169.95L156.918 171.391C156.645 171.79 156.289 172.173 155.852 172.54C155.414 172.899 154.879 173.192 154.246 173.419C153.621 173.645 152.895 173.759 152.066 173.759ZM162.145 163.552V173.524H159.32V160.844H161.98L162.145 163.552ZM161.641 166.716L160.727 166.704C160.734 165.805 160.859 164.981 161.102 164.231C161.352 163.481 161.695 162.837 162.133 162.298C162.578 161.759 163.109 161.344 163.727 161.055C164.344 160.759 165.031 160.61 165.789 160.61C166.398 160.61 166.949 160.696 167.441 160.868C167.941 161.032 168.367 161.302 168.719 161.677C169.078 162.052 169.352 162.54 169.539 163.141C169.727 163.735 169.82 164.466 169.82 165.333V173.524H166.984V165.321C166.984 164.712 166.895 164.231 166.715 163.88C166.543 163.52 166.289 163.266 165.953 163.118C165.625 162.962 165.215 162.884 164.723 162.884C164.238 162.884 163.805 162.985 163.422 163.188C163.039 163.391 162.715 163.669 162.449 164.02C162.191 164.372 161.992 164.778 161.852 165.239C161.711 165.7 161.641 166.192 161.641 166.716ZM178.516 160.844V162.907H171.367V160.844H178.516ZM173.43 157.739H176.254V170.02C176.254 170.411 176.309 170.712 176.418 170.923C176.535 171.126 176.695 171.262 176.898 171.333C177.102 171.403 177.34 171.438 177.613 171.438C177.809 171.438 177.996 171.427 178.176 171.403C178.355 171.38 178.5 171.356 178.609 171.333L178.621 173.489C178.387 173.559 178.113 173.622 177.801 173.677C177.496 173.731 177.145 173.759 176.746 173.759C176.098 173.759 175.523 173.645 175.023 173.419C174.523 173.184 174.133 172.805 173.852 172.282C173.57 171.759 173.43 171.063 173.43 170.196V157.739Z" fill="#1976D2"/>
<rect x="60.5" y="30.0242" width="79" height="79" rx="39.5" fill="#F0F8FF"/>
<rect x="60.5" y="30.0242" width="79" height="79" rx="39.5" stroke="#42A5F5"/>
<path fill-rule="evenodd" clip-rule="evenodd" d="M119.268 67.1933C118.981 67.1933 118.728 66.9896 118.678 66.7022C117.141 58.0044 109.717 51.4729 100.897 50.9613V53.2653C100.897 53.4848 100.774 53.6885 100.578 53.7926C100.382 53.8967 100.145 53.8831 99.9609 53.7587L93.5543 49.4223C93.3904 49.3114 93.2925 49.1281 93.2925 48.9311C93.2925 48.7342 93.3904 48.5487 93.5543 48.44L99.9609 44.1036C100.145 43.9791 100.382 43.9656 100.578 44.0697C100.774 44.1715 100.897 44.3752 100.897 44.5947V46.9553C105.997 47.2043 110.916 49.1348 114.81 52.4301C118.853 55.8498 121.617 60.5914 122.594 65.781C122.653 66.1047 122.439 66.4148 122.113 66.4758C121.788 66.5369 121.476 66.3219 121.414 66.0005C119.513 55.8838 110.625 48.365 100.282 48.1251C99.956 48.1161 99.6964 47.8536 99.6964 47.5299V45.7193L94.954 48.9286L99.6964 52.1402V50.3409C99.6964 50.1802 99.7625 50.0263 99.8763 49.9132C99.9924 49.8023 100.147 49.7389 100.309 49.7457C109.964 49.9969 118.184 57.0425 119.852 66.4982C119.909 66.8219 119.691 67.1296 119.365 67.1862C119.329 67.193 119.294 67.1953 119.26 67.1953L119.268 67.1933Z" fill="#1976D2"/>
<path fill-rule="evenodd" clip-rule="evenodd" d="M78.4889 76.3527C78.2909 76.3527 78.1064 76.2553 77.9926 76.0924L73.6304 69.7237C73.5051 69.5426 73.4915 69.305 73.5962 69.1104C73.7009 68.9157 73.9036 68.7935 74.1267 68.7935H76.5013C76.7518 63.7238 78.6938 58.8309 82.0065 54.9582C85.4489 50.9364 90.2188 48.1886 95.4393 47.2245C95.7649 47.1634 96.0768 47.3784 96.1383 47.702C96.1997 48.0257 95.9834 48.3358 95.6579 48.3946C85.4808 50.2731 77.9195 59.1087 77.6759 69.4022C77.6691 69.7236 77.4027 69.9838 77.0772 69.9838H75.2558L78.4842 74.6982L81.7126 69.9838H79.9026C79.741 69.9838 79.5862 69.9182 79.4746 69.805C79.3608 69.6896 79.3016 69.5357 79.3038 69.375C79.5452 59.7675 86.6349 51.597 96.1562 49.9451C96.4818 49.8885 96.7914 50.1058 96.8484 50.4294C96.9053 50.7531 96.6867 51.0632 96.3611 51.1197C87.6004 52.6384 81.0294 60.0186 80.5241 68.7958H82.8418C83.0626 68.7958 83.2676 68.918 83.3723 69.1127C83.477 69.3073 83.4634 69.5427 83.3381 69.726L78.9759 76.0947C78.8643 76.2576 78.6799 76.355 78.4818 76.355L78.4889 76.3527Z" fill="#1976D2"/>
<path fill-rule="evenodd" clip-rule="evenodd" d="M99.0727 96C98.9771 96 98.8814 95.9773 98.7927 95.9298C98.5968 95.828 98.4739 95.6243 98.4739 95.4047V93.0442C93.374 92.7952 88.4519 90.8647 84.5561 87.5694C80.5104 84.1497 77.7462 79.4058 76.7763 74.2162C76.7148 73.8925 76.9311 73.5824 77.2567 73.5236C77.5823 73.4625 77.8942 73.6775 77.9557 74.0012C79.8454 84.1179 88.7336 91.6344 99.0885 91.8742C99.414 91.8833 99.6736 92.1458 99.6736 92.4694V94.28L104.416 91.0707L99.6736 87.8592V89.6585C99.6736 89.8192 99.6076 89.9731 99.4937 90.0862C99.3776 90.1971 99.2228 90.2628 99.0611 90.2537C89.3964 90.0138 81.1771 82.9661 79.5154 73.5012C79.4585 73.1775 79.6771 72.8674 80.0026 72.8109C80.3282 72.7566 80.6378 72.9716 80.6948 73.2952C82.2225 82.0041 89.6467 88.5338 98.4762 89.0361V86.7321C98.4762 86.5126 98.5992 86.3089 98.795 86.207C98.9908 86.1029 99.2276 86.1165 99.412 86.241L105.819 90.5774C105.983 90.6883 106.08 90.8716 106.08 91.0685C106.08 91.2654 105.983 91.451 105.819 91.5597L99.412 95.896C99.3118 95.9662 99.1934 96.0002 99.075 96.0002L99.0727 96Z" fill="#1976D2"/>
<path fill-rule="evenodd" clip-rule="evenodd" d="M103.82 92.7815C103.538 92.7815 103.285 92.5823 103.233 92.2949C103.171 91.9712 103.387 91.6611 103.711 91.6001C113.888 89.7103 121.449 80.8744 121.693 70.5925C121.699 70.2689 121.966 70.0108 122.291 70.0108H124.113L120.882 65.2965L117.654 70.0108H119.464C119.625 70.0108 119.78 70.0765 119.894 70.1919C120.005 70.3073 120.067 70.4635 120.062 70.6219C119.81 80.2201 112.72 88.3907 103.21 90.0495C102.884 90.1061 102.575 89.8911 102.516 89.5652C102.459 89.2415 102.677 88.9314 103.003 88.8749C111.753 87.3472 118.323 79.9667 118.84 71.1988H116.522C116.299 71.1988 116.096 71.0766 115.992 70.8819C115.887 70.6873 115.901 70.4519 116.026 70.2686L120.388 63.8999C120.5 63.737 120.686 63.6396 120.882 63.6396C121.08 63.6396 121.267 63.737 121.376 63.8999L125.738 70.2686C125.864 70.4497 125.877 70.6873 125.773 70.8819C125.668 71.0766 125.465 71.1988 125.244 71.1988H122.867C122.619 76.2662 120.675 81.1591 117.362 85.0295C113.922 89.049 109.152 91.7968 103.929 92.7655C103.893 92.7723 103.854 92.7768 103.818 92.7768L103.82 92.7815Z" fill="#1976D2"/>
<path fill-rule="evenodd" clip-rule="evenodd" d="M89.0844 80.7504H110.288V59.2452H89.0844V80.7504ZM110.886 81.9409H88.4852C88.1551 81.9409 87.8865 81.6738 87.8865 81.3457V58.6475C87.8865 58.3193 88.1551 58.0522 88.4852 58.0522H110.886C111.216 58.0522 111.485 58.3193 111.485 58.6475V81.3457C111.485 81.6739 111.216 81.9409 110.886 81.9409Z" fill="#1976D2"/>
<path fill-rule="evenodd" clip-rule="evenodd" d="M96.6278 59.2446V65.6562L99.2119 62.3066C99.3257 62.1595 99.501 62.0735 99.6877 62.0735C99.8744 62.0735 100.05 62.1595 100.164 62.3066L102.748 65.6562V59.2446H96.6278ZM103.344 68.0079C103.162 68.0079 102.984 67.9242 102.868 67.7748L99.6852 63.6489L96.5023 67.7748C96.3452 67.9785 96.0766 68.0577 95.8353 67.9763C95.5917 67.8948 95.4277 67.6662 95.4277 67.4127V58.6494C95.4277 58.3212 95.6964 58.0542 96.0265 58.0542H103.342C103.672 58.0542 103.941 58.3213 103.941 58.6494V67.4127C103.941 67.6662 103.777 67.8948 103.533 67.9763C103.469 67.9989 103.406 68.0079 103.339 68.0079L103.344 68.0079Z" fill="#1976D2"/>
<path fill-rule="evenodd" clip-rule="evenodd" d="M98.3785 77.2555C98.3102 77.2555 98.2419 77.2442 98.1758 77.2193C96.9328 76.7734 95.9606 75.807 95.5098 74.569C95.1045 73.46 95.1569 72.2605 95.6623 71.1945C96.1655 70.1285 97.058 69.3205 98.1759 68.9177C98.4878 68.8068 98.8316 68.9652 98.9431 69.2753C99.057 69.5853 98.8953 69.9248 98.5857 70.038C97.7683 70.3345 97.1149 70.9229 96.7484 71.7015C96.3818 72.4801 96.3431 73.3537 96.6391 74.1639C96.9624 75.0556 97.6909 75.7776 98.5857 76.0989C98.8976 76.2098 99.057 76.5539 98.9454 76.8617C98.8566 77.1038 98.6267 77.2555 98.383 77.2555L98.3785 77.2555Z" fill="#1976D2"/>
<path fill-rule="evenodd" clip-rule="evenodd" d="M100.992 77.2555C100.746 77.2555 100.516 77.1038 100.43 76.8616C100.318 76.5516 100.477 76.2098 100.789 76.0989C101.684 75.7776 102.413 75.0533 102.736 74.1639C103.032 73.3514 102.993 72.4777 102.627 71.7015C102.26 70.9229 101.607 70.3345 100.789 70.038C100.477 69.9248 100.318 69.5831 100.432 69.2753C100.546 68.9652 100.89 68.8068 101.199 68.9177C102.317 69.3228 103.209 70.1308 103.713 71.1945C104.216 72.2605 104.27 73.46 103.863 74.569C103.414 75.8047 102.442 76.7712 101.197 77.217C101.129 77.2419 101.06 77.2532 100.994 77.2532L100.992 77.2555Z" fill="#1976D2"/>
<path fill-rule="evenodd" clip-rule="evenodd" d="M100.992 72.6251H98.3783C98.0482 72.6251 97.7795 72.358 97.7795 72.0299V69.4792C97.7795 69.1488 98.0482 68.884 98.3783 68.884C98.7084 68.884 98.9771 69.1488 98.9771 69.4792V71.4347H100.391V69.4792C100.391 69.1488 100.66 68.884 100.99 68.884C101.32 68.884 101.588 69.1488 101.588 69.4792V72.0299C101.588 72.3581 101.32 72.6251 100.99 72.6251H100.992Z" fill="#1976D2"/>
<path fill-rule="evenodd" clip-rule="evenodd" d="M100.992 81.9403H98.3783C98.0482 81.9403 97.7795 81.6733 97.7795 81.3451V76.658C97.7795 76.3298 98.0482 76.0627 98.3783 76.0627C98.7084 76.0627 98.9771 76.3298 98.9771 76.658V80.7476H100.391V76.658C100.391 76.3298 100.66 76.0627 100.99 76.0627C101.32 76.0627 101.588 76.3298 101.588 76.658V81.3429C101.588 81.671 101.32 81.9381 100.99 81.9381L100.992 81.9403Z" fill="#1976D2"/>
<defs>
<filter id="filter0_f_614_227" x="153.4" y="-30.6" width="77.2" height="77.2" filterUnits="userSpaceOnUse" color-interpolation-filters="sRGB">
<feFlood flood-opacity="0" result="BackgroundImageFix"/>
<feBlend mode="normal" in="SourceGraphic" in2="BackgroundImageFix" result="shape"/>
<feGaussianBlur stdDeviation="11.3" result="effect1_foregroundBlur_614_227"/>
</filter>
<filter id="filter1_f_614_227" x="-30.6" y="-30.6" width="77.2" height="77.2" filterUnits="userSpaceOnUse" color-interpolation-filters="sRGB">
<feFlood flood-opacity="0" result="BackgroundImageFix"/>
<feBlend mode="normal" in="SourceGraphic" in2="BackgroundImageFix" result="shape"/>
<feGaussianBlur stdDeviation="11.3" result="effect1_foregroundBlur_614_227"/>
</filter>
<filter id="filter2_f_614_227" x="-30.6" y="153.4" width="77.2" height="77.2" filterUnits="userSpaceOnUse" color-interpolation-filters="sRGB">
<feFlood flood-opacity="0" result="BackgroundImageFix"/>
<feBlend mode="normal" in="SourceGraphic" in2="BackgroundImageFix" result="shape"/>
<feGaussianBlur stdDeviation="11.3" result="effect1_foregroundBlur_614_227"/>
</filter>
<filter id="filter3_f_614_227" x="153.4" y="153.4" width="77.2" height="77.2" filterUnits="userSpaceOnUse" color-interpolation-filters="sRGB">
<feFlood flood-opacity="0" result="BackgroundImageFix"/>
<feBlend mode="normal" in="SourceGraphic" in2="BackgroundImageFix" result="shape"/>
<feGaussianBlur stdDeviation="11.3" result="effect1_foregroundBlur_614_227"/>
</filter>
</defs>
</svg>
