<svg width="200" height="200" viewBox="0 0 200 200" fill="none" xmlns="http://www.w3.org/2000/svg">
<mask id="mask0_614_203" style="mask-type:alpha" maskUnits="userSpaceOnUse" x="0" y="0" width="200" height="200">
<rect x="1" y="1" width="198" height="198" stroke="#5F94EF" stroke-width="2"/>
</mask>
<g mask="url(#mask0_614_203)">
<g filter="url(#filter0_f_614_203)">
<circle cx="192" cy="8" r="16" fill="#066EC2"/>
</g>
<g filter="url(#filter1_f_614_203)">
<circle cx="8" cy="8" r="16" fill="#066EC2"/>
</g>
<g filter="url(#filter2_f_614_203)">
<circle cx="8" cy="192" r="16" fill="#066EC2"/>
</g>
<g filter="url(#filter3_f_614_203)">
<circle cx="192" cy="192" r="16" fill="#066EC2"/>
</g>
</g>
<rect x="11" y="11" width="178" height="178" stroke="#5F94EF" stroke-width="2"/>
<rect x="10" y="9.52417" width="180" height="180" fill="#F5FAFF"/>
<path d="M70.7109 169.13C70.7109 168.778 70.6562 168.466 70.5469 168.192C70.4453 167.919 70.2617 167.669 69.9961 167.442C69.7305 167.216 69.3555 166.997 68.8711 166.786C68.3945 166.567 67.7852 166.344 67.043 166.118C66.2305 165.868 65.4805 165.591 64.793 165.286C64.1133 164.973 63.5195 164.614 63.0117 164.208C62.5039 163.794 62.1094 163.321 61.8281 162.79C61.5469 162.251 61.4062 161.63 61.4062 160.927C61.4062 160.231 61.5508 159.598 61.8398 159.028C62.1367 158.458 62.5547 157.966 63.0938 157.552C63.6406 157.13 64.2852 156.805 65.0273 156.579C65.7695 156.344 66.5898 156.227 67.4883 156.227C68.7539 156.227 69.8438 156.462 70.7578 156.93C71.6797 157.399 72.3867 158.028 72.8789 158.817C73.3789 159.606 73.6289 160.477 73.6289 161.43H70.7109C70.7109 160.868 70.5898 160.372 70.3477 159.942C70.1133 159.505 69.7539 159.161 69.2695 158.911C68.793 158.661 68.1875 158.536 67.4531 158.536C66.7578 158.536 66.1797 158.641 65.7188 158.852C65.2578 159.063 64.9141 159.348 64.6875 159.708C64.4609 160.067 64.3477 160.473 64.3477 160.927C64.3477 161.247 64.4219 161.54 64.5703 161.805C64.7188 162.063 64.9453 162.305 65.25 162.532C65.5547 162.751 65.9375 162.958 66.3984 163.153C66.8594 163.348 67.4023 163.536 68.0273 163.716C68.9727 163.997 69.7969 164.309 70.5 164.653C71.2031 164.989 71.7891 165.372 72.2578 165.802C72.7266 166.231 73.0781 166.719 73.3125 167.266C73.5469 167.805 73.6641 168.419 73.6641 169.106C73.6641 169.825 73.5195 170.473 73.2305 171.052C72.9414 171.622 72.5273 172.11 71.9883 172.516C71.457 172.915 70.8164 173.223 70.0664 173.442C69.3242 173.653 68.4961 173.759 67.582 173.759C66.7617 173.759 65.9531 173.649 65.1562 173.43C64.3672 173.212 63.6484 172.88 63 172.434C62.3516 171.981 61.8359 171.419 61.4531 170.747C61.0703 170.067 60.8789 169.274 60.8789 168.368H63.8203C63.8203 168.923 63.9141 169.395 64.1016 169.786C64.2969 170.177 64.5664 170.497 64.9102 170.747C65.2539 170.989 65.6523 171.169 66.1055 171.286C66.5664 171.403 67.0586 171.462 67.582 171.462C68.2695 171.462 68.8438 171.364 69.3047 171.169C69.7734 170.973 70.125 170.7 70.3594 170.348C70.5938 169.997 70.7109 169.591 70.7109 169.13ZM81.5742 173.759C80.6367 173.759 79.7891 173.606 79.0312 173.302C78.2812 172.989 77.6406 172.555 77.1094 172.001C76.5859 171.446 76.1836 170.794 75.9023 170.044C75.6211 169.294 75.4805 168.485 75.4805 167.618V167.149C75.4805 166.157 75.625 165.259 75.9141 164.454C76.2031 163.649 76.6055 162.962 77.1211 162.391C77.6367 161.813 78.2461 161.372 78.9492 161.067C79.6523 160.762 80.4141 160.61 81.2344 160.61C82.1406 160.61 82.9336 160.762 83.6133 161.067C84.293 161.372 84.8555 161.802 85.3008 162.356C85.7539 162.903 86.0898 163.555 86.3086 164.313C86.5352 165.071 86.6484 165.907 86.6484 166.821V168.028H76.8516V166.001H83.8594V165.778C83.8438 165.27 83.7422 164.794 83.5547 164.348C83.375 163.903 83.0977 163.544 82.7227 163.27C82.3477 162.997 81.8477 162.86 81.2227 162.86C80.7539 162.86 80.3359 162.962 79.9688 163.165C79.6094 163.36 79.3086 163.645 79.0664 164.02C78.8242 164.395 78.6367 164.848 78.5039 165.38C78.3789 165.903 78.3164 166.493 78.3164 167.149V167.618C78.3164 168.173 78.3906 168.688 78.5391 169.165C78.6953 169.634 78.9219 170.044 79.2188 170.395C79.5156 170.747 79.875 171.024 80.2969 171.227C80.7188 171.423 81.1992 171.52 81.7383 171.52C82.418 171.52 83.0234 171.384 83.5547 171.11C84.0859 170.837 84.5469 170.45 84.9375 169.95L86.4258 171.391C86.1523 171.79 85.7969 172.173 85.3594 172.54C84.9219 172.899 84.3867 173.192 83.7539 173.419C83.1289 173.645 82.4023 173.759 81.5742 173.759ZM91.6875 163.259V173.524H88.8633V160.844H91.5586L91.6875 163.259ZM95.5664 160.762L95.543 163.387C95.3711 163.356 95.1836 163.333 94.9805 163.317C94.7852 163.302 94.5898 163.294 94.3945 163.294C93.9102 163.294 93.4844 163.364 93.1172 163.505C92.75 163.637 92.4414 163.833 92.1914 164.091C91.9492 164.341 91.7617 164.645 91.6289 165.005C91.4961 165.364 91.418 165.766 91.3945 166.212L90.75 166.259C90.75 165.462 90.8281 164.723 90.9844 164.044C91.1406 163.364 91.375 162.766 91.6875 162.251C92.0078 161.735 92.4062 161.333 92.8828 161.044C93.3672 160.755 93.9258 160.61 94.5586 160.61C94.7305 160.61 94.9141 160.626 95.1094 160.657C95.3125 160.688 95.4648 160.723 95.5664 160.762ZM101.672 171.286L104.777 160.844H107.707L103.301 173.524H101.473L101.672 171.286ZM99.293 160.844L102.457 171.333L102.609 173.524H100.781L96.3516 160.844H99.293ZM112.477 160.844V173.524H109.641V160.844H112.477ZM109.453 157.516C109.453 157.087 109.594 156.731 109.875 156.45C110.164 156.161 110.562 156.016 111.07 156.016C111.57 156.016 111.965 156.161 112.254 156.45C112.543 156.731 112.688 157.087 112.688 157.516C112.688 157.938 112.543 158.29 112.254 158.571C111.965 158.852 111.57 158.993 111.07 158.993C110.562 158.993 110.164 158.852 109.875 158.571C109.594 158.29 109.453 157.938 109.453 157.516ZM120.75 171.509C121.211 171.509 121.625 171.419 121.992 171.239C122.367 171.052 122.668 170.794 122.895 170.466C123.129 170.137 123.258 169.759 123.281 169.329H125.941C125.926 170.149 125.684 170.895 125.215 171.567C124.746 172.239 124.125 172.774 123.352 173.173C122.578 173.563 121.723 173.759 120.785 173.759C119.816 173.759 118.973 173.594 118.254 173.266C117.535 172.93 116.938 172.469 116.461 171.884C115.984 171.298 115.625 170.622 115.383 169.856C115.148 169.091 115.031 168.27 115.031 167.395V166.985C115.031 166.11 115.148 165.29 115.383 164.524C115.625 163.751 115.984 163.071 116.461 162.485C116.938 161.899 117.535 161.442 118.254 161.114C118.973 160.778 119.812 160.61 120.773 160.61C121.789 160.61 122.68 160.813 123.445 161.219C124.211 161.618 124.812 162.177 125.25 162.895C125.695 163.606 125.926 164.434 125.941 165.38H123.281C123.258 164.911 123.141 164.489 122.93 164.114C122.727 163.731 122.438 163.427 122.062 163.2C121.695 162.973 121.254 162.86 120.738 162.86C120.168 162.86 119.695 162.977 119.32 163.212C118.945 163.438 118.652 163.751 118.441 164.149C118.23 164.54 118.078 164.981 117.984 165.473C117.898 165.958 117.855 166.462 117.855 166.985V167.395C117.855 167.919 117.898 168.427 117.984 168.919C118.07 169.411 118.219 169.852 118.43 170.243C118.648 170.626 118.945 170.934 119.32 171.169C119.695 171.395 120.172 171.509 120.75 171.509ZM133.699 173.759C132.762 173.759 131.914 173.606 131.156 173.302C130.406 172.989 129.766 172.555 129.234 172.001C128.711 171.446 128.309 170.794 128.027 170.044C127.746 169.294 127.605 168.485 127.605 167.618V167.149C127.605 166.157 127.75 165.259 128.039 164.454C128.328 163.649 128.73 162.962 129.246 162.391C129.762 161.813 130.371 161.372 131.074 161.067C131.777 160.762 132.539 160.61 133.359 160.61C134.266 160.61 135.059 160.762 135.738 161.067C136.418 161.372 136.98 161.802 137.426 162.356C137.879 162.903 138.215 163.555 138.434 164.313C138.66 165.071 138.773 165.907 138.773 166.821V168.028H128.977V166.001H135.984V165.778C135.969 165.27 135.867 164.794 135.68 164.348C135.5 163.903 135.223 163.544 134.848 163.27C134.473 162.997 133.973 162.86 133.348 162.86C132.879 162.86 132.461 162.962 132.094 163.165C131.734 163.36 131.434 163.645 131.191 164.02C130.949 164.395 130.762 164.848 130.629 165.38C130.504 165.903 130.441 166.493 130.441 167.149V167.618C130.441 168.173 130.516 168.688 130.664 169.165C130.82 169.634 131.047 170.044 131.344 170.395C131.641 170.747 132 171.024 132.422 171.227C132.844 171.423 133.324 171.52 133.863 171.52C134.543 171.52 135.148 171.384 135.68 171.11C136.211 170.837 136.672 170.45 137.062 169.95L138.551 171.391C138.277 171.79 137.922 172.173 137.484 172.54C137.047 172.899 136.512 173.192 135.879 173.419C135.254 173.645 134.527 173.759 133.699 173.759Z" fill="#1976D2"/>
<rect x="60.5" y="30.0242" width="79" height="79" rx="39.5" fill="#F0F8FF"/>
<rect x="60.5" y="30.0242" width="79" height="79" rx="39.5" stroke="#42A5F5"/>
<path d="M103.204 82.0767C103.349 82.4192 103.187 82.8126 102.844 82.9542C102.029 83.2938 101.187 83.5797 100.33 83.8033V86.2037C100.33 86.5745 100.029 86.8745 99.6577 86.8745H91.3114C90.9397 86.8745 90.639 86.5745 90.639 86.2037V83.8033C88.9765 83.3674 87.3849 82.7108 85.8956 81.8418L84.1933 83.5402C83.9295 83.8034 83.5039 83.8034 83.2429 83.5402L77.3419 77.6526C77.2171 77.528 77.1462 77.3553 77.1462 77.177C77.1462 76.9987 77.2171 76.8289 77.3419 76.7015L79.0442 75.0031C78.1732 73.5199 77.515 71.9319 77.0782 70.2704H74.6724C74.3007 70.2704 74 69.9704 74 69.5996V61.2721C74 60.9013 74.3007 60.6013 74.6724 60.6013H77.0782C77.5151 58.9425 78.1732 57.3546 79.0442 55.8714L77.3419 54.173C77.2171 54.0485 77.1462 53.8758 77.1462 53.6975C77.1462 53.5192 77.2171 53.3493 77.3419 53.222L83.2429 47.3344C83.5068 47.0711 83.9323 47.0711 84.1933 47.3344L85.8956 49.0327C87.385 48.1638 88.9737 47.507 90.639 47.0712V44.6708C90.639 44.3 90.9397 44 91.3114 44H99.6577C100.029 44 100.33 44.3 100.33 44.6708V47.0712C101.993 47.5071 103.584 48.1638 105.071 49.0327L106.773 47.3344C107.037 47.0711 107.462 47.0711 107.723 47.3344L113.624 53.222C113.888 53.4852 113.888 53.9098 113.624 54.1702L111.922 55.8686C112.793 57.3518 113.451 58.9398 113.888 60.6013H116.294C116.666 60.6013 116.966 60.9013 116.966 61.2721V69.5996C116.966 69.9704 116.666 70.2704 116.294 70.2704H113.888C113.695 70.9979 113.46 71.7197 113.182 72.416C113.046 72.7613 112.654 72.9311 112.308 72.7924C111.962 72.6566 111.794 72.2659 111.931 71.9206C112.248 71.1195 112.509 70.2874 112.705 69.4467C112.776 69.1438 113.048 68.9287 113.36 68.9287H115.619V61.9428H113.36C113.048 61.9428 112.776 61.7277 112.705 61.4248C112.268 59.5453 111.525 57.7621 110.501 56.1203C110.336 55.8543 110.376 55.5118 110.597 55.291L112.194 53.6974L107.244 48.758L105.644 50.3545C105.422 50.5753 105.079 50.6149 104.813 50.4507C103.167 49.4288 101.38 48.6873 99.4988 48.2513C99.1953 48.1806 98.9797 47.9088 98.9797 47.5975V45.3443H91.9779V47.5975C91.9779 47.9088 91.7623 48.1806 91.4588 48.2513C89.5779 48.6872 87.7905 49.4288 86.145 50.4507C85.8784 50.6149 85.5351 50.5753 85.3138 50.3545L83.7138 48.758L78.7632 53.6974L80.3632 55.2938C80.5845 55.5146 80.6243 55.8571 80.4597 56.1232C79.4355 57.7649 78.6922 59.5482 78.2553 61.4248C78.1844 61.7277 77.912 61.9428 77.6 61.9428H75.3417V68.9287H77.6C77.912 68.9287 78.1844 69.1438 78.2553 69.4467C78.6922 71.3262 79.4355 73.1095 80.4597 74.7512C80.6242 75.0172 80.5845 75.3597 80.3632 75.5805L78.766 77.1741L83.7166 82.1135L85.3167 80.517C85.5379 80.2962 85.8812 80.2566 86.1479 80.4208C87.7933 81.4427 89.5835 82.1843 91.4616 82.6202C91.7652 82.691 91.9808 82.9627 91.9808 83.2741V85.5272H98.9825V83.2741C98.9825 82.9627 99.1981 82.6909 99.5017 82.6202C100.461 82.3966 101.408 82.0909 102.319 81.7116C102.662 81.5672 103.056 81.7286 103.198 82.0711L103.204 82.0767ZM123.829 93.7186C122.354 95.1904 120.393 96 118.305 96C116.22 96 114.257 95.1904 112.781 93.7186C111.102 92.0429 110.35 89.7841 110.523 87.5876L100.511 77.5986C96.3779 79.0054 91.7707 77.9524 88.6644 74.8557C85.5323 71.7308 84.477 67.021 85.9777 62.8595C86.0543 62.6444 86.2388 62.483 86.4629 62.4321C86.687 62.3811 86.9225 62.4491 87.0842 62.6132L93.0958 68.6112L97.9953 67.9488L98.6592 63.0604L92.6476 57.0625C92.4859 56.9011 92.4178 56.6662 92.466 56.4426C92.5171 56.219 92.6788 56.035 92.8944 55.9585C97.0648 54.4612 101.785 55.5141 104.918 58.6391C108.024 61.7385 109.08 66.3325 107.667 70.4592L117.676 80.4453C117.883 80.4283 118.093 80.4198 118.303 80.4198C120.388 80.4198 122.351 81.2294 123.826 82.7013C126.871 85.7385 126.873 90.6838 123.826 93.7236L123.829 93.7186ZM111.763 83.9506C111.772 83.9364 111.78 83.9251 111.789 83.911C111.843 83.8317 111.896 83.7524 111.953 83.676C111.987 83.6307 112.021 83.5826 112.055 83.5373C112.104 83.4751 112.152 83.4128 112.2 83.3505C112.251 83.2854 112.305 83.2231 112.359 83.158C112.399 83.1127 112.435 83.0675 112.475 83.0222C112.575 82.9118 112.674 82.8042 112.782 82.6995C112.887 82.5947 112.997 82.4928 113.108 82.3938C113.145 82.3626 113.182 82.3315 113.219 82.3004C113.295 82.2353 113.372 82.173 113.448 82.1107C113.494 82.0739 113.539 82.0399 113.584 82.006C113.658 81.9494 113.732 81.8956 113.809 81.8418C113.854 81.8078 113.899 81.7767 113.948 81.7456C114.058 81.672 114.172 81.5984 114.285 81.5304C114.331 81.505 114.376 81.4795 114.419 81.454C114.504 81.4059 114.592 81.3549 114.677 81.3097C114.728 81.2814 114.782 81.2559 114.836 81.2304C114.918 81.1908 115 81.1511 115.082 81.1143C115.131 81.0917 115.182 81.0691 115.233 81.0492C115.338 81.004 115.443 80.9643 115.548 80.9247C115.576 80.9134 115.604 80.9021 115.633 80.8907C115.777 80.8398 115.922 80.7917 116.07 80.7464H116.073L106.415 71.111C106.228 70.9242 106.168 70.6439 106.262 70.3949C107.703 66.6614 106.801 62.421 103.967 59.5935C101.459 57.0913 97.7992 56.095 94.3946 56.913L99.8445 62.3505C99.992 62.4977 100.063 62.7072 100.035 62.9167L99.2572 68.6401C99.2175 68.9401 98.982 69.175 98.6813 69.2147L92.9449 69.9902C92.735 70.0185 92.5279 69.9478 92.3803 69.8006L86.9304 64.363C86.1105 67.7597 87.1092 71.4112 89.6171 73.9136C92.4512 76.7414 96.7011 77.6415 100.443 76.2036C100.522 76.1725 100.602 76.1583 100.684 76.1583C100.86 76.1583 101.03 76.2263 101.161 76.3536L110.818 85.989C111.031 85.2672 111.351 84.5851 111.766 83.9567L111.763 83.9506ZM122.879 83.6477C121.659 82.4277 120.033 81.7569 118.305 81.7569C118.027 81.7569 117.755 81.7767 117.483 81.8107C117.313 81.8333 117.145 81.8588 116.978 81.8927C116.975 81.8927 116.972 81.8927 116.969 81.8956C116.796 81.9324 116.629 81.9748 116.461 82.0229C116.459 82.0229 116.456 82.0258 116.453 82.0258C116.3 82.0711 116.147 82.1248 115.996 82.1815C115.968 82.1928 115.939 82.2013 115.914 82.2126C115.772 82.2692 115.636 82.3286 115.5 82.3937C115.468 82.4079 115.44 82.4249 115.409 82.439C115.284 82.5013 115.162 82.5664 115.043 82.6372C115.026 82.6485 115.006 82.657 114.989 82.6683C114.859 82.7447 114.734 82.8297 114.609 82.9174C114.578 82.9372 114.549 82.9599 114.518 82.9797C114.396 83.0674 114.277 83.1608 114.161 83.2571L114.093 83.3165C113.971 83.4212 113.851 83.5317 113.735 83.6449C113.622 83.7581 113.517 83.8741 113.412 83.993C113.386 84.0213 113.361 84.0525 113.335 84.0808C113.244 84.1912 113.156 84.3044 113.071 84.4176C113.04 84.4629 113.009 84.5082 112.978 84.5506C112.924 84.6299 112.87 84.7092 112.822 84.7912C112.768 84.879 112.717 84.9667 112.666 85.0545C112.629 85.1196 112.592 85.1847 112.558 85.2498C112.518 85.3234 112.481 85.3998 112.447 85.4762C112.424 85.5272 112.402 85.5781 112.379 85.6291C112.325 85.7565 112.271 85.8838 112.226 86.014C112.209 86.0622 112.192 86.1131 112.175 86.1641C112.132 86.2914 112.095 86.4188 112.061 86.5462C112.044 86.6085 112.03 86.6707 112.013 86.733C111.996 86.8094 111.976 86.8859 111.962 86.9651C111.939 87.0783 111.922 87.1916 111.905 87.3076C111.636 89.2438 112.243 91.2789 113.732 92.7649C116.254 95.2814 120.357 95.2814 122.876 92.7649C125.398 90.2485 125.398 86.1555 122.876 83.6419L122.879 83.6477ZM122.345 86.784C122.516 86.9538 122.581 87.2001 122.518 87.4322L121.565 90.9874C121.503 91.2195 121.321 91.4006 121.089 91.4629L117.525 92.414C117.469 92.4281 117.409 92.4366 117.352 92.4366C117.176 92.4366 117.003 92.3687 116.876 92.2413L114.269 89.64C114.098 89.4702 114.033 89.2239 114.095 88.9918L115.049 85.4367C115.111 85.2046 115.293 85.0234 115.525 84.9611L119.089 84.01C119.321 83.9478 119.568 84.0129 119.738 84.1827L122.345 86.784ZM121.12 87.4577L119.06 85.4027L116.249 86.1556L115.494 88.9608L117.554 91.0157L120.365 90.2628L121.12 87.4577Z" fill="#1976D2"/>
<defs>
<filter id="filter0_f_614_203" x="153.4" y="-30.6" width="77.2" height="77.2" filterUnits="userSpaceOnUse" color-interpolation-filters="sRGB">
<feFlood flood-opacity="0" result="BackgroundImageFix"/>
<feBlend mode="normal" in="SourceGraphic" in2="BackgroundImageFix" result="shape"/>
<feGaussianBlur stdDeviation="11.3" result="effect1_foregroundBlur_614_203"/>
</filter>
<filter id="filter1_f_614_203" x="-30.6" y="-30.6" width="77.2" height="77.2" filterUnits="userSpaceOnUse" color-interpolation-filters="sRGB">
<feFlood flood-opacity="0" result="BackgroundImageFix"/>
<feBlend mode="normal" in="SourceGraphic" in2="BackgroundImageFix" result="shape"/>
<feGaussianBlur stdDeviation="11.3" result="effect1_foregroundBlur_614_203"/>
</filter>
<filter id="filter2_f_614_203" x="-30.6" y="153.4" width="77.2" height="77.2" filterUnits="userSpaceOnUse" color-interpolation-filters="sRGB">
<feFlood flood-opacity="0" result="BackgroundImageFix"/>
<feBlend mode="normal" in="SourceGraphic" in2="BackgroundImageFix" result="shape"/>
<feGaussianBlur stdDeviation="11.3" result="effect1_foregroundBlur_614_203"/>
</filter>
<filter id="filter3_f_614_203" x="153.4" y="153.4" width="77.2" height="77.2" filterUnits="userSpaceOnUse" color-interpolation-filters="sRGB">
<feFlood flood-opacity="0" result="BackgroundImageFix"/>
<feBlend mode="normal" in="SourceGraphic" in2="BackgroundImageFix" result="shape"/>
<feGaussianBlur stdDeviation="11.3" result="effect1_foregroundBlur_614_203"/>
</filter>
</defs>
</svg>
