<svg width="200" height="200" viewBox="0 0 200 200" fill="none" xmlns="http://www.w3.org/2000/svg">
<mask id="mask0_614_191" style="mask-type:alpha" maskUnits="userSpaceOnUse" x="0" y="0" width="200" height="200">
<rect x="1" y="1" width="198" height="198" stroke="#5F94EF" stroke-width="2"/>
</mask>
<g mask="url(#mask0_614_191)">
<g filter="url(#filter0_f_614_191)">
<circle cx="192" cy="8" r="16" fill="#066EC2"/>
</g>
<g filter="url(#filter1_f_614_191)">
<circle cx="8" cy="8" r="16" fill="#066EC2"/>
</g>
<g filter="url(#filter2_f_614_191)">
<circle cx="8" cy="192" r="16" fill="#066EC2"/>
</g>
<g filter="url(#filter3_f_614_191)">
<circle cx="192" cy="192" r="16" fill="#066EC2"/>
</g>
</g>
<rect x="11" y="11" width="178" height="178" stroke="#5F94EF" stroke-width="2"/>
<rect x="10" y="9.52417" width="180" height="180" fill="#F5FAFF"/>
<path d="M57.5117 169.692L60.9102 156.462H62.6914L62.4922 159.872L58.8594 173.524H57.0078L57.5117 169.692ZM54.9688 156.462L57.7227 169.587L57.9688 173.524H56L52.0508 156.462H54.9688ZM66.5469 169.552L69.2656 156.462H72.1953L68.2461 173.524H66.2773L66.5469 169.552ZM63.3828 156.462L66.7461 169.727L67.2383 173.524H65.3867L61.8125 159.872L61.625 156.462H63.3828ZM80.8438 170.981V164.934C80.8438 164.481 80.7617 164.091 80.5977 163.762C80.4336 163.434 80.1836 163.18 79.8477 163.001C79.5195 162.821 79.1055 162.731 78.6055 162.731C78.1445 162.731 77.7461 162.809 77.4102 162.966C77.0742 163.122 76.8125 163.333 76.625 163.598C76.4375 163.864 76.3438 164.165 76.3438 164.501H73.5312C73.5312 164.001 73.6523 163.516 73.8945 163.048C74.1367 162.579 74.4883 162.161 74.9492 161.794C75.4102 161.427 75.9609 161.137 76.6016 160.927C77.2422 160.716 77.9609 160.61 78.7578 160.61C79.7109 160.61 80.5547 160.77 81.2891 161.091C82.0312 161.411 82.6133 161.895 83.0352 162.544C83.4648 163.184 83.6797 163.989 83.6797 164.958V170.594C83.6797 171.173 83.7188 171.692 83.7969 172.153C83.8828 172.606 84.0039 173.001 84.1602 173.337V173.524H81.2656C81.1328 173.219 81.0273 172.833 80.9492 172.364C80.8789 171.887 80.8438 171.427 80.8438 170.981ZM81.2539 165.813L81.2773 167.559H79.25C78.7266 167.559 78.2656 167.61 77.8672 167.712C77.4688 167.805 77.1367 167.946 76.8711 168.134C76.6055 168.321 76.4062 168.548 76.2734 168.813C76.1406 169.079 76.0742 169.38 76.0742 169.716C76.0742 170.052 76.1523 170.36 76.3086 170.641C76.4648 170.915 76.6914 171.13 76.9883 171.286C77.293 171.442 77.6602 171.52 78.0898 171.52C78.668 171.52 79.1719 171.403 79.6016 171.169C80.0391 170.927 80.3828 170.634 80.6328 170.29C80.8828 169.938 81.0156 169.606 81.0312 169.294L81.9453 170.548C81.8516 170.868 81.6914 171.212 81.4648 171.579C81.2383 171.946 80.9414 172.298 80.5742 172.634C80.2148 172.962 79.7812 173.231 79.2734 173.442C78.7734 173.653 78.1953 173.759 77.5391 173.759C76.7109 173.759 75.9727 173.594 75.3242 173.266C74.6758 172.93 74.168 172.481 73.8008 171.919C73.4336 171.348 73.25 170.704 73.25 169.985C73.25 169.313 73.375 168.719 73.625 168.204C73.8828 167.68 74.2578 167.243 74.75 166.891C75.25 166.54 75.8594 166.274 76.5781 166.094C77.2969 165.907 78.1172 165.813 79.0391 165.813H81.2539ZM89.4688 163.259V173.524H86.6445V160.844H89.3398L89.4688 163.259ZM93.3477 160.762L93.3242 163.387C93.1523 163.356 92.9648 163.333 92.7617 163.317C92.5664 163.302 92.3711 163.294 92.1758 163.294C91.6914 163.294 91.2656 163.364 90.8984 163.505C90.5312 163.637 90.2227 163.833 89.9727 164.091C89.7305 164.341 89.543 164.645 89.4102 165.005C89.2773 165.364 89.1992 165.766 89.1758 166.212L88.5312 166.259C88.5312 165.462 88.6094 164.723 88.7656 164.044C88.9219 163.364 89.1562 162.766 89.4688 162.251C89.7891 161.735 90.1875 161.333 90.6641 161.044C91.1484 160.755 91.707 160.61 92.3398 160.61C92.5117 160.61 92.6953 160.626 92.8906 160.657C93.0938 160.688 93.2461 160.723 93.3477 160.762ZM97.9531 163.259V173.524H95.1289V160.844H97.8242L97.9531 163.259ZM101.832 160.762L101.809 163.387C101.637 163.356 101.449 163.333 101.246 163.317C101.051 163.302 100.855 163.294 100.66 163.294C100.176 163.294 99.75 163.364 99.3828 163.505C99.0156 163.637 98.707 163.833 98.457 164.091C98.2148 164.341 98.0273 164.645 97.8945 165.005C97.7617 165.364 97.6836 165.766 97.6602 166.212L97.0156 166.259C97.0156 165.462 97.0938 164.723 97.25 164.044C97.4062 163.364 97.6406 162.766 97.9531 162.251C98.2734 161.735 98.6719 161.333 99.1484 161.044C99.6328 160.755 100.191 160.61 100.824 160.61C100.996 160.61 101.18 160.626 101.375 160.657C101.578 160.688 101.73 160.723 101.832 160.762ZM110.328 170.981V164.934C110.328 164.481 110.246 164.091 110.082 163.762C109.918 163.434 109.668 163.18 109.332 163.001C109.004 162.821 108.59 162.731 108.09 162.731C107.629 162.731 107.23 162.809 106.895 162.966C106.559 163.122 106.297 163.333 106.109 163.598C105.922 163.864 105.828 164.165 105.828 164.501H103.016C103.016 164.001 103.137 163.516 103.379 163.048C103.621 162.579 103.973 162.161 104.434 161.794C104.895 161.427 105.445 161.137 106.086 160.927C106.727 160.716 107.445 160.61 108.242 160.61C109.195 160.61 110.039 160.77 110.773 161.091C111.516 161.411 112.098 161.895 112.52 162.544C112.949 163.184 113.164 163.989 113.164 164.958V170.594C113.164 171.173 113.203 171.692 113.281 172.153C113.367 172.606 113.488 173.001 113.645 173.337V173.524H110.75C110.617 173.219 110.512 172.833 110.434 172.364C110.363 171.887 110.328 171.427 110.328 170.981ZM110.738 165.813L110.762 167.559H108.734C108.211 167.559 107.75 167.61 107.352 167.712C106.953 167.805 106.621 167.946 106.355 168.134C106.09 168.321 105.891 168.548 105.758 168.813C105.625 169.079 105.559 169.38 105.559 169.716C105.559 170.052 105.637 170.36 105.793 170.641C105.949 170.915 106.176 171.13 106.473 171.286C106.777 171.442 107.145 171.52 107.574 171.52C108.152 171.52 108.656 171.403 109.086 171.169C109.523 170.927 109.867 170.634 110.117 170.29C110.367 169.938 110.5 169.606 110.516 169.294L111.43 170.548C111.336 170.868 111.176 171.212 110.949 171.579C110.723 171.946 110.426 172.298 110.059 172.634C109.699 172.962 109.266 173.231 108.758 173.442C108.258 173.653 107.68 173.759 107.023 173.759C106.195 173.759 105.457 173.594 104.809 173.266C104.16 172.93 103.652 172.481 103.285 171.919C102.918 171.348 102.734 170.704 102.734 169.985C102.734 169.313 102.859 168.719 103.109 168.204C103.367 167.68 103.742 167.243 104.234 166.891C104.734 166.54 105.344 166.274 106.062 166.094C106.781 165.907 107.602 165.813 108.523 165.813H110.738ZM118.918 163.552V173.524H116.094V160.844H118.754L118.918 163.552ZM118.414 166.716L117.5 166.704C117.508 165.805 117.633 164.981 117.875 164.231C118.125 163.481 118.469 162.837 118.906 162.298C119.352 161.759 119.883 161.344 120.5 161.055C121.117 160.759 121.805 160.61 122.562 160.61C123.172 160.61 123.723 160.696 124.215 160.868C124.715 161.032 125.141 161.302 125.492 161.677C125.852 162.052 126.125 162.54 126.312 163.141C126.5 163.735 126.594 164.466 126.594 165.333V173.524H123.758V165.321C123.758 164.712 123.668 164.231 123.488 163.88C123.316 163.52 123.062 163.266 122.727 163.118C122.398 162.962 121.988 162.884 121.496 162.884C121.012 162.884 120.578 162.985 120.195 163.188C119.812 163.391 119.488 163.669 119.223 164.02C118.965 164.372 118.766 164.778 118.625 165.239C118.484 165.7 118.414 166.192 118.414 166.716ZM135.289 160.844V162.907H128.141V160.844H135.289ZM130.203 157.739H133.027V170.02C133.027 170.411 133.082 170.712 133.191 170.923C133.309 171.126 133.469 171.262 133.672 171.333C133.875 171.403 134.113 171.438 134.387 171.438C134.582 171.438 134.77 171.427 134.949 171.403C135.129 171.38 135.273 171.356 135.383 171.333L135.395 173.489C135.16 173.559 134.887 173.622 134.574 173.677C134.27 173.731 133.918 173.759 133.52 173.759C132.871 173.759 132.297 173.645 131.797 173.419C131.297 173.184 130.906 172.805 130.625 172.282C130.344 171.759 130.203 171.063 130.203 170.196V157.739ZM141.148 172.141L144.594 160.844H147.617L142.531 175.458C142.414 175.77 142.262 176.11 142.074 176.477C141.887 176.844 141.641 177.192 141.336 177.52C141.039 177.856 140.668 178.126 140.223 178.329C139.777 178.54 139.238 178.645 138.605 178.645C138.355 178.645 138.113 178.622 137.879 178.575C137.652 178.536 137.438 178.493 137.234 178.446L137.223 176.29C137.301 176.298 137.395 176.305 137.504 176.313C137.621 176.321 137.715 176.325 137.785 176.325C138.254 176.325 138.645 176.266 138.957 176.149C139.27 176.04 139.523 175.86 139.719 175.61C139.922 175.36 140.094 175.024 140.234 174.602L141.148 172.141ZM139.203 160.844L142.215 170.337L142.719 173.313L140.762 173.817L136.156 160.844H139.203Z" fill="#1976D2"/>
<rect x="60.5" y="30.0242" width="79" height="79" rx="39.5" fill="#F0F8FF"/>
<rect x="60.5" y="30.0242" width="79" height="79" rx="39.5" stroke="#42A5F5"/>
<path d="M122.507 87.6376L116.731 77.5754L117.283 77.2994C118.241 76.8215 118.794 75.8579 118.728 74.7819L118.492 70.9662C118.474 70.6569 118.54 70.4039 118.711 70.1458L120.812 66.9587C121.402 66.0642 121.402 64.9499 120.812 64.0528L118.711 60.8657C118.54 60.6076 118.474 60.3545 118.492 60.0453L118.728 56.2321C118.795 55.1587 118.241 54.1951 117.283 53.7146L113.878 52.0124C113.603 51.8744 113.418 51.6904 113.28 51.4118L111.588 47.9871C111.118 47.0363 110.157 46.4613 109.085 46.5328L105.291 46.7705C104.986 46.7884 104.732 46.7219 104.475 46.5507L101.307 44.437C100.433 43.8543 99.2917 43.8543 98.4176 44.437L95.2514 46.5507C94.9947 46.7219 94.7355 46.7909 94.4357 46.7705L90.6394 46.5328C89.5721 46.4587 88.6065 47.0337 88.1364 47.9871L86.4414 51.4118C86.3042 51.6879 86.1213 51.8719 85.8443 52.0099L82.4392 53.7121C81.4812 54.19 80.9298 55.1561 80.9959 56.2295L81.2322 60.0453C81.25 60.3545 81.1839 60.6076 81.0137 60.8657L78.9122 64.0502C78.3201 64.9473 78.3201 66.0616 78.9122 66.9561L81.0137 70.1432C81.1839 70.4013 81.25 70.6544 81.2322 70.9636L80.9959 74.7794C80.9298 75.8528 81.4812 76.8163 82.4392 77.2968L82.9907 77.5729L77.2148 87.6324C76.8921 88.1947 76.9353 88.8668 77.3291 89.3831C77.723 89.8994 78.3532 90.1115 78.9809 89.9454L85.3361 88.233C85.4885 88.1921 85.6435 88.2816 85.6817 88.4349L87.3842 94.8295C87.5519 95.4582 88.0525 95.9003 88.6979 95.9872C88.7691 95.9974 88.8402 96 88.9114 96C89.4678 96 89.9735 95.7112 90.2607 95.2103L96.1026 85.033L98.4125 86.5741C98.8495 86.8655 99.3476 87.0188 99.8584 87.0188C100.367 87.0188 100.867 86.8655 101.304 86.5741L103.614 85.033L109.456 95.2103C109.743 95.7112 110.246 96 110.805 96C110.877 96 110.948 95.9949 111.019 95.9872C111.659 95.9003 112.162 95.4582 112.33 94.8295L114.033 88.4349C114.073 88.2841 114.231 88.1921 114.381 88.233L120.738 89.9454C121.361 90.1115 121.996 89.8969 122.39 89.3831C122.787 88.872 122.832 88.1999 122.507 87.6376ZM89.1531 94.5664C89.0921 94.6738 88.988 94.7249 88.8711 94.707C88.7491 94.6917 88.6652 94.6175 88.6348 94.4974L86.9322 88.1029C86.7086 87.262 85.8472 86.7636 85.0112 86.9886L78.6534 88.701C78.534 88.7342 78.4298 88.6958 78.3561 88.5987C78.2824 88.5016 78.2748 88.3891 78.3358 88.2844L84.1498 78.1535L85.8498 79.0046C86.1268 79.1426 86.3097 79.3266 86.4469 79.6052L88.1393 83.0274C88.6145 83.9935 89.5649 84.5532 90.6423 84.4817L94.4361 84.244C94.6445 84.2312 94.8376 84.2619 95.0231 84.3411L89.1531 94.5664ZM100.598 85.5014C100.146 85.803 99.5819 85.8004 99.1296 85.5014L95.9608 83.3877C95.5187 83.0938 95.0512 82.9481 94.5328 82.9481C94.4743 82.9481 94.4159 82.9507 94.3549 82.9532L90.5611 83.1909C90.0071 83.2318 89.5345 82.9456 89.2906 82.4523L87.5982 79.0301C87.3364 78.4985 86.9527 78.11 86.4217 77.8468L83.0166 76.1446C82.5236 75.8967 82.2492 75.4213 82.2822 74.8667L82.5185 71.0484C82.5567 70.4555 82.4144 69.9264 82.0891 69.4331L79.9876 66.246C79.6827 65.786 79.6827 65.2314 79.9876 64.7714L82.0891 61.5868C82.4169 61.0936 82.5567 60.5645 82.5185 59.969L82.2822 56.1532C82.2467 55.5986 82.5211 55.1233 83.0166 54.8754L86.4191 53.1732C86.9502 52.91 87.3339 52.5215 87.5956 51.9899L89.2906 48.5651C89.532 48.0744 90.0199 47.7907 90.5611 47.8265L94.3574 48.0642C94.4184 48.0693 94.4769 48.0693 94.5353 48.0693C95.0537 48.0693 95.5212 47.9262 95.9634 47.6297L99.1296 45.516C99.5793 45.2145 100.146 45.2145 100.598 45.516L103.764 47.6297C104.257 47.9594 104.776 48.1025 105.373 48.0642L109.167 47.8265C109.713 47.7907 110.193 48.0744 110.437 48.5651L112.13 51.9899C112.394 52.5215 112.778 52.9099 113.306 53.1732L116.709 54.8754C117.204 55.1233 117.479 55.5987 117.443 56.1532L117.207 59.969C117.171 60.562 117.311 61.091 117.636 61.5843L119.738 64.7714C120.043 65.234 120.043 65.786 119.738 66.2486L117.636 69.4357C117.308 69.9315 117.169 70.4605 117.207 71.0535L117.443 74.8693C117.479 75.4239 117.204 75.8992 116.709 76.1471L113.306 77.8493C112.778 78.1126 112.394 78.501 112.13 79.0326L110.437 82.4574C110.196 82.9481 109.713 83.2344 109.167 83.196L105.37 82.9583C104.776 82.92 104.255 83.0631 103.764 83.3928L100.598 85.5014ZM121.374 88.6015C121.301 88.6987 121.194 88.7344 121.077 88.7038L114.722 86.9914C113.889 86.769 113.024 87.2674 112.801 88.1082L111.098 94.5028C111.068 94.6204 110.981 94.6945 110.865 94.7098C110.74 94.7226 110.644 94.6766 110.583 94.5692L104.713 84.3435C104.896 84.2643 105.089 84.231 105.3 84.2464L109.093 84.4841C110.153 84.5531 111.126 83.9831 111.596 83.0298L113.289 79.605C113.426 79.3265 113.609 79.1424 113.886 79.0044L115.586 78.1533L121.4 88.2842C121.456 88.3916 121.448 88.5044 121.374 88.6015ZM113.799 65.2006C113.799 57.4722 107.548 51.1846 99.8639 51.1846C92.1796 51.1846 85.9285 57.4718 85.9285 65.2006C85.9285 72.9293 92.1796 79.2139 99.8639 79.2139C107.548 79.2139 113.799 72.9267 113.799 65.2006ZM99.8639 77.9204C92.8884 77.9204 87.2172 72.2133 87.2172 65.2006C87.2172 58.1847 92.8914 52.4807 99.8639 52.4807C106.839 52.4807 112.513 58.1878 112.513 65.2006C112.513 72.2133 106.839 77.9204 99.8639 77.9204ZM108.503 59.3912C108.109 58.9951 107.586 58.7778 107.03 58.7778C106.473 58.7778 105.95 58.9951 105.556 59.3912L98.4254 66.5628L94.1691 62.2844C93.7753 61.8882 93.2518 61.671 92.6953 61.671C92.1389 61.671 91.6153 61.8882 91.2215 62.2844C90.4109 63.1022 90.4109 64.4312 91.2215 65.2465L96.9516 71.0098C97.3455 71.4059 97.869 71.6232 98.4254 71.6232C98.9819 71.6232 99.5054 71.4059 99.8993 71.0098L108.504 62.3537C108.897 61.9575 109.113 61.431 109.113 60.8713C109.113 60.3116 108.897 59.7848 108.503 59.3912ZM107.594 61.4384L98.9893 70.0925C98.6869 70.3967 98.1635 70.3967 97.8611 70.0925L92.1335 64.3318C91.8235 64.0174 91.8235 63.5089 92.1335 63.197C92.2834 63.0462 92.4841 62.9619 92.6976 62.9619C92.911 62.9619 93.1118 63.0462 93.2617 63.197L97.9703 67.9329C98.2117 68.1757 98.6386 68.1757 98.88 67.9329L106.465 60.3066C106.767 60.0025 107.291 60.0025 107.591 60.3066C107.741 60.4574 107.825 60.6593 107.825 60.874C107.827 61.0861 107.744 61.2876 107.594 61.4384Z" fill="#1976D2"/>
<defs>
<filter id="filter0_f_614_191" x="153.4" y="-30.6" width="77.2" height="77.2" filterUnits="userSpaceOnUse" color-interpolation-filters="sRGB">
<feFlood flood-opacity="0" result="BackgroundImageFix"/>
<feBlend mode="normal" in="SourceGraphic" in2="BackgroundImageFix" result="shape"/>
<feGaussianBlur stdDeviation="11.3" result="effect1_foregroundBlur_614_191"/>
</filter>
<filter id="filter1_f_614_191" x="-30.6" y="-30.6" width="77.2" height="77.2" filterUnits="userSpaceOnUse" color-interpolation-filters="sRGB">
<feFlood flood-opacity="0" result="BackgroundImageFix"/>
<feBlend mode="normal" in="SourceGraphic" in2="BackgroundImageFix" result="shape"/>
<feGaussianBlur stdDeviation="11.3" result="effect1_foregroundBlur_614_191"/>
</filter>
<filter id="filter2_f_614_191" x="-30.6" y="153.4" width="77.2" height="77.2" filterUnits="userSpaceOnUse" color-interpolation-filters="sRGB">
<feFlood flood-opacity="0" result="BackgroundImageFix"/>
<feBlend mode="normal" in="SourceGraphic" in2="BackgroundImageFix" result="shape"/>
<feGaussianBlur stdDeviation="11.3" result="effect1_foregroundBlur_614_191"/>
</filter>
<filter id="filter3_f_614_191" x="153.4" y="153.4" width="77.2" height="77.2" filterUnits="userSpaceOnUse" color-interpolation-filters="sRGB">
<feFlood flood-opacity="0" result="BackgroundImageFix"/>
<feBlend mode="normal" in="SourceGraphic" in2="BackgroundImageFix" result="shape"/>
<feGaussianBlur stdDeviation="11.3" result="effect1_foregroundBlur_614_191"/>
</filter>
</defs>
</svg>
