<svg width="1232" height="553" viewBox="0 0 1232 553" fill="none" xmlns="http://www.w3.org/2000/svg">
<rect width="1232" height="553" fill="url(#paint0_radial_481_1189)"/>
<g opacity="0.5">
<mask id="mask0_481_1189" style="mask-type:alpha" maskUnits="userSpaceOnUse" x="60" y="240" width="289" height="296">
<rect width="288" height="295" transform="translate(60.5842 240.428)" fill="url(#paint1_radial_481_1189)"/>
</mask>
<g mask="url(#mask0_481_1189)">
<line x1="116.085" y1="268.073" x2="116.085" y2="507.782" stroke="#9090FE"/>
<line x1="141.513" y1="268.073" x2="141.513" y2="507.782" stroke="#9090FE"/>
<line x1="166.942" y1="268.073" x2="166.942" y2="507.782" stroke="#9090FE"/>
<line x1="192.37" y1="268.073" x2="192.37" y2="507.782" stroke="#9090FE"/>
<line x1="217.799" y1="268.073" x2="217.799" y2="507.782" stroke="#9090FE"/>
<line x1="243.228" y1="268.073" x2="243.228" y2="507.782" stroke="#9090FE"/>
<line x1="268.656" y1="268.073" x2="268.656" y2="507.782" stroke="#9090FE"/>
<line x1="294.085" y1="268.073" x2="294.085" y2="507.782" stroke="#9090FE"/>
<line x1="84.7307" y1="476.428" x2="324.439" y2="476.428" stroke="#9090FE"/>
<line x1="84.7307" y1="451" x2="324.439" y2="451" stroke="#9090FE"/>
<line x1="84.7307" y1="425.571" x2="324.439" y2="425.571" stroke="#9090FE"/>
<line x1="84.7307" y1="400.142" x2="324.439" y2="400.142" stroke="#9090FE"/>
<line x1="84.7307" y1="374.714" x2="324.439" y2="374.714" stroke="#9090FE"/>
<line x1="84.7307" y1="349.285" x2="324.439" y2="349.285" stroke="#9090FE"/>
<line x1="84.7307" y1="323.856" x2="324.439" y2="323.856" stroke="#9090FE"/>
<line x1="84.7307" y1="298.428" x2="324.439" y2="298.428" stroke="#9090FE"/>
</g>
</g>
<path d="M95.6462 127H660.493H1145.51C1159.31 127 1170.51 138.193 1170.51 152V356.5C1170.51 370.308 1159.31 381.5 1145.51 381.5H95.6462" stroke="#42A5F5" stroke-width="2" stroke-dasharray="14 14"/>
<g filter="url(#filter0_d_481_1189)">
<rect x="94.2666" y="64" width="126" height="126" rx="32" fill="white" shape-rendering="crispEdges"/>
<g filter="url(#filter1_i_481_1189)">
<rect x="102.267" y="72" width="110" height="110" rx="25.1429" fill="white"/>
<rect x="102.267" y="72" width="110" height="110" rx="25.1429" fill="url(#paint2_linear_481_1189)"/>
<g filter="url(#filter2_d_481_1189)">
<path d="M159.498 150.89L158.462 151.933H156.998H149.498H145.962V148.371V140.815V139.34L146.997 138.297L178.249 106.814L180.749 104.295L181.319 103.721V98.5047C181.319 94.5701 178.153 91.3809 174.248 91.3809H142.426L124.748 109.19V155.495C124.748 159.429 127.914 162.619 131.819 162.619H174.248C178.153 162.619 181.319 159.429 181.319 155.495V128.908L159.498 150.89ZM130.051 112.752L145.962 96.7237V112.752H130.051ZM156.998 148.371H149.498V140.815L180.749 109.332L188.249 116.888L156.998 148.371ZM195.75 109.332L190.75 114.37L183.249 106.814L188.249 101.776C188.94 101.081 189.845 100.733 190.75 100.733C191.655 100.733 192.56 101.081 193.25 101.776L195.75 104.295C197.131 105.686 197.131 107.941 195.75 109.332Z" fill="#3388E9"/>
</g>
</g>
</g>
<path d="M99.4463 217.828L107.017 217.845C108.489 217.878 109.789 218.16 110.918 218.691C112.047 219.223 112.905 220.008 113.491 221.049C114.089 222.078 114.321 223.379 114.188 224.95C114.078 226.201 113.724 227.28 113.126 228.188C112.539 229.084 111.781 229.837 110.852 230.445C109.922 231.043 108.893 231.519 107.764 231.873L106.834 232.205H99.3301L99.7617 229.599L105.091 229.615C106.065 229.615 106.978 229.438 107.83 229.084C108.693 228.73 109.413 228.21 109.988 227.523C110.575 226.826 110.935 225.968 111.067 224.95C111.189 223.976 111.095 223.163 110.785 222.51C110.475 221.857 109.988 221.359 109.324 221.016C108.671 220.673 107.88 220.49 106.95 220.468L102.119 220.451L98.3838 242H95.2461L99.4463 217.828ZM109.042 242L105.24 231.043L108.328 231.026L112.379 241.784L112.362 242H109.042ZM122.807 242.332C121.578 242.31 120.51 242.066 119.603 241.602C118.706 241.126 117.97 240.489 117.395 239.692C116.83 238.884 116.426 237.966 116.183 236.937C115.939 235.907 115.867 234.828 115.967 233.699L116.033 232.985C116.144 231.834 116.426 230.705 116.88 229.599C117.334 228.481 117.937 227.474 118.689 226.577C119.453 225.681 120.35 224.972 121.379 224.452C122.419 223.921 123.57 223.672 124.832 223.705C126.083 223.727 127.123 223.993 127.953 224.502C128.783 225.011 129.431 225.686 129.896 226.527C130.371 227.357 130.681 228.293 130.825 229.333C130.969 230.362 130.98 231.419 130.858 232.504L130.676 233.882H117.644L118.042 231.375L127.986 231.392L128.036 231.126C128.147 230.329 128.103 229.56 127.903 228.818C127.704 228.077 127.339 227.468 126.808 226.992C126.287 226.505 125.585 226.251 124.699 226.229C123.781 226.195 122.984 226.383 122.309 226.793C121.634 227.191 121.069 227.734 120.615 228.42C120.161 229.095 119.802 229.837 119.536 230.645C119.282 231.441 119.105 232.222 119.005 232.985L118.939 233.683C118.872 234.391 118.894 235.105 119.005 235.824C119.116 236.544 119.326 237.202 119.636 237.8C119.957 238.386 120.399 238.868 120.964 239.244C121.528 239.609 122.226 239.803 123.056 239.825C124.063 239.847 124.965 239.632 125.762 239.178C126.57 238.713 127.306 238.126 127.97 237.418L129.68 238.879C129.16 239.643 128.54 240.285 127.82 240.805C127.101 241.325 126.315 241.712 125.463 241.967C124.611 242.221 123.725 242.343 122.807 242.332ZM142.565 248.906L146.3 227.308L147.113 224.037H149.902L145.569 248.906H142.565ZM133.583 233.334L133.633 232.985C133.766 231.868 134.031 230.755 134.43 229.648C134.828 228.531 135.359 227.518 136.024 226.61C136.699 225.703 137.523 224.983 138.497 224.452C139.471 223.921 140.606 223.666 141.9 223.688C143.052 223.722 144.02 223.993 144.806 224.502C145.592 225.011 146.211 225.681 146.665 226.511C147.13 227.341 147.445 228.259 147.611 229.267C147.788 230.263 147.844 231.264 147.777 232.271L147.595 233.799C147.407 234.883 147.091 235.94 146.649 236.97C146.206 237.999 145.636 238.929 144.939 239.759C144.241 240.578 143.417 241.225 142.465 241.701C141.513 242.166 140.428 242.382 139.211 242.349C138.016 242.304 137.025 242.006 136.239 241.452C135.465 240.888 134.861 240.163 134.43 239.277C134.009 238.392 133.732 237.429 133.6 236.389C133.478 235.348 133.472 234.33 133.583 233.334ZM136.671 232.985L136.621 233.334C136.544 233.998 136.522 234.701 136.555 235.442C136.588 236.184 136.721 236.881 136.953 237.534C137.186 238.187 137.551 238.729 138.049 239.161C138.547 239.582 139.222 239.809 140.074 239.842C140.993 239.864 141.845 239.654 142.631 239.211C143.428 238.768 144.108 238.182 144.673 237.451C145.237 236.71 145.647 235.918 145.901 235.077L146.549 231.043C146.571 230.434 146.488 229.848 146.3 229.283C146.123 228.708 145.852 228.199 145.486 227.756C145.132 227.302 144.701 226.937 144.191 226.66C143.682 226.383 143.112 226.24 142.482 226.229C141.552 226.195 140.744 226.378 140.058 226.776C139.383 227.175 138.813 227.712 138.348 228.387C137.883 229.051 137.512 229.787 137.235 230.595C136.959 231.403 136.771 232.2 136.671 232.985ZM163.053 237.684L165.41 224.037H168.432L165.311 242H162.439L163.053 237.684ZM164.182 234.064L165.41 234.015C165.266 235.144 165.012 236.217 164.647 237.235C164.281 238.243 163.783 239.139 163.152 239.925C162.533 240.7 161.758 241.308 160.828 241.751C159.91 242.183 158.819 242.382 157.558 242.349C156.573 242.315 155.748 242.116 155.084 241.751C154.431 241.386 153.916 240.893 153.54 240.273C153.164 239.654 152.915 238.945 152.793 238.148C152.671 237.352 152.655 236.51 152.743 235.625L154.686 224.037H157.691L155.748 235.675C155.704 236.162 155.698 236.643 155.732 237.119C155.765 237.584 155.864 238.01 156.03 238.397C156.196 238.785 156.451 239.1 156.794 239.344C157.148 239.576 157.613 239.703 158.189 239.726C159.384 239.77 160.397 239.549 161.227 239.062C162.057 238.563 162.715 237.877 163.202 237.003C163.689 236.129 164.016 235.149 164.182 234.064ZM177.515 242.332C176.286 242.31 175.218 242.066 174.311 241.602C173.414 241.126 172.678 240.489 172.103 239.692C171.538 238.884 171.134 237.966 170.891 236.937C170.647 235.907 170.575 234.828 170.675 233.699L170.741 232.985C170.852 231.834 171.134 230.705 171.588 229.599C172.042 228.481 172.645 227.474 173.398 226.577C174.161 225.681 175.058 224.972 176.087 224.452C177.127 223.921 178.278 223.672 179.54 223.705C180.791 223.727 181.831 223.993 182.661 224.502C183.491 225.011 184.139 225.686 184.604 226.527C185.08 227.357 185.389 228.293 185.533 229.333C185.677 230.362 185.688 231.419 185.567 232.504L185.384 233.882H172.352L172.75 231.375L182.694 231.392L182.744 231.126C182.855 230.329 182.811 229.56 182.611 228.818C182.412 228.077 182.047 227.468 181.516 226.992C180.996 226.505 180.293 226.251 179.407 226.229C178.489 226.195 177.692 226.383 177.017 226.793C176.342 227.191 175.777 227.734 175.323 228.42C174.87 229.095 174.51 229.837 174.244 230.645C173.99 231.441 173.813 232.222 173.713 232.985L173.647 233.683C173.58 234.391 173.602 235.105 173.713 235.824C173.824 236.544 174.034 237.202 174.344 237.8C174.665 238.386 175.108 238.868 175.672 239.244C176.236 239.609 176.934 239.803 177.764 239.825C178.771 239.847 179.673 239.632 180.47 239.178C181.278 238.713 182.014 238.126 182.678 237.418L184.388 238.879C183.868 239.643 183.248 240.285 182.528 240.805C181.809 241.325 181.023 241.712 180.171 241.967C179.319 242.221 178.433 242.343 177.515 242.332ZM198.584 237.136C198.684 236.45 198.557 235.913 198.202 235.525C197.859 235.138 197.405 234.845 196.841 234.646C196.288 234.435 195.745 234.264 195.214 234.131C194.55 233.965 193.88 233.76 193.205 233.517C192.53 233.273 191.91 232.963 191.346 232.587C190.793 232.2 190.35 231.724 190.018 231.159C189.697 230.584 189.553 229.886 189.586 229.067C189.63 228.182 189.863 227.402 190.283 226.727C190.715 226.051 191.268 225.487 191.944 225.033C192.63 224.579 193.377 224.242 194.185 224.021C194.993 223.799 195.795 223.694 196.592 223.705C197.721 223.727 198.745 223.96 199.663 224.402C200.593 224.845 201.329 225.481 201.871 226.312C202.414 227.142 202.668 228.149 202.635 229.333L199.663 229.316C199.685 228.686 199.558 228.143 199.281 227.689C199.005 227.236 198.623 226.887 198.136 226.644C197.649 226.389 197.096 226.256 196.476 226.245C195.889 226.234 195.314 226.328 194.749 226.527C194.185 226.715 193.703 227.014 193.305 227.424C192.906 227.822 192.663 228.342 192.574 228.984C192.508 229.46 192.58 229.853 192.79 230.163C193.001 230.462 193.288 230.705 193.654 230.894C194.03 231.071 194.423 231.22 194.832 231.342C195.253 231.452 195.635 231.552 195.978 231.641C196.885 231.895 197.782 232.216 198.667 232.604C199.553 232.991 200.272 233.528 200.825 234.214C201.379 234.889 201.628 235.78 201.572 236.887C201.528 237.827 201.279 238.646 200.825 239.344C200.383 240.03 199.807 240.6 199.099 241.054C198.402 241.496 197.632 241.823 196.791 242.033C195.95 242.243 195.109 242.343 194.268 242.332C193.106 242.31 192.021 242.072 191.014 241.618C190.018 241.153 189.221 240.489 188.623 239.626C188.026 238.752 187.743 237.689 187.777 236.438L190.781 236.455C190.781 237.174 190.931 237.783 191.23 238.281C191.54 238.768 191.966 239.139 192.508 239.394C193.05 239.648 193.67 239.781 194.367 239.792C194.954 239.803 195.552 239.726 196.16 239.56C196.78 239.394 197.311 239.117 197.754 238.729C198.208 238.331 198.485 237.8 198.584 237.136ZM215.055 224.037L214.64 226.395H205.194L205.609 224.037H215.055ZM209.56 219.671H212.548L209.51 237.584C209.477 237.971 209.488 238.32 209.543 238.63C209.599 238.94 209.731 239.189 209.942 239.377C210.152 239.554 210.473 239.648 210.905 239.659C211.148 239.659 211.386 239.643 211.618 239.609C211.862 239.565 212.105 239.526 212.349 239.493L212.133 242.017C211.779 242.116 211.414 242.188 211.037 242.232C210.672 242.288 210.307 242.31 209.942 242.299C209.023 242.288 208.304 242.055 207.783 241.602C207.263 241.148 206.909 240.561 206.721 239.842C206.533 239.122 206.477 238.353 206.555 237.534L209.56 219.671Z" fill="#0D47A1"/>
<g filter="url(#filter3_d_481_1189)">
<rect x="570.077" y="60" width="126" height="126" rx="32" fill="white" shape-rendering="crispEdges"/>
<g filter="url(#filter4_i_481_1189)">
<rect x="578.077" y="68" width="110" height="110" rx="25.1429" fill="url(#paint3_linear_481_1189)"/>
<g filter="url(#filter5_d_481_1189)">
<path d="M653.184 87H612.969C607.874 87 603.743 91.1275 603.743 96.2169V149.783C603.743 154.872 607.874 159 612.969 159H653.184C655.63 159 657.978 158.028 659.708 156.3C661.438 154.572 662.411 152.227 662.411 149.783V96.2169C662.411 91.1275 658.279 87 653.184 87ZM625.871 99.4939C627.482 97.9145 630.06 97.9145 631.671 99.4939L633.114 100.969L634.556 99.4939H634.553C636.165 97.9145 638.746 97.9145 640.357 99.4939C641.134 100.257 641.57 101.303 641.57 102.39C641.57 103.48 641.134 104.523 640.357 105.289L634.519 111.12C633.719 111.907 632.435 111.907 631.634 111.12L627.276 106.73L625.834 105.289C625.06 104.519 624.631 103.473 624.638 102.383C624.644 101.293 625.087 100.253 625.871 99.4939ZM633.077 147.698L619.671 147.694C618.955 147.782 618.236 147.556 617.695 147.08C617.158 146.601 616.847 145.916 616.847 145.193C616.847 144.471 617.158 143.786 617.695 143.307C618.236 142.831 618.955 142.605 619.671 142.693H633.077C633.793 142.605 634.512 142.831 635.053 143.307C635.59 143.786 635.901 144.471 635.901 145.193C635.901 145.916 635.59 146.601 635.053 147.08C634.512 147.556 633.793 147.782 633.077 147.694V147.698ZM646.482 134.306L619.671 134.303C618.28 134.303 617.148 133.175 617.148 131.785C617.148 130.391 618.28 129.264 619.671 129.264H646.482C647.874 129.264 649.005 130.391 649.005 131.785C649.005 133.175 647.874 134.303 646.482 134.303V134.306ZM646.482 120.914L619.671 120.911C618.28 120.911 617.148 119.784 617.148 118.393C617.148 116.999 618.28 115.872 619.671 115.872H646.482C647.874 115.872 649.005 116.999 649.005 118.393C649.005 119.784 647.874 120.911 646.482 120.911V120.914Z" fill="#3388E9"/>
</g>
</g>
</g>
<path d="M567.609 234H562.512L562.993 231.394L567.692 231.41C569.452 231.41 570.973 231.028 572.257 230.265C573.552 229.49 574.592 228.444 575.378 227.127C576.164 225.799 576.684 224.305 576.939 222.645L577.155 221.15C577.287 220.088 577.304 219.048 577.204 218.029C577.116 217.011 576.867 216.092 576.457 215.273C576.048 214.443 575.45 213.779 574.664 213.281C573.879 212.772 572.866 212.501 571.626 212.468L566.148 212.451L566.613 209.828L571.693 209.845C573.309 209.878 574.692 210.21 575.843 210.841C577.005 211.461 577.94 212.296 578.649 213.348C579.368 214.399 579.855 215.6 580.11 216.95C580.375 218.3 580.42 219.717 580.243 221.2L580.043 222.645C579.811 224.283 579.352 225.799 578.665 227.193C577.979 228.577 577.099 229.778 576.026 230.796C574.952 231.814 573.707 232.605 572.29 233.17C570.874 233.723 569.313 234 567.609 234ZM568.389 209.828L564.189 234H561.051L565.251 209.828H568.389ZM588.711 216.037L585.59 234H582.585L585.706 216.037H588.711ZM586.304 211.322C586.304 210.802 586.465 210.37 586.786 210.027C587.118 209.673 587.544 209.491 588.064 209.479C588.584 209.468 589.01 209.629 589.342 209.961C589.685 210.293 589.851 210.714 589.84 211.223C589.84 211.732 589.669 212.158 589.326 212.501C588.994 212.833 588.573 213.005 588.064 213.016C587.555 213.027 587.134 212.877 586.802 212.567C586.47 212.246 586.304 211.831 586.304 211.322ZM601.314 230.929L602.808 221.648C602.886 220.962 602.819 220.359 602.609 219.839C602.41 219.319 602.072 218.915 601.596 218.627C601.131 218.339 600.545 218.184 599.836 218.162C599.217 218.151 598.608 218.251 598.01 218.461C597.424 218.671 596.914 218.987 596.483 219.407C596.051 219.828 595.769 220.359 595.636 221.001L592.648 221.018C592.725 220.121 593.008 219.341 593.495 218.677C593.982 218.002 594.59 217.443 595.321 217C596.051 216.546 596.837 216.214 597.678 216.004C598.519 215.783 599.338 215.677 600.135 215.688C601.342 215.711 602.387 215.971 603.273 216.469C604.169 216.956 604.844 217.642 605.298 218.527C605.752 219.413 605.918 220.475 605.796 221.715L604.418 230.082C604.319 230.691 604.258 231.305 604.236 231.925C604.225 232.534 604.297 233.131 604.452 233.718L604.418 234L601.38 234.017C601.259 233.507 601.198 232.993 601.198 232.473C601.209 231.952 601.247 231.438 601.314 230.929ZM603.157 223.109L602.808 225.268L599.969 225.251C599.372 225.251 598.741 225.295 598.077 225.384C597.413 225.472 596.782 225.638 596.184 225.882C595.586 226.125 595.083 226.479 594.673 226.944C594.264 227.398 594.015 227.99 593.926 228.721C593.86 229.318 593.932 229.839 594.142 230.281C594.363 230.713 594.695 231.05 595.138 231.294C595.581 231.537 596.095 231.665 596.682 231.676C597.446 231.687 598.198 231.537 598.94 231.228C599.681 230.918 600.329 230.475 600.882 229.899C601.436 229.324 601.817 228.66 602.028 227.907L603.123 229.385C602.913 230.115 602.57 230.79 602.094 231.41C601.618 232.019 601.054 232.545 600.401 232.987C599.759 233.43 599.067 233.773 598.326 234.017C597.584 234.26 596.843 234.376 596.101 234.365C595.094 234.343 594.181 234.116 593.362 233.685C592.554 233.253 591.912 232.65 591.436 231.875C590.971 231.089 590.772 230.176 590.838 229.136C590.905 227.996 591.204 227.038 591.735 226.264C592.266 225.489 592.947 224.869 593.777 224.404C594.618 223.939 595.537 223.607 596.533 223.408C597.529 223.198 598.514 223.093 599.488 223.093L603.157 223.109ZM622.898 216.037H625.654L622.649 233.602C622.439 235.096 621.957 236.413 621.205 237.553C620.463 238.693 619.489 239.578 618.283 240.209C617.087 240.84 615.721 241.139 614.182 241.105C613.374 241.083 612.583 240.945 611.808 240.69C611.033 240.436 610.319 240.076 609.666 239.611C609.013 239.146 608.466 238.576 608.023 237.901L609.749 236.108C610.27 236.85 610.884 237.437 611.592 237.868C612.312 238.311 613.131 238.549 614.049 238.582C615.056 238.604 615.947 238.416 616.722 238.018C617.508 237.63 618.144 237.071 618.631 236.341C619.129 235.61 619.456 234.753 619.611 233.768L621.968 219.839L622.898 216.037ZM609.334 225.351L609.384 224.985C609.517 223.879 609.777 222.772 610.165 221.665C610.563 220.558 611.094 219.551 611.758 218.644C612.422 217.725 613.236 217 614.199 216.469C615.162 215.926 616.285 215.666 617.569 215.688C618.731 215.722 619.699 215.993 620.474 216.502C621.249 217.011 621.858 217.686 622.3 218.527C622.754 219.357 623.058 220.271 623.213 221.267C623.379 222.263 623.429 223.264 623.363 224.271L623.18 225.799C622.992 226.872 622.682 227.924 622.25 228.953C621.819 229.982 621.26 230.912 620.574 231.742C619.887 232.561 619.068 233.209 618.117 233.685C617.176 234.16 616.102 234.382 614.896 234.349C613.712 234.304 612.732 234 611.957 233.436C611.194 232.871 610.602 232.146 610.181 231.261C609.761 230.364 609.489 229.401 609.368 228.372C609.246 227.332 609.235 226.325 609.334 225.351ZM612.406 224.969L612.356 225.334C612.278 225.998 612.256 226.695 612.29 227.426C612.323 228.156 612.45 228.848 612.671 229.501C612.893 230.143 613.247 230.674 613.734 231.095C614.232 231.504 614.907 231.72 615.759 231.742C616.667 231.775 617.508 231.576 618.283 231.145C619.057 230.713 619.721 230.137 620.275 229.418C620.828 228.699 621.227 227.918 621.47 227.077L622.118 223.043C622.151 222.434 622.079 221.848 621.902 221.283C621.725 220.719 621.459 220.215 621.105 219.772C620.762 219.33 620.341 218.976 619.843 218.71C619.345 218.444 618.781 218.306 618.15 218.295C617.22 218.262 616.418 218.444 615.743 218.843C615.068 219.23 614.498 219.756 614.033 220.42C613.579 221.084 613.219 221.814 612.954 222.611C612.688 223.408 612.505 224.194 612.406 224.969ZM632.545 220.055L630.122 234H627.117L630.238 216.037H633.077L632.545 220.055ZM631.151 224.338L629.922 224.305C630.077 223.231 630.36 222.18 630.769 221.15C631.19 220.11 631.737 219.175 632.413 218.345C633.099 217.515 633.912 216.862 634.853 216.386C635.805 215.899 636.889 215.672 638.107 215.705C639.07 215.727 639.872 215.915 640.514 216.27C641.167 216.613 641.676 217.083 642.042 217.681C642.407 218.278 642.65 218.97 642.772 219.756C642.894 220.531 642.905 221.355 642.805 222.229L640.846 234H637.825L639.817 222.18C639.894 221.46 639.867 220.813 639.734 220.237C639.612 219.651 639.335 219.186 638.904 218.843C638.483 218.489 637.875 218.3 637.078 218.278C636.236 218.256 635.478 218.417 634.803 218.76C634.128 219.103 633.536 219.573 633.027 220.171C632.529 220.757 632.119 221.416 631.798 222.146C631.488 222.866 631.273 223.596 631.151 224.338ZM646.21 225.317L646.26 224.936C646.393 223.729 646.692 222.567 647.157 221.449C647.633 220.331 648.258 219.335 649.033 218.461C649.808 217.587 650.726 216.9 651.789 216.402C652.851 215.904 654.035 215.672 655.341 215.705C656.603 215.727 657.682 215.998 658.579 216.519C659.486 217.039 660.217 217.73 660.77 218.594C661.335 219.446 661.727 220.409 661.949 221.482C662.17 222.556 662.225 223.663 662.115 224.803L662.082 225.185C661.938 226.391 661.628 227.548 661.152 228.654C660.676 229.761 660.045 230.746 659.259 231.609C658.485 232.473 657.566 233.153 656.503 233.651C655.441 234.138 654.262 234.365 652.967 234.332C651.717 234.31 650.638 234.044 649.73 233.535C648.834 233.015 648.109 232.329 647.555 231.477C647.002 230.624 646.614 229.667 646.393 228.604C646.172 227.542 646.111 226.446 646.21 225.317ZM649.249 224.936L649.215 225.334C649.138 226.031 649.132 226.756 649.199 227.509C649.276 228.261 649.453 228.959 649.73 229.601C650.018 230.243 650.433 230.768 650.975 231.178C651.517 231.587 652.22 231.803 653.084 231.825C654.002 231.847 654.81 231.67 655.507 231.294C656.205 230.907 656.797 230.386 657.284 229.733C657.782 229.08 658.175 228.355 658.462 227.559C658.761 226.762 658.96 225.97 659.06 225.185L659.093 224.803C659.171 224.105 659.171 223.381 659.093 222.628C659.027 221.864 658.85 221.156 658.562 220.503C658.285 219.839 657.876 219.302 657.334 218.893C656.791 218.472 656.088 218.251 655.225 218.229C654.307 218.195 653.493 218.378 652.785 218.776C652.087 219.164 651.495 219.689 651.008 220.354C650.521 221.018 650.128 221.754 649.83 222.562C649.542 223.358 649.348 224.15 649.249 224.936ZM675.431 229.136C675.531 228.45 675.404 227.913 675.049 227.525C674.706 227.138 674.253 226.845 673.688 226.646C673.135 226.435 672.592 226.264 672.061 226.131C671.397 225.965 670.727 225.76 670.052 225.517C669.377 225.273 668.757 224.963 668.193 224.587C667.64 224.2 667.197 223.724 666.865 223.159C666.544 222.584 666.4 221.886 666.433 221.067C666.477 220.182 666.71 219.402 667.13 218.727C667.562 218.051 668.115 217.487 668.791 217.033C669.477 216.579 670.224 216.242 671.032 216.021C671.84 215.799 672.642 215.694 673.439 215.705C674.568 215.727 675.592 215.96 676.51 216.402C677.44 216.845 678.176 217.481 678.718 218.312C679.261 219.142 679.515 220.149 679.482 221.333L676.51 221.316C676.532 220.686 676.405 220.143 676.129 219.689C675.852 219.236 675.47 218.887 674.983 218.644C674.496 218.389 673.943 218.256 673.323 218.245C672.736 218.234 672.161 218.328 671.596 218.527C671.032 218.715 670.55 219.014 670.152 219.424C669.754 219.822 669.51 220.342 669.421 220.984C669.355 221.46 669.427 221.853 669.637 222.163C669.848 222.462 670.135 222.705 670.501 222.894C670.877 223.071 671.27 223.22 671.679 223.342C672.1 223.452 672.482 223.552 672.825 223.641C673.732 223.895 674.629 224.216 675.514 224.604C676.4 224.991 677.119 225.528 677.672 226.214C678.226 226.889 678.475 227.78 678.42 228.887C678.375 229.827 678.126 230.646 677.672 231.344C677.23 232.03 676.654 232.6 675.946 233.054C675.249 233.496 674.479 233.823 673.638 234.033C672.797 234.243 671.956 234.343 671.115 234.332C669.953 234.31 668.868 234.072 667.861 233.618C666.865 233.153 666.068 232.489 665.47 231.626C664.873 230.752 664.59 229.689 664.624 228.438L667.629 228.455C667.629 229.174 667.778 229.783 668.077 230.281C668.387 230.768 668.813 231.139 669.355 231.394C669.897 231.648 670.517 231.781 671.214 231.792C671.801 231.803 672.399 231.726 673.007 231.56C673.627 231.394 674.158 231.117 674.601 230.729C675.055 230.331 675.332 229.8 675.431 229.136ZM687.835 216.037L684.714 234H681.709L684.83 216.037H687.835ZM685.427 211.322C685.427 210.802 685.588 210.37 685.909 210.027C686.241 209.673 686.667 209.491 687.187 209.479C687.707 209.468 688.133 209.629 688.465 209.961C688.809 210.293 688.975 210.714 688.964 211.223C688.964 211.732 688.792 212.158 688.449 212.501C688.117 212.833 687.696 213.005 687.187 213.016C686.678 213.027 686.257 212.877 685.925 212.567C685.593 212.246 685.427 211.831 685.427 211.322ZM700.67 229.136C700.769 228.45 700.642 227.913 700.288 227.525C699.945 227.138 699.491 226.845 698.926 226.646C698.373 226.435 697.831 226.264 697.299 226.131C696.635 225.965 695.966 225.76 695.291 225.517C694.616 225.273 693.996 224.963 693.431 224.587C692.878 224.2 692.435 223.724 692.103 223.159C691.782 222.584 691.638 221.886 691.672 221.067C691.716 220.182 691.948 219.402 692.369 218.727C692.8 218.051 693.354 217.487 694.029 217.033C694.715 216.579 695.462 216.242 696.27 216.021C697.078 215.799 697.881 215.694 698.677 215.705C699.806 215.727 700.83 215.96 701.749 216.402C702.678 216.845 703.414 217.481 703.957 218.312C704.499 219.142 704.754 220.149 704.72 221.333L701.749 221.316C701.771 220.686 701.644 220.143 701.367 219.689C701.09 219.236 700.708 218.887 700.221 218.644C699.734 218.389 699.181 218.256 698.561 218.245C697.975 218.234 697.399 218.328 696.835 218.527C696.27 218.715 695.789 219.014 695.39 219.424C694.992 219.822 694.748 220.342 694.66 220.984C694.593 221.46 694.665 221.853 694.876 222.163C695.086 222.462 695.374 222.705 695.739 222.894C696.115 223.071 696.508 223.22 696.918 223.342C697.338 223.452 697.72 223.552 698.063 223.641C698.971 223.895 699.867 224.216 700.753 224.604C701.638 224.991 702.357 225.528 702.911 226.214C703.464 226.889 703.713 227.78 703.658 228.887C703.614 229.827 703.365 230.646 702.911 231.344C702.468 232.03 701.893 232.6 701.184 233.054C700.487 233.496 699.718 233.823 698.877 234.033C698.035 234.243 697.194 234.343 696.353 234.332C695.191 234.31 694.106 234.072 693.099 233.618C692.103 233.153 691.306 232.489 690.709 231.626C690.111 230.752 689.829 229.689 689.862 228.438L692.867 228.455C692.867 229.174 693.016 229.783 693.315 230.281C693.625 230.768 694.051 231.139 694.593 231.394C695.136 231.648 695.756 231.781 696.453 231.792C697.039 231.803 697.637 231.726 698.246 231.56C698.866 231.394 699.397 231.117 699.84 230.729C700.293 230.331 700.57 229.8 700.67 229.136Z" fill="#0D47A1"/>
<g filter="url(#filter6_d_481_1189)">
<rect x="570.077" y="319.41" width="126" height="126" rx="32" fill="white" shape-rendering="crispEdges"/>
<g filter="url(#filter7_i_481_1189)">
<rect x="578.077" y="327.41" width="110" height="110" rx="25.1429" fill="white"/>
<rect x="578.077" y="327.41" width="110" height="110" rx="25.1429" fill="url(#paint4_linear_481_1189)"/>
<g filter="url(#filter8_d_481_1189)">
<path fill-rule="evenodd" clip-rule="evenodd" d="M639.848 363.125C639.848 360.519 637.733 358.411 635.119 358.411H632.97C631.547 358.411 630.39 357.258 630.39 355.839V350.696C630.39 348.331 628.464 346.411 626.091 346.411H602.015C599.165 346.411 596.856 348.712 596.856 351.553V377.268C596.856 380.109 599.165 382.411 602.015 382.411H605.454V381.125C605.454 376.629 609.113 372.982 613.623 372.982C618.133 372.982 621.792 376.629 621.792 381.125V382.411H625.231C628.081 382.411 630.39 380.109 630.39 377.268V370.411C630.39 368.992 631.547 367.84 632.97 367.84H635.119C637.733 367.84 639.848 365.731 639.848 363.125ZM626.95 385.839C629.801 385.839 632.109 388.14 632.109 390.982V393.553C631.68 393.545 631.25 393.553 630.82 393.553C626.31 393.553 622.651 397.2 622.651 401.696C622.651 405.913 625.867 409.38 629.986 409.796C630.631 409.864 631.46 409.839 632.109 409.839V413.267C632.109 416.109 629.801 418.41 626.95 418.41H602.015C599.165 418.41 596.856 416.109 596.856 413.267V390.124C596.856 387.759 598.782 385.839 601.155 385.839H606.314C607.737 385.839 608.894 384.686 608.894 383.267V381.124C608.894 378.519 611.009 376.41 613.623 376.41C616.237 376.41 618.352 378.519 618.352 381.124V383.267C618.352 384.686 619.509 385.839 620.932 385.839L626.95 385.839ZM635.549 414.124V408.981C635.549 407.563 634.392 406.41 632.969 406.41C632.097 406.41 631.207 406.474 630.338 406.384C627.952 406.144 626.09 404.138 626.09 401.696C626.09 399.09 628.206 396.981 630.82 396.981H632.969C634.392 396.981 635.549 395.828 635.549 394.41V388.517C635.549 385.736 637.81 383.481 640.6 383.481H644.147V384.553C644.147 389.049 647.806 392.696 652.316 392.696C656.826 392.696 660.485 389.049 660.485 384.553V383.481H664.139C666.989 383.481 669.298 385.783 669.298 388.624V413.267C669.298 416.108 666.989 418.41 664.139 418.41H639.848C637.475 418.41 635.549 416.49 635.549 414.124ZM660.656 379.839C660.213 379.839 659.792 379.916 659.401 380.061C658.081 380.177 657.045 381.279 657.045 382.624V384.553C657.045 387.159 654.929 389.267 652.315 389.267C649.701 389.267 647.586 387.159 647.586 384.553V382.624C647.586 381.279 646.55 380.177 645.23 380.061C644.839 379.916 644.418 379.839 643.975 379.839H638.988C636.137 379.839 633.829 377.537 633.829 374.696V371.267H635.119C639.628 371.267 643.287 367.62 643.287 363.124C643.287 362.842 643.274 362.567 643.244 362.293C642.827 358.187 639.349 354.982 635.119 354.982H633.829V351.553C633.829 348.712 636.138 346.41 638.988 346.41H663.923C666.774 346.41 669.082 348.712 669.082 351.553V375.553C669.082 377.918 667.156 379.838 664.783 379.838L660.656 379.839Z" fill="#3388E9"/>
</g>
</g>
</g>
<path d="M559.98 477.238L567.55 477.255C569.022 477.288 570.322 477.57 571.451 478.102C572.58 478.633 573.438 479.419 574.024 480.459C574.622 481.488 574.855 482.789 574.722 484.36C574.611 485.611 574.257 486.69 573.659 487.598C573.073 488.494 572.315 489.247 571.385 489.855C570.455 490.453 569.426 490.929 568.297 491.283L567.367 491.615H559.863L560.295 489.009L565.624 489.025C566.598 489.025 567.511 488.848 568.363 488.494C569.227 488.14 569.946 487.62 570.522 486.934C571.108 486.236 571.468 485.379 571.601 484.36C571.722 483.386 571.628 482.573 571.318 481.92C571.009 481.267 570.522 480.769 569.857 480.426C569.204 480.083 568.413 479.9 567.483 479.878L562.652 479.861L558.917 501.41H555.779L559.98 477.238ZM569.575 501.41L565.774 490.453L568.861 490.437L572.912 501.194L572.896 501.41H569.575ZM583.34 501.742C582.111 501.72 581.043 501.477 580.136 501.012C579.239 500.536 578.503 499.899 577.928 499.103C577.363 498.295 576.959 497.376 576.716 496.347C576.472 495.317 576.4 494.238 576.5 493.109L576.567 492.396C576.677 491.244 576.959 490.116 577.413 489.009C577.867 487.891 578.47 486.884 579.223 485.987C579.986 485.091 580.883 484.382 581.912 483.862C582.953 483.331 584.104 483.082 585.365 483.115C586.616 483.137 587.656 483.403 588.486 483.912C589.317 484.421 589.964 485.096 590.429 485.938C590.905 486.768 591.215 487.703 591.359 488.743C591.502 489.772 591.513 490.829 591.392 491.914L591.209 493.292H578.177L578.575 490.785L588.52 490.802L588.569 490.536C588.68 489.739 588.636 488.97 588.437 488.229C588.237 487.487 587.872 486.878 587.341 486.402C586.821 485.915 586.118 485.661 585.233 485.639C584.314 485.605 583.517 485.794 582.842 486.203C582.167 486.602 581.602 487.144 581.149 487.83C580.695 488.505 580.335 489.247 580.069 490.055C579.815 490.852 579.638 491.632 579.538 492.396L579.472 493.093C579.405 493.801 579.428 494.515 579.538 495.234C579.649 495.954 579.859 496.612 580.169 497.21C580.49 497.797 580.933 498.278 581.497 498.654C582.062 499.02 582.759 499.213 583.589 499.235C584.596 499.257 585.498 499.042 586.295 498.588C587.103 498.123 587.839 497.536 588.503 496.828L590.213 498.289C589.693 499.053 589.073 499.695 588.354 500.215C587.634 500.735 586.848 501.122 585.996 501.377C585.144 501.632 584.259 501.753 583.34 501.742ZM604.409 496.546C604.509 495.86 604.382 495.323 604.027 494.936C603.684 494.548 603.231 494.255 602.666 494.056C602.113 493.845 601.57 493.674 601.039 493.541C600.375 493.375 599.706 493.17 599.03 492.927C598.355 492.683 597.735 492.373 597.171 491.997C596.618 491.61 596.175 491.134 595.843 490.569C595.522 489.994 595.378 489.297 595.411 488.478C595.456 487.592 595.688 486.812 596.109 486.137C596.54 485.462 597.094 484.897 597.769 484.443C598.455 483.99 599.202 483.652 600.01 483.431C600.818 483.209 601.62 483.104 602.417 483.115C603.546 483.137 604.57 483.37 605.488 483.812C606.418 484.255 607.154 484.892 607.696 485.722C608.239 486.552 608.493 487.559 608.46 488.743L605.488 488.727C605.511 488.096 605.383 487.553 605.107 487.1C604.83 486.646 604.448 486.297 603.961 486.054C603.474 485.799 602.921 485.666 602.301 485.655C601.714 485.644 601.139 485.738 600.574 485.938C600.01 486.126 599.528 486.424 599.13 486.834C598.732 487.232 598.488 487.753 598.4 488.395C598.333 488.87 598.405 489.263 598.615 489.573C598.826 489.872 599.113 490.116 599.479 490.304C599.855 490.481 600.248 490.63 600.657 490.752C601.078 490.863 601.46 490.962 601.803 491.051C602.71 491.305 603.607 491.626 604.492 492.014C605.378 492.401 606.097 492.938 606.651 493.624C607.204 494.299 607.453 495.19 607.398 496.297C607.353 497.238 607.104 498.057 606.651 498.754C606.208 499.44 605.632 500.01 604.924 500.464C604.227 500.907 603.458 501.233 602.616 501.443C601.775 501.654 600.934 501.753 600.093 501.742C598.931 501.72 597.846 501.482 596.839 501.028C595.843 500.563 595.046 499.899 594.448 499.036C593.851 498.162 593.569 497.099 593.602 495.849L596.607 495.865C596.607 496.585 596.756 497.193 597.055 497.691C597.365 498.178 597.791 498.549 598.333 498.804C598.875 499.058 599.495 499.191 600.193 499.202C600.779 499.213 601.377 499.136 601.985 498.97C602.605 498.804 603.137 498.527 603.579 498.14C604.033 497.741 604.31 497.21 604.409 496.546ZM611.218 492.728L611.268 492.346C611.401 491.139 611.699 489.977 612.164 488.859C612.64 487.742 613.265 486.745 614.04 485.871C614.815 484.997 615.734 484.311 616.796 483.812C617.859 483.314 619.043 483.082 620.349 483.115C621.611 483.137 622.69 483.409 623.586 483.929C624.494 484.449 625.224 485.141 625.778 486.004C626.342 486.856 626.735 487.819 626.956 488.893C627.178 489.966 627.233 491.073 627.122 492.213L627.089 492.595C626.945 493.801 626.635 494.958 626.159 496.064C625.683 497.171 625.053 498.156 624.267 499.02C623.492 499.883 622.573 500.563 621.511 501.062C620.448 501.549 619.27 501.775 617.975 501.742C616.724 501.72 615.645 501.454 614.737 500.945C613.841 500.425 613.116 499.739 612.563 498.887C612.009 498.035 611.622 497.077 611.401 496.015C611.179 494.952 611.118 493.856 611.218 492.728ZM614.256 492.346L614.223 492.744C614.145 493.441 614.14 494.166 614.206 494.919C614.284 495.672 614.461 496.369 614.737 497.011C615.025 497.653 615.44 498.178 615.983 498.588C616.525 498.997 617.228 499.213 618.091 499.235C619.01 499.257 619.818 499.08 620.515 498.704C621.212 498.317 621.804 497.797 622.291 497.144C622.789 496.491 623.182 495.766 623.47 494.969C623.769 494.172 623.968 493.381 624.068 492.595L624.101 492.213C624.178 491.516 624.178 490.791 624.101 490.038C624.034 489.274 623.857 488.566 623.57 487.913C623.293 487.249 622.883 486.712 622.341 486.303C621.799 485.882 621.096 485.661 620.233 485.639C619.314 485.605 618.501 485.788 617.792 486.187C617.095 486.574 616.503 487.1 616.016 487.764C615.529 488.428 615.136 489.164 614.837 489.972C614.549 490.769 614.356 491.56 614.256 492.346ZM637.035 475.91L632.603 501.41H629.598L634.014 475.91H637.035ZM648.891 497.094L651.248 483.447H654.27L651.149 501.41H648.277L648.891 497.094ZM650.02 493.475L651.248 493.425C651.104 494.554 650.85 495.627 650.485 496.646C650.119 497.653 649.621 498.549 648.991 499.335C648.371 500.11 647.596 500.718 646.666 501.161C645.748 501.593 644.657 501.792 643.396 501.759C642.411 501.726 641.586 501.526 640.922 501.161C640.269 500.796 639.754 500.303 639.378 499.684C639.002 499.064 638.753 498.355 638.631 497.559C638.509 496.762 638.493 495.921 638.581 495.035L640.524 483.447H643.529L641.586 495.085C641.542 495.572 641.536 496.053 641.57 496.529C641.603 496.994 641.702 497.42 641.868 497.808C642.034 498.195 642.289 498.51 642.632 498.754C642.986 498.986 643.451 499.114 644.027 499.136C645.222 499.18 646.235 498.959 647.065 498.472C647.895 497.974 648.553 497.287 649.04 496.413C649.527 495.539 649.854 494.559 650.02 493.475ZM666.192 483.447L665.777 485.805H656.33L656.745 483.447H666.192ZM660.697 479.081H663.685L660.647 496.994C660.614 497.382 660.625 497.73 660.68 498.04C660.735 498.35 660.868 498.599 661.078 498.787C661.289 498.964 661.61 499.058 662.041 499.069C662.285 499.069 662.523 499.053 662.755 499.02C662.999 498.975 663.242 498.937 663.486 498.903L663.27 501.427C662.916 501.526 662.55 501.598 662.174 501.643C661.809 501.698 661.444 501.72 661.078 501.709C660.16 501.698 659.44 501.465 658.92 501.012C658.4 500.558 658.046 499.971 657.858 499.252C657.67 498.533 657.614 497.763 657.692 496.944L660.697 479.081ZM673 483.447L669.879 501.41H666.874L669.995 483.447H673ZM670.593 478.732C670.593 478.212 670.754 477.781 671.075 477.438C671.407 477.083 671.833 476.901 672.353 476.89C672.873 476.879 673.299 477.039 673.631 477.371C673.974 477.703 674.14 478.124 674.129 478.633C674.129 479.142 673.958 479.568 673.615 479.911C673.283 480.243 672.862 480.415 672.353 480.426C671.844 480.437 671.423 480.287 671.091 479.978C670.759 479.657 670.593 479.242 670.593 478.732ZM675.526 492.728L675.576 492.346C675.708 491.139 676.007 489.977 676.472 488.859C676.948 487.742 677.573 486.745 678.348 485.871C679.123 484.997 680.041 484.311 681.104 483.812C682.166 483.314 683.351 483.082 684.657 483.115C685.918 483.137 686.997 483.409 687.894 483.929C688.801 484.449 689.532 485.141 690.085 486.004C690.65 486.856 691.043 487.819 691.264 488.893C691.485 489.966 691.541 491.073 691.43 492.213L691.397 492.595C691.253 493.801 690.943 494.958 690.467 496.064C689.991 497.171 689.36 498.156 688.575 499.02C687.8 499.883 686.881 500.563 685.819 501.062C684.756 501.549 683.578 501.775 682.283 501.742C681.032 501.72 679.953 501.454 679.045 500.945C678.149 500.425 677.424 499.739 676.87 498.887C676.317 498.035 675.93 497.077 675.708 496.015C675.487 494.952 675.426 493.856 675.526 492.728ZM678.564 492.346L678.531 492.744C678.453 493.441 678.448 494.166 678.514 494.919C678.592 495.672 678.769 496.369 679.045 497.011C679.333 497.653 679.748 498.178 680.29 498.588C680.833 498.997 681.536 499.213 682.399 499.235C683.317 499.257 684.125 499.08 684.823 498.704C685.52 498.317 686.112 497.797 686.599 497.144C687.097 496.491 687.49 495.766 687.778 494.969C688.077 494.172 688.276 493.381 688.375 492.595L688.409 492.213C688.486 491.516 688.486 490.791 688.409 490.038C688.342 489.274 688.165 488.566 687.877 487.913C687.601 487.249 687.191 486.712 686.649 486.303C686.107 485.882 685.404 485.661 684.54 485.639C683.622 485.605 682.808 485.788 682.1 486.187C681.403 486.574 680.811 487.1 680.324 487.764C679.837 488.428 679.444 489.164 679.145 489.972C678.857 490.769 678.663 491.56 678.564 492.346ZM699.085 487.465L696.662 501.41H693.657L696.778 483.447H699.617L699.085 487.465ZM697.691 491.748L696.462 491.715C696.617 490.641 696.9 489.59 697.309 488.561C697.73 487.52 698.277 486.585 698.953 485.755C699.639 484.925 700.452 484.272 701.393 483.796C702.345 483.309 703.429 483.082 704.647 483.115C705.61 483.137 706.412 483.326 707.054 483.68C707.707 484.023 708.216 484.493 708.581 485.091C708.947 485.688 709.19 486.38 709.312 487.166C709.434 487.941 709.445 488.765 709.345 489.64L707.386 501.41H704.365L706.357 489.59C706.434 488.87 706.407 488.223 706.274 487.647C706.152 487.061 705.875 486.596 705.444 486.253C705.023 485.899 704.414 485.711 703.618 485.688C702.776 485.666 702.018 485.827 701.343 486.17C700.668 486.513 700.076 486.983 699.567 487.581C699.069 488.168 698.659 488.826 698.338 489.557C698.028 490.276 697.813 491.007 697.691 491.748Z" fill="#0D47A1"/>
<g filter="url(#filter9_d_481_1189)">
<rect x="63" y="319.41" width="318" height="126" rx="32" fill="white" shape-rendering="crispEdges"/>
<g filter="url(#filter10_i_481_1189)">
<rect x="71" y="327.41" width="302" height="110" rx="25.1429" fill="white"/>
<rect x="71" y="327.41" width="302" height="110" rx="25.1429" fill="url(#paint5_linear_481_1189)"/>
<path d="M145.816 381.776V391.355C145.44 391.809 144.859 392.302 144.073 392.833C143.287 393.353 142.275 393.801 141.035 394.178C139.796 394.554 138.296 394.742 136.536 394.742C134.976 394.742 133.553 394.488 132.27 393.979C130.986 393.458 129.879 392.7 128.949 391.704C128.031 390.708 127.322 389.491 126.824 388.052C126.326 386.602 126.077 384.947 126.077 383.088V381.577C126.077 379.718 126.315 378.063 126.791 376.613C127.278 375.163 127.97 373.94 128.866 372.944C129.763 371.948 130.831 371.19 132.07 370.67C133.31 370.15 134.688 369.89 136.204 369.89C138.307 369.89 140.034 370.233 141.384 370.919C142.734 371.594 143.763 372.535 144.472 373.741C145.191 374.937 145.634 376.309 145.8 377.858H140.969C140.847 377.039 140.615 376.326 140.271 375.717C139.928 375.108 139.436 374.632 138.794 374.289C138.163 373.946 137.344 373.774 136.337 373.774C135.507 373.774 134.765 373.946 134.112 374.289C133.47 374.621 132.928 375.114 132.485 375.767C132.043 376.42 131.705 377.228 131.473 378.19C131.24 379.153 131.124 380.271 131.124 381.544V383.088C131.124 384.35 131.246 385.467 131.489 386.441C131.733 387.404 132.092 388.218 132.568 388.882C133.055 389.535 133.653 390.027 134.361 390.359C135.07 390.691 135.894 390.857 136.835 390.857C137.621 390.857 138.274 390.791 138.794 390.658C139.325 390.525 139.751 390.365 140.072 390.177C140.404 389.978 140.659 389.789 140.836 389.612V385.329H136.287V381.776H145.816ZM165.458 390.525V394.41H153.289V390.525H165.458ZM154.899 370.238V394.41H149.919V370.238H154.899ZM178.559 374.372L171.984 394.41H166.689L175.67 370.238H179.04L178.559 374.372ZM184.021 394.41L177.43 374.372L176.899 370.238H180.302L189.333 394.41H184.021ZM183.722 385.412V389.313H170.955V385.412H183.722ZM199.08 394.41H193.817L193.851 390.525H199.08C200.386 390.525 201.487 390.232 202.384 389.646C203.28 389.048 203.956 388.179 204.409 387.039C204.874 385.899 205.107 384.521 205.107 382.905V381.727C205.107 380.487 204.974 379.397 204.708 378.456C204.454 377.515 204.072 376.724 203.563 376.082C203.053 375.44 202.428 374.959 201.687 374.638C200.945 374.306 200.093 374.14 199.13 374.14H193.718V370.238H199.13C200.746 370.238 202.223 370.515 203.563 371.068C204.913 371.611 206.081 372.391 207.066 373.409C208.051 374.427 208.809 375.645 209.34 377.062C209.882 378.467 210.153 380.033 210.153 381.76V382.905C210.153 384.621 209.882 386.187 209.34 387.604C208.809 389.02 208.051 390.238 207.066 391.256C206.092 392.263 204.924 393.043 203.563 393.597C202.212 394.139 200.718 394.41 199.08 394.41ZM196.64 370.238V394.41H191.659V370.238H196.64ZM216.132 370.238H220.349L226.558 387.985L232.767 370.238H236.984L228.251 394.41H224.864L216.132 370.238ZM213.858 370.238H218.058L218.821 387.537V394.41H213.858V370.238ZM235.058 370.238H239.275V394.41H234.294V387.537L235.058 370.238ZM249.022 370.238V394.41H244.058V370.238H249.022ZM273.445 370.238V394.41H268.464L258.752 378.207V394.41H253.772V370.238H258.752L268.481 386.458V370.238H273.445ZM285.283 394.41H280.021L280.054 390.525H285.283C286.589 390.525 287.691 390.232 288.587 389.646C289.484 389.048 290.159 388.179 290.613 387.039C291.077 385.899 291.31 384.521 291.31 382.905V381.727C291.31 380.487 291.177 379.397 290.911 378.456C290.657 377.515 290.275 376.724 289.766 376.082C289.257 375.44 288.631 374.959 287.89 374.638C287.148 374.306 286.296 374.14 285.333 374.14H279.921V370.238H285.333C286.949 370.238 288.427 370.515 289.766 371.068C291.116 371.611 292.284 372.391 293.269 373.409C294.254 374.427 295.012 375.645 295.543 377.062C296.086 378.467 296.357 380.033 296.357 381.76V382.905C296.357 384.621 296.086 386.187 295.543 387.604C295.012 389.02 294.254 390.238 293.269 391.256C292.295 392.263 291.127 393.043 289.766 393.597C288.416 394.139 286.921 394.41 285.283 394.41ZM282.843 370.238V394.41H277.863V370.238H282.843ZM312.645 388.085C312.645 387.653 312.578 387.266 312.446 386.923C312.324 386.569 312.091 386.248 311.748 385.96C311.405 385.661 310.924 385.368 310.304 385.08C309.684 384.792 308.882 384.493 307.897 384.184C306.801 383.829 305.761 383.431 304.776 382.988C303.802 382.546 302.938 382.031 302.186 381.444C301.444 380.847 300.858 380.155 300.426 379.369C300.006 378.583 299.795 377.67 299.795 376.63C299.795 375.623 300.017 374.71 300.459 373.891C300.902 373.061 301.522 372.352 302.319 371.766C303.116 371.168 304.056 370.709 305.141 370.388C306.237 370.067 307.437 369.906 308.743 369.906C310.525 369.906 312.08 370.227 313.409 370.869C314.737 371.511 315.766 372.391 316.496 373.509C317.238 374.627 317.609 375.905 317.609 377.344H312.661C312.661 376.635 312.512 376.016 312.213 375.484C311.925 374.942 311.483 374.516 310.885 374.206C310.298 373.896 309.557 373.741 308.66 373.741C307.797 373.741 307.078 373.874 306.502 374.14C305.927 374.394 305.495 374.743 305.207 375.186C304.92 375.617 304.776 376.104 304.776 376.646C304.776 377.056 304.875 377.427 305.075 377.759C305.285 378.091 305.595 378.401 306.004 378.688C306.414 378.976 306.917 379.247 307.515 379.502C308.113 379.757 308.804 380.006 309.59 380.249C310.907 380.647 312.064 381.096 313.06 381.594C314.067 382.092 314.908 382.651 315.583 383.271C316.258 383.89 316.768 384.593 317.111 385.379C317.454 386.165 317.625 387.056 317.625 388.052C317.625 389.103 317.421 390.044 317.011 390.874C316.602 391.704 316.009 392.407 315.235 392.982C314.46 393.558 313.536 393.995 312.462 394.294C311.389 394.593 310.188 394.742 308.86 394.742C307.664 394.742 306.486 394.587 305.324 394.277C304.161 393.956 303.104 393.475 302.153 392.833C301.212 392.191 300.459 391.372 299.895 390.376C299.33 389.38 299.048 388.201 299.048 386.84H304.045C304.045 387.592 304.161 388.229 304.394 388.749C304.626 389.269 304.953 389.69 305.373 390.011C305.805 390.332 306.314 390.564 306.901 390.708C307.498 390.852 308.151 390.924 308.86 390.924C309.723 390.924 310.431 390.802 310.985 390.559C311.549 390.315 311.964 389.978 312.23 389.546C312.506 389.114 312.645 388.627 312.645 388.085Z" fill="#0D47A1"/>
</g>
</g>
<g filter="url(#filter11_d_481_1189)">
<rect x="972.084" y="313.41" width="126" height="126" rx="32" fill="white" shape-rendering="crispEdges"/>
<g filter="url(#filter12_i_481_1189)">
<rect x="980.084" y="321.41" width="110" height="110" rx="25.1429" fill="white"/>
<rect x="980.084" y="321.41" width="110" height="110" rx="25.1429" fill="url(#paint6_linear_481_1189)"/>
<g filter="url(#filter13_d_481_1189)">
<path d="M1064.62 344.063H1005.55C1001.98 344.08 999.105 346.967 999.084 350.53V387.501C999.105 391.067 1001.98 393.951 1005.55 393.972H1010.16V405.985C1010.17 407.028 1010.75 407.981 1011.67 408.463C1012.07 408.65 1012.49 408.754 1012.93 408.757C1013.51 408.75 1014.08 408.57 1014.55 408.241L1034.49 393.972H1064.62C1068.18 393.951 1071.06 391.067 1071.08 387.501V350.53C1071.06 346.967 1068.18 344.08 1064.62 344.063ZM1035.08 379.183H1016.62C1015.09 379.183 1013.85 377.942 1013.85 376.41C1013.85 374.878 1015.09 373.637 1016.62 373.637H1035.08C1036.61 373.637 1037.85 374.878 1037.85 376.41C1037.85 377.942 1036.61 379.183 1035.08 379.183ZM1053.54 364.394H1016.62C1015.09 364.394 1013.85 363.153 1013.85 361.621C1013.85 360.093 1015.09 358.848 1016.62 358.848H1053.54C1055.07 358.848 1056.31 360.093 1056.31 361.621C1056.31 363.153 1055.07 364.394 1053.54 364.394Z" fill="#3388E9"/>
</g>
</g>
</g>
<path d="M972.132 469.238L967.932 493.41H964.794L968.994 469.238H972.132ZM980.068 480.112L979.603 482.735H969.077L969.542 480.112H980.068ZM983.537 469.238L983.073 471.861H970.97L971.435 469.238H983.537ZM989.898 493.742C988.669 493.72 987.601 493.477 986.694 493.012C985.797 492.536 985.061 491.899 984.486 491.103C983.921 490.295 983.517 489.376 983.274 488.347C983.03 487.317 982.958 486.238 983.058 485.109L983.124 484.396C983.235 483.244 983.517 482.116 983.971 481.009C984.425 479.891 985.028 478.884 985.781 477.987C986.544 477.091 987.441 476.382 988.47 475.862C989.51 475.331 990.662 475.082 991.923 475.115C993.174 475.137 994.214 475.403 995.044 475.912C995.874 476.421 996.522 477.096 996.987 477.938C997.463 478.768 997.773 479.703 997.916 480.743C998.06 481.772 998.071 482.829 997.95 483.914L997.767 485.292H984.735L985.133 482.785L995.078 482.802L995.127 482.536C995.238 481.739 995.194 480.97 994.995 480.229C994.795 479.487 994.43 478.878 993.899 478.402C993.379 477.915 992.676 477.661 991.79 477.639C990.872 477.605 990.075 477.794 989.4 478.203C988.725 478.602 988.16 479.144 987.706 479.83C987.253 480.505 986.893 481.247 986.627 482.055C986.373 482.852 986.196 483.632 986.096 484.396L986.03 485.093C985.963 485.801 985.985 486.515 986.096 487.234C986.207 487.954 986.417 488.612 986.727 489.21C987.048 489.797 987.491 490.278 988.055 490.654C988.62 491.02 989.317 491.213 990.147 491.235C991.154 491.257 992.056 491.042 992.853 490.588C993.661 490.123 994.397 489.536 995.061 488.828L996.771 490.289C996.251 491.053 995.631 491.695 994.912 492.215C994.192 492.735 993.406 493.122 992.554 493.377C991.702 493.632 990.816 493.753 989.898 493.742ZM1007.48 493.742C1006.25 493.72 1005.18 493.477 1004.28 493.012C1003.38 492.536 1002.64 491.899 1002.07 491.103C1001.5 490.295 1001.1 489.376 1000.86 488.347C1000.61 487.317 1000.54 486.238 1000.64 485.109L1000.71 484.396C1000.82 483.244 1001.1 482.116 1001.55 481.009C1002.01 479.891 1002.61 478.884 1003.36 477.987C1004.13 477.091 1005.02 476.382 1006.05 475.862C1007.09 475.331 1008.24 475.082 1009.51 475.115C1010.76 475.137 1011.8 475.403 1012.63 475.912C1013.46 476.421 1014.1 477.096 1014.57 477.938C1015.05 478.768 1015.36 479.703 1015.5 480.743C1015.64 481.772 1015.65 482.829 1015.53 483.914L1015.35 485.292H1002.32L1002.72 482.785L1012.66 482.802L1012.71 482.536C1012.82 481.739 1012.78 480.97 1012.58 480.229C1012.38 479.487 1012.01 478.878 1011.48 478.402C1010.96 477.915 1010.26 477.661 1009.37 477.639C1008.45 477.605 1007.66 477.794 1006.98 478.203C1006.31 478.602 1005.74 479.144 1005.29 479.83C1004.84 480.505 1004.48 481.247 1004.21 482.055C1003.96 482.852 1003.78 483.632 1003.68 484.396L1003.61 485.093C1003.55 485.801 1003.57 486.515 1003.68 487.234C1003.79 487.954 1004 488.612 1004.31 489.21C1004.63 489.797 1005.07 490.278 1005.64 490.654C1006.2 491.02 1006.9 491.213 1007.73 491.235C1008.74 491.257 1009.64 491.042 1010.44 490.588C1011.24 490.123 1011.98 489.536 1012.64 488.828L1014.35 490.289C1013.83 491.053 1013.21 491.695 1012.49 492.215C1011.78 492.735 1010.99 493.122 1010.14 493.377C1009.28 493.632 1008.4 493.753 1007.48 493.742ZM1029.08 489.741L1032.87 467.91H1035.89L1031.46 493.41H1028.72L1029.08 489.741ZM1018.26 484.761L1018.29 484.412C1018.43 483.305 1018.7 482.199 1019.09 481.092C1019.49 479.985 1020.02 478.972 1020.7 478.054C1021.37 477.135 1022.19 476.405 1023.15 475.862C1024.12 475.32 1025.24 475.065 1026.52 475.099C1027.68 475.132 1028.64 475.403 1029.41 475.912C1030.19 476.421 1030.8 477.096 1031.24 477.938C1031.69 478.768 1032 479.681 1032.15 480.677C1032.32 481.673 1032.37 482.674 1032.3 483.682L1032.12 485.209C1031.93 486.283 1031.62 487.334 1031.19 488.363C1030.76 489.393 1030.2 490.322 1029.51 491.152C1028.84 491.971 1028.02 492.619 1027.07 493.095C1026.13 493.571 1025.05 493.792 1023.84 493.759C1022.66 493.715 1021.69 493.41 1020.91 492.846C1020.15 492.281 1019.55 491.556 1019.12 490.671C1018.7 489.774 1018.42 488.812 1018.29 487.782C1018.17 486.742 1018.16 485.735 1018.26 484.761ZM1021.35 484.379L1021.31 484.728C1021.23 485.392 1021.21 486.094 1021.23 486.836C1021.26 487.566 1021.39 488.258 1021.61 488.911C1021.83 489.553 1022.19 490.084 1022.69 490.505C1023.19 490.914 1023.86 491.136 1024.72 491.169C1025.62 491.191 1026.46 490.986 1027.24 490.555C1028.01 490.123 1028.68 489.548 1029.23 488.828C1029.78 488.109 1030.18 487.328 1030.43 486.487L1031.07 482.453C1031.11 481.844 1031.03 481.263 1030.86 480.71C1030.68 480.146 1030.42 479.642 1030.06 479.199C1029.72 478.757 1029.29 478.402 1028.78 478.137C1028.28 477.86 1027.73 477.716 1027.11 477.705C1026.18 477.672 1025.37 477.854 1024.7 478.253C1024.02 478.64 1023.45 479.166 1022.99 479.83C1022.53 480.483 1022.18 481.208 1021.91 482.005C1021.64 482.802 1021.46 483.593 1021.35 484.379ZM1040.56 467.91H1043.58L1039.73 490.106L1038.9 493.41H1036.12L1040.56 467.91ZM1052.48 484.18L1052.44 484.528C1052.3 485.624 1052.03 486.72 1051.65 487.815C1051.27 488.911 1050.75 489.913 1050.08 490.82C1049.43 491.728 1048.63 492.453 1047.68 492.995C1046.74 493.537 1045.63 493.792 1044.36 493.759C1043.21 493.737 1042.24 493.471 1041.45 492.962C1040.67 492.453 1040.05 491.789 1039.59 490.97C1039.14 490.14 1038.83 489.227 1038.66 488.23C1038.5 487.223 1038.45 486.216 1038.51 485.209L1038.7 483.682C1038.88 482.608 1039.19 481.557 1039.63 480.527C1040.06 479.498 1040.62 478.568 1041.3 477.738C1041.99 476.908 1042.8 476.255 1043.74 475.779C1044.68 475.292 1045.76 475.065 1046.98 475.099C1048.21 475.132 1049.2 475.431 1049.97 475.995C1050.74 476.56 1051.33 477.29 1051.73 478.187C1052.13 479.072 1052.38 480.04 1052.48 481.092C1052.59 482.143 1052.59 483.173 1052.48 484.18ZM1049.42 484.512L1049.47 484.146C1049.55 483.482 1049.58 482.78 1049.55 482.038C1049.53 481.297 1049.41 480.599 1049.19 479.946C1048.98 479.293 1048.62 478.762 1048.13 478.353C1047.64 477.932 1046.96 477.711 1046.08 477.688C1045.39 477.666 1044.73 477.783 1044.11 478.037C1043.5 478.281 1042.95 478.629 1042.45 479.083C1041.95 479.526 1041.52 480.04 1041.17 480.627C1040.83 481.202 1040.57 481.811 1040.39 482.453L1039.74 486.487C1039.72 487.284 1039.87 488.037 1040.21 488.745C1040.54 489.442 1041.01 490.012 1041.62 490.455C1042.24 490.887 1042.96 491.119 1043.78 491.152C1044.69 491.186 1045.49 491.008 1046.15 490.621C1046.81 490.223 1047.37 489.697 1047.81 489.044C1048.26 488.38 1048.62 487.649 1048.87 486.853C1049.14 486.056 1049.32 485.275 1049.42 484.512ZM1065.61 490.339L1067.1 481.059C1067.18 480.372 1067.11 479.769 1066.9 479.249C1066.7 478.729 1066.37 478.325 1065.89 478.037C1065.43 477.749 1064.84 477.594 1064.13 477.572C1063.51 477.561 1062.9 477.661 1062.31 477.871C1061.72 478.081 1061.21 478.397 1060.78 478.817C1060.35 479.238 1060.06 479.769 1059.93 480.411L1056.94 480.428C1057.02 479.531 1057.3 478.751 1057.79 478.087C1058.28 477.412 1058.89 476.853 1059.62 476.41C1060.35 475.956 1061.13 475.624 1061.97 475.414C1062.81 475.193 1063.63 475.088 1064.43 475.099C1065.64 475.121 1066.68 475.381 1067.57 475.879C1068.46 476.366 1069.14 477.052 1069.59 477.938C1070.05 478.823 1070.21 479.885 1070.09 481.125L1068.71 489.492C1068.61 490.101 1068.55 490.715 1068.53 491.335C1068.52 491.944 1068.59 492.541 1068.75 493.128L1068.71 493.41L1065.68 493.427C1065.55 492.918 1065.49 492.403 1065.49 491.883C1065.5 491.363 1065.54 490.848 1065.61 490.339ZM1067.45 482.52L1067.1 484.678L1064.26 484.661C1063.67 484.661 1063.04 484.705 1062.37 484.794C1061.71 484.882 1061.08 485.049 1060.48 485.292C1059.88 485.535 1059.38 485.89 1058.97 486.354C1058.56 486.808 1058.31 487.4 1058.22 488.131C1058.15 488.729 1058.23 489.249 1058.44 489.691C1058.66 490.123 1058.99 490.461 1059.43 490.704C1059.88 490.948 1060.39 491.075 1060.98 491.086C1061.74 491.097 1062.49 490.948 1063.23 490.638C1063.98 490.328 1064.62 489.885 1065.18 489.31C1065.73 488.734 1066.11 488.07 1066.32 487.317L1067.42 488.795C1067.21 489.525 1066.87 490.201 1066.39 490.82C1065.91 491.429 1065.35 491.955 1064.7 492.397C1064.05 492.84 1063.36 493.183 1062.62 493.427C1061.88 493.67 1061.14 493.786 1060.4 493.775C1059.39 493.753 1058.48 493.526 1057.66 493.095C1056.85 492.663 1056.21 492.06 1055.73 491.285C1055.27 490.499 1055.07 489.586 1055.13 488.546C1055.2 487.406 1055.5 486.449 1056.03 485.674C1056.56 484.899 1057.24 484.279 1058.07 483.814C1058.91 483.35 1059.83 483.018 1060.83 482.818C1061.82 482.608 1062.81 482.503 1063.78 482.503L1067.45 482.52ZM1080.29 491.235C1081.02 491.246 1081.7 491.108 1082.33 490.82C1082.96 490.533 1083.5 490.123 1083.94 489.592C1084.38 489.061 1084.7 488.446 1084.89 487.749L1087.74 487.732C1087.56 488.939 1087.09 489.996 1086.33 490.903C1085.58 491.811 1084.65 492.519 1083.56 493.028C1082.47 493.526 1081.34 493.764 1080.15 493.742C1078.89 493.72 1077.82 493.46 1076.93 492.962C1076.06 492.453 1075.36 491.778 1074.82 490.937C1074.29 490.095 1073.93 489.149 1073.73 488.098C1073.53 487.035 1073.49 485.945 1073.6 484.827L1073.66 484.113C1073.8 482.907 1074.09 481.761 1074.54 480.677C1075 479.581 1075.6 478.613 1076.35 477.771C1077.12 476.919 1078.02 476.255 1079.06 475.779C1080.1 475.303 1081.27 475.082 1082.56 475.115C1083.82 475.137 1084.92 475.436 1085.85 476.012C1086.78 476.576 1087.5 477.345 1088.01 478.319C1088.52 479.293 1088.77 480.4 1088.77 481.64L1085.95 481.623C1085.94 480.915 1085.8 480.262 1085.53 479.664C1085.27 479.066 1084.87 478.585 1084.35 478.22C1083.83 477.854 1083.19 477.655 1082.43 477.622C1081.51 477.6 1080.71 477.771 1080.02 478.137C1079.35 478.502 1078.77 479.006 1078.29 479.647C1077.83 480.278 1077.46 480.981 1077.18 481.756C1076.92 482.531 1076.73 483.316 1076.63 484.113L1076.55 484.811C1076.48 485.519 1076.47 486.244 1076.52 486.985C1076.57 487.727 1076.73 488.419 1076.98 489.061C1077.24 489.691 1077.63 490.206 1078.16 490.604C1078.69 491.003 1079.4 491.213 1080.29 491.235ZM1097.6 467.91L1093.17 493.41H1090.15L1094.58 467.91H1097.6ZM1107.07 475.447L1098.17 483.682L1092.81 488.513L1093.17 484.96L1096.76 481.308L1103.15 475.447H1107.07ZM1101.21 493.41L1096.36 484.678L1098.27 482.104L1104.49 493.41H1101.21Z" fill="#0D47A1"/>
<rect x="975.493" y="60" width="110" height="110" rx="25.1429" fill="url(#paint7_radial_481_1189)"/>
<g filter="url(#filter14_d_481_1189)">
<path fill-rule="evenodd" clip-rule="evenodd" d="M1005.31 97.3465C1001.99 89.0324 1010.7 81.015 1018.71 85.0196L1060.2 105.766C1067.38 109.355 1067.38 119.598 1060.2 123.186L1018.71 143.933C1010.7 147.938 1001.99 139.92 1005.31 131.606L1011.1 117.132H1027.42C1028.88 117.132 1030.07 115.943 1030.07 114.476C1030.07 113.01 1028.88 111.821 1027.42 111.821H1011.1L1005.31 97.3465Z" fill="white"/>
</g>
<path d="M972.728 222H967.565L967.598 218.696H972.728C974.223 218.696 975.473 218.37 976.48 217.717C977.499 217.064 978.262 216.129 978.771 214.911C979.292 213.694 979.552 212.244 979.552 210.562V209.25C979.552 207.944 979.402 206.787 979.103 205.78C978.816 204.773 978.384 203.926 977.808 203.24C977.244 202.554 976.547 202.034 975.717 201.68C974.898 201.326 973.951 201.148 972.878 201.148H967.466V197.828H972.878C974.483 197.828 975.949 198.099 977.277 198.642C978.605 199.173 979.751 199.942 980.714 200.949C981.688 201.956 982.435 203.163 982.955 204.568C983.475 205.974 983.735 207.546 983.735 209.283V210.562C983.735 212.299 983.475 213.871 982.955 215.276C982.435 216.682 981.688 217.888 980.714 218.896C979.74 219.892 978.578 220.661 977.227 221.203C975.888 221.734 974.389 222 972.728 222ZM969.873 197.828V222H965.706V197.828H969.873ZM991.889 204.037V222H987.871V204.037H991.889ZM987.605 199.322C987.605 198.714 987.805 198.21 988.203 197.812C988.613 197.402 989.177 197.197 989.896 197.197C990.605 197.197 991.164 197.402 991.573 197.812C991.983 198.21 992.187 198.714 992.187 199.322C992.187 199.92 991.983 200.418 991.573 200.816C991.164 201.215 990.605 201.414 989.896 201.414C989.177 201.414 988.613 201.215 988.203 200.816C987.805 200.418 987.605 199.92 987.605 199.322ZM1006.43 217.136C1006.43 216.737 1006.33 216.378 1006.13 216.057C1005.94 215.725 1005.55 215.426 1004.99 215.16C1004.44 214.895 1003.62 214.651 1002.53 214.43C1001.58 214.219 1000.71 213.97 999.909 213.683C999.123 213.384 998.448 213.024 997.884 212.604C997.319 212.183 996.882 211.685 996.572 211.109C996.262 210.534 996.107 209.87 996.107 209.117C996.107 208.387 996.268 207.695 996.589 207.042C996.91 206.389 997.369 205.813 997.967 205.315C998.564 204.817 999.289 204.424 1000.14 204.137C1001 203.849 1001.97 203.705 1003.03 203.705C1004.54 203.705 1005.82 203.96 1006.9 204.469C1007.98 204.967 1008.81 205.647 1009.39 206.511C1009.96 207.363 1010.25 208.326 1010.25 209.399H1006.25C1006.25 208.924 1006.13 208.481 1005.89 208.071C1005.65 207.651 1005.3 207.313 1004.82 207.059C1004.35 206.793 1003.75 206.66 1003.03 206.66C1002.34 206.66 1001.77 206.771 1001.32 206.992C1000.88 207.202 1000.55 207.479 1000.32 207.822C1000.11 208.165 1000.01 208.542 1000.01 208.951C1000.01 209.25 1000.06 209.521 1000.17 209.765C1000.3 209.997 1000.5 210.213 1000.77 210.412C1001.05 210.6 1001.43 210.777 1001.9 210.943C1002.39 211.109 1003 211.27 1003.73 211.425C1005.1 211.713 1006.28 212.083 1007.26 212.537C1008.26 212.98 1009.02 213.555 1009.55 214.264C1010.09 214.961 1010.35 215.846 1010.35 216.92C1010.35 217.717 1010.18 218.447 1009.84 219.111C1009.5 219.764 1009.02 220.334 1008.38 220.821C1007.73 221.297 1006.96 221.668 1006.07 221.934C1005.18 222.199 1004.19 222.332 1003.08 222.332C1001.45 222.332 1000.08 222.044 998.946 221.469C997.817 220.882 996.96 220.135 996.373 219.228C995.797 218.309 995.51 217.357 995.51 216.372H999.378C999.422 217.114 999.627 217.706 999.992 218.148C1000.37 218.58 1000.83 218.896 1001.39 219.095C1001.95 219.283 1002.53 219.377 1003.13 219.377C1003.85 219.377 1004.45 219.283 1004.94 219.095C1005.43 218.896 1005.8 218.63 1006.05 218.298C1006.31 217.955 1006.43 217.567 1006.43 217.136ZM1017.96 207.49V228.906H1013.96V204.037H1017.64L1017.96 207.49ZM1029.66 212.853V213.201C1029.66 214.507 1029.51 215.719 1029.2 216.837C1028.9 217.944 1028.45 218.912 1027.85 219.742C1027.26 220.561 1026.54 221.198 1025.68 221.651C1024.81 222.105 1023.82 222.332 1022.69 222.332C1021.57 222.332 1020.59 222.127 1019.75 221.718C1018.92 221.297 1018.22 220.705 1017.64 219.941C1017.07 219.178 1016.6 218.281 1016.25 217.252C1015.9 216.212 1015.66 215.072 1015.52 213.832V212.487C1015.66 211.17 1015.9 209.975 1016.25 208.901C1016.6 207.828 1017.07 206.904 1017.64 206.129C1018.22 205.354 1018.92 204.757 1019.75 204.336C1020.58 203.915 1021.55 203.705 1022.66 203.705C1023.78 203.705 1024.79 203.926 1025.66 204.369C1026.53 204.801 1027.27 205.421 1027.87 206.229C1028.47 207.025 1028.91 207.988 1029.21 209.117C1029.51 210.235 1029.66 211.48 1029.66 212.853ZM1025.66 213.201V212.853C1025.66 212.022 1025.58 211.253 1025.43 210.545C1025.27 209.826 1025.03 209.195 1024.7 208.652C1024.37 208.11 1023.94 207.689 1023.42 207.391C1022.91 207.081 1022.3 206.926 1021.58 206.926C1020.87 206.926 1020.26 207.048 1019.75 207.291C1019.24 207.523 1018.81 207.85 1018.47 208.271C1018.13 208.691 1017.86 209.184 1017.67 209.748C1017.49 210.301 1017.35 210.905 1017.28 211.558V214.778C1017.41 215.575 1017.64 216.306 1017.96 216.97C1018.28 217.634 1018.73 218.165 1019.32 218.563C1019.92 218.951 1020.68 219.145 1021.61 219.145C1022.33 219.145 1022.94 218.99 1023.45 218.68C1023.96 218.37 1024.38 217.944 1024.7 217.401C1025.03 216.848 1025.27 216.212 1025.43 215.492C1025.58 214.773 1025.66 214.009 1025.66 213.201ZM1043.28 218.397V209.831C1043.28 209.189 1043.16 208.636 1042.93 208.171C1042.7 207.706 1042.34 207.346 1041.87 207.092C1041.4 206.837 1040.81 206.71 1040.11 206.71C1039.45 206.71 1038.89 206.821 1038.41 207.042C1037.94 207.263 1037.57 207.562 1037.3 207.938C1037.03 208.315 1036.9 208.741 1036.9 209.217H1032.92C1032.92 208.508 1033.09 207.822 1033.43 207.158C1033.77 206.494 1034.27 205.902 1034.93 205.382C1035.58 204.862 1036.36 204.452 1037.27 204.153C1038.17 203.854 1039.19 203.705 1040.32 203.705C1041.67 203.705 1042.87 203.932 1043.91 204.386C1044.96 204.84 1045.78 205.526 1046.38 206.444C1046.99 207.352 1047.29 208.492 1047.29 209.864V217.85C1047.29 218.669 1047.35 219.405 1047.46 220.058C1047.58 220.7 1047.75 221.258 1047.97 221.734V222H1043.87C1043.69 221.568 1043.54 221.021 1043.43 220.356C1043.33 219.681 1043.28 219.028 1043.28 218.397ZM1043.86 211.076L1043.89 213.55H1041.02C1040.28 213.55 1039.62 213.622 1039.06 213.766C1038.5 213.898 1038.02 214.098 1037.65 214.363C1037.27 214.629 1036.99 214.95 1036.8 215.326C1036.61 215.702 1036.52 216.129 1036.52 216.604C1036.52 217.08 1036.63 217.518 1036.85 217.916C1037.07 218.303 1037.39 218.608 1037.81 218.829C1038.25 219.05 1038.77 219.161 1039.38 219.161C1040.19 219.161 1040.91 218.995 1041.52 218.663C1042.14 218.32 1042.62 217.905 1042.98 217.418C1043.33 216.92 1043.52 216.45 1043.54 216.007L1044.84 217.783C1044.7 218.237 1044.48 218.724 1044.16 219.244C1043.84 219.764 1043.41 220.262 1042.89 220.738C1042.39 221.203 1041.77 221.585 1041.05 221.884C1040.34 222.183 1039.52 222.332 1038.59 222.332C1037.42 222.332 1036.38 222.1 1035.46 221.635C1034.54 221.159 1033.82 220.522 1033.3 219.726C1032.78 218.918 1032.52 218.005 1032.52 216.986C1032.52 216.035 1032.7 215.193 1033.05 214.463C1033.42 213.721 1033.95 213.102 1034.64 212.604C1035.35 212.105 1036.22 211.729 1037.23 211.475C1038.25 211.209 1039.41 211.076 1040.72 211.076H1043.86ZM1059.8 204.037V206.959H1049.67V204.037H1059.8ZM1052.59 199.638H1056.59V217.036C1056.59 217.59 1056.67 218.016 1056.83 218.314C1056.99 218.602 1057.22 218.796 1057.51 218.896C1057.79 218.995 1058.13 219.045 1058.52 219.045C1058.8 219.045 1059.06 219.028 1059.32 218.995C1059.57 218.962 1059.77 218.929 1059.93 218.896L1059.95 221.95C1059.61 222.05 1059.23 222.138 1058.78 222.216C1058.35 222.293 1057.85 222.332 1057.29 222.332C1056.37 222.332 1055.56 222.172 1054.85 221.851C1054.14 221.519 1053.59 220.982 1053.19 220.24C1052.79 219.499 1052.59 218.514 1052.59 217.285V199.638ZM1070.31 219.145C1070.96 219.145 1071.55 219.017 1072.07 218.763C1072.6 218.497 1073.02 218.132 1073.35 217.667C1073.68 217.202 1073.86 216.665 1073.89 216.057H1077.66C1077.64 217.219 1077.3 218.276 1076.63 219.228C1075.97 220.179 1075.09 220.938 1073.99 221.502C1072.9 222.055 1071.69 222.332 1070.36 222.332C1068.99 222.332 1067.79 222.1 1066.77 221.635C1065.75 221.159 1064.91 220.506 1064.23 219.676C1063.56 218.846 1063.05 217.888 1062.7 216.804C1062.37 215.719 1062.21 214.557 1062.21 213.317V212.736C1062.21 211.497 1062.37 210.335 1062.7 209.25C1063.05 208.154 1063.56 207.191 1064.23 206.361C1064.91 205.531 1065.75 204.884 1066.77 204.419C1067.79 203.943 1068.98 203.705 1070.34 203.705C1071.78 203.705 1073.04 203.993 1074.13 204.568C1075.21 205.133 1076.06 205.924 1076.68 206.942C1077.31 207.95 1077.64 209.123 1077.66 210.462H1073.89C1073.86 209.798 1073.69 209.2 1073.4 208.669C1073.11 208.127 1072.7 207.695 1072.17 207.374C1071.65 207.053 1071.02 206.893 1070.29 206.893C1069.48 206.893 1068.81 207.059 1068.28 207.391C1067.75 207.712 1067.34 208.154 1067.04 208.719C1066.74 209.272 1066.52 209.897 1066.39 210.595C1066.27 211.281 1066.21 211.995 1066.21 212.736V213.317C1066.21 214.059 1066.27 214.778 1066.39 215.476C1066.51 216.173 1066.72 216.798 1067.02 217.352C1067.33 217.894 1067.75 218.331 1068.28 218.663C1068.81 218.984 1069.49 219.145 1070.31 219.145ZM1084.77 196.5V222H1080.79V196.5H1084.77ZM1084.07 212.354L1082.78 212.338C1082.79 211.098 1082.96 209.953 1083.29 208.901C1083.64 207.85 1084.11 206.937 1084.72 206.162C1085.34 205.376 1086.08 204.773 1086.94 204.353C1087.81 203.921 1088.77 203.705 1089.82 203.705C1090.7 203.705 1091.5 203.827 1092.21 204.07C1092.93 204.314 1093.55 204.707 1094.07 205.249C1094.59 205.78 1094.98 206.478 1095.25 207.341C1095.52 208.193 1095.66 209.233 1095.66 210.462V222H1091.64V210.429C1091.64 209.565 1091.52 208.879 1091.26 208.37C1091.02 207.861 1090.66 207.496 1090.18 207.274C1089.71 207.042 1089.12 206.926 1088.44 206.926C1087.72 206.926 1087.08 207.07 1086.53 207.357C1085.99 207.645 1085.53 208.038 1085.17 208.536C1084.8 209.034 1084.53 209.61 1084.34 210.263C1084.16 210.916 1084.07 211.613 1084.07 212.354Z" fill="#0D47A1"/>
<g filter="url(#filter15_d_481_1189)">
<rect x="444.186" y="313.41" width="12.3726" height="149.036" rx="6.18628" fill="url(#paint8_radial_481_1189)"/>
</g>
<defs>
<filter id="filter0_d_481_1189" x="69.4666" y="39.2" width="175.6" height="175.6" filterUnits="userSpaceOnUse" color-interpolation-filters="sRGB">
<feFlood flood-opacity="0" result="BackgroundImageFix"/>
<feColorMatrix in="SourceAlpha" type="matrix" values="0 0 0 0 0 0 0 0 0 0 0 0 0 0 0 0 0 0 127 0" result="hardAlpha"/>
<feOffset/>
<feGaussianBlur stdDeviation="12.4"/>
<feComposite in2="hardAlpha" operator="out"/>
<feColorMatrix type="matrix" values="0 0 0 0 0.2 0 0 0 0 0.533333 0 0 0 0 0.913725 0 0 0 0.4 0"/>
<feBlend mode="normal" in2="BackgroundImageFix" result="effect1_dropShadow_481_1189"/>
<feBlend mode="normal" in="SourceGraphic" in2="effect1_dropShadow_481_1189" result="shape"/>
</filter>
<filter id="filter1_i_481_1189" x="89.2666" y="72" width="123" height="113" filterUnits="userSpaceOnUse" color-interpolation-filters="sRGB">
<feFlood flood-opacity="0" result="BackgroundImageFix"/>
<feBlend mode="normal" in="SourceGraphic" in2="BackgroundImageFix" result="shape"/>
<feColorMatrix in="SourceAlpha" type="matrix" values="0 0 0 0 0 0 0 0 0 0 0 0 0 0 0 0 0 0 127 0" result="hardAlpha"/>
<feOffset dx="-13" dy="3"/>
<feGaussianBlur stdDeviation="9.7"/>
<feComposite in2="hardAlpha" operator="arithmetic" k2="-1" k3="1"/>
<feColorMatrix type="matrix" values="0 0 0 0 0.00150976 0 0 0 0 0.0781402 0 0 0 0 0.512379 0 0 0 0.09 0"/>
<feBlend mode="normal" in2="shape" result="effect1_innerShadow_481_1189"/>
</filter>
<filter id="filter2_d_481_1189" x="118.462" y="85.0951" width="84.6093" height="83.8095" filterUnits="userSpaceOnUse" color-interpolation-filters="sRGB">
<feFlood flood-opacity="0" result="BackgroundImageFix"/>
<feColorMatrix in="SourceAlpha" type="matrix" values="0 0 0 0 0 0 0 0 0 0 0 0 0 0 0 0 0 0 127 0" result="hardAlpha"/>
<feOffset/>
<feGaussianBlur stdDeviation="3.14286"/>
<feComposite in2="hardAlpha" operator="out"/>
<feColorMatrix type="matrix" values="0 0 0 0 0 0 0 0 0 0 0 0 0 0 0 0 0 0 0.25 0"/>
<feBlend mode="normal" in2="BackgroundImageFix" result="effect1_dropShadow_481_1189"/>
<feBlend mode="normal" in="SourceGraphic" in2="effect1_dropShadow_481_1189" result="shape"/>
</filter>
<filter id="filter3_d_481_1189" x="545.277" y="35.2" width="175.6" height="175.6" filterUnits="userSpaceOnUse" color-interpolation-filters="sRGB">
<feFlood flood-opacity="0" result="BackgroundImageFix"/>
<feColorMatrix in="SourceAlpha" type="matrix" values="0 0 0 0 0 0 0 0 0 0 0 0 0 0 0 0 0 0 127 0" result="hardAlpha"/>
<feOffset/>
<feGaussianBlur stdDeviation="12.4"/>
<feComposite in2="hardAlpha" operator="out"/>
<feColorMatrix type="matrix" values="0 0 0 0 0.2 0 0 0 0 0.533333 0 0 0 0 0.913725 0 0 0 0.4 0"/>
<feBlend mode="normal" in2="BackgroundImageFix" result="effect1_dropShadow_481_1189"/>
<feBlend mode="normal" in="SourceGraphic" in2="effect1_dropShadow_481_1189" result="shape"/>
</filter>
<filter id="filter4_i_481_1189" x="565.077" y="68" width="123" height="113" filterUnits="userSpaceOnUse" color-interpolation-filters="sRGB">
<feFlood flood-opacity="0" result="BackgroundImageFix"/>
<feBlend mode="normal" in="SourceGraphic" in2="BackgroundImageFix" result="shape"/>
<feColorMatrix in="SourceAlpha" type="matrix" values="0 0 0 0 0 0 0 0 0 0 0 0 0 0 0 0 0 0 127 0" result="hardAlpha"/>
<feOffset dx="-13" dy="3"/>
<feGaussianBlur stdDeviation="9.7"/>
<feComposite in2="hardAlpha" operator="arithmetic" k2="-1" k3="1"/>
<feColorMatrix type="matrix" values="0 0 0 0 0.00150976 0 0 0 0 0.0781402 0 0 0 0 0.512379 0 0 0 0.09 0"/>
<feBlend mode="normal" in2="shape" result="effect1_innerShadow_481_1189"/>
</filter>
<filter id="filter5_d_481_1189" x="597.457" y="80.7143" width="71.2394" height="84.5714" filterUnits="userSpaceOnUse" color-interpolation-filters="sRGB">
<feFlood flood-opacity="0" result="BackgroundImageFix"/>
<feColorMatrix in="SourceAlpha" type="matrix" values="0 0 0 0 0 0 0 0 0 0 0 0 0 0 0 0 0 0 127 0" result="hardAlpha"/>
<feOffset/>
<feGaussianBlur stdDeviation="3.14286"/>
<feComposite in2="hardAlpha" operator="out"/>
<feColorMatrix type="matrix" values="0 0 0 0 0 0 0 0 0 0 0 0 0 0 0 0 0 0 0.25 0"/>
<feBlend mode="normal" in2="BackgroundImageFix" result="effect1_dropShadow_481_1189"/>
<feBlend mode="normal" in="SourceGraphic" in2="effect1_dropShadow_481_1189" result="shape"/>
</filter>
<filter id="filter6_d_481_1189" x="545.277" y="294.61" width="175.6" height="175.6" filterUnits="userSpaceOnUse" color-interpolation-filters="sRGB">
<feFlood flood-opacity="0" result="BackgroundImageFix"/>
<feColorMatrix in="SourceAlpha" type="matrix" values="0 0 0 0 0 0 0 0 0 0 0 0 0 0 0 0 0 0 127 0" result="hardAlpha"/>
<feOffset/>
<feGaussianBlur stdDeviation="12.4"/>
<feComposite in2="hardAlpha" operator="out"/>
<feColorMatrix type="matrix" values="0 0 0 0 0.2 0 0 0 0 0.533333 0 0 0 0 0.913725 0 0 0 0.4 0"/>
<feBlend mode="normal" in2="BackgroundImageFix" result="effect1_dropShadow_481_1189"/>
<feBlend mode="normal" in="SourceGraphic" in2="effect1_dropShadow_481_1189" result="shape"/>
</filter>
<filter id="filter7_i_481_1189" x="565.077" y="327.41" width="123" height="113" filterUnits="userSpaceOnUse" color-interpolation-filters="sRGB">
<feFlood flood-opacity="0" result="BackgroundImageFix"/>
<feBlend mode="normal" in="SourceGraphic" in2="BackgroundImageFix" result="shape"/>
<feColorMatrix in="SourceAlpha" type="matrix" values="0 0 0 0 0 0 0 0 0 0 0 0 0 0 0 0 0 0 127 0" result="hardAlpha"/>
<feOffset dx="-13" dy="3"/>
<feGaussianBlur stdDeviation="9.7"/>
<feComposite in2="hardAlpha" operator="arithmetic" k2="-1" k3="1"/>
<feColorMatrix type="matrix" values="0 0 0 0 0.00150976 0 0 0 0 0.0781402 0 0 0 0 0.512379 0 0 0 0.09 0"/>
<feBlend mode="normal" in2="shape" result="effect1_innerShadow_481_1189"/>
</filter>
<filter id="filter8_d_481_1189" x="590.57" y="340.124" width="85.0133" height="84.5714" filterUnits="userSpaceOnUse" color-interpolation-filters="sRGB">
<feFlood flood-opacity="0" result="BackgroundImageFix"/>
<feColorMatrix in="SourceAlpha" type="matrix" values="0 0 0 0 0 0 0 0 0 0 0 0 0 0 0 0 0 0 127 0" result="hardAlpha"/>
<feOffset/>
<feGaussianBlur stdDeviation="3.14286"/>
<feComposite in2="hardAlpha" operator="out"/>
<feColorMatrix type="matrix" values="0 0 0 0 0 0 0 0 0 0 0 0 0 0 0 0 0 0 0.25 0"/>
<feBlend mode="normal" in2="BackgroundImageFix" result="effect1_dropShadow_481_1189"/>
<feBlend mode="normal" in="SourceGraphic" in2="effect1_dropShadow_481_1189" result="shape"/>
</filter>
<filter id="filter9_d_481_1189" x="38.2" y="294.61" width="367.6" height="175.6" filterUnits="userSpaceOnUse" color-interpolation-filters="sRGB">
<feFlood flood-opacity="0" result="BackgroundImageFix"/>
<feColorMatrix in="SourceAlpha" type="matrix" values="0 0 0 0 0 0 0 0 0 0 0 0 0 0 0 0 0 0 127 0" result="hardAlpha"/>
<feOffset/>
<feGaussianBlur stdDeviation="12.4"/>
<feComposite in2="hardAlpha" operator="out"/>
<feColorMatrix type="matrix" values="0 0 0 0 0.2 0 0 0 0 0.533333 0 0 0 0 0.913725 0 0 0 0.4 0"/>
<feBlend mode="normal" in2="BackgroundImageFix" result="effect1_dropShadow_481_1189"/>
<feBlend mode="normal" in="SourceGraphic" in2="effect1_dropShadow_481_1189" result="shape"/>
</filter>
<filter id="filter10_i_481_1189" x="58" y="327.41" width="315" height="113" filterUnits="userSpaceOnUse" color-interpolation-filters="sRGB">
<feFlood flood-opacity="0" result="BackgroundImageFix"/>
<feBlend mode="normal" in="SourceGraphic" in2="BackgroundImageFix" result="shape"/>
<feColorMatrix in="SourceAlpha" type="matrix" values="0 0 0 0 0 0 0 0 0 0 0 0 0 0 0 0 0 0 127 0" result="hardAlpha"/>
<feOffset dx="-13" dy="3"/>
<feGaussianBlur stdDeviation="9.7"/>
<feComposite in2="hardAlpha" operator="arithmetic" k2="-1" k3="1"/>
<feColorMatrix type="matrix" values="0 0 0 0 0.00150976 0 0 0 0 0.0781402 0 0 0 0 0.512379 0 0 0 0.09 0"/>
<feBlend mode="normal" in2="shape" result="effect1_innerShadow_481_1189"/>
</filter>
<filter id="filter11_d_481_1189" x="947.284" y="288.61" width="175.6" height="175.6" filterUnits="userSpaceOnUse" color-interpolation-filters="sRGB">
<feFlood flood-opacity="0" result="BackgroundImageFix"/>
<feColorMatrix in="SourceAlpha" type="matrix" values="0 0 0 0 0 0 0 0 0 0 0 0 0 0 0 0 0 0 127 0" result="hardAlpha"/>
<feOffset/>
<feGaussianBlur stdDeviation="12.4"/>
<feComposite in2="hardAlpha" operator="out"/>
<feColorMatrix type="matrix" values="0 0 0 0 0.2 0 0 0 0 0.533333 0 0 0 0 0.913725 0 0 0 0.4 0"/>
<feBlend mode="normal" in2="BackgroundImageFix" result="effect1_dropShadow_481_1189"/>
<feBlend mode="normal" in="SourceGraphic" in2="effect1_dropShadow_481_1189" result="shape"/>
</filter>
<filter id="filter12_i_481_1189" x="967.084" y="321.41" width="123" height="113" filterUnits="userSpaceOnUse" color-interpolation-filters="sRGB">
<feFlood flood-opacity="0" result="BackgroundImageFix"/>
<feBlend mode="normal" in="SourceGraphic" in2="BackgroundImageFix" result="shape"/>
<feColorMatrix in="SourceAlpha" type="matrix" values="0 0 0 0 0 0 0 0 0 0 0 0 0 0 0 0 0 0 127 0" result="hardAlpha"/>
<feOffset dx="-13" dy="3"/>
<feGaussianBlur stdDeviation="9.7"/>
<feComposite in2="hardAlpha" operator="arithmetic" k2="-1" k3="1"/>
<feColorMatrix type="matrix" values="0 0 0 0 0.00150976 0 0 0 0 0.0781402 0 0 0 0 0.512379 0 0 0 0.09 0"/>
<feBlend mode="normal" in2="shape" result="effect1_innerShadow_481_1189"/>
</filter>
<filter id="filter13_d_481_1189" x="992.798" y="337.777" width="84.5714" height="77.2658" filterUnits="userSpaceOnUse" color-interpolation-filters="sRGB">
<feFlood flood-opacity="0" result="BackgroundImageFix"/>
<feColorMatrix in="SourceAlpha" type="matrix" values="0 0 0 0 0 0 0 0 0 0 0 0 0 0 0 0 0 0 127 0" result="hardAlpha"/>
<feOffset/>
<feGaussianBlur stdDeviation="3.14286"/>
<feComposite in2="hardAlpha" operator="out"/>
<feColorMatrix type="matrix" values="0 0 0 0 0 0 0 0 0 0 0 0 0 0 0 0 0 0 0.25 0"/>
<feBlend mode="normal" in2="BackgroundImageFix" result="effect1_dropShadow_481_1189"/>
<feBlend mode="normal" in="SourceGraphic" in2="effect1_dropShadow_481_1189" result="shape"/>
</filter>
<filter id="filter14_d_481_1189" x="999.259" y="78.6316" width="71.6508" height="71.6891" filterUnits="userSpaceOnUse" color-interpolation-filters="sRGB">
<feFlood flood-opacity="0" result="BackgroundImageFix"/>
<feColorMatrix in="SourceAlpha" type="matrix" values="0 0 0 0 0 0 0 0 0 0 0 0 0 0 0 0 0 0 127 0" result="hardAlpha"/>
<feOffset/>
<feGaussianBlur stdDeviation="2.6627"/>
<feComposite in2="hardAlpha" operator="out"/>
<feColorMatrix type="matrix" values="0 0 0 0 0 0 0 0 0 0 0 0 0 0 0 0 0 0 0.25 0"/>
<feBlend mode="normal" in2="BackgroundImageFix" result="effect1_dropShadow_481_1189"/>
<feBlend mode="normal" in="SourceGraphic" in2="effect1_dropShadow_481_1189" result="shape"/>
</filter>
<filter id="filter15_d_481_1189" x="436.386" y="306.61" width="27.9726" height="164.636" filterUnits="userSpaceOnUse" color-interpolation-filters="sRGB">
<feFlood flood-opacity="0" result="BackgroundImageFix"/>
<feColorMatrix in="SourceAlpha" type="matrix" values="0 0 0 0 0 0 0 0 0 0 0 0 0 0 0 0 0 0 127 0" result="hardAlpha"/>
<feMorphology radius="3" operator="dilate" in="SourceAlpha" result="effect1_dropShadow_481_1189"/>
<feOffset dy="1"/>
<feGaussianBlur stdDeviation="2.4"/>
<feComposite in2="hardAlpha" operator="out"/>
<feColorMatrix type="matrix" values="0 0 0 0 0.516228 0 0 0 0 0.516228 0 0 0 0 0.97608 0 0 0 0.25 0"/>
<feBlend mode="normal" in2="BackgroundImageFix" result="effect1_dropShadow_481_1189"/>
<feBlend mode="normal" in="SourceGraphic" in2="effect1_dropShadow_481_1189" result="shape"/>
</filter>
<radialGradient id="paint0_radial_481_1189" cx="0" cy="0" r="1" gradientTransform="matrix(784.461 457.514 -1044.91 216.304 616 276.5)" gradientUnits="userSpaceOnUse">
<stop stop-color="#FAFDFF"/>
<stop offset="1" stop-color="#ECF6FE"/>
</radialGradient>
<radialGradient id="paint1_radial_481_1189" cx="0" cy="0" r="1" gradientUnits="userSpaceOnUse" gradientTransform="translate(144 147.5) rotate(90) scale(147.5 144)">
<stop stop-color="#2F35FC"/>
<stop offset="1" stop-color="#2F35FC" stop-opacity="0"/>
</radialGradient>
<linearGradient id="paint2_linear_481_1189" x1="164.142" y1="50.6262" x2="162.55" y2="92.3279" gradientUnits="userSpaceOnUse">
<stop stop-color="#C6D6EB"/>
<stop offset="1" stop-color="#F6F9FF" stop-opacity="0.29"/>
</linearGradient>
<linearGradient id="paint3_linear_481_1189" x1="639.952" y1="46.6262" x2="638.36" y2="88.3279" gradientUnits="userSpaceOnUse">
<stop stop-color="#C6D6EB"/>
<stop offset="1" stop-color="#F6F9FF" stop-opacity="0.29"/>
</linearGradient>
<linearGradient id="paint4_linear_481_1189" x1="639.952" y1="306.036" x2="638.36" y2="347.738" gradientUnits="userSpaceOnUse">
<stop stop-color="#C6D6EB"/>
<stop offset="1" stop-color="#F6F9FF" stop-opacity="0.29"/>
</linearGradient>
<linearGradient id="paint5_linear_481_1189" x1="240.875" y1="306.036" x2="240.295" y2="347.791" gradientUnits="userSpaceOnUse">
<stop stop-color="#C6D6EB"/>
<stop offset="1" stop-color="#F6F9FF" stop-opacity="0.29"/>
</linearGradient>
<linearGradient id="paint6_linear_481_1189" x1="1041.96" y1="300.036" x2="1040.37" y2="341.738" gradientUnits="userSpaceOnUse">
<stop stop-color="#C6D6EB"/>
<stop offset="1" stop-color="#F6F9FF" stop-opacity="0.29"/>
</linearGradient>
<radialGradient id="paint7_radial_481_1189" cx="0" cy="0" r="1" gradientUnits="userSpaceOnUse" gradientTransform="translate(1030.49 115) rotate(90) scale(55)">
<stop stop-color="#135EB3"/>
<stop offset="1" stop-color="#3489EA"/>
</radialGradient>
<radialGradient id="paint8_radial_481_1189" cx="0" cy="0" r="1" gradientUnits="userSpaceOnUse" gradientTransform="translate(450.373 387.928) rotate(90) scale(36.544 20.992)">
<stop stop-color="#1D4C82"/>
<stop offset="1" stop-color="#3387E8"/>
</radialGradient>
</defs>
</svg>
