<svg width="360" height="798" viewBox="0 0 360 798" fill="none" xmlns="http://www.w3.org/2000/svg">
<rect width="360" height="798" fill="#F0F8FE"/>
<g filter="url(#filter0_d_516_524)">
<rect x="39" y="20" width="72" height="72" rx="18" fill="white" shape-rendering="crispEdges"/>
<g filter="url(#filter1_i_516_524)">
<rect x="43.5714" y="24.5714" width="62.8571" height="62.8571" rx="14.3673" fill="white"/>
<rect x="43.5714" y="24.5714" width="62.8571" height="62.8571" rx="14.3673" fill="url(#paint0_linear_516_524)"/>
<g filter="url(#filter2_d_516_524)">
<path d="M76.2752 69.6514L75.6834 70.2476H74.8465H70.5606H68.5402V68.2122V63.8945V63.0515L69.132 62.4553L86.99 44.4649L88.4187 43.0257L88.7443 42.6977V39.717C88.7443 37.4687 86.9351 35.6462 84.7034 35.6462H66.5198L56.4177 45.8231V72.283C56.4177 74.5312 58.2269 76.3537 60.4585 76.3537H84.7034C86.9351 76.3537 88.7443 74.5312 88.7443 72.283V57.0901L76.2752 69.6514ZM59.4483 47.8585L68.5402 38.6993V47.8585H59.4483ZM74.8465 68.2122H70.5606V63.8945L88.4187 45.9042L92.7045 50.2218L74.8465 68.2122ZM96.9905 45.9042L94.1333 48.7826L89.8473 44.4649L92.7045 41.5865C93.0992 41.1891 93.6162 40.9903 94.1333 40.9903C94.6503 40.9903 95.1674 41.1891 95.5619 41.5865L96.9905 43.0257C97.7795 43.8207 97.7795 45.1093 96.9905 45.9042Z" fill="#3388E9"/>
</g>
</g>
</g>
<path d="M48.9375 111.625L52.5 111.633C53.1927 111.648 53.8047 111.781 54.3359 112.031C54.8672 112.281 55.2708 112.651 55.5469 113.141C55.8281 113.625 55.9375 114.237 55.875 114.977C55.8229 115.565 55.6562 116.073 55.375 116.5C55.099 116.922 54.7422 117.276 54.3047 117.562C53.8672 117.844 53.3828 118.068 52.8516 118.234L52.4141 118.391H48.8828L49.0859 117.164L51.5938 117.172C52.0521 117.172 52.4818 117.089 52.8828 116.922C53.2891 116.755 53.6276 116.51 53.8984 116.188C54.1745 115.859 54.3438 115.456 54.4062 114.977C54.4635 114.518 54.4193 114.135 54.2734 113.828C54.1276 113.521 53.8984 113.286 53.5859 113.125C53.2786 112.964 52.9062 112.878 52.4688 112.867L50.1953 112.859L48.4375 123H46.9609L48.9375 111.625ZM53.4531 123L51.6641 117.844L53.1172 117.836L55.0234 122.898L55.0156 123H53.4531ZM59.9146 123.156C59.3365 123.146 58.8339 123.031 58.4068 122.812C57.9849 122.589 57.6386 122.289 57.3678 121.914C57.1021 121.534 56.912 121.102 56.7974 120.617C56.6829 120.133 56.649 119.625 56.6959 119.094L56.7271 118.758C56.7792 118.216 56.912 117.685 57.1256 117.164C57.3391 116.638 57.623 116.164 57.9771 115.742C58.3365 115.32 58.7584 114.987 59.2428 114.742C59.7323 114.492 60.274 114.375 60.8678 114.391C61.4563 114.401 61.9459 114.526 62.3365 114.766C62.7271 115.005 63.0318 115.323 63.2506 115.719C63.4745 116.109 63.6204 116.549 63.6881 117.039C63.7558 117.523 63.761 118.021 63.7037 118.531L63.6178 119.18H57.4849L57.6724 118L62.3521 118.008L62.3756 117.883C62.4276 117.508 62.4068 117.146 62.3131 116.797C62.2193 116.448 62.0474 116.161 61.7974 115.938C61.5526 115.708 61.2219 115.589 60.8053 115.578C60.373 115.562 59.998 115.651 59.6803 115.844C59.3625 116.031 59.0969 116.286 58.8834 116.609C58.6698 116.927 58.5006 117.276 58.3756 117.656C58.2558 118.031 58.1724 118.398 58.1256 118.758L58.0943 119.086C58.0631 119.419 58.0735 119.755 58.1256 120.094C58.1776 120.432 58.2766 120.742 58.4224 121.023C58.5735 121.299 58.7818 121.526 59.0474 121.703C59.3131 121.875 59.6412 121.966 60.0318 121.977C60.5058 121.987 60.9303 121.885 61.3053 121.672C61.6855 121.453 62.0318 121.177 62.3443 120.844L63.149 121.531C62.9042 121.891 62.6125 122.193 62.274 122.438C61.9355 122.682 61.5657 122.865 61.1646 122.984C60.7636 123.104 60.3469 123.161 59.9146 123.156ZM69.1964 126.25L70.9543 116.086L71.3371 114.547H72.6496L70.6105 126.25H69.1964ZM64.9699 118.922L64.9933 118.758C65.0558 118.232 65.1808 117.708 65.3683 117.188C65.5558 116.661 65.8058 116.185 66.1183 115.758C66.436 115.331 66.824 114.992 67.2824 114.742C67.7407 114.492 68.2746 114.372 68.8839 114.383C69.4256 114.398 69.8813 114.526 70.2511 114.766C70.6209 115.005 70.9126 115.32 71.1261 115.711C71.3449 116.102 71.4933 116.534 71.5714 117.008C71.6548 117.477 71.6808 117.948 71.6496 118.422L71.5636 119.141C71.4751 119.651 71.3266 120.148 71.1183 120.633C70.91 121.117 70.6418 121.555 70.3136 121.945C69.9855 122.331 69.5975 122.635 69.1496 122.859C68.7016 123.078 68.1912 123.18 67.6183 123.164C67.0558 123.143 66.5897 123.003 66.2199 122.742C65.8553 122.477 65.5714 122.135 65.3683 121.719C65.1704 121.302 65.0402 120.849 64.9777 120.359C64.9204 119.87 64.9178 119.391 64.9699 118.922ZM66.423 118.758L66.3996 118.922C66.3631 119.234 66.3527 119.565 66.3683 119.914C66.3839 120.263 66.4464 120.591 66.5558 120.898C66.6652 121.206 66.8371 121.461 67.0714 121.664C67.3058 121.862 67.6235 121.969 68.0246 121.984C68.4569 121.995 68.8579 121.896 69.2277 121.688C69.6027 121.479 69.923 121.203 70.1886 120.859C70.4543 120.51 70.647 120.138 70.7668 119.742L71.0714 117.844C71.0819 117.557 71.0428 117.281 70.9543 117.016C70.8709 116.745 70.7433 116.505 70.5714 116.297C70.4048 116.083 70.2016 115.911 69.9621 115.781C69.7225 115.651 69.4543 115.583 69.1574 115.578C68.7199 115.562 68.3397 115.648 68.0168 115.836C67.699 116.023 67.4308 116.276 67.2121 116.594C66.9933 116.906 66.8188 117.253 66.6886 117.633C66.5584 118.013 66.4699 118.388 66.423 118.758ZM78.822 120.969L79.9314 114.547H81.3533L79.8845 123H78.5329L78.822 120.969ZM79.3533 119.266L79.9314 119.242C79.8637 119.773 79.7439 120.279 79.572 120.758C79.4001 121.232 79.1658 121.654 78.8689 122.023C78.5772 122.388 78.2126 122.674 77.7751 122.883C77.3428 123.086 76.8298 123.18 76.2361 123.164C75.7725 123.148 75.3845 123.055 75.072 122.883C74.7647 122.711 74.5225 122.479 74.3454 122.188C74.1684 121.896 74.0512 121.562 73.9939 121.188C73.9366 120.812 73.9288 120.417 73.9704 120L74.8845 114.547H76.2986L75.3845 120.023C75.3637 120.253 75.3611 120.479 75.3767 120.703C75.3923 120.922 75.4392 121.122 75.5173 121.305C75.5954 121.487 75.7152 121.635 75.8767 121.75C76.0434 121.859 76.2621 121.919 76.5329 121.93C77.0954 121.951 77.572 121.846 77.9626 121.617C78.3533 121.383 78.6631 121.06 78.8923 120.648C79.1215 120.237 79.2751 119.776 79.3533 119.266ZM85.6116 123.156C85.0335 123.146 84.5309 123.031 84.1038 122.812C83.6819 122.589 83.3356 122.289 83.0648 121.914C82.7991 121.534 82.609 121.102 82.4944 120.617C82.3799 120.133 82.346 119.625 82.3929 119.094L82.4241 118.758C82.4762 118.216 82.609 117.685 82.8226 117.164C83.0361 116.638 83.32 116.164 83.6741 115.742C84.0335 115.32 84.4554 114.987 84.9398 114.742C85.4293 114.492 85.971 114.375 86.5648 114.391C87.1533 114.401 87.6429 114.526 88.0335 114.766C88.4241 115.005 88.7288 115.323 88.9476 115.719C89.1715 116.109 89.3174 116.549 89.3851 117.039C89.4528 117.523 89.458 118.021 89.4007 118.531L89.3148 119.18H83.1819L83.3694 118L88.0491 118.008L88.0726 117.883C88.1246 117.508 88.1038 117.146 88.0101 116.797C87.9163 116.448 87.7444 116.161 87.4944 115.938C87.2496 115.708 86.9189 115.589 86.5023 115.578C86.07 115.562 85.695 115.651 85.3773 115.844C85.0595 116.031 84.7939 116.286 84.5804 116.609C84.3668 116.927 84.1976 117.276 84.0726 117.656C83.9528 118.031 83.8694 118.398 83.8226 118.758L83.7913 119.086C83.7601 119.419 83.7705 119.755 83.8226 120.094C83.8746 120.432 83.9736 120.742 84.1194 121.023C84.2705 121.299 84.4788 121.526 84.7444 121.703C85.0101 121.875 85.3382 121.966 85.7288 121.977C86.2028 121.987 86.6273 121.885 87.0023 121.672C87.3825 121.453 87.7288 121.177 88.0413 120.844L88.846 121.531C88.6012 121.891 88.3095 122.193 87.971 122.438C87.6325 122.682 87.2627 122.865 86.8616 122.984C86.4606 123.104 86.0439 123.161 85.6116 123.156ZM95.5106 120.711C95.5575 120.388 95.4976 120.135 95.3309 119.953C95.1695 119.771 94.9559 119.633 94.6903 119.539C94.4299 119.44 94.1747 119.359 93.9247 119.297C93.6122 119.219 93.2971 119.122 92.9794 119.008C92.6617 118.893 92.37 118.747 92.1044 118.57C91.844 118.388 91.6356 118.164 91.4794 117.898C91.3283 117.628 91.2606 117.299 91.2762 116.914C91.2971 116.497 91.4065 116.13 91.6044 115.812C91.8075 115.495 92.0679 115.229 92.3856 115.016C92.7085 114.802 93.0601 114.643 93.4403 114.539C93.8205 114.435 94.1981 114.385 94.5731 114.391C95.1044 114.401 95.5861 114.51 96.0184 114.719C96.4559 114.927 96.8023 115.227 97.0575 115.617C97.3127 116.008 97.4325 116.482 97.4169 117.039L96.0184 117.031C96.0289 116.734 95.969 116.479 95.8387 116.266C95.7085 116.052 95.5289 115.888 95.2997 115.773C95.0705 115.654 94.8101 115.591 94.5184 115.586C94.2424 115.581 93.9716 115.625 93.7059 115.719C93.4403 115.807 93.2137 115.948 93.0262 116.141C92.8387 116.328 92.7242 116.573 92.6825 116.875C92.6512 117.099 92.6851 117.284 92.7841 117.43C92.883 117.57 93.0184 117.685 93.1903 117.773C93.3674 117.857 93.5523 117.927 93.745 117.984C93.9429 118.036 94.1226 118.083 94.2841 118.125C94.7111 118.245 95.133 118.396 95.5497 118.578C95.9664 118.76 96.3049 119.013 96.5653 119.336C96.8257 119.654 96.9429 120.073 96.9169 120.594C96.896 121.036 96.7789 121.422 96.5653 121.75C96.357 122.073 96.0861 122.341 95.7528 122.555C95.4247 122.763 95.0627 122.917 94.6669 123.016C94.271 123.115 93.8752 123.161 93.4794 123.156C92.9325 123.146 92.4221 123.034 91.9481 122.82C91.4794 122.602 91.1044 122.289 90.8231 121.883C90.5419 121.471 90.4091 120.971 90.4247 120.383L91.8387 120.391C91.8387 120.729 91.9091 121.016 92.0497 121.25C92.1955 121.479 92.396 121.654 92.6512 121.773C92.9065 121.893 93.1981 121.956 93.5262 121.961C93.8023 121.966 94.0835 121.93 94.37 121.852C94.6617 121.773 94.9117 121.643 95.12 121.461C95.3335 121.273 95.4637 121.023 95.5106 120.711ZM103.246 114.547L103.05 115.656H98.6049L98.8003 114.547H103.246ZM100.66 112.492H102.066L100.636 120.922C100.621 121.104 100.626 121.268 100.652 121.414C100.678 121.56 100.74 121.677 100.839 121.766C100.938 121.849 101.089 121.893 101.292 121.898C101.407 121.898 101.519 121.891 101.628 121.875C101.743 121.854 101.858 121.836 101.972 121.82L101.871 123.008C101.704 123.055 101.532 123.089 101.355 123.109C101.183 123.135 101.011 123.146 100.839 123.141C100.407 123.135 100.068 123.026 99.8237 122.812C99.5789 122.599 99.4122 122.323 99.3237 121.984C99.2351 121.646 99.2091 121.284 99.2456 120.898L100.66 112.492Z" fill="#0D47A1"/>
<g filter="url(#filter3_d_516_524)">
<rect x="248" y="20" width="72" height="72" rx="18.2857" fill="white" shape-rendering="crispEdges"/>
<g filter="url(#filter4_i_516_524)">
<rect x="252.571" y="24.5714" width="62.8571" height="62.8571" rx="14.3673" fill="url(#paint1_linear_516_524)"/>
<g filter="url(#filter5_d_516_524)">
<path d="M295.49 35.4286H272.51C269.599 35.4286 267.238 37.7871 267.238 40.6954V71.3047C267.238 74.2128 269.599 76.5714 272.51 76.5714H295.49C296.888 76.5714 298.229 76.016 299.218 75.0286C300.206 74.0412 300.762 72.7009 300.762 71.3047V40.6954C300.762 37.7872 298.401 35.4286 295.49 35.4286ZM279.882 42.568C280.803 41.6654 282.276 41.6654 283.197 42.568L284.021 43.4107L284.846 42.568H284.844C285.764 41.6654 287.239 41.6654 288.16 42.568C288.604 43.0038 288.853 43.6017 288.853 44.2226C288.853 44.8455 288.604 45.4415 288.16 45.8792L284.824 49.2117C284.367 49.6611 283.633 49.6611 283.176 49.2117L280.685 46.7027L279.861 45.8792C279.419 45.4395 279.174 44.8417 279.178 44.2188C279.181 43.5959 279.434 43.0019 279.882 42.568ZM284 70.1129L276.34 70.111C275.931 70.1611 275.519 70.0319 275.211 69.76C274.904 69.4861 274.726 69.0946 274.726 68.6819C274.726 68.2692 274.904 67.8777 275.211 67.6039C275.519 67.332 275.931 67.2028 276.34 67.2529H284C284.409 67.2028 284.82 67.332 285.129 67.6039C285.436 67.8777 285.614 68.2692 285.614 68.6819C285.614 69.0946 285.436 69.4861 285.129 69.76C284.82 70.0319 284.409 70.1611 284 70.111V70.1129ZM291.66 62.4606L276.34 62.4586C275.544 62.4586 274.898 61.8145 274.898 61.0199C274.898 60.2235 275.544 59.5793 276.34 59.5793H291.66C292.455 59.5793 293.102 60.2235 293.102 61.0199C293.102 61.8145 292.455 62.4586 291.66 62.4586V62.4606ZM291.66 54.8082L276.34 54.8063C275.544 54.8063 274.898 54.1622 274.898 53.3676C274.898 52.5711 275.544 51.927 276.34 51.927H291.66C292.455 51.927 293.102 52.5711 293.102 53.3676C293.102 54.1622 292.455 54.8063 291.66 54.8063V54.8082Z" fill="#3388E9"/>
</g>
</g>
</g>
<path d="M253.047 123H250.648L250.875 121.773L253.086 121.781C253.914 121.781 254.63 121.602 255.234 121.242C255.844 120.878 256.333 120.385 256.703 119.766C257.073 119.141 257.318 118.438 257.438 117.656L257.539 116.953C257.602 116.453 257.609 115.964 257.562 115.484C257.521 115.005 257.404 114.573 257.211 114.188C257.018 113.797 256.737 113.484 256.367 113.25C255.997 113.01 255.521 112.883 254.938 112.867L252.359 112.859L252.578 111.625L254.969 111.633C255.729 111.648 256.38 111.805 256.922 112.102C257.469 112.393 257.909 112.786 258.242 113.281C258.581 113.776 258.81 114.341 258.93 114.977C259.055 115.612 259.076 116.279 258.992 116.977L258.898 117.656C258.789 118.427 258.573 119.141 258.25 119.797C257.927 120.448 257.513 121.013 257.008 121.492C256.503 121.971 255.917 122.344 255.25 122.609C254.583 122.87 253.849 123 253.047 123ZM253.414 111.625L251.438 123H249.961L251.938 111.625H253.414ZM262.962 114.547L261.493 123H260.079L261.547 114.547H262.962ZM261.829 112.328C261.829 112.083 261.904 111.88 262.055 111.719C262.212 111.552 262.412 111.466 262.657 111.461C262.902 111.456 263.102 111.531 263.258 111.688C263.42 111.844 263.498 112.042 263.493 112.281C263.493 112.521 263.412 112.721 263.251 112.883C263.094 113.039 262.896 113.12 262.657 113.125C262.417 113.13 262.219 113.06 262.063 112.914C261.907 112.763 261.829 112.568 261.829 112.328ZM268.876 121.555L269.579 117.188C269.616 116.865 269.584 116.581 269.486 116.336C269.392 116.091 269.233 115.901 269.009 115.766C268.79 115.63 268.514 115.557 268.181 115.547C267.889 115.542 267.603 115.589 267.321 115.688C267.045 115.786 266.806 115.935 266.603 116.133C266.4 116.331 266.267 116.581 266.204 116.883L264.798 116.891C264.834 116.469 264.967 116.102 265.196 115.789C265.426 115.471 265.712 115.208 266.056 115C266.4 114.786 266.769 114.63 267.165 114.531C267.561 114.427 267.946 114.378 268.321 114.383C268.889 114.393 269.381 114.516 269.798 114.75C270.22 114.979 270.538 115.302 270.751 115.719C270.965 116.135 271.043 116.635 270.986 117.219L270.337 121.156C270.29 121.443 270.262 121.732 270.251 122.023C270.246 122.31 270.28 122.591 270.353 122.867L270.337 123L268.907 123.008C268.85 122.768 268.821 122.526 268.821 122.281C268.827 122.036 268.845 121.794 268.876 121.555ZM269.743 117.875L269.579 118.891L268.243 118.883C267.962 118.883 267.665 118.904 267.353 118.945C267.04 118.987 266.743 119.065 266.462 119.18C266.181 119.294 265.944 119.461 265.751 119.68C265.558 119.893 265.441 120.172 265.4 120.516C265.368 120.797 265.402 121.042 265.501 121.25C265.605 121.453 265.762 121.612 265.97 121.727C266.178 121.841 266.42 121.901 266.696 121.906C267.056 121.911 267.41 121.841 267.759 121.695C268.108 121.549 268.413 121.341 268.673 121.07C268.933 120.799 269.113 120.487 269.212 120.133L269.728 120.828C269.629 121.172 269.467 121.49 269.243 121.781C269.019 122.068 268.754 122.315 268.446 122.523C268.144 122.732 267.819 122.893 267.47 123.008C267.121 123.122 266.772 123.177 266.423 123.172C265.949 123.161 265.519 123.055 265.134 122.852C264.754 122.648 264.452 122.365 264.228 122C264.009 121.63 263.915 121.201 263.946 120.711C263.978 120.174 264.118 119.724 264.368 119.359C264.618 118.995 264.939 118.703 265.329 118.484C265.725 118.266 266.157 118.109 266.626 118.016C267.095 117.917 267.558 117.867 268.017 117.867L269.743 117.875ZM279.017 114.547H280.314L278.9 122.812C278.801 123.516 278.575 124.135 278.22 124.672C277.871 125.208 277.413 125.625 276.845 125.922C276.283 126.219 275.64 126.359 274.916 126.344C274.536 126.333 274.163 126.268 273.799 126.148C273.434 126.029 273.098 125.859 272.791 125.641C272.483 125.422 272.226 125.154 272.017 124.836L272.83 123.992C273.075 124.341 273.364 124.617 273.697 124.82C274.036 125.029 274.421 125.141 274.853 125.156C275.327 125.167 275.746 125.078 276.111 124.891C276.481 124.708 276.78 124.445 277.01 124.102C277.244 123.758 277.398 123.354 277.47 122.891L278.58 116.336L279.017 114.547ZM272.635 118.93L272.658 118.758C272.72 118.237 272.843 117.716 273.025 117.195C273.213 116.674 273.463 116.201 273.775 115.773C274.088 115.341 274.47 115 274.924 114.75C275.377 114.495 275.905 114.372 276.51 114.383C277.056 114.398 277.512 114.526 277.877 114.766C278.241 115.005 278.528 115.323 278.736 115.719C278.95 116.109 279.093 116.539 279.166 117.008C279.244 117.477 279.267 117.948 279.236 118.422L279.15 119.141C279.062 119.646 278.916 120.141 278.713 120.625C278.51 121.109 278.246 121.547 277.924 121.938C277.601 122.323 277.215 122.628 276.767 122.852C276.325 123.076 275.819 123.18 275.252 123.164C274.694 123.143 274.233 123 273.869 122.734C273.51 122.469 273.231 122.128 273.033 121.711C272.835 121.289 272.707 120.836 272.65 120.352C272.593 119.862 272.588 119.388 272.635 118.93ZM274.08 118.75L274.056 118.922C274.02 119.234 274.01 119.562 274.025 119.906C274.041 120.25 274.101 120.576 274.205 120.883C274.309 121.185 274.476 121.435 274.705 121.633C274.939 121.826 275.257 121.927 275.658 121.938C276.085 121.953 276.481 121.859 276.845 121.656C277.21 121.453 277.523 121.182 277.783 120.844C278.043 120.505 278.231 120.138 278.345 119.742L278.65 117.844C278.666 117.557 278.632 117.281 278.549 117.016C278.465 116.75 278.34 116.513 278.174 116.305C278.012 116.096 277.814 115.93 277.58 115.805C277.345 115.68 277.08 115.615 276.783 115.609C276.345 115.594 275.968 115.68 275.65 115.867C275.332 116.049 275.064 116.297 274.845 116.609C274.632 116.922 274.463 117.266 274.338 117.641C274.213 118.016 274.127 118.385 274.08 118.75ZM283.541 116.438L282.401 123H280.987L282.455 114.547H283.791L283.541 116.438ZM282.885 118.453L282.307 118.438C282.38 117.932 282.513 117.438 282.705 116.953C282.903 116.464 283.161 116.023 283.479 115.633C283.802 115.242 284.185 114.935 284.627 114.711C285.075 114.482 285.586 114.375 286.159 114.391C286.612 114.401 286.989 114.49 287.291 114.656C287.599 114.818 287.838 115.039 288.01 115.32C288.182 115.602 288.297 115.927 288.354 116.297C288.411 116.661 288.416 117.049 288.369 117.461L287.448 123H286.026L286.963 117.438C287 117.099 286.987 116.794 286.924 116.523C286.867 116.247 286.737 116.029 286.534 115.867C286.336 115.701 286.049 115.612 285.674 115.602C285.278 115.591 284.922 115.667 284.604 115.828C284.286 115.99 284.007 116.211 283.768 116.492C283.534 116.768 283.341 117.078 283.19 117.422C283.044 117.76 282.942 118.104 282.885 118.453ZM289.956 118.914L289.979 118.734C290.042 118.167 290.182 117.62 290.401 117.094C290.625 116.568 290.919 116.099 291.284 115.688C291.649 115.276 292.081 114.953 292.581 114.719C293.081 114.484 293.638 114.375 294.253 114.391C294.847 114.401 295.354 114.529 295.776 114.773C296.203 115.018 296.547 115.344 296.807 115.75C297.073 116.151 297.258 116.604 297.362 117.109C297.466 117.615 297.492 118.135 297.44 118.672L297.425 118.852C297.357 119.419 297.211 119.964 296.987 120.484C296.763 121.005 296.466 121.469 296.097 121.875C295.732 122.281 295.3 122.602 294.8 122.836C294.3 123.065 293.745 123.172 293.136 123.156C292.547 123.146 292.039 123.021 291.612 122.781C291.19 122.536 290.849 122.214 290.589 121.812C290.328 121.411 290.146 120.961 290.042 120.461C289.938 119.961 289.909 119.445 289.956 118.914ZM291.386 118.734L291.37 118.922C291.334 119.25 291.331 119.591 291.362 119.945C291.399 120.299 291.482 120.628 291.612 120.93C291.748 121.232 291.943 121.479 292.198 121.672C292.453 121.865 292.784 121.966 293.19 121.977C293.623 121.987 294.003 121.904 294.331 121.727C294.659 121.544 294.938 121.299 295.167 120.992C295.401 120.685 295.586 120.344 295.722 119.969C295.862 119.594 295.956 119.221 296.003 118.852L296.018 118.672C296.055 118.344 296.055 118.003 296.018 117.648C295.987 117.289 295.904 116.956 295.768 116.648C295.638 116.336 295.446 116.083 295.19 115.891C294.935 115.693 294.604 115.589 294.198 115.578C293.766 115.562 293.383 115.648 293.05 115.836C292.722 116.018 292.443 116.266 292.214 116.578C291.985 116.891 291.8 117.237 291.659 117.617C291.524 117.992 291.432 118.365 291.386 118.734ZM303.691 120.711C303.738 120.388 303.678 120.135 303.511 119.953C303.35 119.771 303.136 119.633 302.871 119.539C302.61 119.44 302.355 119.359 302.105 119.297C301.792 119.219 301.477 119.122 301.16 119.008C300.842 118.893 300.55 118.747 300.285 118.57C300.024 118.388 299.816 118.164 299.66 117.898C299.509 117.628 299.441 117.299 299.457 116.914C299.477 116.497 299.587 116.13 299.785 115.812C299.988 115.495 300.248 115.229 300.566 115.016C300.889 114.802 301.24 114.643 301.621 114.539C302.001 114.435 302.378 114.385 302.753 114.391C303.285 114.401 303.766 114.51 304.199 114.719C304.636 114.927 304.983 115.227 305.238 115.617C305.493 116.008 305.613 116.482 305.597 117.039L304.199 117.031C304.209 116.734 304.149 116.479 304.019 116.266C303.889 116.052 303.709 115.888 303.48 115.773C303.251 115.654 302.99 115.591 302.699 115.586C302.423 115.581 302.152 115.625 301.886 115.719C301.621 115.807 301.394 115.948 301.207 116.141C301.019 116.328 300.904 116.573 300.863 116.875C300.832 117.099 300.865 117.284 300.964 117.43C301.063 117.57 301.199 117.685 301.371 117.773C301.548 117.857 301.733 117.927 301.925 117.984C302.123 118.036 302.303 118.083 302.464 118.125C302.891 118.245 303.313 118.396 303.73 118.578C304.147 118.76 304.485 119.013 304.746 119.336C305.006 119.654 305.123 120.073 305.097 120.594C305.076 121.036 304.959 121.422 304.746 121.75C304.537 122.073 304.266 122.341 303.933 122.555C303.605 122.763 303.243 122.917 302.847 123.016C302.451 123.115 302.055 123.161 301.66 123.156C301.113 123.146 300.602 123.034 300.128 122.82C299.66 122.602 299.285 122.289 299.003 121.883C298.722 121.471 298.589 120.971 298.605 120.383L300.019 120.391C300.019 120.729 300.089 121.016 300.23 121.25C300.376 121.479 300.576 121.654 300.832 121.773C301.087 121.893 301.378 121.956 301.707 121.961C301.983 121.966 302.264 121.93 302.55 121.852C302.842 121.773 303.092 121.643 303.3 121.461C303.514 121.273 303.644 121.023 303.691 120.711ZM309.512 114.547L308.043 123H306.629L308.098 114.547H309.512ZM308.379 112.328C308.379 112.083 308.454 111.88 308.605 111.719C308.762 111.552 308.962 111.466 309.207 111.461C309.452 111.456 309.652 111.531 309.809 111.688C309.97 111.844 310.048 112.042 310.043 112.281C310.043 112.521 309.962 112.721 309.801 112.883C309.645 113.039 309.447 113.12 309.207 113.125C308.967 113.13 308.77 113.06 308.613 112.914C308.457 112.763 308.379 112.568 308.379 112.328ZM315.536 120.711C315.583 120.388 315.523 120.135 315.356 119.953C315.195 119.771 314.981 119.633 314.715 119.539C314.455 119.44 314.2 119.359 313.95 119.297C313.637 119.219 313.322 119.122 313.005 119.008C312.687 118.893 312.395 118.747 312.13 118.57C311.869 118.388 311.661 118.164 311.505 117.898C311.353 117.628 311.286 117.299 311.301 116.914C311.322 116.497 311.432 116.13 311.63 115.812C311.833 115.495 312.093 115.229 312.411 115.016C312.734 114.802 313.085 114.643 313.465 114.539C313.846 114.435 314.223 114.385 314.598 114.391C315.13 114.401 315.611 114.51 316.044 114.719C316.481 114.927 316.827 115.227 317.083 115.617C317.338 116.008 317.458 116.482 317.442 117.039L316.044 117.031C316.054 116.734 315.994 116.479 315.864 116.266C315.734 116.052 315.554 115.888 315.325 115.773C315.096 115.654 314.835 115.591 314.544 115.586C314.268 115.581 313.997 115.625 313.731 115.719C313.465 115.807 313.239 115.948 313.051 116.141C312.864 116.328 312.749 116.573 312.708 116.875C312.676 117.099 312.71 117.284 312.809 117.43C312.908 117.57 313.044 117.685 313.215 117.773C313.393 117.857 313.577 117.927 313.77 117.984C313.968 118.036 314.148 118.083 314.309 118.125C314.736 118.245 315.158 118.396 315.575 118.578C315.991 118.76 316.33 119.013 316.59 119.336C316.851 119.654 316.968 120.073 316.942 120.594C316.921 121.036 316.804 121.422 316.59 121.75C316.382 122.073 316.111 122.341 315.778 122.555C315.45 122.763 315.088 122.917 314.692 123.016C314.296 123.115 313.9 123.161 313.505 123.156C312.958 123.146 312.447 123.034 311.973 122.82C311.505 122.602 311.13 122.289 310.848 121.883C310.567 121.471 310.434 120.971 310.45 120.383L311.864 120.391C311.864 120.729 311.934 121.016 312.075 121.25C312.221 121.479 312.421 121.654 312.676 121.773C312.932 121.893 313.223 121.956 313.551 121.961C313.827 121.966 314.109 121.93 314.395 121.852C314.687 121.773 314.937 121.643 315.145 121.461C315.359 121.273 315.489 121.023 315.536 120.711Z" fill="#0D47A1"/>
<rect x="39" y="209.908" width="72" height="72" rx="16.4571" fill="url(#paint2_radial_516_524)"/>
<g filter="url(#filter6_d_516_524)">
<path fill-rule="evenodd" clip-rule="evenodd" d="M58.5171 234.353C56.3403 228.911 62.0436 223.663 67.2859 226.285L94.445 239.864C99.1431 242.213 99.1431 248.918 94.445 251.267L67.2859 264.846C62.0435 267.467 56.3403 262.22 58.5171 256.777L62.3065 247.304H72.9863C73.9464 247.304 74.7247 246.526 74.7247 245.565C74.7247 244.605 73.9464 243.827 72.9863 243.827H62.3066L58.5171 234.353Z" fill="white"/>
</g>
<path d="M47.5469 312.908H45.1484L45.375 311.682L47.5859 311.689C48.4141 311.689 49.1302 311.51 49.7344 311.15C50.3438 310.786 50.8333 310.294 51.2031 309.674C51.5729 309.049 51.8177 308.346 51.9375 307.564L52.0391 306.861C52.1016 306.361 52.1094 305.872 52.0625 305.393C52.0208 304.913 51.9036 304.481 51.7109 304.096C51.5182 303.705 51.237 303.393 50.8672 303.158C50.4974 302.919 50.0208 302.791 49.4375 302.775L46.8594 302.768L47.0781 301.533L49.4688 301.541C50.2292 301.557 50.8802 301.713 51.4219 302.01C51.9688 302.301 52.4089 302.695 52.7422 303.189C53.0807 303.684 53.3099 304.249 53.4297 304.885C53.5547 305.52 53.5755 306.187 53.4922 306.885L53.3984 307.564C53.2891 308.335 53.0729 309.049 52.75 309.705C52.4271 310.356 52.013 310.921 51.5078 311.4C51.0026 311.88 50.4167 312.252 49.75 312.518C49.0833 312.778 48.349 312.908 47.5469 312.908ZM47.9141 301.533L45.9375 312.908H44.4609L46.4375 301.533H47.9141ZM57.4615 304.455L55.9928 312.908H54.5787L56.0474 304.455H57.4615ZM56.3287 302.236C56.3287 301.992 56.4042 301.788 56.5553 301.627C56.7115 301.46 56.912 301.374 57.1568 301.369C57.4016 301.364 57.6021 301.439 57.7584 301.596C57.9198 301.752 57.998 301.95 57.9928 302.189C57.9928 302.429 57.912 302.63 57.7506 302.791C57.5943 302.947 57.3964 303.028 57.1568 303.033C56.9172 303.038 56.7193 302.968 56.5631 302.822C56.4068 302.671 56.3287 302.476 56.3287 302.236ZM63.4855 310.619C63.5324 310.296 63.4725 310.044 63.3058 309.861C63.1444 309.679 62.9308 309.541 62.6652 309.447C62.4048 309.348 62.1496 309.268 61.8996 309.205C61.5871 309.127 61.272 309.031 60.9543 308.916C60.6365 308.801 60.3449 308.656 60.0793 308.479C59.8188 308.296 59.6105 308.072 59.4543 307.807C59.3032 307.536 59.2355 307.208 59.2511 306.822C59.272 306.406 59.3813 306.038 59.5793 305.721C59.7824 305.403 60.0428 305.137 60.3605 304.924C60.6834 304.71 61.035 304.551 61.4152 304.447C61.7954 304.343 62.173 304.294 62.548 304.299C63.0793 304.309 63.561 304.419 63.9933 304.627C64.4308 304.835 64.7772 305.135 65.0324 305.525C65.2876 305.916 65.4074 306.39 65.3918 306.947L63.9933 306.939C64.0037 306.643 63.9438 306.387 63.8136 306.174C63.6834 305.96 63.5037 305.796 63.2746 305.682C63.0454 305.562 62.785 305.499 62.4933 305.494C62.2173 305.489 61.9464 305.533 61.6808 305.627C61.4152 305.715 61.1886 305.856 61.0011 306.049C60.8136 306.236 60.699 306.481 60.6574 306.783C60.6261 307.007 60.66 307.192 60.7589 307.338C60.8579 307.479 60.9933 307.593 61.1652 307.682C61.3423 307.765 61.5272 307.835 61.7199 307.893C61.9178 307.945 62.0975 307.992 62.2589 308.033C62.686 308.153 63.1079 308.304 63.5246 308.486C63.9412 308.669 64.2798 308.921 64.5402 309.244C64.8006 309.562 64.9178 309.981 64.8918 310.502C64.8709 310.945 64.7537 311.33 64.5402 311.658C64.3319 311.981 64.061 312.249 63.7277 312.463C63.3996 312.671 63.0376 312.825 62.6418 312.924C62.2459 313.023 61.8501 313.07 61.4543 313.064C60.9074 313.054 60.397 312.942 59.923 312.729C59.4543 312.51 59.0793 312.197 58.798 311.791C58.5168 311.38 58.3839 310.88 58.3996 310.291L59.8136 310.299C59.8136 310.637 59.8839 310.924 60.0246 311.158C60.1704 311.387 60.3709 311.562 60.6261 311.682C60.8813 311.801 61.173 311.864 61.5011 311.869C61.7772 311.874 62.0584 311.838 62.3449 311.76C62.6365 311.682 62.8865 311.551 63.0949 311.369C63.3084 311.182 63.4386 310.932 63.4855 310.619ZM68.8923 306.166L67.1579 316.158H65.7361L67.7673 304.455H69.0642L68.8923 306.166ZM73.9783 308.564L73.9626 308.729C73.8949 309.239 73.7699 309.755 73.5876 310.275C73.4105 310.791 73.1684 311.262 72.8611 311.689C72.5538 312.117 72.1762 312.458 71.7283 312.713C71.2855 312.968 70.7647 313.088 70.1658 313.072C69.6397 313.062 69.1892 312.947 68.8142 312.729C68.4392 312.505 68.1371 312.21 67.9079 311.846C67.6788 311.476 67.5147 311.064 67.4158 310.611C67.322 310.153 67.2908 309.684 67.322 309.205L67.4314 308.338C67.5199 307.827 67.6684 307.33 67.8767 306.846C68.0902 306.356 68.3611 305.916 68.6892 305.525C69.0173 305.135 69.4053 304.83 69.8533 304.611C70.3064 304.387 70.8194 304.283 71.3923 304.299C71.9704 304.314 72.4392 304.455 72.7986 304.721C73.1631 304.981 73.4392 305.322 73.6267 305.744C73.8194 306.161 73.9392 306.617 73.9861 307.111C74.0329 307.601 74.0303 308.085 73.9783 308.564ZM72.5408 308.721L72.5642 308.549C72.6006 308.236 72.6085 307.906 72.5876 307.557C72.572 307.208 72.5069 306.882 72.3923 306.58C72.2829 306.273 72.1085 306.02 71.8689 305.822C71.6345 305.624 71.3142 305.52 70.9079 305.51C70.585 305.499 70.2777 305.554 69.9861 305.674C69.6996 305.788 69.4392 305.952 69.2048 306.166C68.9704 306.374 68.7699 306.617 68.6033 306.893C68.4366 307.163 68.3142 307.45 68.2361 307.752L67.9001 309.791C67.8949 310.161 67.9756 310.505 68.1423 310.822C68.309 311.135 68.5355 311.387 68.822 311.58C69.1137 311.773 69.4444 311.874 69.8142 311.885C70.2465 311.895 70.6215 311.809 70.9392 311.627C71.2621 311.439 71.5329 311.189 71.7517 310.877C71.9704 310.559 72.1449 310.213 72.2751 309.838C72.4053 309.458 72.4939 309.085 72.5408 308.721ZM80.1585 311.463L80.8616 307.096C80.8981 306.773 80.8668 306.489 80.7679 306.244C80.6741 305.999 80.5153 305.809 80.2913 305.674C80.0726 305.538 79.7965 305.465 79.4632 305.455C79.1715 305.45 78.8851 305.497 78.6038 305.596C78.3278 305.695 78.0882 305.843 77.8851 306.041C77.6819 306.239 77.5491 306.489 77.4866 306.791L76.0804 306.799C76.1168 306.377 76.2496 306.01 76.4788 305.697C76.708 305.38 76.9944 305.117 77.3382 304.908C77.6819 304.695 78.0517 304.538 78.4476 304.439C78.8434 304.335 79.2288 304.286 79.6038 304.291C80.1715 304.301 80.6637 304.424 81.0804 304.658C81.5023 304.887 81.82 305.21 82.0335 305.627C82.247 306.044 82.3252 306.544 82.2679 307.127L81.6194 311.064C81.5726 311.351 81.5439 311.64 81.5335 311.932C81.5283 312.218 81.5621 312.499 81.6351 312.775L81.6194 312.908L80.1898 312.916C80.1325 312.676 80.1038 312.434 80.1038 312.189C80.109 311.945 80.1273 311.702 80.1585 311.463ZM81.0257 307.783L80.8616 308.799L79.5257 308.791C79.2444 308.791 78.9476 308.812 78.6351 308.854C78.3226 308.895 78.0257 308.973 77.7444 309.088C77.4632 309.202 77.2262 309.369 77.0335 309.588C76.8408 309.801 76.7236 310.08 76.6819 310.424C76.6507 310.705 76.6845 310.95 76.7835 311.158C76.8877 311.361 77.0439 311.52 77.2523 311.635C77.4606 311.749 77.7028 311.809 77.9788 311.814C78.3382 311.82 78.6924 311.749 79.0413 311.604C79.3903 311.458 79.695 311.249 79.9554 310.979C80.2158 310.708 80.3955 310.395 80.4944 310.041L81.0101 310.736C80.9111 311.08 80.7496 311.398 80.5257 311.689C80.3017 311.976 80.0361 312.223 79.7288 312.432C79.4267 312.64 79.1012 312.801 78.7523 312.916C78.4033 313.031 78.0543 313.085 77.7054 313.08C77.2314 313.07 76.8017 312.963 76.4163 312.76C76.0361 312.557 75.734 312.273 75.5101 311.908C75.2913 311.538 75.1976 311.109 75.2288 310.619C75.2601 310.083 75.4007 309.632 75.6507 309.268C75.9007 308.903 76.221 308.611 76.6116 308.393C77.0075 308.174 77.4398 308.018 77.9085 307.924C78.3773 307.825 78.8408 307.775 79.2991 307.775L81.0257 307.783ZM88.4403 304.455L88.245 305.564H83.7997L83.995 304.455H88.4403ZM85.8544 302.4H87.2606L85.8309 310.83C85.8153 311.012 85.8205 311.176 85.8466 311.322C85.8726 311.468 85.9351 311.585 86.0341 311.674C86.133 311.757 86.2841 311.801 86.4872 311.807C86.6018 311.807 86.7137 311.799 86.8231 311.783C86.9377 311.762 87.0523 311.744 87.1669 311.729L87.0653 312.916C86.8986 312.963 86.7268 312.997 86.5497 313.018C86.3778 313.044 86.2059 313.054 86.0341 313.049C85.6018 313.044 85.2632 312.934 85.0184 312.721C84.7736 312.507 84.607 312.231 84.5184 311.893C84.4299 311.554 84.4039 311.192 84.4403 310.807L85.8544 302.4ZM92.1518 311.885C92.4956 311.89 92.8159 311.825 93.1128 311.689C93.4096 311.554 93.6622 311.361 93.8706 311.111C94.0789 310.861 94.2273 310.572 94.3159 310.244L95.6596 310.236C95.5763 310.804 95.3549 311.301 94.9956 311.729C94.6414 312.156 94.2065 312.489 93.6909 312.729C93.1805 312.963 92.6466 313.075 92.0893 313.064C91.4956 313.054 90.9904 312.932 90.5737 312.697C90.1622 312.458 89.8315 312.14 89.5815 311.744C89.3315 311.348 89.1596 310.903 89.0659 310.408C88.9721 309.908 88.9513 309.395 89.0034 308.869L89.0346 308.533C89.0971 307.965 89.2351 307.426 89.4487 306.916C89.6622 306.4 89.9461 305.945 90.3003 305.549C90.6596 305.148 91.0841 304.835 91.5737 304.611C92.0633 304.387 92.6128 304.283 93.2221 304.299C93.8159 304.309 94.3315 304.45 94.769 304.721C95.2065 304.986 95.545 305.348 95.7846 305.807C96.0242 306.265 96.144 306.786 96.144 307.369L94.8159 307.361C94.8107 307.028 94.7456 306.721 94.6206 306.439C94.4956 306.158 94.3107 305.932 94.0659 305.76C93.8211 305.588 93.519 305.494 93.1596 305.479C92.7273 305.468 92.3497 305.549 92.0268 305.721C91.7091 305.893 91.4383 306.13 91.2143 306.432C90.9956 306.729 90.8211 307.059 90.6909 307.424C90.5659 307.788 90.4799 308.158 90.4331 308.533L90.394 308.861C90.3628 309.195 90.3575 309.536 90.3784 309.885C90.4044 310.234 90.4773 310.559 90.5971 310.861C90.7169 311.158 90.9018 311.4 91.1518 311.588C91.4018 311.775 91.7351 311.874 92.1518 311.885ZM100.277 300.908L98.1914 312.908H96.7774L98.8633 300.908H100.277ZM98.6758 308.361L98.0977 308.346C98.1706 307.84 98.3034 307.346 98.4961 306.861C98.694 306.372 98.9519 305.932 99.2696 305.541C99.5925 305.15 99.9753 304.843 100.418 304.619C100.866 304.39 101.376 304.283 101.949 304.299C102.402 304.309 102.78 304.398 103.082 304.564C103.389 304.726 103.629 304.947 103.801 305.229C103.973 305.51 104.087 305.835 104.145 306.205C104.202 306.57 104.207 306.958 104.16 307.369L103.238 312.908H101.816L102.754 307.346C102.79 307.007 102.777 306.702 102.715 306.432C102.658 306.156 102.527 305.937 102.324 305.775C102.126 305.609 101.84 305.52 101.465 305.51C101.069 305.499 100.712 305.575 100.395 305.736C100.077 305.898 99.7982 306.119 99.5586 306.4C99.3242 306.676 99.1315 306.986 98.9805 307.33C98.8347 307.669 98.7331 308.012 98.6758 308.361Z" fill="#0D47A1"/>
<g filter="url(#filter7_d_516_524)">
<rect x="246.5" y="209.908" width="72" height="72" rx="18.2857" fill="white" shape-rendering="crispEdges"/>
<g filter="url(#filter8_i_516_524)">
<rect x="251.071" y="214.48" width="62.8571" height="62.8571" rx="14.3673" fill="white"/>
<rect x="251.071" y="214.48" width="62.8571" height="62.8571" rx="14.3673" fill="url(#paint3_linear_516_524)"/>
<g filter="url(#filter9_d_516_524)">
<path d="M299.378 227.424H265.621C263.586 227.434 261.94 229.084 261.928 231.12V252.246C261.94 254.284 263.586 255.931 265.621 255.943H268.258V262.808C268.262 263.404 268.594 263.949 269.123 264.224C269.348 264.331 269.591 264.39 269.841 264.392C270.173 264.388 270.495 264.285 270.768 264.097L282.162 255.943H299.378C301.414 255.932 303.059 254.284 303.071 252.246V231.12C303.059 229.084 301.414 227.434 299.378 227.424ZM282.5 247.493H271.951C271.077 247.493 270.369 246.784 270.369 245.908C270.369 245.033 271.077 244.324 271.951 244.324H282.5C283.374 244.324 284.082 245.033 284.082 245.908C284.082 246.784 283.374 247.493 282.5 247.493ZM293.049 239.042H271.951C271.077 239.042 270.369 238.333 270.369 237.457C270.369 236.584 271.077 235.873 271.951 235.873H293.049C293.923 235.873 294.631 236.584 294.631 237.457C294.631 238.333 293.923 239.042 293.049 239.042Z" fill="#3388E9"/>
</g>
</g>
</g>
<path d="M252.914 311.533L250.938 322.908H249.461L251.438 311.533H252.914ZM256.648 316.65L256.43 317.885H251.477L251.695 316.65H256.648ZM258.281 311.533L258.062 312.768H252.367L252.586 311.533H258.281ZM261.258 323.064C260.68 323.054 260.178 322.939 259.751 322.721C259.329 322.497 258.982 322.197 258.712 321.822C258.446 321.442 258.256 321.01 258.141 320.525C258.027 320.041 257.993 319.533 258.04 319.002L258.071 318.666C258.123 318.124 258.256 317.593 258.469 317.072C258.683 316.546 258.967 316.072 259.321 315.65C259.68 315.229 260.102 314.895 260.587 314.65C261.076 314.4 261.618 314.283 262.212 314.299C262.8 314.309 263.29 314.434 263.68 314.674C264.071 314.913 264.376 315.231 264.594 315.627C264.818 316.018 264.964 316.458 265.032 316.947C265.1 317.432 265.105 317.929 265.047 318.439L264.962 319.088H258.829L259.016 317.908L263.696 317.916L263.719 317.791C263.771 317.416 263.751 317.054 263.657 316.705C263.563 316.356 263.391 316.07 263.141 315.846C262.896 315.617 262.566 315.497 262.149 315.486C261.717 315.471 261.342 315.559 261.024 315.752C260.706 315.939 260.441 316.195 260.227 316.518C260.014 316.835 259.844 317.184 259.719 317.564C259.6 317.939 259.516 318.307 259.469 318.666L259.438 318.994C259.407 319.327 259.417 319.663 259.469 320.002C259.521 320.34 259.62 320.65 259.766 320.932C259.917 321.208 260.126 321.434 260.391 321.611C260.657 321.783 260.985 321.874 261.376 321.885C261.85 321.895 262.274 321.794 262.649 321.58C263.029 321.361 263.376 321.085 263.688 320.752L264.493 321.439C264.248 321.799 263.956 322.101 263.618 322.346C263.279 322.59 262.909 322.773 262.508 322.893C262.107 323.012 261.691 323.07 261.258 323.064ZM269.517 323.064C268.939 323.054 268.436 322.939 268.009 322.721C267.587 322.497 267.241 322.197 266.97 321.822C266.704 321.442 266.514 321.01 266.4 320.525C266.285 320.041 266.251 319.533 266.298 319.002L266.329 318.666C266.381 318.124 266.514 317.593 266.728 317.072C266.941 316.546 267.225 316.072 267.579 315.65C267.939 315.229 268.361 314.895 268.845 314.65C269.334 314.4 269.876 314.283 270.47 314.299C271.058 314.309 271.548 314.434 271.939 314.674C272.329 314.913 272.634 315.231 272.853 315.627C273.077 316.018 273.222 316.458 273.29 316.947C273.358 317.432 273.363 317.929 273.306 318.439L273.22 319.088H267.087L267.275 317.908L271.954 317.916L271.978 317.791C272.03 317.416 272.009 317.054 271.915 316.705C271.821 316.356 271.65 316.07 271.4 315.846C271.155 315.617 270.824 315.497 270.407 315.486C269.975 315.471 269.6 315.559 269.282 315.752C268.965 315.939 268.699 316.195 268.486 316.518C268.272 316.835 268.103 317.184 267.978 317.564C267.858 317.939 267.775 318.307 267.728 318.666L267.696 318.994C267.665 319.327 267.676 319.663 267.728 320.002C267.78 320.34 267.879 320.65 268.025 320.932C268.176 321.208 268.384 321.434 268.65 321.611C268.915 321.783 269.243 321.874 269.634 321.885C270.108 321.895 270.532 321.794 270.907 321.58C271.288 321.361 271.634 321.085 271.946 320.752L272.751 321.439C272.506 321.799 272.215 322.101 271.876 322.346C271.538 322.59 271.168 322.773 270.767 322.893C270.366 323.012 269.949 323.07 269.517 323.064ZM279.666 321.182L281.447 310.908H282.869L280.783 322.908H279.494L279.666 321.182ZM274.572 318.838L274.588 318.674C274.655 318.153 274.78 317.632 274.963 317.111C275.15 316.59 275.403 316.114 275.72 315.682C276.038 315.249 276.424 314.906 276.877 314.65C277.33 314.395 277.858 314.275 278.463 314.291C279.004 314.307 279.457 314.434 279.822 314.674C280.187 314.913 280.473 315.231 280.681 315.627C280.895 316.018 281.038 316.447 281.111 316.916C281.189 317.385 281.213 317.856 281.181 318.33L281.095 319.049C281.007 319.554 280.861 320.049 280.658 320.533C280.455 321.018 280.192 321.455 279.869 321.846C279.551 322.231 279.168 322.536 278.72 322.76C278.278 322.984 277.77 323.088 277.197 323.072C276.645 323.051 276.187 322.908 275.822 322.643C275.463 322.377 275.181 322.036 274.978 321.619C274.78 321.197 274.65 320.744 274.588 320.26C274.53 319.77 274.525 319.296 274.572 318.838ZM276.025 318.658L276.01 318.822C275.973 319.135 275.96 319.465 275.97 319.814C275.986 320.158 276.046 320.484 276.15 320.791C276.254 321.093 276.424 321.343 276.658 321.541C276.892 321.734 277.21 321.838 277.611 321.854C278.038 321.864 278.434 321.768 278.799 321.564C279.163 321.361 279.476 321.09 279.736 320.752C279.996 320.413 280.184 320.046 280.299 319.65L280.603 317.752C280.619 317.465 280.585 317.192 280.502 316.932C280.418 316.666 280.293 316.429 280.127 316.221C279.965 316.012 279.765 315.846 279.525 315.721C279.291 315.59 279.028 315.523 278.736 315.518C278.299 315.502 277.921 315.588 277.603 315.775C277.286 315.958 277.017 316.205 276.799 316.518C276.585 316.825 276.416 317.166 276.291 317.541C276.166 317.916 276.077 318.288 276.025 318.658ZM285.049 310.908H286.471L284.659 321.354L284.268 322.908H282.963L285.049 310.908ZM290.659 318.564L290.643 318.729C290.575 319.244 290.45 319.76 290.268 320.275C290.091 320.791 289.846 321.262 289.534 321.689C289.226 322.117 288.849 322.458 288.401 322.713C287.958 322.968 287.437 323.088 286.838 323.072C286.297 323.062 285.841 322.937 285.471 322.697C285.101 322.458 284.81 322.145 284.596 321.76C284.382 321.369 284.237 320.939 284.159 320.471C284.08 319.997 284.057 319.523 284.088 319.049L284.174 318.33C284.263 317.825 284.409 317.33 284.612 316.846C284.815 316.361 285.078 315.924 285.401 315.533C285.724 315.143 286.106 314.835 286.549 314.611C286.992 314.382 287.5 314.275 288.073 314.291C288.651 314.307 289.119 314.447 289.479 314.713C289.843 314.979 290.119 315.322 290.307 315.744C290.494 316.161 290.612 316.617 290.659 317.111C290.711 317.606 290.711 318.09 290.659 318.564ZM289.221 318.721L289.244 318.549C289.281 318.236 289.294 317.906 289.284 317.557C289.273 317.208 289.216 316.88 289.112 316.572C289.013 316.265 288.846 316.015 288.612 315.822C288.382 315.624 288.062 315.52 287.651 315.51C287.323 315.499 287.013 315.554 286.721 315.674C286.435 315.788 286.174 315.952 285.94 316.166C285.705 316.374 285.505 316.617 285.338 316.893C285.177 317.163 285.054 317.45 284.971 317.752L284.666 319.65C284.656 320.025 284.729 320.38 284.885 320.713C285.041 321.041 285.263 321.309 285.549 321.518C285.841 321.721 286.179 321.83 286.565 321.846C286.997 321.861 287.369 321.778 287.682 321.596C287.994 321.408 288.255 321.161 288.463 320.854C288.677 320.541 288.843 320.197 288.963 319.822C289.088 319.447 289.174 319.08 289.221 318.721ZM296.823 321.463L297.526 317.096C297.563 316.773 297.531 316.489 297.432 316.244C297.339 315.999 297.18 315.809 296.956 315.674C296.737 315.538 296.461 315.465 296.128 315.455C295.836 315.45 295.55 315.497 295.268 315.596C294.992 315.695 294.753 315.843 294.55 316.041C294.347 316.239 294.214 316.489 294.151 316.791L292.745 316.799C292.781 316.377 292.914 316.01 293.143 315.697C293.373 315.38 293.659 315.117 294.003 314.908C294.347 314.695 294.716 314.538 295.112 314.439C295.508 314.335 295.893 314.286 296.268 314.291C296.836 314.301 297.328 314.424 297.745 314.658C298.167 314.887 298.485 315.21 298.698 315.627C298.912 316.044 298.99 316.544 298.932 317.127L298.284 321.064C298.237 321.351 298.209 321.64 298.198 321.932C298.193 322.218 298.227 322.499 298.3 322.775L298.284 322.908L296.854 322.916C296.797 322.676 296.768 322.434 296.768 322.189C296.774 321.945 296.792 321.702 296.823 321.463ZM297.69 317.783L297.526 318.799L296.19 318.791C295.909 318.791 295.612 318.812 295.3 318.854C294.987 318.895 294.69 318.973 294.409 319.088C294.128 319.202 293.891 319.369 293.698 319.588C293.505 319.801 293.388 320.08 293.347 320.424C293.315 320.705 293.349 320.95 293.448 321.158C293.552 321.361 293.709 321.52 293.917 321.635C294.125 321.749 294.367 321.809 294.643 321.814C295.003 321.82 295.357 321.749 295.706 321.604C296.055 321.458 296.36 321.249 296.62 320.979C296.88 320.708 297.06 320.395 297.159 320.041L297.675 320.736C297.576 321.08 297.414 321.398 297.19 321.689C296.966 321.976 296.701 322.223 296.393 322.432C296.091 322.64 295.766 322.801 295.417 322.916C295.068 323.031 294.719 323.085 294.37 323.08C293.896 323.07 293.466 322.963 293.081 322.76C292.701 322.557 292.399 322.273 292.175 321.908C291.956 321.538 291.862 321.109 291.893 320.619C291.925 320.083 292.065 319.632 292.315 319.268C292.565 318.903 292.886 318.611 293.276 318.393C293.672 318.174 294.104 318.018 294.573 317.924C295.042 317.825 295.505 317.775 295.964 317.775L297.69 317.783ZM303.714 321.885C304.058 321.89 304.378 321.825 304.675 321.689C304.972 321.554 305.225 321.361 305.433 321.111C305.641 320.861 305.79 320.572 305.878 320.244L307.222 320.236C307.139 320.804 306.917 321.301 306.558 321.729C306.204 322.156 305.769 322.489 305.253 322.729C304.743 322.963 304.209 323.075 303.652 323.064C303.058 323.054 302.553 322.932 302.136 322.697C301.725 322.458 301.394 322.14 301.144 321.744C300.894 321.348 300.722 320.903 300.628 320.408C300.535 319.908 300.514 319.395 300.566 318.869L300.597 318.533C300.66 317.965 300.798 317.426 301.011 316.916C301.225 316.4 301.509 315.945 301.863 315.549C302.222 315.148 302.647 314.835 303.136 314.611C303.626 314.387 304.175 314.283 304.785 314.299C305.378 314.309 305.894 314.45 306.332 314.721C306.769 314.986 307.108 315.348 307.347 315.807C307.587 316.265 307.707 316.786 307.707 317.369L306.378 317.361C306.373 317.028 306.308 316.721 306.183 316.439C306.058 316.158 305.873 315.932 305.628 315.76C305.384 315.588 305.082 315.494 304.722 315.479C304.29 315.468 303.912 315.549 303.589 315.721C303.272 315.893 303.001 316.13 302.777 316.432C302.558 316.729 302.384 317.059 302.253 317.424C302.128 317.788 302.042 318.158 301.996 318.533L301.957 318.861C301.925 319.195 301.92 319.536 301.941 319.885C301.967 320.234 302.04 320.559 302.16 320.861C302.279 321.158 302.464 321.4 302.714 321.588C302.964 321.775 303.298 321.874 303.714 321.885ZM311.848 310.908L309.762 322.908H308.34L310.426 310.908H311.848ZM316.301 314.455L312.113 318.33L309.59 320.604L309.762 318.932L311.449 317.213L314.457 314.455H316.301ZM313.543 322.908L311.262 318.799L312.16 317.588L315.09 322.908H313.543Z" fill="#0D47A1"/>
<g filter="url(#filter10_d_516_524)">
<rect x="38" y="407.908" width="72" height="72" rx="18.2857" fill="white" shape-rendering="crispEdges"/>
<g filter="url(#filter11_i_516_524)">
<rect x="42.5714" y="412.48" width="62.8571" height="62.8571" rx="14.3673" fill="white"/>
<rect x="42.5714" y="412.48" width="62.8571" height="62.8571" rx="14.3673" fill="url(#paint4_linear_516_524)"/>
<g filter="url(#filter12_d_516_524)">
<path fill-rule="evenodd" clip-rule="evenodd" d="M77.8695 432.888C77.8695 431.399 76.6607 430.194 75.1671 430.194H73.9387C73.1255 430.194 72.4647 429.535 72.4647 428.725V425.786C72.4647 424.434 71.3641 423.337 70.008 423.337H56.2504C54.6216 423.337 53.3024 424.652 53.3024 426.276V440.97C53.3024 442.594 54.6216 443.909 56.2504 443.909H58.2158V443.174C58.2158 440.605 60.3064 438.521 62.8836 438.521C65.4607 438.521 67.5513 440.605 67.5513 443.174V443.909H69.5167C71.1455 443.909 72.4647 442.594 72.4647 440.97V437.052C72.4647 436.241 73.1256 435.582 73.9388 435.582H75.1671C76.6608 435.582 77.8695 434.377 77.8695 432.888ZM70.4992 445.867C72.1279 445.867 73.4472 447.183 73.4472 448.806V450.276C73.2016 450.271 72.9559 450.276 72.7102 450.276C70.1331 450.276 68.0424 452.36 68.0424 454.929C68.0424 457.339 69.8801 459.32 72.2336 459.557C72.6021 459.596 73.0762 459.582 73.4472 459.582V461.541C73.4472 463.165 72.1279 464.48 70.4992 464.48H56.2504C54.6216 464.48 53.3024 463.165 53.3024 461.541V448.316C53.3024 446.965 54.403 445.867 55.759 445.867H58.7071C59.5203 445.867 60.1812 445.209 60.1812 444.398V443.174C60.1812 441.685 61.3899 440.48 62.8836 440.48C64.3772 440.48 65.5859 441.685 65.5859 443.174V444.398C65.5859 445.209 66.2468 445.867 67.06 445.867L70.4992 445.867ZM75.4126 462.03V459.092C75.4126 458.281 74.7517 457.622 73.9385 457.622C73.4398 457.622 72.9313 457.659 72.435 457.608C71.0716 457.47 70.0078 456.324 70.0078 454.928C70.0078 453.44 71.2165 452.235 72.7102 452.235H73.9385C74.7517 452.235 75.4126 451.576 75.4126 450.765V447.398C75.4126 445.808 76.7048 444.52 78.2992 444.52H80.326V445.133C80.326 447.702 82.4167 449.786 84.9938 449.786C87.5709 449.786 89.6615 447.702 89.6615 445.133V444.52H91.7497C93.3785 444.52 94.6978 445.835 94.6978 447.459V461.541C94.6978 463.164 93.3785 464.479 91.7497 464.479H77.8695C76.5135 464.479 75.4126 463.382 75.4126 462.03ZM89.7595 442.439C89.5064 442.439 89.2657 442.483 89.0421 442.566C88.2879 442.632 87.6959 443.262 87.6959 444.031V445.133C87.6959 446.622 86.4871 447.826 84.9935 447.826C83.4998 447.826 82.2911 446.622 82.2911 445.133V444.031C82.2911 443.262 81.699 442.632 80.9448 442.566C80.7212 442.483 80.4805 442.439 80.2275 442.439H77.3777C75.7489 442.439 74.4297 441.124 74.4297 439.5V437.541H75.1667C77.7438 437.541 79.8345 435.457 79.8345 432.888C79.8345 432.726 79.8271 432.569 79.8099 432.413C79.5716 430.067 77.5841 428.235 75.1667 428.235H74.4297V426.276C74.4297 424.652 75.749 423.337 77.3777 423.337H91.6265C93.2553 423.337 94.5745 424.652 94.5745 426.276V439.99C94.5745 441.342 93.4739 442.439 92.1179 442.439L89.7595 442.439Z" fill="#3388E9"/>
</g>
</g>
</g>
<path d="M39.4375 511.533L43 511.541C43.6927 511.557 44.3047 511.689 44.8359 511.939C45.3672 512.189 45.7708 512.559 46.0469 513.049C46.3281 513.533 46.4375 514.145 46.375 514.885C46.3229 515.473 46.1562 515.981 45.875 516.408C45.599 516.83 45.2422 517.184 44.8047 517.471C44.3672 517.752 43.8828 517.976 43.3516 518.143L42.9141 518.299H39.3828L39.5859 517.072L42.0938 517.08C42.5521 517.08 42.9818 516.997 43.3828 516.83C43.7891 516.663 44.1276 516.419 44.3984 516.096C44.6745 515.768 44.8438 515.364 44.9062 514.885C44.9635 514.426 44.9193 514.044 44.7734 513.736C44.6276 513.429 44.3984 513.195 44.0859 513.033C43.7786 512.872 43.4062 512.786 42.9688 512.775L40.6953 512.768L38.9375 522.908H37.4609L39.4375 511.533ZM43.9531 522.908L42.1641 517.752L43.6172 517.744L45.5234 522.807L45.5156 522.908H43.9531ZM50.4146 523.064C49.8365 523.054 49.3339 522.939 48.9068 522.721C48.4849 522.497 48.1386 522.197 47.8678 521.822C47.6021 521.442 47.412 521.01 47.2974 520.525C47.1829 520.041 47.149 519.533 47.1959 519.002L47.2271 518.666C47.2792 518.124 47.412 517.593 47.6256 517.072C47.8391 516.546 48.123 516.072 48.4771 515.65C48.8365 515.229 49.2584 514.895 49.7428 514.65C50.2323 514.4 50.774 514.283 51.3678 514.299C51.9563 514.309 52.4459 514.434 52.8365 514.674C53.2271 514.913 53.5318 515.231 53.7506 515.627C53.9745 516.018 54.1204 516.458 54.1881 516.947C54.2558 517.432 54.261 517.929 54.2037 518.439L54.1178 519.088H47.9849L48.1724 517.908L52.8521 517.916L52.8756 517.791C52.9276 517.416 52.9068 517.054 52.8131 516.705C52.7193 516.356 52.5474 516.07 52.2974 515.846C52.0526 515.617 51.7219 515.497 51.3053 515.486C50.873 515.471 50.498 515.559 50.1803 515.752C49.8625 515.939 49.5969 516.195 49.3834 516.518C49.1698 516.835 49.0006 517.184 48.8756 517.564C48.7558 517.939 48.6724 518.307 48.6256 518.666L48.5943 518.994C48.5631 519.327 48.5735 519.663 48.6256 520.002C48.6776 520.34 48.7766 520.65 48.9224 520.932C49.0735 521.208 49.2818 521.434 49.5474 521.611C49.8131 521.783 50.1412 521.874 50.5318 521.885C51.0058 521.895 51.4303 521.794 51.8053 521.58C52.1855 521.361 52.5318 521.085 52.8443 520.752L53.649 521.439C53.4042 521.799 53.1125 522.101 52.774 522.346C52.4355 522.59 52.0657 522.773 51.6646 522.893C51.2636 523.012 50.8469 523.07 50.4146 523.064ZM60.3136 520.619C60.3605 520.296 60.3006 520.044 60.1339 519.861C59.9725 519.679 59.7589 519.541 59.4933 519.447C59.2329 519.348 58.9777 519.268 58.7277 519.205C58.4152 519.127 58.1001 519.031 57.7824 518.916C57.4647 518.801 57.173 518.656 56.9074 518.479C56.647 518.296 56.4386 518.072 56.2824 517.807C56.1313 517.536 56.0636 517.208 56.0793 516.822C56.1001 516.406 56.2095 516.038 56.4074 515.721C56.6105 515.403 56.8709 515.137 57.1886 514.924C57.5115 514.71 57.8631 514.551 58.2433 514.447C58.6235 514.343 59.0011 514.294 59.3761 514.299C59.9074 514.309 60.3891 514.419 60.8214 514.627C61.2589 514.835 61.6053 515.135 61.8605 515.525C62.1157 515.916 62.2355 516.39 62.2199 516.947L60.8214 516.939C60.8319 516.643 60.772 516.387 60.6418 516.174C60.5115 515.96 60.3319 515.796 60.1027 515.682C59.8735 515.562 59.6131 515.499 59.3214 515.494C59.0454 515.489 58.7746 515.533 58.5089 515.627C58.2433 515.715 58.0168 515.856 57.8293 516.049C57.6418 516.236 57.5272 516.481 57.4855 516.783C57.4543 517.007 57.4881 517.192 57.5871 517.338C57.686 517.479 57.8214 517.593 57.9933 517.682C58.1704 517.765 58.3553 517.835 58.548 517.893C58.7459 517.945 58.9256 517.992 59.0871 518.033C59.5141 518.153 59.936 518.304 60.3527 518.486C60.7694 518.669 61.1079 518.921 61.3683 519.244C61.6287 519.562 61.7459 519.981 61.7199 520.502C61.699 520.945 61.5819 521.33 61.3683 521.658C61.16 521.981 60.8891 522.249 60.5558 522.463C60.2277 522.671 59.8657 522.825 59.4699 522.924C59.074 523.023 58.6782 523.07 58.2824 523.064C57.7355 523.054 57.2251 522.942 56.7511 522.729C56.2824 522.51 55.9074 522.197 55.6261 521.791C55.3449 521.38 55.2121 520.88 55.2277 520.291L56.6418 520.299C56.6418 520.637 56.7121 520.924 56.8527 521.158C56.9985 521.387 57.199 521.562 57.4543 521.682C57.7095 521.801 58.0011 521.864 58.3293 521.869C58.6053 521.874 58.8865 521.838 59.173 521.76C59.4647 521.682 59.7147 521.551 59.923 521.369C60.1365 521.182 60.2668 520.932 60.3136 520.619ZM63.5017 518.822L63.5251 518.643C63.5876 518.075 63.7283 517.528 63.947 517.002C64.171 516.476 64.4652 516.007 64.8298 515.596C65.1944 515.184 65.6267 514.861 66.1267 514.627C66.6267 514.393 67.184 514.283 67.7986 514.299C68.3923 514.309 68.9001 514.437 69.322 514.682C69.7491 514.926 70.0928 515.252 70.3533 515.658C70.6189 516.059 70.8038 516.512 70.9079 517.018C71.0121 517.523 71.0381 518.044 70.9861 518.58L70.9704 518.76C70.9027 519.327 70.7569 519.872 70.5329 520.393C70.309 520.913 70.0121 521.377 69.6423 521.783C69.2777 522.189 68.8454 522.51 68.3454 522.744C67.8454 522.973 67.2908 523.08 66.6814 523.064C66.0928 523.054 65.585 522.929 65.1579 522.689C64.7361 522.445 64.3949 522.122 64.1345 521.721C63.8741 521.32 63.6918 520.869 63.5876 520.369C63.4835 519.869 63.4548 519.354 63.5017 518.822ZM64.9314 518.643L64.9158 518.83C64.8793 519.158 64.8767 519.499 64.9079 519.854C64.9444 520.208 65.0277 520.536 65.1579 520.838C65.2934 521.14 65.4887 521.387 65.7439 521.58C65.9991 521.773 66.3298 521.874 66.7361 521.885C67.1684 521.895 67.5486 521.812 67.8767 521.635C68.2048 521.452 68.4835 521.208 68.7126 520.9C68.947 520.593 69.1319 520.252 69.2673 519.877C69.4079 519.502 69.5017 519.13 69.5486 518.76L69.5642 518.58C69.6006 518.252 69.6006 517.911 69.5642 517.557C69.5329 517.197 69.4496 516.864 69.3142 516.557C69.184 516.244 68.9913 515.992 68.7361 515.799C68.4809 515.601 68.1501 515.497 67.7439 515.486C67.3116 515.471 66.9288 515.557 66.5954 515.744C66.2673 515.926 65.9887 516.174 65.7595 516.486C65.5303 516.799 65.3454 517.145 65.2048 517.525C65.0694 517.9 64.9783 518.273 64.9314 518.643ZM75.6351 510.908L73.5491 522.908H72.1351L74.2132 510.908H75.6351ZM81.1981 520.877L82.3075 514.455H83.7294L82.2606 522.908H80.9091L81.1981 520.877ZM81.7294 519.174L82.3075 519.15C82.2398 519.682 82.12 520.187 81.9481 520.666C81.7762 521.14 81.5419 521.562 81.245 521.932C80.9533 522.296 80.5887 522.583 80.1512 522.791C79.719 522.994 79.2059 523.088 78.6122 523.072C78.1486 523.057 77.7606 522.963 77.4481 522.791C77.1408 522.619 76.8986 522.387 76.7216 522.096C76.5445 521.804 76.4273 521.471 76.37 521.096C76.3127 520.721 76.3049 520.325 76.3466 519.908L77.2606 514.455H78.6747L77.7606 519.932C77.7398 520.161 77.7372 520.387 77.7528 520.611C77.7684 520.83 77.8153 521.031 77.8934 521.213C77.9716 521.395 78.0914 521.544 78.2528 521.658C78.4195 521.768 78.6382 521.827 78.9091 521.838C79.4716 521.859 79.9481 521.755 80.3387 521.525C80.7294 521.291 81.0393 520.968 81.2684 520.557C81.4976 520.145 81.6512 519.684 81.7294 519.174ZM89.3237 514.455L89.1284 515.564H84.6831L84.8784 514.455H89.3237ZM86.7378 512.4H88.144L86.7143 520.83C86.6987 521.012 86.7039 521.176 86.7299 521.322C86.756 521.468 86.8185 521.585 86.9174 521.674C87.0164 521.757 87.1674 521.801 87.3706 521.807C87.4851 521.807 87.5971 521.799 87.7065 521.783C87.8211 521.762 87.9357 521.744 88.0503 521.729L87.9487 522.916C87.782 522.963 87.6101 522.997 87.4331 523.018C87.2612 523.044 87.0893 523.054 86.9174 523.049C86.4851 523.044 86.1466 522.934 85.9018 522.721C85.657 522.507 85.4904 522.231 85.4018 521.893C85.3133 521.554 85.2872 521.192 85.3237 520.807L86.7378 512.4ZM92.5117 514.455L91.043 522.908H89.6289L91.0977 514.455H92.5117ZM91.3789 512.236C91.3789 511.992 91.4545 511.788 91.6055 511.627C91.7617 511.46 91.9623 511.374 92.2071 511.369C92.4519 511.364 92.6524 511.439 92.8086 511.596C92.9701 511.752 93.0482 511.95 93.043 512.189C93.043 512.429 92.9623 512.63 92.8008 512.791C92.6446 512.947 92.4466 513.028 92.2071 513.033C91.9675 513.038 91.7696 512.968 91.6133 512.822C91.4571 512.671 91.3789 512.476 91.3789 512.236ZM93.6842 518.822L93.7076 518.643C93.7701 518.075 93.9108 517.528 94.1295 517.002C94.3535 516.476 94.6477 516.007 95.0123 515.596C95.3769 515.184 95.8092 514.861 96.3092 514.627C96.8092 514.393 97.3665 514.283 97.9811 514.299C98.5748 514.309 99.0826 514.437 99.5045 514.682C99.9316 514.926 100.275 515.252 100.536 515.658C100.801 516.059 100.986 516.512 101.09 517.018C101.195 517.523 101.221 518.044 101.169 518.58L101.153 518.76C101.085 519.327 100.939 519.872 100.715 520.393C100.491 520.913 100.195 521.377 99.8248 521.783C99.4602 522.189 99.0279 522.51 98.5279 522.744C98.0279 522.973 97.4733 523.08 96.8639 523.064C96.2753 523.054 95.7675 522.929 95.3404 522.689C94.9186 522.445 94.5774 522.122 94.317 521.721C94.0566 521.32 93.8743 520.869 93.7701 520.369C93.666 519.869 93.6373 519.354 93.6842 518.822ZM95.1139 518.643L95.0983 518.83C95.0618 519.158 95.0592 519.499 95.0904 519.854C95.1269 520.208 95.2102 520.536 95.3404 520.838C95.4759 521.14 95.6712 521.387 95.9264 521.58C96.1816 521.773 96.5123 521.874 96.9186 521.885C97.3509 521.895 97.7311 521.812 98.0592 521.635C98.3873 521.452 98.666 521.208 98.8951 520.9C99.1295 520.593 99.3144 520.252 99.4498 519.877C99.5904 519.502 99.6842 519.13 99.7311 518.76L99.7467 518.58C99.7831 518.252 99.7831 517.911 99.7467 517.557C99.7154 517.197 99.6321 516.864 99.4967 516.557C99.3665 516.244 99.1738 515.992 98.9186 515.799C98.6634 515.601 98.3326 515.497 97.9264 515.486C97.4941 515.471 97.1113 515.557 96.7779 515.744C96.4498 515.926 96.1712 516.174 95.942 516.486C95.7128 516.799 95.5279 517.145 95.3873 517.525C95.2519 517.9 95.1608 518.273 95.1139 518.643ZM104.755 516.346L103.614 522.908H102.2L103.669 514.455H105.005L104.755 516.346ZM104.099 518.361L103.521 518.346C103.594 517.84 103.726 517.346 103.919 516.861C104.117 516.372 104.375 515.932 104.693 515.541C105.015 515.15 105.398 514.843 105.841 514.619C106.289 514.39 106.799 514.283 107.372 514.299C107.825 514.309 108.203 514.398 108.505 514.564C108.812 514.726 109.052 514.947 109.224 515.229C109.396 515.51 109.51 515.835 109.568 516.205C109.625 516.57 109.63 516.958 109.583 517.369L108.661 522.908H107.239L108.177 517.346C108.213 517.007 108.2 516.702 108.138 516.432C108.081 516.156 107.95 515.937 107.747 515.775C107.549 515.609 107.263 515.52 106.888 515.51C106.492 515.499 106.135 515.575 105.818 515.736C105.5 515.898 105.221 516.119 104.982 516.4C104.747 516.676 104.555 516.986 104.404 517.33C104.258 517.669 104.156 518.012 104.099 518.361Z" fill="#0D47A1"/>
<g filter="url(#filter13_d_516_524)">
<rect x="105.482" y="620.281" width="12.3726" height="149.036" rx="6.18628" transform="rotate(-90 105.482 620.281)" fill="url(#paint5_radial_516_524)"/>
</g>
<g filter="url(#filter14_d_516_524)">
<rect x="58.8572" y="682" width="242.286" height="96" rx="24.381" fill="white" shape-rendering="crispEdges"/>
<g filter="url(#filter15_i_516_524)">
<rect x="64.9524" y="688.095" width="230.095" height="83.8095" rx="19.1565" fill="white"/>
<rect x="64.9524" y="688.095" width="230.095" height="83.8095" rx="19.1565" fill="url(#paint6_linear_516_524)"/>
<path d="M126.547 729.082V735.844C126.281 736.164 125.871 736.512 125.317 736.887C124.762 737.254 124.047 737.57 123.172 737.836C122.297 738.102 121.238 738.234 119.996 738.234C118.895 738.234 117.891 738.055 116.984 737.695C116.078 737.328 115.297 736.793 114.641 736.09C113.992 735.387 113.492 734.527 113.141 733.512C112.789 732.488 112.613 731.32 112.613 730.008V728.941C112.613 727.629 112.781 726.461 113.117 725.438C113.461 724.414 113.949 723.551 114.582 722.848C115.215 722.145 115.969 721.609 116.844 721.242C117.719 720.875 118.692 720.691 119.762 720.691C121.246 720.691 122.465 720.934 123.418 721.418C124.371 721.895 125.098 722.559 125.598 723.41C126.106 724.254 126.418 725.223 126.535 726.316H123.125C123.039 725.738 122.875 725.234 122.633 724.805C122.391 724.375 122.043 724.039 121.59 723.797C121.145 723.555 120.567 723.434 119.856 723.434C119.27 723.434 118.746 723.555 118.285 723.797C117.832 724.031 117.449 724.379 117.137 724.84C116.824 725.301 116.586 725.871 116.422 726.551C116.258 727.23 116.176 728.02 116.176 728.918V730.008C116.176 730.898 116.262 731.688 116.434 732.375C116.606 733.055 116.859 733.629 117.195 734.098C117.539 734.559 117.961 734.906 118.461 735.141C118.961 735.375 119.543 735.492 120.207 735.492C120.762 735.492 121.223 735.445 121.59 735.352C121.965 735.258 122.266 735.145 122.492 735.012C122.727 734.871 122.906 734.738 123.031 734.613V731.59H119.82V729.082H126.547ZM140.352 735.258V738H131.762V735.258H140.352ZM132.899 720.938V738H129.383V720.938H132.899ZM149.539 723.855L144.899 738H141.16L147.5 720.938H149.879L149.539 723.855ZM153.395 738L148.742 723.855L148.367 720.938H150.77L157.145 738H153.395ZM153.184 731.648V734.402H144.172V731.648H153.184ZM163.965 738H160.25L160.274 735.258H163.965C164.887 735.258 165.664 735.051 166.297 734.637C166.93 734.215 167.406 733.602 167.727 732.797C168.055 731.992 168.219 731.02 168.219 729.879V729.047C168.219 728.172 168.125 727.402 167.938 726.738C167.758 726.074 167.488 725.516 167.129 725.062C166.77 724.609 166.328 724.27 165.805 724.043C165.281 723.809 164.68 723.691 164 723.691H160.18V720.938H164C165.141 720.938 166.184 721.133 167.129 721.523C168.082 721.906 168.906 722.457 169.602 723.176C170.297 723.895 170.832 724.754 171.207 725.754C171.59 726.746 171.781 727.852 171.781 729.07V729.879C171.781 731.09 171.59 732.195 171.207 733.195C170.832 734.195 170.297 735.055 169.602 735.773C168.914 736.484 168.09 737.035 167.129 737.426C166.176 737.809 165.121 738 163.965 738ZM162.242 720.938V738H158.727V720.938H162.242ZM175.942 720.938H178.918L183.301 733.465L187.684 720.938H190.66L184.496 738H182.106L175.942 720.938ZM174.336 720.938H177.301L177.84 733.148V738H174.336V720.938ZM189.301 720.938H192.277V738H188.762V733.148L189.301 720.938ZM199.098 720.938V738H195.594V720.938H199.098ZM216.277 720.938V738H212.762L205.906 726.562V738H202.391V720.938H205.906L212.774 732.387V720.938H216.277ZM224.574 738H220.859L220.883 735.258H224.574C225.496 735.258 226.274 735.051 226.906 734.637C227.539 734.215 228.016 733.602 228.336 732.797C228.664 731.992 228.828 731.02 228.828 729.879V729.047C228.828 728.172 228.734 727.402 228.547 726.738C228.367 726.074 228.098 725.516 227.738 725.062C227.379 724.609 226.938 724.27 226.414 724.043C225.891 723.809 225.289 723.691 224.609 723.691H220.789V720.938H224.609C225.75 720.938 226.793 721.133 227.738 721.523C228.692 721.906 229.516 722.457 230.211 723.176C230.906 723.895 231.442 724.754 231.817 725.754C232.199 726.746 232.391 727.852 232.391 729.07V729.879C232.391 731.09 232.199 732.195 231.817 733.195C231.442 734.195 230.906 735.055 230.211 735.773C229.524 736.484 228.699 737.035 227.738 737.426C226.785 737.809 225.731 738 224.574 738ZM222.852 720.938V738H219.336V720.938H222.852ZM243.828 733.535C243.828 733.23 243.781 732.957 243.688 732.715C243.602 732.465 243.438 732.238 243.195 732.035C242.953 731.824 242.613 731.617 242.176 731.414C241.738 731.211 241.172 731 240.477 730.781C239.703 730.531 238.969 730.25 238.274 729.938C237.586 729.625 236.977 729.262 236.445 728.848C235.922 728.426 235.508 727.938 235.203 727.383C234.906 726.828 234.758 726.184 234.758 725.449C234.758 724.738 234.914 724.094 235.227 723.516C235.539 722.93 235.977 722.43 236.539 722.016C237.102 721.594 237.766 721.27 238.531 721.043C239.305 720.816 240.152 720.703 241.074 720.703C242.332 720.703 243.43 720.93 244.367 721.383C245.305 721.836 246.031 722.457 246.547 723.246C247.07 724.035 247.332 724.938 247.332 725.953H243.84C243.84 725.453 243.734 725.016 243.524 724.641C243.32 724.258 243.008 723.957 242.586 723.738C242.172 723.52 241.649 723.41 241.016 723.41C240.406 723.41 239.899 723.504 239.492 723.691C239.086 723.871 238.781 724.117 238.578 724.43C238.375 724.734 238.274 725.078 238.274 725.461C238.274 725.75 238.344 726.012 238.484 726.246C238.633 726.48 238.852 726.699 239.141 726.902C239.43 727.105 239.785 727.297 240.207 727.477C240.629 727.656 241.117 727.832 241.672 728.004C242.602 728.285 243.418 728.602 244.121 728.953C244.832 729.305 245.426 729.699 245.902 730.137C246.379 730.574 246.738 731.07 246.981 731.625C247.223 732.18 247.344 732.809 247.344 733.512C247.344 734.254 247.199 734.918 246.91 735.504C246.621 736.09 246.203 736.586 245.656 736.992C245.109 737.398 244.457 737.707 243.699 737.918C242.942 738.129 242.094 738.234 241.156 738.234C240.313 738.234 239.481 738.125 238.66 737.906C237.84 737.68 237.094 737.34 236.422 736.887C235.758 736.434 235.227 735.855 234.828 735.152C234.43 734.449 234.231 733.617 234.231 732.656H237.758C237.758 733.188 237.84 733.637 238.004 734.004C238.168 734.371 238.399 734.668 238.695 734.895C239 735.121 239.359 735.285 239.774 735.387C240.195 735.488 240.656 735.539 241.156 735.539C241.766 735.539 242.266 735.453 242.656 735.281C243.055 735.109 243.348 734.871 243.535 734.566C243.731 734.262 243.828 733.918 243.828 733.535Z" fill="#0D47A1"/>
</g>
</g>
<path d="M115.262 57.9082H244.739" stroke="#42A5F5" stroke-width="2" stroke-dasharray="14 14"/>
<path d="M323.267 56.9473C334.502 56.9473 343.609 66.0546 343.609 77.2891V222.894C343.609 236.493 332.584 247.518 318.985 247.518" stroke="#42A5F5" stroke-width="2" stroke-dasharray="14 14"/>
<path d="M241.9 248.589H113.425" stroke="#42A5F5" stroke-width="2" stroke-dasharray="14 14"/>
<path d="M33.6912 246.569C23.9231 246.569 16.0045 254.487 16.0045 264.255V427.225C16.0045 436.993 23.9231 444.911 33.6912 444.911" stroke="#42A5F5" stroke-width="2" stroke-dasharray="14 14"/>
<path d="M115.128 447.05H158.741C172.548 447.05 183.741 458.243 183.741 472.05V601.431V676.906" stroke="#42A5F5" stroke-width="2" stroke-dasharray="14 14"/>
<defs>
<filter id="filter0_d_516_524" x="24.8286" y="5.82857" width="100.343" height="100.343" filterUnits="userSpaceOnUse" color-interpolation-filters="sRGB">
<feFlood flood-opacity="0" result="BackgroundImageFix"/>
<feColorMatrix in="SourceAlpha" type="matrix" values="0 0 0 0 0 0 0 0 0 0 0 0 0 0 0 0 0 0 127 0" result="hardAlpha"/>
<feOffset/>
<feGaussianBlur stdDeviation="7.08571"/>
<feComposite in2="hardAlpha" operator="out"/>
<feColorMatrix type="matrix" values="0 0 0 0 0.2 0 0 0 0 0.533333 0 0 0 0 0.913725 0 0 0 0.4 0"/>
<feBlend mode="normal" in2="BackgroundImageFix" result="effect1_dropShadow_516_524"/>
<feBlend mode="normal" in="SourceGraphic" in2="effect1_dropShadow_516_524" result="shape"/>
</filter>
<filter id="filter1_i_516_524" x="36.1428" y="24.5714" width="70.2857" height="64.5715" filterUnits="userSpaceOnUse" color-interpolation-filters="sRGB">
<feFlood flood-opacity="0" result="BackgroundImageFix"/>
<feBlend mode="normal" in="SourceGraphic" in2="BackgroundImageFix" result="shape"/>
<feColorMatrix in="SourceAlpha" type="matrix" values="0 0 0 0 0 0 0 0 0 0 0 0 0 0 0 0 0 0 127 0" result="hardAlpha"/>
<feOffset dx="-7.42857" dy="1.71429"/>
<feGaussianBlur stdDeviation="5.54286"/>
<feComposite in2="hardAlpha" operator="arithmetic" k2="-1" k3="1"/>
<feColorMatrix type="matrix" values="0 0 0 0 0.00150976 0 0 0 0 0.0781402 0 0 0 0 0.512379 0 0 0 0.09 0"/>
<feBlend mode="normal" in2="shape" result="effect1_innerShadow_516_524"/>
</filter>
<filter id="filter2_d_516_524" x="52.8259" y="32.0544" width="48.3482" height="47.8912" filterUnits="userSpaceOnUse" color-interpolation-filters="sRGB">
<feFlood flood-opacity="0" result="BackgroundImageFix"/>
<feColorMatrix in="SourceAlpha" type="matrix" values="0 0 0 0 0 0 0 0 0 0 0 0 0 0 0 0 0 0 127 0" result="hardAlpha"/>
<feOffset/>
<feGaussianBlur stdDeviation="1.79592"/>
<feComposite in2="hardAlpha" operator="out"/>
<feColorMatrix type="matrix" values="0 0 0 0 0 0 0 0 0 0 0 0 0 0 0 0 0 0 0.25 0"/>
<feBlend mode="normal" in2="BackgroundImageFix" result="effect1_dropShadow_516_524"/>
<feBlend mode="normal" in="SourceGraphic" in2="effect1_dropShadow_516_524" result="shape"/>
</filter>
<filter id="filter3_d_516_524" x="233.829" y="5.82857" width="100.343" height="100.343" filterUnits="userSpaceOnUse" color-interpolation-filters="sRGB">
<feFlood flood-opacity="0" result="BackgroundImageFix"/>
<feColorMatrix in="SourceAlpha" type="matrix" values="0 0 0 0 0 0 0 0 0 0 0 0 0 0 0 0 0 0 127 0" result="hardAlpha"/>
<feOffset/>
<feGaussianBlur stdDeviation="7.08571"/>
<feComposite in2="hardAlpha" operator="out"/>
<feColorMatrix type="matrix" values="0 0 0 0 0.2 0 0 0 0 0.533333 0 0 0 0 0.913725 0 0 0 0.4 0"/>
<feBlend mode="normal" in2="BackgroundImageFix" result="effect1_dropShadow_516_524"/>
<feBlend mode="normal" in="SourceGraphic" in2="effect1_dropShadow_516_524" result="shape"/>
</filter>
<filter id="filter4_i_516_524" x="245.143" y="24.5714" width="70.2857" height="64.5715" filterUnits="userSpaceOnUse" color-interpolation-filters="sRGB">
<feFlood flood-opacity="0" result="BackgroundImageFix"/>
<feBlend mode="normal" in="SourceGraphic" in2="BackgroundImageFix" result="shape"/>
<feColorMatrix in="SourceAlpha" type="matrix" values="0 0 0 0 0 0 0 0 0 0 0 0 0 0 0 0 0 0 127 0" result="hardAlpha"/>
<feOffset dx="-7.42857" dy="1.71429"/>
<feGaussianBlur stdDeviation="5.54286"/>
<feComposite in2="hardAlpha" operator="arithmetic" k2="-1" k3="1"/>
<feColorMatrix type="matrix" values="0 0 0 0 0.00150976 0 0 0 0 0.0781402 0 0 0 0 0.512379 0 0 0 0.09 0"/>
<feBlend mode="normal" in2="shape" result="effect1_innerShadow_516_524"/>
</filter>
<filter id="filter5_d_516_524" x="263.646" y="31.8368" width="40.7082" height="48.3265" filterUnits="userSpaceOnUse" color-interpolation-filters="sRGB">
<feFlood flood-opacity="0" result="BackgroundImageFix"/>
<feColorMatrix in="SourceAlpha" type="matrix" values="0 0 0 0 0 0 0 0 0 0 0 0 0 0 0 0 0 0 127 0" result="hardAlpha"/>
<feOffset/>
<feGaussianBlur stdDeviation="1.79592"/>
<feComposite in2="hardAlpha" operator="out"/>
<feColorMatrix type="matrix" values="0 0 0 0 0 0 0 0 0 0 0 0 0 0 0 0 0 0 0.25 0"/>
<feBlend mode="normal" in2="BackgroundImageFix" result="effect1_dropShadow_516_524"/>
<feBlend mode="normal" in="SourceGraphic" in2="effect1_dropShadow_516_524" result="shape"/>
</filter>
<filter id="filter6_d_516_524" x="54.5555" y="222.103" width="46.8987" height="46.9238" filterUnits="userSpaceOnUse" color-interpolation-filters="sRGB">
<feFlood flood-opacity="0" result="BackgroundImageFix"/>
<feColorMatrix in="SourceAlpha" type="matrix" values="0 0 0 0 0 0 0 0 0 0 0 0 0 0 0 0 0 0 127 0" result="hardAlpha"/>
<feOffset/>
<feGaussianBlur stdDeviation="1.74286"/>
<feComposite in2="hardAlpha" operator="out"/>
<feColorMatrix type="matrix" values="0 0 0 0 0 0 0 0 0 0 0 0 0 0 0 0 0 0 0.25 0"/>
<feBlend mode="normal" in2="BackgroundImageFix" result="effect1_dropShadow_516_524"/>
<feBlend mode="normal" in="SourceGraphic" in2="effect1_dropShadow_516_524" result="shape"/>
</filter>
<filter id="filter7_d_516_524" x="232.329" y="195.737" width="100.343" height="100.343" filterUnits="userSpaceOnUse" color-interpolation-filters="sRGB">
<feFlood flood-opacity="0" result="BackgroundImageFix"/>
<feColorMatrix in="SourceAlpha" type="matrix" values="0 0 0 0 0 0 0 0 0 0 0 0 0 0 0 0 0 0 127 0" result="hardAlpha"/>
<feOffset/>
<feGaussianBlur stdDeviation="7.08571"/>
<feComposite in2="hardAlpha" operator="out"/>
<feColorMatrix type="matrix" values="0 0 0 0 0.2 0 0 0 0 0.533333 0 0 0 0 0.913725 0 0 0 0.4 0"/>
<feBlend mode="normal" in2="BackgroundImageFix" result="effect1_dropShadow_516_524"/>
<feBlend mode="normal" in="SourceGraphic" in2="effect1_dropShadow_516_524" result="shape"/>
</filter>
<filter id="filter8_i_516_524" x="243.643" y="214.48" width="70.2857" height="64.5715" filterUnits="userSpaceOnUse" color-interpolation-filters="sRGB">
<feFlood flood-opacity="0" result="BackgroundImageFix"/>
<feBlend mode="normal" in="SourceGraphic" in2="BackgroundImageFix" result="shape"/>
<feColorMatrix in="SourceAlpha" type="matrix" values="0 0 0 0 0 0 0 0 0 0 0 0 0 0 0 0 0 0 127 0" result="hardAlpha"/>
<feOffset dx="-7.42857" dy="1.71429"/>
<feGaussianBlur stdDeviation="5.54286"/>
<feComposite in2="hardAlpha" operator="arithmetic" k2="-1" k3="1"/>
<feColorMatrix type="matrix" values="0 0 0 0 0.00150976 0 0 0 0 0.0781402 0 0 0 0 0.512379 0 0 0 0.09 0"/>
<feBlend mode="normal" in2="shape" result="effect1_innerShadow_516_524"/>
</filter>
<filter id="filter9_d_516_524" x="258.337" y="223.832" width="48.3265" height="44.1518" filterUnits="userSpaceOnUse" color-interpolation-filters="sRGB">
<feFlood flood-opacity="0" result="BackgroundImageFix"/>
<feColorMatrix in="SourceAlpha" type="matrix" values="0 0 0 0 0 0 0 0 0 0 0 0 0 0 0 0 0 0 127 0" result="hardAlpha"/>
<feOffset/>
<feGaussianBlur stdDeviation="1.79592"/>
<feComposite in2="hardAlpha" operator="out"/>
<feColorMatrix type="matrix" values="0 0 0 0 0 0 0 0 0 0 0 0 0 0 0 0 0 0 0.25 0"/>
<feBlend mode="normal" in2="BackgroundImageFix" result="effect1_dropShadow_516_524"/>
<feBlend mode="normal" in="SourceGraphic" in2="effect1_dropShadow_516_524" result="shape"/>
</filter>
<filter id="filter10_d_516_524" x="23.8286" y="393.737" width="100.343" height="100.343" filterUnits="userSpaceOnUse" color-interpolation-filters="sRGB">
<feFlood flood-opacity="0" result="BackgroundImageFix"/>
<feColorMatrix in="SourceAlpha" type="matrix" values="0 0 0 0 0 0 0 0 0 0 0 0 0 0 0 0 0 0 127 0" result="hardAlpha"/>
<feOffset/>
<feGaussianBlur stdDeviation="7.08571"/>
<feComposite in2="hardAlpha" operator="out"/>
<feColorMatrix type="matrix" values="0 0 0 0 0.2 0 0 0 0 0.533333 0 0 0 0 0.913725 0 0 0 0.4 0"/>
<feBlend mode="normal" in2="BackgroundImageFix" result="effect1_dropShadow_516_524"/>
<feBlend mode="normal" in="SourceGraphic" in2="effect1_dropShadow_516_524" result="shape"/>
</filter>
<filter id="filter11_i_516_524" x="35.1428" y="412.48" width="70.2857" height="64.5715" filterUnits="userSpaceOnUse" color-interpolation-filters="sRGB">
<feFlood flood-opacity="0" result="BackgroundImageFix"/>
<feBlend mode="normal" in="SourceGraphic" in2="BackgroundImageFix" result="shape"/>
<feColorMatrix in="SourceAlpha" type="matrix" values="0 0 0 0 0 0 0 0 0 0 0 0 0 0 0 0 0 0 127 0" result="hardAlpha"/>
<feOffset dx="-7.42857" dy="1.71429"/>
<feGaussianBlur stdDeviation="5.54286"/>
<feComposite in2="hardAlpha" operator="arithmetic" k2="-1" k3="1"/>
<feColorMatrix type="matrix" values="0 0 0 0 0.00150976 0 0 0 0 0.0781402 0 0 0 0 0.512379 0 0 0 0.09 0"/>
<feBlend mode="normal" in2="shape" result="effect1_innerShadow_516_524"/>
</filter>
<filter id="filter12_d_516_524" x="49.7105" y="419.745" width="48.5791" height="48.3265" filterUnits="userSpaceOnUse" color-interpolation-filters="sRGB">
<feFlood flood-opacity="0" result="BackgroundImageFix"/>
<feColorMatrix in="SourceAlpha" type="matrix" values="0 0 0 0 0 0 0 0 0 0 0 0 0 0 0 0 0 0 127 0" result="hardAlpha"/>
<feOffset/>
<feGaussianBlur stdDeviation="1.79592"/>
<feComposite in2="hardAlpha" operator="out"/>
<feColorMatrix type="matrix" values="0 0 0 0 0 0 0 0 0 0 0 0 0 0 0 0 0 0 0.25 0"/>
<feBlend mode="normal" in2="BackgroundImageFix" result="effect1_dropShadow_516_524"/>
<feBlend mode="normal" in="SourceGraphic" in2="effect1_dropShadow_516_524" result="shape"/>
</filter>
<filter id="filter13_d_516_524" x="97.6822" y="601.108" width="164.636" height="27.9726" filterUnits="userSpaceOnUse" color-interpolation-filters="sRGB">
<feFlood flood-opacity="0" result="BackgroundImageFix"/>
<feColorMatrix in="SourceAlpha" type="matrix" values="0 0 0 0 0 0 0 0 0 0 0 0 0 0 0 0 0 0 127 0" result="hardAlpha"/>
<feMorphology radius="3" operator="dilate" in="SourceAlpha" result="effect1_dropShadow_516_524"/>
<feOffset dy="1"/>
<feGaussianBlur stdDeviation="2.4"/>
<feComposite in2="hardAlpha" operator="out"/>
<feColorMatrix type="matrix" values="0 0 0 0 0.516228 0 0 0 0 0.516228 0 0 0 0 0.97608 0 0 0 0.25 0"/>
<feBlend mode="normal" in2="BackgroundImageFix" result="effect1_dropShadow_516_524"/>
<feBlend mode="normal" in="SourceGraphic" in2="effect1_dropShadow_516_524" result="shape"/>
</filter>
<filter id="filter14_d_516_524" x="39.9619" y="663.105" width="280.076" height="133.79" filterUnits="userSpaceOnUse" color-interpolation-filters="sRGB">
<feFlood flood-opacity="0" result="BackgroundImageFix"/>
<feColorMatrix in="SourceAlpha" type="matrix" values="0 0 0 0 0 0 0 0 0 0 0 0 0 0 0 0 0 0 127 0" result="hardAlpha"/>
<feOffset/>
<feGaussianBlur stdDeviation="9.44762"/>
<feComposite in2="hardAlpha" operator="out"/>
<feColorMatrix type="matrix" values="0 0 0 0 0.2 0 0 0 0 0.533333 0 0 0 0 0.913725 0 0 0 0.4 0"/>
<feBlend mode="normal" in2="BackgroundImageFix" result="effect1_dropShadow_516_524"/>
<feBlend mode="normal" in="SourceGraphic" in2="effect1_dropShadow_516_524" result="shape"/>
</filter>
<filter id="filter15_i_516_524" x="55.0476" y="688.095" width="240" height="86.0953" filterUnits="userSpaceOnUse" color-interpolation-filters="sRGB">
<feFlood flood-opacity="0" result="BackgroundImageFix"/>
<feBlend mode="normal" in="SourceGraphic" in2="BackgroundImageFix" result="shape"/>
<feColorMatrix in="SourceAlpha" type="matrix" values="0 0 0 0 0 0 0 0 0 0 0 0 0 0 0 0 0 0 127 0" result="hardAlpha"/>
<feOffset dx="-9.90476" dy="2.28571"/>
<feGaussianBlur stdDeviation="7.39048"/>
<feComposite in2="hardAlpha" operator="arithmetic" k2="-1" k3="1"/>
<feColorMatrix type="matrix" values="0 0 0 0 0.00150976 0 0 0 0 0.0781402 0 0 0 0 0.512379 0 0 0 0.09 0"/>
<feBlend mode="normal" in2="shape" result="effect1_innerShadow_516_524"/>
</filter>
<linearGradient id="paint0_linear_516_524" x1="78.9286" y1="12.3578" x2="78.019" y2="36.1874" gradientUnits="userSpaceOnUse">
<stop stop-color="#C6D6EB"/>
<stop offset="1" stop-color="#F6F9FF" stop-opacity="0.29"/>
</linearGradient>
<linearGradient id="paint1_linear_516_524" x1="287.929" y1="12.3578" x2="287.019" y2="36.1874" gradientUnits="userSpaceOnUse">
<stop stop-color="#C6D6EB"/>
<stop offset="1" stop-color="#F6F9FF" stop-opacity="0.29"/>
</linearGradient>
<radialGradient id="paint2_radial_516_524" cx="0" cy="0" r="1" gradientUnits="userSpaceOnUse" gradientTransform="translate(75 245.908) rotate(90) scale(36)">
<stop stop-color="#135EB3"/>
<stop offset="1" stop-color="#3489EA"/>
</radialGradient>
<linearGradient id="paint3_linear_516_524" x1="286.429" y1="202.266" x2="285.519" y2="226.096" gradientUnits="userSpaceOnUse">
<stop stop-color="#C6D6EB"/>
<stop offset="1" stop-color="#F6F9FF" stop-opacity="0.29"/>
</linearGradient>
<linearGradient id="paint4_linear_516_524" x1="77.9286" y1="400.266" x2="77.019" y2="424.096" gradientUnits="userSpaceOnUse">
<stop stop-color="#C6D6EB"/>
<stop offset="1" stop-color="#F6F9FF" stop-opacity="0.29"/>
</linearGradient>
<radialGradient id="paint5_radial_516_524" cx="0" cy="0" r="1" gradientUnits="userSpaceOnUse" gradientTransform="translate(111.668 694.799) rotate(90) scale(36.544 20.992)">
<stop stop-color="#1D4C82"/>
<stop offset="1" stop-color="#3387E8"/>
</radialGradient>
<linearGradient id="paint6_linear_516_524" x1="194.381" y1="671.81" x2="193.939" y2="703.623" gradientUnits="userSpaceOnUse">
<stop stop-color="#C6D6EB"/>
<stop offset="1" stop-color="#F6F9FF" stop-opacity="0.29"/>
</linearGradient>
</defs>
</svg>
