<svg width="439" height="435" viewBox="0 0 439 435" fill="none" xmlns="http://www.w3.org/2000/svg">
<g filter="url(#filter0_di_514_56)">
<rect x="15.5" y="11.5" width="408" height="404" rx="20" fill="white"/>
<rect x="15.5" y="11.5" width="408" height="404" rx="20" fill="url(#paint0_linear_514_56)"/>
<rect x="18.5" y="14.5" width="402" height="398" rx="17" stroke="white" stroke-width="6"/>
<rect width="40" height="216" transform="translate(309.5 81.5)" fill="url(#paint1_linear_514_56)"/>
<rect width="40" height="216" transform="translate(309.5 81.5)" fill="url(#paint2_linear_514_56)"/>
<rect width="40" height="216" transform="translate(265.5 105.5)" fill="url(#paint3_linear_514_56)"/>
<rect width="40" height="216" transform="translate(265.5 105.5)" fill="url(#paint4_linear_514_56)"/>
<rect width="40" height="174" transform="translate(221.5 129.5)" fill="url(#paint5_linear_514_56)"/>
<rect width="40" height="174" transform="translate(221.5 129.5)" fill="url(#paint6_linear_514_56)"/>
<rect width="40" height="150" transform="translate(177.5 153.5)" fill="url(#paint7_linear_514_56)"/>
<rect width="40" height="150" transform="translate(177.5 153.5)" fill="url(#paint8_linear_514_56)"/>
<rect width="40" height="126" transform="translate(133.5 177.5)" fill="url(#paint9_linear_514_56)"/>
<rect width="40" height="104" transform="translate(89.5 199.5)" fill="url(#paint10_linear_514_56)"/>
<mask id="mask0_514_56" style="mask-type:alpha" maskUnits="userSpaceOnUse" x="173" y="149" width="49" height="180">
<rect x="175.5" y="151.5" width="44" height="175" rx="6" stroke="black" stroke-width="4"/>
</mask>
<g mask="url(#mask0_514_56)">
<ellipse cx="196.835" cy="219.5" rx="50" ry="86" fill="url(#paint11_linear_514_56)"/>
</g>
<mask id="mask1_514_56" style="mask-type:alpha" maskUnits="userSpaceOnUse" x="129" y="173" width="49" height="156">
<rect x="131.5" y="175.5" width="44" height="151" rx="6" stroke="black" stroke-width="4"/>
</mask>
<g mask="url(#mask1_514_56)">
<ellipse cx="152.835" cy="234.237" rx="50" ry="73.9298" fill="url(#paint12_linear_514_56)"/>
</g>
<mask id="mask2_514_56" style="mask-type:alpha" maskUnits="userSpaceOnUse" x="86" y="198" width="47" height="130">
<rect x="88" y="200" width="43" height="126" rx="5.5" stroke="black" stroke-width="3"/>
</mask>
<g mask="url(#mask2_514_56)">
<ellipse cx="108.5" cy="246.5" rx="50" ry="59" fill="url(#paint13_linear_514_56)"/>
</g>
<mask id="mask3_514_56" style="mask-type:alpha" maskUnits="userSpaceOnUse" x="217" y="125" width="49" height="183">
<rect x="219.5" y="127.5" width="44" height="178" rx="6" stroke="black" stroke-width="4"/>
</mask>
<g mask="url(#mask3_514_56)">
<ellipse cx="240.835" cy="206.324" rx="50" ry="97.1754" fill="url(#paint14_linear_514_56)"/>
</g>
<mask id="mask4_514_56" style="mask-type:alpha" maskUnits="userSpaceOnUse" x="261" y="101" width="49" height="207">
<rect x="263.5" y="103.5" width="44" height="202" rx="6" stroke="black" stroke-width="4"/>
</mask>
<g mask="url(#mask4_514_56)">
<ellipse cx="284.835" cy="192.921" rx="50" ry="110.579" fill="url(#paint15_linear_514_56)"/>
</g>
<mask id="mask5_514_56" style="mask-type:alpha" maskUnits="userSpaceOnUse" x="305" y="77" width="49" height="231">
<rect x="307.5" y="79.5" width="44" height="226" rx="6" stroke="black" stroke-width="4"/>
</mask>
<g mask="url(#mask5_514_56)">
<ellipse cx="328.835" cy="179.518" rx="50" ry="123.982" fill="url(#paint16_linear_514_56)"/>
</g>
<path d="M266.92 81.983C267.187 81.1987 266.767 80.3466 265.983 80.0799L253.202 75.733C252.418 75.4663 251.566 75.8859 251.299 76.6702C251.032 77.4545 251.452 78.3065 252.236 78.5733L263.597 82.4371L259.733 93.7981C259.466 94.5824 259.886 95.4344 260.67 95.7012C261.454 95.9679 262.307 95.5483 262.573 94.764L266.92 81.983ZM133.5 146.5L134.163 147.846L266.163 82.8457L265.5 81.5L264.837 80.1543L132.837 145.154L133.5 146.5Z" fill="url(#paint17_linear_514_56)"/>
<path d="M192.908 101.328L194.351 104.32L181.962 110.294L180.739 107.757L183.57 98.8334C183.811 97.9482 183.977 97.1903 184.067 96.5597C184.166 95.9252 184.196 95.3793 184.158 94.9222C184.116 94.4569 184.016 94.06 183.857 93.7316C183.6 93.198 183.296 92.788 182.946 92.5017C182.603 92.2114 182.224 92.0449 181.809 92.0023C181.394 91.9596 180.957 92.0491 180.497 92.2708C180.004 92.5083 179.643 92.8395 179.412 93.2642C179.182 93.6889 179.081 94.1726 179.11 94.7152C179.135 95.2496 179.284 95.8 179.557 96.3665L175.69 98.231C175.164 97.1391 174.948 96.019 175.042 94.8708C175.132 93.7143 175.52 92.6416 176.207 91.6527C176.89 90.6556 177.863 89.8523 179.128 89.2426C180.425 88.6172 181.612 88.2979 182.688 88.2848C183.765 88.2717 184.713 88.5381 185.532 89.0839C186.352 89.6297 187.021 90.4404 187.54 91.5159C187.833 92.1234 188.017 92.7579 188.093 93.4194C188.178 94.077 188.174 94.772 188.082 95.5044C187.99 96.2369 187.83 97.0173 187.602 97.8457C187.37 98.6658 187.088 99.5505 186.756 100.5L185.532 104.885L192.908 101.328ZM196.059 93.54L192.655 94.286L189.302 84.6558L199.572 79.7035L201.039 82.7453L193.921 86.1775L195.313 90.1661C195.471 89.9278 195.751 89.6159 196.152 89.2303C196.549 88.8365 197.043 88.4971 197.634 88.2121C198.512 87.7885 199.358 87.5479 200.17 87.4902C200.982 87.4326 201.747 87.5496 202.464 87.8412C203.186 88.1206 203.845 88.5764 204.444 89.2088C205.05 89.8371 205.583 90.6275 206.042 91.5798C206.422 92.368 206.664 93.1827 206.766 94.0239C206.864 94.857 206.795 95.6795 206.559 96.4914C206.327 97.2911 205.905 98.0413 205.291 98.7418C204.678 99.4423 203.85 100.044 202.807 100.547C202.019 100.927 201.198 101.176 200.344 101.294C199.491 101.412 198.66 101.388 197.851 101.222C197.046 101.043 196.313 100.708 195.651 100.218C194.998 99.7232 194.469 99.0674 194.065 98.2504L197.908 96.3977C198.178 96.8541 198.495 97.2072 198.859 97.457C199.218 97.6986 199.612 97.8327 200.039 97.8592C200.463 97.8775 200.896 97.7798 201.34 97.566C201.767 97.3602 202.088 97.1039 202.305 96.7972C202.517 96.4823 202.638 96.1354 202.668 95.7568C202.706 95.3741 202.671 94.9659 202.563 94.5323C202.456 94.0986 202.293 93.656 202.075 93.2044C201.849 92.7365 201.594 92.3435 201.309 92.0255C201.02 91.6993 200.702 91.4583 200.353 91.3024C200.001 91.1384 199.619 91.0697 199.207 91.0964C198.799 91.1109 198.357 91.233 197.881 91.4626C197.257 91.7635 196.818 92.1016 196.564 92.4771C196.31 92.8526 196.142 93.2069 196.059 93.54ZM204.525 82.7343L204.067 81.786C203.739 81.1046 203.588 80.4135 203.614 79.7127C203.64 79.0119 203.864 78.3526 204.285 77.735C204.713 77.1133 205.355 76.5967 206.209 76.185C207.095 75.7574 207.911 75.5714 208.656 75.627C209.402 75.6825 210.052 75.9201 210.609 76.3399C211.174 76.7556 211.62 77.3042 211.949 77.9857L212.406 78.9339C212.727 79.599 212.874 80.2819 212.848 80.9826C212.829 81.6795 212.61 82.3367 212.189 82.9544C211.777 83.5681 211.132 84.0868 210.253 84.5104C209.391 84.926 208.583 85.1081 207.83 85.0565C207.085 85.0009 206.426 84.7672 205.853 84.3554C205.288 83.9397 204.845 83.3993 204.525 82.7343ZM206.58 80.5747L207.037 81.5229C207.167 81.7938 207.344 82.0226 207.565 82.2092C207.787 82.3959 208.04 82.5116 208.324 82.5565C208.609 82.6013 208.912 82.5466 209.232 82.3922C209.56 82.2338 209.791 82.0313 209.925 81.7845C210.059 81.5378 210.118 81.2716 210.102 80.986C210.094 80.6965 210.025 80.4162 209.894 80.1453L209.437 79.197C209.302 78.9179 209.124 78.685 208.903 78.4984C208.685 78.2996 208.434 78.1778 208.15 78.1329C207.865 78.088 207.558 78.1448 207.23 78.3031C206.918 78.4536 206.691 78.6541 206.549 78.9048C206.415 79.1516 206.354 79.4238 206.366 79.7216C206.374 80.0112 206.445 80.2955 206.58 80.5747ZM217.934 88.6993L217.477 87.751C217.153 87.0778 217.003 86.3908 217.03 85.69C217.064 84.9853 217.292 84.3241 217.713 83.7064C218.141 83.0847 218.787 82.5661 219.649 82.1504C220.527 81.7269 221.339 81.5428 222.084 81.5984C222.83 81.6539 223.481 81.8916 224.037 82.3113C224.602 82.7271 225.047 83.2716 225.371 83.9448L225.828 84.893C226.153 85.5663 226.302 86.2533 226.276 86.9541C226.258 87.6509 226.038 88.3082 225.618 88.9258C225.205 89.5396 224.564 90.0562 223.694 90.4758C222.823 90.8955 222.011 91.0795 221.258 91.0279C220.505 90.9763 219.841 90.7446 219.268 90.3328C218.704 89.917 218.259 89.3725 217.934 88.6993ZM220.002 86.5338L220.459 87.482C220.594 87.7612 220.78 87.9901 221.018 88.1688C221.256 88.3475 221.521 88.4573 221.814 88.4982C222.107 88.5391 222.393 88.4923 222.672 88.3577C223.058 88.1716 223.314 87.9572 223.44 87.7144C223.574 87.4676 223.62 87.2074 223.579 86.9337C223.538 86.66 223.451 86.3835 223.316 86.1044L222.859 85.1561C222.724 84.877 222.546 84.6441 222.325 84.4575C222.111 84.2669 221.862 84.1492 221.578 84.1043C221.293 84.0595 220.99 84.1142 220.67 84.2686C220.35 84.423 220.119 84.6256 219.977 84.8763C219.834 85.127 219.767 85.3971 219.775 85.6867C219.792 85.9722 219.867 86.2546 220.002 86.5338ZM217.106 74.4214L215.108 92.6578L212.815 92.5943L214.814 74.3579L217.106 74.4214Z" fill="#3F51B5"/>
<path d="M44.7929 376.707C45.1834 377.098 45.8166 377.098 46.2071 376.707L52.5711 370.343C52.9616 369.953 52.9616 369.319 52.5711 368.929C52.1805 368.538 51.5474 368.538 51.1569 368.929L45.5 374.586L39.8431 368.929C39.4526 368.538 38.8195 368.538 38.4289 368.929C38.0384 369.319 38.0384 369.953 38.4289 370.343L44.7929 376.707ZM45.5 359L44.5 359L44.5 376L45.5 376L46.5 376L46.5 359L45.5 359Z" fill="#3F51B5"/>
<path d="M69.2266 373.25V375.5H57.7891V373.566L63.3438 367.508C63.9531 366.82 64.4336 366.227 64.7852 365.727C65.1367 365.227 65.3828 364.777 65.5234 364.379C65.6719 363.973 65.7461 363.578 65.7461 363.195C65.7461 362.656 65.6445 362.184 65.4414 361.777C65.2461 361.363 64.957 361.039 64.5742 360.805C64.1914 360.562 63.7266 360.441 63.1797 360.441C62.5469 360.441 62.0156 360.578 61.5859 360.852C61.1562 361.125 60.832 361.504 60.6133 361.988C60.3945 362.465 60.2852 363.012 60.2852 363.629H57.4609C57.4609 362.637 57.6875 361.73 58.1406 360.91C58.5938 360.082 59.25 359.426 60.1094 358.941C60.9688 358.449 62.0039 358.203 63.2148 358.203C64.3555 358.203 65.3242 358.395 66.1211 358.777C66.918 359.16 67.5234 359.703 67.9375 360.406C68.3594 361.109 68.5703 361.941 68.5703 362.902C68.5703 363.434 68.4844 363.961 68.3125 364.484C68.1406 365.008 67.8945 365.531 67.5742 366.055C67.2617 366.57 66.8906 367.09 66.4609 367.613C66.0312 368.129 65.5586 368.652 65.043 369.184L61.3516 373.25H69.2266ZM74.3945 367.566L72.1445 367.016L73.0703 358.438H82.2695V360.828H75.4141L74.9453 365.012C75.2109 364.855 75.5781 364.703 76.0469 364.555C76.5156 364.398 77.0508 364.32 77.6523 364.32C78.457 364.32 79.1758 364.453 79.8086 364.719C80.4492 364.977 80.9922 365.355 81.4375 365.855C81.8828 366.348 82.2227 366.949 82.457 367.66C82.6914 368.363 82.8086 369.156 82.8086 370.039C82.8086 370.828 82.6914 371.566 82.457 372.254C82.2305 372.941 81.8867 373.547 81.4258 374.07C80.9648 374.594 80.3828 375.004 79.6797 375.301C78.9844 375.59 78.1602 375.734 77.207 375.734C76.4961 375.734 75.8125 375.633 75.1562 375.43C74.5078 375.219 73.9258 374.91 73.4102 374.504C72.8945 374.09 72.4805 373.582 72.168 372.98C71.8555 372.371 71.6758 371.672 71.6289 370.883H74.3945C74.4648 371.438 74.6172 371.91 74.8516 372.301C75.0938 372.684 75.4141 372.977 75.8125 373.18C76.2109 373.383 76.6719 373.484 77.1953 373.484C77.6719 373.484 78.082 373.402 78.4258 373.238C78.7695 373.066 79.0547 372.824 79.2812 372.512C79.5156 372.191 79.6875 371.816 79.7969 371.387C79.9141 370.957 79.9727 370.48 79.9727 369.957C79.9727 369.457 79.9062 369 79.7734 368.586C79.6484 368.172 79.457 367.812 79.1992 367.508C78.9492 367.203 78.6328 366.969 78.25 366.805C77.8672 366.633 77.4258 366.547 76.9258 366.547C76.2539 366.547 75.7383 366.645 75.3789 366.84C75.0273 367.035 74.6992 367.277 74.3945 367.566ZM84.9531 362.621V361.719C84.9531 361.07 85.0938 360.48 85.375 359.949C85.6562 359.418 86.0664 358.992 86.6055 358.672C87.1445 358.352 87.793 358.191 88.5508 358.191C89.332 358.191 89.9883 358.352 90.5195 358.672C91.0586 358.992 91.4688 359.418 91.75 359.949C92.0312 360.48 92.1719 361.07 92.1719 361.719V362.621C92.1719 363.254 92.0312 363.836 91.75 364.367C91.4766 364.898 91.0703 365.324 90.5312 365.645C90 365.965 89.3477 366.125 88.5742 366.125C87.8086 366.125 87.1523 365.965 86.6055 365.645C86.0664 365.324 85.6562 364.898 85.375 364.367C85.0938 363.836 84.9531 363.254 84.9531 362.621ZM86.9102 361.719V362.621C86.9102 362.934 86.9688 363.23 87.0859 363.512C87.2109 363.793 87.3984 364.02 87.6484 364.191C87.8984 364.363 88.207 364.449 88.5742 364.449C88.9492 364.449 89.2539 364.363 89.4883 364.191C89.7305 364.02 89.9102 363.793 90.0273 363.512C90.1445 363.23 90.2031 362.934 90.2031 362.621V361.719C90.2031 361.398 90.1406 361.098 90.0156 360.816C89.8984 360.527 89.7188 360.297 89.4766 360.125C89.2344 359.953 88.9258 359.867 88.5508 359.867C88.1914 359.867 87.8867 359.953 87.6367 360.125C87.3945 360.297 87.2109 360.527 87.0859 360.816C86.9688 361.098 86.9102 361.398 86.9102 361.719ZM93.1797 372.23V371.316C93.1797 370.676 93.3203 370.09 93.6016 369.559C93.8906 369.027 94.3047 368.602 94.8438 368.281C95.3828 367.961 96.0312 367.801 96.7891 367.801C97.5703 367.801 98.2266 367.961 98.7578 368.281C99.2969 368.602 99.7031 369.027 99.9766 369.559C100.258 370.09 100.398 370.676 100.398 371.316V372.23C100.398 372.871 100.258 373.457 99.9766 373.988C99.7031 374.52 99.3008 374.945 98.7695 375.266C98.2383 375.586 97.5859 375.746 96.8125 375.746C96.0469 375.746 95.3906 375.586 94.8438 375.266C94.3047 374.945 93.8906 374.52 93.6016 373.988C93.3203 373.457 93.1797 372.871 93.1797 372.23ZM95.1484 371.316V372.23C95.1484 372.543 95.2109 372.84 95.3359 373.121C95.4688 373.402 95.6602 373.633 95.9102 373.812C96.1602 373.984 96.4609 374.07 96.8125 374.07C97.2109 374.07 97.5312 373.984 97.7734 373.812C98.0156 373.633 98.1875 373.406 98.2891 373.133C98.3984 372.852 98.4531 372.551 98.4531 372.23V371.316C98.4531 370.996 98.3906 370.695 98.2656 370.414C98.1484 370.133 97.9648 369.906 97.7148 369.734C97.4727 369.562 97.1641 369.477 96.7891 369.477C96.4219 369.477 96.1172 369.562 95.875 369.734C95.6328 369.906 95.4492 370.133 95.3242 370.414C95.207 370.695 95.1484 370.996 95.1484 371.316ZM97.4922 360.875L89.1602 374.211L87.7188 373.379L96.0508 360.043L97.4922 360.875ZM112.703 375.5H109.879V361.602C109.879 360.656 110.055 359.863 110.406 359.223C110.766 358.574 111.277 358.086 111.941 357.758C112.605 357.422 113.391 357.254 114.297 357.254C114.578 357.254 114.855 357.273 115.129 357.312C115.402 357.344 115.668 357.395 115.926 357.465L115.855 359.645C115.699 359.605 115.527 359.578 115.34 359.562C115.16 359.547 114.965 359.539 114.754 359.539C114.324 359.539 113.953 359.621 113.641 359.785C113.336 359.941 113.102 360.172 112.938 360.477C112.781 360.781 112.703 361.156 112.703 361.602V375.5ZM115.316 362.82V364.883H107.934V362.82H115.316ZM124.516 372.957V366.91C124.516 366.457 124.434 366.066 124.27 365.738C124.105 365.41 123.855 365.156 123.52 364.977C123.191 364.797 122.777 364.707 122.277 364.707C121.816 364.707 121.418 364.785 121.082 364.941C120.746 365.098 120.484 365.309 120.297 365.574C120.109 365.84 120.016 366.141 120.016 366.477H117.203C117.203 365.977 117.324 365.492 117.566 365.023C117.809 364.555 118.16 364.137 118.621 363.77C119.082 363.402 119.633 363.113 120.273 362.902C120.914 362.691 121.633 362.586 122.43 362.586C123.383 362.586 124.227 362.746 124.961 363.066C125.703 363.387 126.285 363.871 126.707 364.52C127.137 365.16 127.352 365.965 127.352 366.934V372.57C127.352 373.148 127.391 373.668 127.469 374.129C127.555 374.582 127.676 374.977 127.832 375.312V375.5H124.938C124.805 375.195 124.699 374.809 124.621 374.34C124.551 373.863 124.516 373.402 124.516 372.957ZM124.926 367.789L124.949 369.535H122.922C122.398 369.535 121.938 369.586 121.539 369.688C121.141 369.781 120.809 369.922 120.543 370.109C120.277 370.297 120.078 370.523 119.945 370.789C119.812 371.055 119.746 371.355 119.746 371.691C119.746 372.027 119.824 372.336 119.98 372.617C120.137 372.891 120.363 373.105 120.66 373.262C120.965 373.418 121.332 373.496 121.762 373.496C122.34 373.496 122.844 373.379 123.273 373.145C123.711 372.902 124.055 372.609 124.305 372.266C124.555 371.914 124.688 371.582 124.703 371.27L125.617 372.523C125.523 372.844 125.363 373.188 125.137 373.555C124.91 373.922 124.613 374.273 124.246 374.609C123.887 374.938 123.453 375.207 122.945 375.418C122.445 375.629 121.867 375.734 121.211 375.734C120.383 375.734 119.645 375.57 118.996 375.242C118.348 374.906 117.84 374.457 117.473 373.895C117.105 373.324 116.922 372.68 116.922 371.961C116.922 371.289 117.047 370.695 117.297 370.18C117.555 369.656 117.93 369.219 118.422 368.867C118.922 368.516 119.531 368.25 120.25 368.07C120.969 367.883 121.789 367.789 122.711 367.789H124.926ZM137.418 372.066C137.418 371.785 137.348 371.531 137.207 371.305C137.066 371.07 136.797 370.859 136.398 370.672C136.008 370.484 135.43 370.312 134.664 370.156C133.992 370.008 133.375 369.832 132.812 369.629C132.258 369.418 131.781 369.164 131.383 368.867C130.984 368.57 130.676 368.219 130.457 367.812C130.238 367.406 130.129 366.938 130.129 366.406C130.129 365.891 130.242 365.402 130.469 364.941C130.695 364.48 131.02 364.074 131.441 363.723C131.863 363.371 132.375 363.094 132.977 362.891C133.586 362.688 134.266 362.586 135.016 362.586C136.078 362.586 136.988 362.766 137.746 363.125C138.512 363.477 139.098 363.957 139.504 364.566C139.91 365.168 140.113 365.848 140.113 366.605H137.289C137.289 366.27 137.203 365.957 137.031 365.668C136.867 365.371 136.617 365.133 136.281 364.953C135.945 364.766 135.523 364.672 135.016 364.672C134.531 364.672 134.129 364.75 133.809 364.906C133.496 365.055 133.262 365.25 133.105 365.492C132.957 365.734 132.883 366 132.883 366.289C132.883 366.5 132.922 366.691 133 366.863C133.086 367.027 133.227 367.18 133.422 367.32C133.617 367.453 133.883 367.578 134.219 367.695C134.562 367.812 134.992 367.926 135.508 368.035C136.477 368.238 137.309 368.5 138.004 368.82C138.707 369.133 139.246 369.539 139.621 370.039C139.996 370.531 140.184 371.156 140.184 371.914C140.184 372.477 140.062 372.992 139.82 373.461C139.586 373.922 139.242 374.324 138.789 374.668C138.336 375.004 137.793 375.266 137.16 375.453C136.535 375.641 135.832 375.734 135.051 375.734C133.902 375.734 132.93 375.531 132.133 375.125C131.336 374.711 130.73 374.184 130.316 373.543C129.91 372.895 129.707 372.223 129.707 371.527H132.438C132.469 372.051 132.613 372.469 132.871 372.781C133.137 373.086 133.465 373.309 133.855 373.449C134.254 373.582 134.664 373.648 135.086 373.648C135.594 373.648 136.02 373.582 136.363 373.449C136.707 373.309 136.969 373.121 137.148 372.887C137.328 372.645 137.418 372.371 137.418 372.066ZM148.469 362.82V364.883H141.32V362.82H148.469ZM143.383 359.715H146.207V371.996C146.207 372.387 146.262 372.688 146.371 372.898C146.488 373.102 146.648 373.238 146.852 373.309C147.055 373.379 147.293 373.414 147.566 373.414C147.762 373.414 147.949 373.402 148.129 373.379C148.309 373.355 148.453 373.332 148.562 373.309L148.574 375.465C148.34 375.535 148.066 375.598 147.754 375.652C147.449 375.707 147.098 375.734 146.699 375.734C146.051 375.734 145.477 375.621 144.977 375.395C144.477 375.16 144.086 374.781 143.805 374.258C143.523 373.734 143.383 373.039 143.383 372.172V359.715ZM156.238 375.734C155.301 375.734 154.453 375.582 153.695 375.277C152.945 374.965 152.305 374.531 151.773 373.977C151.25 373.422 150.848 372.77 150.566 372.02C150.285 371.27 150.145 370.461 150.145 369.594V369.125C150.145 368.133 150.289 367.234 150.578 366.43C150.867 365.625 151.27 364.938 151.785 364.367C152.301 363.789 152.91 363.348 153.613 363.043C154.316 362.738 155.078 362.586 155.898 362.586C156.805 362.586 157.598 362.738 158.277 363.043C158.957 363.348 159.52 363.777 159.965 364.332C160.418 364.879 160.754 365.531 160.973 366.289C161.199 367.047 161.312 367.883 161.312 368.797V370.004H151.516V367.977H158.523V367.754C158.508 367.246 158.406 366.77 158.219 366.324C158.039 365.879 157.762 365.52 157.387 365.246C157.012 364.973 156.512 364.836 155.887 364.836C155.418 364.836 155 364.938 154.633 365.141C154.273 365.336 153.973 365.621 153.73 365.996C153.488 366.371 153.301 366.824 153.168 367.355C153.043 367.879 152.98 368.469 152.98 369.125V369.594C152.98 370.148 153.055 370.664 153.203 371.141C153.359 371.609 153.586 372.02 153.883 372.371C154.18 372.723 154.539 373 154.961 373.203C155.383 373.398 155.863 373.496 156.402 373.496C157.082 373.496 157.688 373.359 158.219 373.086C158.75 372.812 159.211 372.426 159.602 371.926L161.09 373.367C160.816 373.766 160.461 374.148 160.023 374.516C159.586 374.875 159.051 375.168 158.418 375.395C157.793 375.621 157.066 375.734 156.238 375.734ZM166.352 365.234V375.5H163.527V362.82H166.223L166.352 365.234ZM170.23 362.738L170.207 365.363C170.035 365.332 169.848 365.309 169.645 365.293C169.449 365.277 169.254 365.27 169.059 365.27C168.574 365.27 168.148 365.34 167.781 365.48C167.414 365.613 167.105 365.809 166.855 366.066C166.613 366.316 166.426 366.621 166.293 366.98C166.16 367.34 166.082 367.742 166.059 368.188L165.414 368.234C165.414 367.438 165.492 366.699 165.648 366.02C165.805 365.34 166.039 364.742 166.352 364.227C166.672 363.711 167.07 363.309 167.547 363.02C168.031 362.73 168.59 362.586 169.223 362.586C169.395 362.586 169.578 362.602 169.773 362.633C169.977 362.664 170.129 362.699 170.23 362.738ZM185.09 372.066C185.09 371.785 185.02 371.531 184.879 371.305C184.738 371.07 184.469 370.859 184.07 370.672C183.68 370.484 183.102 370.312 182.336 370.156C181.664 370.008 181.047 369.832 180.484 369.629C179.93 369.418 179.453 369.164 179.055 368.867C178.656 368.57 178.348 368.219 178.129 367.812C177.91 367.406 177.801 366.938 177.801 366.406C177.801 365.891 177.914 365.402 178.141 364.941C178.367 364.48 178.691 364.074 179.113 363.723C179.535 363.371 180.047 363.094 180.648 362.891C181.258 362.688 181.938 362.586 182.688 362.586C183.75 362.586 184.66 362.766 185.418 363.125C186.184 363.477 186.77 363.957 187.176 364.566C187.582 365.168 187.785 365.848 187.785 366.605H184.961C184.961 366.27 184.875 365.957 184.703 365.668C184.539 365.371 184.289 365.133 183.953 364.953C183.617 364.766 183.195 364.672 182.688 364.672C182.203 364.672 181.801 364.75 181.48 364.906C181.168 365.055 180.934 365.25 180.777 365.492C180.629 365.734 180.555 366 180.555 366.289C180.555 366.5 180.594 366.691 180.672 366.863C180.758 367.027 180.898 367.18 181.094 367.32C181.289 367.453 181.555 367.578 181.891 367.695C182.234 367.812 182.664 367.926 183.18 368.035C184.148 368.238 184.98 368.5 185.676 368.82C186.379 369.133 186.918 369.539 187.293 370.039C187.668 370.531 187.855 371.156 187.855 371.914C187.855 372.477 187.734 372.992 187.492 373.461C187.258 373.922 186.914 374.324 186.461 374.668C186.008 375.004 185.465 375.266 184.832 375.453C184.207 375.641 183.504 375.734 182.723 375.734C181.574 375.734 180.602 375.531 179.805 375.125C179.008 374.711 178.402 374.184 177.988 373.543C177.582 372.895 177.379 372.223 177.379 371.527H180.109C180.141 372.051 180.285 372.469 180.543 372.781C180.809 373.086 181.137 373.309 181.527 373.449C181.926 373.582 182.336 373.648 182.758 373.648C183.266 373.648 183.691 373.582 184.035 373.449C184.379 373.309 184.641 373.121 184.82 372.887C185 372.645 185.09 372.371 185.09 372.066ZM195.918 375.734C194.98 375.734 194.133 375.582 193.375 375.277C192.625 374.965 191.984 374.531 191.453 373.977C190.93 373.422 190.527 372.77 190.246 372.02C189.965 371.27 189.824 370.461 189.824 369.594V369.125C189.824 368.133 189.969 367.234 190.258 366.43C190.547 365.625 190.949 364.938 191.465 364.367C191.98 363.789 192.59 363.348 193.293 363.043C193.996 362.738 194.758 362.586 195.578 362.586C196.484 362.586 197.277 362.738 197.957 363.043C198.637 363.348 199.199 363.777 199.645 364.332C200.098 364.879 200.434 365.531 200.652 366.289C200.879 367.047 200.992 367.883 200.992 368.797V370.004H191.195V367.977H198.203V367.754C198.188 367.246 198.086 366.77 197.898 366.324C197.719 365.879 197.441 365.52 197.066 365.246C196.691 364.973 196.191 364.836 195.566 364.836C195.098 364.836 194.68 364.938 194.312 365.141C193.953 365.336 193.652 365.621 193.41 365.996C193.168 366.371 192.98 366.824 192.848 367.355C192.723 367.879 192.66 368.469 192.66 369.125V369.594C192.66 370.148 192.734 370.664 192.883 371.141C193.039 371.609 193.266 372.02 193.562 372.371C193.859 372.723 194.219 373 194.641 373.203C195.062 373.398 195.543 373.496 196.082 373.496C196.762 373.496 197.367 373.359 197.898 373.086C198.43 372.812 198.891 372.426 199.281 371.926L200.77 373.367C200.496 373.766 200.141 374.148 199.703 374.516C199.266 374.875 198.73 375.168 198.098 375.395C197.473 375.621 196.746 375.734 195.918 375.734ZM206.031 365.234V375.5H203.207V362.82H205.902L206.031 365.234ZM209.91 362.738L209.887 365.363C209.715 365.332 209.527 365.309 209.324 365.293C209.129 365.277 208.934 365.27 208.738 365.27C208.254 365.27 207.828 365.34 207.461 365.48C207.094 365.613 206.785 365.809 206.535 366.066C206.293 366.316 206.105 366.621 205.973 366.98C205.84 367.34 205.762 367.742 205.738 368.188L205.094 368.234C205.094 367.438 205.172 366.699 205.328 366.02C205.484 365.34 205.719 364.742 206.031 364.227C206.352 363.711 206.75 363.309 207.227 363.02C207.711 362.73 208.27 362.586 208.902 362.586C209.074 362.586 209.258 362.602 209.453 362.633C209.656 362.664 209.809 362.699 209.91 362.738ZM216.016 373.262L219.121 362.82H222.051L217.645 375.5H215.816L216.016 373.262ZM213.637 362.82L216.801 373.309L216.953 375.5H215.125L210.695 362.82H213.637ZM226.82 362.82V375.5H223.984V362.82H226.82ZM223.797 359.492C223.797 359.062 223.938 358.707 224.219 358.426C224.508 358.137 224.906 357.992 225.414 357.992C225.914 357.992 226.309 358.137 226.598 358.426C226.887 358.707 227.031 359.062 227.031 359.492C227.031 359.914 226.887 360.266 226.598 360.547C226.309 360.828 225.914 360.969 225.414 360.969C224.906 360.969 224.508 360.828 224.219 360.547C223.938 360.266 223.797 359.914 223.797 359.492ZM235.094 373.484C235.555 373.484 235.969 373.395 236.336 373.215C236.711 373.027 237.012 372.77 237.238 372.441C237.473 372.113 237.602 371.734 237.625 371.305H240.285C240.27 372.125 240.027 372.871 239.559 373.543C239.09 374.215 238.469 374.75 237.695 375.148C236.922 375.539 236.066 375.734 235.129 375.734C234.16 375.734 233.316 375.57 232.598 375.242C231.879 374.906 231.281 374.445 230.805 373.859C230.328 373.273 229.969 372.598 229.727 371.832C229.492 371.066 229.375 370.246 229.375 369.371V368.961C229.375 368.086 229.492 367.266 229.727 366.5C229.969 365.727 230.328 365.047 230.805 364.461C231.281 363.875 231.879 363.418 232.598 363.09C233.316 362.754 234.156 362.586 235.117 362.586C236.133 362.586 237.023 362.789 237.789 363.195C238.555 363.594 239.156 364.152 239.594 364.871C240.039 365.582 240.27 366.41 240.285 367.355H237.625C237.602 366.887 237.484 366.465 237.273 366.09C237.07 365.707 236.781 365.402 236.406 365.176C236.039 364.949 235.598 364.836 235.082 364.836C234.512 364.836 234.039 364.953 233.664 365.188C233.289 365.414 232.996 365.727 232.785 366.125C232.574 366.516 232.422 366.957 232.328 367.449C232.242 367.934 232.199 368.438 232.199 368.961V369.371C232.199 369.895 232.242 370.402 232.328 370.895C232.414 371.387 232.562 371.828 232.773 372.219C232.992 372.602 233.289 372.91 233.664 373.145C234.039 373.371 234.516 373.484 235.094 373.484ZM248.043 375.734C247.105 375.734 246.258 375.582 245.5 375.277C244.75 374.965 244.109 374.531 243.578 373.977C243.055 373.422 242.652 372.77 242.371 372.02C242.09 371.27 241.949 370.461 241.949 369.594V369.125C241.949 368.133 242.094 367.234 242.383 366.43C242.672 365.625 243.074 364.938 243.59 364.367C244.105 363.789 244.715 363.348 245.418 363.043C246.121 362.738 246.883 362.586 247.703 362.586C248.609 362.586 249.402 362.738 250.082 363.043C250.762 363.348 251.324 363.777 251.77 364.332C252.223 364.879 252.559 365.531 252.777 366.289C253.004 367.047 253.117 367.883 253.117 368.797V370.004H243.32V367.977H250.328V367.754C250.312 367.246 250.211 366.77 250.023 366.324C249.844 365.879 249.566 365.52 249.191 365.246C248.816 364.973 248.316 364.836 247.691 364.836C247.223 364.836 246.805 364.938 246.438 365.141C246.078 365.336 245.777 365.621 245.535 365.996C245.293 366.371 245.105 366.824 244.973 367.355C244.848 367.879 244.785 368.469 244.785 369.125V369.594C244.785 370.148 244.859 370.664 245.008 371.141C245.164 371.609 245.391 372.02 245.688 372.371C245.984 372.723 246.344 373 246.766 373.203C247.188 373.398 247.668 373.496 248.207 373.496C248.887 373.496 249.492 373.359 250.023 373.086C250.555 372.812 251.016 372.426 251.406 371.926L252.895 373.367C252.621 373.766 252.266 374.148 251.828 374.516C251.391 374.875 250.855 375.168 250.223 375.395C249.598 375.621 248.871 375.734 248.043 375.734ZM266.477 373.484C266.938 373.484 267.352 373.395 267.719 373.215C268.094 373.027 268.395 372.77 268.621 372.441C268.855 372.113 268.984 371.734 269.008 371.305H271.668C271.652 372.125 271.41 372.871 270.941 373.543C270.473 374.215 269.852 374.75 269.078 375.148C268.305 375.539 267.449 375.734 266.512 375.734C265.543 375.734 264.699 375.57 263.98 375.242C263.262 374.906 262.664 374.445 262.188 373.859C261.711 373.273 261.352 372.598 261.109 371.832C260.875 371.066 260.758 370.246 260.758 369.371V368.961C260.758 368.086 260.875 367.266 261.109 366.5C261.352 365.727 261.711 365.047 262.188 364.461C262.664 363.875 263.262 363.418 263.98 363.09C264.699 362.754 265.539 362.586 266.5 362.586C267.516 362.586 268.406 362.789 269.172 363.195C269.938 363.594 270.539 364.152 270.977 364.871C271.422 365.582 271.652 366.41 271.668 367.355H269.008C268.984 366.887 268.867 366.465 268.656 366.09C268.453 365.707 268.164 365.402 267.789 365.176C267.422 364.949 266.98 364.836 266.465 364.836C265.895 364.836 265.422 364.953 265.047 365.188C264.672 365.414 264.379 365.727 264.168 366.125C263.957 366.516 263.805 366.957 263.711 367.449C263.625 367.934 263.582 368.438 263.582 368.961V369.371C263.582 369.895 263.625 370.402 263.711 370.895C263.797 371.387 263.945 371.828 264.156 372.219C264.375 372.602 264.672 372.91 265.047 373.145C265.422 373.371 265.898 373.484 266.477 373.484ZM276.859 357.5V375.5H274.023V357.5H276.859ZM279.414 369.301V369.031C279.414 368.117 279.547 367.27 279.812 366.488C280.078 365.699 280.461 365.016 280.961 364.438C281.469 363.852 282.086 363.398 282.812 363.078C283.547 362.75 284.375 362.586 285.297 362.586C286.227 362.586 287.055 362.75 287.781 363.078C288.516 363.398 289.137 363.852 289.645 364.438C290.152 365.016 290.539 365.699 290.805 366.488C291.07 367.27 291.203 368.117 291.203 369.031V369.301C291.203 370.215 291.07 371.062 290.805 371.844C290.539 372.625 290.152 373.309 289.645 373.895C289.137 374.473 288.52 374.926 287.793 375.254C287.066 375.574 286.242 375.734 285.32 375.734C284.391 375.734 283.559 375.574 282.824 375.254C282.098 374.926 281.48 374.473 280.973 373.895C280.465 373.309 280.078 372.625 279.812 371.844C279.547 371.062 279.414 370.215 279.414 369.301ZM282.238 369.031V369.301C282.238 369.871 282.297 370.41 282.414 370.918C282.531 371.426 282.715 371.871 282.965 372.254C283.215 372.637 283.535 372.938 283.926 373.156C284.316 373.375 284.781 373.484 285.32 373.484C285.844 373.484 286.297 373.375 286.68 373.156C287.07 372.938 287.391 372.637 287.641 372.254C287.891 371.871 288.074 371.426 288.191 370.918C288.316 370.41 288.379 369.871 288.379 369.301V369.031C288.379 368.469 288.316 367.938 288.191 367.438C288.074 366.93 287.887 366.48 287.629 366.09C287.379 365.699 287.059 365.395 286.668 365.176C286.285 364.949 285.828 364.836 285.297 364.836C284.766 364.836 284.305 364.949 283.914 365.176C283.531 365.395 283.215 365.699 282.965 366.09C282.715 366.48 282.531 366.93 282.414 367.438C282.297 367.938 282.238 368.469 282.238 369.031ZM300.684 372.066C300.684 371.785 300.613 371.531 300.473 371.305C300.332 371.07 300.062 370.859 299.664 370.672C299.273 370.484 298.695 370.312 297.93 370.156C297.258 370.008 296.641 369.832 296.078 369.629C295.523 369.418 295.047 369.164 294.648 368.867C294.25 368.57 293.941 368.219 293.723 367.812C293.504 367.406 293.395 366.938 293.395 366.406C293.395 365.891 293.508 365.402 293.734 364.941C293.961 364.48 294.285 364.074 294.707 363.723C295.129 363.371 295.641 363.094 296.242 362.891C296.852 362.688 297.531 362.586 298.281 362.586C299.344 362.586 300.254 362.766 301.012 363.125C301.777 363.477 302.363 363.957 302.77 364.566C303.176 365.168 303.379 365.848 303.379 366.605H300.555C300.555 366.27 300.469 365.957 300.297 365.668C300.133 365.371 299.883 365.133 299.547 364.953C299.211 364.766 298.789 364.672 298.281 364.672C297.797 364.672 297.395 364.75 297.074 364.906C296.762 365.055 296.527 365.25 296.371 365.492C296.223 365.734 296.148 366 296.148 366.289C296.148 366.5 296.188 366.691 296.266 366.863C296.352 367.027 296.492 367.18 296.688 367.32C296.883 367.453 297.148 367.578 297.484 367.695C297.828 367.812 298.258 367.926 298.773 368.035C299.742 368.238 300.574 368.5 301.27 368.82C301.973 369.133 302.512 369.539 302.887 370.039C303.262 370.531 303.449 371.156 303.449 371.914C303.449 372.477 303.328 372.992 303.086 373.461C302.852 373.922 302.508 374.324 302.055 374.668C301.602 375.004 301.059 375.266 300.426 375.453C299.801 375.641 299.098 375.734 298.316 375.734C297.168 375.734 296.195 375.531 295.398 375.125C294.602 374.711 293.996 374.184 293.582 373.543C293.176 372.895 292.973 372.223 292.973 371.527H295.703C295.734 372.051 295.879 372.469 296.137 372.781C296.402 373.086 296.73 373.309 297.121 373.449C297.52 373.582 297.93 373.648 298.352 373.648C298.859 373.648 299.285 373.582 299.629 373.449C299.973 373.309 300.234 373.121 300.414 372.887C300.594 372.645 300.684 372.371 300.684 372.066ZM313.551 372.512V362.82H316.387V375.5H313.715L313.551 372.512ZM313.949 369.875L314.898 369.852C314.898 370.703 314.805 371.488 314.617 372.207C314.43 372.918 314.141 373.539 313.75 374.07C313.359 374.594 312.859 375.004 312.25 375.301C311.641 375.59 310.91 375.734 310.059 375.734C309.441 375.734 308.875 375.645 308.359 375.465C307.844 375.285 307.398 375.008 307.023 374.633C306.656 374.258 306.371 373.77 306.168 373.168C305.965 372.566 305.863 371.848 305.863 371.012V362.82H308.688V371.035C308.688 371.496 308.742 371.883 308.852 372.195C308.961 372.5 309.109 372.746 309.297 372.934C309.484 373.121 309.703 373.254 309.953 373.332C310.203 373.41 310.469 373.449 310.75 373.449C311.555 373.449 312.188 373.293 312.648 372.98C313.117 372.66 313.449 372.23 313.645 371.691C313.848 371.152 313.949 370.547 313.949 369.875ZM322.117 365.234V375.5H319.293V362.82H321.988L322.117 365.234ZM325.996 362.738L325.973 365.363C325.801 365.332 325.613 365.309 325.41 365.293C325.215 365.277 325.02 365.27 324.824 365.27C324.34 365.27 323.914 365.34 323.547 365.48C323.18 365.613 322.871 365.809 322.621 366.066C322.379 366.316 322.191 366.621 322.059 366.98C321.926 367.34 321.848 367.742 321.824 368.188L321.18 368.234C321.18 367.438 321.258 366.699 321.414 366.02C321.57 365.34 321.805 364.742 322.117 364.227C322.438 363.711 322.836 363.309 323.312 363.02C323.797 362.73 324.355 362.586 324.988 362.586C325.16 362.586 325.344 362.602 325.539 362.633C325.742 362.664 325.895 362.699 325.996 362.738ZM333.121 375.734C332.184 375.734 331.336 375.582 330.578 375.277C329.828 374.965 329.188 374.531 328.656 373.977C328.133 373.422 327.73 372.77 327.449 372.02C327.168 371.27 327.027 370.461 327.027 369.594V369.125C327.027 368.133 327.172 367.234 327.461 366.43C327.75 365.625 328.152 364.938 328.668 364.367C329.184 363.789 329.793 363.348 330.496 363.043C331.199 362.738 331.961 362.586 332.781 362.586C333.688 362.586 334.48 362.738 335.16 363.043C335.84 363.348 336.402 363.777 336.848 364.332C337.301 364.879 337.637 365.531 337.855 366.289C338.082 367.047 338.195 367.883 338.195 368.797V370.004H328.398V367.977H335.406V367.754C335.391 367.246 335.289 366.77 335.102 366.324C334.922 365.879 334.645 365.52 334.27 365.246C333.895 364.973 333.395 364.836 332.77 364.836C332.301 364.836 331.883 364.938 331.516 365.141C331.156 365.336 330.855 365.621 330.613 365.996C330.371 366.371 330.184 366.824 330.051 367.355C329.926 367.879 329.863 368.469 329.863 369.125V369.594C329.863 370.148 329.938 370.664 330.086 371.141C330.242 371.609 330.469 372.02 330.766 372.371C331.062 372.723 331.422 373 331.844 373.203C332.266 373.398 332.746 373.496 333.285 373.496C333.965 373.496 334.57 373.359 335.102 373.086C335.633 372.812 336.094 372.426 336.484 371.926L337.973 373.367C337.699 373.766 337.344 374.148 336.906 374.516C336.469 374.875 335.934 375.168 335.301 375.395C334.676 375.621 333.949 375.734 333.121 375.734ZM352.188 362.82V364.883H345.039V362.82H352.188ZM347.102 359.715H349.926V371.996C349.926 372.387 349.98 372.688 350.09 372.898C350.207 373.102 350.367 373.238 350.57 373.309C350.773 373.379 351.012 373.414 351.285 373.414C351.48 373.414 351.668 373.402 351.848 373.379C352.027 373.355 352.172 373.332 352.281 373.309L352.293 375.465C352.059 375.535 351.785 375.598 351.473 375.652C351.168 375.707 350.816 375.734 350.418 375.734C349.77 375.734 349.195 375.621 348.695 375.395C348.195 375.16 347.805 374.781 347.523 374.258C347.242 373.734 347.102 373.039 347.102 372.172V359.715ZM357.391 362.82V375.5H354.555V362.82H357.391ZM354.367 359.492C354.367 359.062 354.508 358.707 354.789 358.426C355.078 358.137 355.477 357.992 355.984 357.992C356.484 357.992 356.879 358.137 357.168 358.426C357.457 358.707 357.602 359.062 357.602 359.492C357.602 359.914 357.457 360.266 357.168 360.547C356.879 360.828 356.484 360.969 355.984 360.969C355.477 360.969 355.078 360.828 354.789 360.547C354.508 360.266 354.367 359.914 354.367 359.492ZM363.309 365.398V375.5H360.484V362.82H363.145L363.309 365.398ZM362.852 368.691L361.891 368.68C361.891 367.805 362 366.996 362.219 366.254C362.438 365.512 362.758 364.867 363.18 364.32C363.602 363.766 364.125 363.34 364.75 363.043C365.383 362.738 366.113 362.586 366.941 362.586C367.52 362.586 368.047 362.672 368.523 362.844C369.008 363.008 369.426 363.27 369.777 363.629C370.137 363.988 370.41 364.449 370.598 365.012C370.793 365.574 370.891 366.254 370.891 367.051V375.5H368.066V367.297C368.066 366.68 367.973 366.195 367.785 365.844C367.605 365.492 367.344 365.242 367 365.094C366.664 364.938 366.262 364.859 365.793 364.859C365.262 364.859 364.809 364.961 364.434 365.164C364.066 365.367 363.766 365.645 363.531 365.996C363.297 366.348 363.125 366.754 363.016 367.215C362.906 367.676 362.852 368.168 362.852 368.691ZM370.715 367.941L369.391 368.234C369.391 367.469 369.496 366.746 369.707 366.066C369.926 365.379 370.242 364.777 370.656 364.262C371.078 363.738 371.598 363.328 372.215 363.031C372.832 362.734 373.539 362.586 374.336 362.586C374.984 362.586 375.562 362.676 376.07 362.855C376.586 363.027 377.023 363.301 377.383 363.676C377.742 364.051 378.016 364.539 378.203 365.141C378.391 365.734 378.484 366.453 378.484 367.297V375.5H375.648V367.285C375.648 366.645 375.555 366.148 375.367 365.797C375.188 365.445 374.93 365.203 374.594 365.07C374.258 364.93 373.855 364.859 373.387 364.859C372.949 364.859 372.562 364.941 372.227 365.105C371.898 365.262 371.621 365.484 371.395 365.773C371.168 366.055 370.996 366.379 370.879 366.746C370.77 367.113 370.715 367.512 370.715 367.941ZM386.98 375.734C386.043 375.734 385.195 375.582 384.438 375.277C383.688 374.965 383.047 374.531 382.516 373.977C381.992 373.422 381.59 372.77 381.309 372.02C381.027 371.27 380.887 370.461 380.887 369.594V369.125C380.887 368.133 381.031 367.234 381.32 366.43C381.609 365.625 382.012 364.938 382.527 364.367C383.043 363.789 383.652 363.348 384.355 363.043C385.059 362.738 385.82 362.586 386.641 362.586C387.547 362.586 388.34 362.738 389.02 363.043C389.699 363.348 390.262 363.777 390.707 364.332C391.16 364.879 391.496 365.531 391.715 366.289C391.941 367.047 392.055 367.883 392.055 368.797V370.004H382.258V367.977H389.266V367.754C389.25 367.246 389.148 366.77 388.961 366.324C388.781 365.879 388.504 365.52 388.129 365.246C387.754 364.973 387.254 364.836 386.629 364.836C386.16 364.836 385.742 364.938 385.375 365.141C385.016 365.336 384.715 365.621 384.473 365.996C384.23 366.371 384.043 366.824 383.91 367.355C383.785 367.879 383.723 368.469 383.723 369.125V369.594C383.723 370.148 383.797 370.664 383.945 371.141C384.102 371.609 384.328 372.02 384.625 372.371C384.922 372.723 385.281 373 385.703 373.203C386.125 373.398 386.605 373.496 387.145 373.496C387.824 373.496 388.43 373.359 388.961 373.086C389.492 372.812 389.953 372.426 390.344 371.926L391.832 373.367C391.559 373.766 391.203 374.148 390.766 374.516C390.328 374.875 389.793 375.168 389.16 375.395C388.535 375.621 387.809 375.734 386.98 375.734Z" fill="#3F51B5"/>
</g>
<defs>
<filter id="filter0_di_514_56" x="0" y="0" width="439" height="435" filterUnits="userSpaceOnUse" color-interpolation-filters="sRGB">
<feFlood flood-opacity="0" result="BackgroundImageFix"/>
<feColorMatrix in="SourceAlpha" type="matrix" values="0 0 0 0 0 0 0 0 0 0 0 0 0 0 0 0 0 0 127 0" result="hardAlpha"/>
<feMorphology radius="3" operator="erode" in="SourceAlpha" result="effect1_dropShadow_514_56"/>
<feOffset dy="4"/>
<feGaussianBlur stdDeviation="9.25"/>
<feComposite in2="hardAlpha" operator="out"/>
<feColorMatrix type="matrix" values="0 0 0 0 0 0 0 0 0 0 0 0 0 0 0 0 0 0 0.12 0"/>
<feBlend mode="normal" in2="BackgroundImageFix" result="effect1_dropShadow_514_56"/>
<feBlend mode="normal" in="SourceGraphic" in2="effect1_dropShadow_514_56" result="shape"/>
<feColorMatrix in="SourceAlpha" type="matrix" values="0 0 0 0 0 0 0 0 0 0 0 0 0 0 0 0 0 0 127 0" result="hardAlpha"/>
<feOffset dx="-4" dy="4"/>
<feGaussianBlur stdDeviation="9.7"/>
<feComposite in2="hardAlpha" operator="arithmetic" k2="-1" k3="1"/>
<feColorMatrix type="matrix" values="0 0 0 0 0.00150976 0 0 0 0 0.0781402 0 0 0 0 0.512379 0 0 0 0.17 0"/>
<feBlend mode="normal" in2="shape" result="effect2_innerShadow_514_56"/>
</filter>
<linearGradient id="paint0_linear_514_56" x1="245" y1="-67" x2="239.211" y2="86.1632" gradientUnits="userSpaceOnUse">
<stop stop-color="#C6D6EB"/>
<stop offset="1" stop-color="#F6F9FF" stop-opacity="0.29"/>
</linearGradient>
<linearGradient id="paint1_linear_514_56" x1="20" y1="0" x2="20" y2="216" gradientUnits="userSpaceOnUse">
<stop stop-color="#C9FFCF"/>
<stop offset="1" stop-color="white"/>
</linearGradient>
<linearGradient id="paint2_linear_514_56" x1="20" y1="0" x2="20" y2="216" gradientUnits="userSpaceOnUse">
<stop stop-color="#E0E5FF"/>
<stop offset="1" stop-color="white"/>
</linearGradient>
<linearGradient id="paint3_linear_514_56" x1="20" y1="0" x2="20" y2="216" gradientUnits="userSpaceOnUse">
<stop stop-color="#C9FFCF"/>
<stop offset="1" stop-color="white"/>
</linearGradient>
<linearGradient id="paint4_linear_514_56" x1="20" y1="0" x2="20" y2="216" gradientUnits="userSpaceOnUse">
<stop stop-color="#E0E5FF"/>
<stop offset="1" stop-color="white"/>
</linearGradient>
<linearGradient id="paint5_linear_514_56" x1="20" y1="0" x2="20" y2="174" gradientUnits="userSpaceOnUse">
<stop stop-color="#C9FFCF"/>
<stop offset="1" stop-color="white"/>
</linearGradient>
<linearGradient id="paint6_linear_514_56" x1="20" y1="0" x2="20" y2="174" gradientUnits="userSpaceOnUse">
<stop stop-color="#E0E5FF"/>
<stop offset="1" stop-color="white"/>
</linearGradient>
<linearGradient id="paint7_linear_514_56" x1="20" y1="0" x2="20" y2="150" gradientUnits="userSpaceOnUse">
<stop stop-color="#C9FFCF"/>
<stop offset="1" stop-color="white"/>
</linearGradient>
<linearGradient id="paint8_linear_514_56" x1="20" y1="0" x2="20" y2="150" gradientUnits="userSpaceOnUse">
<stop stop-color="#E0E5FF"/>
<stop offset="1" stop-color="white"/>
</linearGradient>
<linearGradient id="paint9_linear_514_56" x1="20" y1="0" x2="20" y2="126" gradientUnits="userSpaceOnUse">
<stop stop-color="#E0E5FF"/>
<stop offset="1" stop-color="white"/>
</linearGradient>
<linearGradient id="paint10_linear_514_56" x1="20" y1="0" x2="20" y2="104" gradientUnits="userSpaceOnUse">
<stop stop-color="#E0E5FF"/>
<stop offset="1" stop-color="white"/>
</linearGradient>
<linearGradient id="paint11_linear_514_56" x1="197.501" y1="154.204" x2="197.079" y2="305.501" gradientUnits="userSpaceOnUse">
<stop stop-color="#3F51B5"/>
<stop offset="1" stop-color="#3F51B5" stop-opacity="0"/>
</linearGradient>
<linearGradient id="paint12_linear_514_56" x1="153.501" y1="178.105" x2="153.189" y2="308.168" gradientUnits="userSpaceOnUse">
<stop stop-color="#3F51B5"/>
<stop offset="1" stop-color="#3F51B5" stop-opacity="0"/>
</linearGradient>
<linearGradient id="paint13_linear_514_56" x1="109.167" y1="201.704" x2="108.968" y2="305.501" gradientUnits="userSpaceOnUse">
<stop stop-color="#3F51B5"/>
<stop offset="1" stop-color="#3F51B5" stop-opacity="0"/>
</linearGradient>
<linearGradient id="paint14_linear_514_56" x1="241.501" y1="132.543" x2="240.962" y2="303.5" gradientUnits="userSpaceOnUse">
<stop stop-color="#3F51B5"/>
<stop offset="1" stop-color="#3F51B5" stop-opacity="0"/>
</linearGradient>
<linearGradient id="paint15_linear_514_56" x1="285.501" y1="108.963" x2="284.803" y2="303.5" gradientUnits="userSpaceOnUse">
<stop stop-color="#3F51B5"/>
<stop offset="1" stop-color="#3F51B5" stop-opacity="0"/>
</linearGradient>
<linearGradient id="paint16_linear_514_56" x1="329.501" y1="85.3828" x2="328.623" y2="303.499" gradientUnits="userSpaceOnUse">
<stop stop-color="#3F51B5"/>
<stop offset="1" stop-color="#3F51B5" stop-opacity="0"/>
</linearGradient>
<linearGradient id="paint17_linear_514_56" x1="133.721" y1="146.949" x2="265.721" y2="81.9486" gradientUnits="userSpaceOnUse">
<stop stop-color="#4B5CB9" stop-opacity="0"/>
<stop offset="1" stop-color="#4B5CB9"/>
</linearGradient>
</defs>
</svg>
