<svg width="608" height="248" viewBox="0 0 608 248" fill="none" xmlns="http://www.w3.org/2000/svg">
<g filter="url(#filter0_f_898_206)">
<ellipse cx="303.718" cy="123.712" rx="249.318" ry="69.312" fill="#E1E9FF"/>
</g>
<g filter="url(#filter1_di_898_206)">
<rect x="86.1808" y="66.0585" width="435.075" height="115.307" rx="57.6535" fill="url(#paint0_linear_898_206)"/>
<rect x="89.6808" y="69.5585" width="428.075" height="108.307" rx="54.1535" stroke="white" stroke-width="7"/>
</g>
<path d="M196.812 125.876V139.399C196.281 140.04 195.461 140.735 194.351 141.485C193.242 142.22 191.812 142.853 190.062 143.384C188.312 143.915 186.195 144.181 183.711 144.181C181.507 144.181 179.5 143.821 177.687 143.103C175.875 142.368 174.312 141.298 173 139.892C171.703 138.485 170.703 136.767 170 134.735C169.297 132.688 168.945 130.353 168.945 127.728V125.595C168.945 122.97 169.281 120.634 169.953 118.587C170.64 116.54 171.617 114.813 172.882 113.407C174.148 112.001 175.656 110.931 177.406 110.196C179.156 109.462 181.101 109.095 183.242 109.095C186.211 109.095 188.648 109.579 190.554 110.548C192.461 111.501 193.914 112.829 194.914 114.532C195.929 116.22 196.554 118.157 196.789 120.345H189.968C189.797 119.188 189.468 118.181 188.984 117.321C188.5 116.462 187.804 115.79 186.898 115.306C186.007 114.821 184.851 114.579 183.429 114.579C182.257 114.579 181.211 114.821 180.289 115.306C179.382 115.774 178.617 116.47 177.992 117.392C177.367 118.313 176.89 119.454 176.562 120.813C176.234 122.173 176.07 123.751 176.07 125.548V127.728C176.07 129.509 176.242 131.087 176.586 132.462C176.929 133.821 177.437 134.97 178.109 135.907C178.797 136.829 179.64 137.524 180.64 137.993C181.64 138.462 182.804 138.696 184.132 138.696C185.242 138.696 186.164 138.603 186.898 138.415C187.648 138.228 188.25 138.001 188.703 137.735C189.172 137.454 189.531 137.188 189.781 136.938V130.892H183.359V125.876H196.812ZM224.422 138.228V143.712H207.242V138.228H224.422ZM209.515 109.587V143.712H202.484V109.587H209.515ZM242.797 115.423L233.515 143.712H226.039L238.718 109.587H243.476L242.797 115.423ZM250.507 143.712L241.203 115.423L240.453 109.587H245.257L258.007 143.712H250.507ZM250.086 131.009V136.517H232.062V131.009H250.086ZM271.648 143.712H264.218L264.265 138.228H271.648C273.492 138.228 275.047 137.813 276.312 136.985C277.578 136.142 278.531 134.915 279.172 133.306C279.828 131.696 280.156 129.751 280.156 127.47V125.806C280.156 124.056 279.968 122.517 279.593 121.188C279.234 119.86 278.695 118.743 277.976 117.837C277.257 116.931 276.375 116.251 275.328 115.798C274.281 115.329 273.078 115.095 271.718 115.095H264.078V109.587H271.718C274 109.587 276.086 109.978 277.976 110.759C279.882 111.524 281.531 112.626 282.922 114.063C284.312 115.501 285.382 117.22 286.132 119.22C286.898 121.204 287.281 123.415 287.281 125.853V127.47C287.281 129.892 286.898 132.103 286.132 134.103C285.382 136.103 284.312 137.821 282.922 139.259C281.547 140.681 279.898 141.782 277.976 142.563C276.07 143.329 273.961 143.712 271.648 143.712ZM268.203 109.587V143.712H261.172V109.587H268.203ZM295.601 109.587H301.554L310.32 134.642L319.086 109.587H325.039L312.711 143.712H307.929L295.601 109.587ZM292.39 109.587H298.32L299.398 134.009V143.712H292.39V109.587ZM322.32 109.587H328.273V143.712H321.242V134.009L322.32 109.587ZM341.914 109.587V143.712H334.906V109.587H341.914ZM376.273 109.587V143.712H369.242L355.531 120.837V143.712H348.5V109.587H355.531L369.265 132.485V109.587H376.273ZM392.867 143.712H385.437L385.484 138.228H392.867C394.711 138.228 396.265 137.813 397.531 136.985C398.797 136.142 399.75 134.915 400.39 133.306C401.047 131.696 401.375 129.751 401.375 127.47V125.806C401.375 124.056 401.187 122.517 400.812 121.188C400.453 119.86 399.914 118.743 399.195 117.837C398.476 116.931 397.593 116.251 396.547 115.798C395.5 115.329 394.297 115.095 392.937 115.095H385.297V109.587H392.937C395.218 109.587 397.304 109.978 399.195 110.759C401.101 111.524 402.75 112.626 404.14 114.063C405.531 115.501 406.601 117.22 407.351 119.22C408.117 121.204 408.5 123.415 408.5 125.853V127.47C408.5 129.892 408.117 132.103 407.351 134.103C406.601 136.103 405.531 137.821 404.14 139.259C402.765 140.681 401.117 141.782 399.195 142.563C397.289 143.329 395.179 143.712 392.867 143.712ZM389.422 109.587V143.712H382.39V109.587H389.422ZM431.375 134.782C431.375 134.173 431.281 133.626 431.093 133.142C430.922 132.642 430.593 132.188 430.109 131.782C429.625 131.36 428.945 130.946 428.07 130.54C427.195 130.134 426.062 129.712 424.672 129.274C423.125 128.774 421.656 128.212 420.265 127.587C418.89 126.962 417.672 126.235 416.609 125.407C415.562 124.563 414.734 123.587 414.125 122.478C413.531 121.368 413.234 120.079 413.234 118.61C413.234 117.188 413.547 115.899 414.172 114.743C414.797 113.571 415.672 112.571 416.797 111.743C417.922 110.899 419.25 110.251 420.781 109.798C422.328 109.345 424.023 109.118 425.867 109.118C428.382 109.118 430.578 109.571 432.453 110.478C434.328 111.384 435.781 112.626 436.812 114.204C437.859 115.782 438.382 117.587 438.382 119.618H431.398C431.398 118.618 431.187 117.743 430.765 116.993C430.359 116.228 429.734 115.626 428.89 115.188C428.062 114.751 427.015 114.532 425.75 114.532C424.531 114.532 423.515 114.72 422.703 115.095C421.89 115.454 421.281 115.946 420.875 116.571C420.468 117.181 420.265 117.868 420.265 118.634C420.265 119.212 420.406 119.735 420.687 120.204C420.984 120.673 421.422 121.11 422 121.517C422.578 121.923 423.289 122.306 424.132 122.665C424.976 123.024 425.953 123.376 427.062 123.72C428.922 124.282 430.554 124.915 431.961 125.618C433.382 126.321 434.57 127.11 435.523 127.985C436.476 128.86 437.195 129.853 437.679 130.962C438.164 132.071 438.406 133.329 438.406 134.735C438.406 136.22 438.117 137.548 437.539 138.72C436.961 139.892 436.125 140.884 435.031 141.696C433.937 142.509 432.632 143.126 431.117 143.548C429.601 143.97 427.906 144.181 426.031 144.181C424.343 144.181 422.679 143.962 421.039 143.524C419.398 143.071 417.906 142.392 416.562 141.485C415.234 140.579 414.172 139.423 413.375 138.017C412.578 136.61 412.179 134.946 412.179 133.024H419.234C419.234 134.087 419.398 134.985 419.726 135.72C420.054 136.454 420.515 137.048 421.109 137.501C421.718 137.954 422.437 138.282 423.265 138.485C424.109 138.688 425.031 138.79 426.031 138.79C427.25 138.79 428.25 138.618 429.031 138.274C429.828 137.931 430.414 137.454 430.789 136.845C431.179 136.235 431.375 135.548 431.375 134.782Z" fill="#0D47A1"/>
<defs>
<filter id="filter0_f_898_206" x="2.28882e-05" y="2.28882e-05" width="607.437" height="247.424" filterUnits="userSpaceOnUse" color-interpolation-filters="sRGB">
<feFlood flood-opacity="0" result="BackgroundImageFix"/>
<feBlend mode="normal" in="SourceGraphic" in2="BackgroundImageFix" result="shape"/>
<feGaussianBlur stdDeviation="27.2" result="effect1_foregroundBlur_898_206"/>
</filter>
<filter id="filter1_di_898_206" x="82.1808" y="66.0585" width="443.075" height="123.307" filterUnits="userSpaceOnUse" color-interpolation-filters="sRGB">
<feFlood flood-opacity="0" result="BackgroundImageFix"/>
<feColorMatrix in="SourceAlpha" type="matrix" values="0 0 0 0 0 0 0 0 0 0 0 0 0 0 0 0 0 0 127 0" result="hardAlpha"/>
<feOffset dy="4"/>
<feGaussianBlur stdDeviation="2"/>
<feComposite in2="hardAlpha" operator="out"/>
<feColorMatrix type="matrix" values="0 0 0 0 0.0451479 0 0 0 0 0.00562128 0 0 0 0 0.302071 0 0 0 0.12 0"/>
<feBlend mode="normal" in2="BackgroundImageFix" result="effect1_dropShadow_898_206"/>
<feBlend mode="normal" in="SourceGraphic" in2="effect1_dropShadow_898_206" result="shape"/>
<feColorMatrix in="SourceAlpha" type="matrix" values="0 0 0 0 0 0 0 0 0 0 0 0 0 0 0 0 0 0 127 0" result="hardAlpha"/>
<feOffset/>
<feGaussianBlur stdDeviation="5.55"/>
<feComposite in2="hardAlpha" operator="arithmetic" k2="-1" k3="1"/>
<feColorMatrix type="matrix" values="0 0 0 0 0.00150976 0 0 0 0 0.0781402 0 0 0 0 0.512379 0 0 0 1 0"/>
<feBlend mode="normal" in2="shape" result="effect2_innerShadow_898_206"/>
</filter>
<linearGradient id="paint0_linear_898_206" x1="296.317" y1="72.621" x2="297.214" y2="118.765" gradientUnits="userSpaceOnUse">
<stop stop-color="#C6D6EB"/>
<stop offset="1" stop-color="white"/>
</linearGradient>
</defs>
</svg>
