<svg width="368" height="176" viewBox="0 0 368 176" fill="none" xmlns="http://www.w3.org/2000/svg">
<g filter="url(#filter0_d_783_954)">
<rect x="24.8" y="24.8" width="318" height="126" rx="32" fill="white" shape-rendering="crispEdges"/>
<g filter="url(#filter1_i_783_954)">
<rect x="32.8" y="32.8" width="302" height="110" rx="25.1429" fill="white"/>
<rect x="32.8" y="32.8" width="302" height="110" rx="25.1429" fill="url(#paint0_linear_783_954)"/>
<path d="M107.616 87.1663V96.7454C107.24 97.1991 106.659 97.6917 105.873 98.2229C105.087 98.7431 104.075 99.1913 102.835 99.5676C101.596 99.9439 100.096 100.132 98.3361 100.132C96.7756 100.132 95.3534 99.8775 94.0695 99.3684C92.7857 98.8482 91.6789 98.0901 90.7492 97.094C89.8306 96.0979 89.1223 94.8805 88.6242 93.4417C88.1262 91.9918 87.8771 90.3372 87.8771 88.4778V86.967C87.8771 85.1077 88.1151 83.453 88.591 82.0032C89.078 80.5533 89.7697 79.3303 90.6662 78.3342C91.5627 77.3381 92.6307 76.58 93.8703 76.0598C95.1099 75.5396 96.4878 75.2795 98.0041 75.2795C100.107 75.2795 101.834 75.6226 103.184 76.3088C104.534 76.984 105.563 77.9247 106.272 79.1311C106.991 80.3264 107.434 81.6988 107.6 83.2483H102.769C102.647 82.4293 102.415 81.7154 102.071 81.1067C101.728 80.498 101.236 80.0221 100.594 79.679C99.9631 79.3359 99.1441 79.1643 98.1369 79.1643C97.3068 79.1643 96.5653 79.3359 95.9123 79.679C95.2704 80.011 94.728 80.5035 94.2853 81.1565C93.8426 81.8095 93.5051 82.6174 93.2726 83.5803C93.0402 84.5432 92.924 85.6611 92.924 86.9338V88.4778C92.924 89.7395 93.0458 90.8573 93.2892 91.8313C93.5327 92.7942 93.8924 93.6077 94.3683 94.2717C94.8553 94.9247 95.453 95.4172 96.1613 95.7493C96.8696 96.0813 97.6942 96.2473 98.6349 96.2473C99.4208 96.2473 100.074 96.1809 100.594 96.0481C101.125 95.9153 101.551 95.7548 101.872 95.5667C102.204 95.3674 102.459 95.1793 102.636 95.0022V90.719H98.0871V87.1663H107.616ZM127.258 95.9153V99.8H115.089V95.9153H127.258ZM116.699 75.6282V99.8H111.719V75.6282H116.699ZM140.359 79.762L133.784 99.8H128.489L137.47 75.6282H140.84L140.359 79.762ZM145.821 99.8L139.23 79.762L138.699 75.6282H142.102L151.133 99.8H145.821ZM145.522 90.802V94.7034H132.755V90.802H145.522ZM160.88 99.8H155.617L155.651 95.9153H160.88C162.186 95.9153 163.287 95.622 164.184 95.0354C165.08 94.4377 165.756 93.5689 166.209 92.429C166.674 91.289 166.907 89.9111 166.907 88.2952V87.1165C166.907 85.8769 166.774 84.7867 166.508 83.8459C166.254 82.9052 165.872 82.1139 165.363 81.4719C164.853 80.83 164.228 80.3486 163.487 80.0276C162.745 79.6956 161.893 79.5295 160.93 79.5295H155.518V75.6282H160.93C162.546 75.6282 164.023 75.9049 165.363 76.4583C166.713 77.0006 167.881 77.7808 168.866 78.7991C169.851 79.8173 170.609 81.0347 171.14 82.4514C171.682 83.857 171.953 85.4231 171.953 87.1497V88.2952C171.953 90.0107 171.682 91.5767 171.14 92.9934C170.609 94.4101 169.851 95.6275 168.866 96.6458C167.892 97.6529 166.724 98.4332 165.363 98.9866C164.012 99.5289 162.518 99.8 160.88 99.8ZM158.44 75.6282V99.8H153.459V75.6282H158.44ZM177.932 75.6282H182.149L188.358 93.3752L194.567 75.6282H198.784L190.051 99.8H186.664L177.932 75.6282ZM175.658 75.6282H179.858L180.621 92.927V99.8H175.658V75.6282ZM196.858 75.6282H201.075V99.8H196.094V92.927L196.858 75.6282ZM210.822 75.6282V99.8H205.858V75.6282H210.822ZM235.245 75.6282V99.8H230.264L220.552 83.5969V99.8H215.572V75.6282H220.552L230.281 91.8479V75.6282H235.245ZM247.083 99.8H241.821L241.854 95.9153H247.083C248.389 95.9153 249.491 95.622 250.387 95.0354C251.284 94.4377 251.959 93.5689 252.413 92.429C252.877 91.289 253.11 89.9111 253.11 88.2952V87.1165C253.11 85.8769 252.977 84.7867 252.711 83.8459C252.457 82.9052 252.075 82.1139 251.566 81.4719C251.057 80.83 250.431 80.3486 249.69 80.0276C248.948 79.6956 248.096 79.5295 247.133 79.5295H241.721V75.6282H247.133C248.749 75.6282 250.227 75.9049 251.566 76.4583C252.916 77.0006 254.084 77.7808 255.069 78.7991C256.054 79.8173 256.812 81.0347 257.343 82.4514C257.886 83.857 258.157 85.4231 258.157 87.1497V88.2952C258.157 90.0107 257.886 91.5767 257.343 92.9934C256.812 94.4101 256.054 95.6275 255.069 96.6458C254.095 97.6529 252.927 98.4332 251.566 98.9866C250.216 99.5289 248.721 99.8 247.083 99.8ZM244.643 75.6282V99.8H239.663V75.6282H244.643ZM274.445 93.4749C274.445 93.0432 274.378 92.6558 274.246 92.3127C274.124 91.9586 273.891 91.6376 273.548 91.3499C273.205 91.051 272.724 90.7577 272.104 90.47C271.484 90.1822 270.682 89.8834 269.697 89.5735C268.601 89.2193 267.561 88.8209 266.576 88.3782C265.602 87.9355 264.738 87.4208 263.986 86.8342C263.244 86.2366 262.658 85.5448 262.226 84.759C261.806 83.9732 261.595 83.0601 261.595 82.0198C261.595 81.0126 261.817 80.0995 262.259 79.2805C262.702 78.4504 263.322 77.7421 264.119 77.1555C264.916 76.5579 265.856 76.0986 266.941 75.7776C268.037 75.4566 269.237 75.2961 270.543 75.2961C272.325 75.2961 273.88 75.6171 275.208 76.259C276.537 76.901 277.566 77.7808 278.296 78.8987C279.038 80.0165 279.409 81.2948 279.409 82.7336H274.461C274.461 82.0253 274.312 81.4055 274.013 80.8743C273.725 80.3319 273.283 79.9058 272.685 79.5959C272.098 79.2861 271.357 79.1311 270.46 79.1311C269.597 79.1311 268.878 79.2639 268.302 79.5295C267.727 79.7841 267.295 80.1327 267.007 80.5754C266.72 81.0071 266.576 81.4941 266.576 82.0364C266.576 82.4459 266.675 82.8167 266.875 83.1487C267.085 83.4807 267.395 83.7906 267.804 84.0784C268.214 84.3661 268.717 84.6373 269.315 84.8918C269.913 85.1464 270.604 85.3954 271.39 85.6389C272.707 86.0374 273.864 86.4856 274.86 86.9836C275.867 87.4817 276.708 88.0406 277.383 88.6604C278.058 89.2802 278.568 89.983 278.911 90.7688C279.254 91.5546 279.425 92.4456 279.425 93.4417C279.425 94.4931 279.221 95.4338 278.811 96.2639C278.402 97.094 277.809 97.7968 277.035 98.3723C276.26 98.9478 275.336 99.385 274.262 99.6838C273.189 99.9827 271.988 100.132 270.66 100.132C269.464 100.132 268.286 99.9771 267.124 99.6672C265.961 99.3463 264.904 98.8648 263.953 98.2229C263.012 97.581 262.259 96.762 261.695 95.7659C261.13 94.7698 260.848 93.5911 260.848 92.2297H265.845C265.845 92.9823 265.961 93.6187 266.194 94.1389C266.426 94.6591 266.753 95.0797 267.173 95.4006C267.605 95.7216 268.114 95.954 268.701 96.0979C269.298 96.2418 269.951 96.3137 270.66 96.3137C271.523 96.3137 272.231 96.192 272.785 95.9485C273.349 95.705 273.764 95.3674 274.03 94.9358C274.306 94.5042 274.445 94.0172 274.445 93.4749Z" fill="#0D47A1"/>
</g>
</g>
<defs>
<filter id="filter0_d_783_954" x="-1.14441e-05" y="4.95911e-05" width="367.6" height="175.6" filterUnits="userSpaceOnUse" color-interpolation-filters="sRGB">
<feFlood flood-opacity="0" result="BackgroundImageFix"/>
<feColorMatrix in="SourceAlpha" type="matrix" values="0 0 0 0 0 0 0 0 0 0 0 0 0 0 0 0 0 0 127 0" result="hardAlpha"/>
<feOffset/>
<feGaussianBlur stdDeviation="12.4"/>
<feComposite in2="hardAlpha" operator="out"/>
<feColorMatrix type="matrix" values="0 0 0 0 0.2 0 0 0 0 0.533333 0 0 0 0 0.913725 0 0 0 0.4 0"/>
<feBlend mode="normal" in2="BackgroundImageFix" result="effect1_dropShadow_783_954"/>
<feBlend mode="normal" in="SourceGraphic" in2="effect1_dropShadow_783_954" result="shape"/>
</filter>
<filter id="filter1_i_783_954" x="19.8" y="32.8" width="315" height="113" filterUnits="userSpaceOnUse" color-interpolation-filters="sRGB">
<feFlood flood-opacity="0" result="BackgroundImageFix"/>
<feBlend mode="normal" in="SourceGraphic" in2="BackgroundImageFix" result="shape"/>
<feColorMatrix in="SourceAlpha" type="matrix" values="0 0 0 0 0 0 0 0 0 0 0 0 0 0 0 0 0 0 127 0" result="hardAlpha"/>
<feOffset dx="-13" dy="3"/>
<feGaussianBlur stdDeviation="9.7"/>
<feComposite in2="hardAlpha" operator="arithmetic" k2="-1" k3="1"/>
<feColorMatrix type="matrix" values="0 0 0 0 0.00150976 0 0 0 0 0.0781402 0 0 0 0 0.512379 0 0 0 0.09 0"/>
<feBlend mode="normal" in2="shape" result="effect1_innerShadow_783_954"/>
</filter>
<linearGradient id="paint0_linear_783_954" x1="202.675" y1="11.4263" x2="202.094" y2="53.1806" gradientUnits="userSpaceOnUse">
<stop stop-color="#C6D6EB"/>
<stop offset="1" stop-color="#F6F9FF" stop-opacity="0.29"/>
</linearGradient>
</defs>
</svg>
