<svg width="787" height="321" viewBox="0 0 787 321" fill="none" xmlns="http://www.w3.org/2000/svg">
<rect x="173.011" y="95.2635" width="452.994" height="126.062" rx="63.0312" stroke="#EBEEFF"/>
<rect x="131.254" y="79.0155" width="536.509" height="158.559" rx="79.2794" stroke="#EBEEFF"/>
<rect x="152.153" y="85.2194" width="494.711" height="146.151" rx="73.0754" stroke="#EBEEFF"/>
<rect x="113.964" y="68.5316" width="573.376" height="181.018" rx="90.5089" stroke="#E6EAFF"/>
<mask id="mask0_783_56" style="mask-type:alpha" maskUnits="userSpaceOnUse" x="33" y="157" width="174" height="113">
<path d="M206.102 158.835H60.1865C46.3794 158.835 35.1865 170.027 35.1865 183.835V269.062" stroke="black" stroke-width="3"/>
</mask>
<g mask="url(#mask0_783_56)">
<g filter="url(#filter0_f_783_56)">
<ellipse cx="102.253" cy="181.983" rx="134.583" ry="22.6884" fill="#0E5DE7"/>
</g>
</g>
<mask id="mask1_783_56" style="mask-type:alpha" maskUnits="userSpaceOnUse" x="17" y="0" width="173" height="146">
<path d="M189.757 144.096H43.8418C30.0347 144.096 18.8418 132.903 18.8418 119.096V0.270014" stroke="black" stroke-width="3"/>
</mask>
<g mask="url(#mask1_783_56)">
<g filter="url(#filter1_f_783_56)">
<ellipse cx="134.583" cy="29.6042" rx="134.583" ry="29.6042" transform="matrix(1 0 0 -1 -48.6743 143.496)" fill="#0E5DE7"/>
</g>
</g>
<mask id="mask2_783_56" style="mask-type:alpha" maskUnits="userSpaceOnUse" x="579" y="40" width="173" height="100">
<path d="M579.518 137.821H725.434C739.241 137.821 750.434 126.628 750.434 112.821V40.1445" stroke="black" stroke-width="3"/>
</mask>
<g mask="url(#mask2_783_56)">
<g filter="url(#filter2_f_783_56)">
<ellipse cx="683.367" cy="117.308" rx="134.583" ry="20.1051" transform="rotate(180 683.367 117.308)" fill="#0E5DE7"/>
</g>
</g>
<mask id="mask3_783_56" style="mask-type:alpha" maskUnits="userSpaceOnUse" x="602" y="156" width="173" height="165">
<path d="M602.086 158.295H748.001C761.808 158.295 773.001 169.488 773.001 183.295V320.448" stroke="black" stroke-width="3"/>
</mask>
<g mask="url(#mask3_783_56)">
<g filter="url(#filter3_f_783_56)">
<ellipse cx="221.956" cy="28.4882" rx="221.956" ry="28.4882" transform="matrix(-1 0 0 1 927.89 158.972)" fill="#0E5DE7"/>
</g>
</g>
<g filter="url(#filter4_f_783_56)">
<ellipse cx="397.332" cy="158.295" rx="249.318" ry="69.312" fill="#E1E9FF"/>
</g>
<g filter="url(#filter5_di_783_56)">
<rect x="179.794" y="100.641" width="435.075" height="115.307" rx="57.6535" fill="url(#paint0_linear_783_56)"/>
<rect x="183.294" y="104.141" width="428.075" height="108.307" rx="54.1535" stroke="white" stroke-width="7"/>
</g>
<path d="M290.426 160.459V173.982C289.895 174.623 289.074 175.318 287.965 176.068C286.855 176.802 285.426 177.435 283.676 177.967C281.926 178.498 279.809 178.763 277.324 178.763C275.121 178.763 273.113 178.404 271.301 177.685C269.488 176.951 267.926 175.881 266.613 174.474C265.316 173.068 264.316 171.349 263.613 169.318C262.91 167.271 262.559 164.935 262.559 162.31V160.177C262.559 157.552 262.895 155.217 263.566 153.17C264.254 151.123 265.23 149.396 266.496 147.99C267.762 146.584 269.27 145.513 271.02 144.779C272.77 144.045 274.715 143.677 276.855 143.677C279.824 143.677 282.262 144.162 284.168 145.131C286.074 146.084 287.527 147.412 288.527 149.115C289.543 150.802 290.168 152.74 290.402 154.927H283.582C283.41 153.771 283.082 152.763 282.598 151.904C282.113 151.045 281.418 150.373 280.512 149.888C279.621 149.404 278.465 149.162 277.043 149.162C275.871 149.162 274.824 149.404 273.902 149.888C272.996 150.357 272.23 151.052 271.605 151.974C270.98 152.896 270.504 154.037 270.176 155.396C269.848 156.756 269.684 158.334 269.684 160.131V162.31C269.684 164.092 269.855 165.67 270.199 167.045C270.543 168.404 271.051 169.552 271.723 170.49C272.41 171.412 273.254 172.107 274.254 172.576C275.254 173.045 276.418 173.279 277.746 173.279C278.855 173.279 279.777 173.185 280.512 172.998C281.262 172.81 281.863 172.584 282.316 172.318C282.785 172.037 283.145 171.771 283.395 171.521V165.474H276.973V160.459H290.426ZM318.035 172.81V178.295H300.855V172.81H318.035ZM303.129 144.17V178.295H296.098V144.17H303.129ZM336.41 150.006L327.129 178.295H319.652L332.332 144.17H337.09L336.41 150.006ZM344.121 178.295L334.816 150.006L334.066 144.17H338.871L351.621 178.295H344.121ZM343.699 165.592V171.099H325.676V165.592H343.699ZM365.262 178.295H357.832L357.879 172.81H365.262C367.105 172.81 368.66 172.396 369.926 171.568C371.191 170.724 372.145 169.498 372.785 167.888C373.441 166.279 373.77 164.334 373.77 162.052V160.388C373.77 158.638 373.582 157.099 373.207 155.771C372.848 154.443 372.309 153.326 371.59 152.42C370.871 151.513 369.988 150.834 368.941 150.381C367.895 149.912 366.691 149.677 365.332 149.677H357.691V144.17H365.332C367.613 144.17 369.699 144.56 371.59 145.342C373.496 146.107 375.145 147.209 376.535 148.646C377.926 150.084 378.996 151.802 379.746 153.802C380.512 155.787 380.895 157.998 380.895 160.435V162.052C380.895 164.474 380.512 166.685 379.746 168.685C378.996 170.685 377.926 172.404 376.535 173.842C375.16 175.263 373.512 176.365 371.59 177.146C369.684 177.912 367.574 178.295 365.262 178.295ZM361.816 144.17V178.295H354.785V144.17H361.816ZM389.215 144.17H395.168L403.934 169.224L412.699 144.17H418.652L406.324 178.295H401.543L389.215 144.17ZM386.004 144.17H391.934L393.012 168.592V178.295H386.004V144.17ZM415.934 144.17H421.887V178.295H414.855V168.592L415.934 144.17ZM435.527 144.17V178.295H428.52V144.17H435.527ZM469.887 144.17V178.295H462.855L449.145 155.42V178.295H442.113V144.17H449.145L462.879 167.068V144.17H469.887ZM486.48 178.295H479.051L479.098 172.81H486.48C488.324 172.81 489.879 172.396 491.145 171.568C492.41 170.724 493.363 169.498 494.004 167.888C494.66 166.279 494.988 164.334 494.988 162.052V160.388C494.988 158.638 494.801 157.099 494.426 155.771C494.066 154.443 493.527 153.326 492.809 152.42C492.09 151.513 491.207 150.834 490.16 150.381C489.113 149.912 487.91 149.677 486.551 149.677H478.91V144.17H486.551C488.832 144.17 490.918 144.56 492.809 145.342C494.715 146.107 496.363 147.209 497.754 148.646C499.145 150.084 500.215 151.802 500.965 153.802C501.73 155.787 502.113 157.998 502.113 160.435V162.052C502.113 164.474 501.73 166.685 500.965 168.685C500.215 170.685 499.145 172.404 497.754 173.842C496.379 175.263 494.73 176.365 492.809 177.146C490.902 177.912 488.793 178.295 486.48 178.295ZM483.035 144.17V178.295H476.004V144.17H483.035ZM524.988 169.365C524.988 168.756 524.895 168.209 524.707 167.724C524.535 167.224 524.207 166.771 523.723 166.365C523.238 165.943 522.559 165.529 521.684 165.123C520.809 164.717 519.676 164.295 518.285 163.857C516.738 163.357 515.27 162.795 513.879 162.17C512.504 161.545 511.285 160.818 510.223 159.99C509.176 159.146 508.348 158.17 507.738 157.06C507.145 155.951 506.848 154.662 506.848 153.193C506.848 151.771 507.16 150.482 507.785 149.326C508.41 148.154 509.285 147.154 510.41 146.326C511.535 145.482 512.863 144.834 514.395 144.381C515.941 143.927 517.637 143.701 519.48 143.701C521.996 143.701 524.191 144.154 526.066 145.06C527.941 145.967 529.395 147.209 530.426 148.787C531.473 150.365 531.996 152.17 531.996 154.201H525.012C525.012 153.201 524.801 152.326 524.379 151.576C523.973 150.81 523.348 150.209 522.504 149.771C521.676 149.334 520.629 149.115 519.363 149.115C518.145 149.115 517.129 149.302 516.316 149.677C515.504 150.037 514.895 150.529 514.488 151.154C514.082 151.763 513.879 152.451 513.879 153.217C513.879 153.795 514.02 154.318 514.301 154.787C514.598 155.256 515.035 155.693 515.613 156.099C516.191 156.506 516.902 156.888 517.746 157.248C518.59 157.607 519.566 157.959 520.676 158.302C522.535 158.865 524.168 159.498 525.574 160.201C526.996 160.904 528.184 161.693 529.137 162.568C530.09 163.443 530.809 164.435 531.293 165.545C531.777 166.654 532.02 167.912 532.02 169.318C532.02 170.802 531.73 172.131 531.152 173.302C530.574 174.474 529.738 175.467 528.645 176.279C527.551 177.092 526.246 177.709 524.73 178.131C523.215 178.552 521.52 178.763 519.645 178.763C517.957 178.763 516.293 178.545 514.652 178.107C513.012 177.654 511.52 176.974 510.176 176.068C508.848 175.162 507.785 174.006 506.988 172.599C506.191 171.193 505.793 169.529 505.793 167.607H512.848C512.848 168.67 513.012 169.568 513.34 170.302C513.668 171.037 514.129 171.631 514.723 172.084C515.332 172.537 516.051 172.865 516.879 173.068C517.723 173.271 518.645 173.373 519.645 173.373C520.863 173.373 521.863 173.201 522.645 172.857C523.441 172.513 524.027 172.037 524.402 171.427C524.793 170.818 524.988 170.131 524.988 169.365Z" fill="#0D47A1"/>
<defs>
<filter id="filter0_f_783_56" x="-90.8295" y="100.795" width="386.166" height="162.377" filterUnits="userSpaceOnUse" color-interpolation-filters="sRGB">
<feFlood flood-opacity="0" result="BackgroundImageFix"/>
<feBlend mode="normal" in="SourceGraphic" in2="BackgroundImageFix" result="shape"/>
<feGaussianBlur stdDeviation="29.25" result="effect1_foregroundBlur_783_56"/>
</filter>
<filter id="filter1_f_783_56" x="-107.174" y="25.7874" width="386.166" height="176.208" filterUnits="userSpaceOnUse" color-interpolation-filters="sRGB">
<feFlood flood-opacity="0" result="BackgroundImageFix"/>
<feBlend mode="normal" in="SourceGraphic" in2="BackgroundImageFix" result="shape"/>
<feGaussianBlur stdDeviation="29.25" result="effect1_foregroundBlur_783_56"/>
</filter>
<filter id="filter2_f_783_56" x="490.284" y="38.7031" width="386.166" height="157.21" filterUnits="userSpaceOnUse" color-interpolation-filters="sRGB">
<feFlood flood-opacity="0" result="BackgroundImageFix"/>
<feBlend mode="normal" in="SourceGraphic" in2="BackgroundImageFix" result="shape"/>
<feGaussianBlur stdDeviation="29.25" result="effect1_foregroundBlur_783_56"/>
</filter>
<filter id="filter3_f_783_56" x="369.179" y="44.1717" width="673.511" height="286.576" filterUnits="userSpaceOnUse" color-interpolation-filters="sRGB">
<feFlood flood-opacity="0" result="BackgroundImageFix"/>
<feBlend mode="normal" in="SourceGraphic" in2="BackgroundImageFix" result="shape"/>
<feGaussianBlur stdDeviation="57.4" result="effect1_foregroundBlur_783_56"/>
</filter>
<filter id="filter4_f_783_56" x="93.6137" y="34.5828" width="607.437" height="247.424" filterUnits="userSpaceOnUse" color-interpolation-filters="sRGB">
<feFlood flood-opacity="0" result="BackgroundImageFix"/>
<feBlend mode="normal" in="SourceGraphic" in2="BackgroundImageFix" result="shape"/>
<feGaussianBlur stdDeviation="27.2" result="effect1_foregroundBlur_783_56"/>
</filter>
<filter id="filter5_di_783_56" x="175.794" y="100.641" width="443.075" height="123.307" filterUnits="userSpaceOnUse" color-interpolation-filters="sRGB">
<feFlood flood-opacity="0" result="BackgroundImageFix"/>
<feColorMatrix in="SourceAlpha" type="matrix" values="0 0 0 0 0 0 0 0 0 0 0 0 0 0 0 0 0 0 127 0" result="hardAlpha"/>
<feOffset dy="4"/>
<feGaussianBlur stdDeviation="2"/>
<feComposite in2="hardAlpha" operator="out"/>
<feColorMatrix type="matrix" values="0 0 0 0 0.0451479 0 0 0 0 0.00562128 0 0 0 0 0.302071 0 0 0 0.12 0"/>
<feBlend mode="normal" in2="BackgroundImageFix" result="effect1_dropShadow_783_56"/>
<feBlend mode="normal" in="SourceGraphic" in2="effect1_dropShadow_783_56" result="shape"/>
<feColorMatrix in="SourceAlpha" type="matrix" values="0 0 0 0 0 0 0 0 0 0 0 0 0 0 0 0 0 0 127 0" result="hardAlpha"/>
<feOffset/>
<feGaussianBlur stdDeviation="5.55"/>
<feComposite in2="hardAlpha" operator="arithmetic" k2="-1" k3="1"/>
<feColorMatrix type="matrix" values="0 0 0 0 0.00150976 0 0 0 0 0.0781402 0 0 0 0 0.512379 0 0 0 1 0"/>
<feBlend mode="normal" in2="shape" result="effect2_innerShadow_783_56"/>
</filter>
<linearGradient id="paint0_linear_783_56" x1="389.931" y1="107.204" x2="390.828" y2="153.348" gradientUnits="userSpaceOnUse">
<stop stop-color="#C6D6EB"/>
<stop offset="1" stop-color="white"/>
</linearGradient>
</defs>
</svg>
