<svg width="346" height="203" viewBox="0 0 346 203" fill="none" xmlns="http://www.w3.org/2000/svg">
<rect x="1.5" y="-1.5" width="343" height="43" rx="6.5" transform="matrix(-1 0 0 1 346 48)" fill="url(#paint0_linear_514_102)"/>
<rect x="1.5" y="-1.5" width="343" height="43" rx="6.5" transform="matrix(-1 0 0 1 346 48)" fill="url(#paint1_linear_514_102)"/>
<rect x="1.5" y="-1.5" width="343" height="43" rx="6.5" transform="matrix(-1 0 0 1 346 48)" stroke="url(#paint2_linear_514_102)" stroke-width="3"/>
<rect x="1.5" y="-1.5" width="285" height="43" rx="6.5" transform="matrix(-1 0 0 1 288 104)" fill="url(#paint3_linear_514_102)"/>
<rect x="1.5" y="-1.5" width="285" height="43" rx="6.5" transform="matrix(-1 0 0 1 288 104)" fill="url(#paint4_linear_514_102)"/>
<rect x="1.5" y="-1.5" width="285" height="43" rx="6.5" transform="matrix(-1 0 0 1 288 104)" stroke="url(#paint5_linear_514_102)" stroke-width="3"/>
<rect x="1.5" y="-1.5" width="217" height="43" rx="6.5" transform="matrix(-1 0 0 1 220 160)" fill="url(#paint6_linear_514_102)"/>
<rect x="1.5" y="-1.5" width="217" height="43" rx="6.5" transform="matrix(-1 0 0 1 220 160)" fill="url(#paint7_linear_514_102)"/>
<rect x="1.5" y="-1.5" width="217" height="43" rx="6.5" transform="matrix(-1 0 0 1 220 160)" stroke="url(#paint8_linear_514_102)" stroke-width="3"/>
<path d="M273.939 3.93934C274.525 3.35355 275.475 3.35355 276.061 3.93934L285.607 13.4853C286.192 14.0711 286.192 15.0208 285.607 15.6066C285.021 16.1924 284.071 16.1924 283.485 15.6066L275 7.12132L266.515 15.6066C265.929 16.1924 264.979 16.1924 264.393 15.6066C263.808 15.0208 263.808 14.0711 264.393 13.4853L273.939 3.93934ZM275 27L273.5 27L273.5 5L275 5L276.5 5L276.5 27L275 27Z" fill="#3F51B5"/>
<path d="M304.354 18.3984V21.707H290.025L289.793 19.1094L297.941 6.09375H301.318L297.654 12.1641L293.949 18.3984H304.354ZM302.221 6.09375V26H297.955V6.09375H302.221ZM320.062 14.2695V17.8105C320.062 19.2689 319.898 20.5312 319.57 21.5977C319.251 22.6641 318.786 23.5436 318.176 24.2363C317.574 24.929 316.854 25.444 316.016 25.7812C315.186 26.1094 314.266 26.2734 313.254 26.2734C312.443 26.2734 311.686 26.1686 310.984 25.959C310.283 25.7493 309.649 25.4258 309.084 24.9883C308.528 24.5417 308.049 23.9857 307.648 23.3203C307.247 22.6549 306.938 21.862 306.719 20.9414C306.509 20.0208 306.404 18.9772 306.404 17.8105V14.2695C306.404 12.793 306.564 11.526 306.883 10.4688C307.211 9.41146 307.68 8.53646 308.291 7.84375C308.902 7.15104 309.622 6.64062 310.451 6.3125C311.29 5.98438 312.215 5.82031 313.227 5.82031C314.038 5.82031 314.79 5.92513 315.482 6.13477C316.184 6.3444 316.818 6.66797 317.383 7.10547C317.948 7.54297 318.426 8.0944 318.818 8.75977C319.219 9.42513 319.525 10.2181 319.734 11.1387C319.953 12.0501 320.062 13.0938 320.062 14.2695ZM315.797 18.3438V13.709C315.797 13.0254 315.756 12.4329 315.674 11.9316C315.601 11.4212 315.492 10.9883 315.346 10.6328C315.209 10.2773 315.036 9.99023 314.826 9.77148C314.617 9.55273 314.375 9.39323 314.102 9.29297C313.837 9.18359 313.546 9.12891 313.227 9.12891C312.826 9.12891 312.465 9.21094 312.146 9.375C311.827 9.53906 311.559 9.79883 311.34 10.1543C311.121 10.5007 310.952 10.9701 310.834 11.5625C310.725 12.1458 310.67 12.8613 310.67 13.709V18.3438C310.67 19.0273 310.706 19.6243 310.779 20.1348C310.861 20.6452 310.971 21.0827 311.107 21.4473C311.253 21.8027 311.431 22.0944 311.641 22.3223C311.85 22.541 312.092 22.7005 312.365 22.8008C312.639 22.901 312.935 22.9512 313.254 22.9512C313.655 22.9512 314.01 22.8737 314.32 22.7188C314.63 22.5547 314.895 22.2949 315.113 21.9395C315.341 21.5749 315.51 21.0964 315.619 20.5039C315.738 19.9115 315.797 19.1914 315.797 18.3438ZM322.592 10.9746V9.92188C322.592 9.16536 322.756 8.47721 323.084 7.85742C323.412 7.23763 323.9 6.74089 324.547 6.36719C325.203 5.99349 326.005 5.80664 326.953 5.80664C327.938 5.80664 328.753 5.99349 329.4 6.36719C330.048 6.74089 330.531 7.23763 330.85 7.85742C331.178 8.47721 331.342 9.16536 331.342 9.92188V10.9746C331.342 11.7129 331.178 12.3919 330.85 13.0117C330.531 13.6315 330.048 14.1283 329.4 14.502C328.762 14.8757 327.956 15.0625 326.98 15.0625C326.023 15.0625 325.217 14.8757 324.561 14.502C323.913 14.1283 323.421 13.6315 323.084 13.0117C322.756 12.3919 322.592 11.7129 322.592 10.9746ZM325.381 9.92188V10.9746C325.381 11.2754 325.44 11.5579 325.559 11.8223C325.677 12.0866 325.855 12.3008 326.092 12.4648C326.329 12.6289 326.625 12.7109 326.98 12.7109C327.345 12.7109 327.641 12.6289 327.869 12.4648C328.097 12.3008 328.266 12.0866 328.375 11.8223C328.493 11.5579 328.553 11.2754 328.553 10.9746V9.92188C328.553 9.61198 328.493 9.32487 328.375 9.06055C328.266 8.78711 328.092 8.56836 327.855 8.4043C327.618 8.24023 327.318 8.1582 326.953 8.1582C326.607 8.1582 326.315 8.24023 326.078 8.4043C325.85 8.56836 325.677 8.78711 325.559 9.06055C325.44 9.32487 325.381 9.61198 325.381 9.92188ZM332.08 22.1719V21.1191C332.08 20.3717 332.244 19.6882 332.572 19.0684C332.91 18.4486 333.402 17.9518 334.049 17.5781C334.705 17.2044 335.512 17.0176 336.469 17.0176C337.444 17.0176 338.255 17.2044 338.902 17.5781C339.549 17.9518 340.033 18.4486 340.352 19.0684C340.68 19.6882 340.844 20.3717 340.844 21.1191V22.1719C340.844 22.9193 340.68 23.6029 340.352 24.2227C340.033 24.8424 339.549 25.3392 338.902 25.7129C338.264 26.0866 337.462 26.2734 336.496 26.2734C335.53 26.2734 334.719 26.0866 334.062 25.7129C333.406 25.3392 332.91 24.8424 332.572 24.2227C332.244 23.6029 332.08 22.9193 332.08 22.1719ZM334.883 21.1191V22.1719C334.883 22.4818 334.951 22.7689 335.088 23.0332C335.225 23.2975 335.416 23.5117 335.662 23.6758C335.908 23.8398 336.186 23.9219 336.496 23.9219C336.924 23.9219 337.248 23.8398 337.467 23.6758C337.695 23.5117 337.85 23.2975 337.932 23.0332C338.014 22.7689 338.055 22.4818 338.055 22.1719V21.1191C338.055 20.8092 337.995 20.5221 337.877 20.2578C337.768 19.9935 337.594 19.7793 337.357 19.6152C337.12 19.4512 336.824 19.3691 336.469 19.3691C336.113 19.3691 335.817 19.4512 335.58 19.6152C335.343 19.7793 335.165 19.9935 335.047 20.2578C334.938 20.5221 334.883 20.8092 334.883 21.1191ZM337.535 8.95117L327.814 24.5098L325.777 23.457L335.498 7.89844L337.535 8.95117Z" fill="#3F51B5"/>
<defs>
<linearGradient id="paint0_linear_514_102" x1="0" y1="20" x2="340" y2="20" gradientUnits="userSpaceOnUse">
<stop stop-color="#D0B6FD"/>
<stop offset="1" stop-color="#D0B6FD" stop-opacity="0"/>
</linearGradient>
<linearGradient id="paint1_linear_514_102" x1="0" y1="20" x2="340" y2="20" gradientUnits="userSpaceOnUse">
<stop stop-color="#E0E5FF"/>
<stop offset="1" stop-color="white"/>
</linearGradient>
<linearGradient id="paint2_linear_514_102" x1="0" y1="20" x2="340" y2="20" gradientUnits="userSpaceOnUse">
<stop stop-color="#3F51B5"/>
<stop offset="1" stop-color="#FEFEFF"/>
</linearGradient>
<linearGradient id="paint3_linear_514_102" x1="0" y1="20" x2="282" y2="20" gradientUnits="userSpaceOnUse">
<stop stop-color="#D0B6FD"/>
<stop offset="1" stop-color="#D0B6FD" stop-opacity="0"/>
</linearGradient>
<linearGradient id="paint4_linear_514_102" x1="0" y1="20" x2="282" y2="20" gradientUnits="userSpaceOnUse">
<stop stop-color="#E0E5FF"/>
<stop offset="1" stop-color="white"/>
</linearGradient>
<linearGradient id="paint5_linear_514_102" x1="0" y1="20" x2="282" y2="20" gradientUnits="userSpaceOnUse">
<stop stop-color="#3F51B5"/>
<stop offset="1" stop-color="#FEFEFF"/>
</linearGradient>
<linearGradient id="paint6_linear_514_102" x1="0" y1="20" x2="214" y2="20" gradientUnits="userSpaceOnUse">
<stop stop-color="#D0B6FD"/>
<stop offset="1" stop-color="#D0B6FD" stop-opacity="0"/>
</linearGradient>
<linearGradient id="paint7_linear_514_102" x1="0" y1="20" x2="214" y2="20" gradientUnits="userSpaceOnUse">
<stop stop-color="#E0E5FF"/>
<stop offset="1" stop-color="white"/>
</linearGradient>
<linearGradient id="paint8_linear_514_102" x1="0" y1="20" x2="214" y2="20" gradientUnits="userSpaceOnUse">
<stop stop-color="#3F51B5"/>
<stop offset="1" stop-color="#FEFEFF"/>
</linearGradient>
</defs>
</svg>
